  0
SECTION
  2
HEADER
  9
$ACADVER
  1
AC1009
  9
$ANGDIR
  70
0
  9
$CECOLOR
  62
256
  9
$CELTYPE
  6
BYLAYER
  9
$EXTMIN
  10
0.0
  20
0.0
  9
$EXTMAX
  10
4.0551
  20
3.1102
  9
$FILLMODE
  70
1
  9
$MIRRTEXT
  70
0
  0
ENDSEC
  0
SECTION
  2
TABLES
  0
TABLE
  2
LAYER
  70
17
  0
LAYER
  2
Drill_Top
  70
64
  62
7
  6
CONTINUOUS
  0
LAYER
  2
Board_Outline
  70
64
  62
13
  6
CONTINUOUS
  0
ENDTAB
  0
ENDSEC
  0
SECTION
  2
ENTITIES
  0
CIRCLE
  8
Drill_Top
  10
0.4724
  20
0.5906
  40
0.0181
  0
CIRCLE
  8
Drill_Top
  10
0.374
  20
0.5906
  40
0.0181
  0
CIRCLE
  8
Drill_Top
  10
0.374
  20
0.5118
  40
0.0181
  0
CIRCLE
  8
Drill_Top
  10
0.4724
  20
0.5118
  40
0.0181
  0
CIRCLE
  8
Drill_Top
  10
0.1862
  20
0.4051
  40
0.0453
  0
CIRCLE
  8
Drill_Top
  10
0.6602
  20
0.4051
  40
0.0453
  0
CIRCLE
  8
Drill_Top
  10
1.4625
  20
2.7875
  40
0.02
  0
CIRCLE
  8
Drill_Top
  10
1.5025
  20
2.5875
  40
0.02
  0
CIRCLE
  8
Drill_Top
  10
1.5625
  20
2.7875
  40
0.0467
  0
CIRCLE
  8
Drill_Top
  10
1.3625
  20
2.788
  40
0.0467
  0
CIRCLE
  8
Drill_Top
  10
1.3625
  20
2.663
  40
0.0467
  0
CIRCLE
  8
Drill_Top
  10
1.5625
  20
2.663
  40
0.0467
  0
CIRCLE
  8
Drill_Top
  10
1.4225
  20
2.5875
  40
0.02
  0
CIRCLE
  8
Drill_Top
  10
3.225
  20
1.125
  40
0.063
  0
CIRCLE
  8
Drill_Top
  10
3.6625
  20
1.125
  40
0.063
  0
CIRCLE
  8
Drill_Top
  10
1.9276
  20
3.0
  40
0.0217
  0
CIRCLE
  8
Drill_Top
  10
2.0276
  20
3.0
  40
0.0217
  0
CIRCLE
  8
Drill_Top
  10
2.1276
  20
3.0
  40
0.0217
  0
CIRCLE
  8
Drill_Top
  10
3.3789
  20
0.2537
  40
0.0236
  0
CIRCLE
  8
Drill_Top
  10
3.4773
  20
0.3561
  40
0.0236
  0
CIRCLE
  8
Drill_Top
  10
3.5758
  20
0.2537
  40
0.0236
  0
CIRCLE
  8
Drill_Top
  10
3.6742
  20
0.3561
  40
0.0236
  0
CIRCLE
  8
Drill_Top
  10
3.7726
  20
0.2537
  40
0.0236
  0
CIRCLE
  8
Drill_Top
  10
0.5512
  20
0.9055
  40
0.0177
  0
CIRCLE
  8
Drill_Top
  10
0.6512
  20
0.9055
  40
0.0177
  0
CIRCLE
  8
Drill_Top
  10
0.8512
  20
0.9055
  40
0.0177
  0
CIRCLE
  8
Drill_Top
  10
0.9512
  20
0.9055
  40
0.0177
  0
CIRCLE
  8
Drill_Top
  10
1.0512
  20
0.9055
  40
0.0177
  0
POLYLINE
  8
Board_Outline
  6
CONTINUOUS
  66
1
  70
0
  40
0.0055
  41
0.0055
  0
VERTEX
  8
Board_Outline
  10
3.2136
  20
0.4171
  42
0
  0
VERTEX
  8
Board_Outline
  10
3.2923
  20
0.4171
  42
0
  0
VERTEX
  8
Board_Outline
  10
3.2923
  20
0.3345
  42
0
  0
VERTEX
  8
Board_Outline
  10
3.2136
  20
0.3345
  42
0
  0
VERTEX
  8
Board_Outline
  10
3.2136
  20
0.4171
  42
0
  0
SEQEND
  0
POLYLINE
  8
Board_Outline
  6
CONTINUOUS
  66
1
  70
0
  40
0.0055
  41
0.0055
  0
VERTEX
  8
Board_Outline
  10
3.8592
  20
0.4171
  42
0
  0
VERTEX
  8
Board_Outline
  10
3.938
  20
0.4171
  42
0
  0
VERTEX
  8
Board_Outline
  10
3.938
  20
0.3345
  42
0
  0
VERTEX
  8
Board_Outline
  10
3.8592
  20
0.3345
  42
0
  0
VERTEX
  8
Board_Outline
  10
3.8592
  20
0.4171
  42
0
  0
SEQEND
  0
POLYLINE
  8
Board_Outline
  6
CONTINUOUS
  66
1
  70
0
  40
0.0055
  41
0.0055
  0
VERTEX
  8
Board_Outline
  10
0.0
  20
0.0
  42
0
  0
VERTEX
  8
Board_Outline
  10
0.0
  20
3.1102
  42
0
  0
VERTEX
  8
Board_Outline
  10
4.0551
  20
3.1102
  42
0
  0
VERTEX
  8
Board_Outline
  10
4.0551
  20
0.0
  42
0
  0
VERTEX
  8
Board_Outline
  10
3.2087
  20
0.0
  42
0
  0
VERTEX
  8
Board_Outline
  10
3.2087
  20
0.689
  42
0
  0
VERTEX
  8
Board_Outline
  10
0.7874
  20
0.689
  42
0
  0
VERTEX
  8
Board_Outline
  10
0.7874
  20
0.0
  42
0
  0
VERTEX
  8
Board_Outline
  10
0.0
  20
0.0
  42
0
  0
SEQEND
  0
POLYLINE
  8
Board_Outline
  6
CONTINUOUS
  66
1
  70
0
  40
0.0098
  41
0.0098
  0
VERTEX
  8
Board_Outline
  10
3.2136
  20
0.4171
  42
0
  0
VERTEX
  8
Board_Outline
  10
3.2923
  20
0.4171
  42
0
  0
VERTEX
  8
Board_Outline
  10
3.2923
  20
0.3345
  42
0
  0
VERTEX
  8
Board_Outline
  10
3.2136
  20
0.3345
  42
0
  0
VERTEX
  8
Board_Outline
  10
3.2136
  20
0.4171
  42
0
  0
SEQEND
  0
POLYLINE
  8
Board_Outline
  6
CONTINUOUS
  66
1
  70
0
  40
0.0098
  41
0.0098
  0
VERTEX
  8
Board_Outline
  10
3.8592
  20
0.4171
  42
0
  0
VERTEX
  8
Board_Outline
  10
3.938
  20
0.4171
  42
0
  0
VERTEX
  8
Board_Outline
  10
3.938
  20
0.3345
  42
0
  0
VERTEX
  8
Board_Outline
  10
3.8592
  20
0.3345
  42
0
  0
VERTEX
  8
Board_Outline
  10
3.8592
  20
0.4171
  42
0
  0
SEQEND
  0
ENDSEC
  0
EOF
