  0
SECTION
  2
HEADER
  9
$ACADVER
  1
AC1009
  9
$ANGDIR
  70
0
  9
$CECOLOR
  62
256
  9
$CELTYPE
  6
BYLAYER
  9
$EXTMIN
  10
0.0
  20
0.0
  9
$EXTMAX
  10
3.937
  20
3.1102
  9
$FILLMODE
  70
1
  9
$MIRRTEXT
  70
0
  0
ENDSEC
  0
SECTION
  2
TABLES
  0
TABLE
  2
LAYER
  70
17
  0
LAYER
  2
Drill_Top
  70
64
  62
7
  6
CONTINUOUS
  0
LAYER
  2
Board_Outline
  70
64
  62
13
  6
CONTINUOUS
  0
ENDTAB
  0
ENDSEC
  0
SECTION
  2
ENTITIES
  0
CIRCLE
  8
Drill_Top
  10
0.4724
  20
0.5906
  40
0.0181
  0
CIRCLE
  8
Drill_Top
  10
0.374
  20
0.5906
  40
0.0181
  0
CIRCLE
  8
Drill_Top
  10
0.374
  20
0.5118
  40
0.0181
  0
CIRCLE
  8
Drill_Top
  10
0.4724
  20
0.5118
  40
0.0181
  0
CIRCLE
  8
Drill_Top
  10
0.1862
  20
0.4051
  40
0.0453
  0
CIRCLE
  8
Drill_Top
  10
0.6602
  20
0.4051
  40
0.0453
  0
CIRCLE
  8
Drill_Top
  10
1.4625
  20
2.7875
  40
0.02
  0
CIRCLE
  8
Drill_Top
  10
1.5025
  20
2.5875
  40
0.02
  0
CIRCLE
  8
Drill_Top
  10
1.5625
  20
2.7875
  40
0.0467
  0
CIRCLE
  8
Drill_Top
  10
1.3625
  20
2.788
  40
0.0467
  0
CIRCLE
  8
Drill_Top
  10
1.3625
  20
2.663
  40
0.0467
  0
CIRCLE
  8
Drill_Top
  10
1.5625
  20
2.663
  40
0.0467
  0
CIRCLE
  8
Drill_Top
  10
1.4225
  20
2.5875
  40
0.02
  0
CIRCLE
  8
Drill_Top
  10
0.0984
  20
0.9843
  40
0.0512
  0
CIRCLE
  8
Drill_Top
  10
0.0984
  20
2.9528
  40
0.0512
  0
CIRCLE
  8
Drill_Top
  10
3.8386
  20
2.9528
  40
0.0512
  0
CIRCLE
  8
Drill_Top
  10
3.8386
  20
0.9843
  40
0.0512
  0
CIRCLE
  8
Drill_Top
  10
3.225
  20
1.125
  40
0.063
  0
CIRCLE
  8
Drill_Top
  10
3.6625
  20
1.125
  40
0.063
  0
CIRCLE
  8
Drill_Top
  10
1.85
  20
3.0
  40
0.0217
  0
CIRCLE
  8
Drill_Top
  10
1.95
  20
3.0
  40
0.0217
  0
CIRCLE
  8
Drill_Top
  10
2.05
  20
3.0
  40
0.0217
  0
CIRCLE
  8
Drill_Top
  10
0.9164
  20
0.2537
  40
0.0236
  0
CIRCLE
  8
Drill_Top
  10
1.0148
  20
0.3561
  40
0.0236
  0
CIRCLE
  8
Drill_Top
  10
1.1133
  20
0.2537
  40
0.0236
  0
CIRCLE
  8
Drill_Top
  10
1.2117
  20
0.3561
  40
0.0236
  0
CIRCLE
  8
Drill_Top
  10
1.3101
  20
0.2537
  40
0.0236
  0
CIRCLE
  8
Drill_Top
  10
0.5512
  20
0.9055
  40
0.0177
  0
CIRCLE
  8
Drill_Top
  10
0.6512
  20
0.9055
  40
0.0177
  0
CIRCLE
  8
Drill_Top
  10
0.8512
  20
0.9055
  40
0.0177
  0
CIRCLE
  8
Drill_Top
  10
0.9512
  20
0.9055
  40
0.0177
  0
CIRCLE
  8
Drill_Top
  10
1.0512
  20
0.9055
  40
0.0177
  0
POLYLINE
  8
Board_Outline
  6
CONTINUOUS
  66
1
  70
0
  40
0.0055
  41
0.0055
  0
VERTEX
  8
Board_Outline
  10
0.7511
  20
0.4171
  42
0
  0
VERTEX
  8
Board_Outline
  10
0.8298
  20
0.4171
  42
0
  0
VERTEX
  8
Board_Outline
  10
0.8298
  20
0.3345
  42
0
  0
VERTEX
  8
Board_Outline
  10
0.7511
  20
0.3345
  42
0
  0
VERTEX
  8
Board_Outline
  10
0.7511
  20
0.4171
  42
0
  0
SEQEND
  0
POLYLINE
  8
Board_Outline
  6
CONTINUOUS
  66
1
  70
0
  40
0.0055
  41
0.0055
  0
VERTEX
  8
Board_Outline
  10
1.3967
  20
0.4171
  42
0
  0
VERTEX
  8
Board_Outline
  10
1.4755
  20
0.4171
  42
0
  0
VERTEX
  8
Board_Outline
  10
1.4755
  20
0.3345
  42
0
  0
VERTEX
  8
Board_Outline
  10
1.3967
  20
0.3345
  42
0
  0
VERTEX
  8
Board_Outline
  10
1.3967
  20
0.4171
  42
0
  0
SEQEND
  0
POLYLINE
  8
Board_Outline
  6
CONTINUOUS
  66
1
  70
0
  40
0.0055
  41
0.0055
  0
VERTEX
  8
Board_Outline
  10
0.0
  20
0.0394
  42
0
  0
VERTEX
  8
Board_Outline
  10
0.0001
  20
0.0286
  42
0
  0
VERTEX
  8
Board_Outline
  10
0.0034
  20
0.0184
  42
0
  0
VERTEX
  8
Board_Outline
  10
0.0098
  20
0.0098
  42
0
  0
VERTEX
  8
Board_Outline
  10
0.0184
  20
0.0034
  42
0
  0
VERTEX
  8
Board_Outline
  10
0.0286
  20
0.0001
  42
0
  0
VERTEX
  8
Board_Outline
  10
0.0394
  20
0.0
  42
0
  0
VERTEX
  8
Board_Outline
  10
1.4567
  20
0.0
  42
0
  0
VERTEX
  8
Board_Outline
  10
1.4668
  20
0.0015
  42
0
  0
VERTEX
  8
Board_Outline
  10
1.4762
  20
0.0056
  42
0
  0
VERTEX
  8
Board_Outline
  10
1.4843
  20
0.0118
  42
0
  0
VERTEX
  8
Board_Outline
  10
1.4905
  20
0.0199
  42
0
  0
VERTEX
  8
Board_Outline
  10
1.4945
  20
0.0293
  42
0
  0
VERTEX
  8
Board_Outline
  10
1.4961
  20
0.0394
  42
0
  0
VERTEX
  8
Board_Outline
  10
1.4961
  20
0.8465
  42
0
  0
VERTEX
  8
Board_Outline
  10
1.4976
  20
0.8566
  42
0
  0
VERTEX
  8
Board_Outline
  10
1.5016
  20
0.8659
  42
0
  0
VERTEX
  8
Board_Outline
  10
1.5079
  20
0.874
  42
0
  0
VERTEX
  8
Board_Outline
  10
1.516
  20
0.8803
  42
0
  0
VERTEX
  8
Board_Outline
  10
1.5253
  20
0.8843
  42
0
  0
VERTEX
  8
Board_Outline
  10
1.5354
  20
0.8858
  42
0
  0
VERTEX
  8
Board_Outline
  10
3.8976
  20
0.8858
  42
0
  0
VERTEX
  8
Board_Outline
  10
3.9077
  20
0.8874
  42
0
  0
VERTEX
  8
Board_Outline
  10
3.9171
  20
0.8914
  42
0
  0
VERTEX
  8
Board_Outline
  10
3.9252
  20
0.8976
  42
0
  0
VERTEX
  8
Board_Outline
  10
3.9314
  20
0.9057
  42
0
  0
VERTEX
  8
Board_Outline
  10
3.9355
  20
0.9151
  42
0
  0
VERTEX
  8
Board_Outline
  10
3.937
  20
0.9252
  42
0
  0
VERTEX
  8
Board_Outline
  10
3.937
  20
3.0709
  42
0
  0
VERTEX
  8
Board_Outline
  10
3.9355
  20
3.081
  42
0
  0
VERTEX
  8
Board_Outline
  10
3.9314
  20
3.0903
  42
0
  0
VERTEX
  8
Board_Outline
  10
3.9252
  20
3.0984
  42
0
  0
VERTEX
  8
Board_Outline
  10
3.9171
  20
3.1047
  42
0
  0
VERTEX
  8
Board_Outline
  10
3.9077
  20
3.1087
  42
0
  0
VERTEX
  8
Board_Outline
  10
3.8976
  20
3.1102
  42
0
  0
VERTEX
  8
Board_Outline
  10
0.0394
  20
3.1102
  42
0
  0
VERTEX
  8
Board_Outline
  10
0.0293
  20
3.1087
  42
0
  0
VERTEX
  8
Board_Outline
  10
0.0199
  20
3.1047
  42
0
  0
VERTEX
  8
Board_Outline
  10
0.0118
  20
3.0984
  42
0
  0
VERTEX
  8
Board_Outline
  10
0.0056
  20
3.0903
  42
0
  0
VERTEX
  8
Board_Outline
  10
0.0015
  20
3.081
  42
0
  0
VERTEX
  8
Board_Outline
  10
0.0
  20
3.0709
  42
0
  0
VERTEX
  8
Board_Outline
  10
0.0
  20
0.0394
  42
0
  0
SEQEND
  0
POLYLINE
  8
Board_Outline
  6
CONTINUOUS
  66
1
  70
0
  40
0.0098
  41
0.0098
  0
VERTEX
  8
Board_Outline
  10
0.7511
  20
0.4171
  42
0
  0
VERTEX
  8
Board_Outline
  10
0.8298
  20
0.4171
  42
0
  0
VERTEX
  8
Board_Outline
  10
0.8298
  20
0.3345
  42
0
  0
VERTEX
  8
Board_Outline
  10
0.7511
  20
0.3345
  42
0
  0
VERTEX
  8
Board_Outline
  10
0.7511
  20
0.4171
  42
0
  0
SEQEND
  0
POLYLINE
  8
Board_Outline
  6
CONTINUOUS
  66
1
  70
0
  40
0.0098
  41
0.0098
  0
VERTEX
  8
Board_Outline
  10
1.3967
  20
0.4171
  42
0
  0
VERTEX
  8
Board_Outline
  10
1.4755
  20
0.4171
  42
0
  0
VERTEX
  8
Board_Outline
  10
1.4755
  20
0.3345
  42
0
  0
VERTEX
  8
Board_Outline
  10
1.3967
  20
0.3345
  42
0
  0
VERTEX
  8
Board_Outline
  10
1.3967
  20
0.4171
  42
0
  0
SEQEND
  0
ENDSEC
  0
EOF
