G04 DipTrace 2.4.0.1*
%INfanexpansion.front.gtl*%
%MOIN*%
%ADD13C,0.02*%
%ADD14C,0.01*%
%ADD18R,0.0433X0.0394*%
%ADD19R,0.0394X0.0433*%
%ADD21R,0.0315X0.0236*%
%ADD22C,0.075*%
%ADD23R,0.0984X0.0984*%
%ADD24C,0.0984*%
%ADD26R,0.0256X0.0413*%
%ADD27R,0.0669X0.0669*%
%ADD28C,0.0669*%
%ADD29R,0.0512X0.0591*%
%ADD30R,0.0157X0.0551*%
%ADD31C,0.0236*%
%FSLAX44Y44*%
G04*
G70*
G90*
G75*
G01*
%LNTop*%
%LPD*%
X5703Y13562D2*
D13*
Y11580D1*
X5970Y11312D1*
X8687Y10647D2*
Y11562D1*
X8562Y11687D1*
X7437D1*
X7312Y11562D1*
Y11187D1*
X7303Y11178D1*
X12187Y10647D2*
Y11562D1*
X12062Y11687D1*
X10937D1*
X10812Y11562D1*
Y11187D1*
X10803Y11178D1*
X9470Y11312D2*
Y12830D1*
X10203Y13562D1*
X9437Y5562D2*
Y6272D1*
X9272Y6437D1*
X11522Y7187D2*
X12062D1*
X12937Y8062D1*
X11522Y7187D2*
Y5772D1*
X11312Y5562D1*
X9437D1*
X12937Y8062D2*
X13312D1*
X13562Y7812D1*
Y11687D1*
Y14062D1*
X13312Y14312D1*
X10203D1*
X8657D1*
X5937D1*
X5687Y14062D1*
Y13578D1*
X5703Y13562D1*
X10203D2*
Y14312D1*
X8687Y11562D2*
X8657Y14312D1*
X12187Y11562D2*
Y11687D1*
X13562D1*
X8687Y9977D2*
D14*
X8602D1*
X8071Y9446D1*
X12187Y9977D2*
X12102D1*
X11571Y9446D1*
X7352Y7187D2*
X7312D1*
X6937Y6812D1*
X6227D1*
X5852Y7187D1*
X4937Y11062D2*
D13*
X4687D1*
X4312Y10687D1*
Y7437D1*
X5312D1*
D14*
X5562Y7187D1*
X5852D1*
X5813Y7937D2*
D13*
X5312Y7437D1*
X6937Y5562D2*
D14*
Y6437D1*
Y6812D1*
X8312Y10312D2*
X8352D1*
X8687Y9977D1*
X8071Y9446D2*
Y8861D1*
X8022Y8812D1*
X11571Y9446D2*
Y8861D1*
X11522Y8812D1*
X11812Y10312D2*
X11852D1*
X12187Y9977D1*
X9313Y7937D2*
D13*
X9062D1*
X8812Y8187D1*
X6264Y5485D2*
D14*
Y5139D1*
X6187Y5062D1*
X4437D1*
X4312Y5187D1*
Y7437D1*
X7559Y9446D2*
Y9019D1*
X7352Y8812D1*
X8602Y6437D2*
Y5727D1*
X8437Y5562D1*
X8602Y6437D2*
X7606D1*
Y5562D1*
X8602Y6437D2*
Y6397D1*
X7303Y9446D2*
X7312Y9455D1*
Y9937D1*
X10812D2*
Y9455D1*
X10803Y9446D1*
X9562Y6812D2*
X8687D1*
X8562Y6687D1*
Y6477D1*
X8602Y6437D1*
X8022Y7937D2*
Y8227D1*
X7812Y8437D1*
X7062D1*
X6937Y8562D1*
Y10312D1*
X7062Y10437D1*
X7937D1*
X8062Y10562D1*
Y11169D1*
X8071Y11178D1*
X6561Y9859D2*
D13*
Y7937D1*
X7352D1*
X5812Y8602D2*
D14*
X5977D1*
X6187Y8812D1*
Y10187D1*
X6687Y10687D1*
X7437D1*
X7562Y10812D1*
Y11175D1*
X7559Y11178D1*
X5813Y9859D2*
Y9273D1*
X5812Y9272D1*
X6404Y11312D2*
D13*
Y10981D1*
X6187Y10765D1*
X7671Y13562D2*
Y12580D1*
X6404Y11312D1*
X9352Y7187D2*
D14*
X8437D1*
X8022D1*
X6522D2*
X6562D1*
X6937Y7562D1*
X7305D1*
X7647D1*
X8022Y7187D1*
X7815Y9446D2*
Y10187D1*
X8437Y9437D2*
Y7187D1*
X11315Y9446D2*
Y10187D1*
X8022Y7187D2*
D3*
X5890Y6391D2*
X6391D1*
X6437Y6437D1*
X7062Y7562D2*
X7305D1*
X10852Y7187D2*
X10022D1*
X11059Y9446D2*
Y9019D1*
X10852Y8812D1*
X11522Y7937D2*
Y8227D1*
X11312Y8437D1*
X10562D1*
X10437Y8562D1*
Y10312D1*
X10562Y10437D1*
X11437D1*
X11562Y10562D1*
Y11169D1*
X11571Y11178D1*
X10061Y9859D2*
D13*
Y7937D1*
X10852D2*
X10061D1*
X9312Y8602D2*
D14*
X9477D1*
X9687Y8812D1*
Y10187D1*
X10187Y10687D1*
X10937D1*
X11062Y10812D1*
Y11175D1*
X11059Y11178D1*
X9313Y9859D2*
Y9273D1*
X9312Y9272D1*
X9904Y11312D2*
D13*
Y10981D1*
X9687Y10765D1*
X12171Y13562D2*
X12154D1*
X9904Y11312D1*
X4937Y7062D2*
D14*
X5516Y6483D1*
Y5485D1*
D31*
X8312Y10312D3*
X11812D3*
X8812Y8187D3*
X5312Y7437D3*
X7312Y9937D3*
X10812D3*
X9562Y6812D3*
X7815Y10187D3*
X8437Y9437D3*
X11315Y10187D3*
X6437Y6437D3*
X7062Y7562D3*
X4937Y7062D3*
D18*
X7352Y8812D3*
X8022D3*
Y7937D3*
X7352D3*
X7606Y5562D3*
X6937D3*
D19*
X8687Y10647D3*
Y9977D3*
D18*
X6522Y7187D3*
X5852D3*
X10852Y8812D3*
X11522D3*
Y7937D3*
X10852D3*
D19*
X12187Y10647D3*
Y9977D3*
D21*
X5970Y11312D3*
X6404D3*
X9470D3*
X9904D3*
D22*
X12937Y8062D3*
Y9062D3*
Y10062D3*
Y11062D3*
X4937D3*
Y10062D3*
Y9062D3*
Y8062D3*
D23*
X7671Y13562D3*
D24*
X5703D3*
D23*
X12171D3*
D24*
X10203D3*
D26*
X5813Y9859D3*
X6561D3*
X6187Y10765D3*
X9313Y9859D3*
X10061D3*
X9687Y10765D3*
X5516Y5485D3*
X6264D3*
X5890Y6391D3*
D18*
X8602Y6437D3*
X9272D3*
X6937D3*
X7606D3*
D27*
X8437Y5562D3*
D28*
X9437D3*
D29*
X5813Y7937D3*
X6561D3*
D19*
X5812Y8602D3*
Y9272D3*
D18*
X7352Y7187D3*
X8022D3*
X9352D3*
X10022D3*
X10852D3*
X11522D3*
D29*
X9313Y7937D3*
X10061D3*
D19*
X9312Y8602D3*
Y9272D3*
D30*
X7303Y9446D3*
X7559D3*
X7815D3*
X8071D3*
Y11178D3*
X7815D3*
X7559D3*
X7303D3*
X10803Y9446D3*
X11059D3*
X11315D3*
X11571D3*
Y11178D3*
X11315D3*
X11059D3*
X10803D3*
M02*
