M48
INCH
T01C0.0118
T02C0.0354
T03C0.0433
T04C0.0512
%
T01
X+008187Y+010312
X+007690Y+010187
X+007187Y+009937
X+008562Y+009562
X+010687Y+009937
X+011190Y+010187
X+011687Y+010312
X+008312Y+006812
T02
X+012812Y+007812
X+012812Y+008812
X+012812Y+009812
X+012812Y+010812
X+004812Y+010812
X+004812Y+009812
X+004812Y+008812
X+004812Y+007812
T03
X+008312Y+005562
X+009312Y+005562
T04
X+007546Y+013562
X+005578Y+013562
X+010078Y+013562
X+012046Y+013562
T00
M30
