G04 DipTrace 2.4.0.1*
%INfanexpansion.frontsilk.gto*%
%MOIN*%
%ADD10C,0.0098*%
%ADD17C,0.004*%
%ADD20C,0.0079*%
%ADD25C,0.0154*%
%ADD60C,0.0062*%
%ADD61C,0.0124*%
%ADD62C,0.0093*%
%FSLAX44Y44*%
G04*
G70*
G90*
G75*
G01*
%LNTopSilk*%
%LPD*%
X5951Y11509D2*
D17*
X6423D1*
X5951Y11115D2*
X6423D1*
D20*
X5715Y11312D3*
X9451Y11509D2*
D17*
X9923D1*
X9451Y11115D2*
X9923D1*
D20*
X9215Y11312D3*
X8892Y15137D2*
D10*
X4719D1*
Y11594D1*
X8892D1*
Y15137D1*
G36*
X7827Y14790D2*
X7513D1*
Y15105D1*
X7827D1*
Y14790D1*
G37*
G36*
X5860D2*
X5546D1*
Y15105D1*
X5860D1*
Y14790D1*
G37*
X13392Y15137D2*
D10*
X9219D1*
Y11594D1*
X13392D1*
Y15137D1*
G36*
X12327Y14790D2*
X12013D1*
Y15105D1*
X12327D1*
Y14790D1*
G37*
G36*
X10360D2*
X10046D1*
Y15105D1*
X10360D1*
Y14790D1*
G37*
D25*
X5505Y9712D3*
X5597Y10214D2*
D10*
X6778D1*
Y10410D1*
X5597D1*
Y10214D1*
D25*
X9005Y9712D3*
X9097Y10214D2*
D10*
X10278D1*
Y10410D1*
X9097D1*
Y10214D1*
D25*
X5207Y5338D3*
X5299Y5840D2*
D10*
X6480D1*
Y6036D1*
X5299D1*
Y5840D1*
X9937Y6062D2*
X7937D1*
Y5062D1*
X9937D1*
Y6062D1*
X7096Y9879D2*
X8278D1*
X7096Y10745D2*
X8278D1*
Y9879D2*
Y10745D1*
X7096Y9879D2*
Y10154D1*
Y10470D2*
Y10745D1*
Y10154D2*
G03X7096Y10470I0J158D01*
G01*
X10596Y9879D2*
X11778D1*
X10596Y10745D2*
X11778D1*
Y9879D2*
Y10745D1*
X10596Y9879D2*
Y10154D1*
Y10470D2*
Y10745D1*
Y10154D2*
G03X10596Y10470I0J158D01*
G01*
X8937Y10687D2*
D17*
Y9937D1*
X8437Y10687D2*
Y9937D1*
X6062Y9312D2*
Y8562D1*
X5562D2*
Y9312D1*
X9562D2*
Y8562D1*
X9062D2*
Y9312D1*
X7312Y9062D2*
X8062D1*
Y8562D2*
X7312D1*
X10812D2*
X11562D1*
X10812Y9062D2*
X11562D1*
X10812Y8187D2*
X11562D1*
X10812Y7687D2*
X11562D1*
X9312Y8312D2*
X10062D1*
X9312Y7562D2*
X10062D1*
X9312Y7437D2*
X10062D1*
X9312Y6937D2*
X10062D1*
X10812Y7437D2*
X11562D1*
X10812Y6937D2*
X11562D1*
X8562Y6687D2*
X9312D1*
X8562Y6187D2*
X9312D1*
X6937Y6687D2*
X7687D1*
X6937Y6187D2*
X7687D1*
X6937Y5812D2*
X7687D1*
X6937Y5312D2*
X7687D1*
X5812Y7437D2*
X6562D1*
X5812Y6937D2*
X6562D1*
X7312Y7437D2*
X8062D1*
X7312Y6937D2*
X8062D1*
X7312Y8187D2*
X8062D1*
X7312Y7687D2*
X8062D1*
X5812Y8312D2*
X6562D1*
X5812Y7562D2*
X6562D1*
X11937Y10687D2*
Y9937D1*
X12437Y10687D2*
Y9937D1*
X6409Y14723D2*
D60*
X6160D1*
Y14321D1*
Y14531D2*
X6313D1*
X6839Y14321D2*
X6686Y14723D1*
X6533Y14321D1*
X6590Y14455D2*
X6782D1*
X7231Y14723D2*
Y14321D1*
X6963Y14723D1*
Y14321D1*
X7354Y14646D2*
X7393Y14665D1*
X7450Y14722D1*
Y14321D1*
X10823Y14723D2*
X10574D1*
Y14321D1*
Y14531D2*
X10727D1*
X11253Y14321D2*
X11100Y14723D1*
X10947Y14321D1*
X11004Y14455D2*
X11196D1*
X11645Y14723D2*
Y14321D1*
X11377Y14723D1*
Y14321D1*
X11788Y14627D2*
Y14646D1*
X11807Y14684D1*
X11826Y14703D1*
X11864Y14722D1*
X11941D1*
X11979Y14703D1*
X11998Y14684D1*
X12017Y14646D1*
Y14608D1*
X11998Y14569D1*
X11960Y14512D1*
X11768Y14321D1*
X12036D1*
X5571Y7183D2*
X5533Y7165D1*
X5495Y7126D1*
X5476Y7088D1*
X5456Y7030D1*
Y6935D1*
X5476Y6877D1*
X5495Y6839D1*
X5533Y6801D1*
X5571Y6782D1*
X5648D1*
X5686Y6801D1*
X5724Y6839D1*
X5743Y6877D1*
X5763Y6935D1*
Y7030D1*
X5743Y7088D1*
X5724Y7126D1*
X5686Y7165D1*
X5648Y7183D1*
X5571D1*
X5629Y6858D2*
X5743Y6743D1*
X5925Y7183D2*
X6135D1*
X6020Y7030D1*
X6078D1*
X6116Y7011D1*
X6135Y6992D1*
X6154Y6934D1*
Y6896D1*
X6135Y6839D1*
X6097Y6800D1*
X6039Y6781D1*
X5982D1*
X5925Y6800D1*
X5906Y6820D1*
X5886Y6858D1*
X5516Y15935D2*
D61*
Y15246D1*
X5172Y15590D2*
X5860D1*
X7663D2*
X8105D1*
X10016Y15935D2*
Y15246D1*
X9672Y15590D2*
X10360D1*
X12163D2*
X12605D1*
X6732Y4811D2*
D62*
Y4208D1*
X6531Y4811D2*
X6933D1*
X7118D2*
Y4208D1*
Y4495D2*
X7205Y4581D1*
X7262Y4610D1*
X7348D1*
X7406Y4581D1*
X7434Y4495D1*
Y4208D1*
X7619Y4437D2*
X7964D1*
Y4495D1*
X7935Y4553D1*
X7906Y4581D1*
X7849Y4610D1*
X7763D1*
X7706Y4581D1*
X7648Y4524D1*
X7619Y4437D1*
Y4380D1*
X7648Y4294D1*
X7706Y4237D1*
X7763Y4208D1*
X7849D1*
X7906Y4237D1*
X7964Y4294D1*
X8149Y4610D2*
Y4208D1*
Y4437D2*
X8178Y4524D1*
X8235Y4581D1*
X8293Y4610D1*
X8379D1*
X8564D2*
Y4208D1*
Y4495D2*
X8650Y4581D1*
X8708Y4610D1*
X8794D1*
X8851Y4581D1*
X8880Y4495D1*
Y4208D1*
Y4495D2*
X8966Y4581D1*
X9024Y4610D1*
X9109D1*
X9167Y4581D1*
X9196Y4495D1*
Y4208D1*
X9382Y4811D2*
X9410Y4782D1*
X9439Y4811D1*
X9410Y4840D1*
X9382Y4811D1*
X9410Y4610D2*
Y4208D1*
X9940Y4524D2*
X9912Y4581D1*
X9825Y4610D1*
X9739D1*
X9653Y4581D1*
X9625Y4524D1*
X9653Y4466D1*
X9711Y4437D1*
X9854Y4409D1*
X9912Y4380D1*
X9940Y4323D1*
Y4294D1*
X9912Y4237D1*
X9825Y4208D1*
X9739D1*
X9653Y4237D1*
X9625Y4294D1*
X10212Y4811D2*
Y4323D1*
X10240Y4237D1*
X10298Y4208D1*
X10355D1*
X10125Y4610D2*
X10326D1*
X10683D2*
X10626Y4581D1*
X10569Y4524D1*
X10540Y4437D1*
Y4380D1*
X10569Y4294D1*
X10626Y4237D1*
X10683Y4208D1*
X10770D1*
X10827Y4237D1*
X10884Y4294D1*
X10914Y4380D1*
Y4437D1*
X10884Y4524D1*
X10827Y4581D1*
X10770Y4610D1*
X10683D1*
X11099D2*
Y4208D1*
Y4437D2*
X11128Y4524D1*
X11185Y4581D1*
X11243Y4610D1*
X11329D1*
M02*
