M48
INCH
T01C0.0118
T02C0.0354
T03C0.0402
T04C0.0433
%
T01
X+011022Y+006919
X+012187Y+009187
X+009937Y+011812
X+008062Y+009187
X+006937Y+006025
X+005312Y+006937
X+005812Y+011937
T02
X+012937Y+008062
X+012937Y+009062
X+012937Y+010062
X+012937Y+011062
X+004937Y+011062
X+004937Y+010062
X+004937Y+009062
X+004937Y+008062
T03
X+007187Y+015062
X+006187Y+015062
X+010687Y+015062
X+011687Y+015062
T04
X+008437Y+005562
X+009437Y+005562
T00
M30
