M48
INCH
T01C0.0118
T02C0.0354
T03C0.0433
T04C0.0512
%
T01
X+008312Y+010312
X+007815Y+010187
X+007312Y+009937
X+008437Y+009437
X+008812Y+008187
X+009562Y+006812
X+007062Y+007562
X+006437Y+006437
X+005312Y+007437
X+004937Y+007062
X+010812Y+009937
X+011315Y+010187
X+011812Y+010312
T02
X+012937Y+008062
X+012937Y+009062
X+012937Y+010062
X+012937Y+011062
X+004937Y+011062
X+004937Y+010062
X+004937Y+009062
X+004937Y+008062
T03
X+008437Y+005562
X+009437Y+005562
T04
X+007671Y+013562
X+005703Y+013562
X+010203Y+013562
X+012171Y+013562
T00
M30
