G04 DipTrace 2.4.0.1*
%INfanexpansion.back.gbl*%
%MOIN*%
%ADD13C,0.02*%
%ADD14C,0.01*%
%ADD15C,0.025*%
%ADD16C,0.013*%
%ADD22C,0.075*%
%ADD23R,0.0984X0.0984*%
%ADD24C,0.0984*%
%ADD27R,0.0669X0.0669*%
%ADD28C,0.0669*%
%ADD31C,0.0236*%
%FSLAX44Y44*%
G04*
G70*
G90*
G75*
G01*
%LNBottom*%
%LPD*%
X4937Y11062D2*
D14*
X7562D1*
X7836Y10788D1*
X8312Y10312D1*
X7836Y10788D2*
X11336D1*
X11812Y10312D1*
X8812Y8187D2*
D13*
X6062D1*
X5312Y7437D1*
X7312Y9937D2*
D14*
X8187Y9062D1*
X9640D1*
X9937D1*
X10812Y9937D1*
X9640Y9062D2*
Y6890D1*
X9562Y6812D1*
X7815Y10187D2*
X7687D1*
X8437Y9437D1*
X11315Y10187D2*
X9187D1*
X8437Y9437D1*
X6437Y6437D2*
Y6937D1*
X7062Y7562D1*
X4937Y8062D2*
Y7062D1*
D31*
X8312Y10312D3*
X11812D3*
X8812Y8187D3*
X5312Y7437D3*
X7312Y9937D3*
X10812D3*
X9562Y6812D3*
X7815Y10187D3*
X8437Y9437D3*
X11315Y10187D3*
X6437Y6437D3*
X7062Y7562D3*
X4937Y7062D3*
X4347Y15303D2*
D15*
X13526D1*
X4347Y15055D2*
X13526D1*
X4347Y14806D2*
X13526D1*
X4347Y14557D2*
X13526D1*
X4347Y14309D2*
X5553D1*
X5853D2*
X6889D1*
X8454D2*
X10053D1*
X10353D2*
X11389D1*
X12954D2*
X13526D1*
X4347Y14060D2*
X5108D1*
X6298D2*
X6889D1*
X8454D2*
X9608D1*
X10798D2*
X11389D1*
X12954D2*
X13526D1*
X4347Y13811D2*
X4963D1*
X6443D2*
X6889D1*
X8454D2*
X9463D1*
X10943D2*
X11389D1*
X12954D2*
X13526D1*
X4347Y13563D2*
X4920D1*
X6486D2*
X6889D1*
X8454D2*
X9420D1*
X10986D2*
X11389D1*
X12954D2*
X13526D1*
X4347Y13314D2*
X4963D1*
X6443D2*
X6889D1*
X8454D2*
X9463D1*
X10943D2*
X11389D1*
X12954D2*
X13526D1*
X4347Y13065D2*
X5108D1*
X6298D2*
X6889D1*
X8454D2*
X9608D1*
X10798D2*
X11389D1*
X12954D2*
X13526D1*
X4347Y12816D2*
X5549D1*
X5857D2*
X6889D1*
X8454D2*
X10049D1*
X10357D2*
X11389D1*
X12954D2*
X13526D1*
X4347Y12568D2*
X13526D1*
X4347Y12319D2*
X13526D1*
X4347Y12070D2*
X13526D1*
X4347Y11822D2*
X13526D1*
X4347Y11573D2*
X4526D1*
X5345D2*
X12526D1*
X13345D2*
X13526D1*
X5544Y11324D2*
X12330D1*
X5603Y11076D2*
X12272D1*
X5556Y10827D2*
X12318D1*
X5380Y10578D2*
X12494D1*
X5544Y10330D2*
X7381D1*
X8197D2*
X8858D1*
X11697D2*
X12330D1*
X5603Y10081D2*
X6932D1*
X8263D2*
X8611D1*
X11708D2*
X12272D1*
X5560Y9832D2*
X6920D1*
X11486D2*
X12315D1*
X5388Y9584D2*
X7139D1*
X10986D2*
X12486D1*
X5540Y9335D2*
X7443D1*
X10681D2*
X12334D1*
X5603Y9086D2*
X7693D1*
X10431D2*
X12272D1*
X5560Y8837D2*
X7940D1*
X10181D2*
X12315D1*
X5392Y8589D2*
X9299D1*
X9982D2*
X12483D1*
X5536Y8340D2*
X9299D1*
X9982D2*
X12334D1*
X5603Y8091D2*
X9299D1*
X9982D2*
X12272D1*
X5564Y7843D2*
X6776D1*
X7349D2*
X9299D1*
X9982D2*
X12311D1*
X4347Y7594D2*
X4475D1*
X5400D2*
X6623D1*
X7470D2*
X9299D1*
X9982D2*
X12475D1*
X13400D2*
X13525D1*
X4347Y7345D2*
X4596D1*
X5279D2*
X6377D1*
X7404D2*
X9299D1*
X9982D2*
X13526D1*
X4347Y7097D2*
X4529D1*
X5345D2*
X6139D1*
X7068D2*
X9279D1*
X9982D2*
X13526D1*
X4347Y6848D2*
X4596D1*
X5279D2*
X6096D1*
X6818D2*
X9154D1*
X9978D2*
X13526D1*
X4347Y6599D2*
X6096D1*
X6779D2*
X9217D1*
X9904D2*
X13526D1*
X4347Y6351D2*
X6065D1*
X6810D2*
X13526D1*
X4347Y6102D2*
X6037D1*
X6837D2*
X7811D1*
X9724D2*
X13526D1*
X4347Y5853D2*
X6225D1*
X6650D2*
X7811D1*
X9986D2*
X13526D1*
X4347Y5605D2*
X7811D1*
X10060D2*
X13526D1*
X4347Y5356D2*
X7811D1*
X10025D2*
X13526D1*
X4347Y5107D2*
X7811D1*
X9853D2*
X13526D1*
X4347Y4858D2*
X13526D1*
X4347Y4610D2*
X13526D1*
X4347Y4361D2*
X13526D1*
X13552Y7897D2*
X13529Y7818D1*
X13470Y7708D1*
X13391Y7611D1*
X13295Y7532D1*
X13185Y7472D1*
X13066Y7435D1*
X12942Y7422D1*
X12818Y7433D1*
X12698Y7468D1*
X12587Y7526D1*
X12490Y7604D1*
X12410Y7700D1*
X12349Y7809D1*
X12311Y7928D1*
X12297Y8052D1*
X12307Y8176D1*
X12341Y8296D1*
X12398Y8407D1*
X12475Y8505D1*
X12538Y8559D1*
X12410Y8700D1*
X12349Y8809D1*
X12311Y8928D1*
X12297Y9052D1*
X12307Y9176D1*
X12341Y9296D1*
X12398Y9407D1*
X12475Y9505D1*
X12538Y9559D1*
X12410Y9700D1*
X12349Y9809D1*
X12311Y9928D1*
X12297Y10052D1*
X12307Y10176D1*
X12341Y10296D1*
X12398Y10407D1*
X12475Y10505D1*
X12538Y10559D1*
X12410Y10700D1*
X12349Y10809D1*
X12311Y10928D1*
X12297Y11052D1*
X12307Y11176D1*
X12341Y11296D1*
X12398Y11407D1*
X12475Y11505D1*
X12570Y11586D1*
X12679Y11648D1*
X12798Y11687D1*
X12921Y11702D1*
X13046Y11693D1*
X13166Y11659D1*
X13278Y11604D1*
X13376Y11527D1*
X13458Y11433D1*
X13521Y11325D1*
X13552Y11232D1*
Y15552D1*
X4322D1*
X4325Y11249D1*
X4373Y11364D1*
X4442Y11468D1*
X4530Y11556D1*
X4634Y11626D1*
X4749Y11674D1*
X4872Y11699D1*
X4996D1*
X5119Y11676D1*
X5235Y11629D1*
X5339Y11560D1*
X5428Y11473D1*
X5498Y11369D1*
X5547Y11255D1*
X5573Y11133D1*
X5575Y11012D1*
X5553Y10889D1*
X5508Y10773D1*
X5441Y10668D1*
X5355Y10577D1*
X5336Y10562D1*
X5458Y10433D1*
X5521Y10325D1*
X5560Y10206D1*
X5577Y10062D1*
X5565Y9938D1*
X5529Y9818D1*
X5470Y9708D1*
X5391Y9611D1*
X5334Y9564D1*
X5458Y9433D1*
X5521Y9325D1*
X5560Y9206D1*
X5577Y9062D1*
X5565Y8938D1*
X5529Y8818D1*
X5470Y8708D1*
X5391Y8611D1*
X5334Y8564D1*
X5458Y8433D1*
X5521Y8325D1*
X5560Y8206D1*
X5577Y8062D1*
X5565Y7938D1*
X5529Y7818D1*
X5470Y7708D1*
X5391Y7611D1*
X5295Y7532D1*
X5251Y7508D1*
X5252Y7277D1*
X5288Y7214D1*
X5320Y7062D1*
X5300Y6939D1*
X5241Y6829D1*
X5151Y6744D1*
X5037Y6692D1*
X4914Y6680D1*
X4792Y6707D1*
X4686Y6772D1*
X4607Y6868D1*
X4562Y6984D1*
X4557Y7109D1*
X4592Y7228D1*
X4621Y7269D1*
X4622Y7503D1*
X4490Y7604D1*
X4410Y7700D1*
X4349Y7809D1*
X4322Y7894D1*
Y4322D1*
X13552D1*
Y7888D1*
X7039Y14319D2*
X8428D1*
Y12805D1*
X6914D1*
Y14319D1*
X7039D1*
X6450Y13438D2*
X6419Y13317D1*
X6369Y13202D1*
X6301Y13098D1*
X6216Y13006D1*
X6118Y12929D1*
X6008Y12869D1*
X5890Y12828D1*
X5767Y12808D1*
X5642Y12807D1*
X5519Y12828D1*
X5401Y12868D1*
X5291Y12927D1*
X5192Y13003D1*
X5107Y13095D1*
X5038Y13199D1*
X4988Y13313D1*
X4957Y13434D1*
X4946Y13559D1*
X4955Y13683D1*
X4986Y13804D1*
X5035Y13919D1*
X5103Y14024D1*
X5187Y14116D1*
X5285Y14193D1*
X5394Y14253D1*
X5512Y14295D1*
X5635Y14316D1*
X5760Y14317D1*
X5883Y14297D1*
X6002Y14257D1*
X6112Y14199D1*
X6211Y14123D1*
X6296Y14032D1*
X6366Y13928D1*
X6417Y13814D1*
X6448Y13693D1*
X6460Y13562D1*
X6450Y13438D1*
X11539Y14319D2*
X12928D1*
Y12805D1*
X11414D1*
Y14319D1*
X11539D1*
X10950Y13438D2*
X10919Y13317D1*
X10869Y13202D1*
X10801Y13098D1*
X10716Y13006D1*
X10618Y12929D1*
X10508Y12869D1*
X10390Y12828D1*
X10267Y12808D1*
X10142Y12807D1*
X10019Y12828D1*
X9901Y12868D1*
X9791Y12927D1*
X9692Y13003D1*
X9607Y13095D1*
X9538Y13199D1*
X9488Y13313D1*
X9457Y13434D1*
X9446Y13559D1*
X9455Y13683D1*
X9486Y13804D1*
X9535Y13919D1*
X9603Y14024D1*
X9687Y14116D1*
X9785Y14193D1*
X9894Y14253D1*
X10012Y14295D1*
X10135Y14316D1*
X10260Y14317D1*
X10383Y14297D1*
X10502Y14257D1*
X10612Y14199D1*
X10711Y14123D1*
X10796Y14032D1*
X10866Y13928D1*
X10917Y13814D1*
X10948Y13693D1*
X10960Y13562D1*
X10950Y13438D1*
X7962Y6162D2*
X9037D1*
Y6009D1*
X9127Y6075D1*
X9240Y6128D1*
X9362Y6157D1*
X9487Y6160D1*
X9609Y6136D1*
X9724Y6088D1*
X9827Y6017D1*
X9913Y5927D1*
X9978Y5820D1*
X10020Y5703D1*
X10037Y5562D1*
X10024Y5438D1*
X9985Y5319D1*
X9923Y5211D1*
X9840Y5118D1*
X9739Y5044D1*
X9626Y4993D1*
X9504Y4966D1*
X9379Y4965D1*
X9257Y4990D1*
X9142Y5040D1*
X9038Y5115D1*
X9037Y4962D1*
X7837D1*
Y6162D1*
X7962D1*
X7876Y8928D2*
X7243Y9560D1*
X7167Y9582D1*
X7061Y9647D1*
X6982Y9743D1*
X6937Y9859D1*
X6932Y9984D1*
X6967Y10103D1*
X7038Y10205D1*
X7139Y10279D1*
X7257Y10316D1*
X7400Y10307D1*
X7471Y10416D1*
X7642Y10529D1*
X7760Y10566D1*
X7885Y10564D1*
X8002Y10521D1*
X8099Y10444D1*
X8166Y10339D1*
X8198Y10187D1*
X8189Y10129D1*
X8437Y9882D1*
X8964Y10410D1*
X9068Y10478D1*
X9187Y10502D1*
X11097D1*
X11142Y10529D1*
X11260Y10566D1*
X11385Y10564D1*
X11502Y10521D1*
X11599Y10444D1*
X11666Y10339D1*
X11698Y10187D1*
X11678Y10064D1*
X11619Y9954D1*
X11529Y9869D1*
X11415Y9817D1*
X11292Y9805D1*
X11182Y9830D1*
X11116Y9704D1*
X11026Y9619D1*
X10912Y9567D1*
X10885Y9565D1*
X10160Y8839D1*
X10045Y8767D1*
X9955Y8687D1*
Y6895D1*
X9925Y6689D1*
X9866Y6579D1*
X9776Y6494D1*
X9662Y6442D1*
X9539Y6430D1*
X9417Y6457D1*
X9311Y6522D1*
X9232Y6618D1*
X9187Y6734D1*
X9182Y6859D1*
X9217Y6978D1*
X9288Y7080D1*
X9323Y7105D1*
X9325Y8265D1*
Y8746D1*
X8187Y8747D1*
X8065Y8772D1*
X7964Y8839D1*
X7876Y8928D1*
X6122Y6402D2*
Y6937D1*
X6147Y7059D1*
X6214Y7160D1*
X6687Y7632D1*
X6717Y7728D1*
X6788Y7830D1*
X6889Y7904D1*
X7007Y7941D1*
X7132Y7939D1*
X7249Y7896D1*
X7346Y7819D1*
X7413Y7714D1*
X7445Y7562D1*
X7425Y7439D1*
X7366Y7329D1*
X7276Y7244D1*
X7162Y7192D1*
X7135Y7190D1*
X6752Y6806D1*
Y6402D1*
X6788Y6339D1*
X6820Y6187D1*
X6800Y6064D1*
X6741Y5954D1*
X6651Y5869D1*
X6537Y5817D1*
X6414Y5805D1*
X6292Y5832D1*
X6186Y5897D1*
X6107Y5993D1*
X6062Y6109D1*
X6057Y6234D1*
X6092Y6353D1*
X6121Y6394D1*
X4937Y11701D2*
D16*
Y11062D1*
X5576D1*
D22*
X12937Y8062D3*
Y9062D3*
Y10062D3*
Y11062D3*
X4937D3*
Y10062D3*
Y9062D3*
Y8062D3*
D23*
X7671Y13562D3*
D24*
X5703D3*
D23*
X12171D3*
D24*
X10203D3*
D27*
X8437Y5562D3*
D28*
X9437D3*
M02*
