G04 DipTrace 2.3.1.0*
%INreloadpro.frontmask.gts*%
%MOIN*%
%ADD36R,0.0472X0.0472*%
%ADD38R,0.0787X0.0236*%
%ADD56C,0.0374*%
%ADD66R,0.0669X0.0669*%
%ADD68R,0.0512X0.0315*%
%ADD70C,0.0669*%
%ADD72C,0.0866*%
%ADD73C,0.0709*%
%ADD74R,0.0295X0.0453*%
%ADD76R,0.0787X0.1339*%
%ADD78R,0.0709X0.0669*%
%ADD80C,0.0827*%
%ADD81R,0.0827X0.0827*%
%ADD82R,0.0492X0.0335*%
%ADD84R,0.0335X0.0492*%
%ADD86R,0.3228X0.0945*%
%ADD88C,0.3228*%
%ADD90R,0.0866X0.0315*%
%ADD92R,0.0551X0.0551*%
%ADD93R,0.0315X0.0315*%
%ADD95C,0.0472*%
%ADD97R,0.0866X0.126*%
%ADD99R,0.0197X0.0571*%
%ADD101C,0.1378*%
%ADD104R,0.0472X0.0512*%
%ADD106R,0.0512X0.0472*%
%FSLAX44Y44*%
G04*
G70*
G90*
G75*
G01*
%LNTopMask*%
%LPD*%
D106*
X6812Y23187D3*
X7481D3*
X6812Y22437D3*
X7481D3*
X6812Y21687D3*
X7481D3*
D104*
X6687Y17437D3*
Y18106D3*
X7437Y17437D3*
Y18106D3*
X10562Y16062D3*
Y15393D3*
D106*
X9449Y14173D3*
X10118D3*
X14107Y18687D3*
X13437D3*
X14187Y14187D3*
X13518D3*
X19437Y24437D3*
X20106D3*
X19437Y23687D3*
X20106D3*
X19437Y22937D3*
X20106D3*
X19437Y22187D3*
X20106D3*
X22062Y24437D3*
X21393D3*
X25687Y27312D3*
X26356D3*
X24772Y23147D3*
X24103D3*
D104*
X18902Y12850D3*
Y13519D3*
X19652Y12850D3*
Y13519D3*
X20402Y12850D3*
Y13519D3*
X21152Y12850D3*
Y13519D3*
X21902Y12850D3*
Y13519D3*
X22652Y12850D3*
Y13519D3*
X23402Y12850D3*
Y13519D3*
X26312Y13522D3*
Y12853D3*
X24062Y12852D3*
Y13521D3*
G36*
X8798Y9512D2*
X8525D1*
X8331Y9706D1*
Y9979D1*
X8525Y10173D1*
X8798D1*
X8992Y9979D1*
Y9706D1*
X8798Y9512D1*
G37*
D73*
X7677Y9843D3*
Y9055D3*
X8661D3*
D101*
X5799Y7988D3*
X10539D3*
D99*
X26852Y10225D3*
X26656D3*
X26459D3*
X26262D3*
X26065D3*
X25868D3*
X25671D3*
X25474D3*
X25278D3*
X25081D3*
X24884D3*
X24687D3*
X24490D3*
X24293D3*
X24096D3*
X23900D3*
X23703D3*
X23506D3*
X23309D3*
X23112D3*
X22915D3*
X22719D3*
X22522D3*
X22325D3*
X22128D3*
X21931D3*
X21734D3*
X21537D3*
X21341D3*
X21144D3*
D97*
X27459Y9309D3*
X20537D3*
G36*
X18742Y30187D2*
X18745Y30153D1*
X18754Y30120D1*
X18769Y30090D1*
X18788Y30062D1*
X18812Y30038D1*
X18840Y30019D1*
X18870Y30004D1*
X18903Y29995D1*
X18937Y29992D1*
D1*
X18971Y29995D1*
X19004Y30004D1*
X19034Y30019D1*
X19062Y30038D1*
X19086Y30062D1*
X19105Y30090D1*
X19120Y30120D1*
X19129Y30153D1*
X19132Y30187D1*
D1*
X19129Y30221D1*
X19120Y30254D1*
X19105Y30284D1*
X19086Y30312D1*
X19062Y30336D1*
X19034Y30355D1*
X19004Y30370D1*
X18971Y30379D1*
X18937Y30382D1*
D1*
X18903Y30379D1*
X18870Y30370D1*
X18840Y30355D1*
X18812Y30336D1*
X18788Y30312D1*
X18769Y30284D1*
X18754Y30254D1*
X18745Y30221D1*
X18742Y30187D1*
G37*
G36*
X18242D2*
X18245Y30153D1*
X18254Y30120D1*
X18269Y30090D1*
X18288Y30062D1*
X18312Y30038D1*
X18340Y30019D1*
X18370Y30004D1*
X18403Y29995D1*
X18437Y29992D1*
D1*
X18471Y29995D1*
X18504Y30004D1*
X18534Y30019D1*
X18562Y30038D1*
X18586Y30062D1*
X18605Y30090D1*
X18620Y30120D1*
X18629Y30153D1*
X18632Y30187D1*
D1*
X18629Y30221D1*
X18620Y30254D1*
X18605Y30284D1*
X18586Y30312D1*
X18562Y30336D1*
X18534Y30355D1*
X18504Y30370D1*
X18471Y30379D1*
X18437Y30382D1*
D1*
X18403Y30379D1*
X18370Y30370D1*
X18340Y30355D1*
X18312Y30336D1*
X18288Y30312D1*
X18269Y30284D1*
X18254Y30254D1*
X18245Y30221D1*
X18242Y30187D1*
G37*
G36*
X17742D2*
X17745Y30153D1*
X17754Y30120D1*
X17769Y30090D1*
X17788Y30062D1*
X17812Y30038D1*
X17840Y30019D1*
X17870Y30004D1*
X17903Y29995D1*
X17937Y29992D1*
D1*
X17971Y29995D1*
X18004Y30004D1*
X18034Y30019D1*
X18062Y30038D1*
X18086Y30062D1*
X18105Y30090D1*
X18120Y30120D1*
X18129Y30153D1*
X18132Y30187D1*
D1*
X18129Y30221D1*
X18120Y30254D1*
X18105Y30284D1*
X18086Y30312D1*
X18062Y30336D1*
X18034Y30355D1*
X18004Y30370D1*
X17971Y30379D1*
X17937Y30382D1*
D1*
X17903Y30379D1*
X17870Y30370D1*
X17840Y30355D1*
X17812Y30336D1*
X17788Y30312D1*
X17769Y30284D1*
X17754Y30254D1*
X17745Y30221D1*
X17742Y30187D1*
G37*
G36*
Y30687D2*
X17745Y30653D1*
X17754Y30620D1*
X17769Y30590D1*
X17788Y30562D1*
X17812Y30538D1*
X17840Y30519D1*
X17870Y30504D1*
X17903Y30495D1*
X17937Y30492D1*
D1*
X17971Y30495D1*
X18004Y30504D1*
X18034Y30519D1*
X18062Y30538D1*
X18086Y30562D1*
X18105Y30590D1*
X18120Y30620D1*
X18129Y30653D1*
X18132Y30687D1*
D1*
X18129Y30721D1*
X18120Y30754D1*
X18105Y30784D1*
X18086Y30812D1*
X18062Y30836D1*
X18034Y30855D1*
X18004Y30870D1*
X17971Y30879D1*
X17937Y30882D1*
D1*
X17903Y30879D1*
X17870Y30870D1*
X17840Y30855D1*
X17812Y30836D1*
X17788Y30812D1*
X17769Y30784D1*
X17754Y30754D1*
X17745Y30721D1*
X17742Y30687D1*
G37*
G36*
X18242D2*
X18245Y30653D1*
X18254Y30620D1*
X18269Y30590D1*
X18288Y30562D1*
X18312Y30538D1*
X18340Y30519D1*
X18370Y30504D1*
X18403Y30495D1*
X18437Y30492D1*
D1*
X18471Y30495D1*
X18504Y30504D1*
X18534Y30519D1*
X18562Y30538D1*
X18586Y30562D1*
X18605Y30590D1*
X18620Y30620D1*
X18629Y30653D1*
X18632Y30687D1*
D1*
X18629Y30721D1*
X18620Y30754D1*
X18605Y30784D1*
X18586Y30812D1*
X18562Y30836D1*
X18534Y30855D1*
X18504Y30870D1*
X18471Y30879D1*
X18437Y30882D1*
D1*
X18403Y30879D1*
X18370Y30870D1*
X18340Y30855D1*
X18312Y30836D1*
X18288Y30812D1*
X18269Y30784D1*
X18254Y30754D1*
X18245Y30721D1*
X18242Y30687D1*
G37*
G36*
X18742D2*
X18745Y30653D1*
X18754Y30620D1*
X18769Y30590D1*
X18788Y30562D1*
X18812Y30538D1*
X18840Y30519D1*
X18870Y30504D1*
X18903Y30495D1*
X18937Y30492D1*
D1*
X18971Y30495D1*
X19004Y30504D1*
X19034Y30519D1*
X19062Y30538D1*
X19086Y30562D1*
X19105Y30590D1*
X19120Y30620D1*
X19129Y30653D1*
X19132Y30687D1*
D1*
X19129Y30721D1*
X19120Y30754D1*
X19105Y30784D1*
X19086Y30812D1*
X19062Y30836D1*
X19034Y30855D1*
X19004Y30870D1*
X18971Y30879D1*
X18937Y30882D1*
D1*
X18903Y30879D1*
X18870Y30870D1*
X18840Y30855D1*
X18812Y30836D1*
X18788Y30812D1*
X18769Y30784D1*
X18754Y30754D1*
X18745Y30721D1*
X18742Y30687D1*
G37*
D56*
X19437Y30437D3*
X17437Y30037D3*
Y30837D3*
D36*
X19437Y32687D3*
D95*
Y32187D3*
X18937Y32687D3*
Y32187D3*
X18437Y32687D3*
Y32187D3*
X17937Y32687D3*
Y32187D3*
X17437Y32687D3*
Y32187D3*
D93*
X14187Y19687D3*
X13321D3*
D92*
X24062Y24937D3*
X25164D3*
X24187Y21687D3*
X25289D3*
D38*
X5963Y20937D3*
Y20681D3*
Y20425D3*
Y20169D3*
Y19913D3*
Y19657D3*
Y19402D3*
Y19146D3*
X8246D3*
Y19402D3*
Y19657D3*
Y19913D3*
Y20169D3*
Y20425D3*
Y20681D3*
Y20937D3*
D90*
X10687Y22187D3*
Y21687D3*
Y21187D3*
Y20687D3*
X12813D3*
Y21187D3*
Y21687D3*
Y22187D3*
D38*
X22187Y25187D3*
Y25443D3*
Y25699D3*
Y25955D3*
Y26211D3*
Y26467D3*
Y26722D3*
Y26978D3*
Y27234D3*
Y27490D3*
Y27746D3*
Y28002D3*
Y28258D3*
Y28514D3*
X19352D3*
Y28258D3*
Y28002D3*
Y27746D3*
Y27490D3*
Y27234D3*
Y26978D3*
Y26722D3*
Y26467D3*
Y26211D3*
Y25955D3*
Y25699D3*
Y25443D3*
Y25187D3*
G36*
X7037Y24232D2*
X7144D1*
Y23642D1*
X7037D1*
Y24232D1*
G37*
G36*
X7773Y23937D2*
X7728Y23769D1*
X7605Y23646D1*
X7442Y23602D1*
X7102D1*
Y24272D1*
X7442D1*
X7605Y24228D1*
X7728Y24105D1*
X7773Y23937D1*
G37*
G36*
X6408D2*
X6453Y24105D1*
X6576Y24228D1*
X6739Y24272D1*
X7079D1*
Y23602D1*
X6739D1*
X6576Y23646D1*
X6453Y23769D1*
X6408Y23937D1*
G37*
D88*
X34687Y15687D3*
X39062D3*
X30312D3*
G36*
X7037Y25107D2*
X7144D1*
Y24517D1*
X7037D1*
Y25107D1*
G37*
G36*
X7773Y24812D2*
X7728Y24644D1*
X7605Y24521D1*
X7442Y24477D1*
X7102D1*
Y25147D1*
X7442D1*
X7605Y25103D1*
X7728Y24980D1*
X7773Y24812D1*
G37*
G36*
X6408D2*
X6453Y24980D1*
X6576Y25103D1*
X6739Y25147D1*
X7079D1*
Y24477D1*
X6739D1*
X6576Y24521D1*
X6453Y24644D1*
X6408Y24812D1*
G37*
D86*
X13815Y15315D3*
Y17559D3*
D84*
X9843Y16142D3*
X9094D3*
X9469Y15236D3*
D82*
X26127Y15025D3*
Y14277D3*
X27033Y14651D3*
D81*
X23213Y33937D3*
D80*
X24213D3*
X25213D3*
D104*
X5937Y17437D3*
Y18106D3*
X8187Y17437D3*
Y18106D3*
D106*
X9843Y17717D3*
X9173D3*
X9843Y16929D3*
X9173D3*
X24772Y29977D3*
X24102D3*
X24772Y29102D3*
X24102D3*
X24772Y28227D3*
X24102D3*
X24772Y27352D3*
X24102D3*
Y26522D3*
X24772D3*
Y25772D3*
X24102D3*
X24772Y24022D3*
X24102D3*
Y22397D3*
X24772D3*
D104*
X25462Y14315D3*
Y14984D3*
D92*
X27852Y13225D3*
D78*
X27459Y11957D3*
D92*
X27065Y13224D3*
D104*
X27687Y14609D3*
Y13940D3*
D76*
X37914Y18914D3*
X35710D3*
D74*
X23812Y11437D3*
X24127D3*
X24442D3*
X24757D3*
Y12146D3*
X24442D3*
X24127D3*
X23812D3*
D106*
X24102Y20897D3*
X24772D3*
D72*
X40679Y5733D3*
X39695D3*
X38710D3*
X40679Y6718D3*
X38710D3*
D70*
X5937Y29875D3*
Y28875D3*
Y27875D3*
Y26875D3*
X13937D3*
Y27875D3*
Y28875D3*
Y29875D3*
D68*
X25719Y12813D3*
Y13187D3*
Y13561D3*
X24656D3*
Y12813D3*
G36*
X35247Y27757D2*
X35367Y28077D1*
X36087D1*
X36207Y27757D1*
X36127Y27597D1*
X35287D1*
D1*
X35247Y27757D1*
G37*
D66*
X9449Y12992D3*
D70*
X10449D3*
X12449D3*
X13449D3*
X14449D3*
M02*
