G04 DipTrace 2.3.1.0*
%INreloadpro_TopPaste.gtp*%
%MOIN*%
%ADD31R,0.0709X0.0157*%
%ADD67R,0.0551X0.0512*%
%ADD69R,0.0394X0.0394*%
%ADD76R,0.0709X0.1102*%
%ADD78R,0.0039X0.0413*%
%ADD80R,0.063X0.1181*%
%ADD82R,0.0335X0.0177*%
%ADD86R,0.0177X0.0335*%
%ADD88R,0.3071X0.0787*%
%ADD96R,0.063X0.0079*%
%ADD98R,0.0157X0.0157*%
%ADD100R,0.0354X0.0315*%
%ADD102R,0.0315X0.0354*%
%FSLAX44Y44*%
G04*
G70*
G90*
G75*
G01*
%LNTopPaste*%
%LPD*%
D102*
X7437Y17437D3*
Y18106D3*
X6687Y17437D3*
Y18106D3*
D100*
X6812Y23187D3*
X7481D3*
X6812Y22437D3*
X7481D3*
X6812Y21687D3*
X7481D3*
D102*
X10965Y16083D3*
Y15414D3*
D100*
X9449Y14173D3*
X10118D3*
X14107Y18687D3*
X13437D3*
X19437Y24437D3*
X20106D3*
X19437Y23687D3*
X20106D3*
X19437Y22937D3*
X20106D3*
X19437Y22187D3*
X20106D3*
X14187Y14187D3*
X13518D3*
X22062Y24437D3*
X21393D3*
D102*
X19152Y15725D3*
Y16394D3*
X19902Y15725D3*
Y16394D3*
X20652Y15725D3*
Y16394D3*
X21402Y15725D3*
Y16394D3*
X22152Y15725D3*
Y16394D3*
X22902Y15725D3*
Y16394D3*
X23652Y15725D3*
Y16394D3*
D98*
X14187Y19687D3*
X13321D3*
D96*
X5687Y20937D3*
Y20681D3*
Y20425D3*
Y20169D3*
Y19913D3*
Y19657D3*
Y19402D3*
Y19146D3*
X8522D3*
Y19402D3*
Y19657D3*
Y19913D3*
Y20169D3*
Y20425D3*
Y20681D3*
Y20937D3*
D31*
X10687Y22187D3*
Y21687D3*
Y21187D3*
Y20687D3*
X12813D3*
Y21187D3*
Y21687D3*
Y22187D3*
D88*
X13815Y15315D3*
Y17559D3*
D100*
X24772Y29977D3*
X24102D3*
X24772Y28227D3*
X24102D3*
D86*
X9843Y16142D3*
X9094D3*
X9469Y15236D3*
D82*
X25377Y18400D3*
Y17652D3*
X26283Y18026D3*
D102*
X5937Y17437D3*
Y18106D3*
X8187Y17437D3*
Y18106D3*
D100*
X9843Y17717D3*
X9173D3*
X9843Y16929D3*
X9173D3*
D80*
X33664Y16914D3*
X31460D3*
D100*
X24772Y24022D3*
X24102D3*
Y26522D3*
X24772D3*
Y25772D3*
X24102D3*
D102*
X26937Y17984D3*
Y17315D3*
D100*
X24102Y22397D3*
X24772D3*
D96*
X22187Y25187D3*
Y25443D3*
Y25699D3*
Y25955D3*
Y26211D3*
Y26467D3*
Y26722D3*
Y26978D3*
Y27234D3*
Y27490D3*
Y27746D3*
Y28002D3*
Y28258D3*
Y28514D3*
X19352D3*
Y28258D3*
Y28002D3*
Y27746D3*
Y27490D3*
Y27234D3*
Y26978D3*
Y26722D3*
Y26467D3*
Y26211D3*
Y25955D3*
Y25699D3*
Y25443D3*
Y25187D3*
D78*
X26852Y13975D3*
X26656D3*
X26459D3*
X26262D3*
X26065D3*
X25868D3*
X25671D3*
X25474D3*
X25278D3*
X25081D3*
X24884D3*
X24687D3*
X24490D3*
X24293D3*
X24096D3*
X23900D3*
X23703D3*
X23506D3*
X23309D3*
X23112D3*
X22915D3*
X22719D3*
X22522D3*
X22325D3*
X22128D3*
X21931D3*
X21734D3*
X21537D3*
X21341D3*
X21144D3*
D76*
X27459Y13059D3*
X20537D3*
D69*
X26977Y16600D3*
D67*
X26584Y15332D3*
D69*
X26190Y16599D3*
D100*
X24772Y23147D3*
X24103D3*
D102*
X24712Y17690D3*
Y18359D3*
D69*
X24062Y24937D3*
X25164D3*
D100*
X24772Y27352D3*
X24102D3*
X24772Y29102D3*
X24102D3*
X25687Y27312D3*
X26356D3*
M02*
