M48
INCH
T01C0.0118
T02C0.0354
T03C0.0362
T04C0.0433
T05C0.0472
T06C0.0906
T07C0.1024
%
T01
X+007687Y+019437
X+007187Y+019812
X+006437Y+020425
X+007437Y+018687
X+006312Y+022437
X+011437Y+022187
X+013687Y+022062
X+014187Y+020187
X+012937Y+018687
X+020062Y+021812
X+021437Y+024062
X+021562Y+025812
X+021562Y+026562
X+020687Y+026937
X+019937Y+026562
X+018062Y+026562
X+017437Y+026937
X+016669Y+029437
X+014812Y+028937
X+014812Y+026937
X+025437Y+027687
X+025437Y+028687
X+025437Y+025687
X+026437Y+018437
X+031062Y+015437
X+032562Y+015437
X+037437Y+024687
T02
X+038437Y+013812
X+040437Y+013812
X+014449Y+012992
X+013449Y+012992
X+012449Y+012992
X+010449Y+012992
X+009449Y+012992
T03
X+008661Y+009843
X+008661Y+009055
X+007677Y+009055
X+007677Y+009843
T04
X+022437Y+049937
X+023437Y+049937
X+024437Y+049937
T05
X+013062Y+005687
X+014046Y+006711
X+015031Y+005687
X+016015Y+006711
X+016999Y+005687
T06
X+005799Y+007988
X+010539Y+007988
T07
X+004921Y+014764
X+004921Y+034449
X+042323Y+034449
X+042323Y+014764
T00
M30
