G04 DipTrace 2.3.1.0*
%INreloadpro.frontsilk.gto*%
%MOIN*%
%ADD10C,0.0098*%
%ADD12C,0.003*%
%ADD14C,0.016*%
%ADD16C,0.0118*%
%ADD18C,0.0157*%
%ADD25C,0.0125*%
%ADD28C,0.0094*%
%ADD36C,0.0154*%
%ADD109C,0.0062*%
%FSLAX44Y44*%
G04*
G70*
G90*
G75*
G01*
%LNTopSilk*%
%LPD*%
X7594Y17063D2*
D10*
X7280D1*
X6844D2*
X6530D1*
X6438Y23030D2*
Y23344D1*
Y22280D2*
Y22594D1*
Y21530D2*
Y21844D1*
X10405Y16436D2*
X10719D1*
X9075Y14016D2*
Y14331D1*
X14480Y18844D2*
Y18530D1*
X19063Y24280D2*
Y24594D1*
Y23530D2*
Y23844D1*
Y22780D2*
Y23094D1*
Y22030D2*
Y22344D1*
X14561Y14344D2*
Y14030D1*
X22436Y24594D2*
Y24280D1*
X19060Y12476D2*
X18745D1*
X19810D2*
X19495D1*
X20560D2*
X20245D1*
X21310D2*
X20995D1*
X22060D2*
X21745D1*
X22810D2*
X22495D1*
X23560D2*
X23245D1*
X14069Y19451D2*
X13439D1*
X14069Y19923D2*
X13439D1*
D28*
X14439Y19687D3*
X6475Y21104D2*
D10*
Y18978D1*
X7734Y21104D2*
Y18978D1*
X6475D2*
X7734D1*
X6475Y21104D2*
X6907D1*
X7301D2*
X7734D1*
X6907D2*
G03X7301Y21104I197J0D01*
G01*
X11238Y22421D2*
Y20453D1*
X12262Y22421D2*
Y20453D1*
X11238D2*
X12262D1*
X11553Y22421D2*
X11238D1*
X11947D2*
X12262D1*
X11553D2*
G03X11947Y22421I197J0D01*
G01*
X5767Y3933D2*
X10571D1*
X5767D2*
Y7122D1*
X10571Y7161D2*
Y3933D1*
X5767Y8854D2*
Y10154D1*
X7264D1*
X9154D2*
X10571D1*
Y8815D1*
X12240Y18012D2*
X15390D1*
Y14862D1*
X12240D1*
Y18012D1*
D36*
X10151Y16289D3*
X10059Y15787D2*
D10*
X8878D1*
Y15591D1*
X10059D1*
Y15787D1*
X22244Y35000D2*
X26181D1*
Y33228D1*
X22244D1*
Y35000D1*
Y34646D2*
X26181D1*
D36*
X25980Y15333D3*
X26482Y15241D2*
D10*
Y14060D1*
X26679D1*
Y15241D1*
X26482D1*
X37441Y18324D2*
X36183D1*
X37441Y19505D2*
X36183D1*
X21715Y24803D2*
Y28898D1*
X19825Y24803D2*
Y28898D1*
X21715D2*
X19825D1*
X21715Y24803D2*
X21045D1*
X20494D2*
X19825D1*
X21045D2*
G03X20494Y24803I-276J37D01*
G01*
X8661Y13465D2*
X16339D1*
Y11102D1*
X8661D1*
Y13465D1*
X36545Y8915D2*
X42844D1*
Y4742D1*
X36545D1*
Y8915D1*
X28049Y12778D2*
Y11818D1*
X26868Y12778D2*
Y11818D1*
X28049D2*
X27911D1*
X26868D2*
X27006D1*
D18*
X27852Y13591D3*
X25145Y23304D2*
D10*
Y22989D1*
X24377Y25291D2*
X24849D1*
X24377Y24583D2*
X24849D1*
D18*
X23649Y24937D3*
X25313Y27155D2*
D10*
Y27469D1*
D36*
X25885Y12544D3*
X25344Y12596D2*
D10*
Y13778D1*
X25030Y12596D2*
Y13778D1*
X25344D2*
X25030D1*
X25344Y12596D2*
X25030D1*
X26155Y13895D2*
X26469D1*
X24219Y12479D2*
X23905D1*
X23615Y11476D2*
Y12106D1*
X24954Y11476D2*
Y12106D1*
D16*
X23812Y11107D3*
X24502Y22041D2*
D10*
X24974D1*
X24502Y21333D2*
X24974D1*
D18*
X23774Y21687D3*
X20937Y34937D2*
D25*
Y18937D1*
X28437D1*
Y11937D1*
X44437D1*
X11562Y7062D2*
D14*
Y26187D1*
X14812D1*
Y34937D1*
X30076Y34308D2*
D12*
X30675D1*
X32320D2*
X32440D1*
X35193D2*
X35313D1*
X35941D2*
X36479D1*
X38903D2*
X38963D1*
X39950D2*
X40100D1*
X42494D2*
X42553D1*
X30075Y34278D2*
X30717D1*
X32310D2*
X32426D1*
X35192D2*
X35302D1*
X35936D2*
X36523D1*
X38873D2*
X38958D1*
X39896D2*
X40144D1*
X42464D2*
X42549D1*
X30071Y34248D2*
X30752D1*
X32301D2*
X32418D1*
X35188D2*
X35293D1*
X35929D2*
X36560D1*
X38843D2*
X38951D1*
X39850D2*
X40181D1*
X42434D2*
X42541D1*
X30064Y34218D2*
X30202D1*
X30572D2*
X30778D1*
X32295D2*
X32412D1*
X35181D2*
X35287D1*
X35921D2*
X36031D1*
X36342D2*
X36590D1*
X38812D2*
X38943D1*
X39814D2*
X40211D1*
X42403D2*
X42534D1*
X30056Y34188D2*
X30184D1*
X30632D2*
X30797D1*
X32291D2*
X32406D1*
X35173D2*
X35280D1*
X35916D2*
X36029D1*
X36423D2*
X36611D1*
X38777D2*
X38938D1*
X39786D2*
X39931D1*
X40125D2*
X40235D1*
X42368D2*
X42528D1*
X30051Y34158D2*
X30173D1*
X30677D2*
X30810D1*
X32286D2*
X32398D1*
X35168D2*
X35271D1*
X35912D2*
X36026D1*
X36486D2*
X36625D1*
X38735D2*
X38934D1*
X39763D2*
X39891D1*
X40146D2*
X40253D1*
X42326D2*
X42524D1*
X30047Y34128D2*
X30165D1*
X30697D2*
X30818D1*
X32279D2*
X32390D1*
X35164D2*
X35263D1*
X35907D2*
X36018D1*
X36517D2*
X36636D1*
X38687D2*
X38929D1*
X39742D2*
X39860D1*
X40164D2*
X40266D1*
X42277D2*
X42519D1*
X30042Y34098D2*
X30155D1*
X30715D2*
X30822D1*
X32271D2*
X32385D1*
X35159D2*
X35258D1*
X35899D2*
X36011D1*
X36528D2*
X36645D1*
X38638D2*
X38921D1*
X39722D2*
X39835D1*
X40176D2*
X40273D1*
X42228D2*
X42512D1*
X30035Y34068D2*
X30147D1*
X30735D2*
X30823D1*
X32265D2*
X32381D1*
X35151D2*
X35254D1*
X35891D2*
X36005D1*
X36534D2*
X36642D1*
X38596D2*
X38913D1*
X39706D2*
X39817D1*
X40183D2*
X40277D1*
X42187D2*
X42504D1*
X30027Y34038D2*
X30141D1*
X30719D2*
X30823D1*
X31273D2*
X31333D1*
X32262D2*
X32376D1*
X33308D2*
X33338D1*
X34086D2*
X34176D1*
X34864D2*
X34924D1*
X35143D2*
X35249D1*
X35886D2*
X36002D1*
X36532D2*
X36637D1*
X37108D2*
X37138D1*
X37557D2*
X37587D1*
X38565D2*
X38753D1*
X38809D2*
X38908D1*
X39693D2*
X39804D1*
X40187D2*
X40278D1*
X41177D2*
X41207D1*
X41596D2*
X41656D1*
X42156D2*
X42344D1*
X42399D2*
X42498D1*
X30021Y34009D2*
X30137D1*
X30706D2*
X30819D1*
X31205D2*
X31404D1*
X31901D2*
X32021D1*
X32256D2*
X32368D1*
X33225D2*
X33409D1*
X34010D2*
X34243D1*
X34806D2*
X34982D1*
X35137D2*
X35241D1*
X35882D2*
X35997D1*
X36525D2*
X36632D1*
X36839D2*
X36928D1*
X37055D2*
X37162D1*
X37474D2*
X37658D1*
X38543D2*
X38694D1*
X38801D2*
X38904D1*
X39682D2*
X39792D1*
X40189D2*
X40279D1*
X40908D2*
X40998D1*
X41124D2*
X41231D1*
X41528D2*
X41727D1*
X42134D2*
X42284D1*
X42392D2*
X42495D1*
X30017Y33979D2*
X30132D1*
X30689D2*
X30811D1*
X31149D2*
X31460D1*
X31891D2*
X32011D1*
X32249D2*
X32361D1*
X33158D2*
X33465D1*
X33948D2*
X34298D1*
X34759D2*
X35034D1*
X35129D2*
X35233D1*
X35877D2*
X35989D1*
X36513D2*
X36626D1*
X36825D2*
X36916D1*
X37011D2*
X37179D1*
X37407D2*
X37713D1*
X38527D2*
X38634D1*
X38793D2*
X38899D1*
X39671D2*
X39781D1*
X40189D2*
X40279D1*
X40894D2*
X40985D1*
X41081D2*
X41249D1*
X41472D2*
X41782D1*
X42118D2*
X42224D1*
X42384D2*
X42489D1*
X30012Y33949D2*
X30124D1*
X30665D2*
X30798D1*
X31105D2*
X31502D1*
X31882D2*
X32002D1*
X32241D2*
X32355D1*
X33106D2*
X33507D1*
X33901D2*
X34337D1*
X34721D2*
X35083D1*
X35118D2*
X35228D1*
X35869D2*
X35981D1*
X36496D2*
X36616D1*
X36816D2*
X36908D1*
X36979D2*
X37152D1*
X37355D2*
X37755D1*
X38514D2*
X38574D1*
X38787D2*
X38891D1*
X39661D2*
X39771D1*
X40189D2*
X40279D1*
X40885D2*
X40977D1*
X41048D2*
X41222D1*
X41428D2*
X41820D1*
X42105D2*
X42164D1*
X42378D2*
X42482D1*
X30005Y33919D2*
X30116D1*
X30629D2*
X30781D1*
X31070D2*
X31219D1*
X31386D2*
X31532D1*
X31876D2*
X31996D1*
X32235D2*
X32351D1*
X33067D2*
X33224D1*
X33387D2*
X33538D1*
X33868D2*
X34032D1*
X34234D2*
X34366D1*
X34688D2*
X34840D1*
X34973D2*
X35224D1*
X35861D2*
X35976D1*
X36469D2*
X36603D1*
X36811D2*
X36916D1*
X36953D2*
X37094D1*
X37316D2*
X37473D1*
X37636D2*
X37787D1*
X38781D2*
X38883D1*
X39651D2*
X39761D1*
X40188D2*
X40279D1*
X40880D2*
X40986D1*
X41022D2*
X41163D1*
X41392D2*
X41542D1*
X41714D2*
X41844D1*
X42371D2*
X42474D1*
X29997Y33889D2*
X30111D1*
X30577D2*
X30758D1*
X31041D2*
X31173D1*
X31428D2*
X31556D1*
X31872D2*
X31991D1*
X32232D2*
X32346D1*
X33037D2*
X33178D1*
X33426D2*
X33562D1*
X33846D2*
X33984D1*
X34259D2*
X34376D1*
X34660D2*
X34793D1*
X35012D2*
X35219D1*
X35856D2*
X35973D1*
X36434D2*
X36586D1*
X36805D2*
X37033D1*
X37286D2*
X37426D1*
X37675D2*
X37811D1*
X38772D2*
X38878D1*
X39641D2*
X39752D1*
X40185D2*
X40279D1*
X40874D2*
X41102D1*
X41363D2*
X41496D1*
X41739D2*
X41862D1*
X42363D2*
X42469D1*
X29991Y33859D2*
X30108D1*
X30510D2*
X30729D1*
X31018D2*
X31137D1*
X31461D2*
X31566D1*
X32226D2*
X32338D1*
X33012D2*
X33142D1*
X33454D2*
X33580D1*
X33829D2*
X33944D1*
X34277D2*
X34381D1*
X34638D2*
X34757D1*
X35039D2*
X35211D1*
X35852D2*
X35972D1*
X36321D2*
X36563D1*
X36797D2*
X36981D1*
X37261D2*
X37390D1*
X37703D2*
X37829D1*
X38764D2*
X38874D1*
X39632D2*
X39745D1*
X40178D2*
X40279D1*
X40866D2*
X41050D1*
X41341D2*
X41460D1*
X41757D2*
X41878D1*
X42354D2*
X42465D1*
X29987Y33829D2*
X30691D1*
X30999D2*
X31110D1*
X31472D2*
X31574D1*
X32219D2*
X32331D1*
X32991D2*
X33115D1*
X33475D2*
X33593D1*
X33816D2*
X33906D1*
X34288D2*
X34383D1*
X34619D2*
X34731D1*
X35059D2*
X35203D1*
X35847D2*
X35971D1*
X36138D2*
X36535D1*
X36789D2*
X36943D1*
X37240D2*
X37364D1*
X37724D2*
X37842D1*
X38758D2*
X38869D1*
X39626D2*
X39738D1*
X40170D2*
X40278D1*
X40858D2*
X41012D1*
X41323D2*
X41433D1*
X41768D2*
X41895D1*
X42349D2*
X42460D1*
X29982Y33799D2*
X30638D1*
X30983D2*
X31091D1*
X31478D2*
X31583D1*
X32211D2*
X32325D1*
X32974D2*
X33095D1*
X33492D2*
X33601D1*
X34289D2*
X34384D1*
X34603D2*
X34711D1*
X35066D2*
X35198D1*
X35839D2*
X36502D1*
X36782D2*
X36916D1*
X37223D2*
X37343D1*
X37741D2*
X37850D1*
X38754D2*
X38861D1*
X39622D2*
X39730D1*
X40165D2*
X40274D1*
X40852D2*
X40985D1*
X41309D2*
X41414D1*
X41776D2*
X41865D1*
X42345D2*
X42452D1*
X29975Y33769D2*
X30570D1*
X30968D2*
X31078D1*
X31481D2*
X31592D1*
X32206D2*
X32321D1*
X32962D2*
X33077D1*
X33503D2*
X33604D1*
X34288D2*
X34385D1*
X34588D2*
X34697D1*
X35070D2*
X35194D1*
X35831D2*
X36463D1*
X36776D2*
X36896D1*
X37211D2*
X37326D1*
X37752D2*
X37853D1*
X38749D2*
X38853D1*
X39617D2*
X39721D1*
X40161D2*
X40267D1*
X40845D2*
X40965D1*
X41298D2*
X41400D1*
X42340D2*
X42444D1*
X29967Y33739D2*
X30076D1*
X30268D2*
X30495D1*
X30957D2*
X31069D1*
X31482D2*
X31596D1*
X32202D2*
X32316D1*
X32954D2*
X33063D1*
X33509D2*
X33606D1*
X34150D2*
X34384D1*
X34577D2*
X34686D1*
X35072D2*
X35189D1*
X35826D2*
X36420D1*
X36767D2*
X36881D1*
X37203D2*
X37311D1*
X37758D2*
X37855D1*
X38742D2*
X38848D1*
X39609D2*
X39716D1*
X40156D2*
X40260D1*
X40837D2*
X40951D1*
X41287D2*
X41392D1*
X42332D2*
X42439D1*
X29961Y33709D2*
X30075D1*
X30349D2*
X30524D1*
X30949D2*
X31597D1*
X32197D2*
X32309D1*
X32946D2*
X33051D1*
X33503D2*
X33607D1*
X34018D2*
X34380D1*
X34570D2*
X34675D1*
X35073D2*
X35181D1*
X35822D2*
X35947D1*
X36759D2*
X36870D1*
X37195D2*
X37300D1*
X37752D2*
X37855D1*
X38734D2*
X38844D1*
X39601D2*
X39713D1*
X40148D2*
X40253D1*
X40828D2*
X40939D1*
X41278D2*
X41384D1*
X42324D2*
X42435D1*
X29958Y33679D2*
X30071D1*
X30405D2*
X30550D1*
X30942D2*
X31586D1*
X32189D2*
X32301D1*
X32938D2*
X33044D1*
X33496D2*
X33606D1*
X33917D2*
X34373D1*
X34566D2*
X34665D1*
X35072D2*
X35173D1*
X35817D2*
X35929D1*
X36754D2*
X36859D1*
X37186D2*
X37293D1*
X37745D2*
X37855D1*
X38728D2*
X38839D1*
X39596D2*
X39712D1*
X40139D2*
X40247D1*
X40823D2*
X40928D1*
X41272D2*
X41375D1*
X42319D2*
X42430D1*
X29952Y33649D2*
X30064D1*
X30442D2*
X30573D1*
X30933D2*
X31572D1*
X32181D2*
X32295D1*
X32929D2*
X33041D1*
X33491D2*
X33602D1*
X33849D2*
X34365D1*
X34560D2*
X34660D1*
X35068D2*
X35168D1*
X35809D2*
X35919D1*
X36750D2*
X36850D1*
X37178D2*
X37290D1*
X37740D2*
X37851D1*
X38724D2*
X38831D1*
X39593D2*
X39711D1*
X40130D2*
X40237D1*
X40819D2*
X40919D1*
X41269D2*
X41367D1*
X42315D2*
X42422D1*
X29945Y33620D2*
X30056D1*
X30466D2*
X30594D1*
X30925D2*
X31034D1*
X32176D2*
X32291D1*
X32924D2*
X33039D1*
X33484D2*
X33595D1*
X33804D2*
X34040D1*
X34271D2*
X34359D1*
X34553D2*
X34656D1*
X35061D2*
X35164D1*
X35801D2*
X35913D1*
X36745D2*
X36844D1*
X37173D2*
X37288D1*
X37733D2*
X37844D1*
X38719D2*
X38823D1*
X39593D2*
X39711D1*
X40119D2*
X40225D1*
X40814D2*
X40913D1*
X41268D2*
X41362D1*
X42310D2*
X42414D1*
X29937Y33590D2*
X30050D1*
X30485D2*
X30614D1*
X30920D2*
X31034D1*
X32172D2*
X32286D1*
X32921D2*
X33039D1*
X33476D2*
X33586D1*
X33775D2*
X33955D1*
X34252D2*
X34352D1*
X34546D2*
X34655D1*
X35052D2*
X35159D1*
X35795D2*
X35907D1*
X36737D2*
X36840D1*
X37170D2*
X37288D1*
X37725D2*
X37835D1*
X38712D2*
X38817D1*
X39597D2*
X39711D1*
X40106D2*
X40211D1*
X40806D2*
X40909D1*
X41267D2*
X41359D1*
X42302D2*
X42408D1*
X29930Y33560D2*
X30044D1*
X30502D2*
X30630D1*
X30921D2*
X31035D1*
X32167D2*
X32279D1*
X32921D2*
X33039D1*
X33467D2*
X33577D1*
X33755D2*
X33890D1*
X34239D2*
X34344D1*
X34544D2*
X34655D1*
X35043D2*
X35151D1*
X35788D2*
X35899D1*
X36729D2*
X36834D1*
X37170D2*
X37288D1*
X37715D2*
X37826D1*
X38704D2*
X38810D1*
X39604D2*
X39711D1*
X40092D2*
X40197D1*
X40798D2*
X40904D1*
X41267D2*
X41358D1*
X42294D2*
X42401D1*
X29924Y33530D2*
X30035D1*
X30517D2*
X30642D1*
X30927D2*
X31039D1*
X31453D2*
X31483D1*
X32159D2*
X32271D1*
X32924D2*
X33040D1*
X33456D2*
X33566D1*
X33741D2*
X33862D1*
X34225D2*
X34336D1*
X34549D2*
X34656D1*
X35032D2*
X35143D1*
X35780D2*
X35891D1*
X36724D2*
X36827D1*
X37173D2*
X37289D1*
X37705D2*
X37815D1*
X38698D2*
X38802D1*
X39611D2*
X39712D1*
X40076D2*
X40182D1*
X40793D2*
X40896D1*
X41267D2*
X41358D1*
X41716D2*
X41835D1*
X42289D2*
X42393D1*
X29915Y33500D2*
X30027D1*
X30531D2*
X30655D1*
X30935D2*
X31047D1*
X31433D2*
X31542D1*
X32151D2*
X32265D1*
X32931D2*
X33045D1*
X33441D2*
X33553D1*
X33733D2*
X33839D1*
X34210D2*
X34330D1*
X34555D2*
X34661D1*
X35018D2*
X35138D1*
X35772D2*
X35886D1*
X36720D2*
X36819D1*
X37180D2*
X37294D1*
X37690D2*
X37802D1*
X38695D2*
X38794D1*
X39617D2*
X39716D1*
X40058D2*
X40167D1*
X40789D2*
X40888D1*
X41268D2*
X41363D1*
X41704D2*
X41824D1*
X42285D2*
X42384D1*
X29907Y33470D2*
X30021D1*
X30544D2*
X30668D1*
X30944D2*
X31060D1*
X31410D2*
X31523D1*
X32146D2*
X32263D1*
X32940D2*
X33054D1*
X33418D2*
X33539D1*
X33731D2*
X33816D1*
X34191D2*
X34327D1*
X34561D2*
X34670D1*
X34998D2*
X35134D1*
X35766D2*
X35882D1*
X36715D2*
X36812D1*
X37189D2*
X37303D1*
X37667D2*
X37788D1*
X38689D2*
X38788D1*
X39624D2*
X39726D1*
X40037D2*
X40152D1*
X40784D2*
X40882D1*
X41272D2*
X41372D1*
X41689D2*
X41810D1*
X42280D2*
X42379D1*
X29902Y33440D2*
X30017D1*
X30554D2*
X30682D1*
X30955D2*
X31078D1*
X31382D2*
X31502D1*
X32142D2*
X32261D1*
X32950D2*
X33082D1*
X33389D2*
X33523D1*
X33733D2*
X33848D1*
X34164D2*
X34326D1*
X34569D2*
X34697D1*
X34973D2*
X35129D1*
X35762D2*
X35877D1*
X36707D2*
X36806D1*
X37199D2*
X37331D1*
X37638D2*
X37772D1*
X38682D2*
X38784D1*
X39634D2*
X39742D1*
X40014D2*
X40136D1*
X40776D2*
X40875D1*
X41280D2*
X41399D1*
X41668D2*
X41792D1*
X42272D2*
X42375D1*
X29898Y33410D2*
X30012D1*
X30566D2*
X30693D1*
X30969D2*
X31128D1*
X31315D2*
X31477D1*
X31782D2*
X31901D1*
X32137D2*
X32261D1*
X32965D2*
X33131D1*
X33321D2*
X33503D1*
X33741D2*
X33905D1*
X34097D2*
X34325D1*
X34581D2*
X34741D1*
X34911D2*
X35121D1*
X35757D2*
X35869D1*
X36699D2*
X36797D1*
X37214D2*
X37380D1*
X37569D2*
X37752D1*
X38674D2*
X38779D1*
X39232D2*
X39352D1*
X39647D2*
X39794D1*
X39959D2*
X40117D1*
X40768D2*
X40867D1*
X41293D2*
X41443D1*
X41610D2*
X41769D1*
X42264D2*
X42370D1*
X29893Y33380D2*
X30005D1*
X30579D2*
X30704D1*
X30989D2*
X31206D1*
X31215D2*
X31449D1*
X31768D2*
X31888D1*
X32129D2*
X32261D1*
X32988D2*
X33210D1*
X33220D2*
X33476D1*
X33753D2*
X33999D1*
X33997D2*
X34325D1*
X34599D2*
X34810D1*
X34821D2*
X35113D1*
X35750D2*
X35861D1*
X36694D2*
X36789D1*
X37236D2*
X37459D1*
X37469D2*
X37725D1*
X38669D2*
X38772D1*
X39218D2*
X39338D1*
X39665D2*
X39878D1*
X39874D2*
X40093D1*
X40763D2*
X40858D1*
X41311D2*
X41512D1*
X41522D2*
X41743D1*
X42259D2*
X42362D1*
X29885Y33350D2*
X29997D1*
X30592D2*
X30715D1*
X31017D2*
X31414D1*
X31759D2*
X31879D1*
X32121D2*
X32769D1*
X33019D2*
X33439D1*
X33773D2*
X34325D1*
X34623D2*
X34951D1*
X35013D2*
X35108D1*
X35742D2*
X35856D1*
X36691D2*
X36784D1*
X37268D2*
X37688D1*
X38666D2*
X38764D1*
X39210D2*
X39329D1*
X39690D2*
X40060D1*
X40760D2*
X40853D1*
X41335D2*
X41711D1*
X42256D2*
X42354D1*
X29876Y33320D2*
X29991D1*
X30604D2*
X30725D1*
X31061D2*
X31368D1*
X31755D2*
X31874D1*
X32115D2*
X32769D1*
X33064D2*
X33389D1*
X33804D2*
X34099D1*
X34205D2*
X34325D1*
X34660D2*
X34912D1*
X35013D2*
X35105D1*
X35736D2*
X35853D1*
X36690D2*
X36781D1*
X37313D2*
X37638D1*
X38664D2*
X38758D1*
X39205D2*
X39325D1*
X39725D2*
X40015D1*
X40759D2*
X40850D1*
X41371D2*
X41668D1*
X42255D2*
X42348D1*
X29867Y33290D2*
X29987D1*
X30615D2*
X30735D1*
X31118D2*
X31309D1*
X31752D2*
X31872D1*
X32111D2*
X32769D1*
X33122D2*
X33323D1*
X33851D2*
X34038D1*
X34235D2*
X34325D1*
X34713D2*
X34861D1*
X35013D2*
X35103D1*
X35731D2*
X35851D1*
X36689D2*
X36779D1*
X37371D2*
X37572D1*
X38664D2*
X38753D1*
X39202D2*
X39322D1*
X39774D2*
X39956D1*
X40758D2*
X40848D1*
X41420D2*
X41607D1*
X42254D2*
X42344D1*
X31183Y33260D2*
X31243D1*
X33188D2*
X33248D1*
X33906D2*
X33966D1*
X34774D2*
X34804D1*
X37437D2*
X37497D1*
X39831D2*
X39890D1*
X41476D2*
X41536D1*
X34731Y18238D2*
X34821D1*
X34731Y18208D2*
X34821D1*
X34731Y18178D2*
X34821D1*
X34731Y18148D2*
X34821D1*
X34731Y18119D2*
X34821D1*
X34731Y18089D2*
X34821D1*
X34731Y18059D2*
X34821D1*
X34731Y18029D2*
X34821D1*
X34731Y17999D2*
X34821D1*
X34432Y17969D2*
X35090D1*
X34432Y17939D2*
X35090D1*
X34432Y17909D2*
X35090D1*
X34432Y17879D2*
X35090D1*
X34731Y17849D2*
X34821D1*
X34731Y17819D2*
X34821D1*
X34731Y17789D2*
X34821D1*
X34731Y17759D2*
X34821D1*
X34731Y17730D2*
X34821D1*
X34731Y17700D2*
X34821D1*
X34731Y17670D2*
X34821D1*
X34731Y17640D2*
X34821D1*
X34731Y17610D2*
X34821D1*
X34731Y17580D2*
X34821D1*
X38902Y17944D2*
X39261D1*
X38891Y17914D2*
X39255D1*
X38881Y17884D2*
X39245D1*
X38872Y17855D2*
X39231D1*
X30368Y18448D2*
X30458D1*
X31415D2*
X31505D1*
X29351Y18418D2*
X29500D1*
X30285D2*
X30539D1*
X31332D2*
X31587D1*
X29336Y18388D2*
X29505D1*
X30217D2*
X30604D1*
X31264D2*
X31651D1*
X29318Y18358D2*
X29512D1*
X30161D2*
X30652D1*
X31208D2*
X31700D1*
X29301Y18328D2*
X29520D1*
X30116D2*
X30309D1*
X30547D2*
X30690D1*
X31163D2*
X31357D1*
X31595D2*
X31737D1*
X29285Y18298D2*
X29525D1*
X30081D2*
X30255D1*
X30577D2*
X30720D1*
X31128D2*
X31302D1*
X31624D2*
X31767D1*
X29269Y18268D2*
X29376D1*
X29440D2*
X29528D1*
X30054D2*
X30208D1*
X30606D2*
X30743D1*
X31101D2*
X31255D1*
X31653D2*
X31790D1*
X29254Y18238D2*
X29367D1*
X29440D2*
X29530D1*
X30031D2*
X30172D1*
X30631D2*
X30760D1*
X31078D2*
X31219D1*
X31678D2*
X31807D1*
X29238Y18208D2*
X29356D1*
X29440D2*
X29535D1*
X30009D2*
X30144D1*
X30650D2*
X30774D1*
X31057D2*
X31191D1*
X31697D2*
X31821D1*
X29223Y18178D2*
X29342D1*
X29440D2*
X29542D1*
X29990D2*
X30121D1*
X30665D2*
X30774D1*
X31038D2*
X31168D1*
X31712D2*
X31821D1*
X29207Y18148D2*
X29328D1*
X29440D2*
X29550D1*
X29973D2*
X30100D1*
X30680D2*
X30754D1*
X31020D2*
X31148D1*
X31727D2*
X31801D1*
X29190Y18119D2*
X29313D1*
X29442D2*
X29555D1*
X29957D2*
X30084D1*
X30697D2*
X30727D1*
X31005D2*
X31131D1*
X31744D2*
X31774D1*
X29170Y18089D2*
X29298D1*
X29445D2*
X29558D1*
X29943D2*
X30071D1*
X30990D2*
X31118D1*
X29152Y18059D2*
X29283D1*
X29453D2*
X29560D1*
X29932D2*
X30060D1*
X30979D2*
X31107D1*
X29135Y18029D2*
X29267D1*
X29460D2*
X29565D1*
X29925D2*
X30049D1*
X30972D2*
X31096D1*
X29119Y17999D2*
X29249D1*
X29465D2*
X29572D1*
X29920D2*
X30039D1*
X30968D2*
X31086D1*
X29104Y17969D2*
X29230D1*
X29468D2*
X29580D1*
X29915D2*
X30029D1*
X30962D2*
X31076D1*
X29089Y17939D2*
X29212D1*
X29470D2*
X29585D1*
X29907D2*
X30020D1*
X30955D2*
X31067D1*
X29074Y17909D2*
X29195D1*
X29471D2*
X29588D1*
X29899D2*
X30014D1*
X30947D2*
X31061D1*
X29058Y17879D2*
X29179D1*
X29476D2*
X29590D1*
X29894D2*
X30011D1*
X30941D2*
X31058D1*
X29040Y17849D2*
X29165D1*
X29486D2*
X29595D1*
X29891D2*
X30010D1*
X30939D2*
X31057D1*
X29021Y17819D2*
X29152D1*
X29500D2*
X29602D1*
X29890D2*
X30009D1*
X30937D2*
X31056D1*
X29002Y17789D2*
X29141D1*
X29330D2*
X29610D1*
X29891D2*
X30009D1*
X30938D2*
X31056D1*
X28986Y17759D2*
X29615D1*
X29894D2*
X30010D1*
X30942D2*
X31057D1*
X28970Y17730D2*
X29618D1*
X29901D2*
X30014D1*
X30637D2*
X30727D1*
X30949D2*
X31061D1*
X31684D2*
X31774D1*
X28954Y17700D2*
X29620D1*
X29909D2*
X30021D1*
X30619D2*
X30722D1*
X30956D2*
X31068D1*
X31666D2*
X31769D1*
X28939Y17670D2*
X29047D1*
X29494D2*
X29625D1*
X29915D2*
X30030D1*
X30601D2*
X30714D1*
X30963D2*
X31077D1*
X31649D2*
X31761D1*
X28924Y17640D2*
X29038D1*
X29512D2*
X29632D1*
X29922D2*
X30040D1*
X30584D2*
X30701D1*
X30969D2*
X31087D1*
X31632D2*
X31748D1*
X28908Y17610D2*
X29026D1*
X29522D2*
X29640D1*
X29932D2*
X30055D1*
X30564D2*
X30684D1*
X30979D2*
X31102D1*
X31611D2*
X31731D1*
X28890Y17580D2*
X29013D1*
X29527D2*
X29645D1*
X29945D2*
X30078D1*
X30535D2*
X30661D1*
X30992D2*
X31125D1*
X31582D2*
X31708D1*
X28871Y17550D2*
X28999D1*
X29530D2*
X29648D1*
X29962D2*
X30108D1*
X30489D2*
X30635D1*
X31010D2*
X31155D1*
X31536D2*
X31682D1*
X28853Y17520D2*
X28984D1*
X29535D2*
X29649D1*
X29985D2*
X30181D1*
X30413D2*
X30606D1*
X31032D2*
X31229D1*
X31460D2*
X31653D1*
X28836Y17490D2*
X28968D1*
X29542D2*
X29651D1*
X30013D2*
X30292D1*
X30298D2*
X30575D1*
X31060D2*
X31340D1*
X31345D2*
X31623D1*
X28819Y17460D2*
X28949D1*
X29550D2*
X29656D1*
X30050D2*
X30537D1*
X31097D2*
X31585D1*
X28801Y17430D2*
X28926D1*
X29556D2*
X29666D1*
X30105D2*
X30482D1*
X31152D2*
X31529D1*
X28782Y17400D2*
X28902D1*
X29560D2*
X29680D1*
X30185D2*
X30402D1*
X31232D2*
X31449D1*
X30278Y17370D2*
X30308D1*
X31325D2*
X31355D1*
X7078Y30209D2*
X7378D1*
X7073Y30194D2*
X7372D1*
X7068Y30179D2*
X7368D1*
X7064Y30164D2*
X7365D1*
X7058Y30149D2*
X7363D1*
X7054Y30134D2*
X7126D1*
X7050Y30119D2*
X7117D1*
X6630Y30104D2*
X6689D1*
X7047D2*
X7112D1*
X6630Y30090D2*
X6689D1*
X7043D2*
X7108D1*
X6630Y30075D2*
X6689D1*
X7038D2*
X7103D1*
X6630Y30060D2*
X6689D1*
X7034D2*
X7098D1*
X6630Y30045D2*
X6689D1*
X7029D2*
X7093D1*
X6630Y30030D2*
X6689D1*
X7024D2*
X7088D1*
X7452D2*
X7512D1*
X7782D2*
X7856D1*
X6630Y30015D2*
X6689D1*
X7021D2*
X7085D1*
X7452D2*
X7513D1*
X7774D2*
X7847D1*
X6630Y30000D2*
X6689D1*
X7017D2*
X7082D1*
X7138D2*
X7243D1*
X7452D2*
X7515D1*
X7765D2*
X7837D1*
X6630Y29985D2*
X6689D1*
X7013D2*
X7087D1*
X7101D2*
X7265D1*
X7453D2*
X7518D1*
X7757D2*
X7826D1*
X6630Y29970D2*
X6689D1*
X7008D2*
X7284D1*
X7455D2*
X7522D1*
X7749D2*
X7817D1*
X6630Y29955D2*
X6689D1*
X7004D2*
X7301D1*
X7458D2*
X7525D1*
X7741D2*
X7809D1*
X6630Y29940D2*
X6689D1*
X6999D2*
X7124D1*
X7210D2*
X7315D1*
X7462D2*
X7526D1*
X7733D2*
X7801D1*
X6450Y29925D2*
X6854D1*
X6994D2*
X7096D1*
X7233D2*
X7326D1*
X7465D2*
X7527D1*
X7725D2*
X7793D1*
X6450Y29910D2*
X6854D1*
X6991D2*
X7071D1*
X7251D2*
X7335D1*
X7466D2*
X7530D1*
X7716D2*
X7785D1*
X6450Y29895D2*
X6854D1*
X6989D2*
X7048D1*
X7264D2*
X7341D1*
X7468D2*
X7533D1*
X7706D2*
X7776D1*
X6450Y29880D2*
X6854D1*
X7274D2*
X7345D1*
X7470D2*
X7537D1*
X7697D2*
X7766D1*
X6450Y29865D2*
X6854D1*
X7281D2*
X7346D1*
X7473D2*
X7540D1*
X7689D2*
X7757D1*
X6630Y29850D2*
X6689D1*
X7285D2*
X7347D1*
X7477D2*
X7541D1*
X7681D2*
X7749D1*
X6630Y29835D2*
X6689D1*
X7286D2*
X7348D1*
X7480D2*
X7542D1*
X7673D2*
X7740D1*
X6630Y29820D2*
X6689D1*
X7287D2*
X7348D1*
X7481D2*
X7543D1*
X7665D2*
X7731D1*
X6630Y29805D2*
X6689D1*
X7285D2*
X7348D1*
X7483D2*
X7545D1*
X7656D2*
X7721D1*
X6630Y29790D2*
X6689D1*
X7282D2*
X7347D1*
X7485D2*
X7548D1*
X7647D2*
X7712D1*
X6630Y29775D2*
X6689D1*
X6989D2*
X7004D1*
X7277D2*
X7345D1*
X7488D2*
X7552D1*
X7637D2*
X7704D1*
X6630Y29760D2*
X6689D1*
X6968D2*
X7009D1*
X7272D2*
X7341D1*
X7492D2*
X7555D1*
X7629D2*
X7696D1*
X6630Y29745D2*
X6689D1*
X6953D2*
X7013D1*
X7265D2*
X7335D1*
X7495D2*
X7556D1*
X7621D2*
X7688D1*
X6630Y29730D2*
X6689D1*
X6949D2*
X7017D1*
X7257D2*
X7329D1*
X7496D2*
X7557D1*
X7613D2*
X7680D1*
X6630Y29715D2*
X6689D1*
X6951D2*
X7021D1*
X7247D2*
X7321D1*
X7497D2*
X7558D1*
X7605D2*
X7671D1*
X6630Y29701D2*
X6689D1*
X6955D2*
X7026D1*
X7236D2*
X7314D1*
X7500D2*
X7560D1*
X7593D2*
X7661D1*
X6960Y29686D2*
X7038D1*
X7222D2*
X7306D1*
X7503D2*
X7565D1*
X7576D2*
X7652D1*
X6967Y29671D2*
X7070D1*
X7183D2*
X7296D1*
X7507D2*
X7644D1*
X6977Y29656D2*
X7120D1*
X7123D2*
X7284D1*
X7510D2*
X7635D1*
X6991Y29641D2*
X7268D1*
X7511D2*
X7626D1*
X7008Y29626D2*
X7247D1*
X7512D2*
X7617D1*
X7031Y29611D2*
X7218D1*
X7512D2*
X7609D1*
X7060Y29596D2*
X7180D1*
X7512D2*
X7602D1*
X7093Y29581D2*
X7138D1*
X7075Y29147D2*
X7180D1*
X7808D2*
X7913D1*
X7048Y29132D2*
X7208D1*
X7781D2*
X7942D1*
X7024Y29118D2*
X7232D1*
X7757D2*
X7965D1*
X7004Y29103D2*
X7251D1*
X7737D2*
X7984D1*
X6988Y29088D2*
X7091D1*
X7162D2*
X7266D1*
X7721D2*
X7824D1*
X7895D2*
X7999D1*
X6973Y29073D2*
X7066D1*
X7185D2*
X7277D1*
X7707D2*
X7799D1*
X7918D2*
X8010D1*
X6962Y29058D2*
X7046D1*
X7202D2*
X7286D1*
X7695D2*
X7779D1*
X7936D2*
X8019D1*
X6566Y29043D2*
X6626D1*
X6953D2*
X7032D1*
X7214D2*
X7293D1*
X7687D2*
X7765D1*
X7947D2*
X8026D1*
X6566Y29028D2*
X6626D1*
X6947D2*
X7021D1*
X7223D2*
X7296D1*
X7680D2*
X7754D1*
X7956D2*
X8029D1*
X6566Y29013D2*
X6626D1*
X6943D2*
X7011D1*
X7231D2*
X7298D1*
X7676D2*
X7746D1*
X7964D2*
X8031D1*
X6566Y28998D2*
X6626D1*
X6940D2*
X7000D1*
X7240D2*
X7299D1*
X7673D2*
X7739D1*
X7973D2*
X8032D1*
X6566Y28983D2*
X6626D1*
X7232D2*
X7299D1*
X7733D2*
D3*
X7965D2*
X8032D1*
X6566Y28968D2*
X6626D1*
X7226D2*
X7297D1*
X7959D2*
X8030D1*
X8122D2*
X8182D1*
X8451D2*
X8526D1*
X6566Y28953D2*
X6626D1*
X7219D2*
X7293D1*
X7952D2*
X8026D1*
X8122D2*
X8183D1*
X8444D2*
X8516D1*
X6566Y28938D2*
X6626D1*
X7209D2*
X7286D1*
X7942D2*
X8019D1*
X8122D2*
X8185D1*
X8435D2*
X8506D1*
X6566Y28923D2*
X6626D1*
X7195D2*
X7278D1*
X7929D2*
X8011D1*
X8123D2*
X8188D1*
X8427D2*
X8496D1*
X6566Y28908D2*
X6626D1*
X7167D2*
X7266D1*
X7900D2*
X7999D1*
X8125D2*
X8192D1*
X8418D2*
X8487D1*
X6566Y28893D2*
X6626D1*
X7134D2*
X7251D1*
X7868D2*
X7985D1*
X8128D2*
X8195D1*
X8410D2*
X8478D1*
X6566Y28878D2*
X6626D1*
X7105D2*
X7237D1*
X7838D2*
X7970D1*
X8132D2*
X8196D1*
X8403D2*
X8470D1*
X6387Y28863D2*
X6791D1*
X7084D2*
X7224D1*
X7817D2*
X7957D1*
X8135D2*
X8197D1*
X8395D2*
X8463D1*
X6387Y28848D2*
X6791D1*
X7070D2*
X7219D1*
X7803D2*
X7952D1*
X8136D2*
X8199D1*
X8386D2*
X8455D1*
X6387Y28833D2*
X6791D1*
X7060D2*
X7229D1*
X7793D2*
X7962D1*
X8137D2*
X8203D1*
X8376D2*
X8446D1*
X6387Y28818D2*
X6791D1*
X7105D2*
X7239D1*
X7838D2*
X7972D1*
X8140D2*
X8207D1*
X8367D2*
X8436D1*
X6387Y28803D2*
X6791D1*
X7140D2*
X7247D1*
X7873D2*
X7980D1*
X8143D2*
X8210D1*
X8359D2*
X8427D1*
X6566Y28788D2*
X6626D1*
X7166D2*
X7253D1*
X7899D2*
X7986D1*
X8147D2*
X8211D1*
X8351D2*
X8418D1*
X6566Y28773D2*
X6626D1*
X7178D2*
X7259D1*
X7911D2*
X7992D1*
X8150D2*
X8212D1*
X8343D2*
X8410D1*
X6566Y28758D2*
X6626D1*
X7187D2*
X7264D1*
X7920D2*
X7997D1*
X8151D2*
X8212D1*
X8335D2*
X8401D1*
X6566Y28744D2*
X6626D1*
X7191D2*
X7267D1*
X7924D2*
X8000D1*
X8152D2*
X8214D1*
X8326D2*
X8391D1*
X6566Y28729D2*
X6626D1*
X7193D2*
X7268D1*
X7926D2*
X8001D1*
X8154D2*
X8218D1*
X8316D2*
X8382D1*
X6566Y28714D2*
X6626D1*
X7194D2*
X7268D1*
X7927D2*
X8002D1*
X8158D2*
X8222D1*
X8307D2*
X8374D1*
X6566Y28699D2*
X6626D1*
X6881D2*
X6925D1*
X7194D2*
X7267D1*
X7614D2*
X7658D1*
X7927D2*
X8000D1*
X8162D2*
X8225D1*
X8299D2*
X8366D1*
X6566Y28684D2*
X6626D1*
X6874D2*
X6933D1*
X7192D2*
X7263D1*
X7608D2*
X7666D1*
X7925D2*
X7996D1*
X8165D2*
X8226D1*
X8291D2*
X8358D1*
X6566Y28669D2*
X6626D1*
X6875D2*
X6939D1*
X7188D2*
X7259D1*
X7608D2*
X7672D1*
X7921D2*
X7992D1*
X8166D2*
X8227D1*
X8283D2*
X8350D1*
X6566Y28654D2*
X6626D1*
X6878D2*
X6945D1*
X7182D2*
X7254D1*
X7611D2*
X7679D1*
X7915D2*
X7987D1*
X8167D2*
X8227D1*
X8274D2*
X8341D1*
X6566Y28639D2*
X6626D1*
X6881D2*
X6953D1*
X7172D2*
X7246D1*
X7614D2*
X7686D1*
X7905D2*
X7980D1*
X8169D2*
X8230D1*
X8263D2*
X8331D1*
X6886Y28624D2*
X6963D1*
X7158D2*
X7236D1*
X7619D2*
X7696D1*
X7892D2*
X7969D1*
X8173D2*
X8235D1*
X8246D2*
X8322D1*
X6893Y28609D2*
X6996D1*
X7117D2*
X7225D1*
X7374D2*
X7464D1*
X7626D2*
X7729D1*
X7850D2*
X7958D1*
X8177D2*
X8314D1*
X6903Y28594D2*
X7051D1*
X7052D2*
X7213D1*
X7374D2*
X7457D1*
X7636D2*
X7784D1*
X7785D2*
X7946D1*
X8180D2*
X8305D1*
X6917Y28579D2*
X7198D1*
X7374D2*
X7452D1*
X7650D2*
X7931D1*
X8181D2*
X8296D1*
X6937Y28564D2*
X7178D1*
X7371D2*
X7448D1*
X7670D2*
X7911D1*
X8182D2*
X8287D1*
X6966Y28549D2*
X7151D1*
X7366D2*
X7442D1*
X7699D2*
X7884D1*
X8182D2*
X8279D1*
X7003Y28534D2*
X7116D1*
X7359D2*
X7434D1*
X7736D2*
X7849D1*
X8182D2*
X8272D1*
X7045Y28519D2*
X7075D1*
X7778D2*
X7808D1*
X6432Y28147D2*
X6925D1*
X6955D2*
X7030D1*
X7404D2*
X7509D1*
X7599D2*
X7883D1*
X6431Y28132D2*
X6918D1*
X6961D2*
X7039D1*
X7391D2*
X7494D1*
X7598D2*
X7917D1*
X6429Y28118D2*
X6914D1*
X6967D2*
X7048D1*
X7380D2*
X7479D1*
X7596D2*
X7945D1*
X6424Y28103D2*
X6912D1*
X6974D2*
X7056D1*
X7369D2*
X7464D1*
X7593D2*
X7966D1*
X6417Y28088D2*
X6910D1*
X6982D2*
X7064D1*
X7357D2*
X7449D1*
X7589D2*
X7983D1*
X6626Y28073D2*
X6699D1*
X6991D2*
X7072D1*
X7343D2*
X7434D1*
X7586D2*
X7658D1*
X7862D2*
X7995D1*
X6624Y28058D2*
X6695D1*
X7001D2*
X7081D1*
X7329D2*
X7420D1*
X7584D2*
X7656D1*
X7894D2*
X8005D1*
X6620Y28043D2*
X6691D1*
X7010D2*
X7090D1*
X7314D2*
X7407D1*
X7582D2*
X7652D1*
X7919D2*
X8013D1*
X6616Y28028D2*
X6688D1*
X7018D2*
X7099D1*
X7299D2*
X7395D1*
X7578D2*
X7649D1*
X7936D2*
X8021D1*
X6614Y28013D2*
X6686D1*
X7026D2*
X7108D1*
X7284D2*
X7384D1*
X7574D2*
X7646D1*
X7948D2*
X8027D1*
X6612Y27998D2*
X6684D1*
X7034D2*
X7116D1*
X7269D2*
X7372D1*
X7571D2*
X7644D1*
X7956D2*
X8032D1*
X6609Y27983D2*
X6680D1*
X7042D2*
X7124D1*
X7255D2*
X7358D1*
X7567D2*
X7641D1*
X7962D2*
X8037D1*
X6605Y27968D2*
X6676D1*
X7051D2*
X7131D1*
X7240D2*
X7344D1*
X7563D2*
X7638D1*
X7967D2*
X8042D1*
X6601Y27953D2*
X6673D1*
X7060D2*
X7139D1*
X7225D2*
X7329D1*
X7559D2*
X7634D1*
X7970D2*
X8045D1*
X6598Y27938D2*
X6672D1*
X7070D2*
X7147D1*
X7212D2*
X7314D1*
X7556D2*
X7631D1*
X7971D2*
X8046D1*
X6595Y27923D2*
X6669D1*
X7078D2*
X7159D1*
X7201D2*
X7299D1*
X7554D2*
X7629D1*
X7972D2*
X8047D1*
X6591Y27908D2*
X6665D1*
X7086D2*
X7175D1*
X7190D2*
X7284D1*
X7552D2*
X7626D1*
X7972D2*
X8047D1*
X6587Y27893D2*
X6661D1*
X7094D2*
X7269D1*
X7548D2*
X7623D1*
X7973D2*
X8047D1*
X6584Y27878D2*
X6658D1*
X7102D2*
X7255D1*
X7544D2*
X7619D1*
X7973D2*
X8047D1*
X6582Y27863D2*
X6655D1*
X7110D2*
X7240D1*
X7541D2*
X7615D1*
X7973D2*
X8047D1*
X6579Y27848D2*
X6650D1*
X7120D2*
X7225D1*
X7539D2*
X7612D1*
X7972D2*
X8047D1*
X6575Y27833D2*
X6646D1*
X7110D2*
X7210D1*
X7537D2*
X7608D1*
X7970D2*
X8045D1*
X6571Y27818D2*
X6644D1*
X7100D2*
X7219D1*
X7533D2*
X7604D1*
X7967D2*
X8041D1*
X6569Y27803D2*
X6642D1*
X7087D2*
X7227D1*
X7529D2*
X7601D1*
X7962D2*
X8037D1*
X6567Y27788D2*
X6639D1*
X7074D2*
X7235D1*
X7526D2*
X7599D1*
X7958D2*
X8034D1*
X6564Y27773D2*
X6635D1*
X7060D2*
X7243D1*
X7524D2*
X7597D1*
X7952D2*
X8031D1*
X6560Y27758D2*
X6631D1*
X7045D2*
X7135D1*
X7182D2*
X7251D1*
X7522D2*
X7593D1*
X7946D2*
X8026D1*
X6556Y27744D2*
X6629D1*
X7030D2*
X7122D1*
X7186D2*
X7260D1*
X7518D2*
X7589D1*
X7939D2*
X8020D1*
X6553Y27729D2*
X6627D1*
X7015D2*
X7111D1*
X7192D2*
X7270D1*
X7514D2*
X7586D1*
X7931D2*
X8013D1*
X6550Y27714D2*
X6624D1*
X7000D2*
X7100D1*
X7199D2*
X7279D1*
X7511D2*
X7584D1*
X7921D2*
X8006D1*
X6546Y27699D2*
X6620D1*
X6985D2*
X7088D1*
X7207D2*
X7287D1*
X7509D2*
X7582D1*
X7910D2*
X7997D1*
X6542Y27684D2*
X6616D1*
X6970D2*
X7074D1*
X7215D2*
X7295D1*
X7507D2*
X7578D1*
X7897D2*
X7987D1*
X6539Y27669D2*
X6614D1*
X6955D2*
X7060D1*
X7225D2*
X7303D1*
X7503D2*
X7574D1*
X7882D2*
X7977D1*
X6537Y27654D2*
X6612D1*
X6940D2*
X7045D1*
X7234D2*
X7311D1*
X7499D2*
X7571D1*
X7863D2*
X7967D1*
X6534Y27639D2*
X6609D1*
X6925D2*
X7030D1*
X7243D2*
X7320D1*
X7496D2*
X7567D1*
X7837D2*
X7955D1*
X6531Y27624D2*
X6605D1*
X6910D2*
X7015D1*
X7250D2*
X7330D1*
X7492D2*
X7560D1*
X7801D2*
X7942D1*
X6527Y27609D2*
X6601D1*
X6895D2*
X7000D1*
X7258D2*
X7339D1*
X7488D2*
X7550D1*
X7754D2*
X7927D1*
X6524Y27594D2*
X6598D1*
X6881D2*
X6985D1*
X7266D2*
X7347D1*
X7484D2*
X7909D1*
X6522Y27579D2*
X6595D1*
X6866D2*
X6970D1*
X7273D2*
X7355D1*
X7481D2*
X7888D1*
X6519Y27564D2*
X6590D1*
X6851D2*
X6955D1*
X7281D2*
X7362D1*
X7480D2*
X7861D1*
X6514Y27549D2*
X6586D1*
X6836D2*
X6940D1*
X7290D2*
X7369D1*
X7479D2*
X7828D1*
X6506Y27534D2*
X6581D1*
X6821D2*
X6925D1*
X7299D2*
X7374D1*
X7479D2*
X7793D1*
X6602Y27147D2*
X6961D1*
X7185D2*
X7260D1*
X7634D2*
X7739D1*
X7828D2*
X8113D1*
X6602Y27132D2*
X6989D1*
X7191D2*
X7269D1*
X7621D2*
X7724D1*
X7828D2*
X8146D1*
X6601Y27118D2*
X7012D1*
X7197D2*
X7278D1*
X7610D2*
X7709D1*
X7826D2*
X8174D1*
X6599Y27103D2*
X7030D1*
X7204D2*
X7286D1*
X7599D2*
X7694D1*
X7822D2*
X8196D1*
X6596Y27088D2*
X6661D1*
X6942D2*
X7042D1*
X7212D2*
X7293D1*
X7587D2*
X7679D1*
X7818D2*
X8212D1*
X6592Y27073D2*
X6661D1*
X6963D2*
X7052D1*
X7221D2*
X7301D1*
X7573D2*
X7664D1*
X7816D2*
X7888D1*
X8092D2*
X8225D1*
X6588Y27058D2*
X6659D1*
X6980D2*
X7058D1*
X7230D2*
X7310D1*
X7559D2*
X7649D1*
X7814D2*
X7886D1*
X8124D2*
X8234D1*
X6585Y27043D2*
X6655D1*
X6988D2*
X7062D1*
X7239D2*
X7320D1*
X7544D2*
X7636D1*
X7811D2*
X7882D1*
X8149D2*
X8243D1*
X6581Y27028D2*
X6652D1*
X6994D2*
X7064D1*
X7248D2*
X7329D1*
X7529D2*
X7625D1*
X7807D2*
X7878D1*
X8166D2*
X8250D1*
X6577Y27013D2*
X6649D1*
X6999D2*
X7065D1*
X7256D2*
X7338D1*
X7514D2*
X7614D1*
X7803D2*
X7876D1*
X8177D2*
X8256D1*
X6574Y26998D2*
X6647D1*
X6997D2*
X7065D1*
X7264D2*
X7346D1*
X7499D2*
X7601D1*
X7800D2*
X7874D1*
X8185D2*
X8262D1*
X6572Y26983D2*
X6644D1*
X6994D2*
X7065D1*
X7272D2*
X7353D1*
X7484D2*
X7588D1*
X7797D2*
X7871D1*
X8192D2*
X8267D1*
X6570Y26968D2*
X6641D1*
X6989D2*
X7063D1*
X7280D2*
X7361D1*
X7469D2*
X7574D1*
X7793D2*
X7867D1*
X8197D2*
X8272D1*
X6566Y26953D2*
X6637D1*
X6982D2*
X7059D1*
X7290D2*
X7368D1*
X7455D2*
X7559D1*
X7789D2*
X7863D1*
X8200D2*
X8275D1*
X6562Y26938D2*
X6634D1*
X6972D2*
X7053D1*
X7299D2*
X7377D1*
X7442D2*
X7544D1*
X7786D2*
X7861D1*
X8201D2*
X8276D1*
X6559Y26923D2*
X6632D1*
X6958D2*
X7046D1*
X7308D2*
X7389D1*
X7431D2*
X7529D1*
X7784D2*
X7859D1*
X8202D2*
X8277D1*
X6557Y26908D2*
X6629D1*
X6939D2*
X7038D1*
X7316D2*
X7405D1*
X7420D2*
X7514D1*
X7781D2*
X7856D1*
X8202D2*
X8277D1*
X6555Y26893D2*
X6623D1*
X6912D2*
X7028D1*
X7323D2*
X7499D1*
X7778D2*
X7852D1*
X8202D2*
X8277D1*
X6551Y26878D2*
X6613D1*
X6878D2*
X7014D1*
X7331D2*
X7484D1*
X7774D2*
X7848D1*
X8202D2*
X8277D1*
X6547Y26863D2*
X6994D1*
X7340D2*
X7469D1*
X7771D2*
X7845D1*
X8202D2*
X8277D1*
X6544Y26848D2*
X6967D1*
X7350D2*
X7454D1*
X7769D2*
X7842D1*
X8202D2*
X8277D1*
X6542Y26833D2*
X6934D1*
X7340D2*
X7439D1*
X7766D2*
X7838D1*
X8200D2*
X8275D1*
X6540Y26818D2*
X6902D1*
X7329D2*
X7449D1*
X7763D2*
X7834D1*
X8196D2*
X8271D1*
X6536Y26803D2*
X6602D1*
X6778D2*
X6871D1*
X7317D2*
X7457D1*
X7759D2*
X7831D1*
X8192D2*
X8267D1*
X6532Y26788D2*
X6602D1*
X6801D2*
X6885D1*
X7304D2*
X7465D1*
X7756D2*
X7829D1*
X8187D2*
X8264D1*
X6529Y26773D2*
X6601D1*
X6819D2*
X6898D1*
X7289D2*
X7473D1*
X7754D2*
X7826D1*
X8182D2*
X8261D1*
X6525Y26758D2*
X6599D1*
X6833D2*
X6909D1*
X7275D2*
X7365D1*
X7412D2*
X7481D1*
X7751D2*
X7822D1*
X8175D2*
X8256D1*
X6521Y26744D2*
X6596D1*
X6843D2*
X6918D1*
X7260D2*
X7352D1*
X7416D2*
X7490D1*
X7748D2*
X7818D1*
X8168D2*
X8250D1*
X6517Y26729D2*
X6592D1*
X6851D2*
X6927D1*
X7245D2*
X7341D1*
X7422D2*
X7500D1*
X7744D2*
X7816D1*
X8161D2*
X8243D1*
X6514Y26714D2*
X6588D1*
X6859D2*
X6936D1*
X7230D2*
X7330D1*
X7429D2*
X7509D1*
X7741D2*
X7814D1*
X8151D2*
X8235D1*
X6512Y26699D2*
X6585D1*
X6867D2*
X6945D1*
X7215D2*
X7317D1*
X7436D2*
X7517D1*
X7739D2*
X7811D1*
X8140D2*
X8227D1*
X6510Y26684D2*
X6581D1*
X6875D2*
X6953D1*
X7200D2*
X7304D1*
X7445D2*
X7525D1*
X7737D2*
X7807D1*
X8126D2*
X8217D1*
X6506Y26669D2*
X6577D1*
X6882D2*
X6959D1*
X7185D2*
X7289D1*
X7455D2*
X7533D1*
X7733D2*
X7803D1*
X8111D2*
X8207D1*
X6502Y26654D2*
X6574D1*
X6889D2*
X6966D1*
X7170D2*
X7275D1*
X7464D2*
X7541D1*
X7729D2*
X7800D1*
X8093D2*
X8197D1*
X6499Y26639D2*
X6572D1*
X6895D2*
X6972D1*
X7155D2*
X7260D1*
X7472D2*
X7550D1*
X7725D2*
X7796D1*
X8067D2*
X8185D1*
X6497Y26624D2*
X6570D1*
X6900D2*
X6979D1*
X7140D2*
X7245D1*
X7480D2*
X7559D1*
X7722D2*
X7790D1*
X8030D2*
X8171D1*
X6495Y26609D2*
X6566D1*
X6906D2*
X6985D1*
X7125D2*
X7230D1*
X7488D2*
X7569D1*
X7718D2*
X7780D1*
X7984D2*
X8156D1*
X6491Y26594D2*
X6562D1*
X6911D2*
X6990D1*
X7110D2*
X7215D1*
X7495D2*
X7577D1*
X7714D2*
X8139D1*
X6487Y26579D2*
X6559D1*
X6916D2*
X6996D1*
X7095D2*
X7200D1*
X7503D2*
X7585D1*
X7711D2*
X8118D1*
X6484Y26564D2*
X6558D1*
X6921D2*
X7003D1*
X7080D2*
X7185D1*
X7511D2*
X7592D1*
X7710D2*
X8091D1*
X6483Y26549D2*
X6557D1*
X6926D2*
X7011D1*
X7065D2*
X7170D1*
X7520D2*
X7598D1*
X7709D2*
X8058D1*
X6482Y26534D2*
X6557D1*
X6931D2*
X7020D1*
X7050D2*
X7155D1*
X7529D2*
X7604D1*
X7709D2*
X8023D1*
X11966Y27162D2*
X12011D1*
X11911Y27147D2*
X12061D1*
X12430D2*
X12505D1*
X12834D2*
X12908D1*
X13058D2*
X13342D1*
X11866Y27132D2*
X12101D1*
X12423D2*
X12507D1*
X12831D2*
X12902D1*
X13058D2*
X13376D1*
X11832Y27118D2*
X12131D1*
X12418D2*
X12511D1*
X12828D2*
X12897D1*
X13056D2*
X13404D1*
X11807Y27103D2*
X12154D1*
X12414D2*
X12517D1*
X12824D2*
X12895D1*
X13052D2*
X13426D1*
X11786Y27088D2*
X12170D1*
X12409D2*
X12524D1*
X12821D2*
X12892D1*
X13048D2*
X13442D1*
X11769Y27073D2*
X11911D1*
X12068D2*
X12183D1*
X12405D2*
X12531D1*
X12817D2*
X12888D1*
X13045D2*
X13117D1*
X13321D2*
X13454D1*
X11754Y27058D2*
X11877D1*
X12091D2*
X12193D1*
X12402D2*
X12538D1*
X12813D2*
X12884D1*
X13044D2*
X13115D1*
X13354D2*
X13464D1*
X11741Y27043D2*
X11849D1*
X12109D2*
X12201D1*
X12400D2*
X12546D1*
X12809D2*
X12881D1*
X13041D2*
X13112D1*
X13378D2*
X13473D1*
X11729Y27028D2*
X11825D1*
X12122D2*
X12208D1*
X12398D2*
X12460D1*
X12492D2*
X12553D1*
X12806D2*
X12879D1*
X13037D2*
X13108D1*
X13396D2*
X13480D1*
X11718Y27013D2*
X11808D1*
X12132D2*
X12213D1*
X12394D2*
X12460D1*
X12496D2*
X12559D1*
X12804D2*
X12876D1*
X13033D2*
X13105D1*
X13407D2*
X13486D1*
X11709Y26998D2*
X11794D1*
X12141D2*
X12216D1*
X12390D2*
X12459D1*
X12500D2*
X12564D1*
X12802D2*
X12873D1*
X13030D2*
X13103D1*
X13415D2*
X13491D1*
X11701Y26983D2*
X11783D1*
X12151D2*
X12211D1*
X12387D2*
X12457D1*
X12505D2*
X12570D1*
X12798D2*
X12869D1*
X13027D2*
X13101D1*
X13421D2*
X13497D1*
X11693Y26968D2*
X11772D1*
X12160D2*
X12205D1*
X12385D2*
X12454D1*
X12510D2*
X12576D1*
X12794D2*
X12866D1*
X13022D2*
X13097D1*
X13426D2*
X13501D1*
X11686Y26953D2*
X11762D1*
X12383D2*
X12450D1*
X12517D2*
X12583D1*
X12791D2*
X12864D1*
X13018D2*
X13093D1*
X13429D2*
X13504D1*
X11679Y26938D2*
X11754D1*
X12379D2*
X12447D1*
X12524D2*
X12591D1*
X12789D2*
X12862D1*
X13016D2*
X13090D1*
X13431D2*
X13506D1*
X11672Y26923D2*
X11748D1*
X12375D2*
X12445D1*
X12531D2*
X12598D1*
X12787D2*
X12858D1*
X13014D2*
X13088D1*
X13432D2*
X13506D1*
X11667Y26908D2*
X11742D1*
X12372D2*
X12443D1*
X12538D2*
X12606D1*
X12783D2*
X12854D1*
X13011D2*
X13086D1*
X13432D2*
X13507D1*
X11662Y26893D2*
X11737D1*
X12368D2*
X12439D1*
X12544D2*
X12613D1*
X12779D2*
X12850D1*
X13007D2*
X13082D1*
X13432D2*
X13507D1*
X11657Y26878D2*
X11732D1*
X12364D2*
X12435D1*
X12549D2*
X12620D1*
X12776D2*
X12847D1*
X13003D2*
X13078D1*
X13432D2*
X13507D1*
X11654Y26863D2*
X11729D1*
X12360D2*
X12432D1*
X12555D2*
X12627D1*
X12774D2*
X12843D1*
X13001D2*
X13075D1*
X13432D2*
X13507D1*
X11653Y26848D2*
X11728D1*
X11936D2*
X12205D1*
X12357D2*
X12430D1*
X12561D2*
X12633D1*
X12772D2*
X12839D1*
X12999D2*
X13072D1*
X13432D2*
X13506D1*
X11652Y26833D2*
X11727D1*
X11934D2*
X12198D1*
X12355D2*
X12428D1*
X12568D2*
X12639D1*
X12768D2*
X12836D1*
X12996D2*
X13067D1*
X13430D2*
X13504D1*
X11652Y26818D2*
X11727D1*
X11930D2*
X12194D1*
X12353D2*
X12424D1*
X12576D2*
X12645D1*
X12764D2*
X12834D1*
X12992D2*
X13063D1*
X13426D2*
X13501D1*
X11652Y26803D2*
X11727D1*
X11925D2*
X12191D1*
X12349D2*
X12420D1*
X12583D2*
X12651D1*
X12761D2*
X12832D1*
X12988D2*
X13061D1*
X13422D2*
X13497D1*
X11652Y26788D2*
X11727D1*
X11921D2*
X12188D1*
X12345D2*
X12417D1*
X12589D2*
X12658D1*
X12759D2*
X12828D1*
X12986D2*
X13059D1*
X13417D2*
X13494D1*
X11652Y26773D2*
X11727D1*
X12113D2*
X12185D1*
X12342D2*
X12415D1*
X12594D2*
X12664D1*
X12757D2*
X12824D1*
X12984D2*
X13056D1*
X13412D2*
X13490D1*
X11652Y26758D2*
X11727D1*
X12110D2*
X12181D1*
X12340D2*
X12413D1*
X12600D2*
X12669D1*
X12753D2*
X12821D1*
X12981D2*
X13052D1*
X13405D2*
X13486D1*
X11652Y26744D2*
X11727D1*
X12106D2*
X12178D1*
X12338D2*
X12409D1*
X12606D2*
X12674D1*
X12749D2*
X12819D1*
X12977D2*
X13048D1*
X13398D2*
X13480D1*
X11652Y26729D2*
X11727D1*
X12103D2*
X12176D1*
X12334D2*
X12405D1*
X12613D2*
X12679D1*
X12746D2*
X12817D1*
X12973D2*
X13046D1*
X13390D2*
X13473D1*
X11654Y26714D2*
X11729D1*
X12101D2*
X12173D1*
X12330D2*
X12402D1*
X12621D2*
X12684D1*
X12744D2*
X12813D1*
X12971D2*
X13044D1*
X13381D2*
X13465D1*
X11658Y26699D2*
X11733D1*
X12098D2*
X12169D1*
X12327D2*
X12398D1*
X12627D2*
X12689D1*
X12742D2*
X12809D1*
X12969D2*
X13041D1*
X13369D2*
X13456D1*
X11662Y26684D2*
X11740D1*
X12094D2*
X12166D1*
X12325D2*
X12394D1*
X12633D2*
X12694D1*
X12737D2*
X12806D1*
X12966D2*
X13037D1*
X13356D2*
X13447D1*
X11667Y26669D2*
X11748D1*
X12087D2*
X12163D1*
X12323D2*
X12390D1*
X12639D2*
X12699D1*
X12731D2*
X12804D1*
X12962D2*
X13033D1*
X13341D2*
X13437D1*
X11672Y26654D2*
X11761D1*
X12078D2*
X12161D1*
X12319D2*
X12387D1*
X12645D2*
X12706D1*
X12723D2*
X12802D1*
X12958D2*
X13030D1*
X13323D2*
X13427D1*
X11679Y26639D2*
X11777D1*
X12049D2*
X12158D1*
X12315D2*
X12385D1*
X12651D2*
X12798D1*
X12955D2*
X13026D1*
X13297D2*
X13415D1*
X11688Y26624D2*
X11827D1*
X11994D2*
X12153D1*
X12312D2*
X12383D1*
X12658D2*
X12794D1*
X12952D2*
X13019D1*
X13260D2*
X13401D1*
X11700Y26609D2*
X11909D1*
X11902D2*
X12144D1*
X12309D2*
X12379D1*
X12665D2*
X12791D1*
X12948D2*
X13010D1*
X13214D2*
X13386D1*
X11714Y26594D2*
X12129D1*
X12304D2*
X12375D1*
X12672D2*
X12787D1*
X12944D2*
X13369D1*
X11730Y26579D2*
X12108D1*
X12300D2*
X12372D1*
X12678D2*
X12783D1*
X12941D2*
X13347D1*
X11753Y26564D2*
X12078D1*
X12298D2*
X12371D1*
X12684D2*
X12779D1*
X12939D2*
X13320D1*
X11784Y26549D2*
X12040D1*
X12296D2*
X12370D1*
X12691D2*
X12776D1*
X12939D2*
X13288D1*
X11827Y26534D2*
X11991D1*
X12295D2*
X12370D1*
X12699D2*
X12774D1*
X12938D2*
X13253D1*
X11876Y26519D2*
X11936D1*
X11061Y28162D2*
X11106D1*
X12886D2*
X12931D1*
X11011Y28147D2*
X11156D1*
X11495D2*
X11779D1*
X12078D2*
X12153D1*
X12497D2*
X12572D1*
X12836D2*
X12984D1*
X13395D2*
X13500D1*
X10971Y28132D2*
X11196D1*
X11494D2*
X11808D1*
X12078D2*
X12153D1*
X12490D2*
X12565D1*
X12796D2*
X13025D1*
X13368D2*
X13528D1*
X10940Y28118D2*
X11227D1*
X11492D2*
X11831D1*
X12078D2*
X12151D1*
X12486D2*
X12560D1*
X12766D2*
X13054D1*
X13344D2*
X13552D1*
X10917Y28103D2*
X11249D1*
X11489D2*
X11850D1*
X12076D2*
X12147D1*
X12483D2*
X12556D1*
X12745D2*
X13075D1*
X13324D2*
X13571D1*
X10899Y28088D2*
X11266D1*
X11485D2*
X11865D1*
X12072D2*
X12143D1*
X12480D2*
X12552D1*
X12731D2*
X13091D1*
X13307D2*
X13411D1*
X13482D2*
X13586D1*
X10882Y28073D2*
X11004D1*
X11163D2*
X11278D1*
X11482D2*
X11554D1*
X11774D2*
X11875D1*
X12068D2*
X12141D1*
X12476D2*
X12547D1*
X12720D2*
X12829D1*
X12988D2*
X13103D1*
X13293D2*
X13386D1*
X13505D2*
X13597D1*
X10867Y28058D2*
X10980D1*
X11186D2*
X11288D1*
X11480D2*
X11552D1*
X11793D2*
X11882D1*
X12066D2*
X12139D1*
X12472D2*
X12545D1*
X12711D2*
X12806D1*
X13012D2*
X13113D1*
X13282D2*
X13366D1*
X13522D2*
X13606D1*
X10852Y28043D2*
X10960D1*
X11204D2*
X11296D1*
X11478D2*
X11549D1*
X11807D2*
X11888D1*
X12064D2*
X12136D1*
X12470D2*
X12543D1*
X12704D2*
X12789D1*
X13031D2*
X13121D1*
X13273D2*
X13352D1*
X13534D2*
X13612D1*
X10839Y28028D2*
X10943D1*
X11217D2*
X11303D1*
X11474D2*
X11545D1*
X11817D2*
X11893D1*
X12061D2*
X12132D1*
X12468D2*
X12540D1*
X12698D2*
X12775D1*
X13046D2*
X13128D1*
X13267D2*
X13341D1*
X13543D2*
X13616D1*
X10828Y28013D2*
X10927D1*
X11227D2*
X11309D1*
X11470D2*
X11542D1*
X11821D2*
X11896D1*
X12057D2*
X12128D1*
X12465D2*
X12536D1*
X12695D2*
X12771D1*
X13058D2*
X13133D1*
X13263D2*
X13330D1*
X13551D2*
X13618D1*
X10819Y27998D2*
X10912D1*
X11237D2*
X11312D1*
X11467D2*
X11540D1*
X11823D2*
X11895D1*
X12054D2*
X12126D1*
X12461D2*
X12532D1*
X12694D2*
X12769D1*
X13062D2*
X13136D1*
X13260D2*
X13320D1*
X13559D2*
X13619D1*
X10811Y27983D2*
X10899D1*
X11246D2*
X11314D1*
X11464D2*
X11538D1*
X11823D2*
X11892D1*
X12051D2*
X12124D1*
X12457D2*
X12530D1*
X12695D2*
X12769D1*
X13064D2*
X13118D1*
X13552D2*
X13619D1*
X10804Y27968D2*
X10888D1*
X11256D2*
X11315D1*
X11459D2*
X11534D1*
X11821D2*
X11888D1*
X12049D2*
X12121D1*
X12454D2*
X12528D1*
X12699D2*
X12776D1*
X13066D2*
X13096D1*
X13546D2*
X13617D1*
X10797Y27953D2*
X10879D1*
X11455D2*
X11530D1*
X11816D2*
X11884D1*
X12046D2*
X12117D1*
X12451D2*
X12525D1*
X12704D2*
X12786D1*
X13539D2*
X13613D1*
X10792Y27938D2*
X10871D1*
X11452D2*
X11527D1*
X11804D2*
X11878D1*
X12043D2*
X12113D1*
X12447D2*
X12521D1*
X12711D2*
X12802D1*
X13529D2*
X13606D1*
X10787Y27923D2*
X10864D1*
X11450D2*
X11523D1*
X11786D2*
X11871D1*
X12039D2*
X12111D1*
X12443D2*
X12517D1*
X12719D2*
X12824D1*
X13515D2*
X13598D1*
X10782Y27908D2*
X10858D1*
X11448D2*
X11516D1*
X11760D2*
X11860D1*
X12035D2*
X12109D1*
X12440D2*
X12515D1*
X12731D2*
X12852D1*
X13487D2*
X13586D1*
X10779Y27893D2*
X10854D1*
X11444D2*
X11506D1*
X11727D2*
X11845D1*
X12032D2*
X12106D1*
X12438D2*
X12513D1*
X12746D2*
X12883D1*
X13454D2*
X13571D1*
X10777Y27878D2*
X10850D1*
X11440D2*
X11828D1*
X12028D2*
X12102D1*
X12435D2*
X12510D1*
X12766D2*
X12914D1*
X13425D2*
X13557D1*
X10775Y27863D2*
X10846D1*
X11437D2*
X11811D1*
X12024D2*
X12098D1*
X12431D2*
X12506D1*
X12789D2*
X12945D1*
X13404D2*
X13544D1*
X10771Y27848D2*
X10842D1*
X11436D2*
X11794D1*
X12021D2*
X12095D1*
X12427D2*
X12502D1*
X12815D2*
X12975D1*
X13390D2*
X13539D1*
X10767Y27833D2*
X10839D1*
X11433D2*
X11816D1*
X12019D2*
X12092D1*
X12424D2*
X12499D1*
X12845D2*
X13003D1*
X13380D2*
X13549D1*
X10764Y27818D2*
X10838D1*
X11429D2*
X11835D1*
X12016D2*
X12088D1*
X12421D2*
X12496D1*
X12878D2*
X13027D1*
X13425D2*
X13559D1*
X10763Y27803D2*
X10837D1*
X11425D2*
X11495D1*
X11728D2*
X11849D1*
X12013D2*
X12084D1*
X12417D2*
X12492D1*
X12911D2*
X13046D1*
X13460D2*
X13567D1*
X10762Y27788D2*
X10837D1*
X11422D2*
X11494D1*
X11758D2*
X11860D1*
X12009D2*
X12081D1*
X12413D2*
X12487D1*
X12941D2*
X13061D1*
X13486D2*
X13573D1*
X10763Y27773D2*
X10837D1*
X11421D2*
X11492D1*
X11779D2*
X11867D1*
X12006D2*
X12079D1*
X12409D2*
X12484D1*
X12966D2*
X13071D1*
X13498D2*
X13579D1*
X10764Y27758D2*
X10837D1*
X11418D2*
X11489D1*
X11793D2*
X11873D1*
X12005D2*
X12078D1*
X12406D2*
X12481D1*
X12986D2*
X13079D1*
X13506D2*
X13584D1*
X10768Y27744D2*
X10839D1*
X11211D2*
X11270D1*
X11414D2*
X11485D1*
X11802D2*
X11878D1*
X12004D2*
X12076D1*
X12402D2*
X12477D1*
X13001D2*
X13085D1*
X13511D2*
X13587D1*
X10772Y27729D2*
X10843D1*
X11205D2*
X11277D1*
X11410D2*
X11482D1*
X11805D2*
X11881D1*
X12004D2*
X12073D1*
X12397D2*
X12472D1*
X12617D2*
X12692D1*
X13013D2*
X13090D1*
X13513D2*
X13588D1*
X10774Y27714D2*
X10847D1*
X11199D2*
X11275D1*
X11407D2*
X11480D1*
X11805D2*
X11880D1*
X12004D2*
X12071D1*
X12392D2*
X12467D1*
X12617D2*
X12692D1*
X13016D2*
X13093D1*
X13514D2*
X13588D1*
X10776Y27699D2*
X10852D1*
X11192D2*
X11271D1*
X11404D2*
X11478D1*
X11802D2*
X11877D1*
X12004D2*
X12072D1*
X12385D2*
X12462D1*
X12618D2*
X12692D1*
X13018D2*
X13094D1*
X13200D2*
X13245D1*
X13514D2*
X13587D1*
X10779Y27684D2*
X10860D1*
X11184D2*
X11264D1*
X11399D2*
X11474D1*
X11796D2*
X11873D1*
X12004D2*
X12075D1*
X12376D2*
X12455D1*
X12619D2*
X12695D1*
X13014D2*
X13093D1*
X13194D2*
X13253D1*
X13512D2*
X13583D1*
X10783Y27669D2*
X10870D1*
X11174D2*
X11255D1*
X11395D2*
X11470D1*
X11787D2*
X11869D1*
X12004D2*
X12080D1*
X12366D2*
X12448D1*
X12623D2*
X12701D1*
X13008D2*
X13089D1*
X13195D2*
X13259D1*
X13508D2*
X13579D1*
X10790Y27654D2*
X10884D1*
X11159D2*
X11245D1*
X11393D2*
X11467D1*
X11775D2*
X11863D1*
X12006D2*
X12086D1*
X12353D2*
X12440D1*
X12627D2*
X12712D1*
X13000D2*
X13083D1*
X13197D2*
X13265D1*
X13501D2*
X13574D1*
X10798Y27639D2*
X10901D1*
X11135D2*
X11235D1*
X11391D2*
X11463D1*
X11757D2*
X11856D1*
X12010D2*
X12100D1*
X12336D2*
X12432D1*
X12633D2*
X12727D1*
X12984D2*
X13076D1*
X13201D2*
X13273D1*
X13492D2*
X13566D1*
X10807Y27624D2*
X10946D1*
X11090D2*
X11223D1*
X11388D2*
X11456D1*
X11730D2*
X11847D1*
X12017D2*
X12144D1*
X12287D2*
X12422D1*
X12640D2*
X12777D1*
X12935D2*
X13069D1*
X13206D2*
X13283D1*
X13478D2*
X13556D1*
X10817Y27609D2*
X11017D1*
X11209D1*
X11384D2*
X11446D1*
X11697D2*
X11836D1*
X12025D2*
X12215D1*
X12214D2*
X12412D1*
X12651D2*
X12859D1*
X12854D2*
X13059D1*
X13213D2*
X13316D1*
X13437D2*
X13545D1*
X10830Y27594D2*
X11193D1*
X11380D2*
X11822D1*
X12037D2*
X12399D1*
X12663D2*
X13047D1*
X13223D2*
X13370D1*
X13371D2*
X13532D1*
X10846Y27579D2*
X11173D1*
X11378D2*
X11805D1*
X12053D2*
X12382D1*
X12679D2*
X13031D1*
X13237D2*
X13517D1*
X10868Y27564D2*
X11149D1*
X11376D2*
X11782D1*
X12075D2*
X12360D1*
X12699D2*
X13009D1*
X13257D2*
X13498D1*
X10897Y27549D2*
X11117D1*
X11376D2*
X11752D1*
X12106D2*
X12328D1*
X12731D2*
X12978D1*
X13286D2*
X13471D1*
X10939Y27534D2*
X11076D1*
X11375D2*
X11719D1*
X12149D2*
X12288D1*
X12775D2*
X12935D1*
X13323D2*
X13435D1*
X10986Y27519D2*
X11031D1*
X12198D2*
X12243D1*
X12826D2*
X12886D1*
X13365D2*
X13395D1*
X11061Y29162D2*
X11106D1*
X12886D2*
X12931D1*
X11011Y29147D2*
X11156D1*
X11495D2*
X11779D1*
X12078D2*
X12153D1*
X12497D2*
X12572D1*
X12836D2*
X12984D1*
X13395D2*
X13500D1*
X10971Y29132D2*
X11196D1*
X11494D2*
X11808D1*
X12078D2*
X12153D1*
X12490D2*
X12565D1*
X12796D2*
X13025D1*
X13364D2*
X13528D1*
X10940Y29118D2*
X11227D1*
X11492D2*
X11831D1*
X12078D2*
X12151D1*
X12486D2*
X12560D1*
X12766D2*
X13054D1*
X13337D2*
X13552D1*
X10917Y29103D2*
X11249D1*
X11489D2*
X11850D1*
X12076D2*
X12147D1*
X12483D2*
X12556D1*
X12745D2*
X13075D1*
X13316D2*
X13571D1*
X10899Y29088D2*
X11266D1*
X11485D2*
X11865D1*
X12072D2*
X12143D1*
X12480D2*
X12552D1*
X12731D2*
X13091D1*
X13301D2*
X13411D1*
X13482D2*
X13586D1*
X10882Y29073D2*
X11004D1*
X11163D2*
X11278D1*
X11482D2*
X11554D1*
X11774D2*
X11875D1*
X12068D2*
X12141D1*
X12476D2*
X12547D1*
X12720D2*
X12829D1*
X12988D2*
X13103D1*
X13289D2*
X13386D1*
X13505D2*
X13597D1*
X10867Y29058D2*
X10980D1*
X11186D2*
X11288D1*
X11480D2*
X11552D1*
X11793D2*
X11882D1*
X12066D2*
X12139D1*
X12472D2*
X12545D1*
X12711D2*
X12806D1*
X13012D2*
X13113D1*
X13280D2*
X13366D1*
X13523D2*
X13606D1*
X10852Y29043D2*
X10960D1*
X11204D2*
X11296D1*
X11478D2*
X11549D1*
X11807D2*
X11888D1*
X12064D2*
X12136D1*
X12470D2*
X12543D1*
X12704D2*
X12789D1*
X13031D2*
X13121D1*
X13272D2*
X13352D1*
X13536D2*
X13612D1*
X10839Y29028D2*
X10943D1*
X11217D2*
X11303D1*
X11474D2*
X11545D1*
X11817D2*
X11893D1*
X12061D2*
X12132D1*
X12468D2*
X12540D1*
X12698D2*
X12775D1*
X13046D2*
X13128D1*
X13266D2*
X13341D1*
X13546D2*
X13616D1*
X10828Y29013D2*
X10927D1*
X11227D2*
X11309D1*
X11470D2*
X11542D1*
X11821D2*
X11896D1*
X12057D2*
X12128D1*
X12465D2*
X12536D1*
X12695D2*
X12771D1*
X13058D2*
X13133D1*
X13260D2*
X13333D1*
X13552D2*
X13618D1*
X10819Y28998D2*
X10912D1*
X11237D2*
X11312D1*
X11467D2*
X11540D1*
X11823D2*
X11895D1*
X12054D2*
X12126D1*
X12461D2*
X12532D1*
X12694D2*
X12769D1*
X13062D2*
X13136D1*
X13253D2*
X13326D1*
X13556D2*
X13619D1*
X10811Y28983D2*
X10899D1*
X11246D2*
X11314D1*
X11464D2*
X11538D1*
X11823D2*
X11892D1*
X12051D2*
X12124D1*
X12457D2*
X12530D1*
X12695D2*
X12769D1*
X13064D2*
X13118D1*
X13245D2*
X13320D1*
X13556D2*
X13619D1*
X10804Y28968D2*
X10888D1*
X11256D2*
X11315D1*
X11459D2*
X11534D1*
X11821D2*
X11888D1*
X12049D2*
X12121D1*
X12454D2*
X12528D1*
X12699D2*
X12776D1*
X13066D2*
X13096D1*
X13552D2*
X13619D1*
X10797Y28953D2*
X10879D1*
X11455D2*
X11530D1*
X11816D2*
X11884D1*
X12046D2*
X12117D1*
X12451D2*
X12525D1*
X12704D2*
X12786D1*
X13547D2*
X13617D1*
X10792Y28938D2*
X10871D1*
X11452D2*
X11527D1*
X11804D2*
X11878D1*
X12043D2*
X12113D1*
X12447D2*
X12521D1*
X12711D2*
X12802D1*
X13540D2*
X13613D1*
X10787Y28923D2*
X10864D1*
X11450D2*
X11523D1*
X11786D2*
X11871D1*
X12039D2*
X12111D1*
X12443D2*
X12517D1*
X12719D2*
X12824D1*
X13532D2*
X13607D1*
X10782Y28908D2*
X10858D1*
X11448D2*
X11516D1*
X11760D2*
X11860D1*
X12035D2*
X12109D1*
X12440D2*
X12515D1*
X12731D2*
X12852D1*
X13523D2*
X13600D1*
X10779Y28893D2*
X10854D1*
X11444D2*
X11506D1*
X11727D2*
X11845D1*
X12032D2*
X12106D1*
X12438D2*
X12513D1*
X12746D2*
X12883D1*
X13512D2*
X13592D1*
X10777Y28878D2*
X10850D1*
X11440D2*
X11828D1*
X12028D2*
X12102D1*
X12435D2*
X12510D1*
X12766D2*
X12914D1*
X13498D2*
X13583D1*
X10775Y28863D2*
X10846D1*
X11437D2*
X11811D1*
X12024D2*
X12098D1*
X12431D2*
X12506D1*
X12789D2*
X12945D1*
X13484D2*
X13571D1*
X10771Y28848D2*
X10842D1*
X11436D2*
X11794D1*
X12021D2*
X12095D1*
X12427D2*
X12502D1*
X12815D2*
X12975D1*
X13467D2*
X13558D1*
X10767Y28833D2*
X10839D1*
X11433D2*
X11816D1*
X12019D2*
X12092D1*
X12424D2*
X12499D1*
X12845D2*
X13003D1*
X13449D2*
X13543D1*
X10764Y28818D2*
X10838D1*
X11429D2*
X11835D1*
X12016D2*
X12088D1*
X12421D2*
X12496D1*
X12878D2*
X13027D1*
X13430D2*
X13527D1*
X10763Y28803D2*
X10837D1*
X11425D2*
X11495D1*
X11728D2*
X11849D1*
X12013D2*
X12084D1*
X12417D2*
X12492D1*
X12911D2*
X13046D1*
X13412D2*
X13508D1*
X10762Y28788D2*
X10837D1*
X11422D2*
X11494D1*
X11758D2*
X11860D1*
X12009D2*
X12081D1*
X12413D2*
X12487D1*
X12941D2*
X13061D1*
X13393D2*
X13490D1*
X10763Y28773D2*
X10837D1*
X11421D2*
X11492D1*
X11779D2*
X11867D1*
X12006D2*
X12079D1*
X12409D2*
X12484D1*
X12966D2*
X13071D1*
X13374D2*
X13472D1*
X10764Y28758D2*
X10837D1*
X11418D2*
X11489D1*
X11793D2*
X11873D1*
X12005D2*
X12078D1*
X12406D2*
X12481D1*
X12986D2*
X13079D1*
X13355D2*
X13453D1*
X10768Y28744D2*
X10839D1*
X11211D2*
X11270D1*
X11414D2*
X11485D1*
X11802D2*
X11878D1*
X12004D2*
X12076D1*
X12402D2*
X12477D1*
X13001D2*
X13085D1*
X13338D2*
X13434D1*
X10772Y28729D2*
X10843D1*
X11205D2*
X11277D1*
X11410D2*
X11482D1*
X11805D2*
X11881D1*
X12004D2*
X12073D1*
X12397D2*
X12472D1*
X12617D2*
X12692D1*
X13013D2*
X13090D1*
X13321D2*
X13415D1*
X10774Y28714D2*
X10847D1*
X11199D2*
X11275D1*
X11407D2*
X11480D1*
X11805D2*
X11880D1*
X12004D2*
X12071D1*
X12392D2*
X12467D1*
X12617D2*
X12692D1*
X13016D2*
X13093D1*
X13306D2*
X13397D1*
X10776Y28699D2*
X10852D1*
X11192D2*
X11271D1*
X11404D2*
X11478D1*
X11802D2*
X11877D1*
X12004D2*
X12072D1*
X12385D2*
X12462D1*
X12618D2*
X12692D1*
X13018D2*
X13094D1*
X13290D2*
X13381D1*
X10779Y28684D2*
X10860D1*
X11184D2*
X11264D1*
X11399D2*
X11474D1*
X11796D2*
X11873D1*
X12004D2*
X12075D1*
X12376D2*
X12455D1*
X12619D2*
X12695D1*
X13014D2*
X13093D1*
X13275D2*
X13365D1*
X10783Y28669D2*
X10870D1*
X11174D2*
X11255D1*
X11395D2*
X11470D1*
X11787D2*
X11869D1*
X12004D2*
X12080D1*
X12366D2*
X12448D1*
X12623D2*
X12701D1*
X13008D2*
X13089D1*
X13261D2*
X13350D1*
X10790Y28654D2*
X10884D1*
X11159D2*
X11245D1*
X11393D2*
X11467D1*
X11775D2*
X11863D1*
X12006D2*
X12086D1*
X12353D2*
X12440D1*
X12627D2*
X12712D1*
X13000D2*
X13083D1*
X13248D2*
X13335D1*
X10798Y28639D2*
X10901D1*
X11135D2*
X11235D1*
X11391D2*
X11463D1*
X11757D2*
X11856D1*
X12010D2*
X12100D1*
X12336D2*
X12432D1*
X12633D2*
X12727D1*
X12984D2*
X13076D1*
X13237D2*
X13320D1*
X10807Y28624D2*
X10946D1*
X11090D2*
X11223D1*
X11388D2*
X11456D1*
X11730D2*
X11847D1*
X12017D2*
X12144D1*
X12287D2*
X12422D1*
X12640D2*
X12777D1*
X12935D2*
X13069D1*
X13228D2*
X13305D1*
X10817Y28609D2*
X11017D1*
X11209D1*
X11384D2*
X11446D1*
X11697D2*
X11836D1*
X12025D2*
X12215D1*
X12214D2*
X12412D1*
X12651D2*
X12859D1*
X12854D2*
X13059D1*
X13220D2*
X13290D1*
X10830Y28594D2*
X11193D1*
X11380D2*
X11822D1*
X12037D2*
X12399D1*
X12663D2*
X13047D1*
X13212D2*
X13574D1*
X10846Y28579D2*
X11173D1*
X11378D2*
X11805D1*
X12053D2*
X12382D1*
X12679D2*
X13031D1*
X13206D2*
X13568D1*
X10868Y28564D2*
X11149D1*
X11376D2*
X11782D1*
X12075D2*
X12360D1*
X12699D2*
X13009D1*
X13200D2*
X13563D1*
X10897Y28549D2*
X11117D1*
X11376D2*
X11752D1*
X12106D2*
X12328D1*
X12731D2*
X12978D1*
X13193D2*
X13561D1*
X10939Y28534D2*
X11076D1*
X11375D2*
X11719D1*
X12149D2*
X12288D1*
X12775D2*
X12935D1*
X13185D2*
X13559D1*
X10986Y28519D2*
X11031D1*
X12198D2*
X12243D1*
X12826D2*
X12886D1*
X11602Y30272D2*
X11946D1*
X12125D2*
X12200D1*
X12499D2*
X12574D1*
X12873D2*
X12933D1*
X13023D2*
X13382D1*
X11601Y30257D2*
X11967D1*
X12126D2*
X12200D1*
X12490D2*
X12575D1*
X12861D2*
X12927D1*
X13023D2*
X13411D1*
X11599Y30243D2*
X11986D1*
X12128D2*
X12200D1*
X12481D2*
X12577D1*
X12850D2*
X12921D1*
X13022D2*
X13434D1*
X11596Y30228D2*
X12001D1*
X12131D2*
X12201D1*
X12473D2*
X12580D1*
X12841D2*
X12914D1*
X13020D2*
X13451D1*
X11592Y30213D2*
X11661D1*
X11912D2*
X12013D1*
X12135D2*
X12202D1*
X12466D2*
X12584D1*
X12833D2*
X12907D1*
X13017D2*
X13083D1*
X13363D2*
X13464D1*
X11588Y30198D2*
X11659D1*
X11933D2*
X12022D1*
X12138D2*
X12206D1*
X12458D2*
X12587D1*
X12825D2*
X12899D1*
X13013D2*
X13082D1*
X13385D2*
X13473D1*
X11585Y30183D2*
X11655D1*
X11950D2*
X12029D1*
X12139D2*
X12210D1*
X12451D2*
X12588D1*
X12817D2*
X12892D1*
X13010D2*
X13080D1*
X13401D2*
X13480D1*
X11581Y30168D2*
X11652D1*
X11955D2*
X12032D1*
X12140D2*
X12213D1*
X12443D2*
X12589D1*
X12810D2*
X12884D1*
X13006D2*
X13077D1*
X13409D2*
X13483D1*
X11577Y30153D2*
X11649D1*
X11958D2*
X12034D1*
X12140D2*
X12214D1*
X12436D2*
X12589D1*
X12802D2*
X12877D1*
X13002D2*
X13073D1*
X13415D2*
X13485D1*
X11574Y30138D2*
X11647D1*
X11960D2*
X12035D1*
X12140D2*
X12215D1*
X12428D2*
X12589D1*
X12795D2*
X12869D1*
X12998D2*
X13070D1*
X13420D2*
X13486D1*
X11572Y30123D2*
X11644D1*
X11960D2*
X12035D1*
X12140D2*
X12215D1*
X12421D2*
X12589D1*
X12787D2*
X12862D1*
X12995D2*
X13068D1*
X13418D2*
X13486D1*
X11570Y30108D2*
X11641D1*
X11960D2*
X12035D1*
X12140D2*
X12215D1*
X12413D2*
X12482D1*
X12514D2*
X12589D1*
X12780D2*
X12855D1*
X12993D2*
X13066D1*
X13415D2*
X13486D1*
X11566Y30093D2*
X11637D1*
X11958D2*
X12035D1*
X12140D2*
X12215D1*
X12406D2*
X12478D1*
X12515D2*
X12589D1*
X12772D2*
X12847D1*
X12991D2*
X13062D1*
X13411D2*
X13484D1*
X11562Y30078D2*
X11634D1*
X11954D2*
X12033D1*
X12140D2*
X12215D1*
X12398D2*
X12472D1*
X12517D2*
X12589D1*
X12765D2*
X12840D1*
X12987D2*
X13058D1*
X13403D2*
X13480D1*
X11559Y30063D2*
X11632D1*
X11948D2*
X12029D1*
X12140D2*
X12215D1*
X12389D2*
X12465D1*
X12520D2*
X12589D1*
X12757D2*
X12832D1*
X12983D2*
X13055D1*
X13393D2*
X13474D1*
X11557Y30048D2*
X11629D1*
X11938D2*
X12023D1*
X12140D2*
X12215D1*
X12379D2*
X12458D1*
X12524D2*
X12589D1*
X12750D2*
X12825D1*
X12980D2*
X13053D1*
X13379D2*
X13467D1*
X11555Y30033D2*
X11626D1*
X11924D2*
X12016D1*
X12140D2*
X12215D1*
X12370D2*
X12450D1*
X12527D2*
X12589D1*
X12742D2*
X12817D1*
X12978D2*
X13050D1*
X13360D2*
X13460D1*
X11551Y30018D2*
X11622D1*
X11902D2*
X12008D1*
X12141D2*
X12215D1*
X12362D2*
X12443D1*
X12528D2*
X12589D1*
X12735D2*
X12810D1*
X12976D2*
X13044D1*
X13333D2*
X13450D1*
X11547Y30003D2*
X11619D1*
X11872D2*
X11999D1*
X12143D2*
X12215D1*
X12354D2*
X12434D1*
X12529D2*
X12589D1*
X12727D2*
X12802D1*
X12972D2*
X13034D1*
X13299D2*
X13436D1*
X11544Y29988D2*
X11618D1*
X11835D2*
X11988D1*
X12146D2*
X12215D1*
X12346D2*
X12424D1*
X12529D2*
X12590D1*
X12720D2*
X12795D1*
X12968D2*
X13415D1*
X11542Y29973D2*
X11974D1*
X12150D2*
X12215D1*
X12338D2*
X12415D1*
X12529D2*
X12591D1*
X12712D2*
X12787D1*
X12965D2*
X13388D1*
X11540Y29958D2*
X11956D1*
X12153D2*
X12215D1*
X12331D2*
X12406D1*
X12529D2*
X12595D1*
X12705D2*
X12780D1*
X12963D2*
X13356D1*
X11536Y29943D2*
X11930D1*
X12154D2*
X12215D1*
X12323D2*
X12399D1*
X12529D2*
X12599D1*
X12697D2*
X12772D1*
X12961D2*
X13323D1*
X11532Y29928D2*
X11896D1*
X12155D2*
X12215D1*
X12316D2*
X12391D1*
X12529D2*
X12601D1*
X12690D2*
X12765D1*
X12957D2*
X13023D1*
X13199D2*
X13292D1*
X11529Y29913D2*
X11856D1*
X12155D2*
X12215D1*
X12308D2*
X12383D1*
X12529D2*
X12603D1*
X12682D2*
X12757D1*
X12953D2*
X13023D1*
X13223D2*
X13307D1*
X11525Y29898D2*
X11599D1*
X12155D2*
X12215D1*
X12301D2*
X12376D1*
X12529D2*
X12604D1*
X12675D2*
X12750D1*
X12950D2*
X13022D1*
X13241D2*
X13320D1*
X11521Y29883D2*
X11596D1*
X12155D2*
X12216D1*
X12293D2*
X12368D1*
X12529D2*
X12604D1*
X12668D2*
X12742D1*
X12947D2*
X13020D1*
X13254D2*
X13330D1*
X11517Y29869D2*
X11592D1*
X12155D2*
X12217D1*
X12286D2*
X12361D1*
X12529D2*
X12604D1*
X12661D2*
X12735D1*
X12942D2*
X13017D1*
X13264D2*
X13340D1*
X11514Y29854D2*
X11588D1*
X12155D2*
X12221D1*
X12279D2*
X12353D1*
X12529D2*
X12604D1*
X12655D2*
X12727D1*
X12938D2*
X13013D1*
X13273D2*
X13348D1*
X11512Y29839D2*
X11585D1*
X12155D2*
X12225D1*
X12271D2*
X12346D1*
X12529D2*
X12604D1*
X12649D2*
X12720D1*
X12936D2*
X13010D1*
X13281D2*
X13357D1*
X11510Y29824D2*
X11581D1*
X12155D2*
X12230D1*
X12263D2*
X12338D1*
X12530D2*
X12605D1*
X12643D2*
X12712D1*
X12934D2*
X13006D1*
X13288D2*
X13367D1*
X11506Y29809D2*
X11577D1*
X12155D2*
X12237D1*
X12254D2*
X12329D1*
X12532D2*
X12607D1*
X12636D2*
X12705D1*
X12931D2*
X13002D1*
X13296D2*
X13374D1*
X11502Y29794D2*
X11574D1*
X12155D2*
X12319D1*
X12535D2*
X12612D1*
X12628D2*
X12697D1*
X12927D2*
X12998D1*
X13303D2*
X13381D1*
X11499Y29779D2*
X11572D1*
X12156D2*
X12310D1*
X12539D2*
X12690D1*
X12923D2*
X12995D1*
X13310D2*
X13387D1*
X11497Y29764D2*
X11570D1*
X12158D2*
X12302D1*
X12542D2*
X12682D1*
X12921D2*
X12993D1*
X13316D2*
X13394D1*
X11495Y29749D2*
X11566D1*
X12161D2*
X12294D1*
X12543D2*
X12675D1*
X12919D2*
X12991D1*
X13322D2*
X13400D1*
X11491Y29734D2*
X11562D1*
X12165D2*
X12286D1*
X12544D2*
X12668D1*
X12916D2*
X12987D1*
X13327D2*
X13406D1*
X11487Y29719D2*
X11559D1*
X12168D2*
X12279D1*
X12544D2*
X12660D1*
X12912D2*
X12983D1*
X13332D2*
X13411D1*
X11484Y29704D2*
X11557D1*
X12169D2*
X12271D1*
X12544D2*
X12653D1*
X12908D2*
X12980D1*
X13337D2*
X13417D1*
X11483Y29689D2*
X11554D1*
X12170D2*
X12263D1*
X12544D2*
X12646D1*
X12906D2*
X12979D1*
X13342D2*
X13424D1*
X11482Y29674D2*
X11549D1*
X12170D2*
X12254D1*
X12544D2*
X12639D1*
X12904D2*
X12978D1*
X13347D2*
X13432D1*
X11482Y29659D2*
X11542D1*
X12170D2*
X12245D1*
X12544D2*
X12634D1*
X12903D2*
X12978D1*
X13352D2*
X13442D1*
X30076Y34308D2*
X30075Y34278D1*
X30071Y34248D1*
X30064Y34218D1*
X30056Y34188D1*
X30051Y34158D1*
X30047Y34128D1*
X30042Y34098D1*
X30035Y34068D1*
X30027Y34038D1*
X30021Y34009D1*
X30017Y33979D1*
X30012Y33949D1*
X30005Y33919D1*
X29997Y33889D1*
X29991Y33859D1*
X29987Y33829D1*
X29982Y33799D1*
X29975Y33769D1*
X29967Y33739D1*
X29961Y33709D1*
X29958Y33679D1*
X29952Y33649D1*
X29945Y33620D1*
X29937Y33590D1*
X29930Y33560D1*
X29924Y33530D1*
X29915Y33500D1*
X29907Y33470D1*
X29902Y33440D1*
X29898Y33410D1*
X29893Y33380D1*
X29885Y33350D1*
X29876Y33320D1*
X29867Y33290D1*
X30675Y34308D2*
X30717Y34278D1*
X30752Y34248D1*
X30778Y34218D1*
X30797Y34188D1*
X30810Y34158D1*
X30818Y34128D1*
X30822Y34098D1*
X30823Y34068D1*
Y34038D1*
X30819Y34009D1*
X30811Y33979D1*
X30798Y33949D1*
X30781Y33919D1*
X30758Y33889D1*
X30729Y33859D1*
X30691Y33829D1*
X30638Y33799D1*
X30570Y33769D1*
X30495Y33739D1*
X30524Y33709D1*
X30550Y33679D1*
X30573Y33649D1*
X30594Y33620D1*
X30614Y33590D1*
X30630Y33560D1*
X30642Y33530D1*
X30655Y33500D1*
X30668Y33470D1*
X30682Y33440D1*
X30693Y33410D1*
X30704Y33380D1*
X30715Y33350D1*
X30725Y33320D1*
X30735Y33290D1*
X32320Y34308D2*
X32310Y34278D1*
X32301Y34248D1*
X32295Y34218D1*
X32291Y34188D1*
X32286Y34158D1*
X32279Y34128D1*
X32271Y34098D1*
X32265Y34068D1*
X32262Y34038D1*
X32256Y34009D1*
X32249Y33979D1*
X32241Y33949D1*
X32235Y33919D1*
X32232Y33889D1*
X32226Y33859D1*
X32219Y33829D1*
X32211Y33799D1*
X32206Y33769D1*
X32202Y33739D1*
X32197Y33709D1*
X32189Y33679D1*
X32181Y33649D1*
X32176Y33620D1*
X32172Y33590D1*
X32167Y33560D1*
X32159Y33530D1*
X32151Y33500D1*
X32146Y33470D1*
X32142Y33440D1*
X32137Y33410D1*
X32129Y33380D1*
X32121Y33350D1*
X32115Y33320D1*
X32111Y33290D1*
X32440Y34308D2*
X32426Y34278D1*
X32418Y34248D1*
X32412Y34218D1*
X32406Y34188D1*
X32398Y34158D1*
X32390Y34128D1*
X32385Y34098D1*
X32381Y34068D1*
X32376Y34038D1*
X32368Y34009D1*
X32361Y33979D1*
X32355Y33949D1*
X32351Y33919D1*
X32346Y33889D1*
X32338Y33859D1*
X32331Y33829D1*
X32325Y33799D1*
X32321Y33769D1*
X32316Y33739D1*
X32309Y33709D1*
X32301Y33679D1*
X32295Y33649D1*
X32291Y33620D1*
X32286Y33590D1*
X32279Y33560D1*
X32271Y33530D1*
X32265Y33500D1*
X32263Y33470D1*
X32261Y33440D1*
Y33410D1*
Y33380D1*
Y33350D1*
X35193Y34308D2*
X35192Y34278D1*
X35188Y34248D1*
X35181Y34218D1*
X35173Y34188D1*
X35168Y34158D1*
X35164Y34128D1*
X35159Y34098D1*
X35151Y34068D1*
X35143Y34038D1*
X35137Y34009D1*
X35129Y33979D1*
X35118Y33949D1*
X35103Y33919D1*
X35313Y34308D2*
X35302Y34278D1*
X35293Y34248D1*
X35287Y34218D1*
X35280Y34188D1*
X35271Y34158D1*
X35263Y34128D1*
X35258Y34098D1*
X35254Y34068D1*
X35249Y34038D1*
X35241Y34009D1*
X35233Y33979D1*
X35228Y33949D1*
X35224Y33919D1*
X35219Y33889D1*
X35211Y33859D1*
X35203Y33829D1*
X35198Y33799D1*
X35194Y33769D1*
X35189Y33739D1*
X35181Y33709D1*
X35173Y33679D1*
X35168Y33649D1*
X35164Y33620D1*
X35159Y33590D1*
X35151Y33560D1*
X35143Y33530D1*
X35138Y33500D1*
X35134Y33470D1*
X35129Y33440D1*
X35121Y33410D1*
X35113Y33380D1*
X35108Y33350D1*
X35105Y33320D1*
X35103Y33290D1*
X35941Y34308D2*
X35936Y34278D1*
X35929Y34248D1*
X35921Y34218D1*
X35916Y34188D1*
X35912Y34158D1*
X35907Y34128D1*
X35899Y34098D1*
X35891Y34068D1*
X35886Y34038D1*
X35882Y34009D1*
X35877Y33979D1*
X35869Y33949D1*
X35861Y33919D1*
X35856Y33889D1*
X35852Y33859D1*
X35847Y33829D1*
X35839Y33799D1*
X35831Y33769D1*
X35826Y33739D1*
X35822Y33709D1*
X35817Y33679D1*
X35809Y33649D1*
X35801Y33620D1*
X35795Y33590D1*
X35788Y33560D1*
X35780Y33530D1*
X35772Y33500D1*
X35766Y33470D1*
X35762Y33440D1*
X35757Y33410D1*
X35750Y33380D1*
X35742Y33350D1*
X35736Y33320D1*
X35731Y33290D1*
X36479Y34308D2*
X36523Y34278D1*
X36560Y34248D1*
X36590Y34218D1*
X36611Y34188D1*
X36625Y34158D1*
X36636Y34128D1*
X36645Y34098D1*
X36642Y34068D1*
X36637Y34038D1*
X36632Y34009D1*
X36626Y33979D1*
X36616Y33949D1*
X36603Y33919D1*
X36586Y33889D1*
X36563Y33859D1*
X36535Y33829D1*
X36502Y33799D1*
X36463Y33769D1*
X36420Y33739D1*
X38903Y34308D2*
X38873Y34278D1*
X38843Y34248D1*
X38812Y34218D1*
X38777Y34188D1*
X38735Y34158D1*
X38687Y34128D1*
X38638Y34098D1*
X38596Y34068D1*
X38565Y34038D1*
X38543Y34009D1*
X38527Y33979D1*
X38514Y33949D1*
X38963Y34308D2*
X38958Y34278D1*
X38951Y34248D1*
X38943Y34218D1*
X38938Y34188D1*
X38934Y34158D1*
X38929Y34128D1*
X38921Y34098D1*
X38913Y34068D1*
X38908Y34038D1*
X38904Y34009D1*
X38899Y33979D1*
X38891Y33949D1*
X38883Y33919D1*
X38878Y33889D1*
X38874Y33859D1*
X38869Y33829D1*
X38861Y33799D1*
X38853Y33769D1*
X38848Y33739D1*
X38844Y33709D1*
X38839Y33679D1*
X38831Y33649D1*
X38823Y33620D1*
X38817Y33590D1*
X38810Y33560D1*
X38802Y33530D1*
X38794Y33500D1*
X38788Y33470D1*
X38784Y33440D1*
X38779Y33410D1*
X38772Y33380D1*
X38764Y33350D1*
X38758Y33320D1*
X38753Y33290D1*
X39950Y34308D2*
X39896Y34278D1*
X39850Y34248D1*
X39814Y34218D1*
X39786Y34188D1*
X39763Y34158D1*
X39742Y34128D1*
X39722Y34098D1*
X39706Y34068D1*
X39693Y34038D1*
X39682Y34009D1*
X39671Y33979D1*
X39661Y33949D1*
X39651Y33919D1*
X39641Y33889D1*
X39632Y33859D1*
X39626Y33829D1*
X39622Y33799D1*
X39617Y33769D1*
X39609Y33739D1*
X39601Y33709D1*
X39596Y33679D1*
X39593Y33649D1*
Y33620D1*
X39597Y33590D1*
X39604Y33560D1*
X39611Y33530D1*
X39617Y33500D1*
X39624Y33470D1*
X39634Y33440D1*
X39647Y33410D1*
X39665Y33380D1*
X39690Y33350D1*
X39725Y33320D1*
X39774Y33290D1*
X39831Y33260D1*
X40100Y34308D2*
X40144Y34278D1*
X40181Y34248D1*
X40211Y34218D1*
X40235Y34188D1*
X40253Y34158D1*
X40266Y34128D1*
X40273Y34098D1*
X40277Y34068D1*
X40278Y34038D1*
X40279Y34009D1*
Y33979D1*
Y33949D1*
Y33919D1*
Y33889D1*
Y33859D1*
X40278Y33829D1*
X40274Y33799D1*
X40267Y33769D1*
X40260Y33739D1*
X40253Y33709D1*
X40247Y33679D1*
X40237Y33649D1*
X40225Y33620D1*
X40211Y33590D1*
X40197Y33560D1*
X40182Y33530D1*
X40167Y33500D1*
X40152Y33470D1*
X40136Y33440D1*
X40117Y33410D1*
X40093Y33380D1*
X40060Y33350D1*
X40015Y33320D1*
X39956Y33290D1*
X39890Y33260D1*
X42494Y34308D2*
X42464Y34278D1*
X42434Y34248D1*
X42403Y34218D1*
X42368Y34188D1*
X42326Y34158D1*
X42277Y34128D1*
X42228Y34098D1*
X42187Y34068D1*
X42156Y34038D1*
X42134Y34009D1*
X42118Y33979D1*
X42105Y33949D1*
X42553Y34308D2*
X42549Y34278D1*
X42541Y34248D1*
X42534Y34218D1*
X42528Y34188D1*
X42524Y34158D1*
X42519Y34128D1*
X42512Y34098D1*
X42504Y34068D1*
X42498Y34038D1*
X42495Y34009D1*
X42489Y33979D1*
X42482Y33949D1*
X42474Y33919D1*
X42469Y33889D1*
X42465Y33859D1*
X42460Y33829D1*
X42452Y33799D1*
X42444Y33769D1*
X42439Y33739D1*
X42435Y33709D1*
X42430Y33679D1*
X42422Y33649D1*
X42414Y33620D1*
X42408Y33590D1*
X42401Y33560D1*
X42393Y33530D1*
X42384Y33500D1*
X42379Y33470D1*
X42375Y33440D1*
X42370Y33410D1*
X42362Y33380D1*
X42354Y33350D1*
X42348Y33320D1*
X42344Y33290D1*
X30226Y34248D2*
X30202Y34218D1*
X30184Y34188D1*
X30173Y34158D1*
X30165Y34128D1*
X30155Y34098D1*
X30147Y34068D1*
X30141Y34038D1*
X30137Y34009D1*
X30132Y33979D1*
X30124Y33949D1*
X30116Y33919D1*
X30111Y33889D1*
X30108Y33859D1*
X30106Y33829D1*
X30495Y34248D2*
X30572Y34218D1*
X30632Y34188D1*
X30677Y34158D1*
X30697Y34128D1*
X30715Y34098D1*
X30735Y34068D1*
X30719Y34038D1*
X30706Y34009D1*
X30689Y33979D1*
X30665Y33949D1*
X30629Y33919D1*
X30577Y33889D1*
X30510Y33859D1*
X30435Y33829D1*
X36031Y34248D2*
Y34218D1*
X36029Y34188D1*
X36026Y34158D1*
X36018Y34128D1*
X36011Y34098D1*
X36005Y34068D1*
X36002Y34038D1*
X35997Y34009D1*
X35989Y33979D1*
X35981Y33949D1*
X35976Y33919D1*
X35973Y33889D1*
X35972Y33859D1*
X35971Y33829D1*
X36300Y33799D1*
X36240Y34248D2*
X36342Y34218D1*
X36423Y34188D1*
X36486Y34158D1*
X36517Y34128D1*
X36528Y34098D1*
X36534Y34068D1*
X36532Y34038D1*
X36525Y34009D1*
X36513Y33979D1*
X36496Y33949D1*
X36469Y33919D1*
X36434Y33889D1*
X36321Y33859D1*
X36138Y33829D1*
X35911Y33799D1*
X39980Y34218D2*
X39931Y34188D1*
X39891Y34158D1*
X39860Y34128D1*
X39835Y34098D1*
X39817Y34068D1*
X39804Y34038D1*
X39792Y34009D1*
X39781Y33979D1*
X39771Y33949D1*
X39761Y33919D1*
X39752Y33889D1*
X39745Y33859D1*
X39738Y33829D1*
X39730Y33799D1*
X39721Y33769D1*
X39716Y33739D1*
X39713Y33709D1*
X39712Y33679D1*
X39711Y33649D1*
Y33620D1*
Y33590D1*
Y33560D1*
X39712Y33530D1*
X39716Y33500D1*
X39726Y33470D1*
X39742Y33440D1*
X39794Y33410D1*
X39878Y33380D1*
X39980Y33350D1*
X40100Y34218D2*
X40125Y34188D1*
X40146Y34158D1*
X40164Y34128D1*
X40176Y34098D1*
X40183Y34068D1*
X40187Y34038D1*
X40189Y34009D1*
Y33979D1*
Y33949D1*
X40188Y33919D1*
X40185Y33889D1*
X40178Y33859D1*
X40170Y33829D1*
X40165Y33799D1*
X40161Y33769D1*
X40156Y33739D1*
X40148Y33709D1*
X40139Y33679D1*
X40130Y33649D1*
X40119Y33620D1*
X40106Y33590D1*
X40092Y33560D1*
X40076Y33530D1*
X40058Y33500D1*
X40037Y33470D1*
X40014Y33440D1*
X39959Y33410D1*
X39874Y33380D1*
X39771Y33350D1*
X31273Y34038D2*
X31205Y34009D1*
X31149Y33979D1*
X31105Y33949D1*
X31070Y33919D1*
X31041Y33889D1*
X31018Y33859D1*
X30999Y33829D1*
X30983Y33799D1*
X30968Y33769D1*
X30957Y33739D1*
X30949Y33709D1*
X30942Y33679D1*
X30933Y33649D1*
X30925Y33620D1*
X30920Y33590D1*
X30921Y33560D1*
X30927Y33530D1*
X30935Y33500D1*
X30944Y33470D1*
X30955Y33440D1*
X30969Y33410D1*
X30989Y33380D1*
X31017Y33350D1*
X31061Y33320D1*
X31118Y33290D1*
X31183Y33260D1*
X31333Y34038D2*
X31404Y34009D1*
X31460Y33979D1*
X31502Y33949D1*
X31532Y33919D1*
X31556Y33889D1*
X31566Y33859D1*
X31574Y33829D1*
X31583Y33799D1*
X31592Y33769D1*
X31596Y33739D1*
X31597Y33709D1*
X31586Y33679D1*
X31572Y33649D1*
X33308Y34038D2*
X33225Y34009D1*
X33158Y33979D1*
X33106Y33949D1*
X33067Y33919D1*
X33037Y33889D1*
X33012Y33859D1*
X32991Y33829D1*
X32974Y33799D1*
X32962Y33769D1*
X32954Y33739D1*
X32946Y33709D1*
X32938Y33679D1*
X32929Y33649D1*
X32924Y33620D1*
X32921Y33590D1*
Y33560D1*
X32924Y33530D1*
X32931Y33500D1*
X32940Y33470D1*
X32950Y33440D1*
X32965Y33410D1*
X32988Y33380D1*
X33019Y33350D1*
X33064Y33320D1*
X33122Y33290D1*
X33188Y33260D1*
X33338Y34038D2*
X33409Y34009D1*
X33465Y33979D1*
X33507Y33949D1*
X33538Y33919D1*
X33562Y33889D1*
X33580Y33859D1*
X33593Y33829D1*
X33601Y33799D1*
X33604Y33769D1*
X33606Y33739D1*
X33607Y33709D1*
X33606Y33679D1*
X33602Y33649D1*
X33595Y33620D1*
X33586Y33590D1*
X33577Y33560D1*
X33566Y33530D1*
X33553Y33500D1*
X33539Y33470D1*
X33523Y33440D1*
X33503Y33410D1*
X33476Y33380D1*
X33439Y33350D1*
X33389Y33320D1*
X33323Y33290D1*
X33248Y33260D1*
X34086Y34038D2*
X34010Y34009D1*
X33948Y33979D1*
X33901Y33949D1*
X33868Y33919D1*
X33846Y33889D1*
X33829Y33859D1*
X33816Y33829D1*
X34176Y34038D2*
X34243Y34009D1*
X34298Y33979D1*
X34337Y33949D1*
X34366Y33919D1*
X34376Y33889D1*
X34381Y33859D1*
X34383Y33829D1*
X34384Y33799D1*
X34385Y33769D1*
X34384Y33739D1*
X34380Y33709D1*
X34373Y33679D1*
X34365Y33649D1*
X34359Y33620D1*
X34352Y33590D1*
X34344Y33560D1*
X34336Y33530D1*
X34330Y33500D1*
X34327Y33470D1*
X34326Y33440D1*
X34325Y33410D1*
Y33380D1*
Y33350D1*
Y33320D1*
Y33290D1*
X34864Y34038D2*
X34806Y34009D1*
X34759Y33979D1*
X34721Y33949D1*
X34688Y33919D1*
X34660Y33889D1*
X34638Y33859D1*
X34619Y33829D1*
X34603Y33799D1*
X34588Y33769D1*
X34577Y33739D1*
X34570Y33709D1*
X34566Y33679D1*
X34560Y33649D1*
X34553Y33620D1*
X34546Y33590D1*
X34544Y33560D1*
X34549Y33530D1*
X34555Y33500D1*
X34561Y33470D1*
X34569Y33440D1*
X34581Y33410D1*
X34599Y33380D1*
X34623Y33350D1*
X34660Y33320D1*
X34713Y33290D1*
X34774Y33260D1*
X34924Y34038D2*
X34982Y34009D1*
X35034Y33979D1*
X35083Y33949D1*
X35133Y33919D1*
X37108Y34038D2*
X37055Y34009D1*
X37011Y33979D1*
X36979Y33949D1*
X36953Y33919D1*
X36928Y33889D1*
X37138Y34038D2*
X37162Y34009D1*
X37179Y33979D1*
X37152Y33949D1*
X37094Y33919D1*
X37033Y33889D1*
X36981Y33859D1*
X36943Y33829D1*
X36916Y33799D1*
X36896Y33769D1*
X36881Y33739D1*
X36870Y33709D1*
X36859Y33679D1*
X36850Y33649D1*
X36844Y33620D1*
X36840Y33590D1*
X36834Y33560D1*
X36827Y33530D1*
X36819Y33500D1*
X36812Y33470D1*
X36806Y33440D1*
X36797Y33410D1*
X36789Y33380D1*
X36784Y33350D1*
X36781Y33320D1*
X36779Y33290D1*
X37557Y34038D2*
X37474Y34009D1*
X37407Y33979D1*
X37355Y33949D1*
X37316Y33919D1*
X37286Y33889D1*
X37261Y33859D1*
X37240Y33829D1*
X37223Y33799D1*
X37211Y33769D1*
X37203Y33739D1*
X37195Y33709D1*
X37186Y33679D1*
X37178Y33649D1*
X37173Y33620D1*
X37170Y33590D1*
Y33560D1*
X37173Y33530D1*
X37180Y33500D1*
X37189Y33470D1*
X37199Y33440D1*
X37214Y33410D1*
X37236Y33380D1*
X37268Y33350D1*
X37313Y33320D1*
X37371Y33290D1*
X37437Y33260D1*
X37587Y34038D2*
X37658Y34009D1*
X37713Y33979D1*
X37755Y33949D1*
X37787Y33919D1*
X37811Y33889D1*
X37829Y33859D1*
X37842Y33829D1*
X37850Y33799D1*
X37853Y33769D1*
X37855Y33739D1*
Y33709D1*
Y33679D1*
X37851Y33649D1*
X37844Y33620D1*
X37835Y33590D1*
X37826Y33560D1*
X37815Y33530D1*
X37802Y33500D1*
X37788Y33470D1*
X37772Y33440D1*
X37752Y33410D1*
X37725Y33380D1*
X37688Y33350D1*
X37638Y33320D1*
X37572Y33290D1*
X37497Y33260D1*
X38813Y34068D2*
X38753Y34038D1*
X38694Y34009D1*
X38634Y33979D1*
X38574Y33949D1*
X38813Y34068D2*
X38809Y34038D1*
X38801Y34009D1*
X38793Y33979D1*
X38787Y33949D1*
X38781Y33919D1*
X38772Y33889D1*
X38764Y33859D1*
X38758Y33829D1*
X38754Y33799D1*
X38749Y33769D1*
X38742Y33739D1*
X38734Y33709D1*
X38728Y33679D1*
X38724Y33649D1*
X38719Y33620D1*
X38712Y33590D1*
X38704Y33560D1*
X38698Y33530D1*
X38695Y33500D1*
X38689Y33470D1*
X38682Y33440D1*
X38674Y33410D1*
X38669Y33380D1*
X38666Y33350D1*
X38664Y33320D1*
Y33290D1*
X41177Y34038D2*
X41124Y34009D1*
X41081Y33979D1*
X41048Y33949D1*
X41022Y33919D1*
X40998Y33889D1*
X41207Y34038D2*
X41231Y34009D1*
X41249Y33979D1*
X41222Y33949D1*
X41163Y33919D1*
X41102Y33889D1*
X41050Y33859D1*
X41012Y33829D1*
X40985Y33799D1*
X40965Y33769D1*
X40951Y33739D1*
X40939Y33709D1*
X40928Y33679D1*
X40919Y33649D1*
X40913Y33620D1*
X40909Y33590D1*
X40904Y33560D1*
X40896Y33530D1*
X40888Y33500D1*
X40882Y33470D1*
X40875Y33440D1*
X40867Y33410D1*
X40858Y33380D1*
X40853Y33350D1*
X40850Y33320D1*
X40848Y33290D1*
X41596Y34038D2*
X41528Y34009D1*
X41472Y33979D1*
X41428Y33949D1*
X41392Y33919D1*
X41363Y33889D1*
X41341Y33859D1*
X41323Y33829D1*
X41309Y33799D1*
X41298Y33769D1*
X41287Y33739D1*
X41278Y33709D1*
X41272Y33679D1*
X41269Y33649D1*
X41268Y33620D1*
X41267Y33590D1*
Y33560D1*
Y33530D1*
X41268Y33500D1*
X41272Y33470D1*
X41280Y33440D1*
X41293Y33410D1*
X41311Y33380D1*
X41335Y33350D1*
X41371Y33320D1*
X41420Y33290D1*
X41476Y33260D1*
X41656Y34038D2*
X41727Y34009D1*
X41782Y33979D1*
X41820Y33949D1*
X41844Y33919D1*
X41862Y33889D1*
X41878Y33859D1*
X41895Y33829D1*
X41865Y33799D1*
X42404Y34068D2*
X42344Y34038D1*
X42284Y34009D1*
X42224Y33979D1*
X42164Y33949D1*
X42404Y34068D2*
X42399Y34038D1*
X42392Y34009D1*
X42384Y33979D1*
X42378Y33949D1*
X42371Y33919D1*
X42363Y33889D1*
X42354Y33859D1*
X42349Y33829D1*
X42345Y33799D1*
X42340Y33769D1*
X42332Y33739D1*
X42324Y33709D1*
X42319Y33679D1*
X42315Y33649D1*
X42310Y33620D1*
X42302Y33590D1*
X42294Y33560D1*
X42289Y33530D1*
X42285Y33500D1*
X42280Y33470D1*
X42272Y33440D1*
X42264Y33410D1*
X42259Y33380D1*
X42256Y33350D1*
X42255Y33320D1*
X42254Y33290D1*
X31901Y34009D2*
X31891Y33979D1*
X31882Y33949D1*
X31876Y33919D1*
X31872Y33889D1*
X32021Y34009D2*
X32011Y33979D1*
X32002Y33949D1*
X31996Y33919D1*
X31991Y33889D1*
X36839Y34009D2*
X36825Y33979D1*
X36816Y33949D1*
X36811Y33919D1*
X36805Y33889D1*
X36797Y33859D1*
X36789Y33829D1*
X36782Y33799D1*
X36776Y33769D1*
X36767Y33739D1*
X36759Y33709D1*
X36754Y33679D1*
X36750Y33649D1*
X36745Y33620D1*
X36737Y33590D1*
X36729Y33560D1*
X36724Y33530D1*
X36720Y33500D1*
X36715Y33470D1*
X36707Y33440D1*
X36699Y33410D1*
X36694Y33380D1*
X36691Y33350D1*
X36690Y33320D1*
X36689Y33290D1*
X36928Y34009D2*
X36916Y33979D1*
X36908Y33949D1*
X36916Y33919D1*
X36928Y33889D1*
X40908Y34009D2*
X40894Y33979D1*
X40885Y33949D1*
X40880Y33919D1*
X40874Y33889D1*
X40866Y33859D1*
X40858Y33829D1*
X40852Y33799D1*
X40845Y33769D1*
X40837Y33739D1*
X40828Y33709D1*
X40823Y33679D1*
X40819Y33649D1*
X40814Y33620D1*
X40806Y33590D1*
X40798Y33560D1*
X40793Y33530D1*
X40789Y33500D1*
X40784Y33470D1*
X40776Y33440D1*
X40768Y33410D1*
X40763Y33380D1*
X40760Y33350D1*
X40759Y33320D1*
X40758Y33290D1*
X40998Y34009D2*
X40985Y33979D1*
X40977Y33949D1*
X40986Y33919D1*
X40998Y33889D1*
X31273Y33949D2*
X31219Y33919D1*
X31173Y33889D1*
X31137Y33859D1*
X31110Y33829D1*
X31091Y33799D1*
X31078Y33769D1*
X31069Y33739D1*
X31064Y33709D1*
X31333Y33949D2*
X31386Y33919D1*
X31428Y33889D1*
X31461Y33859D1*
X31472Y33829D1*
X31478Y33799D1*
X31481Y33769D1*
X31482Y33739D1*
X31483Y33709D1*
X33278Y33949D2*
X33224Y33919D1*
X33178Y33889D1*
X33142Y33859D1*
X33115Y33829D1*
X33095Y33799D1*
X33077Y33769D1*
X33063Y33739D1*
X33051Y33709D1*
X33044Y33679D1*
X33041Y33649D1*
X33039Y33620D1*
Y33590D1*
Y33560D1*
X33040Y33530D1*
X33045Y33500D1*
X33054Y33470D1*
X33082Y33440D1*
X33131Y33410D1*
X33210Y33380D1*
X33308Y33350D1*
X33338Y33949D2*
X33387Y33919D1*
X33426Y33889D1*
X33454Y33859D1*
X33475Y33829D1*
X33492Y33799D1*
X33503Y33769D1*
X33509Y33739D1*
X33503Y33709D1*
X33496Y33679D1*
X33491Y33649D1*
X33484Y33620D1*
X33476Y33590D1*
X33467Y33560D1*
X33456Y33530D1*
X33441Y33500D1*
X33418Y33470D1*
X33389Y33440D1*
X33321Y33410D1*
X33220Y33380D1*
X33098Y33350D1*
X34086Y33949D2*
X34032Y33919D1*
X33984Y33889D1*
X33944Y33859D1*
X33906Y33829D1*
X34205Y33949D2*
X34234Y33919D1*
X34259Y33889D1*
X34277Y33859D1*
X34288Y33829D1*
X34289Y33799D1*
X34288Y33769D1*
X34150Y33739D1*
X34018Y33709D1*
X33917Y33679D1*
X33849Y33649D1*
X33804Y33620D1*
X33775Y33590D1*
X33755Y33560D1*
X33741Y33530D1*
X33733Y33500D1*
X33731Y33470D1*
X33733Y33440D1*
X33741Y33410D1*
X33753Y33380D1*
X33773Y33350D1*
X33804Y33320D1*
X33851Y33290D1*
X33906Y33260D1*
X34894Y33949D2*
X34840Y33919D1*
X34793Y33889D1*
X34757Y33859D1*
X34731Y33829D1*
X34711Y33799D1*
X34697Y33769D1*
X34686Y33739D1*
X34675Y33709D1*
X34665Y33679D1*
X34660Y33649D1*
X34656Y33620D1*
X34655Y33590D1*
Y33560D1*
X34656Y33530D1*
X34661Y33500D1*
X34670Y33470D1*
X34697Y33440D1*
X34741Y33410D1*
X34810Y33380D1*
X34894Y33350D1*
X34924Y33949D2*
X34973Y33919D1*
X35012Y33889D1*
X35039Y33859D1*
X35059Y33829D1*
X35066Y33799D1*
X35070Y33769D1*
X35072Y33739D1*
X35073Y33709D1*
X35072Y33679D1*
X35068Y33649D1*
X35061Y33620D1*
X35052Y33590D1*
X35043Y33560D1*
X35032Y33530D1*
X35018Y33500D1*
X34998Y33470D1*
X34973Y33440D1*
X34911Y33410D1*
X34821Y33380D1*
X34714Y33350D1*
X37527Y33949D2*
X37473Y33919D1*
X37426Y33889D1*
X37390Y33859D1*
X37364Y33829D1*
X37343Y33799D1*
X37326Y33769D1*
X37311Y33739D1*
X37300Y33709D1*
X37293Y33679D1*
X37290Y33649D1*
X37288Y33620D1*
Y33590D1*
Y33560D1*
X37289Y33530D1*
X37294Y33500D1*
X37303Y33470D1*
X37331Y33440D1*
X37380Y33410D1*
X37459Y33380D1*
X37557Y33350D1*
X37587Y33949D2*
X37636Y33919D1*
X37675Y33889D1*
X37703Y33859D1*
X37724Y33829D1*
X37741Y33799D1*
X37752Y33769D1*
X37758Y33739D1*
X37752Y33709D1*
X37745Y33679D1*
X37740Y33649D1*
X37733Y33620D1*
X37725Y33590D1*
X37715Y33560D1*
X37705Y33530D1*
X37690Y33500D1*
X37667Y33470D1*
X37638Y33440D1*
X37569Y33410D1*
X37469Y33380D1*
X37347Y33350D1*
X41596Y33949D2*
X41542Y33919D1*
X41496Y33889D1*
X41460Y33859D1*
X41433Y33829D1*
X41414Y33799D1*
X41400Y33769D1*
X41392Y33739D1*
X41384Y33709D1*
X41375Y33679D1*
X41367Y33649D1*
X41362Y33620D1*
X41359Y33590D1*
X41358Y33560D1*
Y33530D1*
X41363Y33500D1*
X41372Y33470D1*
X41399Y33440D1*
X41443Y33410D1*
X41512Y33380D1*
X41596Y33350D1*
X41686Y33949D2*
X41714Y33919D1*
X41739Y33889D1*
X41757Y33859D1*
X41768Y33829D1*
X41776Y33799D1*
X30076Y33769D2*
Y33739D1*
X30075Y33709D1*
X30071Y33679D1*
X30064Y33649D1*
X30056Y33620D1*
X30050Y33590D1*
X30044Y33560D1*
X30035Y33530D1*
X30027Y33500D1*
X30021Y33470D1*
X30017Y33440D1*
X30012Y33410D1*
X30005Y33380D1*
X29997Y33350D1*
X29991Y33320D1*
X29987Y33290D1*
X30166Y33769D2*
X30268Y33739D1*
X30349Y33709D1*
X30405Y33679D1*
X30442Y33649D1*
X30466Y33620D1*
X30485Y33590D1*
X30502Y33560D1*
X30517Y33530D1*
X30531Y33500D1*
X30544Y33470D1*
X30554Y33440D1*
X30566Y33410D1*
X30579Y33380D1*
X30592Y33350D1*
X30604Y33320D1*
X30615Y33290D1*
X35971Y33739D2*
X35947Y33709D1*
X35929Y33679D1*
X35919Y33649D1*
X35913Y33620D1*
X35907Y33590D1*
X35899Y33560D1*
X35891Y33530D1*
X35886Y33500D1*
X35882Y33470D1*
X35877Y33440D1*
X35869Y33410D1*
X35861Y33380D1*
X35856Y33350D1*
X35853Y33320D1*
X35851Y33290D1*
X31034Y33649D2*
Y33620D1*
Y33590D1*
X31035Y33560D1*
X31039Y33530D1*
X31047Y33500D1*
X31060Y33470D1*
X31078Y33440D1*
X31128Y33410D1*
X31206Y33380D1*
X31303Y33350D1*
X34146Y33649D2*
X34040Y33620D1*
X33955Y33590D1*
X33890Y33560D1*
X33862Y33530D1*
X33839Y33500D1*
X33816Y33470D1*
X33848Y33440D1*
X33905Y33410D1*
X33999Y33380D1*
X34116Y33350D1*
X34295Y33649D2*
X34271Y33620D1*
X34252Y33590D1*
X34239Y33560D1*
X34225Y33530D1*
X34210Y33500D1*
X34191Y33470D1*
X34164Y33440D1*
X34097Y33410D1*
X33997Y33380D1*
X33876Y33350D1*
X31453Y33530D2*
X31433Y33500D1*
X31410Y33470D1*
X31382Y33440D1*
X31315Y33410D1*
X31215Y33380D1*
X31094Y33350D1*
X31483Y33530D2*
X31542Y33500D1*
X31523Y33470D1*
X31502Y33440D1*
X31477Y33410D1*
X31449Y33380D1*
X31414Y33350D1*
X31368Y33320D1*
X31309Y33290D1*
X31243Y33260D1*
X41716Y33530D2*
X41704Y33500D1*
X41689Y33470D1*
X41668Y33440D1*
X41610Y33410D1*
X41522Y33380D1*
X41416Y33350D1*
X41835Y33530D2*
X41824Y33500D1*
X41810Y33470D1*
X41792Y33440D1*
X41769Y33410D1*
X41743Y33380D1*
X41711Y33350D1*
X41668Y33320D1*
X41607Y33290D1*
X41536Y33260D1*
X31782Y33410D2*
X31768Y33380D1*
X31759Y33350D1*
X31755Y33320D1*
X31752Y33290D1*
X31901Y33410D2*
X31888Y33380D1*
X31879Y33350D1*
X31874Y33320D1*
X31872Y33290D1*
X39232Y33410D2*
X39218Y33380D1*
X39210Y33350D1*
X39205Y33320D1*
X39202Y33290D1*
X39352Y33410D2*
X39338Y33380D1*
X39329Y33350D1*
X39325Y33320D1*
X39322Y33290D1*
X32769Y33350D2*
Y33320D1*
Y33290D1*
X34983Y33380D2*
X34951Y33350D1*
X34912Y33320D1*
X34861Y33290D1*
X34804Y33260D1*
X35013Y33380D2*
Y33350D1*
Y33320D1*
Y33290D1*
X34146Y33350D2*
X34099Y33320D1*
X34038Y33290D1*
X33966Y33260D1*
X34176Y33350D2*
X34205Y33320D1*
X34235Y33290D1*
X34731Y18238D2*
Y18208D1*
Y18178D1*
Y18148D1*
Y18119D1*
Y18089D1*
Y18059D1*
Y18029D1*
Y17999D1*
Y17969D1*
X34432D1*
Y17939D1*
Y17909D1*
Y17879D1*
Y17849D1*
X34731D1*
Y17819D1*
Y17789D1*
Y17759D1*
Y17730D1*
Y17700D1*
Y17670D1*
Y17640D1*
Y17610D1*
Y17580D1*
X34821Y18238D2*
Y18208D1*
Y18178D1*
Y18148D1*
Y18119D1*
Y18089D1*
Y18059D1*
Y18029D1*
Y17999D1*
Y17969D1*
X35090D1*
Y17939D1*
Y17909D1*
Y17879D1*
Y17849D1*
X34821D1*
Y17819D1*
Y17789D1*
Y17759D1*
Y17730D1*
Y17700D1*
Y17670D1*
Y17640D1*
Y17610D1*
Y17580D1*
X38902Y17944D2*
X38891Y17914D1*
X38881Y17884D1*
X38872Y17855D1*
X39261Y17944D2*
X39255Y17914D1*
X39245Y17884D1*
X39231Y17855D1*
X30368Y18448D2*
X30285Y18418D1*
X30217Y18388D1*
X30161Y18358D1*
X30116Y18328D1*
X30081Y18298D1*
X30054Y18268D1*
X30031Y18238D1*
X30009Y18208D1*
X29990Y18178D1*
X29973Y18148D1*
X29957Y18119D1*
X29943Y18089D1*
X29932Y18059D1*
X29925Y18029D1*
X29920Y17999D1*
X29915Y17969D1*
X29907Y17939D1*
X29899Y17909D1*
X29894Y17879D1*
X29891Y17849D1*
X29890Y17819D1*
X29891Y17789D1*
X29894Y17759D1*
X29901Y17730D1*
X29909Y17700D1*
X29915Y17670D1*
X29922Y17640D1*
X29932Y17610D1*
X29945Y17580D1*
X29962Y17550D1*
X29985Y17520D1*
X30013Y17490D1*
X30050Y17460D1*
X30105Y17430D1*
X30185Y17400D1*
X30278Y17370D1*
X30458Y18448D2*
X30539Y18418D1*
X30604Y18388D1*
X30652Y18358D1*
X30690Y18328D1*
X30720Y18298D1*
X30743Y18268D1*
X30760Y18238D1*
X30774Y18208D1*
Y18178D1*
X30754Y18148D1*
X30727Y18119D1*
X31415Y18448D2*
X31332Y18418D1*
X31264Y18388D1*
X31208Y18358D1*
X31163Y18328D1*
X31128Y18298D1*
X31101Y18268D1*
X31078Y18238D1*
X31057Y18208D1*
X31038Y18178D1*
X31020Y18148D1*
X31005Y18119D1*
X30990Y18089D1*
X30979Y18059D1*
X30972Y18029D1*
X30968Y17999D1*
X30962Y17969D1*
X30955Y17939D1*
X30947Y17909D1*
X30941Y17879D1*
X30939Y17849D1*
X30937Y17819D1*
X30938Y17789D1*
X30942Y17759D1*
X30949Y17730D1*
X30956Y17700D1*
X30963Y17670D1*
X30969Y17640D1*
X30979Y17610D1*
X30992Y17580D1*
X31010Y17550D1*
X31032Y17520D1*
X31060Y17490D1*
X31097Y17460D1*
X31152Y17430D1*
X31232Y17400D1*
X31325Y17370D1*
X31505Y18448D2*
X31587Y18418D1*
X31651Y18388D1*
X31700Y18358D1*
X31737Y18328D1*
X31767Y18298D1*
X31790Y18268D1*
X31807Y18238D1*
X31821Y18208D1*
Y18178D1*
X31801Y18148D1*
X31774Y18119D1*
X29351Y18418D2*
X29336Y18388D1*
X29318Y18358D1*
X29301Y18328D1*
X29285Y18298D1*
X29269Y18268D1*
X29254Y18238D1*
X29238Y18208D1*
X29223Y18178D1*
X29207Y18148D1*
X29190Y18119D1*
X29170Y18089D1*
X29152Y18059D1*
X29135Y18029D1*
X29119Y17999D1*
X29104Y17969D1*
X29089Y17939D1*
X29074Y17909D1*
X29058Y17879D1*
X29040Y17849D1*
X29021Y17819D1*
X29002Y17789D1*
X28986Y17759D1*
X28970Y17730D1*
X28954Y17700D1*
X28939Y17670D1*
X28924Y17640D1*
X28908Y17610D1*
X28890Y17580D1*
X28871Y17550D1*
X28853Y17520D1*
X28836Y17490D1*
X28819Y17460D1*
X28801Y17430D1*
X28782Y17400D1*
X29500Y18418D2*
X29505Y18388D1*
X29512Y18358D1*
X29520Y18328D1*
X29525Y18298D1*
X29528Y18268D1*
X29530Y18238D1*
X29535Y18208D1*
X29542Y18178D1*
X29550Y18148D1*
X29555Y18119D1*
X29558Y18089D1*
X29560Y18059D1*
X29565Y18029D1*
X29572Y17999D1*
X29580Y17969D1*
X29585Y17939D1*
X29588Y17909D1*
X29590Y17879D1*
X29595Y17849D1*
X29602Y17819D1*
X29610Y17789D1*
X29615Y17759D1*
X29618Y17730D1*
X29620Y17700D1*
X29625Y17670D1*
X29632Y17640D1*
X29640Y17610D1*
X29645Y17580D1*
X29648Y17550D1*
X29649Y17520D1*
X29651Y17490D1*
X29656Y17460D1*
X29666Y17430D1*
X29680Y17400D1*
X30368Y18358D2*
X30309Y18328D1*
X30255Y18298D1*
X30208Y18268D1*
X30172Y18238D1*
X30144Y18208D1*
X30121Y18178D1*
X30100Y18148D1*
X30084Y18119D1*
X30071Y18089D1*
X30060Y18059D1*
X30049Y18029D1*
X30039Y17999D1*
X30029Y17969D1*
X30020Y17939D1*
X30014Y17909D1*
X30011Y17879D1*
X30010Y17849D1*
X30009Y17819D1*
Y17789D1*
X30010Y17759D1*
X30014Y17730D1*
X30021Y17700D1*
X30030Y17670D1*
X30040Y17640D1*
X30055Y17610D1*
X30078Y17580D1*
X30108Y17550D1*
X30181Y17520D1*
X30292Y17490D1*
X30428Y17460D1*
X30518Y18358D2*
X30547Y18328D1*
X30577Y18298D1*
X30606Y18268D1*
X30631Y18238D1*
X30650Y18208D1*
X30665Y18178D1*
X30680Y18148D1*
X30697Y18119D1*
X31415Y18358D2*
X31357Y18328D1*
X31302Y18298D1*
X31255Y18268D1*
X31219Y18238D1*
X31191Y18208D1*
X31168Y18178D1*
X31148Y18148D1*
X31131Y18119D1*
X31118Y18089D1*
X31107Y18059D1*
X31096Y18029D1*
X31086Y17999D1*
X31076Y17969D1*
X31067Y17939D1*
X31061Y17909D1*
X31058Y17879D1*
X31057Y17849D1*
X31056Y17819D1*
Y17789D1*
X31057Y17759D1*
X31061Y17730D1*
X31068Y17700D1*
X31077Y17670D1*
X31087Y17640D1*
X31102Y17610D1*
X31125Y17580D1*
X31155Y17550D1*
X31229Y17520D1*
X31340Y17490D1*
X31475Y17460D1*
X31565Y18358D2*
X31595Y18328D1*
X31624Y18298D1*
X31653Y18268D1*
X31678Y18238D1*
X31697Y18208D1*
X31712Y18178D1*
X31727Y18148D1*
X31744Y18119D1*
X29381Y18298D2*
X29376Y18268D1*
X29367Y18238D1*
X29356Y18208D1*
X29342Y18178D1*
X29328Y18148D1*
X29313Y18119D1*
X29298Y18089D1*
X29283Y18059D1*
X29267Y18029D1*
X29249Y17999D1*
X29230Y17969D1*
X29212Y17939D1*
X29195Y17909D1*
X29179Y17879D1*
X29165Y17849D1*
X29152Y17819D1*
X29141Y17789D1*
X29440Y17759D1*
Y18298D2*
Y18268D1*
Y18238D1*
Y18208D1*
Y18178D1*
Y18148D1*
X29442Y18119D1*
X29445Y18089D1*
X29453Y18059D1*
X29460Y18029D1*
X29465Y17999D1*
X29468Y17969D1*
X29470Y17939D1*
X29471Y17909D1*
X29476Y17879D1*
X29486Y17849D1*
X29500Y17819D1*
X29330Y17789D1*
X29141Y17759D1*
X30637Y17730D2*
X30619Y17700D1*
X30601Y17670D1*
X30584Y17640D1*
X30564Y17610D1*
X30535Y17580D1*
X30489Y17550D1*
X30413Y17520D1*
X30298Y17490D1*
X30158Y17460D1*
X30727Y17730D2*
X30722Y17700D1*
X30714Y17670D1*
X30701Y17640D1*
X30684Y17610D1*
X30661Y17580D1*
X30635Y17550D1*
X30606Y17520D1*
X30575Y17490D1*
X30537Y17460D1*
X30482Y17430D1*
X30402Y17400D1*
X30308Y17370D1*
X31684Y17730D2*
X31666Y17700D1*
X31649Y17670D1*
X31632Y17640D1*
X31611Y17610D1*
X31582Y17580D1*
X31536Y17550D1*
X31460Y17520D1*
X31345Y17490D1*
X31206Y17460D1*
X31774Y17730D2*
X31769Y17700D1*
X31761Y17670D1*
X31748Y17640D1*
X31731Y17610D1*
X31708Y17580D1*
X31682Y17550D1*
X31653Y17520D1*
X31623Y17490D1*
X31585Y17460D1*
X31529Y17430D1*
X31449Y17400D1*
X31355Y17370D1*
X29051Y17700D2*
X29047Y17670D1*
X29038Y17640D1*
X29026Y17610D1*
X29013Y17580D1*
X28999Y17550D1*
X28984Y17520D1*
X28968Y17490D1*
X28949Y17460D1*
X28926Y17430D1*
X28902Y17400D1*
X29470Y17700D2*
X29494Y17670D1*
X29512Y17640D1*
X29522Y17610D1*
X29527Y17580D1*
X29530Y17550D1*
X29535Y17520D1*
X29542Y17490D1*
X29550Y17460D1*
X29556Y17430D1*
X29560Y17400D1*
X7078Y30209D2*
X7073Y30194D1*
X7068Y30179D1*
X7064Y30164D1*
X7058Y30149D1*
X7054Y30134D1*
X7050Y30119D1*
X7047Y30104D1*
X7043Y30090D1*
X7038Y30075D1*
X7034Y30060D1*
X7029Y30045D1*
X7024Y30030D1*
X7021Y30015D1*
X7017Y30000D1*
X7013Y29985D1*
X7008Y29970D1*
X7004Y29955D1*
X6999Y29940D1*
X6994Y29925D1*
X6991Y29910D1*
X6989Y29895D1*
X7378Y30209D2*
X7372Y30194D1*
X7368Y30179D1*
X7365Y30164D1*
X7363Y30149D1*
X7138D2*
X7126Y30134D1*
X7117Y30119D1*
X7112Y30104D1*
X7108Y30090D1*
X7103Y30075D1*
X7098Y30060D1*
X7093Y30045D1*
X7088Y30030D1*
X7085Y30015D1*
X7082Y30000D1*
X7087Y29985D1*
X7093Y29970D1*
X6630Y30104D2*
Y30090D1*
Y30075D1*
Y30060D1*
Y30045D1*
Y30030D1*
Y30015D1*
Y30000D1*
Y29985D1*
Y29970D1*
Y29955D1*
Y29940D1*
Y29925D1*
X6689Y30104D2*
Y30090D1*
Y30075D1*
Y30060D1*
Y30045D1*
Y30030D1*
Y30015D1*
Y30000D1*
Y29985D1*
Y29970D1*
Y29955D1*
Y29940D1*
Y29925D1*
X6854D1*
Y29910D1*
Y29895D1*
Y29880D1*
Y29865D1*
Y29850D1*
X6689D1*
Y29835D1*
Y29820D1*
Y29805D1*
Y29790D1*
Y29775D1*
Y29760D1*
Y29745D1*
Y29730D1*
Y29715D1*
Y29701D1*
X7452Y30030D2*
Y30015D1*
Y30000D1*
X7453Y29985D1*
X7455Y29970D1*
X7458Y29955D1*
X7462Y29940D1*
X7465Y29925D1*
X7466Y29910D1*
X7468Y29895D1*
X7470Y29880D1*
X7473Y29865D1*
X7477Y29850D1*
X7480Y29835D1*
X7481Y29820D1*
X7483Y29805D1*
X7485Y29790D1*
X7488Y29775D1*
X7492Y29760D1*
X7495Y29745D1*
X7496Y29730D1*
X7497Y29715D1*
X7500Y29701D1*
X7503Y29686D1*
X7507Y29671D1*
X7510Y29656D1*
X7511Y29641D1*
X7512Y29626D1*
Y29611D1*
Y29596D1*
Y30030D2*
X7513Y30015D1*
X7515Y30000D1*
X7518Y29985D1*
X7522Y29970D1*
X7525Y29955D1*
X7526Y29940D1*
X7527Y29925D1*
X7530Y29910D1*
X7533Y29895D1*
X7537Y29880D1*
X7540Y29865D1*
X7541Y29850D1*
X7542Y29835D1*
X7543Y29820D1*
X7545Y29805D1*
X7548Y29790D1*
X7552Y29775D1*
X7555Y29760D1*
X7556Y29745D1*
X7557Y29730D1*
X7558Y29715D1*
X7560Y29701D1*
X7565Y29686D1*
X7572Y29671D1*
X7782Y30030D2*
X7774Y30015D1*
X7765Y30000D1*
X7757Y29985D1*
X7749Y29970D1*
X7741Y29955D1*
X7733Y29940D1*
X7725Y29925D1*
X7716Y29910D1*
X7706Y29895D1*
X7697Y29880D1*
X7689Y29865D1*
X7681Y29850D1*
X7673Y29835D1*
X7665Y29820D1*
X7656Y29805D1*
X7647Y29790D1*
X7637Y29775D1*
X7629Y29760D1*
X7621Y29745D1*
X7613Y29730D1*
X7605Y29715D1*
X7593Y29701D1*
X7576Y29686D1*
X7557Y29671D1*
X7856Y30030D2*
X7847Y30015D1*
X7837Y30000D1*
X7826Y29985D1*
X7817Y29970D1*
X7809Y29955D1*
X7801Y29940D1*
X7793Y29925D1*
X7785Y29910D1*
X7776Y29895D1*
X7766Y29880D1*
X7757Y29865D1*
X7749Y29850D1*
X7740Y29835D1*
X7731Y29820D1*
X7721Y29805D1*
X7712Y29790D1*
X7704Y29775D1*
X7696Y29760D1*
X7688Y29745D1*
X7680Y29730D1*
X7671Y29715D1*
X7661Y29701D1*
X7652Y29686D1*
X7644Y29671D1*
X7635Y29656D1*
X7626Y29641D1*
X7617Y29626D1*
X7609Y29611D1*
X7602Y29596D1*
X7138Y30000D2*
X7101Y29985D1*
X7063Y29970D1*
X7243Y30000D2*
X7265Y29985D1*
X7284Y29970D1*
X7301Y29955D1*
X7315Y29940D1*
X7326Y29925D1*
X7335Y29910D1*
X7341Y29895D1*
X7345Y29880D1*
X7346Y29865D1*
X7347Y29850D1*
X7348Y29835D1*
Y29820D1*
Y29805D1*
X7347Y29790D1*
X7345Y29775D1*
X7341Y29760D1*
X7335Y29745D1*
X7329Y29730D1*
X7321Y29715D1*
X7314Y29701D1*
X7306Y29686D1*
X7296Y29671D1*
X7284Y29656D1*
X7268Y29641D1*
X7247Y29626D1*
X7218Y29611D1*
X7180Y29596D1*
X7138Y29581D1*
X7153Y29955D2*
X7124Y29940D1*
X7096Y29925D1*
X7071Y29910D1*
X7048Y29895D1*
X7183Y29955D2*
X7210Y29940D1*
X7233Y29925D1*
X7251Y29910D1*
X7264Y29895D1*
X7274Y29880D1*
X7281Y29865D1*
X7285Y29850D1*
X7286Y29835D1*
X7287Y29820D1*
X7285Y29805D1*
X7282Y29790D1*
X7277Y29775D1*
X7272Y29760D1*
X7265Y29745D1*
X7257Y29730D1*
X7247Y29715D1*
X7236Y29701D1*
X7222Y29686D1*
X7183Y29671D1*
X7123Y29656D1*
X7048Y29641D1*
X6450Y29925D2*
Y29910D1*
Y29895D1*
Y29880D1*
Y29865D1*
X6630D2*
Y29850D1*
Y29835D1*
Y29820D1*
Y29805D1*
Y29790D1*
Y29775D1*
Y29760D1*
Y29745D1*
Y29730D1*
Y29715D1*
Y29701D1*
X6989Y29775D2*
X6968Y29760D1*
X6953Y29745D1*
X6949Y29730D1*
X6951Y29715D1*
X6955Y29701D1*
X6960Y29686D1*
X6967Y29671D1*
X6977Y29656D1*
X6991Y29641D1*
X7008Y29626D1*
X7031Y29611D1*
X7060Y29596D1*
X7093Y29581D1*
X7004Y29775D2*
X7009Y29760D1*
X7013Y29745D1*
X7017Y29730D1*
X7021Y29715D1*
X7026Y29701D1*
X7038Y29686D1*
X7070Y29671D1*
X7120Y29656D1*
X7183Y29641D1*
X7075Y29147D2*
X7048Y29132D1*
X7024Y29118D1*
X7004Y29103D1*
X6988Y29088D1*
X6973Y29073D1*
X6962Y29058D1*
X6953Y29043D1*
X6947Y29028D1*
X6943Y29013D1*
X6940Y28998D1*
X7180Y29147D2*
X7208Y29132D1*
X7232Y29118D1*
X7251Y29103D1*
X7266Y29088D1*
X7277Y29073D1*
X7286Y29058D1*
X7293Y29043D1*
X7296Y29028D1*
X7298Y29013D1*
X7299Y28998D1*
Y28983D1*
X7297Y28968D1*
X7293Y28953D1*
X7286Y28938D1*
X7278Y28923D1*
X7266Y28908D1*
X7251Y28893D1*
X7237Y28878D1*
X7224Y28863D1*
X7219Y28848D1*
X7229Y28833D1*
X7239Y28818D1*
X7247Y28803D1*
X7253Y28788D1*
X7259Y28773D1*
X7264Y28758D1*
X7267Y28744D1*
X7268Y28729D1*
Y28714D1*
X7267Y28699D1*
X7263Y28684D1*
X7259Y28669D1*
X7254Y28654D1*
X7246Y28639D1*
X7236Y28624D1*
X7225Y28609D1*
X7213Y28594D1*
X7198Y28579D1*
X7178Y28564D1*
X7151Y28549D1*
X7116Y28534D1*
X7075Y28519D1*
X7808Y29147D2*
X7781Y29132D1*
X7757Y29118D1*
X7737Y29103D1*
X7721Y29088D1*
X7707Y29073D1*
X7695Y29058D1*
X7687Y29043D1*
X7680Y29028D1*
X7676Y29013D1*
X7673Y28998D1*
X7733Y28983D1*
X7913Y29147D2*
X7942Y29132D1*
X7965Y29118D1*
X7984Y29103D1*
X7999Y29088D1*
X8010Y29073D1*
X8019Y29058D1*
X8026Y29043D1*
X8029Y29028D1*
X8031Y29013D1*
X8032Y28998D1*
Y28983D1*
X8030Y28968D1*
X8026Y28953D1*
X8019Y28938D1*
X8011Y28923D1*
X7999Y28908D1*
X7985Y28893D1*
X7970Y28878D1*
X7957Y28863D1*
X7952Y28848D1*
X7962Y28833D1*
X7972Y28818D1*
X7980Y28803D1*
X7986Y28788D1*
X7992Y28773D1*
X7997Y28758D1*
X8000Y28744D1*
X8001Y28729D1*
X8002Y28714D1*
X8000Y28699D1*
X7996Y28684D1*
X7992Y28669D1*
X7987Y28654D1*
X7980Y28639D1*
X7969Y28624D1*
X7958Y28609D1*
X7946Y28594D1*
X7931Y28579D1*
X7911Y28564D1*
X7884Y28549D1*
X7849Y28534D1*
X7808Y28519D1*
X7120Y29103D2*
X7091Y29088D1*
X7066Y29073D1*
X7046Y29058D1*
X7032Y29043D1*
X7021Y29028D1*
X7011Y29013D1*
X7000Y28998D1*
X7135Y29103D2*
X7162Y29088D1*
X7185Y29073D1*
X7202Y29058D1*
X7214Y29043D1*
X7223Y29028D1*
X7231Y29013D1*
X7240Y28998D1*
X7232Y28983D1*
X7226Y28968D1*
X7219Y28953D1*
X7209Y28938D1*
X7195Y28923D1*
X7167Y28908D1*
X7134Y28893D1*
X7105Y28878D1*
X7084Y28863D1*
X7070Y28848D1*
X7060Y28833D1*
X7105Y28818D1*
X7140Y28803D1*
X7166Y28788D1*
X7178Y28773D1*
X7187Y28758D1*
X7191Y28744D1*
X7193Y28729D1*
X7194Y28714D1*
Y28699D1*
X7192Y28684D1*
X7188Y28669D1*
X7182Y28654D1*
X7172Y28639D1*
X7158Y28624D1*
X7117Y28609D1*
X7052Y28594D1*
X6970Y28579D1*
X7853Y29103D2*
X7824Y29088D1*
X7799Y29073D1*
X7779Y29058D1*
X7765Y29043D1*
X7754Y29028D1*
X7746Y29013D1*
X7739Y28998D1*
X7733Y28983D1*
X7868Y29103D2*
X7895Y29088D1*
X7918Y29073D1*
X7936Y29058D1*
X7947Y29043D1*
X7956Y29028D1*
X7964Y29013D1*
X7973Y28998D1*
X7965Y28983D1*
X7959Y28968D1*
X7952Y28953D1*
X7942Y28938D1*
X7929Y28923D1*
X7900Y28908D1*
X7868Y28893D1*
X7838Y28878D1*
X7817Y28863D1*
X7803Y28848D1*
X7793Y28833D1*
X7838Y28818D1*
X7873Y28803D1*
X7899Y28788D1*
X7911Y28773D1*
X7920Y28758D1*
X7924Y28744D1*
X7926Y28729D1*
X7927Y28714D1*
Y28699D1*
X7925Y28684D1*
X7921Y28669D1*
X7915Y28654D1*
X7905Y28639D1*
X7892Y28624D1*
X7850Y28609D1*
X7785Y28594D1*
X7703Y28579D1*
X6566Y29043D2*
Y29028D1*
Y29013D1*
Y28998D1*
Y28983D1*
Y28968D1*
Y28953D1*
Y28938D1*
Y28923D1*
Y28908D1*
Y28893D1*
Y28878D1*
Y28863D1*
X6626Y29043D2*
Y29028D1*
Y29013D1*
Y28998D1*
Y28983D1*
Y28968D1*
Y28953D1*
Y28938D1*
Y28923D1*
Y28908D1*
Y28893D1*
Y28878D1*
Y28863D1*
X6791D1*
Y28848D1*
Y28833D1*
Y28818D1*
Y28803D1*
Y28788D1*
X6626D1*
Y28773D1*
Y28758D1*
Y28744D1*
Y28729D1*
Y28714D1*
Y28699D1*
Y28684D1*
Y28669D1*
Y28654D1*
Y28639D1*
X8122Y28968D2*
Y28953D1*
Y28938D1*
X8123Y28923D1*
X8125Y28908D1*
X8128Y28893D1*
X8132Y28878D1*
X8135Y28863D1*
X8136Y28848D1*
X8137Y28833D1*
X8140Y28818D1*
X8143Y28803D1*
X8147Y28788D1*
X8150Y28773D1*
X8151Y28758D1*
X8152Y28744D1*
X8154Y28729D1*
X8158Y28714D1*
X8162Y28699D1*
X8165Y28684D1*
X8166Y28669D1*
X8167Y28654D1*
X8169Y28639D1*
X8173Y28624D1*
X8177Y28609D1*
X8180Y28594D1*
X8181Y28579D1*
X8182Y28564D1*
Y28549D1*
Y28534D1*
Y28968D2*
X8183Y28953D1*
X8185Y28938D1*
X8188Y28923D1*
X8192Y28908D1*
X8195Y28893D1*
X8196Y28878D1*
X8197Y28863D1*
X8199Y28848D1*
X8203Y28833D1*
X8207Y28818D1*
X8210Y28803D1*
X8211Y28788D1*
X8212Y28773D1*
Y28758D1*
X8214Y28744D1*
X8218Y28729D1*
X8222Y28714D1*
X8225Y28699D1*
X8226Y28684D1*
X8227Y28669D1*
Y28654D1*
X8230Y28639D1*
X8235Y28624D1*
X8242Y28609D1*
X8451Y28968D2*
X8444Y28953D1*
X8435Y28938D1*
X8427Y28923D1*
X8418Y28908D1*
X8410Y28893D1*
X8403Y28878D1*
X8395Y28863D1*
X8386Y28848D1*
X8376Y28833D1*
X8367Y28818D1*
X8359Y28803D1*
X8351Y28788D1*
X8343Y28773D1*
X8335Y28758D1*
X8326Y28744D1*
X8316Y28729D1*
X8307Y28714D1*
X8299Y28699D1*
X8291Y28684D1*
X8283Y28669D1*
X8274Y28654D1*
X8263Y28639D1*
X8246Y28624D1*
X8227Y28609D1*
X8526Y28968D2*
X8516Y28953D1*
X8506Y28938D1*
X8496Y28923D1*
X8487Y28908D1*
X8478Y28893D1*
X8470Y28878D1*
X8463Y28863D1*
X8455Y28848D1*
X8446Y28833D1*
X8436Y28818D1*
X8427Y28803D1*
X8418Y28788D1*
X8410Y28773D1*
X8401Y28758D1*
X8391Y28744D1*
X8382Y28729D1*
X8374Y28714D1*
X8366Y28699D1*
X8358Y28684D1*
X8350Y28669D1*
X8341Y28654D1*
X8331Y28639D1*
X8322Y28624D1*
X8314Y28609D1*
X8305Y28594D1*
X8296Y28579D1*
X8287Y28564D1*
X8279Y28549D1*
X8272Y28534D1*
X6387Y28863D2*
Y28848D1*
Y28833D1*
Y28818D1*
Y28803D1*
X6566D2*
Y28788D1*
Y28773D1*
Y28758D1*
Y28744D1*
Y28729D1*
Y28714D1*
Y28699D1*
Y28684D1*
Y28669D1*
Y28654D1*
Y28639D1*
X6881Y28699D2*
X6874Y28684D1*
X6875Y28669D1*
X6878Y28654D1*
X6881Y28639D1*
X6886Y28624D1*
X6893Y28609D1*
X6903Y28594D1*
X6917Y28579D1*
X6937Y28564D1*
X6966Y28549D1*
X7003Y28534D1*
X7045Y28519D1*
X6925Y28699D2*
X6933Y28684D1*
X6939Y28669D1*
X6945Y28654D1*
X6953Y28639D1*
X6963Y28624D1*
X6996Y28609D1*
X7051Y28594D1*
X7120Y28579D1*
X7614Y28699D2*
X7608Y28684D1*
Y28669D1*
X7611Y28654D1*
X7614Y28639D1*
X7619Y28624D1*
X7626Y28609D1*
X7636Y28594D1*
X7650Y28579D1*
X7670Y28564D1*
X7699Y28549D1*
X7736Y28534D1*
X7778Y28519D1*
X7658Y28699D2*
X7666Y28684D1*
X7672Y28669D1*
X7679Y28654D1*
X7686Y28639D1*
X7696Y28624D1*
X7729Y28609D1*
X7784Y28594D1*
X7853Y28579D1*
X7374Y28609D2*
Y28594D1*
Y28579D1*
X7371Y28564D1*
X7366Y28549D1*
X7359Y28534D1*
X7464Y28609D2*
X7457Y28594D1*
X7452Y28579D1*
X7448Y28564D1*
X7442Y28549D1*
X7434Y28534D1*
X6432Y28147D2*
X6431Y28132D1*
X6429Y28118D1*
X6424Y28103D1*
X6417Y28088D1*
X6925Y28147D2*
X6918Y28132D1*
X6914Y28118D1*
X6912Y28103D1*
X6910Y28088D1*
X6955Y28147D2*
X6961Y28132D1*
X6967Y28118D1*
X6974Y28103D1*
X6982Y28088D1*
X6991Y28073D1*
X7001Y28058D1*
X7010Y28043D1*
X7018Y28028D1*
X7026Y28013D1*
X7034Y27998D1*
X7042Y27983D1*
X7051Y27968D1*
X7060Y27953D1*
X7070Y27938D1*
X7078Y27923D1*
X7086Y27908D1*
X7094Y27893D1*
X7102Y27878D1*
X7110Y27863D1*
X7120Y27848D1*
X7110Y27833D1*
X7100Y27818D1*
X7087Y27803D1*
X7074Y27788D1*
X7060Y27773D1*
X7045Y27758D1*
X7030Y27744D1*
X7015Y27729D1*
X7000Y27714D1*
X6985Y27699D1*
X6970Y27684D1*
X6955Y27669D1*
X6940Y27654D1*
X6925Y27639D1*
X6910Y27624D1*
X6895Y27609D1*
X6881Y27594D1*
X6866Y27579D1*
X6851Y27564D1*
X6836Y27549D1*
X6821Y27534D1*
X7030Y28147D2*
X7039Y28132D1*
X7048Y28118D1*
X7056Y28103D1*
X7064Y28088D1*
X7072Y28073D1*
X7081Y28058D1*
X7090Y28043D1*
X7099Y28028D1*
X7108Y28013D1*
X7116Y27998D1*
X7124Y27983D1*
X7131Y27968D1*
X7139Y27953D1*
X7147Y27938D1*
X7159Y27923D1*
X7175Y27908D1*
X7195Y27893D1*
X7404Y28147D2*
X7391Y28132D1*
X7380Y28118D1*
X7369Y28103D1*
X7357Y28088D1*
X7343Y28073D1*
X7329Y28058D1*
X7314Y28043D1*
X7299Y28028D1*
X7284Y28013D1*
X7269Y27998D1*
X7255Y27983D1*
X7240Y27968D1*
X7225Y27953D1*
X7212Y27938D1*
X7201Y27923D1*
X7190Y27908D1*
X7180Y27893D1*
X7509Y28147D2*
X7494Y28132D1*
X7479Y28118D1*
X7464Y28103D1*
X7449Y28088D1*
X7434Y28073D1*
X7420Y28058D1*
X7407Y28043D1*
X7395Y28028D1*
X7384Y28013D1*
X7372Y27998D1*
X7358Y27983D1*
X7344Y27968D1*
X7329Y27953D1*
X7314Y27938D1*
X7299Y27923D1*
X7284Y27908D1*
X7269Y27893D1*
X7255Y27878D1*
X7240Y27863D1*
X7225Y27848D1*
X7210Y27833D1*
X7219Y27818D1*
X7227Y27803D1*
X7235Y27788D1*
X7243Y27773D1*
X7251Y27758D1*
X7260Y27744D1*
X7270Y27729D1*
X7279Y27714D1*
X7287Y27699D1*
X7295Y27684D1*
X7303Y27669D1*
X7311Y27654D1*
X7320Y27639D1*
X7330Y27624D1*
X7339Y27609D1*
X7347Y27594D1*
X7355Y27579D1*
X7362Y27564D1*
X7369Y27549D1*
X7374Y27534D1*
X7599Y28147D2*
X7598Y28132D1*
X7596Y28118D1*
X7593Y28103D1*
X7589Y28088D1*
X7586Y28073D1*
X7584Y28058D1*
X7582Y28043D1*
X7578Y28028D1*
X7574Y28013D1*
X7571Y27998D1*
X7567Y27983D1*
X7563Y27968D1*
X7559Y27953D1*
X7556Y27938D1*
X7554Y27923D1*
X7552Y27908D1*
X7548Y27893D1*
X7544Y27878D1*
X7541Y27863D1*
X7539Y27848D1*
X7537Y27833D1*
X7533Y27818D1*
X7529Y27803D1*
X7526Y27788D1*
X7524Y27773D1*
X7522Y27758D1*
X7518Y27744D1*
X7514Y27729D1*
X7511Y27714D1*
X7509Y27699D1*
X7507Y27684D1*
X7503Y27669D1*
X7499Y27654D1*
X7496Y27639D1*
X7492Y27624D1*
X7488Y27609D1*
X7484Y27594D1*
X7481Y27579D1*
X7480Y27564D1*
X7479Y27549D1*
Y27534D1*
X7883Y28147D2*
X7917Y28132D1*
X7945Y28118D1*
X7966Y28103D1*
X7983Y28088D1*
X7995Y28073D1*
X8005Y28058D1*
X8013Y28043D1*
X8021Y28028D1*
X8027Y28013D1*
X8032Y27998D1*
X8037Y27983D1*
X8042Y27968D1*
X8045Y27953D1*
X8046Y27938D1*
X8047Y27923D1*
Y27908D1*
Y27893D1*
Y27878D1*
Y27863D1*
Y27848D1*
X8045Y27833D1*
X8041Y27818D1*
X8037Y27803D1*
X8034Y27788D1*
X8031Y27773D1*
X8026Y27758D1*
X8020Y27744D1*
X8013Y27729D1*
X8006Y27714D1*
X7997Y27699D1*
X7987Y27684D1*
X7977Y27669D1*
X7967Y27654D1*
X7955Y27639D1*
X7942Y27624D1*
X7927Y27609D1*
X7909Y27594D1*
X7888Y27579D1*
X7861Y27564D1*
X7828Y27549D1*
X7793Y27534D1*
X6626Y28088D2*
Y28073D1*
X6624Y28058D1*
X6620Y28043D1*
X6616Y28028D1*
X6614Y28013D1*
X6612Y27998D1*
X6609Y27983D1*
X6605Y27968D1*
X6601Y27953D1*
X6598Y27938D1*
X6595Y27923D1*
X6591Y27908D1*
X6587Y27893D1*
X6584Y27878D1*
X6582Y27863D1*
X6579Y27848D1*
X6575Y27833D1*
X6571Y27818D1*
X6569Y27803D1*
X6567Y27788D1*
X6564Y27773D1*
X6560Y27758D1*
X6556Y27744D1*
X6553Y27729D1*
X6550Y27714D1*
X6546Y27699D1*
X6542Y27684D1*
X6539Y27669D1*
X6537Y27654D1*
X6534Y27639D1*
X6531Y27624D1*
X6527Y27609D1*
X6524Y27594D1*
X6522Y27579D1*
X6519Y27564D1*
X6514Y27549D1*
X6506Y27534D1*
X6701Y28088D2*
X6699Y28073D1*
X6695Y28058D1*
X6691Y28043D1*
X6688Y28028D1*
X6686Y28013D1*
X6684Y27998D1*
X6680Y27983D1*
X6676Y27968D1*
X6673Y27953D1*
X6672Y27938D1*
X6669Y27923D1*
X6665Y27908D1*
X6661Y27893D1*
X6658Y27878D1*
X6655Y27863D1*
X6650Y27848D1*
X6646Y27833D1*
X6644Y27818D1*
X6642Y27803D1*
X6639Y27788D1*
X6635Y27773D1*
X6631Y27758D1*
X6629Y27744D1*
X6627Y27729D1*
X6624Y27714D1*
X6620Y27699D1*
X6616Y27684D1*
X6614Y27669D1*
X6612Y27654D1*
X6609Y27639D1*
X6605Y27624D1*
X6601Y27609D1*
X6598Y27594D1*
X6595Y27579D1*
X6590Y27564D1*
X6586Y27549D1*
X6581Y27534D1*
X7658Y28088D2*
Y28073D1*
X7656Y28058D1*
X7652Y28043D1*
X7649Y28028D1*
X7646Y28013D1*
X7644Y27998D1*
X7641Y27983D1*
X7638Y27968D1*
X7634Y27953D1*
X7631Y27938D1*
X7629Y27923D1*
X7626Y27908D1*
X7623Y27893D1*
X7619Y27878D1*
X7615Y27863D1*
X7612Y27848D1*
X7608Y27833D1*
X7604Y27818D1*
X7601Y27803D1*
X7599Y27788D1*
X7597Y27773D1*
X7593Y27758D1*
X7589Y27744D1*
X7586Y27729D1*
X7584Y27714D1*
X7582Y27699D1*
X7578Y27684D1*
X7574Y27669D1*
X7571Y27654D1*
X7567Y27639D1*
X7560Y27624D1*
X7550Y27609D1*
X7539Y27594D1*
X7823Y28088D2*
X7862Y28073D1*
X7894Y28058D1*
X7919Y28043D1*
X7936Y28028D1*
X7948Y28013D1*
X7956Y27998D1*
X7962Y27983D1*
X7967Y27968D1*
X7970Y27953D1*
X7971Y27938D1*
X7972Y27923D1*
Y27908D1*
X7973Y27893D1*
Y27878D1*
Y27863D1*
X7972Y27848D1*
X7970Y27833D1*
X7967Y27818D1*
X7962Y27803D1*
X7958Y27788D1*
X7952Y27773D1*
X7946Y27758D1*
X7939Y27744D1*
X7931Y27729D1*
X7921Y27714D1*
X7910Y27699D1*
X7897Y27684D1*
X7882Y27669D1*
X7863Y27654D1*
X7837Y27639D1*
X7801Y27624D1*
X7754Y27609D1*
X7703Y27594D1*
X7150Y27773D2*
X7135Y27758D1*
X7122Y27744D1*
X7111Y27729D1*
X7100Y27714D1*
X7088Y27699D1*
X7074Y27684D1*
X7060Y27669D1*
X7045Y27654D1*
X7030Y27639D1*
X7015Y27624D1*
X7000Y27609D1*
X6985Y27594D1*
X6970Y27579D1*
X6955Y27564D1*
X6940Y27549D1*
X6925Y27534D1*
X7180Y27773D2*
X7182Y27758D1*
X7186Y27744D1*
X7192Y27729D1*
X7199Y27714D1*
X7207Y27699D1*
X7215Y27684D1*
X7225Y27669D1*
X7234Y27654D1*
X7243Y27639D1*
X7250Y27624D1*
X7258Y27609D1*
X7266Y27594D1*
X7273Y27579D1*
X7281Y27564D1*
X7290Y27549D1*
X7299Y27534D1*
X6602Y27147D2*
Y27132D1*
X6601Y27118D1*
X6599Y27103D1*
X6596Y27088D1*
X6592Y27073D1*
X6588Y27058D1*
X6585Y27043D1*
X6581Y27028D1*
X6577Y27013D1*
X6574Y26998D1*
X6572Y26983D1*
X6570Y26968D1*
X6566Y26953D1*
X6562Y26938D1*
X6559Y26923D1*
X6557Y26908D1*
X6555Y26893D1*
X6551Y26878D1*
X6547Y26863D1*
X6544Y26848D1*
X6542Y26833D1*
X6540Y26818D1*
X6536Y26803D1*
X6532Y26788D1*
X6529Y26773D1*
X6525Y26758D1*
X6521Y26744D1*
X6517Y26729D1*
X6514Y26714D1*
X6512Y26699D1*
X6510Y26684D1*
X6506Y26669D1*
X6502Y26654D1*
X6499Y26639D1*
X6497Y26624D1*
X6495Y26609D1*
X6491Y26594D1*
X6487Y26579D1*
X6484Y26564D1*
X6483Y26549D1*
X6482Y26534D1*
X6961Y27147D2*
X6989Y27132D1*
X7012Y27118D1*
X7030Y27103D1*
X7042Y27088D1*
X7052Y27073D1*
X7058Y27058D1*
X7062Y27043D1*
X7064Y27028D1*
X7065Y27013D1*
Y26998D1*
Y26983D1*
X7063Y26968D1*
X7059Y26953D1*
X7053Y26938D1*
X7046Y26923D1*
X7038Y26908D1*
X7028Y26893D1*
X7014Y26878D1*
X6994Y26863D1*
X6967Y26848D1*
X6934Y26833D1*
X6902Y26818D1*
X6871Y26803D1*
X6885Y26788D1*
X6898Y26773D1*
X6909Y26758D1*
X6918Y26744D1*
X6927Y26729D1*
X6936Y26714D1*
X6945Y26699D1*
X6953Y26684D1*
X6959Y26669D1*
X6966Y26654D1*
X6972Y26639D1*
X6979Y26624D1*
X6985Y26609D1*
X6990Y26594D1*
X6996Y26579D1*
X7003Y26564D1*
X7011Y26549D1*
X7020Y26534D1*
X7185Y27147D2*
X7191Y27132D1*
X7197Y27118D1*
X7204Y27103D1*
X7212Y27088D1*
X7221Y27073D1*
X7230Y27058D1*
X7239Y27043D1*
X7248Y27028D1*
X7256Y27013D1*
X7264Y26998D1*
X7272Y26983D1*
X7280Y26968D1*
X7290Y26953D1*
X7299Y26938D1*
X7308Y26923D1*
X7316Y26908D1*
X7323Y26893D1*
X7331Y26878D1*
X7340Y26863D1*
X7350Y26848D1*
X7340Y26833D1*
X7329Y26818D1*
X7317Y26803D1*
X7304Y26788D1*
X7289Y26773D1*
X7275Y26758D1*
X7260Y26744D1*
X7245Y26729D1*
X7230Y26714D1*
X7215Y26699D1*
X7200Y26684D1*
X7185Y26669D1*
X7170Y26654D1*
X7155Y26639D1*
X7140Y26624D1*
X7125Y26609D1*
X7110Y26594D1*
X7095Y26579D1*
X7080Y26564D1*
X7065Y26549D1*
X7050Y26534D1*
X7260Y27147D2*
X7269Y27132D1*
X7278Y27118D1*
X7286Y27103D1*
X7293Y27088D1*
X7301Y27073D1*
X7310Y27058D1*
X7320Y27043D1*
X7329Y27028D1*
X7338Y27013D1*
X7346Y26998D1*
X7353Y26983D1*
X7361Y26968D1*
X7368Y26953D1*
X7377Y26938D1*
X7389Y26923D1*
X7405Y26908D1*
X7424Y26893D1*
X7634Y27147D2*
X7621Y27132D1*
X7610Y27118D1*
X7599Y27103D1*
X7587Y27088D1*
X7573Y27073D1*
X7559Y27058D1*
X7544Y27043D1*
X7529Y27028D1*
X7514Y27013D1*
X7499Y26998D1*
X7484Y26983D1*
X7469Y26968D1*
X7455Y26953D1*
X7442Y26938D1*
X7431Y26923D1*
X7420Y26908D1*
X7409Y26893D1*
X7739Y27147D2*
X7724Y27132D1*
X7709Y27118D1*
X7694Y27103D1*
X7679Y27088D1*
X7664Y27073D1*
X7649Y27058D1*
X7636Y27043D1*
X7625Y27028D1*
X7614Y27013D1*
X7601Y26998D1*
X7588Y26983D1*
X7574Y26968D1*
X7559Y26953D1*
X7544Y26938D1*
X7529Y26923D1*
X7514Y26908D1*
X7499Y26893D1*
X7484Y26878D1*
X7469Y26863D1*
X7454Y26848D1*
X7439Y26833D1*
X7449Y26818D1*
X7457Y26803D1*
X7465Y26788D1*
X7473Y26773D1*
X7481Y26758D1*
X7490Y26744D1*
X7500Y26729D1*
X7509Y26714D1*
X7517Y26699D1*
X7525Y26684D1*
X7533Y26669D1*
X7541Y26654D1*
X7550Y26639D1*
X7559Y26624D1*
X7569Y26609D1*
X7577Y26594D1*
X7585Y26579D1*
X7592Y26564D1*
X7598Y26549D1*
X7604Y26534D1*
X7828Y27147D2*
Y27132D1*
X7826Y27118D1*
X7822Y27103D1*
X7818Y27088D1*
X7816Y27073D1*
X7814Y27058D1*
X7811Y27043D1*
X7807Y27028D1*
X7803Y27013D1*
X7800Y26998D1*
X7797Y26983D1*
X7793Y26968D1*
X7789Y26953D1*
X7786Y26938D1*
X7784Y26923D1*
X7781Y26908D1*
X7778Y26893D1*
X7774Y26878D1*
X7771Y26863D1*
X7769Y26848D1*
X7766Y26833D1*
X7763Y26818D1*
X7759Y26803D1*
X7756Y26788D1*
X7754Y26773D1*
X7751Y26758D1*
X7748Y26744D1*
X7744Y26729D1*
X7741Y26714D1*
X7739Y26699D1*
X7737Y26684D1*
X7733Y26669D1*
X7729Y26654D1*
X7725Y26639D1*
X7722Y26624D1*
X7718Y26609D1*
X7714Y26594D1*
X7711Y26579D1*
X7710Y26564D1*
X7709Y26549D1*
Y26534D1*
X8113Y27147D2*
X8146Y27132D1*
X8174Y27118D1*
X8196Y27103D1*
X8212Y27088D1*
X8225Y27073D1*
X8234Y27058D1*
X8243Y27043D1*
X8250Y27028D1*
X8256Y27013D1*
X8262Y26998D1*
X8267Y26983D1*
X8272Y26968D1*
X8275Y26953D1*
X8276Y26938D1*
X8277Y26923D1*
Y26908D1*
Y26893D1*
Y26878D1*
Y26863D1*
Y26848D1*
X8275Y26833D1*
X8271Y26818D1*
X8267Y26803D1*
X8264Y26788D1*
X8261Y26773D1*
X8256Y26758D1*
X8250Y26744D1*
X8243Y26729D1*
X8235Y26714D1*
X8227Y26699D1*
X8217Y26684D1*
X8207Y26669D1*
X8197Y26654D1*
X8185Y26639D1*
X8171Y26624D1*
X8156Y26609D1*
X8139Y26594D1*
X8118Y26579D1*
X8091Y26564D1*
X8058Y26549D1*
X8023Y26534D1*
X6661Y27103D2*
Y27088D1*
Y27073D1*
X6659Y27058D1*
X6655Y27043D1*
X6652Y27028D1*
X6649Y27013D1*
X6647Y26998D1*
X6644Y26983D1*
X6641Y26968D1*
X6637Y26953D1*
X6634Y26938D1*
X6632Y26923D1*
X6629Y26908D1*
X6623Y26893D1*
X6613Y26878D1*
X6602Y26863D1*
X6916Y27103D2*
X6942Y27088D1*
X6963Y27073D1*
X6980Y27058D1*
X6988Y27043D1*
X6994Y27028D1*
X6999Y27013D1*
X6997Y26998D1*
X6994Y26983D1*
X6989Y26968D1*
X6982Y26953D1*
X6972Y26938D1*
X6958Y26923D1*
X6939Y26908D1*
X6912Y26893D1*
X6878Y26878D1*
X6841Y26863D1*
X7888Y27088D2*
Y27073D1*
X7886Y27058D1*
X7882Y27043D1*
X7878Y27028D1*
X7876Y27013D1*
X7874Y26998D1*
X7871Y26983D1*
X7867Y26968D1*
X7863Y26953D1*
X7861Y26938D1*
X7859Y26923D1*
X7856Y26908D1*
X7852Y26893D1*
X7848Y26878D1*
X7845Y26863D1*
X7842Y26848D1*
X7838Y26833D1*
X7834Y26818D1*
X7831Y26803D1*
X7829Y26788D1*
X7826Y26773D1*
X7822Y26758D1*
X7818Y26744D1*
X7816Y26729D1*
X7814Y26714D1*
X7811Y26699D1*
X7807Y26684D1*
X7803Y26669D1*
X7800Y26654D1*
X7796Y26639D1*
X7790Y26624D1*
X7780Y26609D1*
X7769Y26594D1*
X8053Y27088D2*
X8092Y27073D1*
X8124Y27058D1*
X8149Y27043D1*
X8166Y27028D1*
X8177Y27013D1*
X8185Y26998D1*
X8192Y26983D1*
X8197Y26968D1*
X8200Y26953D1*
X8201Y26938D1*
X8202Y26923D1*
Y26908D1*
Y26893D1*
Y26878D1*
Y26863D1*
Y26848D1*
X8200Y26833D1*
X8196Y26818D1*
X8192Y26803D1*
X8187Y26788D1*
X8182Y26773D1*
X8175Y26758D1*
X8168Y26744D1*
X8161Y26729D1*
X8151Y26714D1*
X8140Y26699D1*
X8126Y26684D1*
X8111Y26669D1*
X8093Y26654D1*
X8067Y26639D1*
X8030Y26624D1*
X7984Y26609D1*
X7933Y26594D1*
X6602Y26818D2*
Y26803D1*
Y26788D1*
X6601Y26773D1*
X6599Y26758D1*
X6596Y26744D1*
X6592Y26729D1*
X6588Y26714D1*
X6585Y26699D1*
X6581Y26684D1*
X6577Y26669D1*
X6574Y26654D1*
X6572Y26639D1*
X6570Y26624D1*
X6566Y26609D1*
X6562Y26594D1*
X6559Y26579D1*
X6558Y26564D1*
X6557Y26549D1*
Y26534D1*
X6751Y26818D2*
X6778Y26803D1*
X6801Y26788D1*
X6819Y26773D1*
X6833Y26758D1*
X6843Y26744D1*
X6851Y26729D1*
X6859Y26714D1*
X6867Y26699D1*
X6875Y26684D1*
X6882Y26669D1*
X6889Y26654D1*
X6895Y26639D1*
X6900Y26624D1*
X6906Y26609D1*
X6911Y26594D1*
X6916Y26579D1*
X6921Y26564D1*
X6926Y26549D1*
X6931Y26534D1*
X7380Y26773D2*
X7365Y26758D1*
X7352Y26744D1*
X7341Y26729D1*
X7330Y26714D1*
X7317Y26699D1*
X7304Y26684D1*
X7289Y26669D1*
X7275Y26654D1*
X7260Y26639D1*
X7245Y26624D1*
X7230Y26609D1*
X7215Y26594D1*
X7200Y26579D1*
X7185Y26564D1*
X7170Y26549D1*
X7155Y26534D1*
X7409Y26773D2*
X7412Y26758D1*
X7416Y26744D1*
X7422Y26729D1*
X7429Y26714D1*
X7436Y26699D1*
X7445Y26684D1*
X7455Y26669D1*
X7464Y26654D1*
X7472Y26639D1*
X7480Y26624D1*
X7488Y26609D1*
X7495Y26594D1*
X7503Y26579D1*
X7511Y26564D1*
X7520Y26549D1*
X7529Y26534D1*
X11966Y27162D2*
X11911Y27147D1*
X11866Y27132D1*
X11832Y27118D1*
X11807Y27103D1*
X11786Y27088D1*
X11769Y27073D1*
X11754Y27058D1*
X11741Y27043D1*
X11729Y27028D1*
X11718Y27013D1*
X11709Y26998D1*
X11701Y26983D1*
X11693Y26968D1*
X11686Y26953D1*
X11679Y26938D1*
X11672Y26923D1*
X11667Y26908D1*
X11662Y26893D1*
X11657Y26878D1*
X11654Y26863D1*
X11653Y26848D1*
X11652Y26833D1*
Y26818D1*
Y26803D1*
Y26788D1*
Y26773D1*
Y26758D1*
Y26744D1*
Y26729D1*
X11654Y26714D1*
X11658Y26699D1*
X11662Y26684D1*
X11667Y26669D1*
X11672Y26654D1*
X11679Y26639D1*
X11688Y26624D1*
X11700Y26609D1*
X11714Y26594D1*
X11730Y26579D1*
X11753Y26564D1*
X11784Y26549D1*
X11827Y26534D1*
X11876Y26519D1*
X12011Y27162D2*
X12061Y27147D1*
X12101Y27132D1*
X12131Y27118D1*
X12154Y27103D1*
X12170Y27088D1*
X12183Y27073D1*
X12193Y27058D1*
X12201Y27043D1*
X12208Y27028D1*
X12213Y27013D1*
X12216Y26998D1*
X12211Y26983D1*
X12205Y26968D1*
X12430Y27147D2*
X12423Y27132D1*
X12418Y27118D1*
X12414Y27103D1*
X12409Y27088D1*
X12405Y27073D1*
X12402Y27058D1*
X12400Y27043D1*
X12398Y27028D1*
X12394Y27013D1*
X12390Y26998D1*
X12387Y26983D1*
X12385Y26968D1*
X12383Y26953D1*
X12379Y26938D1*
X12375Y26923D1*
X12372Y26908D1*
X12368Y26893D1*
X12364Y26878D1*
X12360Y26863D1*
X12357Y26848D1*
X12355Y26833D1*
X12353Y26818D1*
X12349Y26803D1*
X12345Y26788D1*
X12342Y26773D1*
X12340Y26758D1*
X12338Y26744D1*
X12334Y26729D1*
X12330Y26714D1*
X12327Y26699D1*
X12325Y26684D1*
X12323Y26669D1*
X12319Y26654D1*
X12315Y26639D1*
X12312Y26624D1*
X12309Y26609D1*
X12304Y26594D1*
X12300Y26579D1*
X12298Y26564D1*
X12296Y26549D1*
X12295Y26534D1*
X12505Y27147D2*
X12507Y27132D1*
X12511Y27118D1*
X12517Y27103D1*
X12524Y27088D1*
X12531Y27073D1*
X12538Y27058D1*
X12546Y27043D1*
X12553Y27028D1*
X12559Y27013D1*
X12564Y26998D1*
X12570Y26983D1*
X12576Y26968D1*
X12583Y26953D1*
X12591Y26938D1*
X12598Y26923D1*
X12606Y26908D1*
X12613Y26893D1*
X12620Y26878D1*
X12627Y26863D1*
X12633Y26848D1*
X12639Y26833D1*
X12645Y26818D1*
X12651Y26803D1*
X12658Y26788D1*
X12664Y26773D1*
X12669Y26758D1*
X12674Y26744D1*
X12679Y26729D1*
X12684Y26714D1*
X12689Y26699D1*
X12694Y26684D1*
X12699Y26669D1*
X12706Y26654D1*
X12714Y26639D1*
X12834Y27147D2*
X12831Y27132D1*
X12828Y27118D1*
X12824Y27103D1*
X12821Y27088D1*
X12817Y27073D1*
X12813Y27058D1*
X12809Y27043D1*
X12806Y27028D1*
X12804Y27013D1*
X12802Y26998D1*
X12798Y26983D1*
X12794Y26968D1*
X12791Y26953D1*
X12789Y26938D1*
X12787Y26923D1*
X12783Y26908D1*
X12779Y26893D1*
X12776Y26878D1*
X12774Y26863D1*
X12772Y26848D1*
X12768Y26833D1*
X12764Y26818D1*
X12761Y26803D1*
X12759Y26788D1*
X12757Y26773D1*
X12753Y26758D1*
X12749Y26744D1*
X12746Y26729D1*
X12744Y26714D1*
X12742Y26699D1*
X12737Y26684D1*
X12731Y26669D1*
X12723Y26654D1*
X12714Y26639D1*
X12908Y27147D2*
X12902Y27132D1*
X12897Y27118D1*
X12895Y27103D1*
X12892Y27088D1*
X12888Y27073D1*
X12884Y27058D1*
X12881Y27043D1*
X12879Y27028D1*
X12876Y27013D1*
X12873Y26998D1*
X12869Y26983D1*
X12866Y26968D1*
X12864Y26953D1*
X12862Y26938D1*
X12858Y26923D1*
X12854Y26908D1*
X12850Y26893D1*
X12847Y26878D1*
X12843Y26863D1*
X12839Y26848D1*
X12836Y26833D1*
X12834Y26818D1*
X12832Y26803D1*
X12828Y26788D1*
X12824Y26773D1*
X12821Y26758D1*
X12819Y26744D1*
X12817Y26729D1*
X12813Y26714D1*
X12809Y26699D1*
X12806Y26684D1*
X12804Y26669D1*
X12802Y26654D1*
X12798Y26639D1*
X12794Y26624D1*
X12791Y26609D1*
X12787Y26594D1*
X12783Y26579D1*
X12779Y26564D1*
X12776Y26549D1*
X12774Y26534D1*
X13058Y27147D2*
Y27132D1*
X13056Y27118D1*
X13052Y27103D1*
X13048Y27088D1*
X13045Y27073D1*
X13044Y27058D1*
X13041Y27043D1*
X13037Y27028D1*
X13033Y27013D1*
X13030Y26998D1*
X13027Y26983D1*
X13022Y26968D1*
X13018Y26953D1*
X13016Y26938D1*
X13014Y26923D1*
X13011Y26908D1*
X13007Y26893D1*
X13003Y26878D1*
X13001Y26863D1*
X12999Y26848D1*
X12996Y26833D1*
X12992Y26818D1*
X12988Y26803D1*
X12986Y26788D1*
X12984Y26773D1*
X12981Y26758D1*
X12977Y26744D1*
X12973Y26729D1*
X12971Y26714D1*
X12969Y26699D1*
X12966Y26684D1*
X12962Y26669D1*
X12958Y26654D1*
X12955Y26639D1*
X12952Y26624D1*
X12948Y26609D1*
X12944Y26594D1*
X12941Y26579D1*
X12939Y26564D1*
Y26549D1*
X12938Y26534D1*
X13342Y27147D2*
X13376Y27132D1*
X13404Y27118D1*
X13426Y27103D1*
X13442Y27088D1*
X13454Y27073D1*
X13464Y27058D1*
X13473Y27043D1*
X13480Y27028D1*
X13486Y27013D1*
X13491Y26998D1*
X13497Y26983D1*
X13501Y26968D1*
X13504Y26953D1*
X13506Y26938D1*
Y26923D1*
X13507Y26908D1*
Y26893D1*
Y26878D1*
Y26863D1*
X13506Y26848D1*
X13504Y26833D1*
X13501Y26818D1*
X13497Y26803D1*
X13494Y26788D1*
X13490Y26773D1*
X13486Y26758D1*
X13480Y26744D1*
X13473Y26729D1*
X13465Y26714D1*
X13456Y26699D1*
X13447Y26684D1*
X13437Y26669D1*
X13427Y26654D1*
X13415Y26639D1*
X13401Y26624D1*
X13386Y26609D1*
X13369Y26594D1*
X13347Y26579D1*
X13320Y26564D1*
X13288Y26549D1*
X13253Y26534D1*
X11951Y27088D2*
X11911Y27073D1*
X11877Y27058D1*
X11849Y27043D1*
X11825Y27028D1*
X11808Y27013D1*
X11794Y26998D1*
X11783Y26983D1*
X11772Y26968D1*
X11762Y26953D1*
X11754Y26938D1*
X11748Y26923D1*
X11742Y26908D1*
X11737Y26893D1*
X11732Y26878D1*
X11729Y26863D1*
X11728Y26848D1*
X11727Y26833D1*
Y26818D1*
Y26803D1*
Y26788D1*
Y26773D1*
Y26758D1*
Y26744D1*
Y26729D1*
X11729Y26714D1*
X11733Y26699D1*
X11740Y26684D1*
X11748Y26669D1*
X11761Y26654D1*
X11777Y26639D1*
X11827Y26624D1*
X11909Y26609D1*
X12011Y26594D1*
X12041Y27088D2*
X12068Y27073D1*
X12091Y27058D1*
X12109Y27043D1*
X12122Y27028D1*
X12132Y27013D1*
X12141Y26998D1*
X12151Y26983D1*
X12160Y26968D1*
X13118Y27088D2*
X13117Y27073D1*
X13115Y27058D1*
X13112Y27043D1*
X13108Y27028D1*
X13105Y27013D1*
X13103Y26998D1*
X13101Y26983D1*
X13097Y26968D1*
X13093Y26953D1*
X13090Y26938D1*
X13088Y26923D1*
X13086Y26908D1*
X13082Y26893D1*
X13078Y26878D1*
X13075Y26863D1*
X13072Y26848D1*
X13067Y26833D1*
X13063Y26818D1*
X13061Y26803D1*
X13059Y26788D1*
X13056Y26773D1*
X13052Y26758D1*
X13048Y26744D1*
X13046Y26729D1*
X13044Y26714D1*
X13041Y26699D1*
X13037Y26684D1*
X13033Y26669D1*
X13030Y26654D1*
X13026Y26639D1*
X13019Y26624D1*
X13010Y26609D1*
X12998Y26594D1*
X13282Y27088D2*
X13321Y27073D1*
X13354Y27058D1*
X13378Y27043D1*
X13396Y27028D1*
X13407Y27013D1*
X13415Y26998D1*
X13421Y26983D1*
X13426Y26968D1*
X13429Y26953D1*
X13431Y26938D1*
X13432Y26923D1*
Y26908D1*
Y26893D1*
Y26878D1*
Y26863D1*
Y26848D1*
X13430Y26833D1*
X13426Y26818D1*
X13422Y26803D1*
X13417Y26788D1*
X13412Y26773D1*
X13405Y26758D1*
X13398Y26744D1*
X13390Y26729D1*
X13381Y26714D1*
X13369Y26699D1*
X13356Y26684D1*
X13341Y26669D1*
X13323Y26654D1*
X13297Y26639D1*
X13260Y26624D1*
X13214Y26609D1*
X13163Y26594D1*
X12460Y27043D2*
Y27028D1*
Y27013D1*
X12459Y26998D1*
X12457Y26983D1*
X12454Y26968D1*
X12450Y26953D1*
X12447Y26938D1*
X12445Y26923D1*
X12443Y26908D1*
X12439Y26893D1*
X12435Y26878D1*
X12432Y26863D1*
X12430Y26848D1*
X12428Y26833D1*
X12424Y26818D1*
X12420Y26803D1*
X12417Y26788D1*
X12415Y26773D1*
X12413Y26758D1*
X12409Y26744D1*
X12405Y26729D1*
X12402Y26714D1*
X12398Y26699D1*
X12394Y26684D1*
X12390Y26669D1*
X12387Y26654D1*
X12385Y26639D1*
X12383Y26624D1*
X12379Y26609D1*
X12375Y26594D1*
X12372Y26579D1*
X12371Y26564D1*
X12370Y26549D1*
Y26534D1*
X12490Y27043D2*
X12492Y27028D1*
X12496Y27013D1*
X12500Y26998D1*
X12505Y26983D1*
X12510Y26968D1*
X12517Y26953D1*
X12524Y26938D1*
X12531Y26923D1*
X12538Y26908D1*
X12544Y26893D1*
X12549Y26878D1*
X12555Y26863D1*
X12561Y26848D1*
X12568Y26833D1*
X12576Y26818D1*
X12583Y26803D1*
X12589Y26788D1*
X12594Y26773D1*
X12600Y26758D1*
X12606Y26744D1*
X12613Y26729D1*
X12621Y26714D1*
X12627Y26699D1*
X12633Y26684D1*
X12639Y26669D1*
X12645Y26654D1*
X12651Y26639D1*
X12658Y26624D1*
X12665Y26609D1*
X12672Y26594D1*
X12678Y26579D1*
X12684Y26564D1*
X12691Y26549D1*
X12699Y26534D1*
X11936Y26848D2*
X11934Y26833D1*
X11930Y26818D1*
X11925Y26803D1*
X11921Y26788D1*
X12205Y26848D2*
X12198Y26833D1*
X12194Y26818D1*
X12191Y26803D1*
X12188Y26788D1*
X12185Y26773D1*
X12181Y26758D1*
X12178Y26744D1*
X12176Y26729D1*
X12173Y26714D1*
X12169Y26699D1*
X12166Y26684D1*
X12163Y26669D1*
X12161Y26654D1*
X12158Y26639D1*
X12153Y26624D1*
X12144Y26609D1*
X12129Y26594D1*
X12108Y26579D1*
X12078Y26564D1*
X12040Y26549D1*
X11991Y26534D1*
X11936Y26519D1*
X12116Y26788D2*
X12113Y26773D1*
X12110Y26758D1*
X12106Y26744D1*
X12103Y26729D1*
X12101Y26714D1*
X12098Y26699D1*
X12094Y26684D1*
X12087Y26669D1*
X12078Y26654D1*
X12049Y26639D1*
X11994Y26624D1*
X11902Y26609D1*
X11786Y26594D1*
X11061Y28162D2*
X11011Y28147D1*
X10971Y28132D1*
X10940Y28118D1*
X10917Y28103D1*
X10899Y28088D1*
X10882Y28073D1*
X10867Y28058D1*
X10852Y28043D1*
X10839Y28028D1*
X10828Y28013D1*
X10819Y27998D1*
X10811Y27983D1*
X10804Y27968D1*
X10797Y27953D1*
X10792Y27938D1*
X10787Y27923D1*
X10782Y27908D1*
X10779Y27893D1*
X10777Y27878D1*
X10775Y27863D1*
X10771Y27848D1*
X10767Y27833D1*
X10764Y27818D1*
X10763Y27803D1*
X10762Y27788D1*
X10763Y27773D1*
X10764Y27758D1*
X10768Y27744D1*
X10772Y27729D1*
X10774Y27714D1*
X10776Y27699D1*
X10779Y27684D1*
X10783Y27669D1*
X10790Y27654D1*
X10798Y27639D1*
X10807Y27624D1*
X10817Y27609D1*
X10830Y27594D1*
X10846Y27579D1*
X10868Y27564D1*
X10897Y27549D1*
X10939Y27534D1*
X10986Y27519D1*
X11106Y28162D2*
X11156Y28147D1*
X11196Y28132D1*
X11227Y28118D1*
X11249Y28103D1*
X11266Y28088D1*
X11278Y28073D1*
X11288Y28058D1*
X11296Y28043D1*
X11303Y28028D1*
X11309Y28013D1*
X11312Y27998D1*
X11314Y27983D1*
X11315Y27968D1*
X12886Y28162D2*
X12836Y28147D1*
X12796Y28132D1*
X12766Y28118D1*
X12745Y28103D1*
X12731Y28088D1*
X12720Y28073D1*
X12711Y28058D1*
X12704Y28043D1*
X12698Y28028D1*
X12695Y28013D1*
X12694Y27998D1*
X12695Y27983D1*
X12699Y27968D1*
X12704Y27953D1*
X12711Y27938D1*
X12719Y27923D1*
X12731Y27908D1*
X12746Y27893D1*
X12766Y27878D1*
X12789Y27863D1*
X12815Y27848D1*
X12845Y27833D1*
X12878Y27818D1*
X12911Y27803D1*
X12941Y27788D1*
X12966Y27773D1*
X12986Y27758D1*
X13001Y27744D1*
X13013Y27729D1*
X13016Y27714D1*
X13018Y27699D1*
X13014Y27684D1*
X13008Y27669D1*
X13000Y27654D1*
X12984Y27639D1*
X12935Y27624D1*
X12854Y27609D1*
X12752Y27594D1*
X12931Y28162D2*
X12984Y28147D1*
X13025Y28132D1*
X13054Y28118D1*
X13075Y28103D1*
X13091Y28088D1*
X13103Y28073D1*
X13113Y28058D1*
X13121Y28043D1*
X13128Y28028D1*
X13133Y28013D1*
X13136Y27998D1*
X13118Y27983D1*
X13096Y27968D1*
X11495Y28147D2*
X11494Y28132D1*
X11492Y28118D1*
X11489Y28103D1*
X11485Y28088D1*
X11482Y28073D1*
X11480Y28058D1*
X11478Y28043D1*
X11474Y28028D1*
X11470Y28013D1*
X11467Y27998D1*
X11464Y27983D1*
X11459Y27968D1*
X11455Y27953D1*
X11452Y27938D1*
X11450Y27923D1*
X11448Y27908D1*
X11444Y27893D1*
X11440Y27878D1*
X11437Y27863D1*
X11436Y27848D1*
X11433Y27833D1*
X11429Y27818D1*
X11425Y27803D1*
X11422Y27788D1*
X11421Y27773D1*
X11418Y27758D1*
X11414Y27744D1*
X11410Y27729D1*
X11407Y27714D1*
X11404Y27699D1*
X11399Y27684D1*
X11395Y27669D1*
X11393Y27654D1*
X11391Y27639D1*
X11388Y27624D1*
X11384Y27609D1*
X11380Y27594D1*
X11378Y27579D1*
X11376Y27564D1*
Y27549D1*
X11375Y27534D1*
X11779Y28147D2*
X11808Y28132D1*
X11831Y28118D1*
X11850Y28103D1*
X11865Y28088D1*
X11875Y28073D1*
X11882Y28058D1*
X11888Y28043D1*
X11893Y28028D1*
X11896Y28013D1*
X11895Y27998D1*
X11892Y27983D1*
X11888Y27968D1*
X11884Y27953D1*
X11878Y27938D1*
X11871Y27923D1*
X11860Y27908D1*
X11845Y27893D1*
X11828Y27878D1*
X11811Y27863D1*
X11794Y27848D1*
X11816Y27833D1*
X11835Y27818D1*
X11849Y27803D1*
X11860Y27788D1*
X11867Y27773D1*
X11873Y27758D1*
X11878Y27744D1*
X11881Y27729D1*
X11880Y27714D1*
X11877Y27699D1*
X11873Y27684D1*
X11869Y27669D1*
X11863Y27654D1*
X11856Y27639D1*
X11847Y27624D1*
X11836Y27609D1*
X11822Y27594D1*
X11805Y27579D1*
X11782Y27564D1*
X11752Y27549D1*
X11719Y27534D1*
X12078Y28147D2*
Y28132D1*
Y28118D1*
X12076Y28103D1*
X12072Y28088D1*
X12068Y28073D1*
X12066Y28058D1*
X12064Y28043D1*
X12061Y28028D1*
X12057Y28013D1*
X12054Y27998D1*
X12051Y27983D1*
X12049Y27968D1*
X12046Y27953D1*
X12043Y27938D1*
X12039Y27923D1*
X12035Y27908D1*
X12032Y27893D1*
X12028Y27878D1*
X12024Y27863D1*
X12021Y27848D1*
X12019Y27833D1*
X12016Y27818D1*
X12013Y27803D1*
X12009Y27788D1*
X12006Y27773D1*
X12005Y27758D1*
X12004Y27744D1*
Y27729D1*
Y27714D1*
Y27699D1*
Y27684D1*
Y27669D1*
X12006Y27654D1*
X12010Y27639D1*
X12017Y27624D1*
X12025Y27609D1*
X12037Y27594D1*
X12053Y27579D1*
X12075Y27564D1*
X12106Y27549D1*
X12149Y27534D1*
X12198Y27519D1*
X12153Y28147D2*
Y28132D1*
X12151Y28118D1*
X12147Y28103D1*
X12143Y28088D1*
X12141Y28073D1*
X12139Y28058D1*
X12136Y28043D1*
X12132Y28028D1*
X12128Y28013D1*
X12126Y27998D1*
X12124Y27983D1*
X12121Y27968D1*
X12117Y27953D1*
X12113Y27938D1*
X12111Y27923D1*
X12109Y27908D1*
X12106Y27893D1*
X12102Y27878D1*
X12098Y27863D1*
X12095Y27848D1*
X12092Y27833D1*
X12088Y27818D1*
X12084Y27803D1*
X12081Y27788D1*
X12079Y27773D1*
X12078Y27758D1*
X12076Y27744D1*
X12073Y27729D1*
X12071Y27714D1*
X12072Y27699D1*
X12075Y27684D1*
X12080Y27669D1*
X12086Y27654D1*
X12100Y27639D1*
X12144Y27624D1*
X12215Y27609D1*
X12303Y27594D1*
X12497Y28147D2*
X12490Y28132D1*
X12486Y28118D1*
X12483Y28103D1*
X12480Y28088D1*
X12476Y28073D1*
X12472Y28058D1*
X12470Y28043D1*
X12468Y28028D1*
X12465Y28013D1*
X12461Y27998D1*
X12457Y27983D1*
X12454Y27968D1*
X12451Y27953D1*
X12447Y27938D1*
X12443Y27923D1*
X12440Y27908D1*
X12438Y27893D1*
X12435Y27878D1*
X12431Y27863D1*
X12427Y27848D1*
X12424Y27833D1*
X12421Y27818D1*
X12417Y27803D1*
X12413Y27788D1*
X12409Y27773D1*
X12406Y27758D1*
X12402Y27744D1*
X12397Y27729D1*
X12392Y27714D1*
X12385Y27699D1*
X12376Y27684D1*
X12366Y27669D1*
X12353Y27654D1*
X12336Y27639D1*
X12287Y27624D1*
X12214Y27609D1*
X12123Y27594D1*
X12572Y28147D2*
X12565Y28132D1*
X12560Y28118D1*
X12556Y28103D1*
X12552Y28088D1*
X12547Y28073D1*
X12545Y28058D1*
X12543Y28043D1*
X12540Y28028D1*
X12536Y28013D1*
X12532Y27998D1*
X12530Y27983D1*
X12528Y27968D1*
X12525Y27953D1*
X12521Y27938D1*
X12517Y27923D1*
X12515Y27908D1*
X12513Y27893D1*
X12510Y27878D1*
X12506Y27863D1*
X12502Y27848D1*
X12499Y27833D1*
X12496Y27818D1*
X12492Y27803D1*
X12487Y27788D1*
X12484Y27773D1*
X12481Y27758D1*
X12477Y27744D1*
X12472Y27729D1*
X12467Y27714D1*
X12462Y27699D1*
X12455Y27684D1*
X12448Y27669D1*
X12440Y27654D1*
X12432Y27639D1*
X12422Y27624D1*
X12412Y27609D1*
X12399Y27594D1*
X12382Y27579D1*
X12360Y27564D1*
X12328Y27549D1*
X12288Y27534D1*
X12243Y27519D1*
X13395Y28147D2*
X13368Y28132D1*
X13344Y28118D1*
X13324Y28103D1*
X13307Y28088D1*
X13293Y28073D1*
X13282Y28058D1*
X13273Y28043D1*
X13267Y28028D1*
X13263Y28013D1*
X13260Y27998D1*
X13500Y28147D2*
X13528Y28132D1*
X13552Y28118D1*
X13571Y28103D1*
X13586Y28088D1*
X13597Y28073D1*
X13606Y28058D1*
X13612Y28043D1*
X13616Y28028D1*
X13618Y28013D1*
X13619Y27998D1*
Y27983D1*
X13617Y27968D1*
X13613Y27953D1*
X13606Y27938D1*
X13598Y27923D1*
X13586Y27908D1*
X13571Y27893D1*
X13557Y27878D1*
X13544Y27863D1*
X13539Y27848D1*
X13549Y27833D1*
X13559Y27818D1*
X13567Y27803D1*
X13573Y27788D1*
X13579Y27773D1*
X13584Y27758D1*
X13587Y27744D1*
X13588Y27729D1*
Y27714D1*
X13587Y27699D1*
X13583Y27684D1*
X13579Y27669D1*
X13574Y27654D1*
X13566Y27639D1*
X13556Y27624D1*
X13545Y27609D1*
X13532Y27594D1*
X13517Y27579D1*
X13498Y27564D1*
X13471Y27549D1*
X13435Y27534D1*
X13395Y27519D1*
X13440Y28103D2*
X13411Y28088D1*
X13386Y28073D1*
X13366Y28058D1*
X13352Y28043D1*
X13341Y28028D1*
X13330Y28013D1*
X13320Y27998D1*
X13455Y28103D2*
X13482Y28088D1*
X13505Y28073D1*
X13522Y28058D1*
X13534Y28043D1*
X13543Y28028D1*
X13551Y28013D1*
X13559Y27998D1*
X13552Y27983D1*
X13546Y27968D1*
X13539Y27953D1*
X13529Y27938D1*
X13515Y27923D1*
X13487Y27908D1*
X13454Y27893D1*
X13425Y27878D1*
X13404Y27863D1*
X13390Y27848D1*
X13380Y27833D1*
X13425Y27818D1*
X13460Y27803D1*
X13486Y27788D1*
X13498Y27773D1*
X13506Y27758D1*
X13511Y27744D1*
X13513Y27729D1*
X13514Y27714D1*
Y27699D1*
X13512Y27684D1*
X13508Y27669D1*
X13501Y27654D1*
X13492Y27639D1*
X13478Y27624D1*
X13437Y27609D1*
X13371Y27594D1*
X13290Y27579D1*
X11031Y28088D2*
X11004Y28073D1*
X10980Y28058D1*
X10960Y28043D1*
X10943Y28028D1*
X10927Y28013D1*
X10912Y27998D1*
X10899Y27983D1*
X10888Y27968D1*
X10879Y27953D1*
X10871Y27938D1*
X10864Y27923D1*
X10858Y27908D1*
X10854Y27893D1*
X10850Y27878D1*
X10846Y27863D1*
X10842Y27848D1*
X10839Y27833D1*
X10838Y27818D1*
X10837Y27803D1*
Y27788D1*
Y27773D1*
Y27758D1*
X10839Y27744D1*
X10843Y27729D1*
X10847Y27714D1*
X10852Y27699D1*
X10860Y27684D1*
X10870Y27669D1*
X10884Y27654D1*
X10901Y27639D1*
X10946Y27624D1*
X11017Y27609D1*
X11106Y27594D1*
X11136Y28088D2*
X11163Y28073D1*
X11186Y28058D1*
X11204Y28043D1*
X11217Y28028D1*
X11227Y28013D1*
X11237Y27998D1*
X11246Y27983D1*
X11256Y27968D1*
X11555Y28088D2*
X11554Y28073D1*
X11552Y28058D1*
X11549Y28043D1*
X11545Y28028D1*
X11542Y28013D1*
X11540Y27998D1*
X11538Y27983D1*
X11534Y27968D1*
X11530Y27953D1*
X11527Y27938D1*
X11523Y27923D1*
X11516Y27908D1*
X11506Y27893D1*
X11495Y27878D1*
X11749Y28088D2*
X11774Y28073D1*
X11793Y28058D1*
X11807Y28043D1*
X11817Y28028D1*
X11821Y28013D1*
X11823Y27998D1*
Y27983D1*
X11821Y27968D1*
X11816Y27953D1*
X11804Y27938D1*
X11786Y27923D1*
X11760Y27908D1*
X11727Y27893D1*
X11689Y27878D1*
X12856Y28088D2*
X12829Y28073D1*
X12806Y28058D1*
X12789Y28043D1*
X12775Y28028D1*
X12771Y28013D1*
X12769Y27998D1*
Y27983D1*
X12776Y27968D1*
X12786Y27953D1*
X12802Y27938D1*
X12824Y27923D1*
X12852Y27908D1*
X12883Y27893D1*
X12914Y27878D1*
X12945Y27863D1*
X12975Y27848D1*
X13003Y27833D1*
X13027Y27818D1*
X13046Y27803D1*
X13061Y27788D1*
X13071Y27773D1*
X13079Y27758D1*
X13085Y27744D1*
X13090Y27729D1*
X13093Y27714D1*
X13094Y27699D1*
X13093Y27684D1*
X13089Y27669D1*
X13083Y27654D1*
X13076Y27639D1*
X13069Y27624D1*
X13059Y27609D1*
X13047Y27594D1*
X13031Y27579D1*
X13009Y27564D1*
X12978Y27549D1*
X12935Y27534D1*
X12886Y27519D1*
X12961Y28088D2*
X12988Y28073D1*
X13012Y28058D1*
X13031Y28043D1*
X13046Y28028D1*
X13058Y28013D1*
X13062Y27998D1*
X13064Y27983D1*
X13066Y27968D1*
X11495Y27818D2*
Y27803D1*
X11494Y27788D1*
X11492Y27773D1*
X11489Y27758D1*
X11485Y27744D1*
X11482Y27729D1*
X11480Y27714D1*
X11478Y27699D1*
X11474Y27684D1*
X11470Y27669D1*
X11467Y27654D1*
X11463Y27639D1*
X11456Y27624D1*
X11446Y27609D1*
X11435Y27594D1*
X11689Y27818D2*
X11728Y27803D1*
X11758Y27788D1*
X11779Y27773D1*
X11793Y27758D1*
X11802Y27744D1*
X11805Y27729D1*
Y27714D1*
X11802Y27699D1*
X11796Y27684D1*
X11787Y27669D1*
X11775Y27654D1*
X11757Y27639D1*
X11730Y27624D1*
X11697Y27609D1*
X11659Y27594D1*
X11211Y27744D2*
X11205Y27729D1*
X11199Y27714D1*
X11192Y27699D1*
X11184Y27684D1*
X11174Y27669D1*
X11159Y27654D1*
X11135Y27639D1*
X11090Y27624D1*
X11017Y27609D1*
X10926Y27594D1*
X11270Y27744D2*
X11277Y27729D1*
X11275Y27714D1*
X11271Y27699D1*
X11264Y27684D1*
X11255Y27669D1*
X11245Y27654D1*
X11235Y27639D1*
X11223Y27624D1*
X11209Y27609D1*
X11193Y27594D1*
X11173Y27579D1*
X11149Y27564D1*
X11117Y27549D1*
X11076Y27534D1*
X11031Y27519D1*
X12617Y27729D2*
Y27714D1*
X12618Y27699D1*
X12619Y27684D1*
X12623Y27669D1*
X12627Y27654D1*
X12633Y27639D1*
X12640Y27624D1*
X12651Y27609D1*
X12663Y27594D1*
X12679Y27579D1*
X12699Y27564D1*
X12731Y27549D1*
X12775Y27534D1*
X12826Y27519D1*
X12692Y27729D2*
Y27714D1*
Y27699D1*
X12695Y27684D1*
X12701Y27669D1*
X12712Y27654D1*
X12727Y27639D1*
X12777Y27624D1*
X12859Y27609D1*
X12961Y27594D1*
X13200Y27699D2*
X13194Y27684D1*
X13195Y27669D1*
X13197Y27654D1*
X13201Y27639D1*
X13206Y27624D1*
X13213Y27609D1*
X13223Y27594D1*
X13237Y27579D1*
X13257Y27564D1*
X13286Y27549D1*
X13323Y27534D1*
X13365Y27519D1*
X13245Y27699D2*
X13253Y27684D1*
X13259Y27669D1*
X13265Y27654D1*
X13273Y27639D1*
X13283Y27624D1*
X13316Y27609D1*
X13370Y27594D1*
X13440Y27579D1*
X11061Y29162D2*
X11011Y29147D1*
X10971Y29132D1*
X10940Y29118D1*
X10917Y29103D1*
X10899Y29088D1*
X10882Y29073D1*
X10867Y29058D1*
X10852Y29043D1*
X10839Y29028D1*
X10828Y29013D1*
X10819Y28998D1*
X10811Y28983D1*
X10804Y28968D1*
X10797Y28953D1*
X10792Y28938D1*
X10787Y28923D1*
X10782Y28908D1*
X10779Y28893D1*
X10777Y28878D1*
X10775Y28863D1*
X10771Y28848D1*
X10767Y28833D1*
X10764Y28818D1*
X10763Y28803D1*
X10762Y28788D1*
X10763Y28773D1*
X10764Y28758D1*
X10768Y28744D1*
X10772Y28729D1*
X10774Y28714D1*
X10776Y28699D1*
X10779Y28684D1*
X10783Y28669D1*
X10790Y28654D1*
X10798Y28639D1*
X10807Y28624D1*
X10817Y28609D1*
X10830Y28594D1*
X10846Y28579D1*
X10868Y28564D1*
X10897Y28549D1*
X10939Y28534D1*
X10986Y28519D1*
X11106Y29162D2*
X11156Y29147D1*
X11196Y29132D1*
X11227Y29118D1*
X11249Y29103D1*
X11266Y29088D1*
X11278Y29073D1*
X11288Y29058D1*
X11296Y29043D1*
X11303Y29028D1*
X11309Y29013D1*
X11312Y28998D1*
X11314Y28983D1*
X11315Y28968D1*
X12886Y29162D2*
X12836Y29147D1*
X12796Y29132D1*
X12766Y29118D1*
X12745Y29103D1*
X12731Y29088D1*
X12720Y29073D1*
X12711Y29058D1*
X12704Y29043D1*
X12698Y29028D1*
X12695Y29013D1*
X12694Y28998D1*
X12695Y28983D1*
X12699Y28968D1*
X12704Y28953D1*
X12711Y28938D1*
X12719Y28923D1*
X12731Y28908D1*
X12746Y28893D1*
X12766Y28878D1*
X12789Y28863D1*
X12815Y28848D1*
X12845Y28833D1*
X12878Y28818D1*
X12911Y28803D1*
X12941Y28788D1*
X12966Y28773D1*
X12986Y28758D1*
X13001Y28744D1*
X13013Y28729D1*
X13016Y28714D1*
X13018Y28699D1*
X13014Y28684D1*
X13008Y28669D1*
X13000Y28654D1*
X12984Y28639D1*
X12935Y28624D1*
X12854Y28609D1*
X12752Y28594D1*
X12931Y29162D2*
X12984Y29147D1*
X13025Y29132D1*
X13054Y29118D1*
X13075Y29103D1*
X13091Y29088D1*
X13103Y29073D1*
X13113Y29058D1*
X13121Y29043D1*
X13128Y29028D1*
X13133Y29013D1*
X13136Y28998D1*
X13118Y28983D1*
X13096Y28968D1*
X11495Y29147D2*
X11494Y29132D1*
X11492Y29118D1*
X11489Y29103D1*
X11485Y29088D1*
X11482Y29073D1*
X11480Y29058D1*
X11478Y29043D1*
X11474Y29028D1*
X11470Y29013D1*
X11467Y28998D1*
X11464Y28983D1*
X11459Y28968D1*
X11455Y28953D1*
X11452Y28938D1*
X11450Y28923D1*
X11448Y28908D1*
X11444Y28893D1*
X11440Y28878D1*
X11437Y28863D1*
X11436Y28848D1*
X11433Y28833D1*
X11429Y28818D1*
X11425Y28803D1*
X11422Y28788D1*
X11421Y28773D1*
X11418Y28758D1*
X11414Y28744D1*
X11410Y28729D1*
X11407Y28714D1*
X11404Y28699D1*
X11399Y28684D1*
X11395Y28669D1*
X11393Y28654D1*
X11391Y28639D1*
X11388Y28624D1*
X11384Y28609D1*
X11380Y28594D1*
X11378Y28579D1*
X11376Y28564D1*
Y28549D1*
X11375Y28534D1*
X11779Y29147D2*
X11808Y29132D1*
X11831Y29118D1*
X11850Y29103D1*
X11865Y29088D1*
X11875Y29073D1*
X11882Y29058D1*
X11888Y29043D1*
X11893Y29028D1*
X11896Y29013D1*
X11895Y28998D1*
X11892Y28983D1*
X11888Y28968D1*
X11884Y28953D1*
X11878Y28938D1*
X11871Y28923D1*
X11860Y28908D1*
X11845Y28893D1*
X11828Y28878D1*
X11811Y28863D1*
X11794Y28848D1*
X11816Y28833D1*
X11835Y28818D1*
X11849Y28803D1*
X11860Y28788D1*
X11867Y28773D1*
X11873Y28758D1*
X11878Y28744D1*
X11881Y28729D1*
X11880Y28714D1*
X11877Y28699D1*
X11873Y28684D1*
X11869Y28669D1*
X11863Y28654D1*
X11856Y28639D1*
X11847Y28624D1*
X11836Y28609D1*
X11822Y28594D1*
X11805Y28579D1*
X11782Y28564D1*
X11752Y28549D1*
X11719Y28534D1*
X12078Y29147D2*
Y29132D1*
Y29118D1*
X12076Y29103D1*
X12072Y29088D1*
X12068Y29073D1*
X12066Y29058D1*
X12064Y29043D1*
X12061Y29028D1*
X12057Y29013D1*
X12054Y28998D1*
X12051Y28983D1*
X12049Y28968D1*
X12046Y28953D1*
X12043Y28938D1*
X12039Y28923D1*
X12035Y28908D1*
X12032Y28893D1*
X12028Y28878D1*
X12024Y28863D1*
X12021Y28848D1*
X12019Y28833D1*
X12016Y28818D1*
X12013Y28803D1*
X12009Y28788D1*
X12006Y28773D1*
X12005Y28758D1*
X12004Y28744D1*
Y28729D1*
Y28714D1*
Y28699D1*
Y28684D1*
Y28669D1*
X12006Y28654D1*
X12010Y28639D1*
X12017Y28624D1*
X12025Y28609D1*
X12037Y28594D1*
X12053Y28579D1*
X12075Y28564D1*
X12106Y28549D1*
X12149Y28534D1*
X12198Y28519D1*
X12153Y29147D2*
Y29132D1*
X12151Y29118D1*
X12147Y29103D1*
X12143Y29088D1*
X12141Y29073D1*
X12139Y29058D1*
X12136Y29043D1*
X12132Y29028D1*
X12128Y29013D1*
X12126Y28998D1*
X12124Y28983D1*
X12121Y28968D1*
X12117Y28953D1*
X12113Y28938D1*
X12111Y28923D1*
X12109Y28908D1*
X12106Y28893D1*
X12102Y28878D1*
X12098Y28863D1*
X12095Y28848D1*
X12092Y28833D1*
X12088Y28818D1*
X12084Y28803D1*
X12081Y28788D1*
X12079Y28773D1*
X12078Y28758D1*
X12076Y28744D1*
X12073Y28729D1*
X12071Y28714D1*
X12072Y28699D1*
X12075Y28684D1*
X12080Y28669D1*
X12086Y28654D1*
X12100Y28639D1*
X12144Y28624D1*
X12215Y28609D1*
X12303Y28594D1*
X12497Y29147D2*
X12490Y29132D1*
X12486Y29118D1*
X12483Y29103D1*
X12480Y29088D1*
X12476Y29073D1*
X12472Y29058D1*
X12470Y29043D1*
X12468Y29028D1*
X12465Y29013D1*
X12461Y28998D1*
X12457Y28983D1*
X12454Y28968D1*
X12451Y28953D1*
X12447Y28938D1*
X12443Y28923D1*
X12440Y28908D1*
X12438Y28893D1*
X12435Y28878D1*
X12431Y28863D1*
X12427Y28848D1*
X12424Y28833D1*
X12421Y28818D1*
X12417Y28803D1*
X12413Y28788D1*
X12409Y28773D1*
X12406Y28758D1*
X12402Y28744D1*
X12397Y28729D1*
X12392Y28714D1*
X12385Y28699D1*
X12376Y28684D1*
X12366Y28669D1*
X12353Y28654D1*
X12336Y28639D1*
X12287Y28624D1*
X12214Y28609D1*
X12123Y28594D1*
X12572Y29147D2*
X12565Y29132D1*
X12560Y29118D1*
X12556Y29103D1*
X12552Y29088D1*
X12547Y29073D1*
X12545Y29058D1*
X12543Y29043D1*
X12540Y29028D1*
X12536Y29013D1*
X12532Y28998D1*
X12530Y28983D1*
X12528Y28968D1*
X12525Y28953D1*
X12521Y28938D1*
X12517Y28923D1*
X12515Y28908D1*
X12513Y28893D1*
X12510Y28878D1*
X12506Y28863D1*
X12502Y28848D1*
X12499Y28833D1*
X12496Y28818D1*
X12492Y28803D1*
X12487Y28788D1*
X12484Y28773D1*
X12481Y28758D1*
X12477Y28744D1*
X12472Y28729D1*
X12467Y28714D1*
X12462Y28699D1*
X12455Y28684D1*
X12448Y28669D1*
X12440Y28654D1*
X12432Y28639D1*
X12422Y28624D1*
X12412Y28609D1*
X12399Y28594D1*
X12382Y28579D1*
X12360Y28564D1*
X12328Y28549D1*
X12288Y28534D1*
X12243Y28519D1*
X13395Y29147D2*
X13364Y29132D1*
X13337Y29118D1*
X13316Y29103D1*
X13301Y29088D1*
X13289Y29073D1*
X13280Y29058D1*
X13272Y29043D1*
X13266Y29028D1*
X13260Y29013D1*
X13253Y28998D1*
X13245Y28983D1*
X13500Y29147D2*
X13528Y29132D1*
X13552Y29118D1*
X13571Y29103D1*
X13586Y29088D1*
X13597Y29073D1*
X13606Y29058D1*
X13612Y29043D1*
X13616Y29028D1*
X13618Y29013D1*
X13619Y28998D1*
Y28983D1*
Y28968D1*
X13617Y28953D1*
X13613Y28938D1*
X13607Y28923D1*
X13600Y28908D1*
X13592Y28893D1*
X13583Y28878D1*
X13571Y28863D1*
X13558Y28848D1*
X13543Y28833D1*
X13527Y28818D1*
X13508Y28803D1*
X13490Y28788D1*
X13472Y28773D1*
X13453Y28758D1*
X13434Y28744D1*
X13415Y28729D1*
X13397Y28714D1*
X13381Y28699D1*
X13365Y28684D1*
X13350Y28669D1*
X13335Y28654D1*
X13320Y28639D1*
X13305Y28624D1*
X13290Y28609D1*
X13275Y28594D1*
X13440Y29103D2*
X13411Y29088D1*
X13386Y29073D1*
X13366Y29058D1*
X13352Y29043D1*
X13341Y29028D1*
X13333Y29013D1*
X13326Y28998D1*
X13320Y28983D1*
X13455Y29103D2*
X13482Y29088D1*
X13505Y29073D1*
X13523Y29058D1*
X13536Y29043D1*
X13546Y29028D1*
X13552Y29013D1*
X13556Y28998D1*
Y28983D1*
X13552Y28968D1*
X13547Y28953D1*
X13540Y28938D1*
X13532Y28923D1*
X13523Y28908D1*
X13512Y28893D1*
X13498Y28878D1*
X13484Y28863D1*
X13467Y28848D1*
X13449Y28833D1*
X13430Y28818D1*
X13412Y28803D1*
X13393Y28788D1*
X13374Y28773D1*
X13355Y28758D1*
X13338Y28744D1*
X13321Y28729D1*
X13306Y28714D1*
X13290Y28699D1*
X13275Y28684D1*
X13261Y28669D1*
X13248Y28654D1*
X13237Y28639D1*
X13228Y28624D1*
X13220Y28609D1*
X13212Y28594D1*
X13206Y28579D1*
X13200Y28564D1*
X13193Y28549D1*
X13185Y28534D1*
X11031Y29088D2*
X11004Y29073D1*
X10980Y29058D1*
X10960Y29043D1*
X10943Y29028D1*
X10927Y29013D1*
X10912Y28998D1*
X10899Y28983D1*
X10888Y28968D1*
X10879Y28953D1*
X10871Y28938D1*
X10864Y28923D1*
X10858Y28908D1*
X10854Y28893D1*
X10850Y28878D1*
X10846Y28863D1*
X10842Y28848D1*
X10839Y28833D1*
X10838Y28818D1*
X10837Y28803D1*
Y28788D1*
Y28773D1*
Y28758D1*
X10839Y28744D1*
X10843Y28729D1*
X10847Y28714D1*
X10852Y28699D1*
X10860Y28684D1*
X10870Y28669D1*
X10884Y28654D1*
X10901Y28639D1*
X10946Y28624D1*
X11017Y28609D1*
X11106Y28594D1*
X11136Y29088D2*
X11163Y29073D1*
X11186Y29058D1*
X11204Y29043D1*
X11217Y29028D1*
X11227Y29013D1*
X11237Y28998D1*
X11246Y28983D1*
X11256Y28968D1*
X11555Y29088D2*
X11554Y29073D1*
X11552Y29058D1*
X11549Y29043D1*
X11545Y29028D1*
X11542Y29013D1*
X11540Y28998D1*
X11538Y28983D1*
X11534Y28968D1*
X11530Y28953D1*
X11527Y28938D1*
X11523Y28923D1*
X11516Y28908D1*
X11506Y28893D1*
X11495Y28878D1*
X11749Y29088D2*
X11774Y29073D1*
X11793Y29058D1*
X11807Y29043D1*
X11817Y29028D1*
X11821Y29013D1*
X11823Y28998D1*
Y28983D1*
X11821Y28968D1*
X11816Y28953D1*
X11804Y28938D1*
X11786Y28923D1*
X11760Y28908D1*
X11727Y28893D1*
X11689Y28878D1*
X12856Y29088D2*
X12829Y29073D1*
X12806Y29058D1*
X12789Y29043D1*
X12775Y29028D1*
X12771Y29013D1*
X12769Y28998D1*
Y28983D1*
X12776Y28968D1*
X12786Y28953D1*
X12802Y28938D1*
X12824Y28923D1*
X12852Y28908D1*
X12883Y28893D1*
X12914Y28878D1*
X12945Y28863D1*
X12975Y28848D1*
X13003Y28833D1*
X13027Y28818D1*
X13046Y28803D1*
X13061Y28788D1*
X13071Y28773D1*
X13079Y28758D1*
X13085Y28744D1*
X13090Y28729D1*
X13093Y28714D1*
X13094Y28699D1*
X13093Y28684D1*
X13089Y28669D1*
X13083Y28654D1*
X13076Y28639D1*
X13069Y28624D1*
X13059Y28609D1*
X13047Y28594D1*
X13031Y28579D1*
X13009Y28564D1*
X12978Y28549D1*
X12935Y28534D1*
X12886Y28519D1*
X12961Y29088D2*
X12988Y29073D1*
X13012Y29058D1*
X13031Y29043D1*
X13046Y29028D1*
X13058Y29013D1*
X13062Y28998D1*
X13064Y28983D1*
X13066Y28968D1*
X11495Y28818D2*
Y28803D1*
X11494Y28788D1*
X11492Y28773D1*
X11489Y28758D1*
X11485Y28744D1*
X11482Y28729D1*
X11480Y28714D1*
X11478Y28699D1*
X11474Y28684D1*
X11470Y28669D1*
X11467Y28654D1*
X11463Y28639D1*
X11456Y28624D1*
X11446Y28609D1*
X11435Y28594D1*
X11689Y28818D2*
X11728Y28803D1*
X11758Y28788D1*
X11779Y28773D1*
X11793Y28758D1*
X11802Y28744D1*
X11805Y28729D1*
Y28714D1*
X11802Y28699D1*
X11796Y28684D1*
X11787Y28669D1*
X11775Y28654D1*
X11757Y28639D1*
X11730Y28624D1*
X11697Y28609D1*
X11659Y28594D1*
X11211Y28744D2*
X11205Y28729D1*
X11199Y28714D1*
X11192Y28699D1*
X11184Y28684D1*
X11174Y28669D1*
X11159Y28654D1*
X11135Y28639D1*
X11090Y28624D1*
X11017Y28609D1*
X10926Y28594D1*
X11270Y28744D2*
X11277Y28729D1*
X11275Y28714D1*
X11271Y28699D1*
X11264Y28684D1*
X11255Y28669D1*
X11245Y28654D1*
X11235Y28639D1*
X11223Y28624D1*
X11209Y28609D1*
X11193Y28594D1*
X11173Y28579D1*
X11149Y28564D1*
X11117Y28549D1*
X11076Y28534D1*
X11031Y28519D1*
X12617Y28729D2*
Y28714D1*
X12618Y28699D1*
X12619Y28684D1*
X12623Y28669D1*
X12627Y28654D1*
X12633Y28639D1*
X12640Y28624D1*
X12651Y28609D1*
X12663Y28594D1*
X12679Y28579D1*
X12699Y28564D1*
X12731Y28549D1*
X12775Y28534D1*
X12826Y28519D1*
X12692Y28729D2*
Y28714D1*
Y28699D1*
X12695Y28684D1*
X12701Y28669D1*
X12712Y28654D1*
X12727Y28639D1*
X12777Y28624D1*
X12859Y28609D1*
X12961Y28594D1*
X13574D2*
X13568Y28579D1*
X13563Y28564D1*
X13561Y28549D1*
X13559Y28534D1*
X11602Y30272D2*
X11601Y30257D1*
X11599Y30243D1*
X11596Y30228D1*
X11592Y30213D1*
X11588Y30198D1*
X11585Y30183D1*
X11581Y30168D1*
X11577Y30153D1*
X11574Y30138D1*
X11572Y30123D1*
X11570Y30108D1*
X11566Y30093D1*
X11562Y30078D1*
X11559Y30063D1*
X11557Y30048D1*
X11555Y30033D1*
X11551Y30018D1*
X11547Y30003D1*
X11544Y29988D1*
X11542Y29973D1*
X11540Y29958D1*
X11536Y29943D1*
X11532Y29928D1*
X11529Y29913D1*
X11525Y29898D1*
X11521Y29883D1*
X11517Y29869D1*
X11514Y29854D1*
X11512Y29839D1*
X11510Y29824D1*
X11506Y29809D1*
X11502Y29794D1*
X11499Y29779D1*
X11497Y29764D1*
X11495Y29749D1*
X11491Y29734D1*
X11487Y29719D1*
X11484Y29704D1*
X11483Y29689D1*
X11482Y29674D1*
Y29659D1*
X11946Y30272D2*
X11967Y30257D1*
X11986Y30243D1*
X12001Y30228D1*
X12013Y30213D1*
X12022Y30198D1*
X12029Y30183D1*
X12032Y30168D1*
X12034Y30153D1*
X12035Y30138D1*
Y30123D1*
Y30108D1*
Y30093D1*
X12033Y30078D1*
X12029Y30063D1*
X12023Y30048D1*
X12016Y30033D1*
X12008Y30018D1*
X11999Y30003D1*
X11988Y29988D1*
X11974Y29973D1*
X11956Y29958D1*
X11930Y29943D1*
X11896Y29928D1*
X11856Y29913D1*
X12125Y30272D2*
X12126Y30257D1*
X12128Y30243D1*
X12131Y30228D1*
X12135Y30213D1*
X12138Y30198D1*
X12139Y30183D1*
X12140Y30168D1*
Y30153D1*
Y30138D1*
Y30123D1*
Y30108D1*
Y30093D1*
Y30078D1*
Y30063D1*
Y30048D1*
Y30033D1*
X12141Y30018D1*
X12143Y30003D1*
X12146Y29988D1*
X12150Y29973D1*
X12153Y29958D1*
X12154Y29943D1*
X12155Y29928D1*
Y29913D1*
Y29898D1*
Y29883D1*
Y29869D1*
Y29854D1*
Y29839D1*
Y29824D1*
Y29809D1*
Y29794D1*
X12156Y29779D1*
X12158Y29764D1*
X12161Y29749D1*
X12165Y29734D1*
X12168Y29719D1*
X12169Y29704D1*
X12170Y29689D1*
Y29674D1*
Y29659D1*
X12200Y30272D2*
Y30257D1*
Y30243D1*
X12201Y30228D1*
X12202Y30213D1*
X12206Y30198D1*
X12210Y30183D1*
X12213Y30168D1*
X12214Y30153D1*
X12215Y30138D1*
Y30123D1*
Y30108D1*
Y30093D1*
Y30078D1*
Y30063D1*
Y30048D1*
Y30033D1*
Y30018D1*
Y30003D1*
Y29988D1*
Y29973D1*
Y29958D1*
Y29943D1*
Y29928D1*
Y29913D1*
Y29898D1*
X12216Y29883D1*
X12217Y29869D1*
X12221Y29854D1*
X12225Y29839D1*
X12230Y29824D1*
X12237Y29809D1*
X12245Y29794D1*
X12499Y30272D2*
X12490Y30257D1*
X12481Y30243D1*
X12473Y30228D1*
X12466Y30213D1*
X12458Y30198D1*
X12451Y30183D1*
X12443Y30168D1*
X12436Y30153D1*
X12428Y30138D1*
X12421Y30123D1*
X12413Y30108D1*
X12406Y30093D1*
X12398Y30078D1*
X12389Y30063D1*
X12379Y30048D1*
X12370Y30033D1*
X12362Y30018D1*
X12354Y30003D1*
X12346Y29988D1*
X12338Y29973D1*
X12331Y29958D1*
X12323Y29943D1*
X12316Y29928D1*
X12308Y29913D1*
X12301Y29898D1*
X12293Y29883D1*
X12286Y29869D1*
X12279Y29854D1*
X12271Y29839D1*
X12263Y29824D1*
X12254Y29809D1*
X12245Y29794D1*
X12574Y30272D2*
X12575Y30257D1*
X12577Y30243D1*
X12580Y30228D1*
X12584Y30213D1*
X12587Y30198D1*
X12588Y30183D1*
X12589Y30168D1*
Y30153D1*
Y30138D1*
Y30123D1*
Y30108D1*
Y30093D1*
Y30078D1*
Y30063D1*
Y30048D1*
Y30033D1*
Y30018D1*
Y30003D1*
X12590Y29988D1*
X12591Y29973D1*
X12595Y29958D1*
X12599Y29943D1*
X12601Y29928D1*
X12603Y29913D1*
X12604Y29898D1*
Y29883D1*
Y29869D1*
Y29854D1*
Y29839D1*
X12605Y29824D1*
X12607Y29809D1*
X12612Y29794D1*
X12619Y29779D1*
X12873Y30272D2*
X12861Y30257D1*
X12850Y30243D1*
X12841Y30228D1*
X12833Y30213D1*
X12825Y30198D1*
X12817Y30183D1*
X12810Y30168D1*
X12802Y30153D1*
X12795Y30138D1*
X12787Y30123D1*
X12780Y30108D1*
X12772Y30093D1*
X12765Y30078D1*
X12757Y30063D1*
X12750Y30048D1*
X12742Y30033D1*
X12735Y30018D1*
X12727Y30003D1*
X12720Y29988D1*
X12712Y29973D1*
X12705Y29958D1*
X12697Y29943D1*
X12690Y29928D1*
X12682Y29913D1*
X12675Y29898D1*
X12668Y29883D1*
X12661Y29869D1*
X12655Y29854D1*
X12649Y29839D1*
X12643Y29824D1*
X12636Y29809D1*
X12628Y29794D1*
X12619Y29779D1*
X12933Y30272D2*
X12927Y30257D1*
X12921Y30243D1*
X12914Y30228D1*
X12907Y30213D1*
X12899Y30198D1*
X12892Y30183D1*
X12884Y30168D1*
X12877Y30153D1*
X12869Y30138D1*
X12862Y30123D1*
X12855Y30108D1*
X12847Y30093D1*
X12840Y30078D1*
X12832Y30063D1*
X12825Y30048D1*
X12817Y30033D1*
X12810Y30018D1*
X12802Y30003D1*
X12795Y29988D1*
X12787Y29973D1*
X12780Y29958D1*
X12772Y29943D1*
X12765Y29928D1*
X12757Y29913D1*
X12750Y29898D1*
X12742Y29883D1*
X12735Y29869D1*
X12727Y29854D1*
X12720Y29839D1*
X12712Y29824D1*
X12705Y29809D1*
X12697Y29794D1*
X12690Y29779D1*
X12682Y29764D1*
X12675Y29749D1*
X12668Y29734D1*
X12660Y29719D1*
X12653Y29704D1*
X12646Y29689D1*
X12639Y29674D1*
X12634Y29659D1*
X13023Y30272D2*
Y30257D1*
X13022Y30243D1*
X13020Y30228D1*
X13017Y30213D1*
X13013Y30198D1*
X13010Y30183D1*
X13006Y30168D1*
X13002Y30153D1*
X12998Y30138D1*
X12995Y30123D1*
X12993Y30108D1*
X12991Y30093D1*
X12987Y30078D1*
X12983Y30063D1*
X12980Y30048D1*
X12978Y30033D1*
X12976Y30018D1*
X12972Y30003D1*
X12968Y29988D1*
X12965Y29973D1*
X12963Y29958D1*
X12961Y29943D1*
X12957Y29928D1*
X12953Y29913D1*
X12950Y29898D1*
X12947Y29883D1*
X12942Y29869D1*
X12938Y29854D1*
X12936Y29839D1*
X12934Y29824D1*
X12931Y29809D1*
X12927Y29794D1*
X12923Y29779D1*
X12921Y29764D1*
X12919Y29749D1*
X12916Y29734D1*
X12912Y29719D1*
X12908Y29704D1*
X12906Y29689D1*
X12904Y29674D1*
X12903Y29659D1*
X13382Y30272D2*
X13411Y30257D1*
X13434Y30243D1*
X13451Y30228D1*
X13464Y30213D1*
X13473Y30198D1*
X13480Y30183D1*
X13483Y30168D1*
X13485Y30153D1*
X13486Y30138D1*
Y30123D1*
Y30108D1*
X13484Y30093D1*
X13480Y30078D1*
X13474Y30063D1*
X13467Y30048D1*
X13460Y30033D1*
X13450Y30018D1*
X13436Y30003D1*
X13415Y29988D1*
X13388Y29973D1*
X13356Y29958D1*
X13323Y29943D1*
X13292Y29928D1*
X13307Y29913D1*
X13320Y29898D1*
X13330Y29883D1*
X13340Y29869D1*
X13348Y29854D1*
X13357Y29839D1*
X13367Y29824D1*
X13374Y29809D1*
X13381Y29794D1*
X13387Y29779D1*
X13394Y29764D1*
X13400Y29749D1*
X13406Y29734D1*
X13411Y29719D1*
X13417Y29704D1*
X13424Y29689D1*
X13432Y29674D1*
X13442Y29659D1*
X11661Y30228D2*
Y30213D1*
X11659Y30198D1*
X11655Y30183D1*
X11652Y30168D1*
X11649Y30153D1*
X11647Y30138D1*
X11644Y30123D1*
X11641Y30108D1*
X11637Y30093D1*
X11634Y30078D1*
X11632Y30063D1*
X11629Y30048D1*
X11626Y30033D1*
X11622Y30018D1*
X11619Y30003D1*
X11618Y29988D1*
X11617Y29973D1*
X11886Y30228D2*
X11912Y30213D1*
X11933Y30198D1*
X11950Y30183D1*
X11955Y30168D1*
X11958Y30153D1*
X11960Y30138D1*
Y30123D1*
Y30108D1*
X11958Y30093D1*
X11954Y30078D1*
X11948Y30063D1*
X11938Y30048D1*
X11924Y30033D1*
X11902Y30018D1*
X11872Y30003D1*
X11835Y29988D1*
X11796Y29973D1*
X13083Y30228D2*
Y30213D1*
X13082Y30198D1*
X13080Y30183D1*
X13077Y30168D1*
X13073Y30153D1*
X13070Y30138D1*
X13068Y30123D1*
X13066Y30108D1*
X13062Y30093D1*
X13058Y30078D1*
X13055Y30063D1*
X13053Y30048D1*
X13050Y30033D1*
X13044Y30018D1*
X13034Y30003D1*
X13023Y29988D1*
X13337Y30228D2*
X13363Y30213D1*
X13385Y30198D1*
X13401Y30183D1*
X13409Y30168D1*
X13415Y30153D1*
X13420Y30138D1*
X13418Y30123D1*
X13415Y30108D1*
X13411Y30093D1*
X13403Y30078D1*
X13393Y30063D1*
X13379Y30048D1*
X13360Y30033D1*
X13333Y30018D1*
X13299Y30003D1*
X13262Y29988D1*
X12484Y30123D2*
X12482Y30108D1*
X12478Y30093D1*
X12472Y30078D1*
X12465Y30063D1*
X12458Y30048D1*
X12450Y30033D1*
X12443Y30018D1*
X12434Y30003D1*
X12424Y29988D1*
X12415Y29973D1*
X12406Y29958D1*
X12399Y29943D1*
X12391Y29928D1*
X12383Y29913D1*
X12376Y29898D1*
X12368Y29883D1*
X12361Y29869D1*
X12353Y29854D1*
X12346Y29839D1*
X12338Y29824D1*
X12329Y29809D1*
X12319Y29794D1*
X12310Y29779D1*
X12302Y29764D1*
X12294Y29749D1*
X12286Y29734D1*
X12279Y29719D1*
X12271Y29704D1*
X12263Y29689D1*
X12254Y29674D1*
X12245Y29659D1*
X12514Y30123D2*
Y30108D1*
X12515Y30093D1*
X12517Y30078D1*
X12520Y30063D1*
X12524Y30048D1*
X12527Y30033D1*
X12528Y30018D1*
X12529Y30003D1*
Y29988D1*
Y29973D1*
Y29958D1*
Y29943D1*
Y29928D1*
Y29913D1*
Y29898D1*
Y29883D1*
Y29869D1*
Y29854D1*
Y29839D1*
X12530Y29824D1*
X12532Y29809D1*
X12535Y29794D1*
X12539Y29779D1*
X12542Y29764D1*
X12543Y29749D1*
X12544Y29734D1*
Y29719D1*
Y29704D1*
Y29689D1*
Y29674D1*
Y29659D1*
X13023Y29943D2*
Y29928D1*
Y29913D1*
X13022Y29898D1*
X13020Y29883D1*
X13017Y29869D1*
X13013Y29854D1*
X13010Y29839D1*
X13006Y29824D1*
X13002Y29809D1*
X12998Y29794D1*
X12995Y29779D1*
X12993Y29764D1*
X12991Y29749D1*
X12987Y29734D1*
X12983Y29719D1*
X12980Y29704D1*
X12979Y29689D1*
X12978Y29674D1*
Y29659D1*
X13172Y29943D2*
X13199Y29928D1*
X13223Y29913D1*
X13241Y29898D1*
X13254Y29883D1*
X13264Y29869D1*
X13273Y29854D1*
X13281Y29839D1*
X13288Y29824D1*
X13296Y29809D1*
X13303Y29794D1*
X13310Y29779D1*
X13316Y29764D1*
X13322Y29749D1*
X13327Y29734D1*
X13332Y29719D1*
X13337Y29704D1*
X13342Y29689D1*
X13347Y29674D1*
X13352Y29659D1*
X11602Y29913D2*
X11599Y29898D1*
X11596Y29883D1*
X11592Y29869D1*
X11588Y29854D1*
X11585Y29839D1*
X11581Y29824D1*
X11577Y29809D1*
X11574Y29794D1*
X11572Y29779D1*
X11570Y29764D1*
X11566Y29749D1*
X11562Y29734D1*
X11559Y29719D1*
X11557Y29704D1*
X11554Y29689D1*
X11549Y29674D1*
X11542Y29659D1*
X7250Y16391D2*
D109*
X7212Y16372D1*
X7173Y16333D1*
X7154Y16295D1*
Y16219D1*
X7173Y16180D1*
X7212Y16142D1*
X7250Y16123D1*
X7307Y16104D1*
X7403D1*
X7460Y16123D1*
X7499Y16142D1*
X7537Y16180D1*
X7556Y16219D1*
Y16295D1*
X7537Y16333D1*
X7499Y16372D1*
X7460Y16391D1*
X7155Y16744D2*
Y16553D1*
X7327Y16534D1*
X7308Y16553D1*
X7288Y16610D1*
Y16667D1*
X7308Y16725D1*
X7346Y16763D1*
X7403Y16782D1*
X7441D1*
X7499Y16763D1*
X7537Y16725D1*
X7556Y16667D1*
Y16610D1*
X7537Y16553D1*
X7518Y16534D1*
X7480Y16514D1*
X6500Y16381D2*
X6462Y16362D1*
X6423Y16324D1*
X6404Y16286D1*
Y16209D1*
X6423Y16171D1*
X6462Y16133D1*
X6500Y16113D1*
X6557Y16094D1*
X6653D1*
X6710Y16113D1*
X6749Y16133D1*
X6787Y16171D1*
X6806Y16209D1*
Y16286D1*
X6787Y16324D1*
X6749Y16362D1*
X6710Y16381D1*
X6806Y16696D2*
X6405D1*
X6672Y16505D1*
Y16792D1*
X5852Y23374D2*
X5833Y23412D1*
X5794Y23451D1*
X5756Y23470D1*
X5680D1*
X5641Y23451D1*
X5603Y23412D1*
X5584Y23374D1*
X5565Y23317D1*
Y23221D1*
X5584Y23164D1*
X5603Y23125D1*
X5641Y23087D1*
X5680Y23068D1*
X5756D1*
X5794Y23087D1*
X5833Y23125D1*
X5852Y23164D1*
X5975Y23393D2*
X6014Y23412D1*
X6071Y23469D1*
Y23068D1*
X5516Y22624D2*
X5497Y22662D1*
X5458Y22701D1*
X5420Y22720D1*
X5344D1*
X5305Y22701D1*
X5267Y22662D1*
X5248Y22624D1*
X5229Y22567D1*
Y22471D1*
X5248Y22414D1*
X5267Y22375D1*
X5305Y22337D1*
X5344Y22318D1*
X5420D1*
X5458Y22337D1*
X5497Y22375D1*
X5516Y22414D1*
X5659Y22624D2*
Y22643D1*
X5678Y22681D1*
X5697Y22700D1*
X5735Y22719D1*
X5812D1*
X5850Y22700D1*
X5869Y22681D1*
X5888Y22643D1*
Y22605D1*
X5869Y22566D1*
X5831Y22509D1*
X5639Y22318D1*
X5907D1*
X5516Y21874D2*
X5497Y21912D1*
X5458Y21951D1*
X5420Y21970D1*
X5344D1*
X5305Y21951D1*
X5267Y21912D1*
X5248Y21874D1*
X5229Y21817D1*
Y21721D1*
X5248Y21664D1*
X5267Y21625D1*
X5305Y21587D1*
X5344Y21568D1*
X5420D1*
X5458Y21587D1*
X5497Y21625D1*
X5516Y21664D1*
X5678Y21969D2*
X5888D1*
X5773Y21816D1*
X5831D1*
X5869Y21797D1*
X5888Y21778D1*
X5907Y21721D1*
Y21683D1*
X5888Y21625D1*
X5850Y21587D1*
X5792Y21568D1*
X5735D1*
X5678Y21587D1*
X5659Y21606D1*
X5639Y21644D1*
X10375Y14513D2*
X10337Y14494D1*
X10298Y14456D1*
X10279Y14418D1*
Y14341D1*
X10298Y14303D1*
X10337Y14265D1*
X10375Y14245D1*
X10432Y14226D1*
X10528D1*
X10585Y14245D1*
X10624Y14265D1*
X10662Y14303D1*
X10681Y14341D1*
Y14418D1*
X10662Y14456D1*
X10624Y14494D1*
X10585Y14513D1*
X10337Y14866D2*
X10299Y14847D1*
X10280Y14790D1*
Y14752D1*
X10299Y14694D1*
X10356Y14656D1*
X10452Y14637D1*
X10547D1*
X10624Y14656D1*
X10662Y14694D1*
X10681Y14752D1*
Y14771D1*
X10662Y14828D1*
X10624Y14866D1*
X10566Y14885D1*
X10547D1*
X10490Y14866D1*
X10452Y14828D1*
X10433Y14771D1*
Y14752D1*
X10452Y14694D1*
X10490Y14656D1*
X10547Y14637D1*
X8403Y14360D2*
X8384Y14398D1*
X8345Y14437D1*
X8307Y14456D1*
X8231D1*
X8192Y14437D1*
X8154Y14398D1*
X8135Y14360D1*
X8116Y14303D1*
Y14207D1*
X8135Y14150D1*
X8154Y14111D1*
X8192Y14073D1*
X8231Y14054D1*
X8307D1*
X8345Y14073D1*
X8384Y14111D1*
X8403Y14150D1*
X8603Y14054D2*
X8794Y14455D1*
X8526D1*
X12548Y18874D2*
X12529Y18912D1*
X12491Y18951D1*
X12453Y18970D1*
X12376D1*
X12338Y18951D1*
X12300Y18912D1*
X12281Y18874D1*
X12261Y18817D1*
Y18721D1*
X12281Y18664D1*
X12300Y18625D1*
X12338Y18587D1*
X12376Y18568D1*
X12453D1*
X12491Y18587D1*
X12529Y18625D1*
X12548Y18664D1*
X12767Y18969D2*
X12710Y18950D1*
X12691Y18912D1*
Y18874D1*
X12710Y18836D1*
X12748Y18816D1*
X12825Y18797D1*
X12882Y18778D1*
X12920Y18740D1*
X12939Y18702D1*
Y18644D1*
X12920Y18606D1*
X12901Y18587D1*
X12844Y18568D1*
X12767D1*
X12710Y18587D1*
X12691Y18606D1*
X12672Y18644D1*
Y18702D1*
X12691Y18740D1*
X12729Y18778D1*
X12786Y18797D1*
X12863Y18816D1*
X12901Y18836D1*
X12920Y18874D1*
Y18912D1*
X12901Y18950D1*
X12844Y18969D1*
X12767D1*
X18281Y24624D2*
X18262Y24662D1*
X18224Y24701D1*
X18186Y24720D1*
X18109D1*
X18071Y24701D1*
X18033Y24662D1*
X18013Y24624D1*
X17994Y24567D1*
Y24471D1*
X18013Y24414D1*
X18033Y24375D1*
X18071Y24337D1*
X18109Y24318D1*
X18186D1*
X18224Y24337D1*
X18262Y24375D1*
X18281Y24414D1*
X18405Y24643D2*
X18443Y24662D1*
X18501Y24719D1*
Y24318D1*
X18739Y24719D2*
X18682Y24700D1*
X18643Y24643D1*
X18624Y24547D1*
Y24490D1*
X18643Y24394D1*
X18682Y24337D1*
X18739Y24318D1*
X18777D1*
X18835Y24337D1*
X18873Y24394D1*
X18892Y24490D1*
Y24547D1*
X18873Y24643D1*
X18835Y24700D1*
X18777Y24719D1*
X18739D1*
X18873Y24643D2*
X18643Y24394D1*
X18367Y23874D2*
X18348Y23912D1*
X18310Y23951D1*
X18272Y23970D1*
X18195D1*
X18157Y23951D1*
X18119Y23912D1*
X18099Y23874D1*
X18080Y23817D1*
Y23721D1*
X18099Y23664D1*
X18119Y23625D1*
X18157Y23587D1*
X18195Y23568D1*
X18272D1*
X18310Y23587D1*
X18348Y23625D1*
X18367Y23664D1*
X18491Y23893D2*
X18529Y23912D1*
X18587Y23969D1*
Y23568D1*
X18710Y23893D2*
X18749Y23912D1*
X18806Y23969D1*
Y23568D1*
X18281Y23124D2*
X18262Y23162D1*
X18224Y23201D1*
X18186Y23220D1*
X18109D1*
X18071Y23201D1*
X18033Y23162D1*
X18013Y23124D1*
X17994Y23067D1*
Y22971D1*
X18013Y22914D1*
X18033Y22875D1*
X18071Y22837D1*
X18109Y22818D1*
X18186D1*
X18224Y22837D1*
X18262Y22875D1*
X18281Y22914D1*
X18405Y23143D2*
X18443Y23162D1*
X18501Y23219D1*
Y22818D1*
X18644Y23124D2*
Y23143D1*
X18663Y23181D1*
X18682Y23200D1*
X18720Y23219D1*
X18797D1*
X18835Y23200D1*
X18854Y23181D1*
X18873Y23143D1*
Y23105D1*
X18854Y23066D1*
X18816Y23009D1*
X18624Y22818D1*
X18892D1*
X18281Y22374D2*
X18262Y22412D1*
X18224Y22451D1*
X18186Y22470D1*
X18109D1*
X18071Y22451D1*
X18033Y22412D1*
X18013Y22374D1*
X17994Y22317D1*
Y22221D1*
X18013Y22164D1*
X18033Y22125D1*
X18071Y22087D1*
X18109Y22068D1*
X18186D1*
X18224Y22087D1*
X18262Y22125D1*
X18281Y22164D1*
X18405Y22393D2*
X18443Y22412D1*
X18501Y22469D1*
Y22068D1*
X18663Y22469D2*
X18873D1*
X18758Y22316D1*
X18816D1*
X18854Y22297D1*
X18873Y22278D1*
X18892Y22221D1*
Y22183D1*
X18873Y22125D1*
X18835Y22087D1*
X18777Y22068D1*
X18720D1*
X18663Y22087D1*
X18644Y22106D1*
X18624Y22144D1*
X12638Y14374D2*
X12619Y14412D1*
X12581Y14451D1*
X12543Y14470D1*
X12466D1*
X12428Y14451D1*
X12390Y14412D1*
X12370Y14374D1*
X12351Y14317D1*
Y14221D1*
X12370Y14164D1*
X12390Y14125D1*
X12428Y14087D1*
X12466Y14068D1*
X12543D1*
X12581Y14087D1*
X12619Y14125D1*
X12638Y14164D1*
X13011Y14336D2*
X12991Y14278D1*
X12953Y14240D1*
X12896Y14221D1*
X12877D1*
X12819Y14240D1*
X12781Y14278D1*
X12762Y14336D1*
Y14355D1*
X12781Y14412D1*
X12819Y14450D1*
X12877Y14469D1*
X12896D1*
X12953Y14450D1*
X12991Y14412D1*
X13011Y14336D1*
Y14240D1*
X12991Y14144D1*
X12953Y14087D1*
X12896Y14068D1*
X12858D1*
X12800Y14087D1*
X12781Y14125D1*
X23009Y24624D2*
X22990Y24662D1*
X22952Y24701D1*
X22914Y24720D1*
X22837D1*
X22799Y24701D1*
X22761Y24662D1*
X22741Y24624D1*
X22722Y24567D1*
Y24471D1*
X22741Y24414D1*
X22761Y24375D1*
X22799Y24337D1*
X22837Y24318D1*
X22914D1*
X22952Y24337D1*
X22990Y24375D1*
X23009Y24414D1*
X23133Y24643D2*
X23171Y24662D1*
X23229Y24719D1*
Y24318D1*
X23544D2*
Y24719D1*
X23352Y24452D1*
X23639D1*
X18715Y14194D2*
X18677Y14175D1*
X18639Y14136D1*
X18620Y14098D1*
Y14022D1*
X18639Y13984D1*
X18677Y13945D1*
X18715Y13926D1*
X18773Y13907D1*
X18869D1*
X18926Y13926D1*
X18964Y13945D1*
X19002Y13984D1*
X19022Y14022D1*
Y14098D1*
X19002Y14136D1*
X18964Y14175D1*
X18926Y14194D1*
X18697Y14317D2*
X18677Y14356D1*
X18620Y14413D1*
X19022D1*
Y14613D2*
X18620Y14805D1*
Y14537D1*
X19465Y14194D2*
X19427Y14175D1*
X19389Y14137D1*
X19370Y14099D1*
Y14022D1*
X19389Y13984D1*
X19427Y13946D1*
X19465Y13926D1*
X19523Y13907D1*
X19619D1*
X19676Y13926D1*
X19714Y13946D1*
X19752Y13984D1*
X19772Y14022D1*
Y14099D1*
X19752Y14137D1*
X19714Y14175D1*
X19676Y14194D1*
X19447Y14318D2*
X19427Y14356D1*
X19370Y14414D1*
X19772D1*
X19370Y14633D2*
X19389Y14576D1*
X19427Y14556D1*
X19466D1*
X19504Y14576D1*
X19523Y14614D1*
X19542Y14690D1*
X19561Y14748D1*
X19600Y14786D1*
X19638Y14805D1*
X19695D1*
X19733Y14786D1*
X19753Y14767D1*
X19772Y14709D1*
Y14633D1*
X19753Y14576D1*
X19733Y14556D1*
X19695Y14537D1*
X19638D1*
X19600Y14556D1*
X19561Y14595D1*
X19542Y14652D1*
X19523Y14728D1*
X19504Y14767D1*
X19466Y14786D1*
X19427D1*
X19389Y14767D1*
X19370Y14709D1*
Y14633D1*
X20215Y14203D2*
X20177Y14184D1*
X20139Y14146D1*
X20120Y14108D1*
Y14031D1*
X20139Y13993D1*
X20177Y13955D1*
X20215Y13936D1*
X20273Y13917D1*
X20369D1*
X20426Y13936D1*
X20464Y13955D1*
X20502Y13993D1*
X20522Y14031D1*
Y14108D1*
X20502Y14146D1*
X20464Y14184D1*
X20426Y14203D1*
X20197Y14327D2*
X20177Y14365D1*
X20120Y14423D1*
X20522D1*
X20254Y14795D2*
X20311Y14776D1*
X20350Y14738D1*
X20369Y14680D1*
Y14661D1*
X20350Y14604D1*
X20311Y14566D1*
X20254Y14546D1*
X20235D1*
X20177Y14566D1*
X20139Y14604D1*
X20120Y14661D1*
Y14680D1*
X20139Y14738D1*
X20177Y14776D1*
X20254Y14795D1*
X20350D1*
X20445Y14776D1*
X20503Y14738D1*
X20522Y14680D1*
Y14642D1*
X20503Y14585D1*
X20464Y14566D1*
X20965Y14108D2*
X20927Y14089D1*
X20889Y14050D1*
X20870Y14012D1*
Y13936D1*
X20889Y13898D1*
X20927Y13859D1*
X20965Y13840D1*
X21023Y13821D1*
X21119D1*
X21176Y13840D1*
X21214Y13859D1*
X21252Y13898D1*
X21272Y13936D1*
Y14012D1*
X21252Y14050D1*
X21214Y14089D1*
X21176Y14108D1*
X20966Y14251D2*
X20947D1*
X20908Y14270D1*
X20889Y14289D1*
X20870Y14327D1*
Y14404D1*
X20889Y14442D1*
X20908Y14461D1*
X20947Y14480D1*
X20985D1*
X21023Y14461D1*
X21080Y14423D1*
X21272Y14231D1*
Y14499D1*
X20870Y14738D2*
X20889Y14680D1*
X20947Y14642D1*
X21042Y14623D1*
X21100D1*
X21195Y14642D1*
X21253Y14680D1*
X21272Y14738D1*
Y14776D1*
X21253Y14833D1*
X21195Y14871D1*
X21100Y14891D1*
X21042D1*
X20947Y14871D1*
X20889Y14833D1*
X20870Y14776D1*
Y14738D1*
X20947Y14871D2*
X21195Y14642D1*
X21715Y14194D2*
X21677Y14175D1*
X21639Y14136D1*
X21620Y14098D1*
Y14022D1*
X21639Y13984D1*
X21677Y13945D1*
X21715Y13926D1*
X21773Y13907D1*
X21869D1*
X21926Y13926D1*
X21964Y13945D1*
X22002Y13984D1*
X22022Y14022D1*
Y14098D1*
X22002Y14136D1*
X21964Y14175D1*
X21926Y14194D1*
X21716Y14337D2*
X21697D1*
X21658Y14356D1*
X21639Y14375D1*
X21620Y14413D1*
Y14490D1*
X21639Y14528D1*
X21658Y14547D1*
X21697Y14566D1*
X21735D1*
X21773Y14547D1*
X21830Y14509D1*
X22022Y14317D1*
Y14585D1*
X21697Y14709D2*
X21677Y14747D1*
X21620Y14805D1*
X22022D1*
X22465Y14108D2*
X22427Y14089D1*
X22389Y14050D1*
X22370Y14012D1*
Y13936D1*
X22389Y13898D1*
X22427Y13859D1*
X22465Y13840D1*
X22523Y13821D1*
X22619D1*
X22676Y13840D1*
X22714Y13859D1*
X22752Y13898D1*
X22772Y13936D1*
Y14012D1*
X22752Y14050D1*
X22714Y14089D1*
X22676Y14108D1*
X22466Y14251D2*
X22447D1*
X22408Y14270D1*
X22389Y14289D1*
X22370Y14327D1*
Y14404D1*
X22389Y14442D1*
X22408Y14461D1*
X22447Y14480D1*
X22485D1*
X22523Y14461D1*
X22580Y14423D1*
X22772Y14231D1*
Y14499D1*
X22466Y14642D2*
X22447D1*
X22408Y14661D1*
X22389Y14680D1*
X22370Y14719D1*
Y14795D1*
X22389Y14833D1*
X22408Y14852D1*
X22447Y14872D1*
X22485D1*
X22523Y14852D1*
X22580Y14814D1*
X22772Y14623D1*
Y14891D1*
X23215Y14108D2*
X23177Y14089D1*
X23139Y14050D1*
X23120Y14012D1*
Y13936D1*
X23139Y13898D1*
X23177Y13859D1*
X23215Y13840D1*
X23273Y13821D1*
X23369D1*
X23426Y13840D1*
X23464Y13859D1*
X23502Y13898D1*
X23522Y13936D1*
Y14012D1*
X23502Y14050D1*
X23464Y14089D1*
X23426Y14108D1*
X23216Y14251D2*
X23197D1*
X23158Y14270D1*
X23139Y14289D1*
X23120Y14327D1*
Y14404D1*
X23139Y14442D1*
X23158Y14461D1*
X23197Y14480D1*
X23235D1*
X23273Y14461D1*
X23330Y14423D1*
X23522Y14231D1*
Y14499D1*
X23120Y14661D2*
Y14871D1*
X23273Y14757D1*
Y14814D1*
X23292Y14852D1*
X23311Y14871D1*
X23369Y14891D1*
X23407D1*
X23464Y14871D1*
X23503Y14833D1*
X23522Y14776D1*
Y14718D1*
X23503Y14661D1*
X23483Y14642D1*
X23445Y14623D1*
X12601Y20009D2*
Y19607D1*
X12735D1*
X12792Y19627D1*
X12831Y19665D1*
X12850Y19703D1*
X12869Y19760D1*
Y19856D1*
X12850Y19914D1*
X12831Y19952D1*
X12792Y19990D1*
X12735Y20009D1*
X12601D1*
X12992Y19932D2*
X13031Y19952D1*
X13088Y20009D1*
Y19607D1*
X6789Y20440D2*
Y20038D1*
X7200Y20345D2*
X7181Y20383D1*
X7142Y20421D1*
X7104Y20440D1*
X7028D1*
X6989Y20421D1*
X6951Y20383D1*
X6932Y20345D1*
X6913Y20287D1*
Y20191D1*
X6932Y20134D1*
X6951Y20096D1*
X6989Y20058D1*
X7028Y20038D1*
X7104D1*
X7142Y20058D1*
X7181Y20096D1*
X7200Y20134D1*
X7323Y20363D2*
X7362Y20383D1*
X7419Y20440D1*
Y20038D1*
X10349Y23007D2*
Y22605D1*
X10760Y22912D2*
X10740Y22950D1*
X10702Y22988D1*
X10664Y23007D1*
X10588D1*
X10549Y22988D1*
X10511Y22950D1*
X10492Y22912D1*
X10473Y22854D1*
Y22758D1*
X10492Y22701D1*
X10511Y22663D1*
X10549Y22625D1*
X10588Y22605D1*
X10664D1*
X10702Y22625D1*
X10740Y22663D1*
X10760Y22701D1*
X10902Y22911D2*
Y22930D1*
X10921Y22969D1*
X10941Y22988D1*
X10979Y23007D1*
X11055D1*
X11093Y22988D1*
X11112Y22969D1*
X11132Y22930D1*
Y22892D1*
X11112Y22854D1*
X11074Y22797D1*
X10883Y22605D1*
X11151D1*
X8007Y10648D2*
X7988Y10686D1*
X7950Y10724D1*
X7912Y10743D1*
X7835D1*
X7797Y10724D1*
X7759Y10686D1*
X7739Y10648D1*
X7720Y10590D1*
Y10494D1*
X7739Y10437D1*
X7759Y10399D1*
X7797Y10361D1*
X7835Y10341D1*
X7912D1*
X7950Y10361D1*
X7988Y10399D1*
X8007Y10437D1*
X8399Y10743D2*
Y10341D1*
X8131Y10743D1*
Y10341D1*
X8522Y10666D2*
X8561Y10686D1*
X8618Y10743D1*
Y10341D1*
X13590Y16598D2*
Y16196D1*
X13820D1*
X13943Y16521D2*
X13982Y16540D1*
X14039Y16597D1*
Y16196D1*
X25482Y29944D2*
X25654D1*
X25712Y29963D1*
X25731Y29982D1*
X25750Y30020D1*
Y30059D1*
X25731Y30097D1*
X25712Y30116D1*
X25654Y30135D1*
X25482D1*
Y29733D1*
X25616Y29944D2*
X25750Y29733D1*
X26103Y30135D2*
X25912D1*
X25893Y29963D1*
X25912Y29982D1*
X25970Y30001D1*
X26027D1*
X26084Y29982D1*
X26123Y29944D1*
X26142Y29886D1*
Y29848D1*
X26123Y29791D1*
X26084Y29752D1*
X26027Y29733D1*
X25970D1*
X25912Y29752D1*
X25893Y29772D1*
X25874Y29810D1*
X23107Y28194D2*
X23279D1*
X23337Y28213D1*
X23356Y28232D1*
X23375Y28270D1*
Y28309D1*
X23356Y28347D1*
X23337Y28366D1*
X23279Y28385D1*
X23107D1*
Y27983D1*
X23241Y28194D2*
X23375Y27983D1*
X23575D2*
X23767Y28385D1*
X23499D1*
X8155Y15952D2*
X8117Y15933D1*
X8079Y15895D1*
X8060Y15856D1*
X8040Y15799D1*
Y15703D1*
X8060Y15646D1*
X8079Y15608D1*
X8117Y15569D1*
X8155Y15550D1*
X8232D1*
X8270Y15569D1*
X8308Y15608D1*
X8327Y15646D1*
X8346Y15703D1*
Y15799D1*
X8327Y15856D1*
X8308Y15895D1*
X8270Y15933D1*
X8232Y15952D1*
X8155D1*
X8212Y15627D2*
X8327Y15512D1*
X8470Y15875D2*
X8508Y15894D1*
X8566Y15951D1*
Y15550D1*
X23979Y33086D2*
X23941Y33067D1*
X23902Y33029D1*
X23883Y32990D1*
X23864Y32933D1*
Y32837D1*
X23883Y32780D1*
X23902Y32742D1*
X23941Y32703D1*
X23979Y32684D1*
X24055D1*
X24094Y32703D1*
X24132Y32742D1*
X24151Y32780D1*
X24170Y32837D1*
Y32933D1*
X24151Y32990D1*
X24132Y33029D1*
X24094Y33067D1*
X24055Y33086D1*
X23979D1*
X24036Y32761D2*
X24151Y32646D1*
X24332Y33085D2*
X24542D1*
X24428Y32932D1*
X24485D1*
X24523Y32913D1*
X24542Y32894D1*
X24562Y32837D1*
Y32799D1*
X24542Y32741D1*
X24504Y32703D1*
X24447Y32684D1*
X24389D1*
X24332Y32703D1*
X24313Y32722D1*
X24294Y32760D1*
X26212Y15871D2*
X26174Y15853D1*
X26136Y15814D1*
X26117Y15776D1*
X26097Y15718D1*
Y15623D1*
X26117Y15565D1*
X26136Y15527D1*
X26174Y15489D1*
X26212Y15470D1*
X26289D1*
X26327Y15489D1*
X26365Y15527D1*
X26384Y15565D1*
X26404Y15623D1*
Y15718D1*
X26384Y15776D1*
X26365Y15814D1*
X26327Y15853D1*
X26289Y15871D1*
X26212D1*
X26270Y15546D2*
X26384Y15431D1*
X26547Y15775D2*
Y15794D1*
X26566Y15833D1*
X26585Y15852D1*
X26623Y15871D1*
X26700D1*
X26738Y15852D1*
X26757Y15833D1*
X26776Y15794D1*
Y15756D1*
X26757Y15718D1*
X26719Y15661D1*
X26527Y15469D1*
X26795D1*
X5846Y16278D2*
Y16450D1*
X5826Y16507D1*
X5807Y16527D1*
X5769Y16546D1*
X5731D1*
X5693Y16527D1*
X5673Y16507D1*
X5654Y16450D1*
Y16278D1*
X6056D1*
X5846Y16412D2*
X6056Y16546D1*
X5731Y16669D2*
X5712Y16708D1*
X5655Y16765D1*
X6056D1*
X8096Y16192D2*
Y16364D1*
X8076Y16421D1*
X8057Y16441D1*
X8019Y16460D1*
X7981D1*
X7943Y16441D1*
X7923Y16421D1*
X7904Y16364D1*
Y16192D1*
X8306D1*
X8096Y16326D2*
X8306Y16460D1*
X8000Y16603D2*
X7981D1*
X7943Y16622D1*
X7924Y16641D1*
X7905Y16679D1*
Y16756D1*
X7924Y16794D1*
X7943Y16813D1*
X7981Y16832D1*
X8019D1*
X8058Y16813D1*
X8115Y16775D1*
X8306Y16583D1*
Y16851D1*
X10178Y17808D2*
X10350D1*
X10408Y17827D1*
X10427Y17846D1*
X10446Y17884D1*
Y17923D1*
X10427Y17961D1*
X10408Y17980D1*
X10350Y17999D1*
X10178D1*
Y17597D1*
X10312Y17808D2*
X10446Y17597D1*
X10608Y17999D2*
X10818D1*
X10704Y17846D1*
X10761D1*
X10799Y17827D1*
X10818Y17808D1*
X10838Y17750D1*
Y17712D1*
X10818Y17655D1*
X10780Y17616D1*
X10723Y17597D1*
X10665D1*
X10608Y17616D1*
X10589Y17636D1*
X10570Y17674D1*
X10169Y17020D2*
X10341D1*
X10398Y17040D1*
X10418Y17059D1*
X10437Y17097D1*
Y17135D1*
X10418Y17173D1*
X10398Y17193D1*
X10341Y17212D1*
X10169D1*
Y16810D1*
X10303Y17020D2*
X10437Y16810D1*
X10752D2*
Y17211D1*
X10560Y16944D1*
X10847D1*
X36382Y19939D2*
X36554D1*
X36612Y19958D1*
X36631Y19977D1*
X36650Y20015D1*
Y20054D1*
X36631Y20092D1*
X36612Y20111D1*
X36554Y20130D1*
X36382D1*
Y19728D1*
X36516Y19939D2*
X36650Y19728D1*
X36774Y20053D2*
X36812Y20073D1*
X36870Y20130D1*
Y19728D1*
X37223Y20073D2*
X37204Y20111D1*
X37146Y20130D1*
X37108D1*
X37051Y20111D1*
X37012Y20053D1*
X36993Y19958D1*
Y19862D1*
X37012Y19786D1*
X37051Y19747D1*
X37108Y19728D1*
X37127D1*
X37184Y19747D1*
X37223Y19786D1*
X37242Y19843D1*
Y19862D1*
X37223Y19920D1*
X37184Y19958D1*
X37127Y19977D1*
X37108D1*
X37051Y19958D1*
X37012Y19920D1*
X36993Y19862D1*
X25459Y24113D2*
X25631D1*
X25688Y24132D1*
X25708Y24151D1*
X25727Y24189D1*
Y24228D1*
X25708Y24266D1*
X25688Y24285D1*
X25631Y24304D1*
X25459D1*
Y23902D1*
X25593Y24113D2*
X25727Y23902D1*
X25850Y24227D2*
X25889Y24247D1*
X25946Y24304D1*
Y23902D1*
X26069Y24227D2*
X26108Y24247D1*
X26165Y24304D1*
Y23902D1*
X25492Y26613D2*
X25664D1*
X25721Y26632D1*
X25741Y26651D1*
X25760Y26689D1*
Y26728D1*
X25741Y26766D1*
X25721Y26785D1*
X25664Y26804D1*
X25492D1*
Y26402D1*
X25626Y26613D2*
X25760Y26402D1*
X26132Y26670D2*
X26113Y26613D1*
X26075Y26574D1*
X26017Y26555D1*
X25998D1*
X25941Y26574D1*
X25903Y26613D1*
X25883Y26670D1*
Y26689D1*
X25903Y26747D1*
X25941Y26785D1*
X25998Y26804D1*
X26017D1*
X26075Y26785D1*
X26113Y26747D1*
X26132Y26670D1*
Y26574D1*
X26113Y26479D1*
X26075Y26421D1*
X26017Y26402D1*
X25979D1*
X25922Y26421D1*
X25903Y26460D1*
X25373Y25863D2*
X25545D1*
X25602Y25882D1*
X25622Y25901D1*
X25641Y25939D1*
Y25978D1*
X25622Y26016D1*
X25602Y26035D1*
X25545Y26054D1*
X25373D1*
Y25652D1*
X25507Y25863D2*
X25641Y25652D1*
X25764Y25977D2*
X25803Y25997D1*
X25860Y26054D1*
Y25652D1*
X26098Y26054D2*
X26041Y26035D1*
X26003Y25977D1*
X25983Y25882D1*
Y25824D1*
X26003Y25729D1*
X26041Y25671D1*
X26098Y25652D1*
X26136D1*
X26194Y25671D1*
X26232Y25729D1*
X26251Y25824D1*
Y25882D1*
X26232Y25977D1*
X26194Y26035D1*
X26136Y26054D1*
X26098D1*
X26232Y25977D2*
X26003Y25729D1*
X27301Y15169D2*
X27473D1*
X27530Y15189D1*
X27550Y15208D1*
X27569Y15246D1*
Y15284D1*
X27550Y15322D1*
X27530Y15342D1*
X27473Y15361D1*
X27301D1*
Y14959D1*
X27435Y15169D2*
X27569Y14959D1*
X27692Y15284D2*
X27731Y15303D1*
X27788Y15360D1*
Y14959D1*
X28141Y15360D2*
X27950D1*
X27931Y15188D1*
X27950Y15207D1*
X28008Y15227D1*
X28065D1*
X28122Y15207D1*
X28161Y15169D1*
X28180Y15112D1*
Y15074D1*
X28161Y15016D1*
X28122Y14978D1*
X28065Y14959D1*
X28008D1*
X27950Y14978D1*
X27931Y14997D1*
X27912Y15035D1*
X25373Y22363D2*
X25545D1*
X25602Y22382D1*
X25622Y22401D1*
X25641Y22439D1*
Y22478D1*
X25622Y22516D1*
X25602Y22535D1*
X25545Y22554D1*
X25373D1*
Y22152D1*
X25507Y22363D2*
X25641Y22152D1*
X25764Y22477D2*
X25803Y22497D1*
X25860Y22554D1*
Y22152D1*
X26003Y22458D2*
Y22477D1*
X26022Y22516D1*
X26041Y22535D1*
X26079Y22554D1*
X26156D1*
X26194Y22535D1*
X26213Y22516D1*
X26232Y22477D1*
Y22439D1*
X26213Y22401D1*
X26175Y22344D1*
X25983Y22152D1*
X26251D1*
X18869Y29233D2*
Y28832D1*
X19279Y29138D2*
X19260Y29176D1*
X19222Y29214D1*
X19184Y29233D1*
X19107D1*
X19069Y29214D1*
X19031Y29176D1*
X19011Y29138D1*
X18992Y29080D1*
Y28984D1*
X19011Y28927D1*
X19031Y28889D1*
X19069Y28851D1*
X19107Y28832D1*
X19184D1*
X19222Y28851D1*
X19260Y28889D1*
X19279Y28927D1*
X19441Y29233D2*
X19651D1*
X19537Y29080D1*
X19594D1*
X19632Y29061D1*
X19651Y29042D1*
X19671Y28984D1*
Y28946D1*
X19651Y28889D1*
X19613Y28851D1*
X19556Y28832D1*
X19498D1*
X19441Y28851D1*
X19422Y28870D1*
X19403Y28908D1*
X23750Y10086D2*
X23731Y10124D1*
X23693Y10163D1*
X23655Y10182D1*
X23578D1*
X23540Y10163D1*
X23502Y10124D1*
X23482Y10086D1*
X23463Y10029D1*
Y9933D1*
X23482Y9876D1*
X23502Y9837D1*
X23540Y9799D1*
X23578Y9780D1*
X23655D1*
X23693Y9799D1*
X23731Y9837D1*
X23750Y9876D1*
X24142Y10182D2*
Y9780D1*
X23874Y10182D1*
Y9780D1*
X24284Y10086D2*
Y10105D1*
X24303Y10143D1*
X24323Y10162D1*
X24361Y10181D1*
X24437D1*
X24475Y10162D1*
X24495Y10143D1*
X24514Y10105D1*
Y10067D1*
X24495Y10028D1*
X24456Y9971D1*
X24265Y9780D1*
X24533D1*
X12006Y12300D2*
X12274Y11898D1*
Y12300D2*
X12006Y11898D1*
X12398Y12223D2*
X12436Y12243D1*
X12494Y12300D1*
Y11898D1*
X39466Y9444D2*
X39428Y9482D1*
X39370Y9501D1*
X39294D1*
X39236Y9482D1*
X39198Y9444D1*
Y9406D1*
X39217Y9367D1*
X39236Y9348D1*
X39274Y9329D1*
X39389Y9291D1*
X39428Y9272D1*
X39447Y9252D1*
X39466Y9214D1*
Y9157D1*
X39428Y9119D1*
X39370Y9099D1*
X39294D1*
X39236Y9119D1*
X39198Y9157D1*
X39589Y9501D2*
X39685Y9099D1*
X39781Y9501D1*
X39876Y9099D1*
X39972Y9501D1*
X40096Y9424D2*
X40134Y9444D1*
X40192Y9501D1*
Y9099D1*
X27010Y12564D2*
X27182D1*
X27239Y12583D1*
X27259Y12602D1*
X27278Y12640D1*
Y12679D1*
X27259Y12717D1*
X27239Y12736D1*
X27182Y12755D1*
X27010D1*
Y12353D1*
X27144Y12564D2*
X27278Y12353D1*
X27401Y12678D2*
X27440Y12698D1*
X27497Y12755D1*
Y12353D1*
X27812D2*
Y12755D1*
X27621Y12487D1*
X27908D1*
X25738Y23209D2*
X25719Y23247D1*
X25681Y23285D1*
X25643Y23304D1*
X25566D1*
X25528Y23285D1*
X25490Y23247D1*
X25470Y23209D1*
X25451Y23151D1*
Y23056D1*
X25470Y22998D1*
X25490Y22960D1*
X25528Y22922D1*
X25566Y22903D1*
X25643D1*
X25681Y22922D1*
X25719Y22960D1*
X25738Y22998D1*
X25862Y23228D2*
X25900Y23247D1*
X25958Y23304D1*
Y22903D1*
X26311Y23247D2*
X26292Y23285D1*
X26234Y23304D1*
X26196D1*
X26139Y23285D1*
X26100Y23228D1*
X26081Y23132D1*
Y23037D1*
X26100Y22960D1*
X26139Y22922D1*
X26196Y22903D1*
X26215D1*
X26272Y22922D1*
X26311Y22960D1*
X26330Y23017D1*
Y23037D1*
X26311Y23094D1*
X26272Y23132D1*
X26215Y23151D1*
X26196D1*
X26139Y23132D1*
X26100Y23094D1*
X26081Y23037D1*
X25496Y15335D2*
Y15507D1*
X25476Y15565D1*
X25457Y15584D1*
X25419Y15603D1*
X25381D1*
X25343Y15584D1*
X25323Y15565D1*
X25304Y15507D1*
Y15335D1*
X25706D1*
X25496Y15469D2*
X25706Y15603D1*
X25381Y15727D2*
X25362Y15765D1*
X25305Y15823D1*
X25706D1*
X25305Y15985D2*
Y16195D1*
X25458Y16080D1*
Y16138D1*
X25477Y16176D1*
X25496Y16195D1*
X25553Y16214D1*
X25591D1*
X25649Y16195D1*
X25687Y16157D1*
X25706Y16099D1*
Y16042D1*
X25687Y15985D1*
X25668Y15966D1*
X25630Y15946D1*
X25781Y25127D2*
Y24725D1*
X25915D1*
X25972Y24745D1*
X26010Y24783D1*
X26029Y24821D1*
X26048Y24878D1*
Y24974D1*
X26029Y25032D1*
X26010Y25070D1*
X25972Y25108D1*
X25915Y25127D1*
X25781D1*
X26191Y25031D2*
Y25050D1*
X26210Y25089D1*
X26229Y25108D1*
X26268Y25127D1*
X26344D1*
X26382Y25108D1*
X26401Y25089D1*
X26421Y25050D1*
Y25012D1*
X26401Y24974D1*
X26363Y24917D1*
X26172Y24725D1*
X26440D1*
X18314Y32868D2*
X18295Y32906D1*
X18257Y32945D1*
X18219Y32964D1*
X18142D1*
X18104Y32945D1*
X18066Y32906D1*
X18046Y32868D1*
X18027Y32811D1*
Y32715D1*
X18046Y32658D1*
X18066Y32619D1*
X18104Y32581D1*
X18142Y32562D1*
X18219D1*
X18257Y32581D1*
X18295Y32619D1*
X18314Y32658D1*
X18705Y32964D2*
Y32562D1*
X18438Y32964D1*
Y32562D1*
X18867Y32963D2*
X19077D1*
X18963Y32810D1*
X19020D1*
X19058Y32791D1*
X19077Y32772D1*
X19097Y32715D1*
Y32677D1*
X19077Y32619D1*
X19039Y32581D1*
X18982Y32562D1*
X18925D1*
X18867Y32581D1*
X18848Y32600D1*
X18829Y32638D1*
X23108Y27444D2*
X23280D1*
X23337Y27463D1*
X23356Y27482D1*
X23375Y27520D1*
Y27559D1*
X23356Y27597D1*
X23337Y27616D1*
X23280Y27635D1*
X23108D1*
Y27233D1*
X23241Y27444D2*
X23375Y27233D1*
X23594Y27635D2*
X23537Y27616D1*
X23518Y27578D1*
Y27539D1*
X23537Y27501D1*
X23575Y27482D1*
X23652Y27463D1*
X23709Y27444D1*
X23747Y27405D1*
X23766Y27367D1*
Y27310D1*
X23747Y27272D1*
X23728Y27252D1*
X23671Y27233D1*
X23594D1*
X23537Y27252D1*
X23518Y27272D1*
X23499Y27310D1*
Y27367D1*
X23518Y27405D1*
X23556Y27444D1*
X23614Y27463D1*
X23690Y27482D1*
X23728Y27501D1*
X23747Y27539D1*
Y27578D1*
X23728Y27616D1*
X23671Y27635D1*
X23594D1*
X25492Y29069D2*
X25664D1*
X25722Y29088D1*
X25741Y29107D1*
X25760Y29145D1*
Y29184D1*
X25741Y29222D1*
X25722Y29241D1*
X25664Y29260D1*
X25492D1*
Y28858D1*
X25626Y29069D2*
X25760Y28858D1*
X26113Y29203D2*
X26094Y29241D1*
X26036Y29260D1*
X25998D1*
X25941Y29241D1*
X25903Y29183D1*
X25883Y29088D1*
Y28992D1*
X25903Y28916D1*
X25941Y28877D1*
X25998Y28858D1*
X26017D1*
X26075Y28877D1*
X26113Y28916D1*
X26132Y28973D1*
Y28992D1*
X26113Y29050D1*
X26075Y29088D1*
X26017Y29107D1*
X25998D1*
X25941Y29088D1*
X25903Y29050D1*
X25883Y28992D1*
X25781Y27999D2*
X25762Y28037D1*
X25724Y28076D1*
X25686Y28095D1*
X25609D1*
X25571Y28076D1*
X25533Y28037D1*
X25513Y27999D1*
X25494Y27942D1*
Y27846D1*
X25513Y27789D1*
X25533Y27750D1*
X25571Y27712D1*
X25609Y27693D1*
X25686D1*
X25724Y27712D1*
X25762Y27750D1*
X25781Y27789D1*
X25905Y28018D2*
X25943Y28037D1*
X26001Y28094D1*
Y27693D1*
X26354Y28094D2*
X26163D1*
X26144Y27922D1*
X26163Y27941D1*
X26220Y27961D1*
X26277D1*
X26335Y27941D1*
X26373Y27903D1*
X26392Y27846D1*
Y27808D1*
X26373Y27750D1*
X26335Y27712D1*
X26277Y27693D1*
X26220D1*
X26163Y27712D1*
X26144Y27731D1*
X26124Y27769D1*
X9693Y30381D2*
Y30094D1*
X9712Y30036D1*
X9751Y29998D1*
X9808Y29979D1*
X9846D1*
X9904Y29998D1*
X9942Y30036D1*
X9961Y30094D1*
Y30381D1*
X10085Y30304D2*
X10123Y30323D1*
X10181Y30380D1*
Y29979D1*
X24496Y14363D2*
Y14076D1*
X24515Y14019D1*
X24553Y13981D1*
X24611Y13961D1*
X24649D1*
X24706Y13981D1*
X24745Y14019D1*
X24764Y14076D1*
Y14363D1*
X24907Y14267D2*
Y14286D1*
X24926Y14325D1*
X24945Y14344D1*
X24983Y14363D1*
X25060D1*
X25098Y14344D1*
X25117Y14325D1*
X25136Y14286D1*
Y14248D1*
X25117Y14210D1*
X25079Y14153D1*
X24887Y13961D1*
X25155D1*
X26108Y12131D2*
X26089Y12169D1*
X26050Y12207D1*
X26012Y12226D1*
X25936D1*
X25897Y12207D1*
X25859Y12169D1*
X25840Y12131D1*
X25821Y12073D1*
Y11978D1*
X25840Y11920D1*
X25859Y11882D1*
X25897Y11844D1*
X25936Y11825D1*
X26012D1*
X26050Y11844D1*
X26089Y11882D1*
X26108Y11920D1*
X26251Y12131D2*
Y12150D1*
X26270Y12188D1*
X26289Y12207D1*
X26327Y12226D1*
X26404D1*
X26442Y12207D1*
X26461Y12188D1*
X26480Y12150D1*
Y12111D1*
X26461Y12073D1*
X26423Y12016D1*
X26231Y11825D1*
X26499D1*
X26814D2*
Y12226D1*
X26623Y11959D1*
X26910D1*
X23875Y14110D2*
X23837Y14091D1*
X23798Y14053D1*
X23779Y14015D1*
Y13938D1*
X23798Y13900D1*
X23837Y13862D1*
X23875Y13842D1*
X23932Y13823D1*
X24028D1*
X24085Y13842D1*
X24124Y13862D1*
X24162Y13900D1*
X24181Y13938D1*
Y14015D1*
X24162Y14053D1*
X24124Y14091D1*
X24085Y14110D1*
X23875Y14253D2*
X23856D1*
X23818Y14272D1*
X23799Y14291D1*
X23780Y14330D1*
Y14406D1*
X23799Y14444D1*
X23818Y14463D1*
X23856Y14483D1*
X23894D1*
X23933Y14463D1*
X23990Y14425D1*
X24181Y14234D1*
Y14502D1*
X23780Y14855D2*
Y14664D1*
X23952Y14645D1*
X23933Y14664D1*
X23913Y14721D1*
Y14778D1*
X23933Y14836D1*
X23971Y14874D1*
X24028Y14893D1*
X24066D1*
X24124Y14874D1*
X24162Y14836D1*
X24181Y14778D1*
Y14721D1*
X24162Y14664D1*
X24143Y14645D1*
X24105Y14625D1*
X23140Y11393D2*
Y11565D1*
X23121Y11623D1*
X23102Y11642D1*
X23064Y11661D1*
X23025D1*
X22987Y11642D1*
X22968Y11623D1*
X22949Y11565D1*
Y11393D1*
X23351D1*
X23140Y11527D2*
X23351Y11661D1*
X23026Y11785D2*
X23006Y11823D1*
X22949Y11881D1*
X23351D1*
Y12081D2*
X22949Y12272D1*
Y12004D1*
X25781Y21877D2*
Y21475D1*
X25915D1*
X25972Y21495D1*
X26010Y21533D1*
X26029Y21571D1*
X26048Y21628D1*
Y21724D1*
X26029Y21782D1*
X26010Y21820D1*
X25972Y21858D1*
X25915Y21877D1*
X25781D1*
X26210D2*
X26420D1*
X26306Y21724D1*
X26363D1*
X26401Y21705D1*
X26420Y21686D1*
X26440Y21628D1*
Y21590D1*
X26420Y21533D1*
X26382Y21494D1*
X26325Y21475D1*
X26267D1*
X26210Y21494D1*
X26191Y21514D1*
X26172Y21552D1*
X25498Y20863D2*
X25670D1*
X25727Y20882D1*
X25747Y20901D1*
X25766Y20939D1*
Y20978D1*
X25747Y21016D1*
X25727Y21035D1*
X25670Y21054D1*
X25498D1*
Y20652D1*
X25632Y20863D2*
X25766Y20652D1*
X25889Y20977D2*
X25928Y20997D1*
X25985Y21054D1*
Y20652D1*
X26204Y21054D2*
X26147Y21035D1*
X26128Y20997D1*
Y20958D1*
X26147Y20920D1*
X26185Y20901D1*
X26262Y20882D1*
X26319Y20863D1*
X26357Y20824D1*
X26376Y20786D1*
Y20729D1*
X26357Y20691D1*
X26338Y20671D1*
X26281Y20652D1*
X26204D1*
X26147Y20671D1*
X26128Y20691D1*
X26109Y20729D1*
Y20786D1*
X26128Y20824D1*
X26166Y20863D1*
X26223Y20882D1*
X26300Y20901D1*
X26338Y20920D1*
X26357Y20958D1*
Y20997D1*
X26338Y21035D1*
X26281Y21054D1*
X26204D1*
M02*
