M48
INCH
T01C0.0118
T02C0.0197
T03C0.0236
T04C0.0295
T05C0.0354
T06C0.0362
T07C0.0374
T08C0.0394
T09C0.0433
T10C0.0906
T11C0.126
%
T01
X+024312Y+011812
X+025812Y+011062
X+027062Y+010937
X+024312Y+009750
X+025937Y+013937
X+026062Y+014562
X+025687Y+021687
X+025687Y+024937
X+025312Y+025812
X+026812Y+027312
X+025187Y+028187
X+025187Y+029937
X+023062Y+028687
X+023062Y+026187
X+021562Y+025812
X+021437Y+024062
X+022062Y+023937
X+020062Y+021812
X+018937Y+023687
X+016062Y+023687
X+015812Y+021687
X+015812Y+021187
X+016500Y+021187
X+016750Y+021687
X+016750Y+017559
X+018437Y+017559
X+018437Y+013562
X+012937Y+018687
X+009937Y+020937
X+009312Y+020562
X+008687Y+021437
X+008687Y+022062
X+008937Y+022437
X+006312Y+022437
X+005187Y+024062
X+006437Y+020425
X+007187Y+019812
X+007687Y+019437
X+007437Y+018687
X+006562Y+019312
X+017937Y+026562
X+019937Y+026562
X+018437Y+029437
X+019187Y+030937
X+017937Y+031062
X+033687Y+019187
T02
X+034687Y+016687
X+033937Y+016437
X+033687Y+015687
X+033937Y+014937
X+034687Y+014687
X+035437Y+014937
X+035687Y+015687
X+035437Y+016437
X+038062Y+015687
X+038312Y+014937
X+039062Y+014687
X+039812Y+014937
X+040062Y+015687
X+039812Y+016437
X+039062Y+016687
X+038312Y+016437
X+031312Y+015687
X+031062Y+016437
X+030312Y+016687
X+029562Y+016437
X+029312Y+015687
X+029562Y+014937
X+030312Y+014687
X+031062Y+014937
T03
X+019437Y+032687
X+019437Y+032187
X+018937Y+032187
X+018937Y+032687
X+018437Y+032687
X+018437Y+032187
X+017937Y+032187
X+017937Y+032687
X+017437Y+032687
X+017437Y+032187
T04
X+005937Y+029875
X+005937Y+028875
X+005937Y+027875
X+005937Y+026875
X+013937Y+026875
X+013937Y+027875
X+013937Y+028875
X+013937Y+029875
T05
X+009449Y+012992
X+010449Y+012992
X+012449Y+012992
X+013449Y+012992
X+014449Y+012992
T06
X+008661Y+009843
X+008661Y+009055
X+007677Y+009055
X+007677Y+009843
T07
X+019437Y+030437
X+017437Y+030037
X+017437Y+030837
T08
X+040679Y+005733
X+039695Y+005733
X+038710Y+005733
X+038710Y+006718
X+040679Y+006718
T09
X+023213Y+033937
X+024213Y+033937
X+025213Y+033937
T10
X+005799Y+007988
X+010539Y+007988
T11
X+034687Y+015687
X+030312Y+015687
X+039062Y+015687
T00
M30
