G04 DipTrace 2.3.1.0*
%INreloadpro_Bottom.gbl*%
%MOIN*%
%ADD13C,0.014*%
%ADD14C,0.016*%
%ADD15C,0.01*%
%ADD16C,0.08*%
%ADD19C,0.025*%
%ADD29C,0.063*%
%ADD30C,0.1299*%
%ADD31R,0.0591X0.0591*%
%ADD35R,0.0748X0.0748*%
%ADD36C,0.0748*%
%ADD40C,0.0787*%
%ADD41C,0.0591*%
%ADD42C,0.0236*%
%FSLAX44Y44*%
G04*
G70*
G90*
G75*
G01*
%LNBottom*%
%LPD*%
X7687Y19437D2*
D13*
X8687D1*
X11437Y22187D1*
X6437Y20425D2*
Y19687D1*
X6687Y19437D1*
X7687D1*
X13687Y22062D2*
D15*
Y20687D1*
X14187Y20187D1*
X20687Y26937D2*
X17437D1*
X31062Y15437D2*
X32562D1*
X17437Y26937D2*
D14*
X14812D1*
Y28937D2*
Y26937D1*
X38437Y13812D2*
D16*
Y24687D1*
Y29937D1*
X36937Y31437D1*
X25937D1*
X24437Y32937D1*
Y48437D1*
X23437Y49437D1*
Y49937D1*
X37437Y24687D2*
D14*
X38437D1*
X19937Y26562D2*
D15*
X18062D1*
X16999Y5687D2*
D14*
Y5726D1*
X16015Y6711D1*
X13449Y12992D2*
Y9277D1*
X16015Y6711D1*
X13449Y12992D2*
X13382D1*
X12937Y13437D1*
Y18687D1*
X16669Y29437D2*
X12937D1*
Y18687D1*
X40437Y13812D2*
Y13187D1*
X18437D1*
X17687Y12437D1*
X14004D1*
X13449Y12992D1*
X20062Y21812D2*
Y19605D1*
X18894Y18437D1*
X13449Y12992D1*
X26437Y18437D2*
X18894D1*
X21437Y24062D2*
D15*
Y20952D1*
X20062Y19577D1*
D14*
Y19605D1*
X25437Y25687D2*
D15*
Y24952D1*
X21437Y20952D1*
X25437Y27687D2*
Y25687D1*
Y28687D2*
Y27687D1*
X21562Y26562D2*
D14*
Y25812D1*
X7187Y19812D2*
D13*
Y22187D1*
X6937Y22437D1*
X6312D1*
X10449Y12992D2*
D14*
Y15675D1*
X7437Y18687D1*
D42*
X7687Y19437D3*
X11437Y22187D3*
X6437Y20425D3*
X7687Y19437D3*
X13687Y22062D3*
X14187Y20187D3*
X20687Y26937D3*
X17437D3*
X31062Y15437D3*
X32562D3*
X14812Y26937D3*
X14187Y20187D3*
X14812Y28937D3*
X37437Y24687D3*
X19937Y26562D3*
X18062D3*
X12937Y18687D3*
X16669Y29437D3*
X12937Y18687D3*
X20062Y21812D3*
X26437Y18437D3*
X21437Y24062D3*
X25437Y25687D3*
Y27687D3*
Y25687D3*
Y28687D3*
Y27687D3*
X21562Y26562D3*
Y25812D3*
X7187Y19812D3*
X6312Y22437D3*
X7437Y18687D3*
X4337Y23813D2*
D19*
X11537D1*
X4337Y23565D2*
X11537D1*
X4337Y23316D2*
X11537D1*
X4337Y23067D2*
X11537D1*
X4337Y22819D2*
X6055D1*
X6569D2*
X11537D1*
X4337Y22570D2*
X5863D1*
X7261D2*
X11183D1*
X4337Y22321D2*
X5855D1*
X7487D2*
X10988D1*
X4337Y22073D2*
X6031D1*
X6593D2*
X6844D1*
X7519D2*
X10867D1*
X4337Y21824D2*
X6855D1*
X7519D2*
X10617D1*
X4337Y21575D2*
X6855D1*
X7519D2*
X10367D1*
X11280D2*
X11537D1*
X4337Y21326D2*
X6855D1*
X7519D2*
X10121D1*
X11034D2*
X11537D1*
X4337Y21078D2*
X6855D1*
X7519D2*
X9871D1*
X10784D2*
X11537D1*
X4337Y20829D2*
X6223D1*
X6651D2*
X6855D1*
X7519D2*
X9621D1*
X10534D2*
X11537D1*
X4337Y20580D2*
X5992D1*
X7519D2*
X9375D1*
X10288D2*
X11537D1*
X4337Y20332D2*
X5976D1*
X7519D2*
X9125D1*
X10038D2*
X11537D1*
X4337Y20083D2*
X6105D1*
X7566D2*
X8879D1*
X9788D2*
X11537D1*
X4337Y19834D2*
X6105D1*
X7913D2*
X8629D1*
X9542D2*
X11537D1*
X4337Y19586D2*
X6125D1*
X9292D2*
X11537D1*
X4337Y19337D2*
X6332D1*
X9042D2*
X11537D1*
X4337Y19088D2*
X7383D1*
X7991D2*
X11537D1*
X4337Y18840D2*
X11537D1*
X4337Y18591D2*
X11537D1*
X4337Y18342D2*
X11537D1*
X4337Y18094D2*
X11537D1*
X4337Y17845D2*
X11537D1*
X4337Y17596D2*
X11537D1*
X4337Y17347D2*
X11537D1*
X4337Y17099D2*
X11537D1*
X4337Y16850D2*
X11537D1*
X4337Y16601D2*
X11537D1*
X4337Y16353D2*
X11537D1*
X4337Y16104D2*
X11537D1*
X4337Y15855D2*
X11537D1*
X4337Y15607D2*
X4586D1*
X5257D2*
X11537D1*
X5620Y15358D2*
X11537D1*
X5776Y15109D2*
X11537D1*
X5839Y14861D2*
X11537D1*
X5831Y14612D2*
X11537D1*
X5749Y14363D2*
X11537D1*
X5569Y14115D2*
X11537D1*
X4337Y13866D2*
X4859D1*
X4979D2*
X11537D1*
X4337Y13617D2*
X11537D1*
X4337Y13368D2*
X8894D1*
X10003D2*
X11537D1*
X4337Y13120D2*
X8894D1*
X10003D2*
X11537D1*
X4337Y12871D2*
X8894D1*
X10003D2*
X11537D1*
X4337Y12622D2*
X8894D1*
X10003D2*
X11537D1*
X4337Y12374D2*
X11537D1*
X4337Y12125D2*
X11537D1*
X4337Y11876D2*
X11537D1*
X4337Y11628D2*
X11537D1*
X4337Y11379D2*
X11537D1*
X4337Y11130D2*
X11537D1*
X4337Y10882D2*
X11537D1*
X4337Y10633D2*
X11537D1*
X4337Y10384D2*
X7558D1*
X7798D2*
X11537D1*
X4337Y10136D2*
X7187D1*
X9136D2*
X11537D1*
X4337Y9887D2*
X7105D1*
X9214D2*
X11537D1*
X4337Y9638D2*
X7141D1*
X9198D2*
X11537D1*
X4337Y9389D2*
X7215D1*
X8140D2*
X8348D1*
X8976D2*
X11537D1*
X4337Y9141D2*
X7109D1*
X8245D2*
X11537D1*
X4337Y8892D2*
X7129D1*
X8226D2*
X11537D1*
X4337Y8643D2*
X5180D1*
X6417D2*
X7289D1*
X8066D2*
X9922D1*
X11159D2*
X11537D1*
X4337Y8395D2*
X4988D1*
X6608D2*
X9730D1*
X11351D2*
X11537D1*
X4337Y8146D2*
X4902D1*
X6694D2*
X9644D1*
X11433D2*
X11537D1*
X4337Y7897D2*
X4894D1*
X6702D2*
X9633D1*
X11444D2*
X11537D1*
X4337Y7649D2*
X4957D1*
X6640D2*
X9699D1*
X4337Y7400D2*
X5113D1*
X6483D2*
X9855D1*
X4337Y7151D2*
X5488D1*
X6108D2*
X10226D1*
X10851D2*
X10959D1*
X4337Y6903D2*
X10957D1*
X4337Y6654D2*
X10957D1*
X4337Y6405D2*
X10969D1*
X4337Y6156D2*
X11125D1*
X4337Y5908D2*
X11537D1*
X4337Y5659D2*
X11537D1*
X4337Y5410D2*
X11537D1*
X4337Y5162D2*
X11537D1*
X4337Y4913D2*
X11537D1*
X4337Y4664D2*
X11537D1*
X4337Y4416D2*
X11537D1*
X8657Y9317D2*
X8541D1*
X8419Y9352D1*
X8286Y9474D1*
X8202Y9559D1*
X8104Y9496D1*
X8057Y9450D1*
X8131Y9366D1*
X8189Y9256D1*
X8221Y9135D1*
X8227Y9055D1*
X8213Y8931D1*
X8171Y8814D1*
X8104Y8709D1*
X8015Y8621D1*
X7909Y8556D1*
X7790Y8517D1*
X7666Y8505D1*
X7542Y8522D1*
X7426Y8566D1*
X7322Y8635D1*
X7237Y8726D1*
X7174Y8834D1*
X7137Y8953D1*
X7128Y9077D1*
X7147Y9201D1*
X7193Y9316D1*
X7265Y9419D1*
X7296Y9447D1*
X7237Y9513D1*
X7174Y9621D1*
X7137Y9740D1*
X7128Y9865D1*
X7147Y9988D1*
X7193Y10104D1*
X7265Y10206D1*
X7357Y10290D1*
X7466Y10350D1*
X7586Y10385D1*
X7711Y10391D1*
X7833Y10370D1*
X7948Y10321D1*
X8049Y10248D1*
X8131Y10153D1*
X8169Y10081D1*
X8293Y10218D1*
X8375Y10300D1*
X8486Y10361D1*
X8666Y10369D1*
X8782D1*
X8904Y10333D1*
X9037Y10211D1*
X9119Y10129D1*
X9180Y10018D1*
X9187Y9838D1*
Y9722D1*
X9152Y9600D1*
X9030Y9467D1*
X8948Y9385D1*
X8837Y9324D1*
X8657Y9317D1*
X6675Y7864D2*
X6649Y7742D1*
X6606Y7624D1*
X6546Y7514D1*
X6472Y7414D1*
X6384Y7325D1*
X6285Y7249D1*
X6176Y7188D1*
X6060Y7143D1*
X5938Y7115D1*
X5814Y7104D1*
X5689Y7110D1*
X5567Y7135D1*
X5449Y7176D1*
X5338Y7233D1*
X5236Y7306D1*
X5146Y7392D1*
X5068Y7490D1*
X5005Y7598D1*
X4958Y7714D1*
X4928Y7835D1*
X4915Y7959D1*
X4920Y8084D1*
X4942Y8207D1*
X4981Y8325D1*
X5037Y8437D1*
X5108Y8540D1*
X5192Y8632D1*
X5289Y8711D1*
X5396Y8776D1*
X5511Y8825D1*
X5632Y8857D1*
X5756Y8872D1*
X5880Y8869D1*
X6004Y8849D1*
X6123Y8811D1*
X6236Y8758D1*
X6340Y8689D1*
X6433Y8605D1*
X6514Y8510D1*
X6580Y8404D1*
X6631Y8290D1*
X6665Y8170D1*
X6684Y7988D1*
X6675Y7864D1*
X9044Y13522D2*
X9979D1*
Y12462D1*
X8919D1*
Y13522D1*
X9044D1*
X7241Y22564D2*
X7403Y22403D1*
X7471Y22295D1*
X7492Y22187D1*
Y20136D1*
X7534Y20092D1*
X7598Y19985D1*
X7629Y19875D1*
X7710Y19882D1*
X7832Y19859D1*
X7943Y19802D1*
X8011Y19742D1*
X8558D1*
X10993Y22175D1*
X11002Y22285D1*
X11046Y22402D1*
X11121Y22501D1*
X11220Y22577D1*
X11336Y22621D1*
X11460Y22632D1*
X11563Y22612D1*
X11562Y24062D1*
X4312D1*
X4314Y15423D1*
X4459Y15535D1*
X4570Y15591D1*
X4689Y15632D1*
X4811Y15656D1*
X4936Y15662D1*
X5060Y15652D1*
X5182Y15624D1*
X5299Y15579D1*
X5408Y15519D1*
X5508Y15444D1*
X5597Y15356D1*
X5673Y15257D1*
X5734Y15148D1*
X5779Y15032D1*
X5808Y14910D1*
X5820Y14764D1*
X5811Y14639D1*
X5785Y14517D1*
X5743Y14400D1*
X5685Y14289D1*
X5611Y14188D1*
X5525Y14098D1*
X5427Y14021D1*
X5319Y13958D1*
X5203Y13910D1*
X5082Y13880D1*
X4958Y13866D1*
X4833Y13869D1*
X4710Y13890D1*
X4591Y13928D1*
X4478Y13982D1*
X4374Y14051D1*
X4313Y14105D1*
X4312Y4312D1*
X11562D1*
Y6066D1*
X11408Y6069D1*
X11285Y6087D1*
X11173Y6141D1*
X11080Y6224D1*
X11016Y6331D1*
X10986Y6456D1*
X10983Y7225D1*
X10916Y7188D1*
X10800Y7143D1*
X10678Y7115D1*
X10554Y7104D1*
X10429Y7110D1*
X10307Y7135D1*
X10189Y7176D1*
X10078Y7233D1*
X9976Y7306D1*
X9886Y7392D1*
X9808Y7490D1*
X9745Y7598D1*
X9698Y7714D1*
X9668Y7835D1*
X9655Y7959D1*
X9660Y8084D1*
X9682Y8207D1*
X9722Y8325D1*
X9777Y8437D1*
X9848Y8540D1*
X9933Y8632D1*
X10029Y8711D1*
X10136Y8776D1*
X10251Y8825D1*
X10372Y8857D1*
X10496Y8872D1*
X10621Y8869D1*
X10744Y8849D1*
X10863Y8811D1*
X10976Y8758D1*
X11080Y8689D1*
X11173Y8605D1*
X11254Y8510D1*
X11320Y8404D1*
X11371Y8290D1*
X11405Y8170D1*
X11424Y7988D1*
X11415Y7864D1*
X11390Y7745D1*
X11561Y7746D1*
X11562Y21761D1*
X11512Y21747D1*
X11423Y21745D1*
X10327Y20646D1*
X8903Y19221D1*
X8795Y19153D1*
X8687Y19132D1*
X8011D1*
X7881Y19035D1*
X7762Y18997D1*
X7638Y18994D1*
X7517Y19025D1*
X7410Y19088D1*
X7369Y19130D1*
X6687Y19132D1*
X6562Y19160D1*
X6471Y19221D1*
X6221Y19471D1*
X6153Y19579D1*
X6132Y19687D1*
Y20097D1*
X6074Y20166D1*
X6016Y20277D1*
X5992Y20399D1*
X6002Y20523D1*
X6046Y20640D1*
X6121Y20739D1*
X6220Y20815D1*
X6336Y20860D1*
X6460Y20871D1*
X6582Y20847D1*
X6693Y20790D1*
X6784Y20705D1*
X6848Y20598D1*
X6882Y20440D1*
Y22058D1*
X6808Y22132D1*
X6636D1*
X6506Y22035D1*
X6387Y21997D1*
X6263Y21994D1*
X6142Y22025D1*
X6035Y22088D1*
X5949Y22178D1*
X5891Y22289D1*
X5867Y22411D1*
X5877Y22535D1*
X5921Y22652D1*
X5996Y22751D1*
X6095Y22827D1*
X6211Y22871D1*
X6335Y22882D1*
X6457Y22859D1*
X6568Y22802D1*
X6634Y22741D1*
X6937Y22742D1*
X7062Y22715D1*
X7153Y22653D1*
X7241Y22564D1*
X4349Y50548D2*
X23236D1*
X23638D2*
X42896D1*
X4349Y50299D2*
X21803D1*
X24950D2*
X42896D1*
X4349Y50050D2*
X21803D1*
X25060D2*
X42896D1*
X4349Y49802D2*
X21803D1*
X25056D2*
X42896D1*
X4349Y49553D2*
X21803D1*
X24935D2*
X42896D1*
X4349Y49304D2*
X22791D1*
X24493D2*
X42896D1*
X4349Y49055D2*
X22904D1*
X24743D2*
X42896D1*
X4349Y48807D2*
X23143D1*
X24978D2*
X42896D1*
X4349Y48558D2*
X23393D1*
X25087D2*
X42896D1*
X4349Y48309D2*
X23643D1*
X25099D2*
X42896D1*
X4349Y48061D2*
X23775D1*
X25099D2*
X42896D1*
X4349Y47812D2*
X23775D1*
X25099D2*
X42896D1*
X4349Y47563D2*
X23775D1*
X25099D2*
X42896D1*
X4349Y47315D2*
X23775D1*
X25099D2*
X42896D1*
X4349Y47066D2*
X23775D1*
X25099D2*
X42896D1*
X4349Y46817D2*
X23775D1*
X25099D2*
X42896D1*
X4349Y46569D2*
X23775D1*
X25099D2*
X42896D1*
X4349Y46320D2*
X23775D1*
X25099D2*
X42896D1*
X4349Y46071D2*
X23775D1*
X25099D2*
X42896D1*
X4349Y45823D2*
X23775D1*
X25099D2*
X42896D1*
X4349Y45574D2*
X23775D1*
X25099D2*
X42896D1*
X4349Y45325D2*
X23775D1*
X25099D2*
X42896D1*
X4349Y45076D2*
X23775D1*
X25099D2*
X42896D1*
X4349Y44828D2*
X23775D1*
X25099D2*
X42896D1*
X4349Y44579D2*
X23775D1*
X25099D2*
X42896D1*
X4349Y44330D2*
X23775D1*
X25099D2*
X42896D1*
X4349Y44082D2*
X23775D1*
X25099D2*
X42896D1*
X4349Y43833D2*
X23775D1*
X25099D2*
X42896D1*
X4349Y43584D2*
X23775D1*
X25099D2*
X42896D1*
X4349Y43336D2*
X23775D1*
X25099D2*
X42896D1*
X4349Y43087D2*
X23775D1*
X25099D2*
X42896D1*
X4349Y42838D2*
X23775D1*
X25099D2*
X42896D1*
X4349Y42590D2*
X23775D1*
X25099D2*
X42896D1*
X4349Y42341D2*
X23775D1*
X25099D2*
X42896D1*
X4349Y42092D2*
X23775D1*
X25099D2*
X42896D1*
X4349Y41844D2*
X23775D1*
X25099D2*
X42896D1*
X4349Y41595D2*
X23775D1*
X25099D2*
X42896D1*
X4349Y41346D2*
X23775D1*
X25099D2*
X42896D1*
X4349Y41097D2*
X23775D1*
X25099D2*
X42896D1*
X4349Y40849D2*
X23775D1*
X25099D2*
X42896D1*
X4349Y40600D2*
X23775D1*
X25099D2*
X42896D1*
X4349Y40351D2*
X23775D1*
X25099D2*
X42896D1*
X4349Y40103D2*
X23775D1*
X25099D2*
X42896D1*
X4349Y39854D2*
X23775D1*
X25099D2*
X42896D1*
X4349Y39605D2*
X23775D1*
X25099D2*
X42896D1*
X4349Y39357D2*
X23775D1*
X25099D2*
X42896D1*
X4349Y39108D2*
X23775D1*
X25099D2*
X42896D1*
X4349Y38859D2*
X23775D1*
X25099D2*
X42896D1*
X4349Y38611D2*
X23775D1*
X25099D2*
X42896D1*
X4349Y38362D2*
X23775D1*
X25099D2*
X42896D1*
X4349Y38113D2*
X23775D1*
X25099D2*
X42896D1*
X4349Y37865D2*
X23775D1*
X25099D2*
X42896D1*
X4349Y37616D2*
X23775D1*
X25099D2*
X42896D1*
X4349Y37367D2*
X23775D1*
X25099D2*
X42896D1*
X4349Y37118D2*
X23775D1*
X25099D2*
X42896D1*
X4349Y36870D2*
X23775D1*
X25099D2*
X42896D1*
X4349Y36621D2*
X23775D1*
X25099D2*
X42896D1*
X4349Y36372D2*
X23775D1*
X25099D2*
X42896D1*
X4349Y36124D2*
X23775D1*
X25099D2*
X42896D1*
X4349Y35875D2*
X23775D1*
X25099D2*
X42896D1*
X4349Y35626D2*
X23775D1*
X25099D2*
X42896D1*
X4349Y35378D2*
X23775D1*
X25099D2*
X42896D1*
X5532Y35129D2*
X23775D1*
X25099D2*
X41713D1*
X5732Y34880D2*
X23775D1*
X25099D2*
X41514D1*
X5825Y34632D2*
X23775D1*
X25099D2*
X41420D1*
X5841Y34383D2*
X23775D1*
X25099D2*
X41404D1*
X5786Y34134D2*
X23775D1*
X25099D2*
X41459D1*
X5646Y33886D2*
X23775D1*
X25099D2*
X41600D1*
X4349Y33637D2*
X4520D1*
X5325D2*
X23775D1*
X25099D2*
X41916D1*
X42728D2*
X42895D1*
X4349Y33388D2*
X23775D1*
X25099D2*
X42896D1*
X4349Y33139D2*
X23775D1*
X25157D2*
X42896D1*
X4349Y32891D2*
X23779D1*
X25407D2*
X42896D1*
X4349Y32642D2*
X23850D1*
X25653D2*
X42896D1*
X4349Y32393D2*
X24057D1*
X25903D2*
X42896D1*
X4349Y32145D2*
X24307D1*
X26153D2*
X42896D1*
X4349Y31896D2*
X24557D1*
X37400D2*
X42896D1*
X4349Y31647D2*
X24803D1*
X37650D2*
X42896D1*
X4349Y31399D2*
X25053D1*
X37900D2*
X42896D1*
X4349Y31150D2*
X25303D1*
X38146D2*
X42896D1*
X4349Y30901D2*
X25572D1*
X38396D2*
X42896D1*
X4349Y30653D2*
X36799D1*
X38646D2*
X42896D1*
X4349Y30404D2*
X37049D1*
X38892D2*
X42896D1*
X4349Y30155D2*
X37295D1*
X39060D2*
X42896D1*
X4349Y29906D2*
X37545D1*
X39099D2*
X42896D1*
X4349Y29658D2*
X37775D1*
X39099D2*
X42896D1*
X4349Y29409D2*
X37775D1*
X39099D2*
X42896D1*
X4349Y29160D2*
X14404D1*
X15220D2*
X37775D1*
X39099D2*
X42896D1*
X4349Y28912D2*
X14346D1*
X15278D2*
X37775D1*
X39099D2*
X42896D1*
X4349Y28663D2*
X14439D1*
X15185D2*
X37775D1*
X39099D2*
X42896D1*
X4349Y28414D2*
X14471D1*
X15153D2*
X37775D1*
X39099D2*
X42896D1*
X4349Y28166D2*
X14471D1*
X15153D2*
X37775D1*
X39099D2*
X42896D1*
X4349Y27917D2*
X14471D1*
X15153D2*
X37775D1*
X39099D2*
X42896D1*
X4349Y27668D2*
X14471D1*
X15153D2*
X37775D1*
X39099D2*
X42896D1*
X4349Y27420D2*
X14471D1*
X15153D2*
X37775D1*
X39099D2*
X42896D1*
X4349Y27171D2*
X14408D1*
X21091D2*
X37775D1*
X39099D2*
X42896D1*
X4349Y26922D2*
X14342D1*
X21157D2*
X21276D1*
X21845D2*
X37775D1*
X39099D2*
X42896D1*
X4349Y26674D2*
X14432D1*
X22017D2*
X37775D1*
X39099D2*
X42896D1*
X4349Y26425D2*
X17615D1*
X20384D2*
X21115D1*
X22009D2*
X37775D1*
X39099D2*
X42896D1*
X4349Y26176D2*
X17818D1*
X18306D2*
X19693D1*
X20181D2*
X21221D1*
X21903D2*
X37775D1*
X39099D2*
X42896D1*
X4349Y25927D2*
X21107D1*
X22017D2*
X37775D1*
X39099D2*
X42896D1*
X4349Y25679D2*
X21115D1*
X22009D2*
X37775D1*
X39099D2*
X42896D1*
X4349Y25430D2*
X21311D1*
X21814D2*
X37775D1*
X39099D2*
X42896D1*
X4349Y25181D2*
X37775D1*
X39099D2*
X42896D1*
X4349Y24933D2*
X37041D1*
X39099D2*
X42896D1*
X4349Y24684D2*
X36967D1*
X39099D2*
X42896D1*
X4349Y24435D2*
X37045D1*
X39099D2*
X42896D1*
X11946Y24187D2*
X37775D1*
X39099D2*
X42896D1*
X11946Y23938D2*
X37775D1*
X39099D2*
X42896D1*
X11946Y23689D2*
X37775D1*
X39099D2*
X42896D1*
X11946Y23441D2*
X37775D1*
X39099D2*
X42896D1*
X11946Y23192D2*
X37775D1*
X39099D2*
X42896D1*
X11946Y22943D2*
X37775D1*
X39099D2*
X42896D1*
X11946Y22695D2*
X37775D1*
X39099D2*
X42896D1*
X11946Y22446D2*
X13439D1*
X13935D2*
X37775D1*
X39099D2*
X42896D1*
X11946Y22197D2*
X13240D1*
X14134D2*
X37775D1*
X39099D2*
X42896D1*
X11946Y21948D2*
X13232D1*
X14142D2*
X37775D1*
X39099D2*
X42896D1*
X11946Y21700D2*
X13377D1*
X13997D2*
X37775D1*
X39099D2*
X42896D1*
X11946Y21451D2*
X13377D1*
X13997D2*
X37775D1*
X39099D2*
X42896D1*
X11946Y21202D2*
X13377D1*
X13997D2*
X37775D1*
X39099D2*
X42896D1*
X11946Y20954D2*
X13377D1*
X13997D2*
X37775D1*
X39099D2*
X42896D1*
X11946Y20705D2*
X13377D1*
X14095D2*
X37775D1*
X39099D2*
X42896D1*
X11946Y20456D2*
X13490D1*
X14564D2*
X37775D1*
X39099D2*
X42896D1*
X11946Y20208D2*
X13717D1*
X14657D2*
X37775D1*
X39099D2*
X42896D1*
X11946Y19959D2*
X13779D1*
X14591D2*
X37775D1*
X39099D2*
X42896D1*
X11946Y19710D2*
X37775D1*
X39099D2*
X42896D1*
X11946Y19462D2*
X37775D1*
X39099D2*
X42896D1*
X11946Y19213D2*
X37775D1*
X39099D2*
X42896D1*
X11946Y18964D2*
X37775D1*
X39099D2*
X42896D1*
X11946Y18716D2*
X37775D1*
X39099D2*
X42896D1*
X11946Y18467D2*
X37775D1*
X39099D2*
X42896D1*
X11946Y18218D2*
X37775D1*
X39099D2*
X42896D1*
X11946Y17969D2*
X37775D1*
X39099D2*
X42896D1*
X11946Y17721D2*
X37775D1*
X39099D2*
X42896D1*
X11946Y17472D2*
X37775D1*
X39099D2*
X42896D1*
X11946Y17223D2*
X37775D1*
X39099D2*
X42896D1*
X11946Y16975D2*
X37775D1*
X39099D2*
X42896D1*
X11946Y16726D2*
X37775D1*
X39099D2*
X42896D1*
X11946Y16477D2*
X37775D1*
X39099D2*
X42896D1*
X11946Y16229D2*
X37775D1*
X39099D2*
X42896D1*
X11946Y15980D2*
X37775D1*
X39099D2*
X42896D1*
X11946Y15731D2*
X30705D1*
X31419D2*
X32205D1*
X32919D2*
X37775D1*
X39099D2*
X42896D1*
X11946Y15483D2*
X30596D1*
X33028D2*
X37775D1*
X39099D2*
X41764D1*
X11946Y15234D2*
X30643D1*
X32982D2*
X37775D1*
X39099D2*
X41533D1*
X11946Y14985D2*
X37775D1*
X39099D2*
X41428D1*
X11946Y14737D2*
X37775D1*
X39099D2*
X41400D1*
X11946Y14488D2*
X37775D1*
X39099D2*
X41443D1*
X11946Y14239D2*
X37775D1*
X39099D2*
X41572D1*
X11946Y13990D2*
X37775D1*
X39099D2*
X41846D1*
X42802D2*
X42898D1*
X11946Y13742D2*
X37779D1*
X39095D2*
X42896D1*
X12935Y13493D2*
X14252D1*
X14646D2*
X37861D1*
X39013D2*
X42896D1*
X13107Y13244D2*
X13959D1*
X14939D2*
X38127D1*
X38747D2*
X42896D1*
X13153Y12996D2*
X13893D1*
X15005D2*
X18775D1*
X13107Y12747D2*
X13955D1*
X14943D2*
X18572D1*
X12943Y12498D2*
X14232D1*
X14665D2*
X18498D1*
X11946Y12250D2*
X18486D1*
X11946Y12001D2*
X18486D1*
X11946Y11752D2*
X18486D1*
X11946Y11504D2*
X18486D1*
X11946Y11255D2*
X18486D1*
X11946Y11006D2*
X18486D1*
X11946Y10758D2*
X18486D1*
X11946Y10509D2*
X18486D1*
X11946Y10260D2*
X18486D1*
X11946Y10011D2*
X18486D1*
X11946Y9763D2*
X18486D1*
X11946Y9514D2*
X18486D1*
X11946Y9265D2*
X18486D1*
X11946Y9017D2*
X18486D1*
X11946Y8768D2*
X18486D1*
X11946Y8519D2*
X18486D1*
X11946Y8271D2*
X18486D1*
X11946Y8022D2*
X18486D1*
X11946Y7773D2*
X18486D1*
X12595Y7525D2*
X17467D1*
X12646Y7276D2*
X13748D1*
X14345D2*
X17416D1*
X12646Y7027D2*
X13478D1*
X14614D2*
X17416D1*
X12646Y6779D2*
X13396D1*
X14696D2*
X17416D1*
X12646Y6530D2*
X13420D1*
X14673D2*
X17416D1*
X12587Y6281D2*
X12830D1*
X13290D2*
X13561D1*
X14528D2*
X14799D1*
X15259D2*
X17471D1*
X11946Y6032D2*
X12514D1*
X13611D2*
X14478D1*
X15579D2*
X18486D1*
X11946Y5784D2*
X12416D1*
X13708D2*
X14385D1*
X15677D2*
X18486D1*
X11946Y5535D2*
X12428D1*
X13696D2*
X14396D1*
X15665D2*
X18486D1*
X11946Y5286D2*
X12553D1*
X13571D2*
X14521D1*
X15540D2*
X18486D1*
X11946Y5038D2*
X18486D1*
X11946Y4789D2*
X18486D1*
X11946Y4540D2*
X18486D1*
X5809Y34324D2*
X5783Y34202D1*
X5741Y34085D1*
X5682Y33974D1*
X5609Y33873D1*
X5522Y33783D1*
X5424Y33706D1*
X5316Y33644D1*
X5200Y33597D1*
X5079Y33566D1*
X4955Y33553D1*
X4830Y33557D1*
X4707Y33578D1*
X4588Y33616D1*
X4476Y33671D1*
X4322Y33784D1*
Y24420D1*
X8687Y24422D1*
X11687D1*
X11806Y24390D1*
X11892Y24301D1*
X11922Y24187D1*
Y13425D1*
X12026Y13525D1*
X12131Y13594D1*
X12246Y13642D1*
X12368Y13668D1*
X12493Y13671D1*
X12616Y13651D1*
X12734Y13610D1*
X12842Y13547D1*
X12937Y13466D1*
X13015Y13369D1*
X13075Y13259D1*
X13113Y13140D1*
X13129Y12992D1*
X13118Y12868D1*
X13084Y12748D1*
X13028Y12636D1*
X12953Y12536D1*
X12862Y12451D1*
X12756Y12385D1*
X12640Y12339D1*
X12517Y12315D1*
X12392Y12314D1*
X12270Y12336D1*
X12153Y12380D1*
X12046Y12444D1*
X11952Y12527D1*
X11921Y12567D1*
X11922Y7746D1*
X12196D1*
X12319Y7728D1*
X12432Y7674D1*
X12524Y7591D1*
X12588Y7484D1*
X12619Y7359D1*
X12621Y6494D1*
X12603Y6371D1*
X12549Y6258D1*
X12466Y6166D1*
X12359Y6102D1*
X12235Y6071D1*
X11919Y6069D1*
X11922Y5687D1*
Y4324D1*
X14582Y4322D1*
X18498Y4325D1*
X18513Y4361D1*
X18467Y4313D1*
X18513Y4475D1*
Y6073D1*
X17865Y6069D1*
X17742Y6087D1*
X17629Y6141D1*
X17537Y6224D1*
X17473Y6331D1*
X17442Y6456D1*
X17440Y7321D1*
X17458Y7444D1*
X17512Y7557D1*
X17595Y7649D1*
X17702Y7713D1*
X17826Y7744D1*
X18510Y7746D1*
X18513Y8850D1*
X18514Y12440D1*
X18546Y12624D1*
X18629Y12806D1*
X18754Y12961D1*
X18914Y13080D1*
X19100Y13155D1*
X19272Y13180D1*
X38377D1*
X38310Y13190D1*
X38191Y13227D1*
X38092Y13280D1*
X37907Y13282D1*
Y13463D1*
X37849Y13573D1*
X37813Y13693D1*
X37802Y13937D1*
Y24371D1*
X37732Y24355D1*
X37628Y24286D1*
X37509Y24249D1*
X37385Y24246D1*
X37264Y24278D1*
X37157Y24342D1*
X37073Y24433D1*
X37016Y24545D1*
X36993Y24667D1*
X37005Y24791D1*
X37051Y24907D1*
X37127Y25005D1*
X37228Y25079D1*
X37345Y25121D1*
X37469Y25130D1*
X37591Y25103D1*
X37701Y25044D1*
X37742Y25003D1*
X37802Y25062D1*
Y29675D1*
X36676Y30800D1*
X32687Y30802D1*
X25937D1*
X25813Y30814D1*
X25693Y30851D1*
X25583Y30910D1*
X25488Y30988D1*
X23988Y32488D1*
X23909Y32584D1*
X23850Y32695D1*
X23814Y32814D1*
X23802Y32937D1*
Y48175D1*
X22988Y48988D1*
X22909Y49084D1*
X22850Y49195D1*
X22813Y49322D1*
X22671Y49328D1*
X21828D1*
Y50546D1*
X23046D1*
Y50441D1*
X23196Y50524D1*
X23315Y50560D1*
X23440Y50572D1*
X23564Y50559D1*
X23683Y50522D1*
X23793Y50463D1*
X23889Y50383D1*
X23950Y50308D1*
X24089Y50437D1*
X24199Y50497D1*
X24318Y50534D1*
X24442Y50546D1*
X24566Y50532D1*
X24685Y50493D1*
X24793Y50431D1*
X24886Y50348D1*
X24961Y50248D1*
X25013Y50135D1*
X25041Y50013D1*
X25046Y49937D1*
X25033Y49813D1*
X24995Y49694D1*
X24934Y49585D1*
X24852Y49491D1*
X24753Y49416D1*
X24640Y49363D1*
X24518Y49333D1*
X24444Y49331D1*
X24886Y48886D1*
X24965Y48790D1*
X25024Y48679D1*
X25060Y48560D1*
X25072Y48437D1*
Y33199D1*
X26198Y32074D1*
X30187Y32072D1*
X36937D1*
X37061Y32060D1*
X37181Y32023D1*
X37291Y31964D1*
X37386Y31886D1*
X38886Y30386D1*
X38965Y30290D1*
X39024Y30179D1*
X39060Y30060D1*
X39072Y29937D1*
Y13812D1*
X39060Y13688D1*
X39023Y13568D1*
X38966Y13462D1*
X38967Y13282D1*
X38784D1*
X38772Y13180D1*
X42908Y13184D1*
X42922Y13219D1*
X42877Y13171D1*
X42922Y13334D1*
Y14095D1*
X42826Y14021D1*
X42718Y13959D1*
X42602Y13911D1*
X42481Y13881D1*
X42357Y13868D1*
X42232Y13872D1*
X42109Y13893D1*
X41990Y13931D1*
X41877Y13985D1*
X41773Y14055D1*
X41680Y14138D1*
X41600Y14233D1*
X41533Y14339D1*
X41482Y14453D1*
X41447Y14573D1*
X41429Y14696D1*
X41428Y14821D1*
X41445Y14945D1*
X41478Y15065D1*
X41528Y15180D1*
X41594Y15286D1*
X41673Y15382D1*
X41766Y15467D1*
X41869Y15537D1*
X41981Y15593D1*
X42099Y15632D1*
X42222Y15655D1*
X42347Y15660D1*
X42471Y15648D1*
X42592Y15619D1*
X42709Y15573D1*
X42817Y15512D1*
X42925Y15428D1*
X42922Y16459D1*
Y33783D1*
X42826Y33706D1*
X42718Y33644D1*
X42602Y33597D1*
X42481Y33566D1*
X42357Y33553D1*
X42232Y33557D1*
X42109Y33578D1*
X41990Y33616D1*
X41877Y33671D1*
X41773Y33740D1*
X41680Y33823D1*
X41600Y33919D1*
X41533Y34024D1*
X41482Y34138D1*
X41447Y34258D1*
X41429Y34381D1*
X41428Y34506D1*
X41445Y34630D1*
X41478Y34750D1*
X41528Y34865D1*
X41594Y34971D1*
X41673Y35067D1*
X41766Y35152D1*
X41869Y35222D1*
X41981Y35278D1*
X42099Y35317D1*
X42222Y35340D1*
X42347Y35345D1*
X42471Y35333D1*
X42592Y35304D1*
X42709Y35258D1*
X42817Y35197D1*
X42925Y35113D1*
X42922Y36959D1*
Y50794D1*
X41053Y50796D1*
X4336Y50793D1*
X4322Y50758D1*
X4367Y50805D1*
X4322Y50643D1*
Y35115D1*
X4467Y35222D1*
X4579Y35278D1*
X4698Y35317D1*
X4820Y35340D1*
X4945Y35345D1*
X5069Y35333D1*
X5191Y35304D1*
X5307Y35258D1*
X5416Y35197D1*
X5515Y35121D1*
X5603Y35032D1*
X5677Y34932D1*
X5737Y34822D1*
X5781Y34705D1*
X5808Y34583D1*
X5818Y34449D1*
X5809Y34324D1*
X13678Y5563D2*
X13642Y5444D1*
X13582Y5334D1*
X13502Y5238D1*
X13405Y5160D1*
X13294Y5103D1*
X13174Y5068D1*
X13050Y5058D1*
X12926Y5073D1*
X12807Y5112D1*
X12699Y5174D1*
X12604Y5256D1*
X12528Y5355D1*
X12473Y5467D1*
X12441Y5587D1*
X12434Y5712D1*
X12451Y5835D1*
X12492Y5953D1*
X12556Y6060D1*
X12640Y6153D1*
X12740Y6227D1*
X12853Y6280D1*
X12975Y6310D1*
X13099Y6315D1*
X13223Y6295D1*
X13339Y6251D1*
X13445Y6185D1*
X13536Y6100D1*
X13608Y5998D1*
X13659Y5884D1*
X13686Y5762D1*
X13691Y5687D1*
X13678Y5563D1*
X14663Y6586D2*
X14626Y6467D1*
X14566Y6357D1*
X14486Y6262D1*
X14389Y6184D1*
X14278Y6126D1*
X14158Y6092D1*
X14034Y6082D1*
X13910Y6097D1*
X13791Y6136D1*
X13683Y6198D1*
X13589Y6279D1*
X13513Y6378D1*
X13457Y6490D1*
X13426Y6611D1*
X13418Y6736D1*
X13435Y6859D1*
X13477Y6977D1*
X13541Y7084D1*
X13624Y7177D1*
X13725Y7251D1*
X13838Y7304D1*
X13959Y7333D1*
X14084Y7338D1*
X14207Y7318D1*
X14324Y7275D1*
X14430Y7209D1*
X14521Y7123D1*
X14593Y7022D1*
X14643Y6908D1*
X14670Y6786D1*
X14675Y6711D1*
X14663Y6586D1*
X15647Y5563D2*
X15610Y5444D1*
X15551Y5334D1*
X15471Y5238D1*
X15373Y5160D1*
X15262Y5103D1*
X15142Y5068D1*
X15018Y5058D1*
X14894Y5073D1*
X14776Y5112D1*
X14667Y5174D1*
X14573Y5256D1*
X14497Y5355D1*
X14442Y5467D1*
X14410Y5587D1*
X14402Y5712D1*
X14420Y5835D1*
X14461Y5953D1*
X14525Y6060D1*
X14608Y6153D1*
X14709Y6227D1*
X14822Y6280D1*
X14943Y6310D1*
X15068Y6315D1*
X15191Y6295D1*
X15308Y6251D1*
X15414Y6185D1*
X15505Y6100D1*
X15577Y5998D1*
X15628Y5884D1*
X15655Y5762D1*
X15659Y5687D1*
X15647Y5563D1*
X14964Y12868D2*
X14921Y12751D1*
X14852Y12648D1*
X14760Y12563D1*
X14651Y12502D1*
X14531Y12468D1*
X14407Y12464D1*
X14285Y12488D1*
X14171Y12540D1*
X14073Y12618D1*
X13996Y12716D1*
X13944Y12829D1*
X13920Y12951D1*
X13925Y13076D1*
X13959Y13196D1*
X14020Y13305D1*
X14105Y13396D1*
X14209Y13465D1*
X14326Y13508D1*
X14450Y13522D1*
X14574Y13507D1*
X14691Y13464D1*
X14794Y13395D1*
X14879Y13303D1*
X14939Y13194D1*
X14973Y13074D1*
X14979Y12992D1*
X14964Y12868D1*
X13972Y21722D2*
X13977Y20800D1*
X14145Y20632D1*
X14219Y20630D1*
X14341Y20603D1*
X14451Y20544D1*
X14540Y20457D1*
X14601Y20348D1*
X14631Y20187D1*
X14614Y20064D1*
X14563Y19950D1*
X14482Y19855D1*
X14378Y19786D1*
X14259Y19749D1*
X14135Y19746D1*
X14014Y19778D1*
X13907Y19842D1*
X13823Y19933D1*
X13766Y20045D1*
X13743Y20167D1*
X13749Y20225D1*
X13485Y20485D1*
X13418Y20594D1*
X13438Y20548D1*
X13402Y20687D1*
Y21722D1*
X13323Y21808D1*
X13266Y21920D1*
X13243Y22042D1*
X13255Y22166D1*
X13301Y22282D1*
X13377Y22380D1*
X13478Y22454D1*
X13595Y22496D1*
X13719Y22505D1*
X13841Y22478D1*
X13951Y22419D1*
X14040Y22332D1*
X14101Y22223D1*
X14131Y22062D1*
X14114Y21939D1*
X14063Y21825D1*
X13972Y21724D1*
X14153Y20625D2*
X14219Y20630D1*
X14341Y20603D1*
X14451Y20544D1*
X14540Y20457D1*
X14601Y20348D1*
X14631Y20187D1*
X14614Y20064D1*
X14563Y19950D1*
X14482Y19855D1*
X14378Y19786D1*
X14259Y19749D1*
X14135Y19746D1*
X14014Y19778D1*
X13907Y19842D1*
X13823Y19933D1*
X13766Y20045D1*
X13743Y20167D1*
X13749Y20225D1*
X17777Y27222D2*
X20347D1*
X20377Y27255D1*
X20478Y27329D1*
X20595Y27371D1*
X20719Y27380D1*
X20841Y27353D1*
X20951Y27294D1*
X21040Y27207D1*
X21101Y27098D1*
X21131Y26937D1*
X21114Y26814D1*
X21063Y26700D1*
X20982Y26605D1*
X20878Y26536D1*
X20759Y26499D1*
X20635Y26496D1*
X20514Y26528D1*
X20407Y26592D1*
X20378Y26623D1*
X20381Y26562D1*
X20364Y26439D1*
X20313Y26325D1*
X20232Y26230D1*
X20128Y26161D1*
X20009Y26124D1*
X19885Y26121D1*
X19764Y26153D1*
X19657Y26217D1*
X19602Y26277D1*
X18402D1*
X18357Y26230D1*
X18253Y26161D1*
X18134Y26124D1*
X18010Y26121D1*
X17889Y26153D1*
X17782Y26217D1*
X17698Y26308D1*
X17641Y26420D1*
X17621Y26530D1*
X17509Y26499D1*
X17385Y26496D1*
X17264Y26528D1*
X17157Y26592D1*
X17128Y26623D1*
X15128Y26622D1*
X15003Y26536D1*
X14884Y26499D1*
X14760Y26496D1*
X14639Y26528D1*
X14532Y26592D1*
X14448Y26683D1*
X14391Y26795D1*
X14368Y26917D1*
X14380Y27041D1*
X14426Y27157D1*
X14495Y27246D1*
X14497Y28621D1*
X14448Y28683D1*
X14391Y28795D1*
X14368Y28917D1*
X14380Y29041D1*
X14426Y29157D1*
X14502Y29255D1*
X14603Y29329D1*
X14720Y29371D1*
X14844Y29380D1*
X14966Y29353D1*
X15076Y29294D1*
X15165Y29207D1*
X15226Y29098D1*
X15256Y28937D1*
X15239Y28814D1*
X15188Y28700D1*
X15125Y28626D1*
X15127Y27253D1*
X17121Y27252D1*
X17228Y27329D1*
X17345Y27371D1*
X17469Y27380D1*
X17591Y27353D1*
X17701Y27294D1*
X17776Y27221D1*
X31402Y15722D2*
X32222D1*
X32252Y15755D1*
X32353Y15829D1*
X32470Y15871D1*
X32594Y15880D1*
X32716Y15853D1*
X32826Y15794D1*
X32915Y15707D1*
X32976Y15598D1*
X33006Y15437D1*
X32989Y15314D1*
X32938Y15200D1*
X32857Y15105D1*
X32753Y15036D1*
X32634Y14999D1*
X32510Y14996D1*
X32389Y15028D1*
X32282Y15092D1*
X32227Y15152D1*
X31402D1*
X31357Y15105D1*
X31253Y15036D1*
X31134Y14999D1*
X31010Y14996D1*
X30889Y15028D1*
X30782Y15092D1*
X30698Y15183D1*
X30641Y15295D1*
X30618Y15417D1*
X30630Y15541D1*
X30676Y15657D1*
X30752Y15755D1*
X30853Y15829D1*
X30970Y15871D1*
X31094Y15880D1*
X31216Y15853D1*
X31326Y15794D1*
X31401Y15721D1*
X21877Y26246D2*
Y26128D1*
X21915Y26082D1*
X21976Y25973D1*
X22006Y25812D1*
X21989Y25689D1*
X21938Y25575D1*
X21857Y25480D1*
X21753Y25411D1*
X21634Y25374D1*
X21510Y25371D1*
X21389Y25403D1*
X21282Y25467D1*
X21198Y25558D1*
X21141Y25670D1*
X21118Y25792D1*
X21130Y25916D1*
X21176Y26032D1*
X21245Y26121D1*
X21247Y26246D1*
X21198Y26308D1*
X21141Y26420D1*
X21118Y26542D1*
X21130Y26666D1*
X21176Y26782D1*
X21252Y26880D1*
X21353Y26954D1*
X21470Y26996D1*
X21594Y27005D1*
X21716Y26978D1*
X21826Y26919D1*
X21915Y26832D1*
X21976Y26723D1*
X22006Y26562D1*
X21989Y26439D1*
X21938Y26325D1*
X21875Y26251D1*
G36*
X8782Y9552D2*
X8541D1*
X8370Y9722D1*
Y9963D1*
X8541Y10134D1*
X8782D1*
X8952Y9963D1*
Y9722D1*
X8782Y9552D1*
G37*
D29*
X7677Y9843D3*
Y9055D3*
X8661D3*
D30*
X5799Y7988D3*
X10539D3*
D31*
X38437Y13812D3*
X40437D3*
D35*
X22437Y49937D3*
D36*
X23437D3*
X24437D3*
D40*
X13062Y5687D3*
X14046Y6711D3*
X15031Y5687D3*
X16015Y6711D3*
X16999Y5687D3*
D31*
X9449Y12992D3*
D41*
X10449D3*
X12449D3*
X13449D3*
X14449D3*
M02*
