M48
INCH
T01C0.0118
T02C0.0197
T03C0.0354
T04C0.0362
T05C0.0433
T06C0.0472
T07C0.0906
T08C0.1024
T09C0.126
%
T01
X+007687Y+019437
X+007187Y+019812
X+006437Y+020425
X+007437Y+018687
X+006312Y+022437
X+011437Y+022187
X+013687Y+022062
X+014187Y+020187
X+012937Y+018687
X+020062Y+021812
X+021437Y+024062
X+021687Y+025687
X+020687Y+026937
X+019937Y+026562
X+018062Y+026562
X+017437Y+026937
X+016669Y+029437
X+014812Y+028937
X+014812Y+026937
X+020687Y+031437
X+020687Y+031937
X+022062Y+031937
X+022062Y+031437
X+025187Y+029562
X+025187Y+028812
X+025187Y+028062
X+025187Y+027312
X+024687Y+026062
X+025187Y+024937
X+025437Y+024187
X+025187Y+023437
X+025937Y+018437
X+030437Y+015437
X+032187Y+015437
X+031312Y+019937
X+035437Y+025562
T02
X+036437Y+016187
X+035687Y+015937
X+035437Y+015187
X+035687Y+014437
X+036437Y+014187
X+037187Y+014437
X+037437Y+015187
X+037187Y+015937
X+038937Y+015187
X+039187Y+014437
X+039937Y+014187
X+040687Y+014437
X+040937Y+015187
X+040687Y+015937
X+039937Y+016187
X+039187Y+015937
T03
X+009449Y+012992
X+010449Y+012992
X+012449Y+012992
X+013449Y+012992
X+014449Y+012992
T04
X+008661Y+009843
X+008661Y+009055
X+007677Y+009055
X+007677Y+009843
T05
X+022437Y+033937
X+023437Y+033937
X+024437Y+033937
T06
X+013101Y+006474
X+014085Y+007498
X+015070Y+006474
X+016054Y+007498
X+017038Y+006474
T07
X+005799Y+007988
X+010539Y+007988
T08
X+004921Y+013780
X+004921Y+033465
X+042323Y+033465
X+042323Y+013780
T09
X+036437Y+015187
X+039937Y+015187
T00
M30
