G04 DipTrace 2.3.1.0*
%INreloadpro.backmask.gbs*%
%MOIN*%
%ADD50R,0.0472X0.0472*%
%ADD59C,0.0374*%
%ADD70C,0.0472*%
%ADD80C,0.126*%
%ADD82C,0.0866*%
%ADD83C,0.0709*%
%ADD84C,0.0669*%
%ADD86R,0.0669X0.0669*%
%ADD96C,0.0827*%
%ADD97R,0.0827X0.0827*%
%ADD102C,0.3228*%
%ADD104C,0.1378*%
%FSLAX44Y44*%
G04*
G70*
G90*
G75*
G01*
%LNBotMask*%
%LPD*%
G36*
X8798Y9512D2*
X8525D1*
X8331Y9706D1*
Y9979D1*
X8525Y10173D1*
X8798D1*
X8992Y9979D1*
Y9706D1*
X8798Y9512D1*
G37*
D83*
X7677Y9843D3*
Y9055D3*
X8661D3*
D104*
X5799Y7988D3*
X10539D3*
D102*
X34687Y15687D3*
X39062D3*
D97*
X23213Y33937D3*
D96*
X24213D3*
X25213D3*
D86*
X9449Y12992D3*
D84*
X10449D3*
X12449D3*
X13449D3*
X14449D3*
D82*
X40679Y5733D3*
X39695D3*
X38710D3*
X40679Y6718D3*
X38710D3*
D80*
X42195Y7111D3*
X37195D3*
D59*
X19437Y30437D3*
X17437Y30037D3*
Y30837D3*
D84*
X5937Y29875D3*
Y28875D3*
Y27875D3*
Y26875D3*
X13937D3*
Y27875D3*
Y28875D3*
Y29875D3*
D102*
X30312Y15687D3*
D50*
X19437Y32687D3*
D70*
Y32187D3*
X18937Y32687D3*
Y32187D3*
X18437Y32687D3*
Y32187D3*
X17937Y32687D3*
Y32187D3*
X17437Y32687D3*
Y32187D3*
M02*
