G04 DipTrace 2.3.1.0*
%INreloadpro_TopMask.gts*%
%MOIN*%
%ADD28R,0.0787X0.0236*%
%ADD43C,0.1024*%
%ADD51C,0.0669*%
%ADD53C,0.0866*%
%ADD55R,0.0866X0.126*%
%ADD57R,0.0197X0.0571*%
%ADD59R,0.1339X0.0787*%
%ADD61C,0.0827*%
%ADD62R,0.0827X0.0827*%
%ADD63R,0.0669X0.0669*%
%ADD64R,0.0335X0.0492*%
%ADD66R,0.3228X0.0945*%
%ADD69C,0.1378*%
%ADD71C,0.0709*%
%ADD73R,0.0866X0.0315*%
%ADD75R,0.0315X0.0315*%
%ADD77R,0.1024X0.0378*%
%ADD79R,0.0512X0.0472*%
%ADD81R,0.0472X0.0512*%
%FSLAX44Y44*%
G04*
G70*
G90*
G75*
G01*
%LNTopMask*%
%LPD*%
D81*
X7437Y17437D3*
Y18106D3*
X6687Y17437D3*
Y18106D3*
D79*
X6812Y23187D3*
X7481D3*
X6812Y22437D3*
X7481D3*
X6812Y21687D3*
X7481D3*
D81*
X10965Y16083D3*
Y15414D3*
D79*
X9449Y14173D3*
X10118D3*
X14107Y18687D3*
X13437D3*
X19437Y24437D3*
X20106D3*
X19437Y23687D3*
X20106D3*
X19437Y22937D3*
X20106D3*
X19437Y22187D3*
X20106D3*
X14187Y14187D3*
X13518D3*
X22062Y24437D3*
X21393D3*
D81*
X26937Y17687D3*
Y18356D3*
X27687Y17687D3*
Y18356D3*
X28437Y17687D3*
Y18356D3*
X29187Y17687D3*
Y18356D3*
X29937Y17687D3*
Y18356D3*
X30687Y17687D3*
Y18356D3*
X31437Y17687D3*
Y18356D3*
D77*
X16669Y31919D3*
Y31419D3*
Y30919D3*
Y30419D3*
Y29919D3*
X18205D3*
Y30419D3*
Y30919D3*
Y31419D3*
Y31919D3*
D75*
X14187Y19687D3*
X13321D3*
D43*
X4921Y14764D3*
Y34449D3*
X42323D3*
Y14764D3*
D28*
X5687Y20937D3*
Y20681D3*
Y20425D3*
Y20169D3*
Y19913D3*
Y19657D3*
Y19402D3*
Y19146D3*
X8522D3*
Y19402D3*
Y19657D3*
Y19913D3*
Y20169D3*
Y20425D3*
Y20681D3*
Y20937D3*
D73*
X10687Y22187D3*
Y21687D3*
Y21187D3*
Y20687D3*
X12813D3*
Y21187D3*
Y21687D3*
Y22187D3*
G36*
X8798Y9512D2*
X8525D1*
X8331Y9706D1*
Y9979D1*
X8525Y10173D1*
X8798D1*
X8992Y9979D1*
Y9706D1*
X8798Y9512D1*
G37*
D71*
X7677Y9843D3*
Y9055D3*
X8661D3*
D69*
X5799Y7988D3*
X10539D3*
D63*
X38437Y13812D3*
X40437D3*
D66*
X13815Y15315D3*
Y17559D3*
D64*
X9843Y16142D3*
X9094D3*
X9469Y15236D3*
D62*
X22437Y49937D3*
D61*
X23437D3*
X24437D3*
D64*
X32935Y19968D3*
X32187D3*
X32561Y19062D3*
D81*
X5937Y17437D3*
Y18106D3*
X8187Y17437D3*
Y18106D3*
D79*
X9843Y17717D3*
X9173D3*
X9843Y16929D3*
X9173D3*
D59*
X40437Y15312D3*
Y17517D3*
D79*
X24312Y26687D3*
X24981D3*
X24312Y24687D3*
X24981D3*
Y25687D3*
X24312D3*
X24981Y28687D3*
X24312D3*
X24981Y27687D3*
X24312D3*
D81*
X32937Y18343D3*
Y17674D3*
X32187Y18343D3*
Y17674D3*
D28*
X22187Y25187D3*
Y25443D3*
Y25699D3*
Y25955D3*
Y26211D3*
Y26467D3*
Y26722D3*
Y26978D3*
Y27234D3*
Y27490D3*
Y27746D3*
Y28002D3*
Y28258D3*
Y28514D3*
X19352D3*
Y28258D3*
Y28002D3*
Y27746D3*
Y27490D3*
Y27234D3*
Y26978D3*
Y26722D3*
Y26467D3*
Y26211D3*
Y25955D3*
Y25699D3*
Y25443D3*
Y25187D3*
D57*
X32937Y15937D3*
X32740D3*
X32543D3*
X32346D3*
X32150D3*
X31953D3*
X31756D3*
X31559D3*
X31362D3*
X31165D3*
X30969D3*
X30772D3*
X30575D3*
X30378D3*
X30181D3*
X29984D3*
X29787D3*
X29591D3*
X29394D3*
X29197D3*
X29000D3*
X28803D3*
X28606D3*
X28409D3*
X28213D3*
X28016D3*
X27819D3*
X27622D3*
X27425D3*
X27228D3*
D55*
X33543Y15022D3*
X26622D3*
D53*
X13062Y5687D3*
X14046Y6711D3*
X15031Y5687D3*
X16015Y6711D3*
X16999Y5687D3*
D63*
X9449Y12992D3*
D51*
X10449D3*
X12449D3*
X13449D3*
X14449D3*
M02*
