G04 DipTrace 2.3.1.0*
%INreloadpro.back.gbl*%
%MOIN*%
%ADD14C,0.016*%
%ADD15C,0.01*%
%ADD16C,0.014*%
%ADD17C,0.012*%
%ADD18C,0.02*%
%ADD19C,0.0394*%
%ADD20C,0.08*%
%ADD21C,0.1*%
%ADD25C,0.025*%
%ADD26C,0.013*%
%ADD34C,0.063*%
%ADD35C,0.1299*%
%ADD36C,0.315*%
%ADD40R,0.0748X0.0748*%
%ADD41C,0.0748*%
%ADD46R,0.0591X0.0591*%
%ADD47C,0.0591*%
%ADD48C,0.0787*%
%ADD49C,0.1181*%
%ADD55R,0.0394X0.0394*%
%ADD56C,0.0394*%
%ADD57C,0.0236*%
%FSLAX44Y44*%
G04*
G70*
G90*
G75*
G01*
%LNBottom*%
%LPD*%
X24312Y9750D2*
D14*
Y11812D1*
X6437Y20425D2*
D16*
Y19812D1*
X6812Y19437D1*
X7687D1*
D14*
Y22062D1*
X8062Y22437D1*
X8937D1*
X18437Y17559D2*
D18*
X16750D1*
X27062Y10937D2*
Y12812D1*
X25937Y13937D1*
X18937Y23687D2*
X16062D1*
X19437Y32687D2*
D14*
X19812Y32312D1*
Y31562D1*
X19187Y30937D1*
X6562Y19312D2*
D15*
X6687Y19187D1*
X9437D1*
X9687Y19437D1*
Y21062D1*
X10312Y21687D1*
Y26812D1*
X12375Y28875D1*
X13937D1*
X9937Y20937D2*
X10312D1*
X10562Y21187D1*
Y26687D1*
X11687Y27812D1*
X13875D1*
X13937Y27875D1*
X34687Y16687D2*
D20*
Y15687D1*
D21*
Y16562D1*
Y22437D1*
X24213Y32911D1*
Y33937D1*
X33687Y18437D2*
D14*
Y16562D1*
X34687D1*
X19937Y26562D2*
D15*
X17937D1*
X13449Y12992D2*
D18*
X13382D1*
X12937Y13437D1*
Y18687D1*
X39062Y15687D2*
Y14687D1*
Y14187D1*
X39937D1*
Y9437D1*
X25812D1*
X15687D1*
X14937Y10187D1*
Y11437D1*
X13937Y12437D1*
X14004D1*
X13449Y12992D1*
X20062Y21812D2*
Y18437D1*
X18812Y17187D1*
X18437D1*
X17644D1*
X16187Y15730D1*
X13449Y12992D1*
X21437Y24062D2*
Y19937D1*
Y19812D1*
X20062Y18437D1*
X39062Y14687D2*
D3*
X25687Y24937D2*
Y23312D1*
X22312Y19937D1*
X21437D1*
X25812Y11062D2*
D17*
Y9437D1*
X26062Y14562D2*
D18*
X18437D1*
Y17187D1*
X25312Y25812D2*
Y25312D1*
X25687Y24937D1*
X26812Y27312D2*
Y24437D1*
X25687Y23312D1*
X25187Y28187D2*
Y25937D1*
X25312Y25812D1*
X25187Y29937D2*
Y28187D1*
X25687Y21687D2*
Y19937D1*
X22312D1*
X18437Y13562D2*
Y17187D1*
X39695Y5733D2*
X40679Y6718D1*
Y14070D1*
X39062Y15687D1*
X17937Y31062D2*
Y27687D1*
X14937Y24687D1*
Y15730D1*
X16187D1*
X18937Y32687D2*
X18437D1*
X17937D1*
X17437D1*
X17312D1*
X17062Y32437D1*
Y26812D1*
X14937Y24687D1*
X23062Y28687D2*
D14*
Y26187D1*
X21562Y25812D2*
Y24437D1*
X22062Y23937D1*
X18937Y32187D2*
D15*
Y29937D1*
X18437Y29437D1*
X8687Y22062D2*
Y21437D1*
X13937Y29875D2*
X13000D1*
X10062Y26937D1*
Y21812D1*
X9312Y21062D1*
Y20562D1*
X16500Y21187D2*
X15687D1*
X16750Y21687D2*
X15687D1*
X7187Y19812D2*
D18*
Y22187D1*
X6937Y22437D1*
X6312D1*
X5187Y24062D2*
Y23562D1*
X6312Y22437D1*
X10449Y12992D2*
Y15675D1*
X7437Y18687D1*
X13937Y26875D2*
X11125D1*
X10812Y26562D1*
Y16085D1*
X10449Y15722D1*
Y15675D1*
D57*
X24312Y11812D3*
Y9750D3*
Y11812D3*
D3*
X6437Y20425D3*
X7687Y19437D3*
X8937Y22437D3*
X18437Y17559D3*
X16750D3*
X27062Y10937D3*
X25937Y13937D3*
X18937Y23687D3*
X16062D3*
X19187Y30937D3*
X16062Y23687D3*
X6562Y19312D3*
X9937Y20937D3*
X33687Y18437D3*
X19937Y26562D3*
X17937D3*
X12937Y18687D3*
X20062Y21812D3*
X21437Y24062D3*
X25687Y24937D3*
X25812Y11062D3*
X26062Y14562D3*
X25312Y25812D3*
X25687Y24937D3*
X26812Y27312D3*
X25187Y28187D3*
X25312Y25812D3*
X25187Y29937D3*
Y28187D3*
X25687Y21687D3*
X18437Y13562D3*
X17937Y31062D3*
X23062Y28687D3*
Y26187D3*
X21562Y25812D3*
X22062Y23937D3*
X18437Y29437D3*
X8687Y22062D3*
Y21437D3*
X9312Y20562D3*
X16500Y21187D3*
X15687D3*
X16750Y21687D3*
X15687D3*
X7187Y19812D3*
X6312Y22437D3*
X5187Y24062D3*
X7437Y18687D3*
D19*
X34687Y16687D3*
Y14687D3*
X35687Y15687D3*
X33687D3*
X33937Y16437D3*
X35437D3*
Y14937D3*
X33937D3*
X39062Y16687D3*
Y14687D3*
X38062Y15687D3*
X40062D3*
X39812Y16437D3*
X38312Y14937D3*
Y16437D3*
X39812Y14937D3*
X30312Y16687D3*
Y14687D3*
X31312Y15687D3*
X29312D3*
X29562Y16437D3*
X31062D3*
Y14937D3*
X29562D3*
X4337Y34313D2*
D25*
X13937D1*
X4337Y34065D2*
X13937D1*
X4337Y33816D2*
X13937D1*
X4337Y33567D2*
X13937D1*
X4337Y33319D2*
X13937D1*
X4337Y33070D2*
X13937D1*
X4337Y32821D2*
X13937D1*
X4337Y32573D2*
X13937D1*
X4337Y32324D2*
X13937D1*
X4337Y32075D2*
X13937D1*
X4337Y31826D2*
X13937D1*
X4337Y31578D2*
X13937D1*
X4337Y31329D2*
X13937D1*
X4337Y31080D2*
X13937D1*
X4337Y30832D2*
X13937D1*
X4337Y30583D2*
X13937D1*
X4337Y30334D2*
X5609D1*
X6265D2*
X13742D1*
X4337Y30086D2*
X5402D1*
X6472D2*
X12851D1*
X4337Y29837D2*
X5363D1*
X6511D2*
X12590D1*
X4337Y29588D2*
X5441D1*
X6433D2*
X12344D1*
X4337Y29340D2*
X5617D1*
X6257D2*
X12094D1*
X4337Y29091D2*
X5406D1*
X6468D2*
X11844D1*
X4337Y28842D2*
X5363D1*
X6511D2*
X11598D1*
X4337Y28594D2*
X5437D1*
X6437D2*
X11348D1*
X4337Y28345D2*
X5762D1*
X6112D2*
X11098D1*
X4337Y28096D2*
X5476D1*
X6398D2*
X10851D1*
X4337Y27847D2*
X5422D1*
X6452D2*
X10601D1*
X4337Y27599D2*
X5508D1*
X6366D2*
X10351D1*
X4337Y27350D2*
X5793D1*
X6083D2*
X10105D1*
X4337Y27101D2*
X5476D1*
X6398D2*
X9855D1*
X4337Y26853D2*
X5422D1*
X6452D2*
X9793D1*
X4337Y26604D2*
X5504D1*
X6370D2*
X9793D1*
X4337Y26355D2*
X9793D1*
X4337Y26107D2*
X9793D1*
X4337Y25858D2*
X9793D1*
X4337Y25609D2*
X9793D1*
X4337Y25361D2*
X9793D1*
X4337Y25112D2*
X9793D1*
X4337Y24863D2*
X9793D1*
X4337Y24615D2*
X9793D1*
X4337Y24366D2*
X4910D1*
X5464D2*
X9793D1*
X4337Y24117D2*
X4773D1*
X5601D2*
X9793D1*
X4337Y23868D2*
X4820D1*
X5554D2*
X9793D1*
X4337Y23620D2*
X4828D1*
X5628D2*
X9793D1*
X4337Y23371D2*
X4887D1*
X5878D2*
X9793D1*
X4337Y23122D2*
X5129D1*
X6124D2*
X9793D1*
X4337Y22874D2*
X5375D1*
X6374D2*
X9793D1*
X4337Y22625D2*
X5625D1*
X7233D2*
X7750D1*
X9308D2*
X9793D1*
X4337Y22376D2*
X5875D1*
X9351D2*
X9793D1*
X4337Y22128D2*
X6043D1*
X9206D2*
X9793D1*
X4337Y21879D2*
X6836D1*
X8046D2*
X8312D1*
X9062D2*
X9758D1*
X4337Y21630D2*
X6836D1*
X8046D2*
X8320D1*
X9054D2*
X9508D1*
X4337Y21382D2*
X6836D1*
X8046D2*
X8273D1*
X9101D2*
X9261D1*
X4337Y21133D2*
X6836D1*
X8046D2*
X8410D1*
X4337Y20884D2*
X6836D1*
X8046D2*
X9043D1*
X10632D2*
X10812D1*
X4337Y20636D2*
X6078D1*
X8046D2*
X8898D1*
X10214D2*
X10812D1*
X4337Y20387D2*
X6019D1*
X8046D2*
X8933D1*
X9956D2*
X10812D1*
X4337Y20138D2*
X6086D1*
X8046D2*
X9418D1*
X9956D2*
X10812D1*
X4337Y19889D2*
X6086D1*
X8046D2*
X9418D1*
X9956D2*
X10812D1*
X4337Y19641D2*
X6137D1*
X8050D2*
X9418D1*
X9956D2*
X10812D1*
X4337Y19392D2*
X6152D1*
X9952D2*
X10812D1*
X4337Y19143D2*
X6180D1*
X9765D2*
X10812D1*
X4337Y18895D2*
X10812D1*
X4337Y18646D2*
X10812D1*
X4337Y18397D2*
X10812D1*
X4337Y18149D2*
X10812D1*
X4337Y17900D2*
X10812D1*
X4337Y17651D2*
X10812D1*
X4337Y17403D2*
X10812D1*
X4337Y17154D2*
X10812D1*
X4337Y16905D2*
X10812D1*
X4337Y16656D2*
X10812D1*
X4337Y16408D2*
X10812D1*
X4337Y16159D2*
X10812D1*
X4337Y15910D2*
X10812D1*
X4337Y15662D2*
X10812D1*
X4337Y15413D2*
X10812D1*
X4337Y15164D2*
X10812D1*
X4337Y14916D2*
X10812D1*
X4337Y14667D2*
X10812D1*
X4337Y14418D2*
X10812D1*
X4337Y14170D2*
X10812D1*
X4337Y13921D2*
X10812D1*
X4337Y13672D2*
X10812D1*
X4337Y13424D2*
X8933D1*
X4337Y13175D2*
X8933D1*
X4337Y12926D2*
X8933D1*
X4337Y12677D2*
X8933D1*
X4337Y12429D2*
X10812D1*
X4337Y12180D2*
X10812D1*
X4337Y11931D2*
X10812D1*
X4337Y11683D2*
X10812D1*
X4337Y11434D2*
X10812D1*
X4337Y11185D2*
X10812D1*
X4337Y10937D2*
X10812D1*
X4337Y10688D2*
X10812D1*
X4337Y10439D2*
X10812D1*
X4337Y10191D2*
X7281D1*
X8073D2*
X8211D1*
X9108D2*
X10812D1*
X4337Y9942D2*
X7152D1*
X9233D2*
X10812D1*
X4337Y9693D2*
X7164D1*
X9230D2*
X10812D1*
X4337Y9445D2*
X7324D1*
X9101D2*
X10812D1*
X4337Y9196D2*
X7164D1*
X9237D2*
X10812D1*
X4337Y8947D2*
X7152D1*
X9245D2*
X10812D1*
X4337Y8698D2*
X5316D1*
X6280D2*
X7289D1*
X8066D2*
X8191D1*
X9132D2*
X10058D1*
X4337Y8450D2*
X5066D1*
X6530D2*
X9808D1*
X4337Y8201D2*
X4957D1*
X6640D2*
X9699D1*
X4337Y7952D2*
X4930D1*
X6667D2*
X9672D1*
X4337Y7704D2*
X4980D1*
X6620D2*
X9719D1*
X4337Y7455D2*
X5121D1*
X6480D2*
X9859D1*
X4337Y7206D2*
X5457D1*
X6144D2*
X10195D1*
X4337Y6958D2*
X10840D1*
X4337Y6709D2*
X11269D1*
X4337Y6460D2*
X11269D1*
X4337Y6212D2*
X11269D1*
X4337Y5963D2*
X11269D1*
X4337Y5714D2*
X11269D1*
X4337Y5466D2*
X11269D1*
X4337Y5217D2*
X11269D1*
X4337Y4968D2*
X11269D1*
X4337Y4719D2*
X11269D1*
X4337Y4471D2*
X11269D1*
X8279Y10232D2*
X8361Y10314D1*
X8490Y10383D1*
X8782Y10389D1*
X8923Y10346D1*
X9133Y10143D1*
X9202Y10014D1*
X9207Y9722D1*
X9165Y9581D1*
X9058Y9464D1*
X9138Y9368D1*
X9194Y9257D1*
X9226Y9136D1*
X9229Y9005D1*
X9205Y8883D1*
X9154Y8769D1*
X9080Y8668D1*
X8986Y8587D1*
X8876Y8527D1*
X8756Y8493D1*
X8632Y8486D1*
X8509Y8506D1*
X8393Y8552D1*
X8290Y8623D1*
X8205Y8714D1*
X8141Y8822D1*
X8136Y8834D1*
X8055Y8713D1*
X7961Y8631D1*
X7850Y8575D1*
X7728Y8548D1*
X7603Y8551D1*
X7483Y8583D1*
X7375Y8645D1*
X7284Y8730D1*
X7217Y8835D1*
X7177Y8954D1*
X7168Y9078D1*
X7189Y9201D1*
X7239Y9315D1*
X7315Y9414D1*
X7355Y9445D1*
X7284Y9518D1*
X7217Y9623D1*
X7177Y9741D1*
X7168Y9865D1*
X7189Y9988D1*
X7239Y10103D1*
X7315Y10201D1*
X7413Y10278D1*
X7526Y10330D1*
X7649Y10352D1*
X7773Y10343D1*
X7892Y10305D1*
X7998Y10239D1*
X8085Y10149D1*
X8137Y10058D1*
X8158Y10104D1*
X8279Y10232D1*
X6635Y7864D2*
X6607Y7742D1*
X6562Y7625D1*
X6500Y7517D1*
X6423Y7419D1*
X6332Y7333D1*
X6230Y7262D1*
X6118Y7206D1*
X5999Y7168D1*
X5876Y7147D1*
X5751Y7145D1*
X5627Y7161D1*
X5507Y7196D1*
X5393Y7247D1*
X5289Y7315D1*
X5195Y7398D1*
X5115Y7494D1*
X5049Y7600D1*
X5000Y7715D1*
X4969Y7836D1*
X4955Y7960D1*
X4960Y8085D1*
X4984Y8207D1*
X5025Y8325D1*
X5083Y8436D1*
X5157Y8536D1*
X5245Y8625D1*
X5345Y8700D1*
X5454Y8759D1*
X5572Y8802D1*
X5694Y8826D1*
X5819Y8833D1*
X5943Y8820D1*
X6065Y8790D1*
X6180Y8742D1*
X6287Y8678D1*
X6383Y8598D1*
X6467Y8506D1*
X6536Y8401D1*
X6589Y8288D1*
X6624Y8169D1*
X6644Y7988D1*
X6635Y7864D1*
X6473Y29751D2*
X6431Y29633D1*
X6364Y29528D1*
X6275Y29441D1*
X6165Y29374D1*
X6308Y29281D1*
X6390Y29187D1*
X6449Y29077D1*
X6481Y28957D1*
X6487Y28875D1*
X6473Y28751D1*
X6431Y28633D1*
X6364Y28528D1*
X6275Y28441D1*
X6169Y28375D1*
X6076Y28345D1*
X6230Y28267D1*
X6320Y28181D1*
X6385Y28074D1*
X6421Y27955D1*
X6427Y27875D1*
X6411Y27751D1*
X6365Y27635D1*
X6291Y27535D1*
X6194Y27457D1*
X6080Y27406D1*
X5957Y27385D1*
X5833Y27395D1*
X5715Y27437D1*
X5612Y27507D1*
X5530Y27601D1*
X5474Y27712D1*
X5448Y27834D1*
X5454Y27959D1*
X5491Y28078D1*
X5557Y28184D1*
X5647Y28270D1*
X5756Y28330D1*
X5798Y28341D1*
X5686Y28385D1*
X5582Y28454D1*
X5497Y28545D1*
X5434Y28652D1*
X5396Y28771D1*
X5387Y28896D1*
X5406Y29019D1*
X5452Y29135D1*
X5523Y29237D1*
X5616Y29321D1*
X5708Y29373D1*
X5582Y29454D1*
X5497Y29545D1*
X5434Y29652D1*
X5396Y29771D1*
X5387Y29896D1*
X5406Y30019D1*
X5452Y30135D1*
X5523Y30237D1*
X5616Y30321D1*
X5725Y30382D1*
X5844Y30417D1*
X5969Y30424D1*
X6092Y30403D1*
X6207Y30354D1*
X6308Y30281D1*
X6390Y30187D1*
X6449Y30077D1*
X6481Y29957D1*
X6487Y29875D1*
X6473Y29751D1*
X6411Y26751D2*
X6365Y26635D1*
X6291Y26535D1*
X6194Y26457D1*
X6080Y26406D1*
X5957Y26385D1*
X5833Y26395D1*
X5715Y26437D1*
X5612Y26507D1*
X5530Y26601D1*
X5474Y26712D1*
X5448Y26834D1*
X5454Y26959D1*
X5491Y27078D1*
X5557Y27184D1*
X5647Y27270D1*
X5756Y27330D1*
X5877Y27361D1*
X6001D1*
X6122Y27329D1*
X6230Y27267D1*
X6320Y27181D1*
X6385Y27074D1*
X6421Y26955D1*
X6427Y26875D1*
X6411Y26751D1*
X8022Y21925D2*
X8023Y19640D1*
X8068Y19537D1*
X8080Y19433D1*
X9339Y19432D1*
X9443Y19539D1*
X9442Y20191D1*
X9306Y20168D1*
X9183Y20190D1*
X9074Y20248D1*
X8988Y20338D1*
X8934Y20451D1*
X8918Y20574D1*
X8942Y20696D1*
X9002Y20805D1*
X9068Y20866D1*
X9067Y21062D1*
X9101Y21184D1*
X9139Y21235D1*
X9815Y21912D1*
X9817Y26937D1*
X9851Y27059D1*
X9889Y27110D1*
X12826Y30048D1*
X12937Y30110D1*
X13000Y30120D1*
X13518Y30121D1*
X13557Y30184D1*
X13647Y30270D1*
X13756Y30330D1*
X13877Y30361D1*
X13959D1*
X13962Y31187D1*
Y34566D1*
X13687Y34562D1*
X4312D1*
Y4312D1*
X11292D1*
X11295Y6855D1*
X11082Y6838D1*
X10961Y6861D1*
X10870Y6944D1*
X10837Y7062D1*
X10839Y7200D1*
X10739Y7168D1*
X10616Y7147D1*
X10491Y7145D1*
X10367Y7161D1*
X10247Y7196D1*
X10134Y7247D1*
X10029Y7315D1*
X9935Y7398D1*
X9855Y7494D1*
X9789Y7600D1*
X9740Y7715D1*
X9709Y7836D1*
X9695Y7960D1*
X9700Y8085D1*
X9724Y8207D1*
X9765Y8325D1*
X9823Y8436D1*
X9897Y8536D1*
X9985Y8625D1*
X10085Y8700D1*
X10195Y8759D1*
X10312Y8802D1*
X10435Y8826D1*
X10559Y8833D1*
X10684Y8820D1*
X10837Y8777D1*
Y12605D1*
X10767Y12543D1*
X10658Y12483D1*
X10538Y12449D1*
X10413Y12443D1*
X10290Y12465D1*
X10176Y12514D1*
X10075Y12588D1*
X9994Y12683D1*
X9939Y12785D1*
Y12502D1*
X8959D1*
Y13482D1*
X9939D1*
X9942Y13207D1*
X10004Y13316D1*
X10088Y13408D1*
X10191Y13478D1*
X10307Y13524D1*
X10431Y13542D1*
X10555Y13532D1*
X10674Y13494D1*
X10781Y13431D1*
X10837Y13382D1*
Y26613D1*
X10807Y26562D1*
Y21187D1*
X10773Y21065D1*
X10735Y21014D1*
X10485Y20764D1*
X10375Y20701D1*
X10312Y20692D1*
X10246D1*
X10166Y20616D1*
X10054Y20561D1*
X9935Y20544D1*
X9932Y19437D1*
X9898Y19315D1*
X9860Y19264D1*
X9610Y19014D1*
X9500Y18951D1*
X9437Y18942D1*
X6679Y18936D1*
X6556Y18918D1*
X6433Y18940D1*
X6324Y18998D1*
X6238Y19088D1*
X6184Y19201D1*
X6168Y19324D1*
X6192Y19446D1*
X6246Y19545D1*
X6207Y19582D1*
X6138Y19685D1*
X6112Y19812D1*
Y20199D1*
X6059Y20314D1*
X6043Y20437D1*
X6067Y20559D1*
X6127Y20668D1*
X6218Y20753D1*
X6331Y20805D1*
X6455Y20819D1*
X6577Y20794D1*
X6685Y20732D1*
X6768Y20639D1*
X6818Y20525D1*
X6831Y20425D1*
X6811Y20302D1*
X6763Y20209D1*
X6762Y19945D1*
X6817Y19946D1*
X6864Y20031D1*
X6862Y22050D1*
X6687Y22112D1*
X6535D1*
X6429Y22061D1*
X6306Y22043D1*
X6183Y22065D1*
X6074Y22123D1*
X5988Y22213D1*
X5932Y22345D1*
X4950Y23325D1*
X4880Y23428D1*
X4852Y23562D1*
Y23855D1*
X4809Y23951D1*
X4793Y24074D1*
X4817Y24196D1*
X4877Y24305D1*
X4968Y24390D1*
X5081Y24442D1*
X5205Y24456D1*
X5327Y24430D1*
X5435Y24368D1*
X5518Y24276D1*
X5568Y24162D1*
X5581Y24062D1*
X5561Y23939D1*
X5520Y23860D1*
X5522Y23699D1*
X6404Y22818D1*
X6452Y22805D1*
X6530Y22761D1*
X6937Y22762D1*
X7059Y22738D1*
X7167Y22667D1*
X7419Y22414D1*
X7539Y22387D1*
X7825Y22674D1*
X7928Y22744D1*
X8062Y22772D1*
X8730D1*
X8831Y22817D1*
X8955Y22831D1*
X9077Y22805D1*
X9185Y22743D1*
X9268Y22651D1*
X9318Y22537D1*
X9331Y22437D1*
X9311Y22314D1*
X9254Y22203D1*
X9166Y22116D1*
X9079Y22073D1*
X9061Y21939D1*
X9004Y21828D1*
X8930Y21755D1*
X9018Y21651D1*
X9068Y21537D1*
X9081Y21437D1*
X9061Y21314D1*
X9004Y21203D1*
X8916Y21116D1*
X8804Y21061D1*
X8681Y21043D1*
X8558Y21065D1*
X8449Y21123D1*
X8363Y21213D1*
X8309Y21326D1*
X8293Y21449D1*
X8317Y21571D1*
X8377Y21680D1*
X8443Y21741D1*
X8363Y21838D1*
X8309Y21951D1*
X8293Y22074D1*
X8298Y22101D1*
X8202Y22103D1*
X8020Y21921D1*
X8661Y9055D2*
D26*
X9064Y8652D1*
Y9458D2*
X8259Y8652D1*
X10060Y13381D2*
X10838Y12603D1*
Y13381D2*
X10060Y12603D1*
X15562Y34452D2*
D25*
X22618D1*
X25726D2*
X43989D1*
X15562Y34204D2*
X22618D1*
X25894D2*
X43989D1*
X15562Y33955D2*
X22618D1*
X25945D2*
X43989D1*
X15562Y33706D2*
X22618D1*
X25906D2*
X43989D1*
X15562Y33457D2*
X22618D1*
X25762D2*
X43989D1*
X15562Y33209D2*
X23352D1*
X25121D2*
X43989D1*
X15562Y32960D2*
X17051D1*
X19855D2*
X23352D1*
X25371D2*
X43989D1*
X15562Y32711D2*
X16962D1*
X19855D2*
X23376D1*
X25617D2*
X43989D1*
X15562Y32463D2*
X17020D1*
X20066D2*
X23485D1*
X25867D2*
X43989D1*
X15562Y32214D2*
X17020D1*
X20113D2*
X23704D1*
X26117D2*
X43989D1*
X15562Y31965D2*
X17090D1*
X20113D2*
X23954D1*
X26363D2*
X43989D1*
X15562Y31717D2*
X17665D1*
X20113D2*
X24200D1*
X26613D2*
X43989D1*
X15562Y31468D2*
X18669D1*
X20094D2*
X24450D1*
X26863D2*
X43989D1*
X15562Y31219D2*
X17055D1*
X17816D2*
X18669D1*
X19883D2*
X24700D1*
X27109D2*
X43989D1*
X15562Y30971D2*
X16907D1*
X17965D2*
X18669D1*
X19633D2*
X24946D1*
X27359D2*
X43989D1*
X15562Y30722D2*
X16903D1*
X17972D2*
X18669D1*
X19898D2*
X25196D1*
X27609D2*
X43989D1*
X15562Y30473D2*
X17040D1*
X17836D2*
X18669D1*
X19984D2*
X25446D1*
X27855D2*
X43989D1*
X15562Y30225D2*
X16926D1*
X17949D2*
X18669D1*
X19937D2*
X25692D1*
X28105D2*
X43989D1*
X15562Y29976D2*
X16895D1*
X17980D2*
X18606D1*
X19707D2*
X25942D1*
X28355D2*
X43989D1*
X15562Y29727D2*
X16993D1*
X17883D2*
X18145D1*
X19097D2*
X26192D1*
X28601D2*
X43989D1*
X15562Y29478D2*
X18020D1*
X18855D2*
X26438D1*
X28851D2*
X43989D1*
X15562Y29230D2*
X18079D1*
X18797D2*
X26688D1*
X29101D2*
X43989D1*
X15562Y28981D2*
X22774D1*
X23347D2*
X26938D1*
X29347D2*
X43989D1*
X15562Y28732D2*
X22645D1*
X23476D2*
X27184D1*
X29597D2*
X43989D1*
X15562Y28484D2*
X22700D1*
X23426D2*
X27434D1*
X29847D2*
X43989D1*
X15562Y28235D2*
X22762D1*
X23363D2*
X27684D1*
X30094D2*
X43989D1*
X15562Y27986D2*
X22762D1*
X23363D2*
X27930D1*
X30344D2*
X43989D1*
X15562Y27738D2*
X22762D1*
X23363D2*
X28180D1*
X30594D2*
X43989D1*
X15562Y27489D2*
X22762D1*
X23363D2*
X28430D1*
X30840D2*
X43989D1*
X15562Y27240D2*
X22762D1*
X23363D2*
X28676D1*
X31090D2*
X43989D1*
X15562Y26992D2*
X22762D1*
X23363D2*
X28926D1*
X31340D2*
X43989D1*
X15562Y26743D2*
X17563D1*
X20312D2*
X22762D1*
X23363D2*
X29176D1*
X31586D2*
X43989D1*
X15562Y26494D2*
X17524D1*
X20351D2*
X22762D1*
X23363D2*
X29422D1*
X31836D2*
X43989D1*
X15562Y26246D2*
X17676D1*
X18195D2*
X19676D1*
X20195D2*
X22649D1*
X23476D2*
X29672D1*
X32086D2*
X43989D1*
X15562Y25997D2*
X21188D1*
X21933D2*
X22692D1*
X23433D2*
X29922D1*
X32332D2*
X43989D1*
X15562Y25748D2*
X21149D1*
X21976D2*
X30169D1*
X32582D2*
X43989D1*
X15555Y25499D2*
X21262D1*
X21863D2*
X30419D1*
X32832D2*
X43989D1*
X12687Y25251D2*
X21262D1*
X21863D2*
X30669D1*
X33078D2*
X43989D1*
X12687Y25002D2*
X21262D1*
X21863D2*
X30915D1*
X33328D2*
X43989D1*
X12687Y24753D2*
X21262D1*
X21863D2*
X31165D1*
X33578D2*
X43989D1*
X12687Y24505D2*
X21262D1*
X21906D2*
X31415D1*
X33824D2*
X43989D1*
X12687Y24256D2*
X21329D1*
X22316D2*
X31661D1*
X34074D2*
X43989D1*
X12687Y24007D2*
X15809D1*
X16316D2*
X18684D1*
X19191D2*
X21579D1*
X22476D2*
X31911D1*
X34324D2*
X43989D1*
X12687Y23759D2*
X15649D1*
X19347D2*
X21684D1*
X22437D2*
X32161D1*
X34570D2*
X43989D1*
X12687Y23510D2*
X15684D1*
X19312D2*
X32407D1*
X34820D2*
X43989D1*
X12687Y23261D2*
X32657D1*
X35070D2*
X43989D1*
X12687Y23013D2*
X32907D1*
X35316D2*
X43989D1*
X12687Y22764D2*
X33153D1*
X35480D2*
X43989D1*
X12687Y22515D2*
X33403D1*
X35543D2*
X43989D1*
X12687Y22267D2*
X33653D1*
X35547D2*
X43989D1*
X12687Y22018D2*
X15450D1*
X15926D2*
X16512D1*
X16988D2*
X33829D1*
X35547D2*
X43989D1*
X12687Y21769D2*
X15278D1*
X17160D2*
X33829D1*
X35547D2*
X43989D1*
X12687Y21520D2*
X15305D1*
X17133D2*
X33829D1*
X35547D2*
X43989D1*
X12687Y21272D2*
X15278D1*
X16910D2*
X33829D1*
X35547D2*
X43989D1*
X12687Y21023D2*
X15305D1*
X16883D2*
X33829D1*
X35547D2*
X43989D1*
X12687Y20774D2*
X33829D1*
X35547D2*
X43989D1*
X12687Y20526D2*
X33829D1*
X35547D2*
X43989D1*
X12687Y20277D2*
X33829D1*
X35547D2*
X43989D1*
X12687Y20028D2*
X33829D1*
X35547D2*
X43989D1*
X12687Y19780D2*
X33829D1*
X35547D2*
X43989D1*
X12687Y19531D2*
X33829D1*
X35547D2*
X43989D1*
X12687Y19282D2*
X33829D1*
X35547D2*
X43989D1*
X12687Y19034D2*
X33829D1*
X35547D2*
X43989D1*
X12687Y18785D2*
X33372D1*
X35547D2*
X43989D1*
X12687Y18536D2*
X33219D1*
X35547D2*
X43989D1*
X12687Y18288D2*
X33235D1*
X35547D2*
X43989D1*
X12687Y18039D2*
X33247D1*
X35547D2*
X43989D1*
X12687Y17790D2*
X16407D1*
X18781D2*
X33247D1*
X35547D2*
X43989D1*
X12687Y17541D2*
X16333D1*
X18855D2*
X33247D1*
X35547D2*
X43989D1*
X12687Y17293D2*
X16434D1*
X18754D2*
X29544D1*
X31082D2*
X33247D1*
X35746D2*
X38161D1*
X39965D2*
X43989D1*
X12687Y17044D2*
X29153D1*
X31472D2*
X33247D1*
X36055D2*
X37809D1*
X40312D2*
X43989D1*
X12687Y16795D2*
X28907D1*
X31715D2*
X33106D1*
X36265D2*
X37583D1*
X40543D2*
X43989D1*
X12687Y16547D2*
X28739D1*
X31883D2*
X32958D1*
X36418D2*
X37422D1*
X40703D2*
X43989D1*
X12687Y16298D2*
X28626D1*
X31996D2*
X32852D1*
X36519D2*
X37313D1*
X40812D2*
X43989D1*
X12687Y16049D2*
X28555D1*
X32070D2*
X32786D1*
X36586D2*
X37243D1*
X40879D2*
X43989D1*
X12687Y15801D2*
X28520D1*
X32101D2*
X32755D1*
X36617D2*
X37212D1*
X40914D2*
X43989D1*
X12687Y15552D2*
X28524D1*
X32101D2*
X32758D1*
X36617D2*
X37212D1*
X40910D2*
X43989D1*
X12687Y15303D2*
X28559D1*
X32066D2*
X32790D1*
X36582D2*
X37247D1*
X40875D2*
X43989D1*
X12687Y15055D2*
X28633D1*
X31988D2*
X32860D1*
X36515D2*
X37321D1*
X40805D2*
X43989D1*
X12687Y14806D2*
X28751D1*
X31871D2*
X32969D1*
X36406D2*
X37434D1*
X40691D2*
X43989D1*
X12687Y14557D2*
X28926D1*
X31699D2*
X33122D1*
X36250D2*
X37598D1*
X40527D2*
X43989D1*
X12687Y14309D2*
X25782D1*
X26094D2*
X29176D1*
X31445D2*
X33340D1*
X36035D2*
X37833D1*
X40289D2*
X43989D1*
X12687Y14060D2*
X25540D1*
X26336D2*
X29590D1*
X31031D2*
X33661D1*
X35711D2*
X38200D1*
X39926D2*
X43989D1*
X12687Y13811D2*
X25540D1*
X26504D2*
X34305D1*
X35070D2*
X43989D1*
X12742Y13562D2*
X25790D1*
X26754D2*
X43989D1*
X13922Y13314D2*
X14055D1*
X14844D2*
X26118D1*
X27004D2*
X43989D1*
X14957Y13065D2*
X26368D1*
X27250D2*
X43989D1*
X14930Y12816D2*
X26614D1*
X27383D2*
X43989D1*
X12941Y12568D2*
X13071D1*
X13824D2*
X14180D1*
X14719D2*
X26743D1*
X27383D2*
X43989D1*
X12687Y12319D2*
X26743D1*
X27383D2*
X43989D1*
X12687Y12070D2*
X23989D1*
X24633D2*
X26743D1*
X27383D2*
X43989D1*
X12687Y11822D2*
X23895D1*
X24730D2*
X26743D1*
X27383D2*
X43989D1*
X12687Y11573D2*
X23954D1*
X24672D2*
X26743D1*
X27383D2*
X43989D1*
X12687Y11324D2*
X23954D1*
X24672D2*
X26743D1*
X27383D2*
X43989D1*
X12687Y11076D2*
X23954D1*
X24672D2*
X26669D1*
X27457D2*
X43989D1*
X12687Y10827D2*
X23954D1*
X24672D2*
X26657D1*
X27465D2*
X43989D1*
X12687Y10578D2*
X23954D1*
X24672D2*
X26876D1*
X27250D2*
X43989D1*
X12687Y10330D2*
X23954D1*
X24672D2*
X43989D1*
X12687Y10081D2*
X23954D1*
X24672D2*
X43989D1*
X12687Y9832D2*
X23903D1*
X24722D2*
X43989D1*
X12687Y9583D2*
X23930D1*
X24695D2*
X43989D1*
X12687Y9335D2*
X43989D1*
X12687Y9086D2*
X43989D1*
X12687Y8837D2*
X43989D1*
X12687Y8589D2*
X43989D1*
X12687Y8340D2*
X43989D1*
X12687Y8091D2*
X43989D1*
X12687Y7843D2*
X36602D1*
X37785D2*
X41602D1*
X42785D2*
X43989D1*
X36097Y7594D2*
X36380D1*
X38008D2*
X41380D1*
X43008D2*
X43989D1*
X38113Y7345D2*
X40493D1*
X40867D2*
X41274D1*
X43113D2*
X43989D1*
X39187Y7097D2*
X40130D1*
X43144D2*
X43989D1*
X39308Y6848D2*
X40020D1*
X43105D2*
X43989D1*
X39312Y6599D2*
X40016D1*
X42992D2*
X43989D1*
X37746Y6351D2*
X38227D1*
X39195D2*
X39469D1*
X39918D2*
X40118D1*
X41238D2*
X41641D1*
X42746D2*
X43989D1*
X36562Y6102D2*
X38227D1*
X41164D2*
X43989D1*
X36562Y5853D2*
X38110D1*
X41281D2*
X43989D1*
X36562Y5604D2*
X38110D1*
X41277D2*
X43989D1*
X36562Y5356D2*
X38235D1*
X41156D2*
X43989D1*
X36562Y5107D2*
X39501D1*
X39890D2*
X43989D1*
X36562Y4858D2*
X43989D1*
X36562Y4610D2*
X43989D1*
X36593Y15562D2*
X36560Y15314D1*
X36495Y15073D1*
X36400Y14842D1*
X36275Y14626D1*
X36123Y14428D1*
X35946Y14251D1*
X35748Y14099D1*
X35532Y13974D1*
X35301Y13879D1*
X35060Y13814D1*
X34812Y13781D1*
X34562D1*
X34314Y13814D1*
X34073Y13879D1*
X33842Y13974D1*
X33626Y14099D1*
X33428Y14251D1*
X33251Y14428D1*
X33099Y14626D1*
X32974Y14842D1*
X32879Y15073D1*
X32814Y15315D1*
X32781Y15562D1*
Y15812D1*
X32814Y16060D1*
X32879Y16301D1*
X32974Y16532D1*
X33099Y16748D1*
X33251Y16946D1*
X33270Y16966D1*
X33272Y18253D1*
X33236Y18389D1*
X33240Y18513D1*
X33278Y18632D1*
X33347Y18736D1*
X33441Y18817D1*
X33554Y18870D1*
X33677Y18890D1*
X33801Y18876D1*
X33855Y18853D1*
X33852Y20437D1*
Y22089D1*
X24109Y31834D1*
X23622Y32321D1*
X23541Y32416D1*
X23474Y32521D1*
X23424Y32636D1*
X23392Y32757D1*
X23378Y32911D1*
Y33368D1*
X22644D1*
Y34506D1*
X23601D1*
X23636Y34587D1*
X15538D1*
X15537Y25562D1*
X15503Y25443D1*
X15392Y25352D1*
X15312Y25337D1*
X12660D1*
X12662Y24062D1*
Y13582D1*
X12720Y13561D1*
X12826Y13497D1*
X12918Y13412D1*
X12997Y13301D1*
X13035Y13355D1*
X13128Y13439D1*
X13236Y13500D1*
X13356Y13535D1*
X13481Y13541D1*
X13604Y13520D1*
X13719Y13472D1*
X13820Y13399D1*
X13902Y13305D1*
X13960Y13195D1*
X13980Y13135D1*
X14003Y13196D1*
X14068Y13301D1*
X14159Y13387D1*
X14268Y13448D1*
X14389Y13479D1*
X14513Y13478D1*
X14634Y13446D1*
X14742Y13385D1*
X14832Y13298D1*
X14897Y13192D1*
X14933Y13072D1*
X14939Y12992D1*
X14923Y12868D1*
X14877Y12753D1*
X14803Y12653D1*
X14705Y12574D1*
X14592Y12523D1*
X14469Y12502D1*
X14345Y12513D1*
X14227Y12555D1*
X14124Y12625D1*
X14042Y12719D1*
X13980Y12857D1*
X13954Y12773D1*
X13891Y12665D1*
X13806Y12574D1*
X13703Y12504D1*
X13587Y12459D1*
X13463Y12442D1*
X13339Y12453D1*
X13220Y12492D1*
X13113Y12556D1*
X13024Y12643D1*
X12996Y12679D1*
X12891Y12543D1*
X12794Y12465D1*
X12664Y12402D1*
X12662Y10312D1*
Y7597D1*
X14081Y7600D1*
X35947Y7605D1*
X36025D1*
X36184Y7566D1*
X36223Y7550D1*
X36342Y7468D1*
X36385Y7559D1*
X36452Y7664D1*
X36533Y7759D1*
X36627Y7842D1*
X36730Y7912D1*
X36842Y7967D1*
X36961Y8007D1*
X37083Y8030D1*
X37208Y8037D1*
X37333Y8026D1*
X37455Y8000D1*
X37572Y7956D1*
X37682Y7898D1*
X37784Y7825D1*
X37874Y7739D1*
X37953Y7642D1*
X38017Y7535D1*
X38067Y7421D1*
X38101Y7300D1*
X38120Y7111D1*
X38112Y6987D1*
X38087Y6864D1*
X38045Y6746D1*
X37988Y6635D1*
X37917Y6533D1*
X37833Y6441D1*
X37737Y6361D1*
X37631Y6295D1*
X37517Y6243D1*
X37397Y6208D1*
X37273Y6189D1*
X37149Y6187D1*
X37025Y6201D1*
X36904Y6233D1*
X36788Y6280D1*
X36680Y6342D1*
X36534Y6466D1*
X36537Y4850D1*
Y4409D1*
X37189Y4412D1*
X44013Y4410D1*
X44011Y34587D1*
X25499D1*
X25599Y34531D1*
X25697Y34454D1*
X25781Y34361D1*
X25846Y34255D1*
X25892Y34139D1*
X25917Y34017D1*
X25922Y33937D1*
X25911Y33813D1*
X25878Y33692D1*
X25825Y33579D1*
X25752Y33477D1*
X25664Y33390D1*
X25561Y33319D1*
X25447Y33268D1*
X25326Y33237D1*
X25201Y33228D1*
X25058Y33246D1*
X35277Y23027D1*
X35359Y22933D1*
X35425Y22827D1*
X35475Y22713D1*
X35508Y22592D1*
X35522Y22437D1*
Y17402D1*
X35642Y17341D1*
X35850Y17202D1*
X36038Y17037D1*
X36202Y16849D1*
X36341Y16642D1*
X36452Y16418D1*
X36532Y16181D1*
X36581Y15936D1*
X36597Y15687D1*
X36593Y15562D1*
X40892Y15662D2*
X40875Y15438D1*
X40831Y15217D1*
X40760Y15004D1*
X40663Y14801D1*
X40542Y14611D1*
X40399Y14438D1*
X40236Y14283D1*
X40055Y14150D1*
X39859Y14040D1*
X39651Y13954D1*
X39434Y13895D1*
X39211Y13863D1*
X38986Y13859D1*
X38763Y13882D1*
X38543Y13932D1*
X38332Y14009D1*
X38132Y14111D1*
X37946Y14237D1*
X37776Y14385D1*
X37626Y14553D1*
X37498Y14737D1*
X37393Y14936D1*
X37314Y15147D1*
X37261Y15365D1*
X37235Y15589D1*
X37237Y15813D1*
X37266Y16036D1*
X37322Y16254D1*
X37405Y16463D1*
X37513Y16661D1*
X37644Y16843D1*
X37796Y17008D1*
X37968Y17154D1*
X38156Y17277D1*
X38358Y17376D1*
X38570Y17450D1*
X38790Y17497D1*
X39014Y17516D1*
X39239Y17508D1*
X39461Y17473D1*
X39677Y17410D1*
X39884Y17322D1*
X40078Y17209D1*
X40257Y17073D1*
X40418Y16916D1*
X40558Y16740D1*
X40676Y16549D1*
X40770Y16344D1*
X40837Y16130D1*
X40878Y15908D1*
X40892Y15687D1*
Y15662D1*
X41254Y5609D2*
X41215Y5491D1*
X41152Y5383D1*
X41068Y5291D1*
X40966Y5219D1*
X40851Y5170D1*
X40729Y5147D1*
X40604Y5149D1*
X40483Y5178D1*
X40370Y5232D1*
X40271Y5309D1*
X40224Y5358D1*
X40142Y5264D1*
X40044Y5187D1*
X39933Y5130D1*
X39813Y5095D1*
X39689Y5085D1*
X39565Y5098D1*
X39445Y5134D1*
X39335Y5193D1*
X39238Y5272D1*
X39164Y5360D1*
X39099Y5291D1*
X38997Y5219D1*
X38883Y5170D1*
X38760Y5147D1*
X38635Y5149D1*
X38514Y5178D1*
X38401Y5232D1*
X38303Y5309D1*
X38222Y5404D1*
X38164Y5514D1*
X38130Y5634D1*
X38122Y5759D1*
X38141Y5882D1*
X38185Y5999D1*
X38253Y6104D1*
X38341Y6192D1*
X38390Y6223D1*
X38303Y6293D1*
X38222Y6388D1*
X38164Y6498D1*
X38130Y6619D1*
X38122Y6743D1*
X38141Y6866D1*
X38185Y6983D1*
X38253Y7088D1*
X38341Y7176D1*
X38446Y7244D1*
X38563Y7287D1*
X38686Y7306D1*
X38811Y7298D1*
X38931Y7263D1*
X39041Y7205D1*
X39136Y7124D1*
X39212Y7025D1*
X39266Y6913D1*
X39295Y6791D1*
X39299Y6718D1*
X39286Y6593D1*
X39247Y6475D1*
X39184Y6367D1*
X39099Y6276D1*
X39032Y6228D1*
X39136Y6140D1*
X39162Y6106D1*
X39256Y6211D1*
X39356Y6286D1*
X39468Y6341D1*
X39588Y6373D1*
X39713Y6382D1*
X39837Y6366D1*
X39955Y6327D1*
X40064Y6266D1*
X40159Y6186D1*
X40225Y6107D1*
X40299Y6192D1*
X40205Y6274D1*
X40129Y6373D1*
X40073Y6485D1*
X40040Y6605D1*
X40030Y6730D1*
X40045Y6854D1*
X40082Y6972D1*
X40142Y7082D1*
X40222Y7178D1*
X40319Y7257D1*
X40429Y7316D1*
X40548Y7353D1*
X40672Y7366D1*
X40796Y7356D1*
X40916Y7321D1*
X41028Y7265D1*
X41126Y7188D1*
X41208Y7093D1*
X41270Y6985D1*
X41283Y6954D1*
X41270Y7079D1*
X41274Y7203D1*
X41295Y7327D1*
X41332Y7446D1*
X41385Y7559D1*
X41452Y7664D1*
X41533Y7759D1*
X41627Y7842D1*
X41730Y7912D1*
X41842Y7967D1*
X41961Y8007D1*
X42083Y8030D1*
X42208Y8037D1*
X42333Y8026D1*
X42455Y8000D1*
X42572Y7956D1*
X42682Y7898D1*
X42784Y7825D1*
X42874Y7739D1*
X42953Y7642D1*
X43017Y7535D1*
X43067Y7421D1*
X43101Y7300D1*
X43120Y7111D1*
X43112Y6987D1*
X43087Y6864D1*
X43045Y6746D1*
X42988Y6635D1*
X42917Y6533D1*
X42833Y6441D1*
X42737Y6361D1*
X42631Y6295D1*
X42517Y6243D1*
X42397Y6208D1*
X42273Y6189D1*
X42149Y6187D1*
X42025Y6201D1*
X41904Y6233D1*
X41788Y6280D1*
X41680Y6342D1*
X41581Y6419D1*
X41493Y6507D1*
X41418Y6607D1*
X41357Y6717D1*
X41323Y6793D1*
X41326Y6668D1*
X41304Y6545D1*
X41260Y6428D1*
X41193Y6322D1*
X41108Y6231D1*
X41054Y6188D1*
X41105Y6140D1*
X41181Y6041D1*
X41234Y5928D1*
X41263Y5807D1*
X41268Y5733D1*
X41254Y5609D1*
X19944Y30313D2*
X19900Y30196D1*
X19830Y30093D1*
X19737Y30010D1*
X19627Y29951D1*
X19507Y29920D1*
X19382Y29918D1*
X19261Y29946D1*
X19180Y29986D1*
X19182Y29937D1*
X19148Y29815D1*
X19110Y29764D1*
X18826Y29479D1*
X18831Y29437D1*
X18811Y29314D1*
X18754Y29203D1*
X18666Y29116D1*
X18554Y29061D1*
X18431Y29043D1*
X18308Y29065D1*
X18199Y29123D1*
X18113Y29213D1*
X18059Y29326D1*
X18043Y29449D1*
X18067Y29571D1*
X18127Y29680D1*
X18218Y29765D1*
X18331Y29817D1*
X18455Y29831D1*
X18482Y29825D1*
X18692Y30038D1*
Y31722D1*
X18642Y31696D1*
X18522Y31662D1*
X18397Y31657D1*
X18275Y31680D1*
X18186Y31721D1*
X18142Y31696D1*
X18022Y31662D1*
X17897Y31657D1*
X17775Y31680D1*
X17662Y31732D1*
X17561Y31812D1*
X17428Y31795D1*
X17305Y31818D1*
X17196Y31878D1*
X17111Y31969D1*
X17059Y32082D1*
X17046Y32206D1*
X17071Y32328D1*
X17105Y32385D1*
X17063Y32433D1*
X17017Y32521D1*
X16991Y32618D1*
X16986Y32717D1*
X17004Y32816D1*
X17043Y32908D1*
X17101Y32989D1*
X17175Y33055D1*
X17262Y33104D1*
X17358Y33132D1*
X17458Y33138D1*
X17556Y33123D1*
X17649Y33086D1*
X17687Y33063D1*
X17786Y33113D1*
X17883Y33136D1*
X17983Y33137D1*
X18080Y33116D1*
X18171Y33074D1*
X18187Y33063D1*
X18286Y33113D1*
X18383Y33136D1*
X18483Y33137D1*
X18580Y33116D1*
X18671Y33074D1*
X18687Y33063D1*
X18786Y33113D1*
X18883Y33136D1*
X18983Y33137D1*
X19080Y33116D1*
X19162Y33079D1*
X19829D1*
Y32684D1*
X20006Y32506D1*
X20072Y32397D1*
X20087Y32312D1*
Y31562D1*
X20057Y31438D1*
X20006Y31368D1*
X19578Y30939D1*
X19712Y30880D1*
X19810Y30802D1*
X19886Y30704D1*
X19936Y30590D1*
X19959Y30437D1*
X19944Y30313D1*
X17944Y29913D2*
X17900Y29796D1*
X17830Y29693D1*
X17737Y29610D1*
X17627Y29551D1*
X17507Y29520D1*
X17382Y29518D1*
X17261Y29546D1*
X17149Y29602D1*
X17054Y29682D1*
X16981Y29783D1*
X16934Y29899D1*
X16915Y30022D1*
X16927Y30146D1*
X16967Y30264D1*
X17034Y30369D1*
X17105Y30436D1*
X17054Y30482D1*
X16981Y30583D1*
X16934Y30699D1*
X16915Y30822D1*
X16927Y30946D1*
X16967Y31064D1*
X17034Y31169D1*
X17125Y31255D1*
X17233Y31317D1*
X17353Y31352D1*
X17477Y31357D1*
X17599Y31333D1*
X17712Y31280D1*
X17810Y31202D1*
X17886Y31104D1*
X17936Y30990D1*
X17959Y30837D1*
X17944Y30713D1*
X17900Y30596D1*
X17830Y30493D1*
X17769Y30439D1*
X17810Y30402D1*
X17886Y30304D1*
X17936Y30190D1*
X17959Y30037D1*
X17944Y29913D1*
X32077Y15562D2*
X32042Y15315D1*
X31973Y15075D1*
X31870Y14847D1*
X31736Y14636D1*
X31574Y14446D1*
X31387Y14281D1*
X31178Y14144D1*
X30952Y14037D1*
X30713Y13963D1*
X30467Y13924D1*
X30217Y13920D1*
X29969Y13951D1*
X29728Y14016D1*
X29499Y14115D1*
X29286Y14245D1*
X29093Y14404D1*
X28924Y14589D1*
X28783Y14795D1*
X28673Y15019D1*
X28595Y15256D1*
X28552Y15502D1*
X28543Y15752D1*
X28570Y16000D1*
X28632Y16242D1*
X28727Y16474D1*
X28853Y16689D1*
X29009Y16884D1*
X29190Y17056D1*
X29394Y17200D1*
X29616Y17314D1*
X29852Y17396D1*
X30098Y17444D1*
X30347Y17456D1*
X30596Y17434D1*
X30839Y17377D1*
X31072Y17286D1*
X31289Y17163D1*
X31487Y17010D1*
X31662Y16832D1*
X31809Y16630D1*
X31927Y16410D1*
X32013Y16176D1*
X32065Y15931D1*
X32082Y15687D1*
X32077Y15562D1*
X23977Y9957D2*
Y11605D1*
X23934Y11701D1*
X23918Y11824D1*
X23942Y11946D1*
X24002Y12055D1*
X24093Y12140D1*
X24206Y12192D1*
X24330Y12206D1*
X24452Y12180D1*
X24560Y12118D1*
X24643Y12026D1*
X24693Y11912D1*
X24706Y11812D1*
X24686Y11689D1*
X24645Y11610D1*
X24647Y9957D1*
X24693Y9849D1*
X24706Y9750D1*
X24686Y9627D1*
X24629Y9516D1*
X24541Y9429D1*
X24429Y9373D1*
X24306Y9356D1*
X24183Y9377D1*
X24074Y9436D1*
X23988Y9526D1*
X23934Y9638D1*
X23918Y9762D1*
X23942Y9884D1*
X23977Y9948D1*
X23976Y11613D2*
X23934Y11701D1*
X23918Y11824D1*
X23942Y11946D1*
X24002Y12055D1*
X24093Y12140D1*
X24206Y12192D1*
X24330Y12206D1*
X24452Y12180D1*
X24560Y12118D1*
X24643Y12026D1*
X24693Y11912D1*
X24706Y11812D1*
X24686Y11689D1*
X24645Y11610D1*
X23976Y11613D2*
X23934Y11701D1*
X23918Y11824D1*
X23942Y11946D1*
X24002Y12055D1*
X24093Y12140D1*
X24206Y12192D1*
X24330Y12206D1*
X24452Y12180D1*
X24560Y12118D1*
X24643Y12026D1*
X24693Y11912D1*
X24706Y11812D1*
X24686Y11689D1*
X24645Y11610D1*
X18175Y17264D2*
X17011D1*
X16978Y17238D1*
X16867Y17183D1*
X16743Y17165D1*
X16621Y17187D1*
X16511Y17245D1*
X16425Y17335D1*
X16372Y17448D1*
X16356Y17571D1*
X16379Y17693D1*
X16439Y17802D1*
X16531Y17887D1*
X16644Y17939D1*
X16768Y17953D1*
X16889Y17927D1*
X17005Y17857D1*
X18175Y17854D1*
X18218Y17887D1*
X18331Y17939D1*
X18455Y17953D1*
X18577Y17927D1*
X18685Y17865D1*
X18768Y17773D1*
X18818Y17659D1*
X18831Y17559D1*
X18811Y17436D1*
X18754Y17325D1*
X18666Y17238D1*
X18554Y17183D1*
X18431Y17165D1*
X18308Y17187D1*
X18199Y17245D1*
X18180Y17265D1*
X26767Y11199D2*
X26765Y12692D1*
X25912Y13545D1*
X25808Y13565D1*
X25699Y13623D1*
X25613Y13713D1*
X25559Y13826D1*
X25543Y13949D1*
X25567Y14071D1*
X25627Y14180D1*
X25718Y14265D1*
X25831Y14317D1*
X25955Y14331D1*
X26077Y14305D1*
X26185Y14243D1*
X26268Y14151D1*
X26318Y14037D1*
X26327Y13965D1*
X27271Y13021D1*
X27339Y12913D1*
X27357Y12812D1*
Y11199D1*
X27393Y11151D1*
X27443Y11037D1*
X27456Y10937D1*
X27436Y10814D1*
X27379Y10703D1*
X27291Y10616D1*
X27179Y10561D1*
X27056Y10543D1*
X26933Y10565D1*
X26824Y10623D1*
X26738Y10713D1*
X26684Y10826D1*
X26668Y10949D1*
X26692Y11071D1*
X26766Y11193D1*
X18675Y23392D2*
X16324D1*
X16291Y23366D1*
X16179Y23311D1*
X16056Y23293D1*
X15933Y23315D1*
X15824Y23373D1*
X15738Y23463D1*
X15684Y23576D1*
X15668Y23699D1*
X15692Y23821D1*
X15752Y23930D1*
X15843Y24015D1*
X15956Y24067D1*
X16080Y24081D1*
X16202Y24055D1*
X16318Y23985D1*
X18187Y23982D1*
X18675D1*
X18718Y24015D1*
X18831Y24067D1*
X18955Y24081D1*
X19077Y24055D1*
X19185Y23993D1*
X19268Y23901D1*
X19318Y23787D1*
X19331Y23687D1*
X19311Y23564D1*
X19254Y23453D1*
X19166Y23366D1*
X19054Y23311D1*
X18931Y23293D1*
X18808Y23315D1*
X18699Y23373D1*
X18680Y23393D1*
X16316Y23391D2*
X16291Y23366D1*
X16179Y23311D1*
X16056Y23293D1*
X15933Y23315D1*
X15824Y23373D1*
X15738Y23463D1*
X15684Y23576D1*
X15668Y23699D1*
X15692Y23821D1*
X15752Y23930D1*
X15843Y24015D1*
X15956Y24067D1*
X16080Y24081D1*
X16202Y24055D1*
X16318Y23985D1*
X19628Y26317D2*
X18246D1*
X18166Y26241D1*
X18054Y26186D1*
X17931Y26168D1*
X17808Y26190D1*
X17699Y26248D1*
X17613Y26338D1*
X17559Y26451D1*
X17543Y26574D1*
X17567Y26696D1*
X17627Y26805D1*
X17718Y26890D1*
X17831Y26942D1*
X17955Y26956D1*
X18077Y26930D1*
X18185Y26868D1*
X18239Y26808D1*
X19628Y26807D1*
X19718Y26890D1*
X19831Y26942D1*
X19955Y26956D1*
X20077Y26930D1*
X20185Y26868D1*
X20268Y26776D1*
X20318Y26662D1*
X20331Y26562D1*
X20311Y26439D1*
X20254Y26328D1*
X20166Y26241D1*
X20054Y26186D1*
X19931Y26168D1*
X19808Y26190D1*
X19699Y26248D1*
X19631Y26319D1*
X23337Y28402D2*
Y26472D1*
X23393Y26401D1*
X23443Y26287D1*
X23456Y26187D1*
X23436Y26064D1*
X23379Y25953D1*
X23291Y25866D1*
X23179Y25811D1*
X23056Y25793D1*
X22933Y25815D1*
X22824Y25873D1*
X22738Y25963D1*
X22684Y26076D1*
X22668Y26199D1*
X22692Y26321D1*
X22752Y26430D1*
X22789Y26465D1*
X22787Y28402D1*
X22738Y28463D1*
X22684Y28576D1*
X22668Y28699D1*
X22692Y28821D1*
X22752Y28930D1*
X22843Y29015D1*
X22956Y29067D1*
X23080Y29081D1*
X23202Y29055D1*
X23310Y28993D1*
X23393Y28901D1*
X23443Y28787D1*
X23456Y28687D1*
X23436Y28564D1*
X23379Y28453D1*
X23338Y28413D1*
X21837Y25527D2*
Y24550D1*
X22058Y24330D1*
X22202Y24305D1*
X22310Y24243D1*
X22393Y24151D1*
X22443Y24037D1*
X22456Y23937D1*
X22436Y23814D1*
X22379Y23703D1*
X22291Y23616D1*
X22179Y23561D1*
X22056Y23543D1*
X21933Y23565D1*
X21824Y23623D1*
X21738Y23713D1*
X21684Y23826D1*
X21670Y23937D1*
X21368Y24243D1*
X21302Y24352D1*
X21287Y24437D1*
Y25527D1*
X21238Y25588D1*
X21184Y25701D1*
X21168Y25824D1*
X21192Y25946D1*
X21252Y26055D1*
X21343Y26140D1*
X21456Y26192D1*
X21580Y26206D1*
X21702Y26180D1*
X21810Y26118D1*
X21893Y26026D1*
X21943Y25912D1*
X21956Y25812D1*
X21936Y25689D1*
X21879Y25578D1*
X21838Y25538D1*
X16191Y20942D2*
X15996D1*
X15916Y20866D1*
X15804Y20811D1*
X15681Y20793D1*
X15558Y20815D1*
X15449Y20873D1*
X15363Y20963D1*
X15309Y21076D1*
X15293Y21199D1*
X15317Y21321D1*
X15385Y21438D1*
X15363Y21463D1*
X15309Y21576D1*
X15293Y21699D1*
X15317Y21821D1*
X15377Y21930D1*
X15468Y22015D1*
X15581Y22067D1*
X15705Y22081D1*
X15827Y22055D1*
X15935Y21993D1*
X15989Y21933D1*
X16441Y21932D1*
X16531Y22015D1*
X16644Y22067D1*
X16768Y22081D1*
X16889Y22055D1*
X16997Y21993D1*
X17081Y21901D1*
X17131Y21787D1*
X17144Y21687D1*
X17124Y21564D1*
X17067Y21453D1*
X16978Y21366D1*
X16870Y21313D1*
X16894Y21187D1*
X16874Y21064D1*
X16817Y20953D1*
X16728Y20866D1*
X16617Y20811D1*
X16493Y20793D1*
X16371Y20815D1*
X16261Y20873D1*
X16194Y20944D1*
X37768Y16981D2*
D26*
X40356Y14393D1*
Y16981D2*
X37768Y14393D1*
X13060Y13381D2*
X13838Y12603D1*
Y13381D2*
X13060Y12603D1*
X39236Y6192D2*
X40153Y5275D1*
Y6192D2*
X39236Y5275D1*
X40221Y7176D2*
X41137Y6259D1*
Y7176D2*
X40221Y6259D1*
X18618Y33006D2*
X18937Y32687D1*
X18118Y33006D2*
X18437Y32687D1*
X18756Y33006D2*
X18437Y32687D1*
X17618Y33006D2*
X17937Y32687D1*
X18256Y33006D2*
X17937Y32687D1*
X17118Y33006D2*
X17437Y32687D1*
X17756Y33006D2*
X17118Y32368D1*
G36*
X8782Y9552D2*
X8541D1*
X8370Y9722D1*
Y9963D1*
X8541Y10134D1*
X8782D1*
X8952Y9963D1*
Y9722D1*
X8782Y9552D1*
G37*
D34*
X7677Y9843D3*
Y9055D3*
X8661D3*
D35*
X5799Y7988D3*
X10539D3*
D36*
X34687Y15687D3*
X39062D3*
D40*
X23213Y33937D3*
D41*
X24213D3*
X25213D3*
D46*
X9449Y12992D3*
D47*
X10449D3*
X12449D3*
X13449D3*
X14449D3*
D48*
X40679Y5733D3*
X39695D3*
X38710D3*
X40679Y6718D3*
X38710D3*
D49*
X42195Y7111D3*
X37195D3*
D47*
X5937Y29875D3*
Y28875D3*
Y27875D3*
Y26875D3*
X13937D3*
Y27875D3*
Y28875D3*
Y29875D3*
D36*
X30312Y15687D3*
D55*
X19437Y32687D3*
D56*
Y32187D3*
X18937Y32687D3*
Y32187D3*
X18437Y32687D3*
Y32187D3*
X17937Y32687D3*
Y32187D3*
X17437Y32687D3*
Y32187D3*
M02*
