G04 DipTrace 2.3.1.0*
%INreloadpro_TopMask.gts*%
%MOIN*%
%ADD30R,0.0787X0.0236*%
%ADD49C,0.1024*%
%ADD58R,0.0551X0.0551*%
%ADD60R,0.1024X0.0378*%
%ADD62C,0.0866*%
%ADD63C,0.0669*%
%ADD65R,0.0669X0.0669*%
%ADD67R,0.0866X0.126*%
%ADD69R,0.0197X0.0571*%
%ADD71R,0.1339X0.0787*%
%ADD73C,0.0827*%
%ADD74R,0.0827X0.0827*%
%ADD75R,0.0335X0.0492*%
%ADD77R,0.3228X0.0945*%
%ADD79C,0.3228*%
%ADD81C,0.1378*%
%ADD83C,0.0709*%
%ADD85R,0.0866X0.0315*%
%ADD87R,0.0315X0.0315*%
%ADD89R,0.0512X0.0472*%
%ADD91R,0.0472X0.0512*%
%FSLAX44Y44*%
G04*
G70*
G90*
G75*
G01*
%LNTopMask*%
%LPD*%
D91*
X7437Y17437D3*
Y18106D3*
X6687Y17437D3*
Y18106D3*
D89*
X6812Y23187D3*
X7481D3*
X6812Y22437D3*
X7481D3*
X6812Y21687D3*
X7481D3*
D91*
X10965Y16083D3*
Y15414D3*
D89*
X9449Y14173D3*
X10118D3*
X14107Y18687D3*
X13437D3*
X19437Y24437D3*
X20106D3*
X19437Y23687D3*
X20106D3*
X19437Y22937D3*
X20106D3*
X19437Y22187D3*
X20106D3*
X14187Y14187D3*
X13518D3*
X22062Y24437D3*
X21393D3*
D91*
X26437Y17687D3*
Y18356D3*
X27187Y17687D3*
Y18356D3*
X27937Y17687D3*
Y18356D3*
X28687Y17687D3*
Y18356D3*
X29437Y17687D3*
Y18356D3*
X30187Y17687D3*
Y18356D3*
X30937Y17687D3*
Y18356D3*
D87*
X14187Y19687D3*
X13321D3*
D30*
X5687Y20937D3*
Y20681D3*
Y20425D3*
Y20169D3*
Y19913D3*
Y19657D3*
Y19402D3*
Y19146D3*
X8522D3*
Y19402D3*
Y19657D3*
Y19913D3*
Y20169D3*
Y20425D3*
Y20681D3*
Y20937D3*
D85*
X10687Y22187D3*
Y21687D3*
Y21187D3*
Y20687D3*
X12813D3*
Y21187D3*
Y21687D3*
Y22187D3*
G36*
X8798Y9512D2*
X8525D1*
X8331Y9706D1*
Y9979D1*
X8525Y10173D1*
X8798D1*
X8992Y9979D1*
Y9706D1*
X8798Y9512D1*
G37*
D83*
X7677Y9843D3*
Y9055D3*
X8661D3*
D81*
X5799Y7988D3*
X10539D3*
D79*
X36437Y15187D3*
X39937D3*
D77*
X13815Y15315D3*
Y17559D3*
D75*
X9843Y16142D3*
X9094D3*
X9469Y15236D3*
D74*
X22437Y33937D3*
D73*
X23437D3*
X24437D3*
D75*
X32435Y19968D3*
X31687D3*
X32061Y19062D3*
D91*
X5937Y17437D3*
Y18106D3*
X8187Y17437D3*
Y18106D3*
D89*
X9843Y17717D3*
X9173D3*
X9843Y16929D3*
X9173D3*
D71*
X39937Y17437D3*
Y19642D3*
D89*
X24772Y26522D3*
X24102D3*
Y25647D3*
X24772D3*
Y24897D3*
X24102D3*
X24772Y29522D3*
X24102D3*
X24772Y28022D3*
X24102D3*
D91*
X32437Y18343D3*
Y17674D3*
D89*
X24102Y22647D3*
X24772D3*
D30*
X22187Y25187D3*
Y25443D3*
Y25699D3*
Y25955D3*
Y26211D3*
Y26467D3*
Y26722D3*
Y26978D3*
Y27234D3*
Y27490D3*
Y27746D3*
Y28002D3*
Y28258D3*
Y28514D3*
X19352D3*
Y28258D3*
Y28002D3*
Y27746D3*
Y27490D3*
Y27234D3*
Y26978D3*
Y26722D3*
Y26467D3*
Y26211D3*
Y25955D3*
Y25699D3*
Y25443D3*
Y25187D3*
D69*
X32437Y15937D3*
X32240D3*
X32043D3*
X31846D3*
X31650D3*
X31453D3*
X31256D3*
X31059D3*
X30862D3*
X30665D3*
X30469D3*
X30272D3*
X30075D3*
X29878D3*
X29681D3*
X29484D3*
X29287D3*
X29091D3*
X28894D3*
X28697D3*
X28500D3*
X28303D3*
X28106D3*
X27909D3*
X27713D3*
X27516D3*
X27319D3*
X27122D3*
X26925D3*
X26728D3*
D67*
X33043Y15022D3*
X26122D3*
D65*
X9449Y12992D3*
D63*
X10449D3*
X12449D3*
X13449D3*
X14449D3*
D62*
X13101Y6474D3*
X14085Y7498D3*
X15070Y6474D3*
X16054Y7498D3*
X17038Y6474D3*
D60*
X16669Y31919D3*
Y31419D3*
Y30919D3*
Y30419D3*
Y29919D3*
X18205D3*
Y30419D3*
Y30919D3*
Y31419D3*
Y31919D3*
D89*
X24102Y28772D3*
X24771D3*
X24102Y27272D3*
X24771D3*
X24772Y23397D3*
X24103D3*
X31687Y20687D3*
X32356D3*
D58*
X23937Y24187D3*
X25039D3*
D49*
X4921Y13780D3*
Y33465D3*
X42323D3*
Y13780D3*
M02*
