G04 DipTrace 2.3.1.0*
%INreloadpro_BottomMask.gbs*%
%MOIN*%
%ADD53C,0.04*%
%ADD54C,0.0935*%
%ADD70C,0.0866*%
%ADD71C,0.0669*%
%ADD73R,0.0669X0.0669*%
%ADD83C,0.0827*%
%ADD84R,0.0827X0.0827*%
%ADD89C,0.3228*%
%ADD91C,0.1378*%
%ADD93C,0.0709*%
%FSLAX44Y44*%
G04*
G70*
G90*
G75*
G01*
%LNBotMask*%
%LPD*%
G36*
X8798Y9512D2*
X8525D1*
X8331Y9706D1*
Y9979D1*
X8525Y10173D1*
X8798D1*
X8992Y9979D1*
Y9706D1*
X8798Y9512D1*
G37*
D93*
X7677Y9843D3*
Y9055D3*
X8661D3*
D91*
X5799Y7988D3*
X10539D3*
D89*
X30312Y13687D3*
X34687D3*
D84*
X23213Y33937D3*
D83*
X24213D3*
X25213D3*
D73*
X9449Y12992D3*
D71*
X10449D3*
X12449D3*
X13449D3*
X14449D3*
D70*
X37726Y6474D3*
X38710Y7498D3*
X39695Y6474D3*
X40679Y7498D3*
X41663Y6474D3*
D53*
X18562Y31812D3*
X18962Y29812D3*
D54*
X19562Y31812D3*
X17562Y31817D3*
Y30567D3*
X19562D3*
D53*
X18162Y29812D3*
D71*
X5937Y29875D3*
Y28875D3*
Y27875D3*
Y26875D3*
X13937D3*
Y27875D3*
Y28875D3*
Y29875D3*
D84*
X23213Y42187D3*
D83*
X24213D3*
X25213D3*
M02*
