G04 DipTrace 2.3.1.0*
%INreloadpro_Bottom.gbl*%
%MOIN*%
%ADD14C,0.014*%
%ADD15C,0.016*%
%ADD17C,0.01*%
%ADD19C,0.08*%
%ADD20C,0.0394*%
%ADD24C,0.025*%
%ADD25C,0.013*%
%ADD33C,0.063*%
%ADD34C,0.1299*%
%ADD35C,0.315*%
%ADD39R,0.0748X0.0748*%
%ADD40C,0.0748*%
%ADD45R,0.0591X0.0591*%
%ADD46C,0.0591*%
%ADD47C,0.0787*%
%ADD51C,0.0236*%
%FSLAX44Y44*%
G04*
G70*
G90*
G75*
G01*
%LNBottom*%
%LPD*%
X7687Y19437D2*
D14*
X8687D1*
X11437Y22187D1*
X6437Y20425D2*
Y19687D1*
X6687Y19437D1*
X7687D1*
X16637Y15237D2*
D15*
X23137D1*
X12813Y22437D2*
X14625D1*
Y23687D2*
X14562D1*
Y24437D1*
X18937Y23687D2*
X16625D1*
X17937Y29062D2*
D17*
X14125D1*
X13937Y28875D1*
X17687Y29312D2*
X13562D1*
X13437Y29187D1*
Y28375D1*
X13937Y27875D1*
X30312Y13687D2*
D19*
Y14562D1*
X30437Y14687D1*
Y26437D1*
Y30687D1*
X29687Y31437D1*
X24937D1*
X24213Y32161D1*
Y33937D1*
X30312Y14687D2*
Y14562D1*
X30437Y26437D2*
D15*
X29437D1*
X19937Y26737D2*
D17*
X18137D1*
X13449Y12992D2*
D15*
X13382D1*
X12937Y13437D1*
Y18687D1*
X34687Y13687D2*
Y14187D1*
X39937D1*
Y13149D1*
Y11687D1*
X25637D1*
Y13187D1*
X18437D1*
X17687Y12437D1*
X14004D1*
X13449Y12992D1*
X20062Y21812D2*
Y19605D1*
X17794Y17337D1*
X16931Y16475D1*
X16187Y15730D1*
X13449Y12992D1*
X21437Y24062D2*
D17*
Y20952D1*
X20062Y19577D1*
D15*
Y19605D1*
X34687Y12687D2*
Y13687D1*
X25687Y24937D2*
D17*
Y23312D1*
X25062Y22687D1*
X23172D1*
X21437Y20952D1*
X41663Y6474D2*
Y6514D1*
X40679Y7498D1*
Y12407D1*
X39937Y13149D1*
X25637Y14437D2*
Y13187D1*
X25377Y17337D2*
X17794D1*
X18737Y16475D2*
X16931D1*
X25312Y25812D2*
Y25312D1*
X25687Y24937D1*
X26812Y27312D2*
Y24437D1*
X25687Y23312D1*
X25187Y28187D2*
Y25937D1*
X25312Y25812D1*
X25187Y29937D2*
Y28187D1*
X18562Y29937D2*
Y28250D1*
X18312Y28000D1*
X15750D1*
X14937Y27187D1*
Y15730D1*
X16187D1*
X13937Y26875D2*
Y26687D1*
X12312Y25062D1*
Y19312D1*
X12937Y18687D1*
X21562Y26312D2*
D15*
Y29812D1*
Y25812D2*
Y24437D1*
X22062Y23937D1*
X7937Y23312D2*
D17*
Y24125D1*
X7187Y19812D2*
D14*
Y22187D1*
X6937Y22437D1*
X6312D1*
X5375Y24062D2*
D15*
Y23375D1*
X6312Y22437D1*
X10449Y12992D2*
Y15675D1*
X7437Y18687D1*
X5937Y26875D2*
X4937Y25875D1*
Y19562D1*
X5812Y18687D1*
X7437D1*
D51*
X7687Y19437D3*
X11437Y22187D3*
X6437Y20425D3*
X7687Y19437D3*
X16637Y15237D3*
X23137D3*
X12813Y22437D3*
X14625D3*
Y23687D3*
X14562Y24437D3*
X14625Y22437D3*
X18937Y23687D3*
X16625D3*
X23137Y15237D3*
X17937Y29062D3*
X17687Y29312D3*
X29437Y26437D3*
X19937Y26737D3*
X18137D3*
X12937Y18687D3*
X20062Y21812D3*
X21437Y24062D3*
X25687Y24937D3*
X25637Y14437D3*
X25377Y17337D3*
X18737Y16475D3*
X25312Y25812D3*
X25687Y24937D3*
X26812Y27312D3*
X25187Y28187D3*
X25312Y25812D3*
X25187Y29937D3*
Y28187D3*
X18562Y29937D3*
X21562Y26312D3*
Y29812D3*
Y25812D3*
X22062Y23937D3*
X7937Y23312D3*
Y24125D3*
X7187Y19812D3*
X6312Y22437D3*
X5375Y24062D3*
X7437Y18687D3*
D20*
X30312Y14687D3*
Y12687D3*
X31312Y13687D3*
X29312D3*
X29562Y14437D3*
X31062D3*
Y12937D3*
X29562D3*
X34687Y14687D3*
Y12687D3*
X33687Y13687D3*
X35687D3*
X35437Y14437D3*
X33937Y12937D3*
Y14437D3*
X35437Y12937D3*
X4337Y31563D2*
D24*
X11285D1*
X4337Y31315D2*
X11285D1*
X4337Y31066D2*
X11285D1*
X4337Y30817D2*
X11285D1*
X4337Y30569D2*
X11285D1*
X4337Y30320D2*
X5625D1*
X6249D2*
X11285D1*
X4337Y30071D2*
X5418D1*
X6456D2*
X11285D1*
X4337Y29823D2*
X5383D1*
X6491D2*
X11285D1*
X4337Y29574D2*
X5476D1*
X6398D2*
X11285D1*
X4337Y29325D2*
X5633D1*
X6241D2*
X11285D1*
X4337Y29076D2*
X5422D1*
X6452D2*
X11285D1*
X4337Y28828D2*
X5383D1*
X6491D2*
X11285D1*
X4337Y28579D2*
X5473D1*
X6401D2*
X11285D1*
X4337Y28330D2*
X5641D1*
X6233D2*
X11285D1*
X4337Y28082D2*
X5426D1*
X6448D2*
X11285D1*
X4337Y27833D2*
X5383D1*
X6491D2*
X11285D1*
X4337Y27584D2*
X5469D1*
X6405D2*
X11285D1*
X4337Y27336D2*
X5652D1*
X6222D2*
X11285D1*
X4337Y27087D2*
X5426D1*
X6448D2*
X11285D1*
X4337Y26838D2*
X5383D1*
X6491D2*
X11285D1*
X4337Y26590D2*
X5465D1*
X6409D2*
X11285D1*
X4337Y26341D2*
X11281D1*
X4337Y26092D2*
X11281D1*
X4337Y25844D2*
X11281D1*
X4337Y25595D2*
X11281D1*
X4337Y25346D2*
X11281D1*
X4337Y25097D2*
X11281D1*
X4337Y24849D2*
X11281D1*
X4337Y24600D2*
X11281D1*
X4337Y24351D2*
X5148D1*
X5601D2*
X7641D1*
X8233D2*
X11281D1*
X4337Y24103D2*
X5000D1*
X5749D2*
X7558D1*
X8316D2*
X11281D1*
X4337Y23854D2*
X5035D1*
X5714D2*
X7629D1*
X8245D2*
X11281D1*
X4337Y23605D2*
X5035D1*
X5714D2*
X7629D1*
X8245D2*
X11281D1*
X4337Y23357D2*
X5035D1*
X5862D2*
X7562D1*
X8312D2*
X11281D1*
X4337Y23108D2*
X5172D1*
X6112D2*
X7625D1*
X8249D2*
X11281D1*
X4337Y22859D2*
X5418D1*
X6358D2*
X11281D1*
X4337Y22611D2*
X5668D1*
X7218D2*
X11281D1*
X4337Y22362D2*
X5918D1*
X7460D2*
X11105D1*
X4337Y22113D2*
X6148D1*
X6476D2*
X6805D1*
X7519D2*
X10906D1*
X4337Y21865D2*
X6855D1*
X7519D2*
X10660D1*
X4337Y21616D2*
X6855D1*
X7519D2*
X10410D1*
X4337Y21367D2*
X6855D1*
X7519D2*
X10160D1*
X11073D2*
X11281D1*
X4337Y21118D2*
X6855D1*
X7519D2*
X9914D1*
X10823D2*
X11281D1*
X4337Y20870D2*
X6855D1*
X7519D2*
X9664D1*
X10577D2*
X11277D1*
X4337Y20621D2*
X6117D1*
X6757D2*
X6858D1*
X7519D2*
X9414D1*
X10327D2*
X11277D1*
X4337Y20372D2*
X6062D1*
X7519D2*
X9168D1*
X10077D2*
X11277D1*
X4337Y20124D2*
X6105D1*
X6769D2*
X6855D1*
X7519D2*
X8918D1*
X9831D2*
X11277D1*
X4337Y19875D2*
X6105D1*
X7558D2*
X8668D1*
X9581D2*
X11277D1*
X4337Y19626D2*
X6113D1*
X9331D2*
X11277D1*
X4337Y19378D2*
X6289D1*
X9085D2*
X11277D1*
X4337Y19129D2*
X7488D1*
X7886D2*
X11277D1*
X4337Y18880D2*
X11277D1*
X4337Y18632D2*
X11277D1*
X4337Y18383D2*
X11277D1*
X4337Y18134D2*
X11277D1*
X4337Y17886D2*
X11277D1*
X4337Y17637D2*
X11277D1*
X4337Y17388D2*
X11277D1*
X4337Y17139D2*
X11277D1*
X4337Y16891D2*
X11277D1*
X4337Y16642D2*
X11277D1*
X4337Y16393D2*
X11277D1*
X4337Y16145D2*
X11277D1*
X4337Y15896D2*
X11277D1*
X4337Y15647D2*
X11277D1*
X4337Y15399D2*
X11273D1*
X4337Y15150D2*
X11273D1*
X4337Y14901D2*
X11273D1*
X4337Y14653D2*
X11273D1*
X4337Y14404D2*
X11273D1*
X4337Y14155D2*
X11273D1*
X4337Y13906D2*
X11273D1*
X4337Y13658D2*
X11273D1*
X4337Y13409D2*
X8894D1*
X10003D2*
X10093D1*
X10800D2*
X11273D1*
X4337Y13160D2*
X8894D1*
X10976D2*
X11273D1*
X4337Y12912D2*
X8894D1*
X10999D2*
X11273D1*
X4337Y12663D2*
X8894D1*
X10890D2*
X11273D1*
X4337Y12414D2*
X11273D1*
X4337Y12166D2*
X11273D1*
X4337Y11917D2*
X11273D1*
X4337Y11668D2*
X11273D1*
X4337Y11420D2*
X11273D1*
X4337Y11171D2*
X11273D1*
X4337Y10922D2*
X11273D1*
X4337Y10674D2*
X11273D1*
X4337Y10425D2*
X11273D1*
X4337Y10176D2*
X7215D1*
X8140D2*
X8228D1*
X9097D2*
X11273D1*
X4337Y9927D2*
X7109D1*
X9214D2*
X11273D1*
X4337Y9679D2*
X7129D1*
X9210D2*
X11269D1*
X4337Y9430D2*
X7250D1*
X9089D2*
X11269D1*
X4337Y9181D2*
X7117D1*
X9222D2*
X11269D1*
X4337Y8933D2*
X7117D1*
X9222D2*
X11269D1*
X4337Y8684D2*
X5226D1*
X6370D2*
X7246D1*
X8108D2*
X8233D1*
X9093D2*
X9969D1*
X11108D2*
X11269D1*
X4337Y8435D2*
X5012D1*
X6589D2*
X9750D1*
X4337Y8187D2*
X4914D1*
X6687D2*
X9652D1*
X4337Y7938D2*
X4891D1*
X6706D2*
X9633D1*
X4337Y7689D2*
X4941D1*
X6655D2*
X9683D1*
X4337Y7441D2*
X5078D1*
X6519D2*
X9820D1*
X4337Y7192D2*
X5391D1*
X6210D2*
X10129D1*
X10948D2*
X11269D1*
X4337Y6943D2*
X11269D1*
X4337Y6695D2*
X11269D1*
X4337Y6446D2*
X11269D1*
X4337Y6197D2*
X11269D1*
X4337Y5948D2*
X11269D1*
X4337Y5700D2*
X11269D1*
X4337Y5451D2*
X11269D1*
X4337Y5202D2*
X11269D1*
X4337Y4954D2*
X11269D1*
X4337Y4705D2*
X11269D1*
X4337Y4456D2*
X11269D1*
X8293Y10218D2*
X8375Y10300D1*
X8486Y10361D1*
X8666Y10369D1*
X8782D1*
X8904Y10333D1*
X9036Y10211D1*
X9119Y10129D1*
X9180Y10018D1*
X9187Y9838D1*
Y9722D1*
X9152Y9600D1*
X9028Y9465D1*
X9100Y9386D1*
X9164Y9279D1*
X9201Y9160D1*
X9211Y9055D1*
X9197Y8931D1*
X9156Y8814D1*
X9088Y8709D1*
X8999Y8621D1*
X8893Y8556D1*
X8774Y8517D1*
X8650Y8505D1*
X8527Y8522D1*
X8410Y8566D1*
X8306Y8635D1*
X8221Y8726D1*
X8169Y8810D1*
X8104Y8709D1*
X8015Y8621D1*
X7909Y8556D1*
X7790Y8517D1*
X7666Y8505D1*
X7542Y8522D1*
X7426Y8566D1*
X7322Y8635D1*
X7237Y8726D1*
X7174Y8834D1*
X7137Y8953D1*
X7128Y9077D1*
X7147Y9201D1*
X7193Y9316D1*
X7265Y9419D1*
X7296Y9447D1*
X7237Y9513D1*
X7174Y9621D1*
X7137Y9740D1*
X7128Y9865D1*
X7147Y9988D1*
X7193Y10104D1*
X7265Y10206D1*
X7357Y10290D1*
X7466Y10350D1*
X7586Y10385D1*
X7711Y10391D1*
X7833Y10370D1*
X7948Y10321D1*
X8049Y10248D1*
X8131Y10153D1*
X8169Y10081D1*
X8293Y10218D1*
X6675Y7864D2*
X6649Y7742D1*
X6606Y7624D1*
X6546Y7514D1*
X6472Y7414D1*
X6384Y7325D1*
X6285Y7249D1*
X6176Y7188D1*
X6060Y7143D1*
X5938Y7115D1*
X5814Y7104D1*
X5689Y7110D1*
X5567Y7135D1*
X5449Y7176D1*
X5338Y7233D1*
X5236Y7306D1*
X5146Y7392D1*
X5068Y7490D1*
X5005Y7598D1*
X4958Y7714D1*
X4928Y7835D1*
X4915Y7959D1*
X4920Y8084D1*
X4942Y8207D1*
X4981Y8325D1*
X5037Y8437D1*
X5108Y8540D1*
X5192Y8632D1*
X5289Y8711D1*
X5396Y8776D1*
X5511Y8825D1*
X5632Y8857D1*
X5756Y8872D1*
X5880Y8869D1*
X6004Y8849D1*
X6123Y8811D1*
X6236Y8758D1*
X6340Y8689D1*
X6433Y8605D1*
X6514Y8510D1*
X6580Y8404D1*
X6631Y8290D1*
X6665Y8170D1*
X6684Y7988D1*
X6675Y7864D1*
X9044Y13522D2*
X9979D1*
X9981Y13241D1*
X10052Y13344D1*
X10145Y13427D1*
X10255Y13486D1*
X10375Y13517D1*
X10500Y13520D1*
X10622Y13493D1*
X10734Y13439D1*
X10831Y13360D1*
X10906Y13261D1*
X10956Y13147D1*
X10978Y13024D1*
X10974Y12917D1*
X10942Y12797D1*
X10883Y12687D1*
X10799Y12594D1*
X10697Y12523D1*
X10580Y12478D1*
X10457Y12462D1*
X10333Y12475D1*
X10215Y12516D1*
X10110Y12584D1*
X10024Y12674D1*
X9979Y12746D1*
Y12462D1*
X8919D1*
Y13522D1*
X9044D1*
X6453Y29751D2*
X6409Y29634D1*
X6340Y29530D1*
X6249Y29445D1*
X6140Y29384D1*
X6106Y29375D1*
X6179Y29346D1*
X6282Y29277D1*
X6367Y29185D1*
X6427Y29076D1*
X6461Y28956D1*
X6467Y28875D1*
X6453Y28751D1*
X6409Y28634D1*
X6340Y28530D1*
X6249Y28445D1*
X6140Y28384D1*
X6106Y28375D1*
X6179Y28346D1*
X6282Y28277D1*
X6367Y28185D1*
X6427Y28076D1*
X6461Y27956D1*
X6467Y27875D1*
X6453Y27751D1*
X6409Y27634D1*
X6340Y27530D1*
X6249Y27445D1*
X6140Y27384D1*
X6106Y27375D1*
X6201Y27334D1*
X6301Y27260D1*
X6381Y27164D1*
X6436Y27053D1*
X6464Y26931D1*
X6465Y26825D1*
X6439Y26703D1*
X6385Y26590D1*
X6306Y26494D1*
X6207Y26418D1*
X6093Y26368D1*
X5970Y26345D1*
X5845Y26352D1*
X5726Y26388D1*
X5618Y26451D1*
X5528Y26537D1*
X5461Y26642D1*
X5419Y26760D1*
X5407Y26884D1*
X5424Y27007D1*
X5469Y27123D1*
X5540Y27226D1*
X5633Y27309D1*
X5743Y27368D1*
X5761Y27375D1*
X5660Y27423D1*
X5562Y27500D1*
X5485Y27598D1*
X5432Y27711D1*
X5408Y27834D1*
X5413Y27958D1*
X5447Y28078D1*
X5509Y28187D1*
X5593Y28278D1*
X5697Y28347D1*
X5767Y28373D1*
X5660Y28423D1*
X5562Y28500D1*
X5485Y28598D1*
X5432Y28711D1*
X5408Y28834D1*
X5413Y28958D1*
X5447Y29078D1*
X5509Y29187D1*
X5593Y29278D1*
X5697Y29347D1*
X5767Y29373D1*
X5660Y29423D1*
X5562Y29500D1*
X5485Y29598D1*
X5432Y29711D1*
X5408Y29834D1*
X5413Y29958D1*
X5447Y30078D1*
X5509Y30187D1*
X5593Y30278D1*
X5697Y30347D1*
X5814Y30390D1*
X5938Y30405D1*
X6062Y30390D1*
X6179Y30346D1*
X6282Y30277D1*
X6367Y30185D1*
X6427Y30076D1*
X6461Y29956D1*
X6467Y29875D1*
X6453Y29751D1*
X7652Y23519D2*
Y23917D1*
X7601Y24017D1*
X7584Y24140D1*
X7612Y24261D1*
X7679Y24366D1*
X7779Y24440D1*
X7898Y24475D1*
X8022Y24467D1*
X8136Y24416D1*
X8225Y24329D1*
X8278Y24217D1*
X8290Y24125D1*
X8268Y24002D1*
X8223Y23925D1*
X8225Y23517D1*
X8278Y23405D1*
X8290Y23312D1*
X8268Y23190D1*
X8205Y23082D1*
X8109Y23004D1*
X7991Y22963D1*
X7867Y22966D1*
X7751Y23012D1*
X7659Y23095D1*
X7601Y23204D1*
X7584Y23328D1*
X7612Y23449D1*
X7652Y23511D1*
X7241Y22564D2*
X7403Y22403D1*
X7471Y22295D1*
X7492Y22187D1*
Y19988D1*
X7528Y19905D1*
X7540Y19812D1*
X7533Y19754D1*
X7648Y19788D1*
X7772Y19780D1*
X7863Y19742D1*
X8558D1*
X11098Y22279D1*
X11112Y22324D1*
X11179Y22428D1*
X11279Y22503D1*
X11305Y22510D1*
X11312Y31812D1*
X4312D1*
Y4312D1*
X11292D1*
X11296Y7532D1*
X11212Y7414D1*
X11125Y7325D1*
X11025Y7249D1*
X10916Y7188D1*
X10800Y7143D1*
X10678Y7115D1*
X10554Y7104D1*
X10429Y7110D1*
X10307Y7135D1*
X10189Y7176D1*
X10078Y7233D1*
X9976Y7306D1*
X9886Y7392D1*
X9808Y7490D1*
X9745Y7598D1*
X9698Y7714D1*
X9668Y7835D1*
X9655Y7959D1*
X9660Y8084D1*
X9682Y8207D1*
X9722Y8325D1*
X9777Y8437D1*
X9848Y8540D1*
X9933Y8632D1*
X10029Y8711D1*
X10136Y8776D1*
X10251Y8825D1*
X10372Y8857D1*
X10496Y8872D1*
X10621Y8869D1*
X10744Y8849D1*
X10863Y8811D1*
X10976Y8758D1*
X11080Y8689D1*
X11173Y8605D1*
X11254Y8510D1*
X11297Y8441D1*
X11299Y13562D1*
Y21618D1*
X8903Y19221D1*
X8795Y19153D1*
X8687Y19132D1*
X7859Y19129D1*
X7741Y19088D1*
X7617Y19091D1*
X7512Y19132D1*
X6687D1*
X6562Y19160D1*
X6471Y19221D1*
X6221Y19471D1*
X6153Y19579D1*
X6132Y19687D1*
Y20246D1*
X6101Y20318D1*
X6084Y20441D1*
X6112Y20562D1*
X6179Y20667D1*
X6279Y20741D1*
X6398Y20776D1*
X6522Y20768D1*
X6636Y20717D1*
X6725Y20630D1*
X6778Y20518D1*
X6790Y20425D1*
X6768Y20303D1*
X6743Y20259D1*
X6742Y19812D1*
X6834Y19828D1*
X6862Y19949D1*
X6881Y19978D1*
X6882Y22058D1*
X6808Y22132D1*
X6484Y22129D1*
X6366Y22088D1*
X6242Y22091D1*
X6126Y22137D1*
X6034Y22220D1*
X5978Y22326D1*
X5152Y23152D1*
X5083Y23255D1*
X5060Y23375D1*
Y23902D1*
X5038Y23954D1*
X5022Y24078D1*
X5049Y24199D1*
X5117Y24303D1*
X5216Y24378D1*
X5336Y24413D1*
X5460Y24405D1*
X5573Y24354D1*
X5662Y24267D1*
X5715Y24155D1*
X5728Y24062D1*
X5706Y23940D1*
X5688Y23909D1*
X5690Y23503D1*
X6423Y22771D1*
X6562Y22742D1*
X6937D1*
X7062Y22715D1*
X7153Y22653D1*
X7241Y22564D1*
X8661Y9055D2*
D25*
X9050Y8667D1*
Y9444D2*
X8273Y8667D1*
X10074Y13367D2*
X10823Y12618D1*
Y13367D2*
X10074Y12618D1*
X5562Y27249D2*
X6312Y26500D1*
Y27249D2*
X5562Y26500D1*
X22607Y41425D2*
D24*
X25768D1*
X22607Y41176D2*
X25768D1*
X22607Y40928D2*
X25768D1*
X22607Y40679D2*
X25768D1*
X22607Y40430D2*
X25768D1*
X22607Y40181D2*
X25768D1*
X22607Y39933D2*
X25768D1*
X22607Y39684D2*
X25768D1*
X22607Y39435D2*
X25768D1*
X22607Y39187D2*
X25768D1*
X22607Y38938D2*
X25768D1*
X22607Y38689D2*
X25768D1*
X22607Y38441D2*
X25768D1*
X22607Y38192D2*
X25768D1*
X22607Y37943D2*
X25768D1*
X22607Y37695D2*
X25768D1*
X22607Y37446D2*
X25768D1*
X22607Y37197D2*
X25768D1*
X22607Y36949D2*
X25768D1*
X22607Y36700D2*
X25768D1*
X22607Y36451D2*
X25768D1*
X22607Y36202D2*
X25768D1*
X22607Y35954D2*
X25768D1*
X22607Y35705D2*
X25768D1*
X22607Y35456D2*
X25768D1*
X22607Y35208D2*
X25768D1*
X22607Y34959D2*
X25768D1*
X22576Y34710D2*
X25768D1*
X4357Y34462D2*
X22620D1*
X25713D2*
X44123D1*
X4357Y34213D2*
X22620D1*
X25892D2*
X44123D1*
X4357Y33964D2*
X22620D1*
X25947D2*
X44120D1*
X4353Y33716D2*
X22620D1*
X25912D2*
X44120D1*
X4353Y33467D2*
X22620D1*
X25767D2*
X44120D1*
X4353Y33218D2*
X23452D1*
X24974D2*
X44120D1*
X4353Y32970D2*
X23452D1*
X24974D2*
X44120D1*
X4353Y32721D2*
X23452D1*
X24974D2*
X44120D1*
X4353Y32472D2*
X17073D1*
X18048D2*
X19080D1*
X20045D2*
X23452D1*
X24974D2*
X44120D1*
X4353Y32223D2*
X16846D1*
X20275D2*
X23452D1*
X25216D2*
X44120D1*
X11713Y31975D2*
X16748D1*
X20373D2*
X23475D1*
X30213D2*
X44116D1*
X11716Y31726D2*
X16741D1*
X20384D2*
X23596D1*
X30463D2*
X44116D1*
X11716Y31477D2*
X16811D1*
X20318D2*
X23830D1*
X30713D2*
X44116D1*
X11716Y31229D2*
X16991D1*
X18134D2*
X18987D1*
X20138D2*
X24080D1*
X30959D2*
X44116D1*
X11716Y30980D2*
X16850D1*
X18275D2*
X18850D1*
X20275D2*
X24330D1*
X31134D2*
X44116D1*
X11716Y30731D2*
X16752D1*
X18373D2*
X18752D1*
X20373D2*
X24705D1*
X31197D2*
X44116D1*
X11716Y30483D2*
X16741D1*
X18384D2*
X18741D1*
X20384D2*
X29577D1*
X31197D2*
X44116D1*
X11716Y30234D2*
X13495D1*
X14377D2*
X16807D1*
X18517D2*
X18607D1*
X20318D2*
X29678D1*
X31197D2*
X44116D1*
X11716Y29985D2*
X13373D1*
X14502D2*
X16983D1*
X20138D2*
X21182D1*
X21939D2*
X29678D1*
X31197D2*
X44116D1*
X11716Y29737D2*
X13381D1*
X14494D2*
X17608D1*
X19517D2*
X21151D1*
X21974D2*
X29678D1*
X31197D2*
X44112D1*
X11716Y29488D2*
X13366D1*
X19412D2*
X21264D1*
X21861D2*
X29678D1*
X31197D2*
X44112D1*
X11716Y29239D2*
X13174D1*
X18314D2*
X21264D1*
X21861D2*
X29678D1*
X31197D2*
X44112D1*
X11716Y28991D2*
X13166D1*
X18349D2*
X21264D1*
X21861D2*
X29678D1*
X31197D2*
X44112D1*
X11716Y28742D2*
X13166D1*
X14435D2*
X17682D1*
X18193D2*
X21264D1*
X21861D2*
X29678D1*
X31197D2*
X44112D1*
X11713Y28493D2*
X13166D1*
X14271D2*
X21264D1*
X21861D2*
X29678D1*
X31197D2*
X44112D1*
X11713Y28244D2*
X13205D1*
X14283D2*
X21264D1*
X21861D2*
X29678D1*
X31197D2*
X44112D1*
X11713Y27996D2*
X13436D1*
X14435D2*
X21264D1*
X21861D2*
X29678D1*
X31197D2*
X44112D1*
X11713Y27747D2*
X13440D1*
X14435D2*
X21264D1*
X21861D2*
X29678D1*
X31197D2*
X44112D1*
X11713Y27498D2*
X13596D1*
X14275D2*
X21264D1*
X21861D2*
X29678D1*
X31197D2*
X44108D1*
X11713Y27250D2*
X13510D1*
X14365D2*
X21264D1*
X21861D2*
X29678D1*
X31197D2*
X44108D1*
X11713Y27001D2*
X13377D1*
X14498D2*
X17819D1*
X18455D2*
X19620D1*
X20255D2*
X21264D1*
X21861D2*
X29678D1*
X31197D2*
X44108D1*
X11713Y26752D2*
X13377D1*
X14498D2*
X17717D1*
X20357D2*
X21264D1*
X21861D2*
X29088D1*
X31197D2*
X44108D1*
X11713Y26504D2*
X13506D1*
X14369D2*
X17795D1*
X20279D2*
X21194D1*
X21931D2*
X28963D1*
X31197D2*
X44108D1*
X11713Y26255D2*
X21147D1*
X21978D2*
X28998D1*
X31197D2*
X44108D1*
X11713Y26006D2*
X21194D1*
X21931D2*
X29272D1*
X31197D2*
X44108D1*
X11713Y25758D2*
X21147D1*
X21978D2*
X29678D1*
X31197D2*
X44108D1*
X11713Y25509D2*
X21264D1*
X21861D2*
X29678D1*
X31197D2*
X44108D1*
X11713Y25260D2*
X21264D1*
X21861D2*
X29678D1*
X31197D2*
X44104D1*
X11713Y25011D2*
X21264D1*
X21861D2*
X29678D1*
X31197D2*
X44104D1*
X11713Y24763D2*
X14315D1*
X14810D2*
X21264D1*
X21861D2*
X29678D1*
X31197D2*
X44104D1*
X11713Y24514D2*
X14151D1*
X14974D2*
X21264D1*
X21900D2*
X29678D1*
X31197D2*
X44104D1*
X11713Y24265D2*
X14182D1*
X14943D2*
X21323D1*
X22306D2*
X29678D1*
X31197D2*
X44104D1*
X11713Y24017D2*
X14202D1*
X14923D2*
X16385D1*
X19177D2*
X21569D1*
X22474D2*
X29678D1*
X31197D2*
X44104D1*
X11713Y23768D2*
X14202D1*
X15037D2*
X16213D1*
X19349D2*
X21682D1*
X22443D2*
X29678D1*
X31197D2*
X44104D1*
X11713Y23519D2*
X14245D1*
X15005D2*
X16245D1*
X19318D2*
X29678D1*
X31197D2*
X44104D1*
X11713Y23271D2*
X29678D1*
X31197D2*
X44104D1*
X11709Y23022D2*
X29678D1*
X31197D2*
X44100D1*
X11709Y22773D2*
X12584D1*
X13045D2*
X14393D1*
X14853D2*
X29678D1*
X31197D2*
X44100D1*
X11709Y22525D2*
X12405D1*
X15033D2*
X29678D1*
X31197D2*
X44100D1*
X11845Y22276D2*
X12428D1*
X15009D2*
X29678D1*
X31197D2*
X44100D1*
X11822Y22027D2*
X29678D1*
X31197D2*
X44100D1*
X11709Y21779D2*
X29678D1*
X31197D2*
X44100D1*
X11709Y21530D2*
X29678D1*
X31197D2*
X44100D1*
X11709Y21281D2*
X29678D1*
X31197D2*
X44100D1*
X11709Y21032D2*
X29678D1*
X31197D2*
X44100D1*
X11709Y20784D2*
X29678D1*
X31197D2*
X44096D1*
X11709Y20535D2*
X29678D1*
X31197D2*
X44096D1*
X11709Y20286D2*
X29678D1*
X31197D2*
X44096D1*
X11709Y20038D2*
X29678D1*
X31197D2*
X44096D1*
X11709Y19789D2*
X29678D1*
X31197D2*
X44096D1*
X11709Y19540D2*
X29678D1*
X31197D2*
X44096D1*
X11709Y19292D2*
X29678D1*
X31197D2*
X44096D1*
X11709Y19043D2*
X29678D1*
X31197D2*
X44096D1*
X11709Y18794D2*
X29678D1*
X31197D2*
X44096D1*
X11709Y18546D2*
X29678D1*
X31197D2*
X44092D1*
X11709Y18297D2*
X29678D1*
X31197D2*
X44092D1*
X11709Y18048D2*
X29678D1*
X31197D2*
X44092D1*
X11709Y17800D2*
X29678D1*
X31197D2*
X44092D1*
X11709Y17551D2*
X29678D1*
X31197D2*
X44092D1*
X11705Y17302D2*
X29678D1*
X31197D2*
X44092D1*
X11705Y17053D2*
X29678D1*
X31197D2*
X44092D1*
X11705Y16805D2*
X29678D1*
X31197D2*
X44092D1*
X11705Y16556D2*
X29678D1*
X31197D2*
X44088D1*
X11705Y16307D2*
X29678D1*
X31197D2*
X44088D1*
X11705Y16059D2*
X29678D1*
X31197D2*
X44088D1*
X11705Y15810D2*
X29678D1*
X31197D2*
X44088D1*
X11705Y15561D2*
X16389D1*
X23384D2*
X29678D1*
X31197D2*
X44088D1*
X11705Y15313D2*
X16225D1*
X23548D2*
X29284D1*
X31338D2*
X33823D1*
X35552D2*
X44088D1*
X11705Y15064D2*
X16256D1*
X23517D2*
X28963D1*
X31662D2*
X33455D1*
X35916D2*
X44088D1*
X11705Y14815D2*
X28745D1*
X31877D2*
X33221D1*
X36154D2*
X44088D1*
X11705Y14567D2*
X28592D1*
X32033D2*
X33057D1*
X36318D2*
X44088D1*
X11705Y14318D2*
X28483D1*
X32138D2*
X32944D1*
X36431D2*
X44084D1*
X11705Y14069D2*
X28416D1*
X32209D2*
X32873D1*
X36502D2*
X44084D1*
X11705Y13821D2*
X28381D1*
X32244D2*
X32838D1*
X36537D2*
X44084D1*
X11705Y13572D2*
X12178D1*
X12720D2*
X28381D1*
X32244D2*
X32834D1*
X36537D2*
X44084D1*
X11705Y13323D2*
X11889D1*
X13912D2*
X14061D1*
X14834D2*
X28413D1*
X32213D2*
X32870D1*
X36505D2*
X44084D1*
X11705Y13074D2*
X11799D1*
X14959D2*
X28479D1*
X32146D2*
X32940D1*
X36435D2*
X44084D1*
X11705Y12826D2*
X11813D1*
X14935D2*
X28584D1*
X32041D2*
X33049D1*
X36326D2*
X44084D1*
X11705Y12577D2*
X11952D1*
X12947D2*
X13060D1*
X13834D2*
X14163D1*
X14736D2*
X28733D1*
X31892D2*
X33205D1*
X36166D2*
X44084D1*
X11705Y12328D2*
X28944D1*
X31677D2*
X33436D1*
X35939D2*
X44084D1*
X11705Y12080D2*
X29256D1*
X31369D2*
X33788D1*
X35588D2*
X44080D1*
X11701Y11831D2*
X29838D1*
X30787D2*
X44080D1*
X11701Y11582D2*
X44080D1*
X11701Y11334D2*
X44080D1*
X36224Y11085D2*
X44080D1*
X36404Y10836D2*
X44080D1*
X36443Y10588D2*
X44080D1*
X36439Y10339D2*
X44080D1*
X36439Y10090D2*
X44080D1*
X36435Y9842D2*
X44077D1*
X36435Y9593D2*
X44077D1*
X36431Y9344D2*
X44077D1*
X36431Y9095D2*
X44077D1*
X36427Y8847D2*
X44077D1*
X36427Y8598D2*
X44077D1*
X37236Y8349D2*
X42155D1*
X43693D2*
X44077D1*
X37310Y8101D2*
X40413D1*
X40943D2*
X42080D1*
X43767D2*
X44077D1*
X37310Y7852D2*
X38213D1*
X39205D2*
X40112D1*
X41248D2*
X42080D1*
X43767D2*
X44077D1*
X37310Y7603D2*
X38108D1*
X39314D2*
X40014D1*
X41345D2*
X42080D1*
X43767D2*
X44073D1*
X37310Y7355D2*
X38116D1*
X39306D2*
X40022D1*
X41338D2*
X42080D1*
X43767D2*
X44073D1*
X37271Y7106D2*
X38245D1*
X39173D2*
X40139D1*
X41220D2*
X41491D1*
X41838D2*
X42116D1*
X43728D2*
X44073D1*
X36908Y6857D2*
X37252D1*
X38197D2*
X39221D1*
X40166D2*
X40553D1*
X40806D2*
X41116D1*
X42213D2*
X42483D1*
X43365D2*
X44073D1*
X36412Y6609D2*
X37127D1*
X38326D2*
X39096D1*
X40295D2*
X41002D1*
X42322D2*
X44073D1*
X36408Y6360D2*
X37123D1*
X38330D2*
X39092D1*
X40298D2*
X40998D1*
X42326D2*
X44073D1*
X36408Y6111D2*
X37237D1*
X38213D2*
X39205D1*
X40181D2*
X41100D1*
X42224D2*
X44073D1*
X36404Y5863D2*
X41424D1*
X41904D2*
X44073D1*
X36404Y5614D2*
X44073D1*
X36400Y5365D2*
X44069D1*
X36400Y5116D2*
X44069D1*
X36396Y4868D2*
X44069D1*
X36396Y4619D2*
X44069D1*
X36392Y4370D2*
X44069D1*
X32218Y13562D2*
X32185Y13314D1*
X32120Y13073D1*
X32025Y12842D1*
X31900Y12626D1*
X31748Y12428D1*
X31571Y12251D1*
X31373Y12099D1*
X31157Y11974D1*
X30926Y11879D1*
X30685Y11814D1*
X30437Y11781D1*
X30187D1*
X29939Y11814D1*
X29698Y11879D1*
X29467Y11974D1*
X29251Y12099D1*
X29053Y12251D1*
X28876Y12428D1*
X28724Y12626D1*
X28599Y12842D1*
X28504Y13073D1*
X28439Y13315D1*
X28406Y13562D1*
Y13812D1*
X28439Y14060D1*
X28504Y14301D1*
X28599Y14532D1*
X28724Y14748D1*
X28876Y14946D1*
X29053Y15123D1*
X29251Y15275D1*
X29468Y15400D1*
X29702Y15497D1*
Y26019D1*
X29621Y26022D1*
X29523Y25992D1*
X29399Y25986D1*
X29277Y26013D1*
X29168Y26073D1*
X29079Y26160D1*
X29017Y26268D1*
X28986Y26389D1*
X28990Y26513D1*
X29028Y26632D1*
X29097Y26736D1*
X29191Y26817D1*
X29304Y26870D1*
X29427Y26890D1*
X29551Y26876D1*
X29612Y26850D1*
X29699Y26852D1*
X29702Y27687D1*
Y30386D1*
X29384Y30700D1*
X24937Y30702D1*
X24813Y30713D1*
X24692Y30744D1*
X24578Y30796D1*
X24461Y30877D1*
X23693Y31642D1*
X23612Y31737D1*
X23549Y31845D1*
X23505Y31962D1*
X23480Y32102D1*
X23478Y33368D1*
X22644D1*
Y34506D1*
X23749D1*
X23828Y34563D1*
X23940Y34619D1*
X24059Y34656D1*
X24183Y34671D1*
X24308Y34666D1*
X24430Y34639D1*
X24545Y34592D1*
X24652Y34527D1*
X24730Y34457D1*
X24884Y34566D1*
X25000Y34613D1*
X25122Y34640D1*
X25246Y34645D1*
X25370Y34628D1*
X25489Y34590D1*
X25599Y34531D1*
X25697Y34454D1*
X25781Y34361D1*
X25846Y34255D1*
X25892Y34139D1*
X25917Y34017D1*
X25922Y33937D1*
X25911Y33813D1*
X25878Y33692D1*
X25825Y33579D1*
X25753Y33477D1*
X25664Y33390D1*
X25561Y33319D1*
X25447Y33268D1*
X25326Y33237D1*
X25201Y33228D1*
X25077Y33241D1*
X24947Y33281D1*
X24948Y32464D1*
X25243Y32170D1*
X29062Y32172D1*
X29687D1*
X29811Y32161D1*
X29932Y32130D1*
X30046Y32078D1*
X30163Y31997D1*
X30957Y31207D1*
X31037Y31111D1*
X31100Y31004D1*
X31144Y30887D1*
X31170Y30746D1*
X31172Y29062D1*
Y15394D1*
X31373Y15275D1*
X31571Y15123D1*
X31748Y14946D1*
X31900Y14748D1*
X32025Y14531D1*
X32121Y14301D1*
X32185Y14059D1*
X32218Y13812D1*
Y13562D1*
X36517Y13662D2*
X36500Y13438D1*
X36456Y13217D1*
X36385Y13004D1*
X36288Y12801D1*
X36167Y12611D1*
X36024Y12438D1*
X35861Y12283D1*
X35680Y12150D1*
X35484Y12040D1*
X35276Y11954D1*
X35059Y11895D1*
X34836Y11863D1*
X34611Y11859D1*
X34388Y11882D1*
X34168Y11932D1*
X33957Y12009D1*
X33757Y12111D1*
X33571Y12237D1*
X33401Y12385D1*
X33251Y12553D1*
X33123Y12737D1*
X33018Y12936D1*
X32939Y13147D1*
X32886Y13365D1*
X32860Y13589D1*
X32862Y13813D1*
X32891Y14036D1*
X32947Y14254D1*
X33030Y14463D1*
X33138Y14661D1*
X33269Y14843D1*
X33421Y15008D1*
X33593Y15154D1*
X33781Y15277D1*
X33983Y15376D1*
X34195Y15450D1*
X34415Y15497D1*
X34639Y15516D1*
X34864Y15508D1*
X35086Y15473D1*
X35302Y15410D1*
X35509Y15322D1*
X35703Y15209D1*
X35882Y15073D1*
X36043Y14916D1*
X36183Y14740D1*
X36301Y14549D1*
X36395Y14344D1*
X36462Y14130D1*
X36503Y13908D1*
X36517Y13687D1*
Y13662D1*
X12995Y12683D2*
X12971Y12639D1*
X12891Y12543D1*
X12794Y12465D1*
X12683Y12407D1*
X12563Y12372D1*
X12439Y12362D1*
X12315Y12376D1*
X12196Y12415D1*
X12087Y12476D1*
X11993Y12557D1*
X11916Y12656D1*
X11860Y12767D1*
X11827Y12888D1*
X11819Y13012D1*
X11835Y13136D1*
X11875Y13254D1*
X11938Y13362D1*
X12021Y13455D1*
X12121Y13530D1*
X12233Y13584D1*
X12354Y13615D1*
X12479Y13622D1*
X12602Y13603D1*
X12720Y13561D1*
X12826Y13497D1*
X12918Y13412D1*
X12997Y13301D1*
X13035Y13355D1*
X13128Y13439D1*
X13236Y13500D1*
X13356Y13535D1*
X13481Y13541D1*
X13604Y13520D1*
X13719Y13472D1*
X13820Y13399D1*
X13902Y13305D1*
X13960Y13195D1*
X13980Y13135D1*
X14003Y13196D1*
X14068Y13301D1*
X14159Y13387D1*
X14268Y13448D1*
X14389Y13479D1*
X14513Y13478D1*
X14634Y13446D1*
X14742Y13385D1*
X14832Y13298D1*
X14897Y13192D1*
X14933Y13072D1*
X14939Y12992D1*
X14923Y12868D1*
X14877Y12753D1*
X14803Y12653D1*
X14705Y12574D1*
X14592Y12523D1*
X14469Y12502D1*
X14345Y12513D1*
X14227Y12555D1*
X14124Y12625D1*
X14042Y12719D1*
X13980Y12857D1*
X13954Y12773D1*
X13891Y12665D1*
X13807Y12574D1*
X13703Y12504D1*
X13587Y12459D1*
X13463Y12442D1*
X13339Y12453D1*
X13220Y12492D1*
X13113Y12556D1*
X13024Y12643D1*
X12996Y12679D1*
X38302Y6350D2*
X38263Y6232D1*
X38199Y6124D1*
X38115Y6032D1*
X38013Y5960D1*
X37898Y5911D1*
X37776Y5888D1*
X37651Y5891D1*
X37530Y5919D1*
X37417Y5973D1*
X37319Y6050D1*
X37238Y6145D1*
X37180Y6255D1*
X37146Y6375D1*
X37138Y6500D1*
X37157Y6623D1*
X37201Y6740D1*
X37269Y6845D1*
X37357Y6933D1*
X37462Y7000D1*
X37579Y7044D1*
X37702Y7063D1*
X37827Y7055D1*
X37946Y7020D1*
X38057Y6962D1*
X38152Y6881D1*
X38228Y6782D1*
X38282Y6670D1*
X38310Y6548D1*
X38315Y6474D1*
X38302Y6350D1*
X39286Y7374D2*
X39247Y7255D1*
X39184Y7148D1*
X39099Y7056D1*
X38997Y6984D1*
X38883Y6935D1*
X38760Y6911D1*
X38635Y6914D1*
X38514Y6943D1*
X38401Y6997D1*
X38303Y7073D1*
X38222Y7169D1*
X38164Y7279D1*
X38130Y7399D1*
X38122Y7524D1*
X38141Y7647D1*
X38185Y7764D1*
X38253Y7868D1*
X38341Y7957D1*
X38446Y8024D1*
X38563Y8068D1*
X38686Y8086D1*
X38811Y8078D1*
X38931Y8044D1*
X39041Y7985D1*
X39136Y7905D1*
X39212Y7806D1*
X39266Y7693D1*
X39295Y7572D1*
X39299Y7498D1*
X39286Y7374D1*
X40270Y6350D2*
X40231Y6232D1*
X40168Y6124D1*
X40084Y6032D1*
X39982Y5960D1*
X39867Y5911D1*
X39744Y5888D1*
X39620Y5891D1*
X39498Y5919D1*
X39386Y5973D1*
X39287Y6050D1*
X39207Y6145D1*
X39148Y6255D1*
X39114Y6375D1*
X39107Y6500D1*
X39125Y6623D1*
X39169Y6740D1*
X39237Y6845D1*
X39325Y6933D1*
X39430Y7000D1*
X39547Y7044D1*
X39671Y7063D1*
X39795Y7055D1*
X39915Y7020D1*
X40025Y6962D1*
X40120Y6881D1*
X40197Y6782D1*
X40250Y6670D1*
X40279Y6548D1*
X40283Y6474D1*
X40270Y6350D1*
X41327Y7473D2*
X41310Y7349D1*
X41270Y7231D1*
X41208Y7123D1*
X41127Y7028D1*
X41028Y6951D1*
X40917Y6895D1*
X40797Y6860D1*
X40673Y6849D1*
X40549Y6863D1*
X40430Y6899D1*
X40319Y6958D1*
X40223Y7037D1*
X40143Y7133D1*
X40083Y7242D1*
X40045Y7361D1*
X40030Y7485D1*
X40040Y7610D1*
X40073Y7730D1*
X40129Y7842D1*
X40205Y7941D1*
X40298Y8023D1*
X40406Y8086D1*
X40524Y8128D1*
X40647Y8146D1*
X40772Y8140D1*
X40893Y8110D1*
X41006Y8058D1*
X41107Y7985D1*
X41193Y7894D1*
X41259Y7788D1*
X41304Y7672D1*
X41326Y7549D1*
X41327Y7473D1*
X42311Y6449D2*
X42295Y6326D1*
X42254Y6208D1*
X42192Y6099D1*
X42111Y6005D1*
X42013Y5928D1*
X41901Y5871D1*
X41782Y5837D1*
X41657Y5826D1*
X41533Y5839D1*
X41414Y5876D1*
X41304Y5934D1*
X41207Y6013D1*
X41127Y6109D1*
X41067Y6219D1*
X41029Y6337D1*
X41015Y6461D1*
X41024Y6586D1*
X41057Y6706D1*
X41113Y6818D1*
X41189Y6917D1*
X41282Y7000D1*
X41390Y7063D1*
X41508Y7104D1*
X41631Y7122D1*
X41756Y7116D1*
X41877Y7087D1*
X41990Y7034D1*
X42092Y6961D1*
X42177Y6870D1*
X42243Y6765D1*
X42288Y6648D1*
X42310Y6525D1*
X42311Y6449D1*
X18883Y31384D2*
X18772Y31320D1*
X18652Y31285D1*
X18527Y31278D1*
X18405Y31301D1*
X18291Y31351D1*
X18238Y31391D1*
X18214Y31349D1*
X18133Y31253D1*
X18065Y31195D1*
X18188Y31069D1*
X18258Y30966D1*
X18312Y30853D1*
X18347Y30733D1*
X18364Y30567D1*
X18355Y30443D1*
X18327Y30325D1*
X18491Y30234D1*
X18560Y30166D1*
X18601Y30207D1*
X18702Y30280D1*
X18800Y30320D1*
X18773Y30422D1*
X18760Y30546D1*
X18766Y30671D1*
X18792Y30793D1*
X18836Y30910D1*
X18898Y31018D1*
X18976Y31116D1*
X19054Y31187D1*
X18923Y31327D1*
X18887Y31383D1*
X18242Y32237D2*
X18302Y32280D1*
X18418Y32327D1*
X18541Y32347D1*
X18665Y32337D1*
X18784Y32299D1*
X18881Y32240D1*
X18976Y32361D1*
X19068Y32445D1*
X19173Y32514D1*
X19286Y32566D1*
X19406Y32599D1*
X19530Y32614D1*
X19655Y32609D1*
X19778Y32585D1*
X19895Y32542D1*
X20004Y32482D1*
X20103Y32405D1*
X20188Y32314D1*
X20258Y32211D1*
X20312Y32098D1*
X20347Y31978D1*
X20364Y31812D1*
X20355Y31688D1*
X20326Y31566D1*
X20278Y31451D1*
X20214Y31344D1*
X20133Y31248D1*
X20065Y31190D1*
X20188Y31069D1*
X20258Y30966D1*
X20312Y30853D1*
X20347Y30733D1*
X20364Y30567D1*
X20355Y30443D1*
X20326Y30321D1*
X20278Y30206D1*
X20214Y30099D1*
X20133Y30003D1*
X20039Y29922D1*
X19933Y29855D1*
X19818Y29806D1*
X19697Y29776D1*
X19573Y29765D1*
X19499Y29769D1*
X19482Y29688D1*
X19440Y29571D1*
X19371Y29467D1*
X19280Y29382D1*
X19172Y29320D1*
X19052Y29285D1*
X18927Y29278D1*
X18805Y29301D1*
X18691Y29351D1*
X18591Y29426D1*
X18564Y29459D1*
X18480Y29382D1*
X18372Y29320D1*
X18263Y29288D1*
X18318Y29162D1*
X18331Y29062D1*
X18311Y28939D1*
X18254Y28828D1*
X18166Y28741D1*
X18054Y28686D1*
X17931Y28668D1*
X17808Y28690D1*
X17699Y28748D1*
X17631Y28819D1*
X14425Y28817D1*
X14411Y28751D1*
X14365Y28635D1*
X14291Y28535D1*
X14194Y28457D1*
X14080Y28406D1*
X13957Y28385D1*
X13833Y28395D1*
X13726Y28433D1*
X13812Y28346D1*
X13877Y28361D1*
X14001D1*
X14122Y28329D1*
X14230Y28267D1*
X14320Y28181D1*
X14385Y28074D1*
X14421Y27955D1*
X14427Y27875D1*
X14411Y27751D1*
X14365Y27635D1*
X14291Y27535D1*
X14194Y27457D1*
X14084Y27407D1*
X14207Y27354D1*
X14308Y27281D1*
X14390Y27187D1*
X14449Y27077D1*
X14481Y26957D1*
X14487Y26850D1*
X14467Y26726D1*
X14420Y26611D1*
X14348Y26509D1*
X14255Y26426D1*
X14146Y26365D1*
X14026Y26331D1*
X13901Y26325D1*
X13779Y26348D1*
X13664Y26397D1*
X13563Y26470D1*
X13482Y26565D1*
X13424Y26675D1*
X13392Y26796D1*
X13389Y26921D1*
X13413Y27043D1*
X13465Y27157D1*
X13540Y27256D1*
X13636Y27335D1*
X13748Y27391D1*
X13793Y27406D1*
X13715Y27437D1*
X13612Y27507D1*
X13530Y27601D1*
X13474Y27712D1*
X13448Y27834D1*
X13454Y27959D1*
X13467Y28000D1*
X13264Y28201D1*
X13201Y28312D1*
X13192Y28375D1*
Y29187D1*
X13226Y29311D1*
X13347Y29444D1*
X13389Y29485D1*
X13492Y29546D1*
X13429Y29517D1*
X13434Y29652D1*
X13396Y29771D1*
X13387Y29896D1*
X13406Y30019D1*
X13452Y30135D1*
X13523Y30237D1*
X13616Y30321D1*
X13725Y30382D1*
X13844Y30417D1*
X13969Y30424D1*
X14092Y30403D1*
X14207Y30354D1*
X14308Y30281D1*
X14390Y30187D1*
X14449Y30077D1*
X14481Y29957D1*
X14487Y29875D1*
X14473Y29751D1*
X14431Y29633D1*
X14383Y29557D1*
X17378D1*
X17468Y29640D1*
X17581Y29692D1*
X17639Y29698D1*
X17630Y29768D1*
X17448Y29773D1*
X17326Y29800D1*
X17210Y29846D1*
X17102Y29909D1*
X17006Y29989D1*
X16923Y30082D1*
X16855Y30187D1*
X16805Y30301D1*
X16773Y30422D1*
X16760Y30546D1*
X16766Y30671D1*
X16792Y30793D1*
X16836Y30910D1*
X16898Y31018D1*
X16976Y31116D1*
X17060Y31192D1*
X16923Y31332D1*
X16855Y31437D1*
X16805Y31551D1*
X16773Y31672D1*
X16760Y31796D1*
X16766Y31921D1*
X16792Y32043D1*
X16836Y32160D1*
X16898Y32268D1*
X16976Y32366D1*
X17068Y32450D1*
X17173Y32519D1*
X17286Y32571D1*
X17406Y32604D1*
X17530Y32619D1*
X17655Y32614D1*
X17778Y32590D1*
X17895Y32547D1*
X18004Y32487D1*
X18103Y32410D1*
X18188Y32319D1*
X18243Y32238D1*
X22769Y42756D2*
X23782Y42752D1*
X23884Y42816D1*
X24000Y42863D1*
X24122Y42890D1*
X24246Y42895D1*
X24370Y42878D1*
X24489Y42840D1*
X24599Y42781D1*
X24710Y42690D1*
X24779Y42748D1*
X24884Y42816D1*
X25000Y42863D1*
X25122Y42890D1*
X25246Y42895D1*
X25370Y42878D1*
X25489Y42840D1*
X25599Y42781D1*
X25697Y42704D1*
X25791Y42595D1*
X25792Y42917D1*
X22582D1*
Y34792D1*
X22521Y34687D1*
X22457Y34667D1*
X4332Y34688D1*
X4327Y32192D1*
X11437D1*
X11557Y32162D1*
X11649Y32079D1*
X11690Y31959D1*
Y29437D1*
X11685Y22495D1*
X11768Y22401D1*
X11818Y22287D1*
X11831Y22187D1*
X11811Y22064D1*
X11754Y21953D1*
X11685Y21885D1*
X11677Y11120D1*
X11797Y11180D1*
X11864Y11204D1*
X11987Y11222D1*
X35866Y11220D1*
X36001Y11196D1*
X36139Y11132D1*
X36256Y11037D1*
X36345Y10915D1*
X36401Y10774D1*
X36419Y10649D1*
X36401Y8536D1*
X36860Y8533D1*
X36983Y8515D1*
X37096Y8462D1*
X37188Y8378D1*
X37252Y8272D1*
X37283Y8147D1*
X37285Y7282D1*
X37267Y7158D1*
X37214Y7046D1*
X37130Y6953D1*
X37023Y6889D1*
X36899Y6859D1*
X36387Y6857D1*
X36367Y4333D1*
X40742Y4302D1*
X44097Y4280D1*
X44095Y5280D1*
X44147Y34666D1*
X25917Y34667D1*
X25920Y34673D1*
X25865Y34678D1*
X25793Y34774D1*
X25792Y41780D1*
X25753Y41727D1*
X25664Y41640D1*
X25561Y41569D1*
X25447Y41518D1*
X25326Y41487D1*
X25201Y41478D1*
X25077Y41491D1*
X24957Y41526D1*
X24845Y41581D1*
X24715Y41686D1*
X24561Y41569D1*
X24447Y41518D1*
X24326Y41487D1*
X24201Y41478D1*
X24077Y41491D1*
X23957Y41526D1*
X23845Y41581D1*
X23779Y41629D1*
X23782Y41618D1*
X22644D1*
Y42756D1*
X22769D1*
X42654Y8533D2*
X43317D1*
X43440Y8515D1*
X43553Y8462D1*
X43645Y8378D1*
X43709Y8272D1*
X43739Y8147D1*
X43742Y7282D1*
X43723Y7158D1*
X43670Y7046D1*
X43587Y6953D1*
X43480Y6889D1*
X43355Y6859D1*
X42529Y6857D1*
X42406Y6875D1*
X42293Y6928D1*
X42201Y7012D1*
X42137Y7118D1*
X42107Y7243D1*
X42104Y8108D1*
X42123Y8231D1*
X42176Y8344D1*
X42259Y8436D1*
X42366Y8501D1*
X42491Y8531D1*
X42654Y8533D1*
X16844Y15572D2*
X22930D1*
X23031Y15617D1*
X23155Y15631D1*
X23277Y15605D1*
X23385Y15543D1*
X23468Y15451D1*
X23518Y15337D1*
X23531Y15237D1*
X23511Y15114D1*
X23454Y15003D1*
X23366Y14916D1*
X23254Y14861D1*
X23131Y14843D1*
X23008Y14865D1*
X22936Y14903D1*
X16844Y14902D1*
X16754Y14861D1*
X16631Y14843D1*
X16508Y14865D1*
X16399Y14923D1*
X16313Y15013D1*
X16259Y15126D1*
X16243Y15249D1*
X16267Y15371D1*
X16327Y15480D1*
X16418Y15565D1*
X16531Y15617D1*
X16655Y15631D1*
X16777Y15605D1*
X16834Y15572D1*
X13020Y22772D2*
X14418D1*
X14519Y22817D1*
X14643Y22831D1*
X14764Y22805D1*
X14872Y22743D1*
X14956Y22651D1*
X15006Y22537D1*
X15019Y22437D1*
X14999Y22314D1*
X14942Y22203D1*
X14853Y22116D1*
X14742Y22061D1*
X14618Y22043D1*
X14496Y22065D1*
X14424Y22103D1*
X13019Y22102D1*
X12930Y22061D1*
X12807Y22043D1*
X12684Y22065D1*
X12575Y22123D1*
X12489Y22213D1*
X12435Y22326D1*
X12419Y22449D1*
X12443Y22571D1*
X12503Y22680D1*
X12594Y22765D1*
X12707Y22817D1*
X12831Y22831D1*
X12953Y22805D1*
X13010Y22772D1*
X14227Y23812D2*
Y24230D1*
X14184Y24326D1*
X14168Y24449D1*
X14192Y24571D1*
X14252Y24680D1*
X14343Y24765D1*
X14456Y24817D1*
X14580Y24831D1*
X14702Y24805D1*
X14810Y24743D1*
X14893Y24651D1*
X14943Y24537D1*
X14956Y24437D1*
X14936Y24314D1*
X14895Y24235D1*
X14897Y23972D1*
X14956Y23901D1*
X15006Y23787D1*
X15019Y23687D1*
X14999Y23564D1*
X14942Y23453D1*
X14853Y23366D1*
X14742Y23311D1*
X14618Y23293D1*
X14496Y23315D1*
X14386Y23373D1*
X14300Y23463D1*
X14234Y23620D1*
X14227Y23812D1*
X14423Y22773D2*
X14519Y22817D1*
X14643Y22831D1*
X14764Y22805D1*
X14872Y22743D1*
X14956Y22651D1*
X15006Y22537D1*
X15019Y22437D1*
X14999Y22314D1*
X14942Y22203D1*
X14853Y22116D1*
X14742Y22061D1*
X14618Y22043D1*
X14496Y22065D1*
X14424Y22103D1*
X18730Y23352D2*
X16832D1*
X16742Y23311D1*
X16618Y23293D1*
X16496Y23315D1*
X16386Y23373D1*
X16300Y23463D1*
X16247Y23576D1*
X16231Y23699D1*
X16254Y23821D1*
X16314Y23930D1*
X16406Y24015D1*
X16519Y24067D1*
X16643Y24081D1*
X16764Y24055D1*
X16822Y24022D1*
X18730D1*
X18831Y24067D1*
X18955Y24081D1*
X19077Y24055D1*
X19185Y23993D1*
X19268Y23901D1*
X19318Y23787D1*
X19331Y23687D1*
X19311Y23564D1*
X19254Y23453D1*
X19166Y23366D1*
X19054Y23311D1*
X18931Y23293D1*
X18808Y23315D1*
X18736Y23353D1*
X22936Y15573D2*
X23031Y15617D1*
X23155Y15631D1*
X23277Y15605D1*
X23385Y15543D1*
X23468Y15451D1*
X23518Y15337D1*
X23531Y15237D1*
X23511Y15114D1*
X23454Y15003D1*
X23366Y14916D1*
X23254Y14861D1*
X23131Y14843D1*
X23008Y14865D1*
X22936Y14903D1*
X19628Y26492D2*
X18449D1*
X18366Y26416D1*
X18254Y26361D1*
X18131Y26343D1*
X18008Y26365D1*
X17899Y26423D1*
X17813Y26513D1*
X17759Y26626D1*
X17743Y26749D1*
X17767Y26871D1*
X17827Y26980D1*
X17918Y27065D1*
X18031Y27117D1*
X18155Y27131D1*
X18277Y27105D1*
X18385Y27043D1*
X18439Y26983D1*
X19625Y26982D1*
X19718Y27065D1*
X19831Y27117D1*
X19955Y27131D1*
X20077Y27105D1*
X20185Y27043D1*
X20268Y26951D1*
X20318Y26837D1*
X20331Y26737D1*
X20311Y26614D1*
X20254Y26503D1*
X20166Y26416D1*
X20054Y26361D1*
X19931Y26343D1*
X19808Y26365D1*
X19699Y26423D1*
X19631Y26494D1*
X21287Y26597D2*
Y29527D1*
X21238Y29588D1*
X21184Y29701D1*
X21168Y29824D1*
X21192Y29946D1*
X21252Y30055D1*
X21343Y30140D1*
X21456Y30192D1*
X21580Y30206D1*
X21702Y30180D1*
X21810Y30118D1*
X21893Y30026D1*
X21943Y29912D1*
X21956Y29812D1*
X21936Y29689D1*
X21879Y29578D1*
X21838Y29538D1*
X21837Y26597D1*
X21893Y26526D1*
X21943Y26412D1*
X21956Y26312D1*
X21936Y26189D1*
X21866Y26065D1*
X21893Y26026D1*
X21943Y25912D1*
X21956Y25812D1*
X21936Y25689D1*
X21879Y25578D1*
X21838Y25538D1*
X21837Y24550D1*
X22058Y24330D1*
X22202Y24305D1*
X22310Y24243D1*
X22393Y24151D1*
X22443Y24037D1*
X22456Y23937D1*
X22436Y23814D1*
X22379Y23703D1*
X22291Y23616D1*
X22179Y23561D1*
X22056Y23543D1*
X21933Y23565D1*
X21824Y23623D1*
X21738Y23713D1*
X21684Y23826D1*
X21670Y23937D1*
X21368Y24243D1*
X21302Y24352D1*
X21287Y24437D1*
Y25527D1*
X21238Y25588D1*
X21184Y25701D1*
X21168Y25824D1*
X21192Y25946D1*
X21260Y26063D1*
X21238Y26088D1*
X21184Y26201D1*
X21168Y26324D1*
X21192Y26446D1*
X21252Y26555D1*
X21289Y26590D1*
X33393Y14981D2*
D25*
X35981Y12393D1*
Y14981D2*
X33393Y12393D1*
X13060Y13381D2*
X13838Y12603D1*
Y13381D2*
X13060Y12603D1*
X40221Y7956D2*
X41137Y7040D1*
Y7956D2*
X40221Y7040D1*
X41205Y6933D2*
X42122Y6016D1*
Y6933D2*
X41205Y6016D1*
X13548Y27263D2*
X14326Y26486D1*
Y27263D2*
X13548Y26486D1*
G36*
X8782Y9552D2*
X8541D1*
X8370Y9722D1*
Y9963D1*
X8541Y10134D1*
X8782D1*
X8952Y9963D1*
Y9722D1*
X8782Y9552D1*
G37*
D33*
X7677Y9843D3*
Y9055D3*
X8661D3*
D34*
X5799Y7988D3*
X10539D3*
D35*
X30312Y13687D3*
X34687D3*
D39*
X23213Y33937D3*
D40*
X24213D3*
X25213D3*
D45*
X9449Y12992D3*
D46*
X10449D3*
X12449D3*
X13449D3*
X14449D3*
D47*
X37726Y6474D3*
X38710Y7498D3*
X39695Y6474D3*
X40679Y7498D3*
X41663Y6474D3*
D46*
X5937Y29875D3*
Y28875D3*
Y27875D3*
Y26875D3*
X13937D3*
Y27875D3*
Y28875D3*
Y29875D3*
D39*
X23213Y42187D3*
D40*
X24213D3*
X25213D3*
M02*
