G04 DipTrace 2.3.1.0*
%INreloadpro.back.gbl*%
%MOIN*%
%ADD14C,0.016*%
%ADD15C,0.01*%
%ADD17C,0.014*%
%ADD19C,0.0394*%
%ADD20C,0.08*%
%ADD21C,0.1*%
%ADD23C,0.025*%
%ADD24C,0.013*%
%ADD32C,0.063*%
%ADD33C,0.1299*%
%ADD34C,0.315*%
%ADD38R,0.0748X0.0748*%
%ADD39C,0.0748*%
%ADD44R,0.0591X0.0591*%
%ADD45C,0.0591*%
%ADD46C,0.0787*%
%ADD52C,0.0236*%
%FSLAX44Y44*%
G04*
G70*
G90*
G75*
G01*
%LNBottom*%
%LPD*%
X24327Y10187D2*
D14*
Y11797D1*
X24312Y11812D1*
X6437Y20425D2*
D17*
Y19812D1*
X6812Y19437D1*
X7687D1*
D14*
Y22062D1*
X8062Y22437D1*
X8937D1*
X18437Y17562D2*
D15*
X16687D1*
X27062Y10937D2*
Y12812D1*
X25937Y13937D1*
X18937Y23687D2*
X16062D1*
X6562Y19312D2*
X6687Y19187D1*
X9437D1*
X9687Y19437D1*
Y21062D1*
X10312Y21687D1*
Y26812D1*
X12375Y28875D1*
X13937D1*
X9937Y20937D2*
X10312D1*
X10562Y21187D1*
Y26687D1*
X11687Y27812D1*
X13875D1*
X13937Y27875D1*
X34687Y16687D2*
D20*
Y15687D1*
D21*
Y17187D1*
Y22437D1*
X24213Y32911D1*
Y33937D1*
X33687Y19187D2*
D14*
Y17187D1*
X34687D1*
X19937Y26737D2*
D15*
X18137D1*
X13449Y12992D2*
D14*
X13382D1*
X12937Y13437D1*
Y18687D1*
X39062Y15687D2*
Y14687D1*
Y14187D1*
X39937D1*
Y13149D1*
Y9687D1*
X25812D1*
X15437D1*
X14937Y10187D1*
Y11437D1*
X13937Y12437D1*
X14004D1*
X13449Y12992D1*
X20062Y21812D2*
Y18437D1*
X18812Y17187D1*
X18437D1*
X17644D1*
X16187Y15730D1*
X13449Y12992D1*
X21437Y24062D2*
D15*
Y19937D1*
Y19812D1*
X20062Y18437D1*
X39062Y14687D2*
D14*
D3*
X25687Y24937D2*
D15*
Y23312D1*
X22312Y19937D1*
X21437D1*
X41663Y6474D2*
Y6514D1*
X40679Y7498D1*
Y12407D1*
X39937Y13149D1*
X25812Y11062D2*
Y9687D1*
X26062Y14562D2*
X18437D1*
Y17187D1*
X25312Y25812D2*
Y25312D1*
X25687Y24937D1*
X26812Y27312D2*
Y24437D1*
X25687Y23312D1*
X25187Y28187D2*
Y25937D1*
X25312Y25812D1*
X25187Y29937D2*
Y28187D1*
X18562Y29937D2*
Y28250D1*
X18312Y28000D1*
X18250D1*
X14937Y24687D1*
Y15730D1*
X16187D1*
X25687Y21687D2*
D14*
Y19937D1*
X22312D1*
X18437Y13562D2*
D15*
Y16687D1*
D14*
Y17187D1*
X23062Y28687D2*
Y26187D1*
X21562Y25812D2*
Y24437D1*
X22062Y23937D1*
X8687Y22062D2*
D15*
Y21437D1*
X13937Y29875D2*
X13000D1*
X10062Y26937D1*
Y21812D1*
X9312Y21062D1*
Y20562D1*
X16312Y21187D2*
X15812D1*
X16562Y21687D2*
X15812D1*
X7187Y19812D2*
D17*
Y22187D1*
X6937Y22437D1*
X6312D1*
X5187Y24062D2*
D14*
Y23562D1*
X6312Y22437D1*
X10449Y12992D2*
Y15675D1*
X7437Y18687D1*
X13937Y26875D2*
X11125D1*
X10812Y26562D1*
Y16085D1*
X10449Y15722D1*
Y15675D1*
D52*
X24312Y11812D3*
X24327Y10187D3*
X24312Y11812D3*
D3*
X6437Y20425D3*
X7687Y19437D3*
X8937Y22437D3*
X18437Y17562D3*
X16687D3*
X27062Y10937D3*
X25937Y13937D3*
X18937Y23687D3*
X16062D3*
D3*
X6562Y19312D3*
X9937Y20937D3*
X33687Y19187D3*
X19937Y26737D3*
X18137D3*
X12937Y18687D3*
X20062Y21812D3*
X21437Y24062D3*
X25687Y24937D3*
X25812Y11062D3*
X26062Y14562D3*
X25312Y25812D3*
X25687Y24937D3*
X26812Y27312D3*
X25187Y28187D3*
X25312Y25812D3*
X25187Y29937D3*
Y28187D3*
X18562Y29937D3*
X25687Y21687D3*
X18437Y13562D3*
X23062Y28687D3*
Y26187D3*
X21562Y25812D3*
X22062Y23937D3*
X8687Y22062D3*
Y21437D3*
X9312Y20562D3*
X16312Y21187D3*
X15812D3*
X16562Y21687D3*
X15812D3*
X7187Y19812D3*
X6312Y22437D3*
X5187Y24062D3*
X7437Y18687D3*
D19*
X34687Y16687D3*
Y14687D3*
X35687Y15687D3*
X33687D3*
X33937Y16437D3*
X35437D3*
Y14937D3*
X33937D3*
X39062Y16687D3*
Y14687D3*
X38062Y15687D3*
X40062D3*
X39812Y16437D3*
X38312Y14937D3*
Y16437D3*
X39812Y14937D3*
X30312Y16687D3*
Y14687D3*
X31312Y15687D3*
X29312D3*
X29562Y16437D3*
X31062D3*
Y14937D3*
X29562D3*
X4337Y34313D2*
D23*
X13937D1*
X4337Y34065D2*
X13937D1*
X4337Y33816D2*
X13937D1*
X4337Y33567D2*
X13937D1*
X4337Y33319D2*
X13937D1*
X4337Y33070D2*
X13937D1*
X4337Y32821D2*
X13937D1*
X4337Y32573D2*
X13937D1*
X4337Y32324D2*
X13937D1*
X4337Y32075D2*
X13937D1*
X4337Y31826D2*
X13937D1*
X4337Y31578D2*
X13937D1*
X4337Y31329D2*
X13937D1*
X4337Y31080D2*
X13937D1*
X4337Y30832D2*
X13937D1*
X4337Y30583D2*
X13937D1*
X4337Y30334D2*
X5609D1*
X6265D2*
X13742D1*
X4337Y30086D2*
X5402D1*
X6472D2*
X12851D1*
X4337Y29837D2*
X5363D1*
X6511D2*
X12590D1*
X4337Y29588D2*
X5441D1*
X6433D2*
X12344D1*
X4337Y29340D2*
X5617D1*
X6257D2*
X12094D1*
X4337Y29091D2*
X5406D1*
X6468D2*
X11844D1*
X4337Y28842D2*
X5363D1*
X6511D2*
X11598D1*
X4337Y28594D2*
X5437D1*
X6437D2*
X11348D1*
X4337Y28345D2*
X5762D1*
X6112D2*
X11098D1*
X4337Y28096D2*
X5476D1*
X6398D2*
X10851D1*
X4337Y27847D2*
X5422D1*
X6452D2*
X10601D1*
X4337Y27599D2*
X5508D1*
X6366D2*
X10351D1*
X4337Y27350D2*
X5793D1*
X6083D2*
X10105D1*
X4337Y27101D2*
X5476D1*
X6398D2*
X9855D1*
X4337Y26853D2*
X5422D1*
X6452D2*
X9793D1*
X4337Y26604D2*
X5504D1*
X6370D2*
X9793D1*
X4337Y26355D2*
X9793D1*
X4337Y26107D2*
X9793D1*
X4337Y25858D2*
X9793D1*
X4337Y25609D2*
X9793D1*
X4337Y25361D2*
X9793D1*
X4337Y25112D2*
X9793D1*
X4337Y24863D2*
X9793D1*
X4337Y24615D2*
X9793D1*
X4337Y24366D2*
X4910D1*
X5464D2*
X9793D1*
X4337Y24117D2*
X4773D1*
X5601D2*
X9793D1*
X4337Y23868D2*
X4820D1*
X5554D2*
X9793D1*
X4337Y23620D2*
X4828D1*
X5628D2*
X9793D1*
X4337Y23371D2*
X4887D1*
X5878D2*
X9793D1*
X4337Y23122D2*
X5129D1*
X6124D2*
X9793D1*
X4337Y22874D2*
X5375D1*
X6374D2*
X9793D1*
X4337Y22625D2*
X5625D1*
X7233D2*
X7750D1*
X9308D2*
X9793D1*
X4337Y22376D2*
X5875D1*
X9351D2*
X9793D1*
X4337Y22128D2*
X6043D1*
X9206D2*
X9793D1*
X4337Y21879D2*
X6836D1*
X8046D2*
X8312D1*
X9062D2*
X9758D1*
X4337Y21630D2*
X6836D1*
X8046D2*
X8320D1*
X9054D2*
X9508D1*
X4337Y21382D2*
X6836D1*
X8046D2*
X8273D1*
X9101D2*
X9261D1*
X4337Y21133D2*
X6836D1*
X8046D2*
X8410D1*
X4337Y20884D2*
X6836D1*
X8046D2*
X9043D1*
X10632D2*
X10812D1*
X4337Y20635D2*
X6078D1*
X8046D2*
X8898D1*
X10214D2*
X10812D1*
X4337Y20387D2*
X6019D1*
X8046D2*
X8933D1*
X9956D2*
X10812D1*
X4337Y20138D2*
X6086D1*
X8046D2*
X9418D1*
X9956D2*
X10812D1*
X4337Y19889D2*
X6086D1*
X8046D2*
X9418D1*
X9956D2*
X10812D1*
X4337Y19641D2*
X6137D1*
X8050D2*
X9418D1*
X9956D2*
X10812D1*
X4337Y19392D2*
X6152D1*
X9952D2*
X10812D1*
X4337Y19143D2*
X6180D1*
X9765D2*
X10812D1*
X4337Y18895D2*
X10812D1*
X4337Y18646D2*
X10812D1*
X4337Y18397D2*
X10812D1*
X4337Y18149D2*
X10812D1*
X4337Y17900D2*
X10812D1*
X4337Y17651D2*
X10812D1*
X4337Y17403D2*
X10812D1*
X4337Y17154D2*
X10812D1*
X4337Y16905D2*
X10812D1*
X4337Y16656D2*
X10812D1*
X4337Y16408D2*
X10812D1*
X4337Y16159D2*
X10812D1*
X4337Y15910D2*
X10812D1*
X4337Y15662D2*
X10812D1*
X4337Y15413D2*
X10812D1*
X4337Y15164D2*
X10812D1*
X4337Y14916D2*
X10812D1*
X4337Y14667D2*
X10812D1*
X4337Y14418D2*
X10812D1*
X4337Y14170D2*
X10812D1*
X4337Y13921D2*
X10812D1*
X4337Y13672D2*
X10812D1*
X4337Y13424D2*
X8933D1*
X4337Y13175D2*
X8933D1*
X4337Y12926D2*
X8933D1*
X4337Y12677D2*
X8933D1*
X4337Y12429D2*
X10812D1*
X4337Y12180D2*
X10812D1*
X4337Y11931D2*
X10812D1*
X4337Y11683D2*
X10812D1*
X4337Y11434D2*
X10812D1*
X4337Y11185D2*
X10812D1*
X4337Y10937D2*
X10812D1*
X4337Y10688D2*
X10812D1*
X4337Y10439D2*
X10812D1*
X4337Y10191D2*
X7281D1*
X8073D2*
X8211D1*
X9108D2*
X10812D1*
X4337Y9942D2*
X7152D1*
X9233D2*
X10812D1*
X4337Y9693D2*
X7164D1*
X9230D2*
X10812D1*
X4337Y9445D2*
X7324D1*
X9101D2*
X10812D1*
X4337Y9196D2*
X7164D1*
X9237D2*
X10812D1*
X4337Y8947D2*
X7152D1*
X9245D2*
X10812D1*
X4337Y8698D2*
X5316D1*
X6280D2*
X7289D1*
X8066D2*
X8191D1*
X9132D2*
X10058D1*
X4337Y8450D2*
X5066D1*
X6530D2*
X9808D1*
X4337Y8201D2*
X4957D1*
X6640D2*
X9699D1*
X4337Y7952D2*
X4930D1*
X6667D2*
X9672D1*
X4337Y7704D2*
X4980D1*
X6620D2*
X9719D1*
X4337Y7455D2*
X5121D1*
X6480D2*
X9859D1*
X4337Y7206D2*
X5457D1*
X6144D2*
X10195D1*
X4337Y6958D2*
X10840D1*
X4337Y6709D2*
X11269D1*
X4337Y6460D2*
X11269D1*
X4337Y6212D2*
X11269D1*
X4337Y5963D2*
X11269D1*
X4337Y5714D2*
X11269D1*
X4337Y5466D2*
X11269D1*
X4337Y5217D2*
X11269D1*
X4337Y4968D2*
X11269D1*
X4337Y4719D2*
X11269D1*
X4337Y4471D2*
X11269D1*
X8279Y10232D2*
X8361Y10314D1*
X8490Y10383D1*
X8782Y10389D1*
X8923Y10346D1*
X9133Y10143D1*
X9202Y10014D1*
X9207Y9722D1*
X9165Y9581D1*
X9058Y9464D1*
X9138Y9368D1*
X9194Y9257D1*
X9226Y9136D1*
X9229Y9005D1*
X9205Y8883D1*
X9154Y8769D1*
X9080Y8668D1*
X8986Y8587D1*
X8876Y8527D1*
X8756Y8493D1*
X8632Y8486D1*
X8509Y8506D1*
X8393Y8552D1*
X8290Y8623D1*
X8205Y8714D1*
X8141Y8822D1*
X8136Y8834D1*
X8055Y8713D1*
X7961Y8631D1*
X7850Y8575D1*
X7728Y8548D1*
X7603Y8551D1*
X7483Y8583D1*
X7375Y8645D1*
X7284Y8730D1*
X7217Y8835D1*
X7177Y8954D1*
X7168Y9078D1*
X7189Y9201D1*
X7239Y9315D1*
X7315Y9414D1*
X7355Y9445D1*
X7284Y9518D1*
X7217Y9623D1*
X7177Y9741D1*
X7168Y9865D1*
X7189Y9988D1*
X7239Y10103D1*
X7315Y10201D1*
X7413Y10278D1*
X7526Y10330D1*
X7649Y10352D1*
X7773Y10343D1*
X7892Y10305D1*
X7998Y10239D1*
X8085Y10149D1*
X8137Y10058D1*
X8158Y10104D1*
X8279Y10232D1*
X6635Y7864D2*
X6607Y7742D1*
X6562Y7625D1*
X6500Y7517D1*
X6423Y7419D1*
X6332Y7333D1*
X6230Y7262D1*
X6118Y7206D1*
X5999Y7168D1*
X5876Y7147D1*
X5751Y7145D1*
X5627Y7161D1*
X5507Y7196D1*
X5393Y7247D1*
X5289Y7315D1*
X5195Y7398D1*
X5115Y7494D1*
X5049Y7600D1*
X5000Y7715D1*
X4969Y7836D1*
X4955Y7960D1*
X4960Y8085D1*
X4984Y8207D1*
X5025Y8325D1*
X5083Y8436D1*
X5157Y8536D1*
X5245Y8625D1*
X5345Y8700D1*
X5454Y8759D1*
X5572Y8802D1*
X5694Y8826D1*
X5819Y8833D1*
X5943Y8820D1*
X6065Y8790D1*
X6180Y8742D1*
X6287Y8678D1*
X6383Y8598D1*
X6467Y8506D1*
X6536Y8401D1*
X6589Y8288D1*
X6624Y8169D1*
X6644Y7988D1*
X6635Y7864D1*
X6473Y29751D2*
X6431Y29633D1*
X6364Y29528D1*
X6275Y29441D1*
X6165Y29374D1*
X6308Y29281D1*
X6390Y29187D1*
X6449Y29077D1*
X6481Y28957D1*
X6487Y28875D1*
X6473Y28751D1*
X6431Y28633D1*
X6364Y28528D1*
X6275Y28441D1*
X6169Y28375D1*
X6076Y28345D1*
X6230Y28267D1*
X6320Y28181D1*
X6385Y28074D1*
X6421Y27955D1*
X6427Y27875D1*
X6411Y27751D1*
X6365Y27635D1*
X6291Y27535D1*
X6194Y27457D1*
X6080Y27406D1*
X5957Y27385D1*
X5833Y27395D1*
X5715Y27437D1*
X5612Y27507D1*
X5530Y27601D1*
X5474Y27712D1*
X5448Y27834D1*
X5454Y27959D1*
X5491Y28078D1*
X5557Y28184D1*
X5647Y28270D1*
X5756Y28330D1*
X5798Y28341D1*
X5686Y28385D1*
X5582Y28454D1*
X5497Y28545D1*
X5434Y28652D1*
X5396Y28771D1*
X5387Y28896D1*
X5406Y29019D1*
X5452Y29135D1*
X5523Y29237D1*
X5616Y29321D1*
X5708Y29373D1*
X5582Y29454D1*
X5497Y29545D1*
X5434Y29652D1*
X5396Y29771D1*
X5387Y29896D1*
X5406Y30019D1*
X5452Y30135D1*
X5523Y30237D1*
X5616Y30321D1*
X5725Y30382D1*
X5844Y30417D1*
X5969Y30424D1*
X6092Y30403D1*
X6207Y30354D1*
X6308Y30281D1*
X6390Y30187D1*
X6449Y30077D1*
X6481Y29957D1*
X6487Y29875D1*
X6473Y29751D1*
X6411Y26751D2*
X6365Y26635D1*
X6291Y26535D1*
X6194Y26457D1*
X6080Y26406D1*
X5957Y26385D1*
X5833Y26395D1*
X5715Y26437D1*
X5612Y26507D1*
X5530Y26601D1*
X5474Y26712D1*
X5448Y26834D1*
X5454Y26959D1*
X5491Y27078D1*
X5557Y27184D1*
X5647Y27270D1*
X5756Y27330D1*
X5877Y27361D1*
X6001D1*
X6122Y27329D1*
X6230Y27267D1*
X6320Y27181D1*
X6385Y27074D1*
X6421Y26955D1*
X6427Y26875D1*
X6411Y26751D1*
X8022Y21925D2*
X8023Y19640D1*
X8068Y19537D1*
X8080Y19433D1*
X9339Y19432D1*
X9443Y19539D1*
X9442Y20191D1*
X9306Y20168D1*
X9183Y20190D1*
X9074Y20248D1*
X8988Y20338D1*
X8934Y20451D1*
X8918Y20574D1*
X8942Y20696D1*
X9002Y20805D1*
X9068Y20866D1*
X9067Y21062D1*
X9101Y21184D1*
X9139Y21235D1*
X9815Y21912D1*
X9817Y26937D1*
X9851Y27059D1*
X9889Y27110D1*
X12826Y30048D1*
X12937Y30110D1*
X13000Y30120D1*
X13518Y30121D1*
X13557Y30184D1*
X13647Y30270D1*
X13756Y30330D1*
X13877Y30361D1*
X13959D1*
X13962Y31187D1*
Y34566D1*
X13687Y34562D1*
X4312D1*
Y4312D1*
X11292D1*
X11295Y6855D1*
X11082Y6838D1*
X10961Y6861D1*
X10870Y6944D1*
X10837Y7062D1*
X10839Y7200D1*
X10739Y7168D1*
X10616Y7147D1*
X10491Y7145D1*
X10367Y7161D1*
X10247Y7196D1*
X10134Y7247D1*
X10029Y7315D1*
X9935Y7398D1*
X9855Y7494D1*
X9789Y7600D1*
X9740Y7715D1*
X9709Y7836D1*
X9695Y7960D1*
X9700Y8085D1*
X9724Y8207D1*
X9765Y8325D1*
X9823Y8436D1*
X9897Y8536D1*
X9985Y8625D1*
X10085Y8700D1*
X10195Y8759D1*
X10312Y8802D1*
X10435Y8826D1*
X10559Y8833D1*
X10684Y8820D1*
X10837Y8777D1*
Y12605D1*
X10767Y12543D1*
X10658Y12483D1*
X10538Y12449D1*
X10413Y12443D1*
X10290Y12465D1*
X10176Y12514D1*
X10075Y12588D1*
X9994Y12683D1*
X9939Y12785D1*
Y12502D1*
X8959D1*
Y13482D1*
X9939D1*
X9942Y13207D1*
X10004Y13316D1*
X10088Y13408D1*
X10191Y13478D1*
X10307Y13524D1*
X10431Y13542D1*
X10555Y13532D1*
X10674Y13494D1*
X10781Y13431D1*
X10837Y13382D1*
Y26613D1*
X10807Y26562D1*
Y21187D1*
X10773Y21065D1*
X10735Y21014D1*
X10485Y20764D1*
X10375Y20701D1*
X10312Y20692D1*
X10246D1*
X10166Y20616D1*
X10054Y20561D1*
X9935Y20544D1*
X9932Y19437D1*
X9898Y19315D1*
X9860Y19264D1*
X9610Y19014D1*
X9500Y18951D1*
X9437Y18942D1*
X6679Y18936D1*
X6556Y18918D1*
X6433Y18940D1*
X6324Y18998D1*
X6238Y19088D1*
X6184Y19201D1*
X6168Y19324D1*
X6192Y19446D1*
X6246Y19545D1*
X6207Y19582D1*
X6138Y19685D1*
X6112Y19812D1*
Y20199D1*
X6059Y20314D1*
X6043Y20437D1*
X6067Y20559D1*
X6127Y20668D1*
X6218Y20753D1*
X6331Y20805D1*
X6455Y20819D1*
X6577Y20794D1*
X6685Y20732D1*
X6768Y20639D1*
X6818Y20525D1*
X6831Y20425D1*
X6811Y20302D1*
X6763Y20209D1*
X6762Y19945D1*
X6817Y19946D1*
X6864Y20031D1*
X6862Y22050D1*
X6687Y22112D1*
X6535D1*
X6429Y22061D1*
X6306Y22043D1*
X6183Y22065D1*
X6074Y22123D1*
X5988Y22213D1*
X5932Y22345D1*
X4950Y23325D1*
X4880Y23428D1*
X4852Y23562D1*
Y23855D1*
X4809Y23951D1*
X4793Y24074D1*
X4817Y24196D1*
X4877Y24305D1*
X4968Y24390D1*
X5081Y24442D1*
X5205Y24456D1*
X5327Y24430D1*
X5435Y24368D1*
X5518Y24276D1*
X5568Y24162D1*
X5581Y24062D1*
X5561Y23939D1*
X5520Y23860D1*
X5522Y23699D1*
X6404Y22818D1*
X6452Y22805D1*
X6530Y22761D1*
X6937Y22762D1*
X7059Y22738D1*
X7167Y22667D1*
X7419Y22414D1*
X7539Y22387D1*
X7825Y22674D1*
X7928Y22744D1*
X8062Y22772D1*
X8730D1*
X8831Y22817D1*
X8955Y22831D1*
X9077Y22805D1*
X9185Y22743D1*
X9268Y22651D1*
X9318Y22537D1*
X9331Y22437D1*
X9311Y22314D1*
X9254Y22203D1*
X9166Y22116D1*
X9079Y22073D1*
X9061Y21939D1*
X9004Y21828D1*
X8930Y21755D1*
X9018Y21651D1*
X9068Y21537D1*
X9081Y21437D1*
X9061Y21314D1*
X9004Y21203D1*
X8916Y21116D1*
X8804Y21061D1*
X8681Y21043D1*
X8558Y21065D1*
X8449Y21123D1*
X8363Y21213D1*
X8309Y21326D1*
X8293Y21449D1*
X8317Y21571D1*
X8377Y21680D1*
X8443Y21741D1*
X8363Y21838D1*
X8309Y21951D1*
X8293Y22074D1*
X8298Y22101D1*
X8202Y22103D1*
X8020Y21921D1*
X8661Y9055D2*
D24*
X9064Y8652D1*
Y9458D2*
X8259Y8652D1*
X10060Y13381D2*
X10838Y12603D1*
Y13381D2*
X10060Y12603D1*
X15562Y34452D2*
D23*
X22618D1*
X25726D2*
X43989D1*
X15562Y34204D2*
X22618D1*
X25894D2*
X43989D1*
X15562Y33955D2*
X22618D1*
X25945D2*
X43989D1*
X15562Y33706D2*
X22618D1*
X25906D2*
X43989D1*
X15562Y33457D2*
X22618D1*
X25762D2*
X43989D1*
X15562Y33209D2*
X23352D1*
X25121D2*
X43989D1*
X15562Y32960D2*
X23352D1*
X25371D2*
X43989D1*
X15562Y32711D2*
X23376D1*
X25617D2*
X43989D1*
X15562Y32463D2*
X17059D1*
X18062D2*
X19067D1*
X20055D2*
X23485D1*
X25867D2*
X43989D1*
X15562Y32214D2*
X16840D1*
X20281D2*
X23704D1*
X26117D2*
X43989D1*
X15562Y31965D2*
X16747D1*
X20375D2*
X23954D1*
X26363D2*
X43989D1*
X15562Y31717D2*
X16743D1*
X20383D2*
X24200D1*
X26613D2*
X43989D1*
X15562Y31468D2*
X16813D1*
X20312D2*
X24450D1*
X26863D2*
X43989D1*
X15562Y31219D2*
X17001D1*
X20129D2*
X24700D1*
X27109D2*
X43989D1*
X15562Y30971D2*
X16844D1*
X20281D2*
X24946D1*
X27359D2*
X43989D1*
X15562Y30722D2*
X16751D1*
X20375D2*
X25196D1*
X27609D2*
X43989D1*
X15562Y30473D2*
X16739D1*
X20383D2*
X25446D1*
X27855D2*
X43989D1*
X15562Y30225D2*
X16813D1*
X20312D2*
X25692D1*
X28105D2*
X43989D1*
X15562Y29976D2*
X16993D1*
X20129D2*
X25942D1*
X28355D2*
X43989D1*
X15562Y29727D2*
X17610D1*
X19515D2*
X26192D1*
X28601D2*
X43989D1*
X15562Y29478D2*
X17719D1*
X19406D2*
X26438D1*
X28851D2*
X43989D1*
X15562Y29230D2*
X26688D1*
X29101D2*
X43989D1*
X15562Y28981D2*
X22774D1*
X23347D2*
X26938D1*
X29347D2*
X43989D1*
X15562Y28732D2*
X22645D1*
X23476D2*
X27184D1*
X29597D2*
X43989D1*
X15562Y28484D2*
X22700D1*
X23426D2*
X27434D1*
X29847D2*
X43989D1*
X15562Y28235D2*
X22762D1*
X23363D2*
X27684D1*
X30094D2*
X43989D1*
X15562Y27986D2*
X22762D1*
X23363D2*
X27930D1*
X30344D2*
X43989D1*
X15562Y27738D2*
X22762D1*
X23363D2*
X28180D1*
X30594D2*
X43989D1*
X15562Y27489D2*
X22762D1*
X23363D2*
X28430D1*
X30840D2*
X43989D1*
X15562Y27240D2*
X22762D1*
X23363D2*
X28676D1*
X31090D2*
X43989D1*
X15562Y26992D2*
X17813D1*
X18461D2*
X19610D1*
X20262D2*
X22762D1*
X23363D2*
X28926D1*
X31340D2*
X43989D1*
X15562Y26743D2*
X17719D1*
X20355D2*
X22762D1*
X23363D2*
X29176D1*
X31586D2*
X43989D1*
X15562Y26494D2*
X17801D1*
X20273D2*
X22762D1*
X23363D2*
X29422D1*
X31836D2*
X43989D1*
X15562Y26246D2*
X22649D1*
X23476D2*
X29672D1*
X32086D2*
X43989D1*
X15562Y25997D2*
X21188D1*
X21933D2*
X22692D1*
X23433D2*
X29922D1*
X32332D2*
X43989D1*
X15562Y25748D2*
X21149D1*
X21976D2*
X30169D1*
X32582D2*
X43989D1*
X15555Y25499D2*
X21262D1*
X21863D2*
X30419D1*
X32832D2*
X43989D1*
X12687Y25251D2*
X21262D1*
X21863D2*
X30669D1*
X33078D2*
X43989D1*
X12687Y25002D2*
X21262D1*
X21863D2*
X30915D1*
X33328D2*
X43989D1*
X12687Y24753D2*
X21262D1*
X21863D2*
X31165D1*
X33578D2*
X43989D1*
X12687Y24505D2*
X21262D1*
X21906D2*
X31415D1*
X33824D2*
X43989D1*
X12687Y24256D2*
X21329D1*
X22316D2*
X31661D1*
X34074D2*
X43989D1*
X12687Y24007D2*
X15809D1*
X16316D2*
X18684D1*
X19191D2*
X21579D1*
X22476D2*
X31911D1*
X34324D2*
X43989D1*
X12687Y23759D2*
X15649D1*
X19347D2*
X21684D1*
X22437D2*
X32161D1*
X34570D2*
X43989D1*
X12687Y23510D2*
X15684D1*
X19312D2*
X32407D1*
X34820D2*
X43989D1*
X12687Y23261D2*
X32657D1*
X35070D2*
X43989D1*
X12687Y23013D2*
X32907D1*
X35316D2*
X43989D1*
X12687Y22764D2*
X33153D1*
X35480D2*
X43989D1*
X12687Y22515D2*
X33403D1*
X35543D2*
X43989D1*
X12687Y22267D2*
X33653D1*
X35547D2*
X43989D1*
X12687Y22018D2*
X15575D1*
X16051D2*
X16325D1*
X16801D2*
X33829D1*
X35547D2*
X43989D1*
X12687Y21769D2*
X15403D1*
X16972D2*
X33829D1*
X35547D2*
X43989D1*
X12687Y21520D2*
X15430D1*
X16945D2*
X33829D1*
X35547D2*
X43989D1*
X12687Y21272D2*
X15403D1*
X16722D2*
X33829D1*
X35547D2*
X43989D1*
X12687Y21023D2*
X15430D1*
X16695D2*
X33829D1*
X35547D2*
X43989D1*
X12687Y20774D2*
X33829D1*
X35547D2*
X43989D1*
X12687Y20526D2*
X33829D1*
X35547D2*
X43989D1*
X12687Y20277D2*
X33829D1*
X35547D2*
X43989D1*
X12687Y20028D2*
X33829D1*
X35547D2*
X43989D1*
X12687Y19780D2*
X33829D1*
X35547D2*
X43989D1*
X12687Y19531D2*
X33368D1*
X35547D2*
X43989D1*
X12687Y19282D2*
X33219D1*
X35547D2*
X43989D1*
X12687Y19034D2*
X33235D1*
X35547D2*
X43989D1*
X12687Y18785D2*
X33247D1*
X35547D2*
X43989D1*
X12687Y18536D2*
X33247D1*
X35547D2*
X43989D1*
X12687Y18288D2*
X33247D1*
X35547D2*
X43989D1*
X12687Y18039D2*
X33247D1*
X35547D2*
X43989D1*
X12687Y17790D2*
X16340D1*
X18785D2*
X33247D1*
X35547D2*
X43989D1*
X12687Y17541D2*
X16270D1*
X18855D2*
X33247D1*
X35547D2*
X43989D1*
X12687Y17293D2*
X16376D1*
X17000D2*
X18126D1*
X18750D2*
X29544D1*
X31082D2*
X33247D1*
X35746D2*
X38161D1*
X39965D2*
X43989D1*
X12687Y17044D2*
X29153D1*
X31472D2*
X33274D1*
X36055D2*
X37809D1*
X40312D2*
X43989D1*
X12687Y16795D2*
X28907D1*
X31715D2*
X33106D1*
X36265D2*
X37583D1*
X40543D2*
X43989D1*
X12687Y16547D2*
X28739D1*
X31883D2*
X32958D1*
X36418D2*
X37422D1*
X40703D2*
X43989D1*
X12687Y16298D2*
X28626D1*
X31996D2*
X32852D1*
X36519D2*
X37313D1*
X40812D2*
X43989D1*
X12687Y16049D2*
X28555D1*
X32070D2*
X32786D1*
X36586D2*
X37243D1*
X40879D2*
X43989D1*
X12687Y15801D2*
X28520D1*
X32101D2*
X32755D1*
X36617D2*
X37212D1*
X40914D2*
X43989D1*
X12687Y15552D2*
X28524D1*
X32101D2*
X32758D1*
X36617D2*
X37212D1*
X40910D2*
X43989D1*
X12687Y15303D2*
X28559D1*
X32066D2*
X32790D1*
X36582D2*
X37247D1*
X40875D2*
X43989D1*
X12687Y15055D2*
X28633D1*
X31988D2*
X32860D1*
X36515D2*
X37321D1*
X40805D2*
X43989D1*
X12687Y14806D2*
X28751D1*
X31871D2*
X32969D1*
X36406D2*
X37434D1*
X40691D2*
X43989D1*
X12687Y14557D2*
X28926D1*
X31699D2*
X33122D1*
X36250D2*
X37598D1*
X40527D2*
X43989D1*
X12687Y14309D2*
X25782D1*
X26094D2*
X29176D1*
X31445D2*
X33340D1*
X36035D2*
X37833D1*
X40289D2*
X43989D1*
X12687Y14060D2*
X25540D1*
X26336D2*
X29590D1*
X31031D2*
X33661D1*
X35711D2*
X38200D1*
X39926D2*
X43989D1*
X12687Y13811D2*
X25540D1*
X26433D2*
X34305D1*
X35070D2*
X43989D1*
X12742Y13562D2*
X25790D1*
X26683D2*
X43989D1*
X13922Y13314D2*
X14055D1*
X14844D2*
X26188D1*
X26933D2*
X43989D1*
X14957Y13065D2*
X26438D1*
X27180D2*
X43989D1*
X14930Y12816D2*
X26688D1*
X27332D2*
X43989D1*
X12941Y12568D2*
X13071D1*
X13824D2*
X14180D1*
X14719D2*
X26794D1*
X27332D2*
X43989D1*
X12687Y12319D2*
X26794D1*
X27332D2*
X43989D1*
X12687Y12070D2*
X23989D1*
X24633D2*
X26794D1*
X27332D2*
X43989D1*
X12687Y11822D2*
X23895D1*
X24730D2*
X26794D1*
X27332D2*
X43989D1*
X12687Y11573D2*
X23969D1*
X24687D2*
X26794D1*
X27332D2*
X43989D1*
X12687Y11324D2*
X23969D1*
X24687D2*
X26794D1*
X27332D2*
X43989D1*
X12687Y11076D2*
X23969D1*
X24687D2*
X26669D1*
X27457D2*
X43989D1*
X12687Y10827D2*
X23969D1*
X24687D2*
X26657D1*
X27465D2*
X43989D1*
X12687Y10578D2*
X23969D1*
X24687D2*
X26876D1*
X27250D2*
X43989D1*
X12687Y10330D2*
X23934D1*
X24719D2*
X43989D1*
X12687Y10081D2*
X23922D1*
X24730D2*
X43989D1*
X12687Y9832D2*
X24130D1*
X24523D2*
X43989D1*
X12687Y9583D2*
X43989D1*
X12687Y9335D2*
X43989D1*
X12687Y9086D2*
X43989D1*
X12687Y8837D2*
X43989D1*
X12687Y8589D2*
X43989D1*
X12687Y8340D2*
X35692D1*
X37242D2*
X42149D1*
X43699D2*
X43989D1*
X12687Y8091D2*
X35622D1*
X37308D2*
X40391D1*
X40965D2*
X42079D1*
X43765D2*
X43989D1*
X12687Y7843D2*
X35622D1*
X37308D2*
X38208D1*
X39211D2*
X40106D1*
X41254D2*
X42079D1*
X43765D2*
X43989D1*
X37308Y7594D2*
X38106D1*
X39316D2*
X40012D1*
X41344D2*
X42079D1*
X43765D2*
X43989D1*
X37308Y7345D2*
X38118D1*
X39305D2*
X40024D1*
X41336D2*
X42079D1*
X43765D2*
X43989D1*
X37269Y7097D2*
X38255D1*
X39168D2*
X40145D1*
X41215D2*
X41454D1*
X41871D2*
X42122D1*
X43722D2*
X43989D1*
X36562Y6848D2*
X37247D1*
X38207D2*
X39215D1*
X40176D2*
X41106D1*
X42219D2*
X43989D1*
X36562Y6599D2*
X37126D1*
X38328D2*
X39094D1*
X40297D2*
X41001D1*
X42324D2*
X43989D1*
X36562Y6351D2*
X37126D1*
X38328D2*
X39094D1*
X40297D2*
X41001D1*
X42324D2*
X43989D1*
X36562Y6102D2*
X37247D1*
X38207D2*
X39215D1*
X40176D2*
X41106D1*
X42219D2*
X43989D1*
X36562Y5853D2*
X41454D1*
X41875D2*
X43989D1*
X36562Y5604D2*
X43989D1*
X36562Y5356D2*
X43989D1*
X36562Y5107D2*
X43989D1*
X36562Y4858D2*
X43989D1*
X36562Y4610D2*
X43989D1*
X36593Y15562D2*
X36560Y15314D1*
X36495Y15073D1*
X36400Y14842D1*
X36275Y14626D1*
X36123Y14428D1*
X35946Y14251D1*
X35748Y14099D1*
X35532Y13974D1*
X35301Y13879D1*
X35060Y13814D1*
X34812Y13781D1*
X34562D1*
X34314Y13814D1*
X34073Y13879D1*
X33842Y13974D1*
X33626Y14099D1*
X33428Y14251D1*
X33251Y14428D1*
X33099Y14626D1*
X32974Y14842D1*
X32879Y15073D1*
X32814Y15315D1*
X32781Y15562D1*
Y15812D1*
X32814Y16060D1*
X32879Y16301D1*
X32974Y16532D1*
X33099Y16748D1*
X33251Y16946D1*
X33310Y17014D1*
X33275Y17133D1*
X33272Y17687D1*
X33267Y19018D1*
X33236Y19139D1*
X33240Y19263D1*
X33278Y19382D1*
X33347Y19486D1*
X33441Y19567D1*
X33554Y19620D1*
X33677Y19640D1*
X33801Y19626D1*
X33855Y19603D1*
X33852Y21187D1*
Y22089D1*
X24109Y31834D1*
X23622Y32321D1*
X23541Y32416D1*
X23474Y32521D1*
X23424Y32636D1*
X23392Y32757D1*
X23378Y32911D1*
Y33368D1*
X22644D1*
Y34506D1*
X23601D1*
X23636Y34587D1*
X15538D1*
X15537Y25562D1*
X15503Y25443D1*
X15392Y25352D1*
X15312Y25337D1*
X12660D1*
X12662Y24062D1*
Y13582D1*
X12720Y13561D1*
X12826Y13497D1*
X12918Y13412D1*
X12997Y13301D1*
X13035Y13355D1*
X13128Y13439D1*
X13236Y13500D1*
X13356Y13535D1*
X13481Y13541D1*
X13604Y13520D1*
X13719Y13472D1*
X13820Y13399D1*
X13902Y13305D1*
X13960Y13195D1*
X13980Y13135D1*
X14003Y13196D1*
X14068Y13301D1*
X14159Y13387D1*
X14268Y13448D1*
X14389Y13479D1*
X14513Y13478D1*
X14634Y13446D1*
X14742Y13385D1*
X14832Y13298D1*
X14897Y13192D1*
X14933Y13072D1*
X14939Y12992D1*
X14923Y12868D1*
X14877Y12753D1*
X14803Y12653D1*
X14705Y12574D1*
X14592Y12523D1*
X14469Y12502D1*
X14345Y12513D1*
X14227Y12555D1*
X14124Y12625D1*
X14042Y12719D1*
X13980Y12857D1*
X13954Y12773D1*
X13891Y12665D1*
X13807Y12574D1*
X13703Y12504D1*
X13587Y12459D1*
X13463Y12442D1*
X13339Y12453D1*
X13220Y12492D1*
X13113Y12556D1*
X13024Y12643D1*
X12996Y12679D1*
X12891Y12543D1*
X12794Y12465D1*
X12664Y12402D1*
X12662Y10312D1*
Y7597D1*
X14081Y7600D1*
X35647D1*
X35648Y8108D1*
X35666Y8231D1*
X35719Y8344D1*
X35803Y8436D1*
X35909Y8501D1*
X36034Y8531D1*
X36860Y8533D1*
X36983Y8515D1*
X37096Y8462D1*
X37188Y8378D1*
X37252Y8272D1*
X37283Y8147D1*
X37285Y7282D1*
X37267Y7158D1*
X37214Y7046D1*
X37130Y6953D1*
X37023Y6889D1*
X36899Y6859D1*
X36536Y6857D1*
X36537Y4409D1*
X37189Y4412D1*
X44013Y4410D1*
X44011Y34587D1*
X25499D1*
X25599Y34531D1*
X25697Y34454D1*
X25781Y34361D1*
X25846Y34255D1*
X25892Y34139D1*
X25917Y34017D1*
X25922Y33937D1*
X25911Y33813D1*
X25878Y33692D1*
X25825Y33579D1*
X25752Y33477D1*
X25664Y33390D1*
X25561Y33319D1*
X25447Y33268D1*
X25326Y33237D1*
X25201Y33228D1*
X25058Y33246D1*
X35277Y23027D1*
X35359Y22933D1*
X35425Y22827D1*
X35475Y22713D1*
X35508Y22592D1*
X35522Y22437D1*
Y17402D1*
X35642Y17341D1*
X35850Y17202D1*
X36038Y17037D1*
X36202Y16849D1*
X36341Y16642D1*
X36452Y16418D1*
X36532Y16181D1*
X36581Y15936D1*
X36597Y15687D1*
X36593Y15562D1*
X40892Y15662D2*
X40875Y15438D1*
X40831Y15217D1*
X40760Y15004D1*
X40663Y14801D1*
X40542Y14611D1*
X40399Y14438D1*
X40236Y14283D1*
X40055Y14150D1*
X39859Y14040D1*
X39651Y13954D1*
X39434Y13895D1*
X39211Y13863D1*
X38986Y13859D1*
X38763Y13882D1*
X38543Y13932D1*
X38332Y14009D1*
X38132Y14111D1*
X37946Y14237D1*
X37776Y14385D1*
X37626Y14553D1*
X37498Y14737D1*
X37393Y14936D1*
X37314Y15147D1*
X37261Y15365D1*
X37235Y15589D1*
X37237Y15813D1*
X37266Y16036D1*
X37322Y16254D1*
X37405Y16463D1*
X37513Y16661D1*
X37644Y16843D1*
X37796Y17008D1*
X37968Y17154D1*
X38156Y17277D1*
X38358Y17376D1*
X38570Y17450D1*
X38790Y17497D1*
X39014Y17516D1*
X39239Y17508D1*
X39461Y17473D1*
X39677Y17410D1*
X39884Y17322D1*
X40078Y17209D1*
X40257Y17073D1*
X40418Y16916D1*
X40558Y16740D1*
X40676Y16549D1*
X40770Y16344D1*
X40837Y16130D1*
X40878Y15908D1*
X40892Y15687D1*
Y15662D1*
X38302Y6350D2*
X38263Y6232D1*
X38199Y6124D1*
X38115Y6032D1*
X38013Y5960D1*
X37898Y5911D1*
X37776Y5888D1*
X37651Y5891D1*
X37530Y5919D1*
X37417Y5973D1*
X37319Y6050D1*
X37238Y6145D1*
X37180Y6255D1*
X37146Y6375D1*
X37138Y6500D1*
X37157Y6623D1*
X37201Y6740D1*
X37269Y6845D1*
X37357Y6933D1*
X37462Y7000D1*
X37579Y7044D1*
X37702Y7063D1*
X37827Y7054D1*
X37946Y7020D1*
X38057Y6962D1*
X38152Y6881D1*
X38228Y6782D1*
X38282Y6670D1*
X38310Y6548D1*
X38315Y6474D1*
X38302Y6350D1*
X39286Y7374D2*
X39247Y7255D1*
X39184Y7148D1*
X39099Y7056D1*
X38997Y6984D1*
X38883Y6935D1*
X38760Y6911D1*
X38635Y6914D1*
X38514Y6943D1*
X38401Y6997D1*
X38303Y7073D1*
X38222Y7169D1*
X38164Y7279D1*
X38130Y7399D1*
X38122Y7524D1*
X38141Y7647D1*
X38185Y7764D1*
X38253Y7868D1*
X38341Y7956D1*
X38446Y8024D1*
X38563Y8068D1*
X38686Y8086D1*
X38811Y8078D1*
X38931Y8044D1*
X39041Y7985D1*
X39136Y7905D1*
X39212Y7806D1*
X39266Y7693D1*
X39294Y7572D1*
X39299Y7498D1*
X39286Y7374D1*
X40270Y6350D2*
X40231Y6232D1*
X40168Y6124D1*
X40084Y6032D1*
X39982Y5960D1*
X39867Y5911D1*
X39744Y5888D1*
X39620Y5891D1*
X39498Y5919D1*
X39386Y5973D1*
X39287Y6050D1*
X39207Y6145D1*
X39148Y6255D1*
X39114Y6375D1*
X39107Y6500D1*
X39125Y6623D1*
X39169Y6740D1*
X39237Y6845D1*
X39325Y6933D1*
X39430Y7000D1*
X39547Y7044D1*
X39671Y7063D1*
X39795Y7054D1*
X39915Y7020D1*
X40025Y6962D1*
X40120Y6881D1*
X40196Y6782D1*
X40250Y6670D1*
X40279Y6548D1*
X40283Y6474D1*
X40270Y6350D1*
X41327Y7473D2*
X41310Y7349D1*
X41270Y7231D1*
X41208Y7123D1*
X41127Y7028D1*
X41028Y6951D1*
X40917Y6895D1*
X40797Y6860D1*
X40673Y6849D1*
X40549Y6863D1*
X40430Y6899D1*
X40319Y6958D1*
X40223Y7037D1*
X40143Y7133D1*
X40083Y7242D1*
X40045Y7361D1*
X40030Y7485D1*
X40040Y7610D1*
X40073Y7730D1*
X40129Y7842D1*
X40205Y7941D1*
X40298Y8023D1*
X40406Y8086D1*
X40524Y8128D1*
X40647Y8146D1*
X40772Y8140D1*
X40893Y8110D1*
X41006Y8058D1*
X41107Y7985D1*
X41193Y7894D1*
X41259Y7788D1*
X41304Y7672D1*
X41326Y7549D1*
X41327Y7473D1*
X42311Y6449D2*
X42295Y6326D1*
X42254Y6208D1*
X42192Y6099D1*
X42111Y6005D1*
X42013Y5928D1*
X41901Y5871D1*
X41781Y5837D1*
X41657Y5826D1*
X41533Y5839D1*
X41414Y5876D1*
X41304Y5934D1*
X41207Y6013D1*
X41127Y6109D1*
X41067Y6219D1*
X41029Y6337D1*
X41015Y6461D1*
X41024Y6586D1*
X41057Y6706D1*
X41113Y6818D1*
X41189Y6917D1*
X41282Y7000D1*
X41390Y7063D1*
X41508Y7104D1*
X41631Y7122D1*
X41756Y7116D1*
X41877Y7087D1*
X41990Y7034D1*
X42092Y6961D1*
X42177Y6870D1*
X42243Y6765D1*
X42288Y6648D1*
X42310Y6525D1*
X42311Y6449D1*
X18242Y32237D2*
X18302Y32280D1*
X18418Y32327D1*
X18541Y32347D1*
X18665Y32337D1*
X18784Y32299D1*
X18881Y32240D1*
X18976Y32361D1*
X19068Y32445D1*
X19173Y32514D1*
X19286Y32566D1*
X19406Y32599D1*
X19530Y32614D1*
X19655Y32609D1*
X19778Y32585D1*
X19895Y32542D1*
X20004Y32482D1*
X20103Y32405D1*
X20188Y32314D1*
X20258Y32211D1*
X20312Y32098D1*
X20347Y31978D1*
X20364Y31812D1*
X20355Y31688D1*
X20326Y31566D1*
X20278Y31451D1*
X20214Y31344D1*
X20133Y31248D1*
X20065Y31190D1*
X20188Y31069D1*
X20258Y30966D1*
X20312Y30853D1*
X20347Y30733D1*
X20364Y30567D1*
X20355Y30443D1*
X20326Y30321D1*
X20278Y30206D1*
X20214Y30099D1*
X20133Y30003D1*
X20039Y29922D1*
X19933Y29855D1*
X19818Y29806D1*
X19697Y29776D1*
X19573Y29765D1*
X19499Y29769D1*
X19482Y29688D1*
X19440Y29571D1*
X19371Y29467D1*
X19280Y29382D1*
X19172Y29320D1*
X19052Y29285D1*
X18927Y29278D1*
X18805Y29301D1*
X18691Y29351D1*
X18591Y29426D1*
X18564Y29459D1*
X18480Y29382D1*
X18372Y29320D1*
X18252Y29285D1*
X18127Y29278D1*
X18005Y29301D1*
X17891Y29351D1*
X17791Y29426D1*
X17712Y29523D1*
X17657Y29635D1*
X17630Y29768D1*
X17448Y29773D1*
X17326Y29800D1*
X17210Y29846D1*
X17102Y29909D1*
X17006Y29989D1*
X16923Y30082D1*
X16855Y30187D1*
X16805Y30301D1*
X16773Y30422D1*
X16760Y30546D1*
X16766Y30671D1*
X16792Y30793D1*
X16836Y30910D1*
X16898Y31018D1*
X16976Y31116D1*
X17060Y31192D1*
X16923Y31332D1*
X16855Y31437D1*
X16805Y31551D1*
X16773Y31672D1*
X16760Y31796D1*
X16766Y31921D1*
X16792Y32043D1*
X16836Y32160D1*
X16898Y32268D1*
X16976Y32366D1*
X17068Y32450D1*
X17173Y32519D1*
X17286Y32571D1*
X17406Y32604D1*
X17530Y32619D1*
X17655Y32614D1*
X17778Y32590D1*
X17895Y32547D1*
X18004Y32487D1*
X18103Y32410D1*
X18188Y32319D1*
X18243Y32238D1*
X32077Y15562D2*
X32042Y15315D1*
X31973Y15075D1*
X31870Y14847D1*
X31736Y14636D1*
X31574Y14446D1*
X31387Y14281D1*
X31178Y14144D1*
X30952Y14037D1*
X30713Y13963D1*
X30467Y13924D1*
X30217Y13920D1*
X29969Y13951D1*
X29728Y14016D1*
X29499Y14115D1*
X29286Y14245D1*
X29093Y14404D1*
X28924Y14589D1*
X28783Y14795D1*
X28673Y15019D1*
X28595Y15256D1*
X28552Y15502D1*
X28543Y15752D1*
X28570Y16000D1*
X28632Y16242D1*
X28727Y16474D1*
X28853Y16689D1*
X29009Y16884D1*
X29190Y17056D1*
X29394Y17200D1*
X29616Y17314D1*
X29852Y17396D1*
X30098Y17444D1*
X30347Y17456D1*
X30596Y17434D1*
X30839Y17377D1*
X31072Y17286D1*
X31289Y17163D1*
X31487Y17010D1*
X31662Y16832D1*
X31809Y16630D1*
X31927Y16410D1*
X32013Y16176D1*
X32065Y15931D1*
X32082Y15687D1*
X32077Y15562D1*
X42654Y8533D2*
X43317D1*
X43440Y8515D1*
X43553Y8462D1*
X43645Y8378D1*
X43709Y8272D1*
X43739Y8147D1*
X43742Y7282D1*
X43723Y7158D1*
X43670Y7046D1*
X43587Y6953D1*
X43480Y6889D1*
X43355Y6859D1*
X42529Y6857D1*
X42406Y6875D1*
X42293Y6928D1*
X42201Y7012D1*
X42137Y7118D1*
X42107Y7243D1*
X42104Y8108D1*
X42123Y8231D1*
X42176Y8344D1*
X42259Y8436D1*
X42366Y8501D1*
X42491Y8531D1*
X42654Y8533D1*
X23992Y10394D2*
X23988Y11588D1*
X23934Y11701D1*
X23918Y11824D1*
X23942Y11946D1*
X24002Y12055D1*
X24093Y12140D1*
X24206Y12192D1*
X24330Y12206D1*
X24452Y12180D1*
X24560Y12118D1*
X24643Y12026D1*
X24693Y11912D1*
X24706Y11812D1*
X24686Y11689D1*
X24663Y11644D1*
X24662Y10394D1*
X24709Y10287D1*
X24722Y10187D1*
X24702Y10064D1*
X24645Y9953D1*
X24556Y9866D1*
X24445Y9811D1*
X24321Y9793D1*
X24199Y9815D1*
X24089Y9873D1*
X24003Y9963D1*
X23949Y10076D1*
X23934Y10199D1*
X23957Y10321D1*
X23993Y10386D1*
X23990Y11585D2*
X23934Y11701D1*
X23918Y11824D1*
X23942Y11946D1*
X24002Y12055D1*
X24093Y12140D1*
X24206Y12192D1*
X24330Y12206D1*
X24452Y12180D1*
X24560Y12118D1*
X24643Y12026D1*
X24693Y11912D1*
X24706Y11812D1*
X24686Y11689D1*
X24663Y11644D1*
X23990Y11585D2*
X23934Y11701D1*
X23918Y11824D1*
X23942Y11946D1*
X24002Y12055D1*
X24093Y12140D1*
X24206Y12192D1*
X24330Y12206D1*
X24452Y12180D1*
X24560Y12118D1*
X24643Y12026D1*
X24693Y11912D1*
X24706Y11812D1*
X24686Y11689D1*
X24663Y11644D1*
X18128Y17317D2*
X16996D1*
X16916Y17241D1*
X16804Y17186D1*
X16681Y17168D1*
X16558Y17190D1*
X16449Y17248D1*
X16363Y17338D1*
X16309Y17451D1*
X16293Y17574D1*
X16317Y17696D1*
X16377Y17805D1*
X16468Y17890D1*
X16581Y17942D1*
X16705Y17956D1*
X16827Y17930D1*
X16935Y17868D1*
X16989Y17808D1*
X18128Y17807D1*
X18218Y17890D1*
X18331Y17942D1*
X18455Y17956D1*
X18577Y17930D1*
X18685Y17868D1*
X18768Y17776D1*
X18818Y17662D1*
X18831Y17562D1*
X18811Y17439D1*
X18754Y17328D1*
X18666Y17241D1*
X18554Y17186D1*
X18431Y17168D1*
X18308Y17190D1*
X18199Y17248D1*
X18131Y17319D1*
X26817Y11246D2*
Y12714D1*
X26270Y13257D1*
X25980Y13548D1*
X25931Y13543D1*
X25808Y13565D1*
X25699Y13623D1*
X25613Y13713D1*
X25559Y13826D1*
X25543Y13949D1*
X25567Y14071D1*
X25627Y14180D1*
X25718Y14265D1*
X25831Y14317D1*
X25955Y14331D1*
X26077Y14305D1*
X26185Y14243D1*
X26268Y14151D1*
X26318Y14037D1*
X26331Y13937D1*
X26324Y13895D1*
X27235Y12985D1*
X27298Y12875D1*
X27307Y12812D1*
X27310Y11243D1*
X27393Y11151D1*
X27443Y11037D1*
X27456Y10937D1*
X27436Y10814D1*
X27379Y10703D1*
X27291Y10616D1*
X27179Y10561D1*
X27056Y10543D1*
X26933Y10565D1*
X26824Y10623D1*
X26738Y10713D1*
X26684Y10826D1*
X26668Y10949D1*
X26692Y11071D1*
X26752Y11180D1*
X26818Y11241D1*
X18628Y23442D2*
X16371D1*
X16291Y23366D1*
X16179Y23311D1*
X16056Y23293D1*
X15933Y23315D1*
X15824Y23373D1*
X15738Y23463D1*
X15684Y23576D1*
X15668Y23699D1*
X15692Y23821D1*
X15752Y23930D1*
X15843Y24015D1*
X15956Y24067D1*
X16080Y24081D1*
X16202Y24055D1*
X16310Y23993D1*
X16364Y23933D1*
X18628Y23932D1*
X18718Y24015D1*
X18831Y24067D1*
X18955Y24081D1*
X19077Y24055D1*
X19185Y23993D1*
X19268Y23901D1*
X19318Y23787D1*
X19331Y23687D1*
X19311Y23564D1*
X19254Y23453D1*
X19166Y23366D1*
X19054Y23311D1*
X18931Y23293D1*
X18808Y23315D1*
X18699Y23373D1*
X18631Y23444D1*
X16366Y23440D2*
X16291Y23366D1*
X16179Y23311D1*
X16056Y23293D1*
X15933Y23315D1*
X15824Y23373D1*
X15738Y23463D1*
X15684Y23576D1*
X15668Y23699D1*
X15692Y23821D1*
X15752Y23930D1*
X15843Y24015D1*
X15956Y24067D1*
X16080Y24081D1*
X16202Y24055D1*
X16310Y23993D1*
X16364Y23933D1*
X19628Y26492D2*
X18449D1*
X18366Y26416D1*
X18254Y26361D1*
X18131Y26343D1*
X18008Y26365D1*
X17899Y26423D1*
X17813Y26513D1*
X17759Y26626D1*
X17743Y26749D1*
X17767Y26871D1*
X17827Y26980D1*
X17918Y27065D1*
X18031Y27117D1*
X18155Y27131D1*
X18277Y27105D1*
X18385Y27043D1*
X18439Y26983D1*
X19625Y26982D1*
X19718Y27065D1*
X19831Y27117D1*
X19955Y27131D1*
X20077Y27105D1*
X20185Y27043D1*
X20268Y26951D1*
X20318Y26837D1*
X20331Y26737D1*
X20311Y26614D1*
X20254Y26503D1*
X20166Y26416D1*
X20054Y26361D1*
X19931Y26343D1*
X19808Y26365D1*
X19699Y26423D1*
X19631Y26494D1*
X23337Y28402D2*
Y26472D1*
X23393Y26401D1*
X23443Y26287D1*
X23456Y26187D1*
X23436Y26064D1*
X23379Y25953D1*
X23291Y25866D1*
X23179Y25811D1*
X23056Y25793D1*
X22933Y25815D1*
X22824Y25873D1*
X22738Y25963D1*
X22684Y26076D1*
X22668Y26199D1*
X22692Y26321D1*
X22752Y26430D1*
X22789Y26465D1*
X22787Y28402D1*
X22738Y28463D1*
X22684Y28576D1*
X22668Y28699D1*
X22692Y28821D1*
X22752Y28930D1*
X22843Y29015D1*
X22956Y29067D1*
X23080Y29081D1*
X23202Y29055D1*
X23310Y28993D1*
X23393Y28901D1*
X23443Y28787D1*
X23456Y28687D1*
X23436Y28564D1*
X23379Y28453D1*
X23338Y28413D1*
X21837Y25527D2*
Y24550D1*
X22058Y24330D1*
X22202Y24305D1*
X22310Y24243D1*
X22393Y24151D1*
X22443Y24037D1*
X22456Y23937D1*
X22436Y23814D1*
X22379Y23703D1*
X22291Y23616D1*
X22179Y23561D1*
X22056Y23543D1*
X21933Y23565D1*
X21824Y23623D1*
X21738Y23713D1*
X21684Y23826D1*
X21670Y23937D1*
X21368Y24243D1*
X21302Y24352D1*
X21287Y24437D1*
Y25527D1*
X21238Y25588D1*
X21184Y25701D1*
X21168Y25824D1*
X21192Y25946D1*
X21252Y26055D1*
X21343Y26140D1*
X21456Y26192D1*
X21580Y26206D1*
X21702Y26180D1*
X21810Y26118D1*
X21893Y26026D1*
X21943Y25912D1*
X21956Y25812D1*
X21936Y25689D1*
X21879Y25578D1*
X21838Y25538D1*
X16686Y21064D2*
X16629Y20953D1*
X16541Y20866D1*
X16429Y20811D1*
X16306Y20793D1*
X16183Y20815D1*
X16066Y20882D1*
X15929Y20811D1*
X15806Y20793D1*
X15683Y20815D1*
X15574Y20873D1*
X15488Y20963D1*
X15434Y21076D1*
X15418Y21199D1*
X15442Y21321D1*
X15510Y21438D1*
X15488Y21463D1*
X15434Y21576D1*
X15418Y21699D1*
X15442Y21821D1*
X15502Y21930D1*
X15593Y22015D1*
X15706Y22067D1*
X15830Y22081D1*
X15952Y22055D1*
X16060Y21993D1*
X16114Y21933D1*
X16253Y21932D1*
X16343Y22015D1*
X16456Y22067D1*
X16580Y22081D1*
X16702Y22055D1*
X16810Y21993D1*
X16893Y21901D1*
X16943Y21787D1*
X16956Y21687D1*
X16936Y21564D1*
X16879Y21453D1*
X16791Y21366D1*
X16683Y21313D1*
X16706Y21187D1*
X16686Y21064D1*
X37768Y16981D2*
D24*
X40356Y14393D1*
Y16981D2*
X37768Y14393D1*
X13060Y13381D2*
X13838Y12603D1*
Y13381D2*
X13060Y12603D1*
X40221Y7956D2*
X41137Y7040D1*
Y7956D2*
X40221Y7040D1*
X41205Y6933D2*
X42122Y6016D1*
Y6933D2*
X41205Y6016D1*
G36*
X8782Y9552D2*
X8541D1*
X8370Y9722D1*
Y9963D1*
X8541Y10134D1*
X8782D1*
X8952Y9963D1*
Y9722D1*
X8782Y9552D1*
G37*
D32*
X7677Y9843D3*
Y9055D3*
X8661D3*
D33*
X5799Y7988D3*
X10539D3*
D34*
X34687Y15687D3*
X39062D3*
D38*
X23213Y33937D3*
D39*
X24213D3*
X25213D3*
D44*
X9449Y12992D3*
D45*
X10449D3*
X12449D3*
X13449D3*
X14449D3*
D46*
X37726Y6474D3*
X38710Y7498D3*
X39695Y6474D3*
X40679Y7498D3*
X41663Y6474D3*
D45*
X5937Y29875D3*
Y28875D3*
Y27875D3*
Y26875D3*
X13937D3*
Y27875D3*
Y28875D3*
Y29875D3*
D34*
X30312Y15687D3*
M02*
