G04 DipTrace 2.3.1.0*
%INreloadpro.front.gtl*%
%MOIN*%
%ADD14C,0.016*%
%ADD15C,0.01*%
%ADD16C,0.014*%
%ADD17C,0.0118*%
%ADD18C,0.0157*%
%ADD19C,0.0394*%
%ADD20C,0.08*%
%ADD21C,0.1*%
%ADD22C,0.044*%
%ADD26R,0.0433X0.0394*%
%ADD27R,0.0394X0.0433*%
%ADD28C,0.063*%
%ADD29C,0.1299*%
%ADD30R,0.0118X0.0492*%
%ADD31R,0.0787X0.1181*%
%ADD32R,0.0394X0.0394*%
%ADD33C,0.0394*%
%ADD35R,0.0236X0.0236*%
%ADD36R,0.0472X0.0472*%
%ADD37R,0.0709X0.0157*%
%ADD38R,0.0787X0.0236*%
%ADD39C,0.315*%
%ADD40R,0.315X0.0866*%
%ADD42R,0.0256X0.0413*%
%ADD43R,0.0413X0.0256*%
%ADD44R,0.0748X0.0748*%
%ADD45C,0.0748*%
%ADD46R,0.063X0.0591*%
%ADD47R,0.0709X0.126*%
%ADD48R,0.0217X0.0374*%
%ADD49C,0.0787*%
%ADD50C,0.0591*%
%ADD51R,0.0433X0.0236*%
%ADD53R,0.0591X0.0591*%
%ADD54C,0.0236*%
%FSLAX44Y44*%
G04*
G70*
G90*
G75*
G01*
%LNTop*%
%LPD*%
X24656Y12813D2*
D14*
X24101D1*
X24062Y12852D1*
X23405D1*
X23402Y12850D1*
X22915D1*
X22652D1*
X22915Y10225D2*
D15*
Y12850D1*
X23506Y10225D2*
Y9875D1*
X23703D1*
X23900D1*
X24096D1*
X24293D1*
Y9750D1*
X24312D1*
Y9875D1*
X24490D1*
X24687D1*
X24884D1*
X24937D1*
X25062Y10000D1*
Y10206D1*
X25081Y10225D1*
X24687D2*
D14*
Y9875D1*
X24490Y10225D2*
Y9875D1*
X24293Y10225D2*
Y9875D1*
X24096Y10225D2*
Y9875D1*
X23900Y10225D2*
Y9875D1*
X23703Y10225D2*
Y9875D1*
X24312Y11812D2*
X24127D1*
X23812D1*
X23562D1*
X23437Y11937D1*
Y12815D1*
X23402Y12850D1*
X23812Y12146D2*
Y11812D1*
X24127Y12146D2*
Y11812D1*
X24442Y12146D2*
Y11942D1*
X24312Y11812D1*
X24757Y12146D2*
Y11882D1*
X24687Y11812D1*
X24312D1*
X24884Y10225D2*
Y9875D1*
X8246Y19657D2*
D16*
X7937D1*
Y19402D1*
X8246D1*
X5963Y20425D2*
X6437D1*
X7687Y19437D2*
X7907Y19657D1*
X8246D1*
X6812Y21687D2*
D14*
Y20800D1*
X6437Y20425D1*
X5937Y28875D2*
X6000D1*
X9562Y25312D1*
Y22673D1*
X9798Y22437D1*
X10048Y22187D1*
D16*
X10687D1*
X8937Y22437D2*
D14*
X9798D1*
X26656Y10225D2*
D17*
Y10937D1*
X26852D1*
Y10225D1*
X19352Y25443D2*
D18*
X18943D1*
D14*
X18837Y25337D1*
Y25037D1*
X19437Y24437D1*
Y23687D2*
Y24437D1*
X14107Y18687D2*
Y17851D1*
X13815Y17559D1*
X14187Y19687D2*
Y18767D1*
X14107Y18687D1*
X25719Y13561D2*
D15*
X26273D1*
X26312Y13522D1*
Y13437D1*
X26687Y13062D1*
Y12062D1*
X26562Y11937D1*
X25812D1*
X25687Y12062D1*
Y12781D1*
X25719Y12813D1*
X26312Y13522D2*
Y13562D1*
X25937Y13937D1*
X18437D1*
Y17559D1*
X16750D2*
X13815D1*
X26852Y10937D2*
X27062D1*
X19437Y23687D2*
X18937D1*
X16062D2*
Y22437D1*
Y20062D1*
X15687Y19687D1*
X14187D1*
X12813Y22187D2*
D14*
Y22437D1*
D15*
X16062D1*
X19187Y30937D2*
X18937Y30687D1*
X16062Y23687D2*
Y32937D1*
X16187Y33062D1*
X19062D1*
X19437Y32687D1*
X19352Y26211D2*
X18711D1*
X18312Y25812D1*
Y18187D1*
X21562Y14937D1*
X25562D1*
X25515Y14984D1*
X25462D1*
X26087D1*
X26127Y15025D1*
X5963Y19402D2*
X6472D1*
X6562Y19312D1*
X8246Y20937D2*
X9937D1*
X33937Y16437D2*
D19*
X34359Y16015D1*
D20*
X34687Y15687D1*
Y16687D2*
D19*
Y16090D1*
D20*
Y15687D1*
X35437Y16437D2*
D19*
X35015Y16015D1*
D20*
X34687Y15687D1*
X35687D2*
D19*
X35090D1*
D20*
X34687D1*
X35437Y14937D2*
D19*
X35015Y15359D1*
D20*
X34687Y15687D1*
Y14687D2*
D19*
Y15284D1*
D20*
Y15687D1*
X33937Y14937D2*
D19*
X34359Y15359D1*
D20*
X34687Y15687D1*
X33687D2*
D19*
X34284D1*
D20*
X34687D1*
X24772Y26522D2*
D14*
X25602D1*
X29937Y22187D1*
Y19687D1*
X30437Y19187D1*
X33687D1*
X24772Y22397D2*
X28977D1*
X29352Y22022D1*
Y19522D1*
X30187Y18687D1*
X35482D1*
X35710Y18914D1*
D21*
X34687Y19937D1*
Y22437D1*
X25187Y31937D1*
Y33911D1*
X25213Y33937D1*
X19352Y26467D2*
D15*
X18567D1*
X18125Y26025D1*
Y9125D1*
X18687Y8562D1*
X22437D1*
X23112Y9237D1*
Y10225D1*
Y10675D1*
X23437Y11000D1*
X23375D1*
X23812Y11437D1*
X19352Y28002D2*
X19810D1*
X19937Y27875D1*
Y26562D1*
X17937D2*
X17750Y26375D1*
Y8750D1*
X18312Y8187D1*
X24937D1*
X25278Y8528D1*
Y10225D1*
Y10659D1*
X25187Y10750D1*
X24562D1*
X24437Y10875D1*
Y11432D1*
X24442Y11437D1*
X19352Y26722D2*
X18522D1*
X17937Y26137D1*
Y8937D1*
X18500Y8375D1*
X22625D1*
X23309Y9059D1*
Y10225D1*
X24187Y11000D2*
Y10874D1*
X24127Y10814D1*
X24062Y10750D1*
X23437D1*
X23312Y10625D1*
Y10228D1*
X23309Y10225D1*
X19352Y26722D2*
D3*
X24127Y11437D2*
Y10814D1*
X19352Y26978D2*
X18896D1*
X18837Y27037D1*
X18037D1*
X17562Y26562D1*
Y8562D1*
X18125Y8000D1*
X25000D1*
X25474Y8474D1*
Y10225D1*
Y10837D1*
X25312Y11000D1*
X25194D1*
X24757Y11437D1*
X13449Y12992D2*
D14*
Y14118D1*
X13518Y14187D1*
X13321Y19687D2*
Y18803D1*
X13437Y18687D1*
X23402Y13519D2*
X22652D1*
X22312D1*
X21902D1*
X21152D1*
X20402D1*
X19652D1*
X18902D1*
X20106Y22187D2*
Y22937D1*
Y23687D1*
Y24437D1*
X19352Y25187D2*
D18*
X19787D1*
D14*
X19937D1*
X20187Y24937D1*
Y24518D1*
X20106Y24437D1*
X12937Y18687D2*
X13437D1*
X12813Y20687D2*
Y20195D1*
X13321Y19687D1*
X20106Y22187D2*
Y21856D1*
X20062Y21812D1*
X21393Y24437D2*
D15*
Y24106D1*
X21437Y24062D1*
X39062Y16687D2*
D20*
Y15687D1*
X39812Y16437D2*
D15*
X39062Y15687D1*
X40062D2*
X39062D1*
X39812Y14937D2*
X39062Y15687D1*
Y14687D2*
Y15687D1*
X38312Y14937D2*
X39062Y15687D1*
X38062D2*
X39062D1*
X38312Y16437D2*
X39062Y15687D1*
X25164Y24937D2*
X25687D1*
X39062Y15687D2*
D21*
Y17767D1*
X37914Y18914D1*
X25462Y14315D2*
D15*
X26089D1*
X26127Y14277D1*
X22719Y10225D2*
Y10981D1*
X22312Y11387D1*
Y13519D1*
X25671Y10225D2*
Y11062D1*
X25812D1*
X25868Y10225D2*
Y11062D1*
X25812D1*
X26065Y10225D2*
Y11062D1*
X25868D1*
X26127Y14277D2*
X26062D1*
Y14562D1*
X24772Y25772D2*
X25272D1*
X25312Y25812D1*
X26356Y27312D2*
X26812D1*
X24772Y28227D2*
X25147D1*
X25187Y28187D1*
X24772Y29977D2*
X25147D1*
X25187Y29937D1*
X25289Y21687D2*
D14*
X25687D1*
X23402Y13519D2*
X24060D1*
X24062Y13521D1*
X25719Y13187D2*
X24396D1*
X24062Y13521D1*
X25719Y13187D2*
X25978D1*
X26312Y12853D1*
X18902Y13519D2*
Y13562D1*
X18437D1*
X17937Y30687D2*
Y31062D1*
X24102Y22397D2*
Y23147D1*
X24103D1*
X22187Y25443D2*
X22681D1*
X22812Y25312D1*
Y23437D1*
X23062Y23187D1*
X24062D1*
X24103Y23147D1*
X22187Y26722D2*
X21347D1*
X21187Y26562D1*
Y25562D1*
X21312Y25437D1*
X22181D1*
X22187Y25443D1*
X27687Y13940D2*
D15*
Y13390D1*
X27852Y13225D1*
X5937Y17437D2*
D22*
X6687D1*
X6875D1*
Y9687D1*
X7506Y9055D1*
X7677D1*
X22187Y28002D2*
D14*
X23127D1*
X23437Y28312D1*
Y29312D1*
X23687Y29562D1*
X24062D1*
Y29937D1*
X24102Y29977D1*
X24062Y28937D2*
Y29562D1*
X24102Y29977D2*
Y29102D1*
X8187Y17437D2*
D22*
X7437D1*
X7677Y9843D2*
X7437Y10083D1*
Y17437D1*
X5937Y18106D2*
D15*
Y19171D1*
X5963Y19146D1*
X8187Y18106D2*
Y19087D1*
X8246Y19146D1*
X10687Y21687D2*
X8687D1*
X8312Y22062D1*
Y23937D1*
X7437Y24812D1*
X5937Y26875D2*
X6125D1*
X7437Y25562D1*
Y24812D1*
X9843Y16142D2*
Y16929D1*
Y16142D2*
X10562D1*
Y16062D1*
X9843Y16929D2*
Y17717D1*
X9469Y15236D2*
D14*
Y14193D1*
X9449Y14173D1*
Y12992D2*
Y14173D1*
X10562Y15393D2*
D15*
X10606D1*
X10645Y15354D1*
X9587D1*
X9469Y15236D1*
X14449Y12992D2*
Y13925D1*
X14187Y14187D1*
Y14943D1*
X13815Y15315D1*
X22187Y27746D2*
D18*
X22621D1*
D14*
X23996D1*
X24062Y27812D1*
Y28187D1*
X24102Y28227D1*
X24062Y27812D2*
X24048Y27407D1*
X24102Y27352D1*
X5799Y7988D2*
D15*
X10539D1*
X19352Y25699D2*
D14*
X18824D1*
X18562Y25437D1*
Y23062D1*
X18687Y22937D1*
X19437D1*
Y22187D2*
Y22937D1*
X26459Y10225D2*
D15*
Y11084D1*
X27332Y11957D1*
X27459D1*
X26262Y10225D2*
Y11012D1*
X26334Y11084D1*
X26459D1*
X22187Y26211D2*
D18*
X22621D1*
D14*
X23288D1*
X23562Y25937D1*
Y24062D1*
X24062D1*
X24102Y24022D1*
X23213Y33937D2*
Y33713D1*
X23062Y33562D1*
Y28687D1*
Y26187D2*
X22939D1*
X23288Y26211D1*
X22187Y25699D2*
D18*
X22621D1*
D14*
X22925D1*
X23187Y25437D1*
Y23812D1*
X23437Y23562D1*
X24687D1*
X24772Y23647D1*
Y24022D1*
Y23147D2*
Y23647D1*
X22187Y25955D2*
D18*
X21753D1*
D14*
X21705D1*
X21562Y25812D1*
X22062Y23937D2*
Y24437D1*
X22187Y26467D2*
X24047D1*
X24102Y26522D1*
X24062Y24937D2*
Y25731D1*
X24102Y25772D1*
Y26522D1*
X21341Y10225D2*
D15*
Y11258D1*
X21037Y11562D1*
X19237D1*
X18937Y11862D1*
Y12815D1*
X18902Y12850D1*
X21537Y10225D2*
Y11462D1*
X21237Y11762D1*
X20740D1*
X19652Y12850D1*
X21734Y10225D2*
Y11565D1*
X21337Y11962D1*
X21290D1*
X20402Y12850D1*
X21931Y10225D2*
Y11693D1*
X21152Y12472D1*
Y12850D1*
X22522Y10225D2*
Y10937D1*
X22325D1*
Y10225D1*
X22312D1*
Y10937D2*
X22125Y11125D1*
Y12628D1*
X21902Y12850D1*
X19437Y32187D2*
Y31687D1*
X19812Y31312D1*
Y29312D1*
X19187D1*
X18937Y29562D1*
Y30187D1*
X22187Y28258D2*
X22633D1*
X22812Y28437D1*
Y28687D1*
X22687Y28812D1*
X20937D1*
X20437Y29312D1*
X19812D1*
X22187Y28514D2*
X20860D1*
X20312Y29062D1*
X18687D1*
X18437Y29312D1*
Y30187D1*
Y29437D2*
Y30187D1*
X27033Y14651D2*
X27646D1*
X27687Y14609D1*
X24772Y27352D2*
D14*
X25647D1*
X25687Y27312D1*
X24772Y29102D2*
X25397D1*
X25562Y28937D1*
Y27437D1*
X25687Y27312D1*
X22187Y26978D2*
X24398D1*
X24772Y27352D1*
X22187Y26978D2*
X21103D1*
X20937Y26812D1*
Y25312D1*
X21062Y25187D1*
X22187D1*
X5963Y20937D2*
D15*
Y23155D1*
X6744Y23937D1*
X5963Y20169D2*
X5330D1*
X5187Y20312D1*
Y23255D1*
X6744Y24812D1*
X24187Y21687D2*
X20812D1*
X20687Y21562D1*
Y27437D1*
X20740Y27490D1*
X22187D1*
X24102Y20897D2*
Y21602D1*
X24187Y21687D1*
X10687Y21187D2*
X8687D1*
X8562D1*
X7937Y21812D1*
Y23437D1*
X7437Y23937D1*
X5937Y27875D2*
X6000D1*
X8687Y25187D1*
Y22062D1*
Y21437D2*
Y21187D1*
X30312Y16687D2*
D14*
Y15687D1*
Y16687D2*
D15*
Y15687D1*
X31062Y16437D2*
X30312Y15687D1*
X31312D2*
X30312D1*
X31062Y14937D2*
X30312Y15687D1*
Y14687D2*
Y15687D1*
X29562Y14937D2*
X30312Y15687D1*
X29312D2*
X30312D1*
X29562Y16437D2*
X30312Y15687D1*
Y17312D1*
X26687Y20937D1*
X24812D1*
X24772Y20897D1*
X8246Y20425D2*
X9199D1*
X9437Y20187D1*
Y17980D1*
X9173Y17717D1*
X8246Y20681D2*
X9187D1*
Y20562D1*
Y20425D1*
X9312Y20562D2*
X9187D1*
X19352Y27490D2*
X17740D1*
X17187Y26937D1*
Y8187D1*
X17750Y7625D1*
X25375D1*
X25812Y8062D1*
X38187D1*
X39437Y6812D1*
Y6460D1*
X38710Y5733D1*
X19352Y27234D2*
X17859D1*
X17375Y26750D1*
Y8375D1*
X17937Y7812D1*
X25187D1*
X25625Y8250D1*
X38875D1*
X39812Y7312D1*
Y6600D1*
X40679Y5733D1*
X19352Y27746D2*
X17746D1*
X17000Y27000D1*
Y8000D1*
X17562Y7437D1*
X25562D1*
X26000Y7875D1*
X38000D1*
X38687Y7187D1*
Y6741D1*
X38710Y6718D1*
X19352Y28514D2*
X17889D1*
X16500Y27125D1*
Y21187D1*
X15812D2*
X12813D1*
X19352Y28258D2*
X18008D1*
X16750Y27000D1*
Y21687D1*
X15812D2*
X12813D1*
X8661Y9843D2*
D16*
Y15709D1*
X9094Y16142D1*
Y16850D1*
X9173Y16929D1*
X8246Y19913D2*
X8961D1*
X9187Y19687D1*
Y18937D1*
X8687Y18437D1*
Y17187D1*
X8937Y16937D1*
X9165D1*
X9173Y16929D1*
X6812Y23187D2*
Y22437D1*
X8246Y19913D2*
X7288D1*
X7187Y19812D1*
X6312Y22437D2*
X6812D1*
X5937Y29875D2*
D14*
X5562D1*
X5187Y29500D1*
Y24062D1*
X10449Y12992D2*
D16*
Y9661D1*
X9843Y9055D1*
X8661D1*
X10449Y12992D2*
Y13843D1*
X10412Y13879D1*
X10118Y14173D1*
X6687Y18106D2*
X7437D1*
X5963Y19913D2*
X6461D1*
X6812Y19562D1*
Y18687D1*
X6687D1*
Y18106D1*
X6812Y19562D2*
Y20062D1*
X6919Y20169D1*
X7481D1*
X8246D1*
X7437Y18687D2*
D14*
X6812D1*
X7481Y23187D2*
Y22437D1*
Y21687D1*
Y20169D1*
X10687Y20687D2*
Y19687D1*
X10937Y19437D1*
Y14187D1*
X10721D1*
X10412Y13879D1*
X17437Y32187D2*
D15*
Y32062D1*
X17687Y31812D1*
X18187D1*
X18437Y31562D1*
Y30687D1*
X19352Y25955D2*
X19370Y25937D1*
X20062D1*
X20312Y26187D1*
Y28562D1*
X20062Y28812D1*
X17312D1*
X17062Y29062D1*
Y31187D1*
X17687Y31812D1*
D54*
X24312Y11812D3*
Y9750D3*
Y11812D3*
D3*
X6437Y20425D3*
X7687Y19437D3*
X8937Y22437D3*
X18437Y17559D3*
X16750D3*
X27062Y10937D3*
X25937Y13937D3*
X18937Y23687D3*
X16062D3*
X19187Y30937D3*
X16062Y23687D3*
X6562Y19312D3*
X9937Y20937D3*
X33687Y19187D3*
X19937Y26562D3*
X17937D3*
X12937Y18687D3*
X20062Y21812D3*
X21437Y24062D3*
X25687Y24937D3*
X25812Y11062D3*
X26062Y14562D3*
X25312Y25812D3*
X25687Y24937D3*
X26812Y27312D3*
X25187Y28187D3*
X25312Y25812D3*
X25187Y29937D3*
Y28187D3*
X25687Y21687D3*
X18437Y13562D3*
X17937Y31062D3*
X23062Y28687D3*
Y26187D3*
X21562Y25812D3*
X22062Y23937D3*
X18437Y29437D3*
X8687Y22062D3*
Y21437D3*
X9312Y20562D3*
X16500Y21187D3*
X15812D3*
X16750Y21687D3*
X15812D3*
X7187Y19812D3*
X6312Y22437D3*
X5187Y24062D3*
X7437Y18687D3*
D19*
X34687Y16687D3*
Y14687D3*
X35687Y15687D3*
X33687D3*
X33937Y16437D3*
X35437D3*
Y14937D3*
X33937D3*
X39062Y16687D3*
Y14687D3*
X38062Y15687D3*
X40062D3*
X39812Y16437D3*
X38312Y14937D3*
Y16437D3*
X39812Y14937D3*
X30312Y16687D3*
Y14687D3*
X31312Y15687D3*
X29312D3*
X29562Y16437D3*
X31062D3*
Y14937D3*
X29562D3*
D26*
X6812Y23187D3*
X7481D3*
X6812Y22437D3*
X7481D3*
X6812Y21687D3*
X7481D3*
D27*
X6687Y17437D3*
Y18106D3*
X7437Y17437D3*
Y18106D3*
X10562Y16062D3*
Y15393D3*
D26*
X9449Y14173D3*
X10118D3*
X14107Y18687D3*
X13437D3*
X14187Y14187D3*
X13518D3*
X19437Y24437D3*
X20106D3*
X19437Y23687D3*
X20106D3*
X19437Y22937D3*
X20106D3*
X19437Y22187D3*
X20106D3*
X22062Y24437D3*
X21393D3*
X25687Y27312D3*
X26356D3*
X24772Y23147D3*
X24103D3*
D27*
X18902Y12850D3*
Y13519D3*
X19652Y12850D3*
Y13519D3*
X20402Y12850D3*
Y13519D3*
X21152Y12850D3*
Y13519D3*
X21902Y12850D3*
Y13519D3*
X22652Y12850D3*
Y13519D3*
X23402Y12850D3*
Y13519D3*
X26312Y13522D3*
Y12853D3*
X24062Y12852D3*
Y13521D3*
G36*
X8782Y9552D2*
X8541D1*
X8370Y9722D1*
Y9963D1*
X8541Y10134D1*
X8782D1*
X8952Y9963D1*
Y9722D1*
X8782Y9552D1*
G37*
D28*
X7677Y9843D3*
Y9055D3*
X8661D3*
D29*
X5799Y7988D3*
X10539D3*
D30*
X26852Y10225D3*
X26656D3*
X26459D3*
X26262D3*
X26065D3*
X25868D3*
X25671D3*
X25474D3*
X25278D3*
X25081D3*
X24884D3*
X24687D3*
X24490D3*
X24293D3*
X24096D3*
X23900D3*
X23703D3*
X23506D3*
X23309D3*
X23112D3*
X22915D3*
X22719D3*
X22522D3*
X22325D3*
X22128D3*
X21931D3*
X21734D3*
X21537D3*
X21341D3*
X21144D3*
D31*
X27459Y9309D3*
X20537D3*
G36*
X18782Y30187D2*
X18784Y30160D1*
X18791Y30134D1*
X18803Y30110D1*
X18818Y30087D1*
X18837Y30068D1*
X18860Y30053D1*
X18884Y30041D1*
X18910Y30034D1*
X18937Y30032D1*
D1*
X18964Y30034D1*
X18990Y30041D1*
X19015Y30053D1*
X19037Y30068D1*
X19056Y30087D1*
X19071Y30110D1*
X19083Y30134D1*
X19090Y30160D1*
X19092Y30187D1*
D1*
X19090Y30214D1*
X19083Y30240D1*
X19071Y30265D1*
X19056Y30287D1*
X19037Y30306D1*
X19015Y30321D1*
X18990Y30333D1*
X18964Y30340D1*
X18937Y30342D1*
D1*
X18910Y30340D1*
X18884Y30333D1*
X18860Y30321D1*
X18837Y30306D1*
X18818Y30287D1*
X18803Y30265D1*
X18791Y30240D1*
X18784Y30214D1*
X18782Y30187D1*
G37*
G36*
X18282D2*
X18284Y30160D1*
X18291Y30134D1*
X18303Y30110D1*
X18318Y30087D1*
X18337Y30068D1*
X18360Y30053D1*
X18384Y30041D1*
X18410Y30034D1*
X18437Y30032D1*
D1*
X18464Y30034D1*
X18490Y30041D1*
X18515Y30053D1*
X18537Y30068D1*
X18556Y30087D1*
X18571Y30110D1*
X18583Y30134D1*
X18590Y30160D1*
X18592Y30187D1*
D1*
X18590Y30214D1*
X18583Y30240D1*
X18571Y30265D1*
X18556Y30287D1*
X18537Y30306D1*
X18515Y30321D1*
X18490Y30333D1*
X18464Y30340D1*
X18437Y30342D1*
D1*
X18410Y30340D1*
X18384Y30333D1*
X18360Y30321D1*
X18337Y30306D1*
X18318Y30287D1*
X18303Y30265D1*
X18291Y30240D1*
X18284Y30214D1*
X18282Y30187D1*
G37*
G36*
X17782D2*
X17784Y30160D1*
X17791Y30134D1*
X17803Y30110D1*
X17818Y30087D1*
X17837Y30068D1*
X17860Y30053D1*
X17884Y30041D1*
X17910Y30034D1*
X17937Y30032D1*
D1*
X17964Y30034D1*
X17990Y30041D1*
X18015Y30053D1*
X18037Y30068D1*
X18056Y30087D1*
X18071Y30110D1*
X18083Y30134D1*
X18090Y30160D1*
X18092Y30187D1*
D1*
X18090Y30214D1*
X18083Y30240D1*
X18071Y30265D1*
X18056Y30287D1*
X18037Y30306D1*
X18015Y30321D1*
X17990Y30333D1*
X17964Y30340D1*
X17937Y30342D1*
D1*
X17910Y30340D1*
X17884Y30333D1*
X17860Y30321D1*
X17837Y30306D1*
X17818Y30287D1*
X17803Y30265D1*
X17791Y30240D1*
X17784Y30214D1*
X17782Y30187D1*
G37*
G36*
Y30687D2*
X17784Y30660D1*
X17791Y30634D1*
X17803Y30610D1*
X17818Y30587D1*
X17837Y30568D1*
X17860Y30553D1*
X17884Y30541D1*
X17910Y30534D1*
X17937Y30532D1*
D1*
X17964Y30534D1*
X17990Y30541D1*
X18015Y30553D1*
X18037Y30568D1*
X18056Y30587D1*
X18071Y30610D1*
X18083Y30634D1*
X18090Y30660D1*
X18092Y30687D1*
D1*
X18090Y30714D1*
X18083Y30740D1*
X18071Y30765D1*
X18056Y30787D1*
X18037Y30806D1*
X18015Y30821D1*
X17990Y30833D1*
X17964Y30840D1*
X17937Y30842D1*
D1*
X17910Y30840D1*
X17884Y30833D1*
X17860Y30821D1*
X17837Y30806D1*
X17818Y30787D1*
X17803Y30765D1*
X17791Y30740D1*
X17784Y30714D1*
X17782Y30687D1*
G37*
G36*
X18282D2*
X18284Y30660D1*
X18291Y30634D1*
X18303Y30610D1*
X18318Y30587D1*
X18337Y30568D1*
X18360Y30553D1*
X18384Y30541D1*
X18410Y30534D1*
X18437Y30532D1*
D1*
X18464Y30534D1*
X18490Y30541D1*
X18515Y30553D1*
X18537Y30568D1*
X18556Y30587D1*
X18571Y30610D1*
X18583Y30634D1*
X18590Y30660D1*
X18592Y30687D1*
D1*
X18590Y30714D1*
X18583Y30740D1*
X18571Y30765D1*
X18556Y30787D1*
X18537Y30806D1*
X18515Y30821D1*
X18490Y30833D1*
X18464Y30840D1*
X18437Y30842D1*
D1*
X18410Y30840D1*
X18384Y30833D1*
X18360Y30821D1*
X18337Y30806D1*
X18318Y30787D1*
X18303Y30765D1*
X18291Y30740D1*
X18284Y30714D1*
X18282Y30687D1*
G37*
G36*
X18782D2*
X18784Y30660D1*
X18791Y30634D1*
X18803Y30610D1*
X18818Y30587D1*
X18837Y30568D1*
X18860Y30553D1*
X18884Y30541D1*
X18910Y30534D1*
X18937Y30532D1*
D1*
X18964Y30534D1*
X18990Y30541D1*
X19015Y30553D1*
X19037Y30568D1*
X19056Y30587D1*
X19071Y30610D1*
X19083Y30634D1*
X19090Y30660D1*
X19092Y30687D1*
D1*
X19090Y30714D1*
X19083Y30740D1*
X19071Y30765D1*
X19056Y30787D1*
X19037Y30806D1*
X19015Y30821D1*
X18990Y30833D1*
X18964Y30840D1*
X18937Y30842D1*
D1*
X18910Y30840D1*
X18884Y30833D1*
X18860Y30821D1*
X18837Y30806D1*
X18818Y30787D1*
X18803Y30765D1*
X18791Y30740D1*
X18784Y30714D1*
X18782Y30687D1*
G37*
D32*
X19437Y32687D3*
D33*
Y32187D3*
X18937Y32687D3*
Y32187D3*
X18437Y32687D3*
Y32187D3*
X17937Y32687D3*
Y32187D3*
X17437Y32687D3*
Y32187D3*
D35*
X14187Y19687D3*
X13321D3*
D36*
X24062Y24937D3*
X25164D3*
X24187Y21687D3*
X25289D3*
D37*
X5963Y20937D3*
Y20681D3*
Y20425D3*
Y20169D3*
Y19913D3*
Y19657D3*
Y19402D3*
Y19146D3*
X8246D3*
Y19402D3*
Y19657D3*
Y19913D3*
Y20169D3*
Y20425D3*
Y20681D3*
Y20937D3*
D38*
X10687Y22187D3*
Y21687D3*
Y21187D3*
Y20687D3*
X12813D3*
Y21187D3*
Y21687D3*
Y22187D3*
D37*
X22187Y25187D3*
Y25443D3*
Y25699D3*
Y25955D3*
Y26211D3*
Y26467D3*
Y26722D3*
Y26978D3*
Y27234D3*
Y27490D3*
Y27746D3*
Y28002D3*
Y28258D3*
Y28514D3*
X19352D3*
Y28258D3*
Y28002D3*
Y27746D3*
Y27490D3*
Y27234D3*
Y26978D3*
Y26722D3*
Y26467D3*
Y26211D3*
Y25955D3*
Y25699D3*
Y25443D3*
Y25187D3*
G36*
X7732Y23937D2*
X7693Y23789D1*
X7585Y23681D1*
X7437Y23642D1*
X7142D1*
Y24232D1*
X7437D1*
X7585Y24193D1*
X7693Y24085D1*
X7732Y23937D1*
G37*
G36*
X6449D2*
X6489Y24085D1*
X6596Y24193D1*
X6744Y24232D1*
X7039D1*
Y23642D1*
X6744D1*
X6596Y23681D1*
X6489Y23789D1*
X6449Y23937D1*
G37*
D39*
X34687Y15687D3*
X39062D3*
X30312D3*
G36*
X7732Y24812D2*
X7693Y24664D1*
X7585Y24556D1*
X7437Y24517D1*
X7142D1*
Y25107D1*
X7437D1*
X7585Y25068D1*
X7693Y24960D1*
X7732Y24812D1*
G37*
G36*
X6449D2*
X6489Y24960D1*
X6596Y25068D1*
X6744Y25107D1*
X7039D1*
Y24517D1*
X6744D1*
X6596Y24556D1*
X6489Y24664D1*
X6449Y24812D1*
G37*
D40*
X13815Y15315D3*
Y17559D3*
D42*
X9843Y16142D3*
X9094D3*
X9469Y15236D3*
D43*
X26127Y15025D3*
Y14277D3*
X27033Y14651D3*
D44*
X23213Y33937D3*
D45*
X24213D3*
X25213D3*
D27*
X5937Y17437D3*
Y18106D3*
X8187Y17437D3*
Y18106D3*
D26*
X9843Y17717D3*
X9173D3*
X9843Y16929D3*
X9173D3*
X24772Y29977D3*
X24102D3*
X24772Y29102D3*
X24102D3*
X24772Y28227D3*
X24102D3*
X24772Y27352D3*
X24102D3*
Y26522D3*
X24772D3*
Y25772D3*
X24102D3*
X24772Y24022D3*
X24102D3*
Y22397D3*
X24772D3*
D27*
X25462Y14315D3*
Y14984D3*
D36*
X27852Y13225D3*
D46*
X27459Y11957D3*
D36*
X27065Y13224D3*
D27*
X27687Y14609D3*
Y13940D3*
D47*
X37914Y18914D3*
X35710D3*
D48*
X23812Y11437D3*
X24127D3*
X24442D3*
X24757D3*
Y12146D3*
X24442D3*
X24127D3*
X23812D3*
D26*
X24102Y20897D3*
X24772D3*
D49*
X40679Y5733D3*
X39695D3*
X38710D3*
X40679Y6718D3*
X38710D3*
D50*
X5937Y29875D3*
Y28875D3*
Y27875D3*
Y26875D3*
X13937D3*
Y27875D3*
Y28875D3*
Y29875D3*
D51*
X25719Y12813D3*
Y13187D3*
Y13561D3*
X24656D3*
Y12813D3*
D53*
X9449Y12992D3*
D50*
X10449D3*
X12449D3*
X13449D3*
X14449D3*
G36*
X7035Y23988D2*
X7146D1*
Y23886D1*
X7035D1*
Y23988D1*
G37*
G36*
Y24863D2*
X7146D1*
Y24761D1*
X7035D1*
Y24863D1*
G37*
G36*
X35247Y27757D2*
X35367Y28077D1*
X36087D1*
X36207Y27757D1*
X36127Y27597D1*
X35287D1*
D1*
X35247Y27757D1*
G37*
M02*
