G04 DipTrace 2.3.1.0*
%INreloadpro_Top.gtl*%
%MOIN*%
%ADD13C,0.014*%
%ADD14C,0.016*%
%ADD15C,0.01*%
%ADD16C,0.08*%
%ADD17C,0.0118*%
%ADD18C,0.0157*%
%ADD22R,0.0394X0.0433*%
%ADD23R,0.0433X0.0394*%
%ADD24R,0.0945X0.0299*%
%ADD26R,0.0236X0.0236*%
%ADD27R,0.0709X0.0157*%
%ADD28R,0.0787X0.0236*%
%ADD29C,0.063*%
%ADD30C,0.1299*%
%ADD31R,0.0591X0.0591*%
%ADD32R,0.315X0.0866*%
%ADD34R,0.0256X0.0413*%
%ADD35R,0.0748X0.0748*%
%ADD36C,0.0748*%
%ADD37R,0.126X0.0709*%
%ADD38R,0.0118X0.0492*%
%ADD39R,0.0787X0.1181*%
%ADD40C,0.0787*%
%ADD41C,0.0591*%
%ADD42C,0.0236*%
%FSLAX44Y44*%
G04*
G70*
G90*
G75*
G01*
%LNTop*%
%LPD*%
X8522Y19657D2*
D13*
X7907D1*
X7687Y19437D1*
X11437Y22187D2*
X10687D1*
X8522Y19657D2*
X7937D1*
Y19402D1*
X8522D1*
X5687Y20425D2*
X6437D1*
X6812Y21687D2*
D14*
Y20800D1*
X6437Y20425D1*
X14107Y18687D2*
D15*
Y17851D1*
X13815Y17559D1*
X14187Y19687D2*
Y18767D1*
X14107Y18687D1*
X13815Y17559D2*
X13065D1*
X29000Y15937D2*
Y16375D1*
X29187Y16562D1*
X29591D1*
X29787D1*
X29982D1*
X30181D1*
X30378D1*
X30575D1*
X30644D1*
X30772D1*
X30969D1*
X31165D1*
X31312D1*
X31437Y16687D1*
Y17687D1*
X30687D2*
Y16605D1*
X30644Y16562D1*
X29591Y15937D2*
Y16562D1*
X29787Y15937D2*
Y16562D1*
X30181Y15937D2*
Y16562D1*
X30378Y15937D2*
Y16562D1*
X30575Y15937D2*
Y16562D1*
X30772Y15937D2*
Y16562D1*
X30969Y15937D2*
Y16562D1*
X31165Y15937D2*
Y16562D1*
X12813Y22187D2*
X13562D1*
X13687Y22062D1*
X14187Y20187D2*
Y19687D1*
X19352Y25443D2*
X18943D1*
X18812Y25312D1*
Y24562D1*
X18937Y24437D1*
X19437D1*
Y23687D2*
Y24437D1*
X32937Y15937D2*
Y15687D1*
X32740D2*
Y15937D1*
X19352Y25443D2*
X20068D1*
X20687Y26062D1*
Y26937D1*
X17437D2*
X17062Y26562D1*
Y16187D1*
X20062Y13187D1*
X32312D1*
X32740Y13615D1*
Y15437D1*
Y15937D1*
X32937D2*
Y15437D1*
X32740D1*
X30969Y15937D2*
Y15531D1*
X31062Y15437D1*
X32562D2*
X32740D1*
X29984Y15937D2*
X29982Y16562D1*
X14812Y26937D2*
D14*
Y20812D1*
X14187Y20187D1*
X16669Y31919D2*
D15*
X17205D1*
X17437Y31687D1*
Y29187D1*
X17187Y28937D1*
X14812D1*
X32935Y19968D2*
Y20689D1*
X32812Y20812D1*
X18437D1*
X18312Y20937D1*
Y25562D1*
X18961Y26211D1*
X19352D1*
X24981Y24687D2*
D14*
X37437D1*
X24437Y49937D2*
D16*
Y32937D1*
X25937Y31437D1*
X36937D1*
X38437Y29937D1*
Y18312D1*
X39232Y17517D1*
X40437D1*
X40392Y17562D2*
D15*
X40437Y17517D1*
X22187Y26211D2*
X21336D1*
X21187Y26062D1*
Y25562D1*
X21312Y25437D1*
X22181D1*
X22187Y25443D1*
Y26211D2*
D14*
X23288D1*
X23437Y26062D1*
Y24312D1*
X23687Y24062D1*
X35187D1*
X36562Y22687D1*
Y17687D1*
X37562Y16687D1*
X40187D1*
X40437Y16937D1*
Y17517D1*
X29197Y15937D2*
D15*
Y15072D1*
X28312Y14187D1*
X20562D1*
X18062Y16687D1*
Y25687D1*
X18842Y26467D1*
X19352D1*
Y28002D2*
X19872D1*
X19937Y27937D1*
Y26562D1*
X18062D2*
X17562Y26062D1*
Y16437D1*
X20312Y13687D1*
X30812D1*
X31362Y14237D1*
Y15937D1*
X29394D2*
Y14894D1*
X28437Y13937D1*
X20437D1*
X17812Y16562D1*
Y25812D1*
X18722Y26722D1*
X19352D1*
X31559Y15937D2*
Y14059D1*
X30937Y13437D1*
X20187D1*
X17312Y16312D1*
Y26312D1*
X17978Y26978D1*
X19352D1*
X13449Y12992D2*
D14*
Y14118D1*
X13518Y14187D1*
X13321Y19687D2*
Y18803D1*
X13437Y18687D1*
X40437Y13812D2*
D16*
Y15312D1*
X28803Y15937D2*
D15*
Y16553D1*
X29062Y16812D1*
X29437D1*
X29937Y17312D1*
X30187D1*
X30312Y17437D1*
Y18312D1*
X29981D1*
X29937Y18356D1*
X31437D2*
D14*
X30687D1*
X29937D1*
X29187D1*
X28437D1*
X27687D1*
X26937D1*
X32187Y19968D2*
X31718D1*
X31437Y19687D1*
Y18356D1*
X32150Y15937D2*
D17*
Y16437D1*
X31953D1*
Y15937D1*
X20106Y22187D2*
D14*
Y22937D1*
Y23687D1*
Y24437D1*
X19352Y25187D2*
D18*
X19787D1*
D14*
X19937D1*
X20187Y24937D1*
Y24518D1*
X20106Y24437D1*
X16669Y31419D2*
Y30919D1*
Y30419D1*
Y29919D1*
X12937Y18687D2*
X13437D1*
X16669Y29919D2*
Y29437D1*
X19787Y25187D2*
X20312D1*
X12813Y20687D2*
Y20195D1*
X13321Y19687D1*
X31756Y15937D2*
D15*
Y16381D1*
X31812Y16437D1*
X31953D1*
Y15937D1*
X31812Y16437D2*
Y18187D1*
X31687Y18312D1*
X31481D1*
X31437Y18356D1*
X20106Y22187D2*
D14*
Y21856D1*
X20062Y21812D1*
X26937Y18356D2*
X26518D1*
X26437Y18437D1*
X24981Y25687D2*
D3*
X21393Y24437D2*
D15*
Y24106D1*
X21437Y24062D1*
X24981Y25687D2*
X25437D1*
X24981Y27687D2*
D14*
X25437D1*
X24981Y28687D2*
X25437D1*
X5937Y17437D2*
D15*
X6687D1*
Y10045D1*
X7677Y9055D1*
X8187Y17437D2*
X7437D1*
X7677Y9843D2*
Y17197D1*
X7437Y17437D1*
X5937Y18106D2*
Y18896D1*
X5687Y19146D1*
X8187Y18106D2*
Y18811D1*
X8522Y19146D1*
Y20425D2*
X9199D1*
X9437Y20187D1*
Y17980D1*
X9173Y17717D1*
X8522Y20681D2*
X9187D1*
Y20425D1*
X9843Y16142D2*
Y16929D1*
Y16142D2*
X10965D1*
Y16083D1*
X9843Y16929D2*
Y17717D1*
X9469Y15236D2*
D14*
Y14193D1*
X9449Y14173D1*
Y12992D2*
Y14173D1*
X10965Y15414D2*
D15*
Y15413D1*
X11024Y15354D1*
X9587D1*
X9469Y15236D1*
X14449Y12992D2*
Y13925D1*
X14187Y14187D1*
Y14943D1*
X13815Y15315D1*
X10687Y21687D2*
X9937D1*
Y23437D1*
X9562Y23812D1*
X5437D1*
X5187Y23562D1*
Y20187D1*
X5669D1*
X5687Y20169D1*
X10687Y21187D2*
X9687D1*
Y23312D1*
X9437Y23562D1*
X5937D1*
X5687Y23312D1*
Y20937D1*
X5799Y7988D2*
X10539D1*
X19352Y25699D2*
D14*
X18824D1*
X18562Y25437D1*
Y23062D1*
X18687Y22937D1*
X19437D1*
Y22187D2*
Y22937D1*
X24981Y26687D2*
Y27187D1*
X25731D1*
X25856Y27312D1*
Y29393D1*
X25437Y29812D1*
X22937D1*
X22437Y30312D1*
Y49937D1*
X22187Y26978D2*
X22978D1*
X23187Y27187D1*
X24981D1*
X22187Y26722D2*
X24277D1*
X24312Y26687D1*
X22187Y26722D2*
X21687D1*
Y26687D1*
X21562Y26562D1*
Y25812D2*
X21675Y25699D1*
X22187D1*
X22062Y24437D2*
X22437D1*
X22937Y24937D1*
Y25687D1*
X22687Y25937D1*
X22205D1*
X22187Y25955D1*
Y26467D2*
X23702D1*
X24312Y25856D1*
Y25687D1*
Y24687D2*
Y25687D1*
X22187Y27746D2*
X22687D1*
Y28002D1*
X22187D1*
X23627D1*
X24312Y28687D1*
X22187Y27234D2*
X22687D1*
Y27490D1*
X22187D1*
X24115D1*
X24312Y27687D1*
X32346Y15937D2*
D15*
Y17515D1*
X32187Y17674D1*
X32543Y15937D2*
Y17280D1*
X32937Y17674D1*
X32187Y18343D2*
Y18688D1*
X32561Y19062D1*
X32937Y18343D2*
Y18686D1*
X32561Y19062D1*
X27425Y15937D2*
Y16949D1*
X26937Y17437D1*
Y17687D1*
X27622Y15937D2*
Y17622D1*
X27687Y17687D1*
X27819Y15937D2*
Y17069D1*
X28437Y17687D1*
X28016Y15937D2*
Y16891D1*
X28437Y17312D1*
X28812D1*
X29187Y17687D1*
X28409Y15937D2*
Y16437D1*
X28606D1*
Y15937D1*
X28409D2*
Y16909D1*
X28562Y17062D1*
X29312D1*
X29937Y17687D1*
X22187Y28258D2*
X22687D1*
Y28687D1*
X19455Y31919D1*
X18205D1*
Y31419D2*
X19455D1*
X22187Y28687D1*
Y28514D1*
X12812Y5937D2*
X13062Y5687D1*
X19352Y27490D2*
X17115D1*
X16562Y26937D1*
Y8562D1*
X14687Y6687D1*
Y6312D1*
X14062Y5687D1*
X13062D1*
X19352Y27234D2*
X17234D1*
X16812Y26812D1*
Y8437D1*
X14937Y6562D1*
Y5594D1*
X15031Y5687D1*
X19352Y27746D2*
X16996D1*
X16312Y27062D1*
Y8812D1*
X14437Y6937D1*
X14062D1*
Y6695D1*
X14046Y6711D1*
X19352Y28514D2*
X12639D1*
X12312Y28187D1*
X12187D1*
Y21312D1*
X12312Y21187D1*
X12813D1*
X19352Y28258D2*
X14508D1*
X14062Y27812D1*
Y21937D1*
X13812Y21687D1*
X12813D1*
X8661Y9843D2*
D13*
Y15709D1*
X9094Y16142D1*
Y16850D1*
X9173Y16929D1*
X8522Y19913D2*
X8961D1*
X9187Y19687D1*
Y18937D1*
X8687Y18437D1*
Y17187D1*
X8937Y16937D1*
X9165D1*
X9173Y16929D1*
X6812Y23187D2*
Y22437D1*
X8522Y19913D2*
X7288D1*
X7187Y19812D1*
X6312Y22437D2*
X6812D1*
X10449Y12992D2*
Y9661D1*
X9843Y9055D1*
X8661D1*
X10449Y12992D2*
Y13843D1*
X10412Y13879D1*
X10118Y14173D1*
X6687Y18106D2*
X7437D1*
X5687Y19913D2*
X6461D1*
X6687Y19687D1*
Y18687D1*
Y18106D1*
Y19687D2*
Y19937D1*
X6919Y20169D1*
X7481D1*
X8522D1*
X7437Y18687D2*
D14*
X6687D1*
X7481Y23187D2*
Y22437D1*
Y21687D1*
Y20169D1*
X10687Y20687D2*
Y19687D1*
X11437Y18937D1*
Y14437D1*
X11187Y14187D1*
X10721D1*
X10412Y13879D1*
X19352Y25955D2*
D15*
Y25937D1*
X19937D1*
X20312Y26312D1*
Y29812D1*
X20187Y29937D1*
X18222D1*
X18205Y29919D1*
D42*
X7687Y19437D3*
X11437Y22187D3*
X6437Y20425D3*
X7687Y19437D3*
X13687Y22062D3*
X14187Y20187D3*
X20687Y26937D3*
X17437D3*
X31062Y15437D3*
X32562D3*
X14812Y26937D3*
X14187Y20187D3*
X14812Y28937D3*
X37437Y24687D3*
X19937Y26562D3*
X18062D3*
X12937Y18687D3*
X16669Y29437D3*
X12937Y18687D3*
X20062Y21812D3*
X26437Y18437D3*
X21437Y24062D3*
X25437Y25687D3*
Y27687D3*
Y25687D3*
Y28687D3*
Y27687D3*
X21562Y26562D3*
Y25812D3*
X7187Y19812D3*
X6312Y22437D3*
X7437Y18687D3*
D22*
Y17437D3*
Y18106D3*
X6687Y17437D3*
Y18106D3*
D23*
X6812Y23187D3*
X7481D3*
X6812Y22437D3*
X7481D3*
X6812Y21687D3*
X7481D3*
D22*
X10965Y16083D3*
Y15414D3*
D23*
X9449Y14173D3*
X10118D3*
X14107Y18687D3*
X13437D3*
X19437Y24437D3*
X20106D3*
X19437Y23687D3*
X20106D3*
X19437Y22937D3*
X20106D3*
X19437Y22187D3*
X20106D3*
X14187Y14187D3*
X13518D3*
X22062Y24437D3*
X21393D3*
D22*
X26937Y17687D3*
Y18356D3*
X27687Y17687D3*
Y18356D3*
X28437Y17687D3*
Y18356D3*
X29187Y17687D3*
Y18356D3*
X29937Y17687D3*
Y18356D3*
X30687Y17687D3*
Y18356D3*
X31437Y17687D3*
Y18356D3*
D24*
X16669Y31919D3*
Y31419D3*
Y30919D3*
Y30419D3*
Y29919D3*
X18205D3*
Y30419D3*
Y30919D3*
Y31419D3*
Y31919D3*
D26*
X14187Y19687D3*
X13321D3*
D27*
X5687Y20937D3*
Y20681D3*
Y20425D3*
Y20169D3*
Y19913D3*
Y19657D3*
Y19402D3*
Y19146D3*
X8522D3*
Y19402D3*
Y19657D3*
Y19913D3*
Y20169D3*
Y20425D3*
Y20681D3*
Y20937D3*
D28*
X10687Y22187D3*
Y21687D3*
Y21187D3*
Y20687D3*
X12813D3*
Y21187D3*
Y21687D3*
Y22187D3*
G36*
X8782Y9552D2*
X8541D1*
X8370Y9722D1*
Y9963D1*
X8541Y10134D1*
X8782D1*
X8952Y9963D1*
Y9722D1*
X8782Y9552D1*
G37*
D29*
X7677Y9843D3*
Y9055D3*
X8661D3*
D30*
X5799Y7988D3*
X10539D3*
D31*
X38437Y13812D3*
X40437D3*
D32*
X13815Y15315D3*
Y17559D3*
D34*
X9843Y16142D3*
X9094D3*
X9469Y15236D3*
D35*
X22437Y49937D3*
D36*
X23437D3*
X24437D3*
D34*
X32935Y19968D3*
X32187D3*
X32561Y19062D3*
D22*
X5937Y17437D3*
Y18106D3*
X8187Y17437D3*
Y18106D3*
D23*
X9843Y17717D3*
X9173D3*
X9843Y16929D3*
X9173D3*
D37*
X40437Y15312D3*
Y17517D3*
D23*
X24312Y26687D3*
X24981D3*
X24312Y24687D3*
X24981D3*
Y25687D3*
X24312D3*
X24981Y28687D3*
X24312D3*
X24981Y27687D3*
X24312D3*
D22*
X32937Y18343D3*
Y17674D3*
X32187Y18343D3*
Y17674D3*
D27*
X22187Y25187D3*
Y25443D3*
Y25699D3*
Y25955D3*
Y26211D3*
Y26467D3*
Y26722D3*
Y26978D3*
Y27234D3*
Y27490D3*
Y27746D3*
Y28002D3*
Y28258D3*
Y28514D3*
X19352D3*
Y28258D3*
Y28002D3*
Y27746D3*
Y27490D3*
Y27234D3*
Y26978D3*
Y26722D3*
Y26467D3*
Y26211D3*
Y25955D3*
Y25699D3*
Y25443D3*
Y25187D3*
D38*
X32937Y15937D3*
X32740D3*
X32543D3*
X32346D3*
X32150D3*
X31953D3*
X31756D3*
X31559D3*
X31362D3*
X31165D3*
X30969D3*
X30772D3*
X30575D3*
X30378D3*
X30181D3*
X29984D3*
X29787D3*
X29591D3*
X29394D3*
X29197D3*
X29000D3*
X28803D3*
X28606D3*
X28409D3*
X28213D3*
X28016D3*
X27819D3*
X27622D3*
X27425D3*
X27228D3*
D39*
X33543Y15022D3*
X26622D3*
D40*
X13062Y5687D3*
X14046Y6711D3*
X15031Y5687D3*
X16015Y6711D3*
X16999Y5687D3*
D31*
X9449Y12992D3*
D41*
X10449D3*
X12449D3*
X13449D3*
X14449D3*
M02*
