M48
INCH
T01C0.0118
T02C0.0197
T03C0.0295
T04C0.0354
T05C0.0362
T06C0.04
T07C0.0433
T08C0.0472
T09C0.0906
T10C0.0935
T11C0.126
%
T01
X+007687Y+019437
X+007187Y+019812
X+006437Y+020425
X+007437Y+018687
X+006312Y+022437
X+007937Y+023312
X+007937Y+024125
X+005375Y+024062
X+011437Y+022187
X+012813Y+022437
X+014625Y+022437
X+014625Y+023687
X+014562Y+024437
X+016625Y+023687
X+018937Y+023687
X+020062Y+021812
X+021437Y+024062
X+022062Y+023937
X+021562Y+025812
X+021562Y+026312
X+019937Y+026737
X+018137Y+026737
X+017937Y+029062
X+017687Y+029312
X+018562Y+029937
X+021562Y+029812
X+025187Y+029937
X+025187Y+028187
X+026812Y+027312
X+025312Y+025812
X+025687Y+024937
X+029437Y+026437
X+025377Y+017337
X+025637Y+014437
X+023137Y+015237
X+018737Y+016475
X+016637Y+015237
X+012937Y+018687
T02
X+030312Y+014687
X+029562Y+014437
X+029312Y+013687
X+029562Y+012937
X+030312Y+012687
X+031062Y+012937
X+031312Y+013687
X+031062Y+014437
X+033687Y+013687
X+033937Y+014437
X+034687Y+014687
X+035437Y+014437
X+035687Y+013687
X+035437Y+012937
X+034687Y+012687
X+033937Y+012937
T03
X+005937Y+029875
X+005937Y+028875
X+005937Y+027875
X+005937Y+026875
X+013937Y+026875
X+013937Y+027875
X+013937Y+028875
X+013937Y+029875
T04
X+009449Y+012992
X+010449Y+012992
X+012449Y+012992
X+013449Y+012992
X+014449Y+012992
T05
X+008661Y+009843
X+008661Y+009055
X+007677Y+009055
X+007677Y+009843
T06
X+018562Y+031812
X+018962Y+029812
X+018162Y+029812
T07
X+023213Y+033937
X+024213Y+033937
X+025213Y+033937
X+025213Y+042187
X+024213Y+042187
X+023213Y+042187
T08
X+037726Y+006474
X+038710Y+007498
X+039695Y+006474
X+040679Y+007498
X+041663Y+006474
T09
X+005799Y+007988
X+010539Y+007988
T10
X+019562Y+031812
X+019562Y+030567
X+017562Y+030567
X+017562Y+031817
T11
X+030312Y+013687
X+034687Y+013687
T00
M30
