G04 DipTrace 2.3.1.0*
%INreloadpro_TopPaste.gtp*%
%MOIN*%
%ADD27R,0.0709X0.0157*%
%ADD56R,0.0709X0.1102*%
%ADD58R,0.0039X0.0413*%
%ADD60R,0.1181X0.063*%
%ADD65R,0.0177X0.0335*%
%ADD67R,0.3071X0.0787*%
%ADD74R,0.063X0.0079*%
%ADD76R,0.0157X0.0157*%
%ADD78R,0.0866X0.022*%
%ADD80R,0.0354X0.0315*%
%ADD82R,0.0315X0.0354*%
%FSLAX44Y44*%
G04*
G70*
G90*
G75*
G01*
%LNTopPaste*%
%LPD*%
D82*
X7437Y17437D3*
Y18106D3*
X6687Y17437D3*
Y18106D3*
D80*
X6812Y23187D3*
X7481D3*
X6812Y22437D3*
X7481D3*
X6812Y21687D3*
X7481D3*
D82*
X10965Y16083D3*
Y15414D3*
D80*
X9449Y14173D3*
X10118D3*
X14107Y18687D3*
X13437D3*
X19437Y24437D3*
X20106D3*
X19437Y23687D3*
X20106D3*
X19437Y22937D3*
X20106D3*
X19437Y22187D3*
X20106D3*
X14187Y14187D3*
X13518D3*
X22062Y24437D3*
X21393D3*
D82*
X26937Y17687D3*
Y18356D3*
X27687Y17687D3*
Y18356D3*
X28437Y17687D3*
Y18356D3*
X29187Y17687D3*
Y18356D3*
X29937Y17687D3*
Y18356D3*
X30687Y17687D3*
Y18356D3*
X31437Y17687D3*
Y18356D3*
D78*
X16669Y31919D3*
Y31419D3*
Y30919D3*
Y30419D3*
Y29919D3*
X18205D3*
Y30419D3*
Y30919D3*
Y31419D3*
Y31919D3*
D76*
X14187Y19687D3*
X13321D3*
D74*
X5687Y20937D3*
Y20681D3*
Y20425D3*
Y20169D3*
Y19913D3*
Y19657D3*
Y19402D3*
Y19146D3*
X8522D3*
Y19402D3*
Y19657D3*
Y19913D3*
Y20169D3*
Y20425D3*
Y20681D3*
Y20937D3*
D27*
X10687Y22187D3*
Y21687D3*
Y21187D3*
Y20687D3*
X12813D3*
Y21187D3*
Y21687D3*
Y22187D3*
D67*
X13815Y15315D3*
Y17559D3*
D65*
X9843Y16142D3*
X9094D3*
X9469Y15236D3*
X32935Y19968D3*
X32187D3*
X32561Y19062D3*
D82*
X5937Y17437D3*
Y18106D3*
X8187Y17437D3*
Y18106D3*
D80*
X9843Y17717D3*
X9173D3*
X9843Y16929D3*
X9173D3*
D60*
X40437Y15312D3*
Y17517D3*
D80*
X24312Y26687D3*
X24981D3*
X24312Y24687D3*
X24981D3*
Y25687D3*
X24312D3*
X24981Y28687D3*
X24312D3*
X24981Y27687D3*
X24312D3*
D82*
X32937Y18343D3*
Y17674D3*
X32187Y18343D3*
Y17674D3*
D74*
X22187Y25187D3*
Y25443D3*
Y25699D3*
Y25955D3*
Y26211D3*
Y26467D3*
Y26722D3*
Y26978D3*
Y27234D3*
Y27490D3*
Y27746D3*
Y28002D3*
Y28258D3*
Y28514D3*
X19352D3*
Y28258D3*
Y28002D3*
Y27746D3*
Y27490D3*
Y27234D3*
Y26978D3*
Y26722D3*
Y26467D3*
Y26211D3*
Y25955D3*
Y25699D3*
Y25443D3*
Y25187D3*
D58*
X32937Y15937D3*
X32740D3*
X32543D3*
X32346D3*
X32150D3*
X31953D3*
X31756D3*
X31559D3*
X31362D3*
X31165D3*
X30969D3*
X30772D3*
X30575D3*
X30378D3*
X30181D3*
X29984D3*
X29787D3*
X29591D3*
X29394D3*
X29197D3*
X29000D3*
X28803D3*
X28606D3*
X28409D3*
X28213D3*
X28016D3*
X27819D3*
X27622D3*
X27425D3*
X27228D3*
D56*
X33543Y15022D3*
X26622D3*
M02*
