  0
SECTION
  2
HEADER
  9
$ACADVER
  1
AC1021
  9
$ACADMAINTVER
 70
    25
  9
$DWGCODEPAGE
  3
ANSI_1252
  9
$INSBASE
 10
0.0
 20
0.0
 30
0.0
  9
$EXTMIN
 10
1.000000000000000E+20
 20
1.000000000000000E+20
 30
1.000000000000000E+20
  9
$EXTMAX
 10
-1.000000000000000E+20
 20
-1.000000000000000E+20
 30
-1.000000000000000E+20
  9
$LIMMIN
 10
0.0
 20
0.0
  9
$LIMMAX
 10
420.0
 20
297.0
  9
$ORTHOMODE
 70
     0
  9
$REGENMODE
 70
     1
  9
$FILLMODE
 70
     1
  9
$QTEXTMODE
 70
     0
  9
$MIRRTEXT
 70
     1
  9
$LTSCALE
 40
1.0
  9
$ATTMODE
 70
     1
  9
$TEXTSIZE
 40
2.5
  9
$TRACEWID
 40
1.0
  9
$TEXTSTYLE
  7
Standard
  9
$CLAYER
  8
0
  9
$CELTYPE
  6
ByLayer
  9
$CECOLOR
 62
   256
  9
$CELTSCALE
 40
1.0
  9
$DISPSILH
 70
     0
  9
$DIMSCALE
 40
1.0
  9
$DIMASZ
 40
3.0
  9
$DIMEXO
 40
0.625
  9
$DIMDLI
 40
3.75
  9
$DIMRND
 40
0.0
  9
$DIMDLE
 40
0.0
  9
$DIMEXE
 40
1.25
  9
$DIMTP
 40
0.0
  9
$DIMTM
 40
0.0
  9
$DIMTXT
 40
1.336918010447422
  9
$DIMCEN
 40
2.5
  9
$DIMTSZ
 40
0.0
  9
$DIMTOL
 70
     0
  9
$DIMLIM
 70
     0
  9
$DIMTIH
 70
     0
  9
$DIMTOH
 70
     0
  9
$DIMSE1
 70
     0
  9
$DIMSE2
 70
     0
  9
$DIMTAD
 70
     1
  9
$DIMZIN
 70
     8
  9
$DIMBLK
  1

  9
$DIMASO
 70
     1
  9
$DIMSHO
 70
     1
  9
$DIMPOST
  1

  9
$DIMAPOST
  1

  9
$DIMALT
 70
     0
  9
$DIMALTD
 70
     3
  9
$DIMALTF
 40
0.03937007874016
  9
$DIMLFAC
 40
1.0
  9
$DIMTOFL
 70
     1
  9
$DIMTVP
 40
0.0
  9
$DIMTIX
 70
     0
  9
$DIMSOXD
 70
     0
  9
$DIMSAH
 70
     0
  9
$DIMBLK1
  1

  9
$DIMBLK2
  1

  9
$DIMSTYLE
  2
ISO-25
  9
$DIMCLRD
 70
     0
  9
$DIMCLRE
 70
     0
  9
$DIMCLRT
 70
     0
  9
$DIMTFAC
 40
1.0
  9
$DIMGAP
 40
0.625
  9
$DIMJUST
 70
     0
  9
$DIMSD1
 70
     0
  9
$DIMSD2
 70
     0
  9
$DIMTOLJ
 70
     0
  9
$DIMTZIN
 70
     8
  9
$DIMALTZ
 70
     0
  9
$DIMALTTZ
 70
     0
  9
$DIMUPT
 70
     0
  9
$DIMDEC
 70
     2
  9
$DIMTDEC
 70
     2
  9
$DIMALTU
 70
     2
  9
$DIMALTTD
 70
     3
  9
$DIMTXSTY
  7
Standard
  9
$DIMAUNIT
 70
     0
  9
$DIMADEC
 70
     0
  9
$DIMALTRND
 40
0.0
  9
$DIMAZIN
 70
     0
  9
$DIMDSEP
 70
    44
  9
$DIMATFIT
 70
     3
  9
$DIMFRAC
 70
     0
  9
$DIMLDRBLK
  1

  9
$DIMLUNIT
 70
     2
  9
$DIMLWD
 70
    -2
  9
$DIMLWE
 70
    -2
  9
$DIMTMOVE
 70
     0
  9
$DIMFXL
 40
1.0
  9
$DIMFXLON
 70
     0
  9
$DIMJOGANG
 40
0.7853981633974483
  9
$DIMTFILL
 70
     0
  9
$DIMTFILLCLR
 70
     0
  9
$DIMARCSYM
 70
     0
  9
$DIMLTYPE
  6

  9
$DIMLTEX1
  6

  9
$DIMLTEX2
  6

  9
$LUNITS
 70
     2
  9
$LUPREC
 70
     4
  9
$SKETCHINC
 40
1.0
  9
$FILLETRAD
 40
10.0
  9
$AUNITS
 70
     0
  9
$AUPREC
 70
     0
  9
$MENU
  1
.
  9
$ELEVATION
 40
0.0
  9
$PELEVATION
 40
0.0
  9
$THICKNESS
 40
0.0
  9
$LIMCHECK
 70
     0
  9
$CHAMFERA
 40
10.0
  9
$CHAMFERB
 40
10.0
  9
$CHAMFERC
 40
20.0
  9
$CHAMFERD
 40
0.0
  9
$SKPOLY
 70
     0
  9
$TDCREATE
 40
2456985.835758831
  9
$TDUCREATE
 40
2456985.835758831
  9
$TDUPDATE
 40
2456985.835766412
  9
$TDUUPDATE
 40
2456985.835766412
  9
$TDINDWG
 40
0.0000000116
  9
$TDUSRTIMER
 40
0.0000000116
  9
$USRTIMER
 70
     1
  9
$ANGBASE
 50
0.0
  9
$ANGDIR
 70
     0
  9
$PDMODE
 70
     0
  9
$PDSIZE
 40
0.0
  9
$PLINEWID
 40
0.0
  9
$SPLFRAME
 70
     0
  9
$SPLINETYPE
 70
     6
  9
$SPLINESEGS
 70
     8
  9
$HANDSEED
  5
234
  9
$SURFTAB1
 70
     6
  9
$SURFTAB2
 70
     6
  9
$SURFTYPE
 70
     6
  9
$SURFU
 70
     6
  9
$SURFV
 70
     6
  9
$UCSBASE
  2

  9
$UCSNAME
  2

  9
$UCSORG
 10
0.0
 20
0.0
 30
0.0
  9
$UCSXDIR
 10
1.0
 20
0.0
 30
0.0
  9
$UCSYDIR
 10
0.0
 20
1.0
 30
0.0
  9
$UCSORTHOREF
  2

  9
$UCSORTHOVIEW
 70
     0
  9
$UCSORGTOP
 10
0.0
 20
0.0
 30
0.0
  9
$UCSORGBOTTOM
 10
0.0
 20
0.0
 30
0.0
  9
$UCSORGLEFT
 10
0.0
 20
0.0
 30
0.0
  9
$UCSORGRIGHT
 10
0.0
 20
0.0
 30
0.0
  9
$UCSORGFRONT
 10
0.0
 20
0.0
 30
0.0
  9
$UCSORGBACK
 10
0.0
 20
0.0
 30
0.0
  9
$PUCSBASE
  2

  9
$PUCSNAME
  2

  9
$PUCSORG
 10
0.0
 20
0.0
 30
0.0
  9
$PUCSXDIR
 10
1.0
 20
0.0
 30
0.0
  9
$PUCSYDIR
 10
0.0
 20
1.0
 30
0.0
  9
$PUCSORTHOREF
  2

  9
$PUCSORTHOVIEW
 70
     0
  9
$PUCSORGTOP
 10
0.0
 20
0.0
 30
0.0
  9
$PUCSORGBOTTOM
 10
0.0
 20
0.0
 30
0.0
  9
$PUCSORGLEFT
 10
0.0
 20
0.0
 30
0.0
  9
$PUCSORGRIGHT
 10
0.0
 20
0.0
 30
0.0
  9
$PUCSORGFRONT
 10
0.0
 20
0.0
 30
0.0
  9
$PUCSORGBACK
 10
0.0
 20
0.0
 30
0.0
  9
$USERI1
 70
     0
  9
$USERI2
 70
     0
  9
$USERI3
 70
     0
  9
$USERI4
 70
     0
  9
$USERI5
 70
     0
  9
$USERR1
 40
0.0
  9
$USERR2
 40
0.0
  9
$USERR3
 40
0.0
  9
$USERR4
 40
0.0
  9
$USERR5
 40
0.0
  9
$WORLDVIEW
 70
     1
  9
$SHADEDGE
 70
     3
  9
$SHADEDIF
 70
    70
  9
$TILEMODE
 70
     1
  9
$MAXACTVP
 70
    64
  9
$PINSBASE
 10
0.0
 20
0.0
 30
0.0
  9
$PLIMCHECK
 70
     0
  9
$PEXTMIN
 10
1.000000000000000E+20
 20
1.000000000000000E+20
 30
1.000000000000000E+20
  9
$PEXTMAX
 10
-1.000000000000000E+20
 20
-1.000000000000000E+20
 30
-1.000000000000000E+20
  9
$PLIMMIN
 10
0.0
 20
0.0
  9
$PLIMMAX
 10
420.0
 20
297.0
  9
$UNITMODE
 70
     0
  9
$VISRETAIN
 70
     1
  9
$PLINEGEN
 70
     0
  9
$PSLTSCALE
 70
     1
  9
$TREEDEPTH
 70
  3020
  9
$CMLSTYLE
  2
Standard
  9
$CMLJUST
 70
     0
  9
$CMLSCALE
 40
20.0
  9
$PROXYGRAPHICS
 70
     1
  9
$MEASUREMENT
 70
     1
  9
$CELWEIGHT
370
    -1
  9
$ENDCAPS
280
     0
  9
$JOINSTYLE
280
     0
  9
$LWDISPLAY
290
     0
  9
$INSUNITS
 70
     4
  9
$HYPERLINKBASE
  1

  9
$STYLESHEET
  1

  9
$XEDIT
290
     1
  9
$CEPSNTYPE
380
     0
  9
$PSTYLEMODE
290
     1
  9
$FINGERPRINTGUID
  2
{7824501D-A814-4D29-8B0A-C8A9E841B152}
  9
$VERSIONGUID
  2
{FAEB1C32-E019-11D5-929B-00C0DF256EC4}
  9
$EXTNAMES
290
     1
  9
$PSVPSCALE
 40
0.0
  9
$OLESTARTUP
290
     0
  9
$SORTENTS
280
   127
  9
$INDEXCTL
280
     0
  9
$HIDETEXT
280
     1
  9
$XCLIPFRAME
290
     0
  9
$HALOGAP
280
     0
  9
$OBSCOLOR
 70
   257
  9
$OBSLTYPE
280
     0
  9
$INTERSECTIONDISPLAY
280
     0
  9
$INTERSECTIONCOLOR
 70
   257
  9
$DIMASSOC
280
     2
  9
$PROJECTNAME
  1

  9
$CAMERADISPLAY
290
     0
  9
$LENSLENGTH
 40
50.0
  9
$CAMERAHEIGHT
 40
0.0
  9
$STEPSPERSEC
 40
2.0
  9
$STEPSIZE
 40
6.0
  9
$3DDWFPREC
 40
2.0
  9
$PSOLWIDTH
 40
5.0
  9
$PSOLHEIGHT
 40
80.0
  9
$LOFTANG1
 40
1.570796326794897
  9
$LOFTANG2
 40
1.570796326794897
  9
$LOFTMAG1
 40
0.0
  9
$LOFTMAG2
 40
0.0
  9
$LOFTPARAM
 70
     7
  9
$LOFTNORMALS
280
     1
  9
$LATITUDE
 40
37.795
  9
$LONGITUDE
 40
-122.394
  9
$NORTHDIRECTION
 40
0.0
  9
$TIMEZONE
 70
 -8000
  9
$LIGHTGLYPHDISPLAY
280
     1
  9
$TILEMODELIGHTSYNCH
280
     1
  9
$SOLIDHIST
280
     1
  9
$SHOWHIST
280
     1
  9
$DWFFRAME
280
     2
  9
$DGNFRAME
280
     2
  9
$REALWORLDSCALE
290
     1
  9
$INTERFERECOLOR
 62
   256
  9
$CSHADOW
280
     0
  9
$SHADOWPLANELOCATION
 40
0.0
  0
ENDSEC
  0
SECTION
  2
CLASSES
  0
CLASS
  1
ACDBDICTIONARYWDFLT
  2
AcDbDictionaryWithDefault
  3
ObjectDBX Classes
 90
        0
 91
        4
280
     0
281
     0
  0
CLASS
  1
VISUALSTYLE
  2
AcDbVisualStyle
  3
ObjectDBX Classes
 90
     4095
 91
        4
280
     0
281
     0
  0
CLASS
  1
MATERIAL
  2
AcDbMaterial
  3
ObjectDBX Classes
 90
     1153
 91
        4
280
     0
281
     0
  0
ENDSEC
  0
SECTION
  2
TABLES
  0
TABLE
  2
VPORT
  5
8
330
0
100
AcDbSymbolTable
 70
     1
  0
VPORT
  5
29
330
8
100
AcDbSymbolTableRecord
100
AcDbViewportTableRecord
  2
*Active
 70
     0
 10
0.0
 20
0.0
 11
1.0
 21
1.0
 12
344.1869158878504
 22
148.5
 13
0.0
 23
0.0
 14
10.0
 24
10.0
 15
10.0
 25
10.0
 16
0.0
 26
0.0
 36
1.0
 17
0.0
 27
0.0
 37
0.0
 40
297.0
 41
1.972972972850329
 42
50.0
 43
0.0
 44
0.0
 50
0.0
 51
0.0
 71
     0
 72
   100
 73
     1
 74
     3
 75
     0
 76
     0
 77
     0
 78
     0
281
     0
 65
     1
110
0.0
120
0.0
130
0.0
111
1.0
121
0.0
131
0.0
112
0.0
122
1.0
132
0.0
 79
     0
146
0.0
 60
     3
 61
     5
292
     1
282
     1
141
0.0
142
0.0
 63
   250
  0
ENDTAB
  0
TABLE
  2
LTYPE
  5
5
330
0
100
AcDbSymbolTable
 70
     1
  0
LTYPE
  5
14
330
5
100
AcDbSymbolTableRecord
100
AcDbLinetypeTableRecord
  2
ByBlock
 70
     0
  3

 72
    65
 73
     0
 40
0.0
  0
LTYPE
  5
15
330
5
100
AcDbSymbolTableRecord
100
AcDbLinetypeTableRecord
  2
ByLayer
 70
     0
  3

 72
    65
 73
     0
 40
0.0
  0
LTYPE
  5
16
330
5
100
AcDbSymbolTableRecord
100
AcDbLinetypeTableRecord
  2
Continuous
 70
     0
  3
Solid line
 72
    65
 73
     0
 40
0.0
  0
ENDTAB
  0
TABLE
  2
LAYER
  5
2
330
0
100
AcDbSymbolTable
 70
     6
  0
LAYER
  5
10
330
2
100
AcDbSymbolTableRecord
100
AcDbLayerTableRecord
  2
0
 70
     0
 62
     7
  6
Continuous
370
    -3
390
F
347
3E
  0
LAYER
  5
3F
330
2
100
AcDbSymbolTableRecord
100
AcDbLayerTableRecord
  2
VISIBLE
 70
     0
 62
     7
  6
Continuous
370
     0
390
F
347
3E
  0
LAYER
  5
52
330
2
100
AcDbSymbolTableRecord
100
AcDbLayerTableRecord
  2
CENTER
 70
     0
 62
   204
  6
Continuous
370
     0
390
F
347
3E
  0
LAYER
  5
6B
330
2
100
AcDbSymbolTableRecord
100
AcDbLayerTableRecord
  2
DISSOCIATED
 70
     0
 62
     1
  6
Continuous
370
     0
390
F
347
3E
  0
LAYER
  5
7B
330
2
100
AcDbSymbolTableRecord
100
AcDbLayerTableRecord
  2
DIMENSIONS
 70
     0
 62
     7
  6
Continuous
370
     0
390
F
347
3E
  0
LAYER
  5
F5
330
2
100
AcDbSymbolTableRecord
100
AcDbLayerTableRecord
  2
CONTINUOUS
 70
     0
 62
     7
  6
Continuous
370
     0
390
F
347
3E
  0
ENDTAB
  0
TABLE
  2
STYLE
  5
3
330
0
100
AcDbSymbolTable
 70
     1
  0
STYLE
  5
11
330
3
100
AcDbSymbolTableRecord
100
AcDbTextStyleTableRecord
  2
Standard
 70
     0
 40
0.0
 41
1.0
 50
0.0
 71
     0
 42
2.5
  3
txt
  4

  0
ENDTAB
  0
TABLE
  2
VIEW
  5
6
330
0
100
AcDbSymbolTable
 70
     0
  0
ENDTAB
  0
TABLE
  2
UCS
  5
7
330
0
100
AcDbSymbolTable
 70
     0
  0
ENDTAB
  0
TABLE
  2
APPID
  5
9
330
0
100
AcDbSymbolTable
 70
     1
  0
APPID
  5
12
330
9
100
AcDbSymbolTableRecord
100
AcDbRegAppTableRecord
  2
ACAD
 70
     0
  0
ENDTAB
  0
TABLE
  2
DIMSTYLE
  5
A
330
0
100
AcDbSymbolTable
 70
     1
100
AcDbDimStyleTable
  0
DIMSTYLE
105
27
102
{ACAD_REACTORS
330
6C
330
7C
330
8B
330
9A
330
A9
330
B8
330
C7
330
D6
330
E5
330
100
330
14B
330
15A
330
169
330
178
330
187
330
196
102
}
330
A
100
AcDbSymbolTableRecord
100
AcDbDimStyleTableRecord
  2
ISO-25
 70
     0
 41
2.5
 42
0.625
 43
3.75
 44
1.25
 73
     0
 74
     0
 77
     1
 78
     8
140
2.5
141
2.5
143
0.03937007874016
147
0.625
171
     3
172
     1
178
     0
271
     2
272
     2
274
     3
278
    44
283
     0
284
     8
340
11
  0
ENDTAB
  0
TABLE
  2
BLOCK_RECORD
  5
1
330
0
100
AcDbSymbolTable
 70
    18
  0
BLOCK_RECORD
  5
1F
330
1
100
AcDbSymbolTableRecord
100
AcDbBlockTableRecord
  2
*Model_Space
340
22
 70
     0
280
     1
281
     0
  0
BLOCK_RECORD
  5
1B
330
1
100
AcDbSymbolTableRecord
100
AcDbBlockTableRecord
  2
*Paper_Space
340
1E
 70
     0
280
     1
281
     0
  0
BLOCK_RECORD
  5
23
330
1
100
AcDbSymbolTableRecord
100
AcDbBlockTableRecord
  2
*Paper_Space0
340
26
 70
     0
280
     1
281
     0
  0
BLOCK_RECORD
  5
6D
330
1
100
AcDbSymbolTableRecord
100
AcDbBlockTableRecord
  2
D1
340
0
 70
     0
280
     1
281
     0
  0
BLOCK_RECORD
  5
7D
330
1
100
AcDbSymbolTableRecord
100
AcDbBlockTableRecord
  2
D2
340
0
 70
     0
280
     1
281
     0
  0
BLOCK_RECORD
  5
8C
330
1
100
AcDbSymbolTableRecord
100
AcDbBlockTableRecord
  2
D3
340
0
 70
     0
280
     1
281
     0
  0
BLOCK_RECORD
  5
9B
330
1
100
AcDbSymbolTableRecord
100
AcDbBlockTableRecord
  2
D4
340
0
 70
     0
280
     1
281
     0
  0
BLOCK_RECORD
  5
AA
330
1
100
AcDbSymbolTableRecord
100
AcDbBlockTableRecord
  2
D5
340
0
 70
     0
280
     1
281
     0
  0
BLOCK_RECORD
  5
B9
330
1
100
AcDbSymbolTableRecord
100
AcDbBlockTableRecord
  2
D6
340
0
 70
     0
280
     1
281
     0
  0
BLOCK_RECORD
  5
C8
330
1
100
AcDbSymbolTableRecord
100
AcDbBlockTableRecord
  2
D7
340
0
 70
     0
280
     1
281
     0
  0
BLOCK_RECORD
  5
D7
330
1
100
AcDbSymbolTableRecord
100
AcDbBlockTableRecord
  2
D8
340
0
 70
     0
280
     1
281
     0
  0
BLOCK_RECORD
  5
E6
330
1
100
AcDbSymbolTableRecord
100
AcDbBlockTableRecord
  2
D9
340
0
 70
     0
280
     1
281
     0
  0
BLOCK_RECORD
  5
101
330
1
100
AcDbSymbolTableRecord
100
AcDbBlockTableRecord
  2
D10
340
0
 70
     0
280
     1
281
     0
  0
BLOCK_RECORD
  5
14C
330
1
100
AcDbSymbolTableRecord
100
AcDbBlockTableRecord
  2
D11
340
0
 70
     0
280
     1
281
     0
  0
BLOCK_RECORD
  5
15B
330
1
100
AcDbSymbolTableRecord
100
AcDbBlockTableRecord
  2
D12
340
0
 70
     0
280
     1
281
     0
  0
BLOCK_RECORD
  5
16A
330
1
100
AcDbSymbolTableRecord
100
AcDbBlockTableRecord
  2
D13
340
0
 70
     0
280
     1
281
     0
  0
BLOCK_RECORD
  5
179
330
1
100
AcDbSymbolTableRecord
100
AcDbBlockTableRecord
  2
D14
340
0
 70
     0
280
     1
281
     0
  0
BLOCK_RECORD
  5
188
330
1
100
AcDbSymbolTableRecord
100
AcDbBlockTableRecord
  2
D15
340
0
 70
     0
280
     1
281
     0
  0
BLOCK_RECORD
  5
197
330
1
100
AcDbSymbolTableRecord
100
AcDbBlockTableRecord
  2
D16
340
0
 70
     0
280
     1
281
     0
  0
BLOCK_RECORD
  5
1AC
330
1
100
AcDbSymbolTableRecord
100
AcDbBlockTableRecord
  2
BLOCK0
340
0
102
{BLKREFS
331
1AB
102
}
 70
     0
280
     1
281
     0
  0
ENDTAB
  0
ENDSEC
  0
SECTION
  2
BLOCKS
  0
BLOCK
  5
20
330
1F
100
AcDbEntity
  8
0
100
AcDbBlockBegin
  2
*Model_Space
 70
     0
 10
0.0
 20
0.0
 30
0.0
  3
*Model_Space
  1

  0
ENDBLK
  5
21
330
1F
100
AcDbEntity
  8
0
100
AcDbBlockEnd
  0
BLOCK
  5
1C
330
1B
100
AcDbEntity
 67
     1
  8
0
100
AcDbBlockBegin
  2
*Paper_Space
 70
     0
 10
0.0
 20
0.0
 30
0.0
  3
*Paper_Space
  1

  0
ENDBLK
  5
1D
330
1B
100
AcDbEntity
 67
     1
  8
0
100
AcDbBlockEnd
  0
BLOCK
  5
24
330
23
100
AcDbEntity
  8
0
100
AcDbBlockBegin
  2
*Paper_Space0
 70
     0
 10
0.0
 20
0.0
 30
0.0
  3
*Paper_Space0
  1

  0
ENDBLK
  5
25
330
23
100
AcDbEntity
  8
0
100
AcDbBlockEnd
  0
BLOCK
  5
6E
330
6D
100
AcDbEntity
  8
0
100
AcDbBlockBegin
  2
D1
 70
     0
 10
0.0
 20
0.0
 30
0.0
  3
D1
  1

  0
MTEXT
  5
70
330
6D
100
AcDbEntity
  8
DISSOCIATED
100
AcDbMText
 10
44.30752563476565
 20
106.0468139648434
 30
0.0
 40
2.134018756842158
 41
0.0
 46
0.0
 71
     5
 72
     1
  1
{\fArial|b0|i0|c0|p0;4}{\fArial|b0|i0|c0|p0;}
 11
6.123031769111886E-17
 21
1.0
 31
0.0
 73
     1
 44
1.0
  0
MTEXT
  5
71
330
6D
100
AcDbEntity
  8
DISSOCIATED
100
AcDbMText
 10
44.30752563476565
 20
106.0468139648434
 30
0.0
 40
2.134018756842158
 41
0.0
 46
0.0
 71
     5
 72
     1
  1
{\fArial|b0|i0|c0|p0;}
 11
6.123031769111886E-17
 21
1.0
 31
0.0
 73
     1
 44
1.0
  0
MTEXT
  5
72
330
6D
100
AcDbEntity
  8
DISSOCIATED
100
AcDbMText
 10
44.30752563476565
 20
106.0468139648434
 30
0.0
 40
2.134018756842158
 41
0.0
 46
0.0
 71
     5
 72
     1
  1
{\fArial|b0|i0|c0|p0;}
 11
6.123031769111886E-17
 21
1.0
 31
0.0
 73
     1
 44
1.0
  0
LINE
  5
73
330
6D
100
AcDbEntity
  8
DISSOCIATED
100
AcDbLine
 10
45.07649536429325
 20
104.2159049128207
 30
0.0
 11
44.07141452365454
 21
104.2159049128207
 31
0.0
  0
LINE
  5
74
330
6D
100
AcDbEntity
  8
DISSOCIATED
100
AcDbLine
 10
47.07649542161917
 20
106.2159048358968
 30
0.0
 11
44.07141452365454
 21
106.2159048358968
 31
0.0
  0
LWPOLYLINE
  5
75
330
6D
100
AcDbEntity
  8
DISSOCIATED
100
AcDbPolyline
 90
        4
 70
     0
 43
0.0
 10
46.07141452365454
 20
104.2159049128207
 10
46.57141452365454
 20
101.2159049128207
 10
45.57141452365454
 20
101.2159049128207
 10
46.07141452365454
 20
104.2159049128207
  0
LINE
  5
76
330
6D
100
AcDbEntity
  8
DISSOCIATED
100
AcDbLine
 10
46.07141452365454
 20
101.2159049128207
 30
0.0
 11
46.07141452365454
 21
100.6159049128207
 31
0.0
  0
LWPOLYLINE
  5
77
330
6D
100
AcDbEntity
  8
DISSOCIATED
100
AcDbPolyline
 90
        4
 70
     0
 43
0.0
 10
46.07141452365454
 20
106.2159048358968
 10
45.57141452365454
 20
109.2159048358968
 10
46.57141452365454
 20
109.2159048358968
 10
46.07141452365454
 20
106.2159048358968
  0
LINE
  5
78
330
6D
100
AcDbEntity
  8
DISSOCIATED
100
AcDbLine
 10
46.07141452365454
 20
109.2159048358968
 30
0.0
 11
46.07141452365454
 21
109.8159048358968
 31
0.0
  0
LINE
  5
79
330
6D
100
AcDbEntity
  8
DISSOCIATED
100
AcDbLine
 10
46.07141452365454
 20
108.9287582824996
 30
0.0
 11
46.07141452365454
 21
103.1648690889648
 31
0.0
  0
HATCH
  5
7A
330
6D
100
AcDbEntity
  8
0
 62
     1
100
AcDbHatch
 10
0.0
 20
0.0
 30
0.0
210
0.0
220
0.0
230
1.0
  2
SOLID
 70
     1
 71
     0
 91
        2
 92
        0
 93
        3
 72
     1
 10
45.57141452365454
 20
101.2159049128207
 11
46.07141452365454
 21
104.2159049128207
 72
     1
 10
46.07141452365454
 20
104.2159049128207
 11
46.57141452365454
 21
101.2159049128207
 72
     1
 10
46.57141452365454
 20
101.2159049128207
 11
45.57141452365454
 21
101.2159049128207
 97
        0
 92
        0
 93
        3
 72
     1
 10
46.57141452365454
 20
109.2159048358968
 11
46.07141452365454
 21
106.2159048358968
 72
     1
 10
46.07141452365454
 20
106.2159048358968
 11
45.57141452365454
 21
109.2159048358968
 72
     1
 10
45.57141452365454
 20
109.2159048358968
 11
46.57141452365454
 21
109.2159048358968
 97
        0
 75
     0
 76
     1
 98
        0
  0
ENDBLK
  5
6F
330
6D
100
AcDbEntity
  8
0
100
AcDbBlockEnd
  0
BLOCK
  5
7E
330
7D
100
AcDbEntity
  8
0
100
AcDbBlockBegin
  2
D2
 70
     0
 10
0.0
 20
0.0
 30
0.0
  3
D2
  1

  0
MTEXT
  5
80
330
7D
100
AcDbEntity
  8
DIMENSIONS
100
AcDbMText
 10
39.96640014648438
 20
113.3509292602536
 30
0.0
 40
2.134018756842158
 41
0.0
 46
0.0
 71
     5
 72
     1
  1
{\fArial|b0|i0|c0|p0;29}{\fArial|b0|i0|c0|p0;}
 11
6.123031769111886E-17
 21
1.0
 31
0.0
 73
     1
 44
1.0
  0
MTEXT
  5
81
330
7D
100
AcDbEntity
  8
DIMENSIONS
100
AcDbMText
 10
39.96640014648438
 20
113.3509292602536
 30
0.0
 40
2.134018756842158
 41
0.0
 46
0.0
 71
     5
 72
     1
  1
{\fArial|b0|i0|c0|p0;}
 11
6.123031769111886E-17
 21
1.0
 31
0.0
 73
     1
 44
1.0
  0
MTEXT
  5
82
330
7D
100
AcDbEntity
  8
DIMENSIONS
100
AcDbMText
 10
39.96640014648438
 20
113.3509292602536
 30
0.0
 40
2.134018756842158
 41
0.0
 46
0.0
 71
     5
 72
     1
  1
{\fArial|b0|i0|c0|p0;}
 11
6.123031769111886E-17
 21
1.0
 31
0.0
 73
     1
 44
1.0
  0
LINE
  5
83
330
7D
100
AcDbEntity
  8
DIMENSIONS
100
AcDbLine
 10
45.07649536429325
 20
104.2159049128207
 30
0.0
 11
39.73028903537327
 21
104.2159049128207
 31
0.0
  0
LINE
  5
84
330
7D
100
AcDbEntity
  8
DIMENSIONS
100
AcDbLine
 10
57.32649566748833
 20
118.7159049104026
 30
0.0
 11
39.73028903537327
 21
118.7159049104026
 31
0.0
  0
LWPOLYLINE
  5
85
330
7D
100
AcDbEntity
  8
DIMENSIONS
100
AcDbPolyline
 90
        4
 70
     0
 43
0.0
 10
41.73028903537327
 20
104.2159049128207
 10
41.23028903537327
 20
107.2159049128207
 10
42.23028903537327
 20
107.2159049128207
 10
41.73028903537327
 20
104.2159049128207
  0
LINE
  5
86
330
7D
100
AcDbEntity
  8
DIMENSIONS
100
AcDbLine
 10
41.73028903537327
 20
107.2159049128207
 30
0.0
 11
41.73028903537327
 21
113.3509292602536
 31
0.0
  0
LWPOLYLINE
  5
87
330
7D
100
AcDbEntity
  8
DIMENSIONS
100
AcDbPolyline
 90
        4
 70
     0
 43
0.0
 10
41.73028903537327
 20
118.7159049104026
 10
42.23028903537327
 20
115.7159049104026
 10
41.23028903537327
 20
115.7159049104026
 10
41.73028903537327
 20
118.7159049104026
  0
LINE
  5
88
330
7D
100
AcDbEntity
  8
DIMENSIONS
100
AcDbLine
 10
41.73028903537327
 20
115.7159049104026
 30
0.0
 11
41.73028903537327
 21
113.3509292602536
 31
0.0
  0
LINE
  5
89
330
7D
100
AcDbEntity
  8
DIMENSIONS
100
AcDbLine
 10
41.73028903537327
 20
117.114817876654
 30
0.0
 11
41.73028903537327
 21
109.5870406816772
 31
0.0
  0
HATCH
  5
8A
330
7D
100
AcDbEntity
  8
0
 62
     7
100
AcDbHatch
 10
0.0
 20
0.0
 30
0.0
210
0.0
220
0.0
230
1.0
  2
SOLID
 70
     1
 71
     0
 91
        2
 92
        0
 93
        3
 72
     1
 10
42.23028903537327
 20
107.2159049128207
 11
41.73028903537327
 21
104.2159049128207
 72
     1
 10
41.73028903537327
 20
104.2159049128207
 11
41.23028903537327
 21
107.2159049128207
 72
     1
 10
41.23028903537327
 20
107.2159049128207
 11
42.23028903537327
 21
107.2159049128207
 97
        0
 92
        0
 93
        3
 72
     1
 10
41.23028903537327
 20
115.7159049104026
 11
41.73028903537327
 21
118.7159049104026
 72
     1
 10
41.73028903537327
 20
118.7159049104026
 11
42.23028903537327
 21
115.7159049104026
 72
     1
 10
42.23028903537327
 20
115.7159049104026
 11
41.23028903537327
 21
115.7159049104026
 97
        0
 75
     0
 76
     1
 98
        0
  0
ENDBLK
  5
7F
330
7D
100
AcDbEntity
  8
0
100
AcDbBlockEnd
  0
BLOCK
  5
8D
330
8C
100
AcDbEntity
  8
0
100
AcDbBlockBegin
  2
D3
 70
     0
 10
0.0
 20
0.0
 30
0.0
  3
D3
  1

  0
MTEXT
  5
8F
330
8C
100
AcDbEntity
  8
DISSOCIATED
100
AcDbMText
 10
35.62527084350589
 20
119.0012893676755
 30
0.0
 40
2.134018756842158
 41
0.0
 46
0.0
 71
     5
 72
     1
  1
{\fArial|b0|i0|c0|p0;54}{\fArial|b0|i0|c0|p0;}
 11
6.123031769111886E-17
 21
1.0
 31
0.0
 73
     1
 44
1.0
  0
MTEXT
  5
90
330
8C
100
AcDbEntity
  8
DISSOCIATED
100
AcDbMText
 10
35.62527084350589
 20
119.0012893676755
 30
0.0
 40
2.134018756842158
 41
0.0
 46
0.0
 71
     5
 72
     1
  1
{\fArial|b0|i0|c0|p0;}
 11
6.123031769111886E-17
 21
1.0
 31
0.0
 73
     1
 44
1.0
  0
MTEXT
  5
91
330
8C
100
AcDbEntity
  8
DISSOCIATED
100
AcDbMText
 10
35.62527084350589
 20
119.0012893676755
 30
0.0
 40
2.134018756842158
 41
0.0
 46
0.0
 71
     5
 72
     1
  1
{\fArial|b0|i0|c0|p0;}
 11
6.123031769111886E-17
 21
1.0
 31
0.0
 73
     1
 44
1.0
  0
LINE
  5
92
330
8C
100
AcDbEntity
  8
DISSOCIATED
100
AcDbLine
 10
45.07649536429325
 20
104.2159049128207
 30
0.0
 11
35.38915973239479
 21
104.2159049128207
 31
0.0
  0
LINE
  5
93
330
8C
100
AcDbEntity
  8
DISSOCIATED
100
AcDbLine
 10
44.08899536429325
 20
131.2159049128207
 30
0.0
 11
35.38915973239479
 21
131.2159049128207
 31
0.0
  0
LWPOLYLINE
  5
94
330
8C
100
AcDbEntity
  8
DISSOCIATED
100
AcDbPolyline
 90
        4
 70
     0
 43
0.0
 10
37.38915973239479
 20
104.2159049128207
 10
36.88915973239479
 20
107.2159049128207
 10
37.88915973239479
 20
107.2159049128207
 10
37.38915973239479
 20
104.2159049128207
  0
LINE
  5
95
330
8C
100
AcDbEntity
  8
DISSOCIATED
100
AcDbLine
 10
37.38915973239479
 20
107.2159049128207
 30
0.0
 11
37.38915973239479
 21
119.0012893676755
 31
0.0
  0
LWPOLYLINE
  5
96
330
8C
100
AcDbEntity
  8
DISSOCIATED
100
AcDbPolyline
 90
        4
 70
     0
 43
0.0
 10
37.38915973239479
 20
131.2159049128207
 10
37.88915973239479
 20
128.2159049128207
 10
36.88915973239479
 20
128.2159049128207
 10
37.38915973239479
 20
131.2159049128207
  0
LINE
  5
97
330
8C
100
AcDbEntity
  8
DISSOCIATED
100
AcDbLine
 10
37.38915973239479
 20
128.2159049128207
 30
0.0
 11
37.38915973239479
 21
119.0012893676755
 31
0.0
  0
LINE
  5
98
330
8C
100
AcDbEntity
  8
DISSOCIATED
100
AcDbLine
 10
37.38915973239479
 20
122.7651787589362
 30
0.0
 11
37.38915973239479
 21
115.2374003718665
 31
0.0
  0
HATCH
  5
99
330
8C
100
AcDbEntity
  8
0
 62
     1
100
AcDbHatch
 10
0.0
 20
0.0
 30
0.0
210
0.0
220
0.0
230
1.0
  2
SOLID
 70
     1
 71
     0
 91
        2
 92
        0
 93
        3
 72
     1
 10
37.88915973239479
 20
107.2159049128207
 11
37.38915973239479
 21
104.2159049128207
 72
     1
 10
37.38915973239479
 20
104.2159049128207
 11
36.88915973239479
 21
107.2159049128207
 72
     1
 10
36.88915973239479
 20
107.2159049128207
 11
37.88915973239479
 21
107.2159049128207
 97
        0
 92
        0
 93
        3
 72
     1
 10
36.88915973239479
 20
128.2159049128207
 11
37.38915973239479
 21
131.2159049128207
 72
     1
 10
37.38915973239479
 20
131.2159049128207
 11
37.88915973239479
 21
128.2159049128207
 72
     1
 10
37.88915973239479
 20
128.2159049128207
 11
36.88915973239479
 21
128.2159049128207
 97
        0
 75
     0
 76
     1
 98
        0
  0
ENDBLK
  5
8E
330
8C
100
AcDbEntity
  8
0
100
AcDbBlockEnd
  0
BLOCK
  5
9C
330
9B
100
AcDbEntity
  8
0
100
AcDbBlockBegin
  2
D4
 70
     0
 10
0.0
 20
0.0
 30
0.0
  3
D4
  1

  0
MTEXT
  5
9E
330
9B
100
AcDbEntity
  8
DIMENSIONS
100
AcDbMText
 10
31.49086761474609
 20
120.72395324707
 30
0.0
 40
2.134018756842158
 41
0.0
 46
0.0
 71
     5
 72
     1
  1
{\fArial|b0|i0|c0|p0;58}{\fArial|b0|i0|c0|p0;}
 11
6.123031769111886E-17
 21
1.0
 31
0.0
 73
     1
 44
1.0
  0
MTEXT
  5
9F
330
9B
100
AcDbEntity
  8
DIMENSIONS
100
AcDbMText
 10
31.49086761474609
 20
120.72395324707
 30
0.0
 40
2.134018756842158
 41
0.0
 46
0.0
 71
     5
 72
     1
  1
{\fArial|b0|i0|c0|p0;}
 11
6.123031769111886E-17
 21
1.0
 31
0.0
 73
     1
 44
1.0
  0
MTEXT
  5
A0
330
9B
100
AcDbEntity
  8
DIMENSIONS
100
AcDbMText
 10
31.49086761474609
 20
120.72395324707
 30
0.0
 40
2.134018756842158
 41
0.0
 46
0.0
 71
     5
 72
     1
  1
{\fArial|b0|i0|c0|p0;}
 11
6.123031769111886E-17
 21
1.0
 31
0.0
 73
     1
 44
1.0
  0
LINE
  5
A1
330
9B
100
AcDbEntity
  8
DIMENSIONS
100
AcDbLine
 10
45.07649536429325
 20
104.2159049128207
 30
0.0
 11
31.25475650363498
 21
104.2159049128207
 31
0.0
  0
LINE
  5
A2
330
9B
100
AcDbEntity
  8
DIMENSIONS
100
AcDbLine
 10
45.07649536429325
 20
133.2159049128207
 30
0.0
 11
31.25475650363498
 21
133.2159049128207
 31
0.0
  0
LWPOLYLINE
  5
A3
330
9B
100
AcDbEntity
  8
DIMENSIONS
100
AcDbPolyline
 90
        4
 70
     0
 43
0.0
 10
33.25475650363499
 20
104.2159049128207
 10
32.75475650363499
 20
107.2159049128207
 10
33.75475650363499
 20
107.2159049128207
 10
33.25475650363499
 20
104.2159049128207
  0
LINE
  5
A4
330
9B
100
AcDbEntity
  8
DIMENSIONS
100
AcDbLine
 10
33.25475650363498
 20
107.2159049128207
 30
0.0
 11
33.25475650363498
 21
120.72395324707
 31
0.0
  0
LWPOLYLINE
  5
A5
330
9B
100
AcDbEntity
  8
DIMENSIONS
100
AcDbPolyline
 90
        4
 70
     0
 43
0.0
 10
33.25475650363498
 20
133.2159049128207
 10
33.75475650363498
 20
130.2159049128207
 10
32.75475650363498
 20
130.2159049128207
 10
33.25475650363498
 20
133.2159049128207
  0
LINE
  5
A6
330
9B
100
AcDbEntity
  8
DIMENSIONS
100
AcDbLine
 10
33.25475650363498
 20
130.2159049128207
 30
0.0
 11
33.25475650363498
 21
120.72395324707
 31
0.0
  0
LINE
  5
A7
330
9B
100
AcDbEntity
  8
DIMENSIONS
100
AcDbLine
 10
33.25475650363498
 20
124.4878418038657
 30
0.0
 11
33.25475650363498
 21
116.9600646088889
 31
0.0
  0
HATCH
  5
A8
330
9B
100
AcDbEntity
  8
0
 62
     7
100
AcDbHatch
 10
0.0
 20
0.0
 30
0.0
210
0.0
220
0.0
230
1.0
  2
SOLID
 70
     1
 71
     0
 91
        2
 92
        0
 93
        3
 72
     1
 10
33.75475650363499
 20
107.2159049128207
 11
33.25475650363499
 21
104.2159049128207
 72
     1
 10
33.25475650363499
 20
104.2159049128207
 11
32.75475650363499
 21
107.2159049128207
 72
     1
 10
32.75475650363499
 20
107.2159049128207
 11
33.75475650363499
 21
107.2159049128207
 97
        0
 92
        0
 93
        3
 72
     1
 10
32.75475650363498
 20
130.2159049128207
 11
33.25475650363498
 21
133.2159049128207
 72
     1
 10
33.25475650363498
 20
133.2159049128207
 11
33.75475650363498
 21
130.2159049128207
 72
     1
 10
33.75475650363498
 20
130.2159049128207
 11
32.75475650363498
 21
130.2159049128207
 97
        0
 75
     0
 76
     1
 98
        0
  0
ENDBLK
  5
9D
330
9B
100
AcDbEntity
  8
0
100
AcDbBlockEnd
  0
BLOCK
  5
AB
330
AA
100
AcDbEntity
  8
0
100
AcDbBlockBegin
  2
D5
 70
     0
 10
0.0
 20
0.0
 30
0.0
  3
D5
  1

  0
MTEXT
  5
AD
330
AA
100
AcDbEntity
  8
DISSOCIATED
100
AcDbMText
 10
48.28179550170901
 20
102.0883102416989
 30
0.0
 40
2.134018756842158
 41
0.0
 46
0.0
 71
     5
 72
     1
  1
{\fArial|b0|i0|c0|p0;4}{\fArial|b0|i0|c0|p0;}
 73
     1
 44
1.0
  0
MTEXT
  5
AE
330
AA
100
AcDbEntity
  8
DISSOCIATED
100
AcDbMText
 10
48.28179550170901
 20
102.0883102416989
 30
0.0
 40
2.134018756842158
 41
0.0
 46
0.0
 71
     5
 72
     1
  1
{\fArial|b0|i0|c0|p0;}
 73
     1
 44
1.0
  0
MTEXT
  5
AF
330
AA
100
AcDbEntity
  8
DISSOCIATED
100
AcDbMText
 10
48.28179550170901
 20
102.0883102416989
 30
0.0
 40
2.134018756842158
 41
0.0
 46
0.0
 71
     5
 72
     1
  1
{\fArial|b0|i0|c0|p0;}
 73
     1
 44
1.0
  0
LINE
  5
B0
330
AA
100
AcDbEntity
  8
DISSOCIATED
100
AcDbLine
 10
47.07649536429325
 20
102.2159049128207
 30
0.0
 11
47.07649536429325
 21
98.32442135281002
 31
0.0
  0
LINE
  5
B1
330
AA
100
AcDbEntity
  8
DISSOCIATED
100
AcDbLine
 10
49.07649542161917
 20
104.2159048358968
 30
0.0
 11
49.07649542161917
 21
98.32442135281002
 31
0.0
  0
LWPOLYLINE
  5
B2
330
AA
100
AcDbEntity
  8
DISSOCIATED
100
AcDbPolyline
 90
        4
 70
     0
 43
0.0
 10
47.07649536429325
 20
100.32442135281
 10
44.07649536429325
 20
99.82442135281002
 10
44.07649536429325
 20
100.82442135281
 10
47.07649536429325
 20
100.32442135281
  0
LINE
  5
B3
330
AA
100
AcDbEntity
  8
DISSOCIATED
100
AcDbLine
 10
44.07649536429325
 20
100.32442135281
 30
0.0
 11
43.47649536429325
 21
100.32442135281
 31
0.0
  0
LWPOLYLINE
  5
B4
330
AA
100
AcDbEntity
  8
DISSOCIATED
100
AcDbPolyline
 90
        4
 70
     0
 43
0.0
 10
49.07649542161917
 20
100.32442135281
 10
52.07649542161917
 20
100.82442135281
 10
52.07649542161917
 20
99.82442135281002
 10
49.07649542161917
 20
100.32442135281
  0
LINE
  5
B5
330
AA
100
AcDbEntity
  8
DISSOCIATED
100
AcDbLine
 10
52.07649542161917
 20
100.32442135281
 30
0.0
 11
52.67649542161917
 21
100.32442135281
 31
0.0
  0
LINE
  5
B6
330
AA
100
AcDbEntity
  8
DISSOCIATED
100
AcDbLine
 10
51.16374011853432
 20
100.32442135281
 30
0.0
 11
45.39985122302269
 21
100.32442135281
 31
0.0
  0
HATCH
  5
B7
330
AA
100
AcDbEntity
  8
0
 62
     1
100
AcDbHatch
 10
0.0
 20
0.0
 30
0.0
210
0.0
220
0.0
230
1.0
  2
SOLID
 70
     1
 71
     0
 91
        2
 92
        0
 93
        3
 72
     1
 10
44.07649536429325
 20
100.82442135281
 11
47.07649536429325
 21
100.32442135281
 72
     1
 10
47.07649536429325
 20
100.32442135281
 11
44.07649536429325
 21
99.82442135281002
 72
     1
 10
44.07649536429325
 20
99.82442135281002
 11
44.07649536429325
 21
100.82442135281
 97
        0
 92
        0
 93
        3
 72
     1
 10
52.07649542161917
 20
99.82442135281002
 11
49.07649542161917
 21
100.32442135281
 72
     1
 10
49.07649542161917
 20
100.32442135281
 11
52.07649542161917
 21
100.82442135281
 72
     1
 10
52.07649542161917
 20
100.82442135281
 11
52.07649542161917
 21
99.82442135281002
 97
        0
 75
     0
 76
     1
 98
        0
  0
ENDBLK
  5
AC
330
AA
100
AcDbEntity
  8
0
100
AcDbBlockEnd
  0
BLOCK
  5
BA
330
B9
100
AcDbEntity
  8
0
100
AcDbBlockBegin
  2
D6
 70
     0
 10
0.0
 20
0.0
 30
0.0
  3
D6
  1

  0
MTEXT
  5
BC
330
B9
100
AcDbEntity
  8
DIMENSIONS
100
AcDbMText
 10
53.21905899047852
 20
96.86062622070281
 30
0.0
 40
2.134018756842158
 41
0.0
 46
0.0
 71
     5
 72
     1
  1
{\fArial|b0|i0|c0|p0;24.5}{\fArial|b0|i0|c0|p0;}
 73
     1
 44
1.0
  0
MTEXT
  5
BD
330
B9
100
AcDbEntity
  8
DIMENSIONS
100
AcDbMText
 10
53.21905899047852
 20
96.86062622070281
 30
0.0
 40
2.134018756842158
 41
0.0
 46
0.0
 71
     5
 72
     1
  1
{\fArial|b0|i0|c0|p0;}
 73
     1
 44
1.0
  0
MTEXT
  5
BE
330
B9
100
AcDbEntity
  8
DIMENSIONS
100
AcDbMText
 10
53.21905899047852
 20
96.86062622070281
 30
0.0
 40
2.134018756842158
 41
0.0
 46
0.0
 71
     5
 72
     1
  1
{\fArial|b0|i0|c0|p0;}
 73
     1
 44
1.0
  0
LINE
  5
BF
330
B9
100
AcDbEntity
  8
DIMENSIONS
100
AcDbLine
 10
47.07649536429325
 20
102.2159049128207
 30
0.0
 11
47.07649536429325
 21
93.09673733181393
 31
0.0
  0
LINE
  5
C0
330
B9
100
AcDbEntity
  8
DIMENSIONS
100
AcDbLine
 10
59.32649566748833
 20
116.7159049104026
 30
0.0
 11
59.32649566748833
 21
93.09673733181393
 31
0.0
  0
LWPOLYLINE
  5
C1
330
B9
100
AcDbEntity
  8
DIMENSIONS
100
AcDbPolyline
 90
        4
 70
     0
 43
0.0
 10
47.07649536429325
 20
95.09673733181393
 10
50.07649536429325
 20
95.59673733181393
 10
50.07649536429325
 20
94.59673733181393
 10
47.07649536429325
 20
95.09673733181393
  0
LINE
  5
C2
330
B9
100
AcDbEntity
  8
DIMENSIONS
100
AcDbLine
 10
50.07649536429325
 20
95.09673733181393
 30
0.0
 11
53.21905899047852
 21
95.09673733181393
 31
0.0
  0
LWPOLYLINE
  5
C3
330
B9
100
AcDbEntity
  8
DIMENSIONS
100
AcDbPolyline
 90
        4
 70
     0
 43
0.0
 10
59.32649566748833
 20
95.09673733181393
 10
56.32649566748833
 20
94.59673733181393
 10
56.32649566748833
 20
95.59673733181393
 10
59.32649566748833
 20
95.09673733181393
  0
LINE
  5
C4
330
B9
100
AcDbEntity
  8
DIMENSIONS
100
AcDbLine
 10
56.32649566748833
 20
95.09673733181393
 30
0.0
 11
53.21905899047852
 21
95.09673733181393
 31
0.0
  0
LINE
  5
C5
330
B9
100
AcDbEntity
  8
DIMENSIONS
100
AcDbLine
 10
58.39405890324807
 20
95.09673733181393
 30
0.0
 11
48.0440589986155
 21
95.09673733181393
 31
0.0
  0
HATCH
  5
C6
330
B9
100
AcDbEntity
  8
0
 62
     7
100
AcDbHatch
 10
0.0
 20
0.0
 30
0.0
210
0.0
220
0.0
230
1.0
  2
SOLID
 70
     1
 71
     0
 91
        2
 92
        0
 93
        3
 72
     1
 10
50.07649536429325
 20
94.59673733181393
 11
47.07649536429325
 21
95.09673733181393
 72
     1
 10
47.07649536429325
 20
95.09673733181393
 11
50.07649536429325
 21
95.59673733181393
 72
     1
 10
50.07649536429325
 20
95.59673733181393
 11
50.07649536429325
 21
94.59673733181393
 97
        0
 92
        0
 93
        3
 72
     1
 10
56.32649566748833
 20
95.59673733181393
 11
59.32649566748833
 21
95.09673733181393
 72
     1
 10
59.32649566748833
 20
95.09673733181393
 11
56.32649566748833
 21
94.59673733181393
 72
     1
 10
56.32649566748833
 20
94.59673733181393
 11
56.32649566748833
 21
95.59673733181393
 97
        0
 75
     0
 76
     1
 98
        0
  0
ENDBLK
  5
BB
330
B9
100
AcDbEntity
  8
0
100
AcDbBlockEnd
  0
BLOCK
  5
C9
330
C8
100
AcDbEntity
  8
0
100
AcDbBlockBegin
  2
D7
 70
     0
 10
0.0
 20
0.0
 30
0.0
  3
D7
  1

  0
MTEXT
  5
CB
330
C8
100
AcDbEntity
  8
DIMENSIONS
100
AcDbMText
 10
65.02976226806645
 20
93.37549591064422
 30
0.0
 40
2.134018756842158
 41
0.0
 46
0.0
 71
     5
 72
     1
  1
{\fArial|b0|i0|c0|p0;69}{\fArial|b0|i0|c0|p0;}
 73
     1
 44
1.0
  0
MTEXT
  5
CC
330
C8
100
AcDbEntity
  8
DIMENSIONS
100
AcDbMText
 10
65.02976226806645
 20
93.37549591064422
 30
0.0
 40
2.134018756842158
 41
0.0
 46
0.0
 71
     5
 72
     1
  1
{\fArial|b0|i0|c0|p0;}
 73
     1
 44
1.0
  0
MTEXT
  5
CD
330
C8
100
AcDbEntity
  8
DIMENSIONS
100
AcDbMText
 10
65.02976226806645
 20
93.37549591064422
 30
0.0
 40
2.134018756842158
 41
0.0
 46
0.0
 71
     5
 72
     1
  1
{\fArial|b0|i0|c0|p0;}
 73
     1
 44
1.0
  0
LINE
  5
CE
330
C8
100
AcDbEntity
  8
DIMENSIONS
100
AcDbLine
 10
47.07649536429325
 20
102.2159049128207
 30
0.0
 11
47.07649536429325
 21
89.61160702175533
 31
0.0
  0
LINE
  5
CF
330
C8
100
AcDbEntity
  8
DIMENSIONS
100
AcDbLine
 10
81.57649536429325
 20
105.3784049128207
 30
0.0
 11
81.57649536429325
 21
89.61160702175533
 31
0.0
  0
LWPOLYLINE
  5
D0
330
C8
100
AcDbEntity
  8
DIMENSIONS
100
AcDbPolyline
 90
        4
 70
     0
 43
0.0
 10
47.07649536429325
 20
91.61160702175532
 10
50.07649536429325
 20
92.11160702175532
 10
50.07649536429325
 20
91.11160702175533
 10
47.07649536429325
 20
91.61160702175532
  0
LINE
  5
D1
330
C8
100
AcDbEntity
  8
DIMENSIONS
100
AcDbLine
 10
50.07649536429325
 20
91.61160702175533
 30
0.0
 11
65.02976226806645
 21
91.61160702175533
 31
0.0
  0
LWPOLYLINE
  5
D2
330
C8
100
AcDbEntity
  8
DIMENSIONS
100
AcDbPolyline
 90
        4
 70
     0
 43
0.0
 10
81.57649536429325
 20
91.61160702175533
 10
78.57649536429325
 20
91.11160702175533
 10
78.57649536429325
 20
92.11160702175533
 10
81.57649536429325
 20
91.61160702175533
  0
LINE
  5
D3
330
C8
100
AcDbEntity
  8
DIMENSIONS
100
AcDbLine
 10
78.57649536429325
 20
91.61160702175533
 30
0.0
 11
65.02976226806645
 21
91.61160702175533
 31
0.0
  0
LINE
  5
D4
330
C8
100
AcDbEntity
  8
DIMENSIONS
100
AcDbLine
 10
68.79365052798485
 20
91.61160702175533
 30
0.0
 11
61.26587333300805
 21
91.61160702175533
 31
0.0
  0
HATCH
  5
D5
330
C8
100
AcDbEntity
  8
0
 62
     7
100
AcDbHatch
 10
0.0
 20
0.0
 30
0.0
210
0.0
220
0.0
230
1.0
  2
SOLID
 70
     1
 71
     0
 91
        2
 92
        0
 93
        3
 72
     1
 10
50.07649536429325
 20
91.11160702175533
 11
47.07649536429325
 21
91.61160702175532
 72
     1
 10
47.07649536429325
 20
91.61160702175532
 11
50.07649536429325
 21
92.11160702175532
 72
     1
 10
50.07649536429325
 20
92.11160702175532
 11
50.07649536429325
 21
91.11160702175533
 97
        0
 92
        0
 93
        3
 72
     1
 10
78.57649536429325
 20
92.11160702175533
 11
81.57649536429325
 21
91.61160702175533
 72
     1
 10
81.57649536429325
 20
91.61160702175533
 11
78.57649536429325
 21
91.11160702175533
 72
     1
 10
78.57649536429325
 20
91.11160702175533
 11
78.57649536429325
 21
92.11160702175533
 97
        0
 75
     0
 76
     1
 98
        0
  0
ENDBLK
  5
CA
330
C8
100
AcDbEntity
  8
0
100
AcDbBlockEnd
  0
BLOCK
  5
D8
330
D7
100
AcDbEntity
  8
0
100
AcDbBlockBegin
  2
D8
 70
     0
 10
0.0
 20
0.0
 30
0.0
  3
D8
  1

  0
MTEXT
  5
DA
330
D7
100
AcDbEntity
  8
DIMENSIONS
100
AcDbMText
 10
72.29044342041018
 20
87.95419311523406
 30
0.0
 40
2.134018756842158
 41
0.0
 46
0.0
 71
     5
 72
     1
  1
{\fArial|b0|i0|c0|p0;93.5}{\fArial|b0|i0|c0|p0;}
 73
     1
 44
1.0
  0
MTEXT
  5
DB
330
D7
100
AcDbEntity
  8
DIMENSIONS
100
AcDbMText
 10
72.29044342041018
 20
87.95419311523406
 30
0.0
 40
2.134018756842158
 41
0.0
 46
0.0
 71
     5
 72
     1
  1
{\fArial|b0|i0|c0|p0;}
 73
     1
 44
1.0
  0
MTEXT
  5
DC
330
D7
100
AcDbEntity
  8
DIMENSIONS
100
AcDbMText
 10
72.29044342041018
 20
87.95419311523406
 30
0.0
 40
2.134018756842158
 41
0.0
 46
0.0
 71
     5
 72
     1
  1
{\fArial|b0|i0|c0|p0;}
 73
     1
 44
1.0
  0
LINE
  5
DD
330
D7
100
AcDbEntity
  8
DIMENSIONS
100
AcDbLine
 10
47.07649536429325
 20
102.2159049128207
 30
0.0
 11
47.07649536429325
 21
84.19030422634516
 31
0.0
  0
LINE
  5
DE
330
D7
100
AcDbEntity
  8
DIMENSIONS
100
AcDbLine
 10
93.82649536429324
 20
102.2159049128207
 30
0.0
 11
93.82649536429324
 21
84.19030422634516
 31
0.0
  0
LWPOLYLINE
  5
DF
330
D7
100
AcDbEntity
  8
DIMENSIONS
100
AcDbPolyline
 90
        4
 70
     0
 43
0.0
 10
47.07649536429325
 20
86.19030422634518
 10
50.07649536429325
 20
86.69030422634518
 10
50.07649536429325
 20
85.69030422634518
 10
47.07649536429325
 20
86.19030422634518
  0
LINE
  5
E0
330
D7
100
AcDbEntity
  8
DIMENSIONS
100
AcDbLine
 10
50.07649536429325
 20
86.19030422634518
 30
0.0
 11
72.29044342041018
 21
86.19030422634518
 31
0.0
  0
LWPOLYLINE
  5
E1
330
D7
100
AcDbEntity
  8
DIMENSIONS
100
AcDbPolyline
 90
        4
 70
     0
 43
0.0
 10
93.82649536429325
 20
86.19030422634516
 10
90.82649536429325
 20
85.69030422634516
 10
90.82649536429325
 20
86.69030422634516
 10
93.82649536429325
 20
86.19030422634516
  0
LINE
  5
E2
330
D7
100
AcDbEntity
  8
DIMENSIONS
100
AcDbLine
 10
90.82649536429325
 20
86.19030422634518
 30
0.0
 11
72.29044342041018
 21
86.19030422634518
 31
0.0
  0
LINE
  5
E3
330
D7
100
AcDbEntity
  8
DIMENSIONS
100
AcDbLine
 10
77.46544446566796
 20
86.19030422634518
 30
0.0
 11
67.1154433689425
 21
86.19030422634518
 31
0.0
  0
HATCH
  5
E4
330
D7
100
AcDbEntity
  8
0
 62
     7
100
AcDbHatch
 10
0.0
 20
0.0
 30
0.0
210
0.0
220
0.0
230
1.0
  2
SOLID
 70
     1
 71
     0
 91
        2
 92
        0
 93
        3
 72
     1
 10
50.07649536429325
 20
85.69030422634518
 11
47.07649536429325
 21
86.19030422634518
 72
     1
 10
47.07649536429325
 20
86.19030422634518
 11
50.07649536429325
 21
86.69030422634518
 72
     1
 10
50.07649536429325
 20
86.69030422634518
 11
50.07649536429325
 21
85.69030422634518
 97
        0
 92
        0
 93
        3
 72
     1
 10
90.82649536429325
 20
86.69030422634516
 11
93.82649536429325
 21
86.19030422634516
 72
     1
 10
93.82649536429325
 20
86.19030422634516
 11
90.82649536429325
 21
85.69030422634516
 72
     1
 10
90.82649536429325
 20
85.69030422634516
 11
90.82649536429325
 21
86.69030422634516
 97
        0
 75
     0
 76
     1
 98
        0
  0
ENDBLK
  5
D9
330
D7
100
AcDbEntity
  8
0
100
AcDbBlockEnd
  0
BLOCK
  5
E7
330
E6
100
AcDbEntity
  8
0
100
AcDbBlockBegin
  2
D9
 70
     0
 10
0.0
 20
0.0
 30
0.0
  3
D9
  1

  0
MTEXT
  5
E9
330
E6
100
AcDbEntity
  8
DIMENSIONS
100
AcDbMText
 10
59.81893539428711
 20
136.9089813232422
 30
0.0
 40
2.134018756842158
 41
0.0
 46
0.0
 71
     5
 72
     1
  1
{\fArial|b0|i0|c0|p0;2x }{\fAlibre Symbols|b0|i0|c0|p0;\H1.052632x;n}{\fArial|b0|i0|c0|p0;39}{\fMicrosoft Sans Serif|b0|i0|c0|p0;\H0.8947368x;}
 73
     1
 44
1.0
  0
MTEXT
  5
EA
330
E6
100
AcDbEntity
  8
DIMENSIONS
100
AcDbMText
 10
59.81893539428711
 20
136.9089813232422
 30
0.0
 40
2.134018756842158
 41
0.0
 46
0.0
 71
     5
 72
     1
  1
{\fArial|b0|i0|c0|p0;}
 73
     1
 44
1.0
  0
MTEXT
  5
EB
330
E6
100
AcDbEntity
  8
DIMENSIONS
100
AcDbMText
 10
59.81893539428711
 20
136.9089813232422
 30
0.0
 40
2.134018756842158
 41
0.0
 46
0.0
 71
     5
 72
     1
  1
{\fArial|b0|i0|c0|p0;}
 73
     1
 44
1.0
  0
LINE
  5
EC
330
E6
100
AcDbEntity
  8
DIMENSIONS
100
AcDbLine
 10
49.57649536429325
 20
120.7159049128207
 30
0.0
 11
49.57649536429325
 21
136.4395368787978
 31
0.0
  0
LINE
  5
ED
330
E6
100
AcDbEntity
  8
DIMENSIONS
100
AcDbLine
 10
69.07649536429325
 20
120.7159049128207
 30
0.0
 11
69.07649536429325
 21
136.4395368787978
 31
0.0
  0
LWPOLYLINE
  5
EE
330
E6
100
AcDbEntity
  8
DIMENSIONS
100
AcDbPolyline
 90
        4
 70
     0
 43
0.0
 10
49.57649536429325
 20
134.4395368787978
 10
52.57649536429325
 20
134.9395368787978
 10
52.57649536429325
 20
133.9395368787978
 10
49.57649536429325
 20
134.4395368787978
  0
LINE
  5
EF
330
E6
100
AcDbEntity
  8
DIMENSIONS
100
AcDbLine
 10
52.57649536429325
 20
134.4395368787978
 30
0.0
 11
59.81893539428711
 21
134.4395368787978
 31
0.0
  0
LWPOLYLINE
  5
F0
330
E6
100
AcDbEntity
  8
DIMENSIONS
100
AcDbPolyline
 90
        4
 70
     0
 43
0.0
 10
69.07649536429324
 20
134.4395368787978
 10
66.07649536429325
 20
133.9395368787978
 10
66.07649536429325
 20
134.9395368787978
 10
69.07649536429324
 20
134.4395368787978
  0
LINE
  5
F1
330
E6
100
AcDbEntity
  8
DIMENSIONS
100
AcDbLine
 10
66.07649536429325
 20
134.4395368787978
 30
0.0
 11
59.81893539428711
 21
134.4395368787978
 31
0.0
  0
LINE
  5
F2
330
E6
100
AcDbEntity
  8
DIMENSIONS
100
AcDbLine
 10
52.7036576173613
 20
134.4395368787978
 30
0.0
 11
66.9342133007357
 21
134.4395368787978
 31
0.0
  0
LWPOLYLINE
  5
F3
330
E6
100
AcDbEntity
  8
DIMENSIONS
100
AcDbPolyline
 90
        5
 70
     0
 43
0.0
 10
52.6729954681704
 20
110.473407764273
 10
52.6729954681704
 20
110.473407764273
 10
52.6729954681704
 20
110.473407764273
 10
52.6729954681704
 20
110.473407764273
 10
52.6729954681704
 20
110.473407764273
  0
HATCH
  5
F4
330
E6
100
AcDbEntity
  8
0
 62
     7
100
AcDbHatch
 10
0.0
 20
0.0
 30
0.0
210
0.0
220
0.0
230
1.0
  2
SOLID
 70
     1
 71
     0
 91
        2
 92
        0
 93
        3
 72
     1
 10
52.57649536429325
 20
133.9395368787978
 11
49.57649536429325
 21
134.4395368787978
 72
     1
 10
49.57649536429325
 20
134.4395368787978
 11
52.57649536429325
 21
134.9395368787978
 72
     1
 10
52.57649536429325
 20
134.9395368787978
 11
52.57649536429325
 21
133.9395368787978
 97
        0
 92
        0
 93
        3
 72
     1
 10
66.07649536429325
 20
134.9395368787978
 11
69.07649536429324
 21
134.4395368787978
 72
     1
 10
69.07649536429324
 20
134.4395368787978
 11
66.07649536429325
 21
133.9395368787978
 72
     1
 10
66.07649536429325
 20
133.9395368787978
 11
66.07649536429325
 21
134.9395368787978
 97
        0
 75
     0
 76
     1
 98
        0
  0
ENDBLK
  5
E8
330
E6
100
AcDbEntity
  8
0
100
AcDbBlockEnd
  0
BLOCK
  5
102
330
101
100
AcDbEntity
  8
0
100
AcDbBlockBegin
  2
D10
 70
     0
 10
0.0
 20
0.0
 30
0.0
  3
D10
  1

  0
MTEXT
  5
104
330
101
100
AcDbEntity
  8
DIMENSIONS
100
AcDbMText
 10
144.6796875
 20
102.0576629638669
 30
0.0
 40
2.134018756842158
 41
0.0
 46
0.0
 71
     5
 72
     1
  1
{\fArial|b0|i0|c0|p0;1.5}{\fArial|b0|i0|c0|p0;}
 73
     1
 44
1.0
  0
MTEXT
  5
105
330
101
100
AcDbEntity
  8
DIMENSIONS
100
AcDbMText
 10
144.6796875
 20
102.0576629638669
 30
0.0
 40
2.134018756842158
 41
0.0
 46
0.0
 71
     5
 72
     1
  1
{\fArial|b0|i0|c0|p0;}
 73
     1
 44
1.0
  0
MTEXT
  5
106
330
101
100
AcDbEntity
  8
DIMENSIONS
100
AcDbMText
 10
144.6796875
 20
102.0576629638669
 30
0.0
 40
2.134018756842158
 41
0.0
 46
0.0
 71
     5
 72
     1
  1
{\fArial|b0|i0|c0|p0;}
 73
     1
 44
1.0
  0
LINE
  5
107
330
101
100
AcDbEntity
  8
DIMENSIONS
100
AcDbLine
 10
144.2930772304535
 20
102.2159049128207
 30
0.0
 11
144.2930772304535
 21
98.29377407497796
 31
0.0
  0
LINE
  5
108
330
101
100
AcDbEntity
  8
DIMENSIONS
100
AcDbLine
 10
145.0430772304535
 20
102.2159049128207
 30
0.0
 11
145.0430772304535
 21
98.29377407497796
 31
0.0
  0
LWPOLYLINE
  5
109
330
101
100
AcDbEntity
  8
DIMENSIONS
100
AcDbPolyline
 90
        4
 70
     0
 43
0.0
 10
144.2930772304535
 20
100.293774074978
 10
141.2930772304535
 20
99.79377407497796
 10
141.2930772304535
 20
100.793774074978
 10
144.2930772304535
 20
100.293774074978
  0
LINE
  5
10A
330
101
100
AcDbEntity
  8
DIMENSIONS
100
AcDbLine
 10
141.2930772304535
 20
100.293774074978
 30
0.0
 11
140.6930772304535
 21
100.293774074978
 31
0.0
  0
LWPOLYLINE
  5
10B
330
101
100
AcDbEntity
  8
DIMENSIONS
100
AcDbPolyline
 90
        4
 70
     0
 43
0.0
 10
145.0430772304535
 20
100.293774074978
 10
148.0430772304535
 20
100.793774074978
 10
148.0430772304535
 20
99.79377407497796
 10
145.0430772304535
 20
100.293774074978
  0
LINE
  5
10C
330
101
100
AcDbEntity
  8
DIMENSIONS
100
AcDbLine
 10
148.0430772304535
 20
100.293774074978
 30
0.0
 11
148.6430772304535
 21
100.293774074978
 31
0.0
  0
LINE
  5
10D
330
101
100
AcDbEntity
  8
DIMENSIONS
100
AcDbLine
 10
148.9727399349213
 20
100.293774074978
 30
0.0
 11
140.38662981987
 21
100.293774074978
 31
0.0
  0
HATCH
  5
10E
330
101
100
AcDbEntity
  8
0
 62
     7
100
AcDbHatch
 10
0.0
 20
0.0
 30
0.0
210
0.0
220
0.0
230
1.0
  2
SOLID
 70
     1
 71
     0
 91
        2
 92
        0
 93
        3
 72
     1
 10
141.2930772304535
 20
100.793774074978
 11
144.2930772304535
 21
100.293774074978
 72
     1
 10
144.2930772304535
 20
100.293774074978
 11
141.2930772304535
 21
99.79377407497796
 72
     1
 10
141.2930772304535
 20
99.79377407497796
 11
141.2930772304535
 21
100.793774074978
 97
        0
 92
        0
 93
        3
 72
     1
 10
148.0430772304535
 20
99.79377407497796
 11
145.0430772304535
 21
100.293774074978
 72
     1
 10
145.0430772304535
 20
100.293774074978
 11
148.0430772304535
 21
100.793774074978
 72
     1
 10
148.0430772304535
 20
100.793774074978
 11
148.0430772304535
 21
99.79377407497796
 97
        0
 75
     0
 76
     1
 98
        0
  0
ENDBLK
  5
103
330
101
100
AcDbEntity
  8
0
100
AcDbBlockEnd
  0
BLOCK
  5
14D
330
14C
100
AcDbEntity
  8
0
100
AcDbBlockBegin
  2
D11
 70
     0
 10
0.0
 20
0.0
 30
0.0
  3
D11
  1

  0
MTEXT
  5
14F
330
14C
100
AcDbEntity
  8
DISSOCIATED
100
AcDbMText
 10
171.5604553222658
 20
101.3089599609372
 30
0.0
 40
2.134018756842158
 41
0.0
 46
0.0
 71
     5
 72
     1
  1
{\fArial|b0|i0|c0|p0;8.5}{\fArial|b0|i0|c0|p0;}
 73
     1
 44
1.0
  0
MTEXT
  5
150
330
14C
100
AcDbEntity
  8
DISSOCIATED
100
AcDbMText
 10
171.5604553222658
 20
101.3089599609372
 30
0.0
 40
2.134018756842158
 41
0.0
 46
0.0
 71
     5
 72
     1
  1
{\fArial|b0|i0|c0|p0;}
 73
     1
 44
1.0
  0
MTEXT
  5
151
330
14C
100
AcDbEntity
  8
DISSOCIATED
100
AcDbMText
 10
171.5604553222658
 20
101.3089599609372
 30
0.0
 40
2.134018756842158
 41
0.0
 46
0.0
 71
     5
 72
     1
  1
{\fArial|b0|i0|c0|p0;}
 73
     1
 44
1.0
  0
LINE
  5
152
330
14C
100
AcDbEntity
  8
DISSOCIATED
100
AcDbLine
 10
169.3425163827252
 20
102.2159049128207
 30
0.0
 11
169.3425163827252
 21
97.54507107204832
 31
0.0
  0
LINE
  5
153
330
14C
100
AcDbEntity
  8
DISSOCIATED
100
AcDbLine
 10
173.5925163827251
 20
105.7284049128207
 30
0.0
 11
173.5925163827251
 21
97.54507107204832
 31
0.0
  0
LWPOLYLINE
  5
154
330
14C
100
AcDbEntity
  8
DISSOCIATED
100
AcDbPolyline
 90
        4
 70
     0
 43
0.0
 10
169.3425163827252
 20
99.54507107204832
 10
166.3425163827252
 20
99.04507107204832
 10
166.3425163827252
 20
100.0450710720483
 10
169.3425163827252
 20
99.54507107204832
  0
LINE
  5
155
330
14C
100
AcDbEntity
  8
DISSOCIATED
100
AcDbLine
 10
166.3425163827252
 20
99.54507107204832
 30
0.0
 11
165.7425163827252
 21
99.54507107204832
 31
0.0
  0
LWPOLYLINE
  5
156
330
14C
100
AcDbEntity
  8
DISSOCIATED
100
AcDbPolyline
 90
        4
 70
     0
 43
0.0
 10
173.5925163827251
 20
99.54507107204832
 10
176.5925163827252
 20
100.0450710720483
 10
176.5925163827252
 20
99.04507107204832
 10
173.5925163827251
 20
99.54507107204832
  0
LINE
  5
157
330
14C
100
AcDbEntity
  8
DISSOCIATED
100
AcDbLine
 10
176.5925163827251
 20
99.54507107204832
 30
0.0
 11
177.1925163827252
 21
99.54507107204832
 31
0.0
  0
LINE
  5
158
330
14C
100
AcDbEntity
  8
DISSOCIATED
100
AcDbLine
 10
175.8535077720731
 20
99.54507107204832
 30
0.0
 11
167.2673976570218
 21
99.54507107204832
 31
0.0
  0
HATCH
  5
159
330
14C
100
AcDbEntity
  8
0
 62
     1
100
AcDbHatch
 10
0.0
 20
0.0
 30
0.0
210
0.0
220
0.0
230
1.0
  2
SOLID
 70
     1
 71
     0
 91
        2
 92
        0
 93
        3
 72
     1
 10
166.3425163827252
 20
100.0450710720483
 11
169.3425163827252
 21
99.54507107204832
 72
     1
 10
169.3425163827252
 20
99.54507107204832
 11
166.3425163827252
 21
99.04507107204832
 72
     1
 10
166.3425163827252
 20
99.04507107204832
 11
166.3425163827252
 21
100.0450710720483
 97
        0
 92
        0
 93
        3
 72
     1
 10
176.5925163827252
 20
99.04507107204832
 11
173.5925163827251
 21
99.54507107204832
 72
     1
 10
173.5925163827251
 20
99.54507107204832
 11
176.5925163827252
 21
100.0450710720483
 72
     1
 10
176.5925163827252
 20
100.0450710720483
 11
176.5925163827252
 21
99.04507107204832
 97
        0
 75
     0
 76
     1
 98
        0
  0
ENDBLK
  5
14E
330
14C
100
AcDbEntity
  8
0
100
AcDbBlockEnd
  0
BLOCK
  5
15C
330
15B
100
AcDbEntity
  8
0
100
AcDbBlockBegin
  2
D12
 70
     0
 10
0.0
 20
0.0
 30
0.0
  3
D12
  1

  0
MTEXT
  5
15E
330
15B
100
AcDbEntity
  8
DISSOCIATED
100
AcDbMText
 10
179.8736572265627
 20
97.27581787109345
 30
0.0
 40
2.134018756842158
 41
0.0
 46
0.0
 71
     5
 72
     1
  1
{\fArial|b0|i0|c0|p0;40.5}{\fArial|b0|i0|c0|p0;}
 73
     1
 44
1.0
  0
MTEXT
  5
15F
330
15B
100
AcDbEntity
  8
DISSOCIATED
100
AcDbMText
 10
179.8736572265627
 20
97.27581787109345
 30
0.0
 40
2.134018756842158
 41
0.0
 46
0.0
 71
     5
 72
     1
  1
{\fArial|b0|i0|c0|p0;}
 73
     1
 44
1.0
  0
MTEXT
  5
160
330
15B
100
AcDbEntity
  8
DISSOCIATED
100
AcDbMText
 10
179.8736572265627
 20
97.27581787109345
 30
0.0
 40
2.134018756842158
 41
0.0
 46
0.0
 71
     5
 72
     1
  1
{\fArial|b0|i0|c0|p0;}
 73
     1
 44
1.0
  0
LINE
  5
161
330
15B
100
AcDbEntity
  8
DISSOCIATED
100
AcDbLine
 10
169.3425163827252
 20
102.2159049128207
 30
0.0
 11
169.3425163827252
 21
93.51192898220457
 31
0.0
  0
LINE
  5
162
330
15B
100
AcDbEntity
  8
DISSOCIATED
100
AcDbLine
 10
189.5925163827252
 20
105.7284049128207
 30
0.0
 11
189.5925163827252
 21
93.51192898220457
 31
0.0
  0
LWPOLYLINE
  5
163
330
15B
100
AcDbEntity
  8
DISSOCIATED
100
AcDbPolyline
 90
        4
 70
     0
 43
0.0
 10
169.3425163827252
 20
95.51192898220457
 10
172.3425163827252
 20
96.01192898220457
 10
172.3425163827252
 20
95.01192898220457
 10
169.3425163827252
 20
95.51192898220457
  0
LINE
  5
164
330
15B
100
AcDbEntity
  8
DISSOCIATED
100
AcDbLine
 10
172.3425163827251
 20
95.51192898220457
 30
0.0
 11
179.8736572265627
 21
95.51192898220457
 31
0.0
  0
LWPOLYLINE
  5
165
330
15B
100
AcDbEntity
  8
DISSOCIATED
100
AcDbPolyline
 90
        4
 70
     0
 43
0.0
 10
189.5925163827252
 20
95.51192898220457
 10
186.5925163827252
 20
95.01192898220457
 10
186.5925163827252
 20
96.01192898220457
 10
189.5925163827252
 20
95.51192898220457
  0
LINE
  5
166
330
15B
100
AcDbEntity
  8
DISSOCIATED
100
AcDbLine
 10
186.5925163827251
 20
95.51192898220457
 30
0.0
 11
179.8736572265627
 21
95.51192898220457
 31
0.0
  0
LINE
  5
167
330
15B
100
AcDbEntity
  8
DISSOCIATED
100
AcDbLine
 10
185.0486567169278
 20
95.51192898220457
 30
0.0
 11
174.6986568122953
 21
95.51192898220457
 31
0.0
  0
HATCH
  5
168
330
15B
100
AcDbEntity
  8
0
 62
     1
100
AcDbHatch
 10
0.0
 20
0.0
 30
0.0
210
0.0
220
0.0
230
1.0
  2
SOLID
 70
     1
 71
     0
 91
        2
 92
        0
 93
        3
 72
     1
 10
172.3425163827252
 20
95.01192898220457
 11
169.3425163827252
 21
95.51192898220457
 72
     1
 10
169.3425163827252
 20
95.51192898220457
 11
172.3425163827252
 21
96.01192898220457
 72
     1
 10
172.3425163827252
 20
96.01192898220457
 11
172.3425163827252
 21
95.01192898220457
 97
        0
 92
        0
 93
        3
 72
     1
 10
186.5925163827252
 20
96.01192898220457
 11
189.5925163827252
 21
95.51192898220457
 72
     1
 10
189.5925163827252
 20
95.51192898220457
 11
186.5925163827252
 21
95.01192898220457
 72
     1
 10
186.5925163827252
 20
95.01192898220457
 11
186.5925163827252
 21
96.01192898220457
 97
        0
 75
     0
 76
     1
 98
        0
  0
ENDBLK
  5
15D
330
15B
100
AcDbEntity
  8
0
100
AcDbBlockEnd
  0
BLOCK
  5
16B
330
16A
100
AcDbEntity
  8
0
100
AcDbBlockBegin
  2
D13
 70
     0
 10
0.0
 20
0.0
 30
0.0
  3
D13
  1

  0
MTEXT
  5
16D
330
16A
100
AcDbEntity
  8
DISSOCIATED
100
AcDbMText
 10
184.4006500244143
 20
92.58420562744111
 30
0.0
 40
2.134018756842158
 41
0.0
 46
0.0
 71
     5
 72
     1
  1
{\fArial|b0|i0|c0|p0;53}{\fArial|b0|i0|c0|p0;}
 73
     1
 44
1.0
  0
MTEXT
  5
16E
330
16A
100
AcDbEntity
  8
DISSOCIATED
100
AcDbMText
 10
184.4006500244143
 20
92.58420562744111
 30
0.0
 40
2.134018756842158
 41
0.0
 46
0.0
 71
     5
 72
     1
  1
{\fArial|b0|i0|c0|p0;}
 73
     1
 44
1.0
  0
MTEXT
  5
16F
330
16A
100
AcDbEntity
  8
DISSOCIATED
100
AcDbMText
 10
184.4006500244143
 20
92.58420562744111
 30
0.0
 40
2.134018756842158
 41
0.0
 46
0.0
 71
     5
 72
     1
  1
{\fArial|b0|i0|c0|p0;}
 73
     1
 44
1.0
  0
LINE
  5
170
330
16A
100
AcDbEntity
  8
DISSOCIATED
100
AcDbLine
 10
169.3425163827252
 20
102.2159049128207
 30
0.0
 11
169.3425163827252
 21
88.82031673855221
 31
0.0
  0
LINE
  5
171
330
16A
100
AcDbEntity
  8
DISSOCIATED
100
AcDbLine
 10
195.8425163827252
 20
105.7284049128207
 30
0.0
 11
195.8425163827252
 21
88.82031673855221
 31
0.0
  0
LWPOLYLINE
  5
172
330
16A
100
AcDbEntity
  8
DISSOCIATED
100
AcDbPolyline
 90
        4
 70
     0
 43
0.0
 10
169.3425163827252
 20
90.82031673855221
 10
172.3425163827252
 20
91.32031673855221
 10
172.3425163827252
 20
90.32031673855221
 10
169.3425163827252
 20
90.82031673855221
  0
LINE
  5
173
330
16A
100
AcDbEntity
  8
DISSOCIATED
100
AcDbLine
 10
172.3425163827251
 20
90.82031673855221
 30
0.0
 11
184.4006500244143
 21
90.82031673855221
 31
0.0
  0
LWPOLYLINE
  5
174
330
16A
100
AcDbEntity
  8
DISSOCIATED
100
AcDbPolyline
 90
        4
 70
     0
 43
0.0
 10
195.8425163827252
 20
90.82031673855222
 10
192.8425163827251
 20
90.32031673855222
 10
192.8425163827251
 20
91.32031673855222
 10
195.8425163827252
 20
90.82031673855222
  0
LINE
  5
175
330
16A
100
AcDbEntity
  8
DISSOCIATED
100
AcDbLine
 10
192.8425163827251
 20
90.82031673855221
 30
0.0
 11
184.4006500244143
 21
90.82031673855221
 31
0.0
  0
LINE
  5
176
330
16A
100
AcDbEntity
  8
DISSOCIATED
100
AcDbLine
 10
188.1645372062772
 20
90.82031673855221
 30
0.0
 11
180.6367600113004
 21
90.82031673855221
 31
0.0
  0
HATCH
  5
177
330
16A
100
AcDbEntity
  8
0
 62
     1
100
AcDbHatch
 10
0.0
 20
0.0
 30
0.0
210
0.0
220
0.0
230
1.0
  2
SOLID
 70
     1
 71
     0
 91
        2
 92
        0
 93
        3
 72
     1
 10
172.3425163827252
 20
90.32031673855221
 11
169.3425163827252
 21
90.82031673855221
 72
     1
 10
169.3425163827252
 20
90.82031673855221
 11
172.3425163827252
 21
91.32031673855221
 72
     1
 10
172.3425163827252
 20
91.32031673855221
 11
172.3425163827252
 21
90.32031673855221
 97
        0
 92
        0
 93
        3
 72
     1
 10
192.8425163827251
 20
91.32031673855222
 11
195.8425163827252
 21
90.82031673855222
 72
     1
 10
195.8425163827252
 20
90.82031673855222
 11
192.8425163827251
 21
90.32031673855222
 72
     1
 10
192.8425163827251
 20
90.32031673855222
 11
192.8425163827251
 21
91.32031673855222
 97
        0
 75
     0
 76
     1
 98
        0
  0
ENDBLK
  5
16C
330
16A
100
AcDbEntity
  8
0
100
AcDbBlockEnd
  0
BLOCK
  5
17A
330
179
100
AcDbEntity
  8
0
100
AcDbBlockBegin
  2
D14
 70
     0
 10
0.0
 20
0.0
 30
0.0
  3
D14
  1

  0
MTEXT
  5
17C
330
179
100
AcDbEntity
  8
DISSOCIATED
100
AcDbMText
 10
192.3846282958987
 20
87.6456604003903
 30
0.0
 40
2.134018756842158
 41
0.0
 46
0.0
 71
     5
 72
     1
  1
{\fArial|b0|i0|c0|p0;85}{\fArial|b0|i0|c0|p0;}
 73
     1
 44
1.0
  0
MTEXT
  5
17D
330
179
100
AcDbEntity
  8
DISSOCIATED
100
AcDbMText
 10
192.3846282958987
 20
87.6456604003903
 30
0.0
 40
2.134018756842158
 41
0.0
 46
0.0
 71
     5
 72
     1
  1
{\fArial|b0|i0|c0|p0;}
 73
     1
 44
1.0
  0
MTEXT
  5
17E
330
179
100
AcDbEntity
  8
DISSOCIATED
100
AcDbMText
 10
192.3846282958987
 20
87.6456604003903
 30
0.0
 40
2.134018756842158
 41
0.0
 46
0.0
 71
     5
 72
     1
  1
{\fArial|b0|i0|c0|p0;}
 73
     1
 44
1.0
  0
LINE
  5
17F
330
179
100
AcDbEntity
  8
DISSOCIATED
100
AcDbLine
 10
169.3425163827252
 20
102.2159049128207
 30
0.0
 11
169.3425163827252
 21
83.88177151150141
 31
0.0
  0
LINE
  5
180
330
179
100
AcDbEntity
  8
DISSOCIATED
100
AcDbLine
 10
211.842516347751
 20
108.7159049402049
 30
0.0
 11
211.842516347751
 21
83.88177151150141
 31
0.0
  0
LWPOLYLINE
  5
181
330
179
100
AcDbEntity
  8
DISSOCIATED
100
AcDbPolyline
 90
        4
 70
     0
 43
0.0
 10
169.3425163827252
 20
85.88177151150141
 10
172.3425163827252
 20
86.38177151150141
 10
172.3425163827252
 20
85.38177151150141
 10
169.3425163827252
 20
85.88177151150141
  0
LINE
  5
182
330
179
100
AcDbEntity
  8
DISSOCIATED
100
AcDbLine
 10
172.3425163827251
 20
85.88177151150141
 30
0.0
 11
192.3846282958987
 21
85.88177151150141
 31
0.0
  0
LWPOLYLINE
  5
183
330
179
100
AcDbEntity
  8
DISSOCIATED
100
AcDbPolyline
 90
        4
 70
     0
 43
0.0
 10
211.842516347751
 20
85.88177151150141
 10
208.842516347751
 20
85.38177151150141
 10
208.842516347751
 20
86.38177151150141
 10
211.842516347751
 20
85.88177151150141
  0
LINE
  5
184
330
179
100
AcDbEntity
  8
DISSOCIATED
100
AcDbLine
 10
208.842516347751
 20
85.88177151150141
 30
0.0
 11
192.3846282958987
 21
85.88177151150141
 31
0.0
  0
LINE
  5
185
330
179
100
AcDbEntity
  8
DISSOCIATED
100
AcDbLine
 10
196.1485173851102
 20
85.88177151150141
 30
0.0
 11
188.6207389980405
 21
85.88177151150141
 31
0.0
  0
HATCH
  5
186
330
179
100
AcDbEntity
  8
0
 62
     1
100
AcDbHatch
 10
0.0
 20
0.0
 30
0.0
210
0.0
220
0.0
230
1.0
  2
SOLID
 70
     1
 71
     0
 91
        2
 92
        0
 93
        3
 72
     1
 10
172.3425163827252
 20
85.38177151150141
 11
169.3425163827252
 21
85.88177151150141
 72
     1
 10
169.3425163827252
 20
85.88177151150141
 11
172.3425163827252
 21
86.38177151150141
 72
     1
 10
172.3425163827252
 20
86.38177151150141
 11
172.3425163827252
 21
85.38177151150141
 97
        0
 92
        0
 93
        3
 72
     1
 10
208.842516347751
 20
86.38177151150141
 11
211.842516347751
 21
85.88177151150141
 72
     1
 10
211.842516347751
 20
85.88177151150141
 11
208.842516347751
 21
85.38177151150141
 72
     1
 10
208.842516347751
 20
85.38177151150141
 11
208.842516347751
 21
86.38177151150141
 97
        0
 75
     0
 76
     1
 98
        0
  0
ENDBLK
  5
17B
330
179
100
AcDbEntity
  8
0
100
AcDbBlockEnd
  0
BLOCK
  5
189
330
188
100
AcDbEntity
  8
0
100
AcDbBlockBegin
  2
D15
 70
     0
 10
0.0
 20
0.0
 30
0.0
  3
D15
  1

  0
MTEXT
  5
18B
330
188
100
AcDbEntity
  8
DISSOCIATED
100
AcDbMText
 10
166.0457458496095
 20
107.3175201416012
 30
0.0
 40
2.134018756842158
 41
0.0
 46
0.0
 71
     5
 72
     1
  1
{\fArial|b0|i0|c0|p0;13}{\fArial|b0|i0|c0|p0;}
 11
6.123031769111886E-17
 21
1.0
 31
0.0
 73
     1
 44
1.0
  0
MTEXT
  5
18C
330
188
100
AcDbEntity
  8
DISSOCIATED
100
AcDbMText
 10
166.0457458496095
 20
107.3175201416012
 30
0.0
 40
2.134018756842158
 41
0.0
 46
0.0
 71
     5
 72
     1
  1
{\fArial|b0|i0|c0|p0;}
 11
6.123031769111886E-17
 21
1.0
 31
0.0
 73
     1
 44
1.0
  0
MTEXT
  5
18D
330
188
100
AcDbEntity
  8
DISSOCIATED
100
AcDbMText
 10
166.0457458496095
 20
107.3175201416012
 30
0.0
 40
2.134018756842158
 41
0.0
 46
0.0
 71
     5
 72
     1
  1
{\fArial|b0|i0|c0|p0;}
 11
6.123031769111886E-17
 21
1.0
 31
0.0
 73
     1
 44
1.0
  0
LINE
  5
18E
330
188
100
AcDbEntity
  8
DISSOCIATED
100
AcDbLine
 10
167.3425163827251
 20
104.2159049128207
 30
0.0
 11
165.8096347384984
 21
104.2159049128207
 31
0.0
  0
LINE
  5
18F
330
188
100
AcDbEntity
  8
DISSOCIATED
100
AcDbLine
 10
171.5925169139951
 20
110.7159049402049
 30
0.0
 11
165.8096347384984
 21
110.7159049402049
 31
0.0
  0
LWPOLYLINE
  5
190
330
188
100
AcDbEntity
  8
DISSOCIATED
100
AcDbPolyline
 90
        4
 70
     0
 43
0.0
 10
167.8096347384985
 20
104.2159049128207
 10
168.3096347384985
 20
101.2159049128207
 10
167.3096347384984
 20
101.2159049128207
 10
167.8096347384985
 20
104.2159049128207
  0
LINE
  5
191
330
188
100
AcDbEntity
  8
DISSOCIATED
100
AcDbLine
 10
167.8096347384984
 20
101.2159049128207
 30
0.0
 11
167.8096347384984
 21
100.6159049128207
 31
0.0
  0
LWPOLYLINE
  5
192
330
188
100
AcDbEntity
  8
DISSOCIATED
100
AcDbPolyline
 90
        4
 70
     0
 43
0.0
 10
167.8096347384984
 20
110.7159049402049
 10
167.3096347384984
 20
113.7159049402049
 10
168.3096347384984
 20
113.7159049402049
 10
167.8096347384984
 20
110.7159049402049
  0
LINE
  5
193
330
188
100
AcDbEntity
  8
DISSOCIATED
100
AcDbLine
 10
167.8096347384984
 20
113.7159049402049
 30
0.0
 11
167.8096347384984
 21
114.3159049402049
 31
0.0
  0
LINE
  5
194
330
188
100
AcDbEntity
  8
DISSOCIATED
100
AcDbLine
 10
167.8096347384984
 20
111.0814098308852
 30
0.0
 11
167.8096347384984
 21
103.5536302517227
 31
0.0
  0
HATCH
  5
195
330
188
100
AcDbEntity
  8
0
 62
     1
100
AcDbHatch
 10
0.0
 20
0.0
 30
0.0
210
0.0
220
0.0
230
1.0
  2
SOLID
 70
     1
 71
     0
 91
        2
 92
        0
 93
        3
 72
     1
 10
167.3096347384984
 20
101.2159049128207
 11
167.8096347384985
 21
104.2159049128207
 72
     1
 10
167.8096347384985
 20
104.2159049128207
 11
168.3096347384985
 21
101.2159049128207
 72
     1
 10
168.3096347384985
 20
101.2159049128207
 11
167.3096347384984
 21
101.2159049128207
 97
        0
 92
        0
 93
        3
 72
     1
 10
168.3096347384984
 20
113.7159049402049
 11
167.8096347384984
 21
110.7159049402049
 72
     1
 10
167.8096347384984
 20
110.7159049402049
 11
167.3096347384984
 21
113.7159049402049
 72
     1
 10
167.3096347384984
 20
113.7159049402049
 11
168.3096347384984
 21
113.7159049402049
 97
        0
 75
     0
 76
     1
 98
        0
  0
ENDBLK
  5
18A
330
188
100
AcDbEntity
  8
0
100
AcDbBlockEnd
  0
BLOCK
  5
198
330
197
100
AcDbEntity
  8
0
100
AcDbBlockBegin
  2
D16
 70
     0
 10
0.0
 20
0.0
 30
0.0
  3
D16
  1

  0
MTEXT
  5
19A
330
197
100
AcDbEntity
  8
DISSOCIATED
100
AcDbMText
 10
161.6833648681643
 20
118.51155090332
 30
0.0
 40
2.134018756842158
 41
0.0
 46
0.0
 71
     5
 72
     1
  1
{\fArial|b0|i0|c0|p0;45}{\fArial|b0|i0|c0|p0;}
 11
6.123031769111886E-17
 21
1.0
 31
0.0
 73
     1
 44
1.0
  0
MTEXT
  5
19B
330
197
100
AcDbEntity
  8
DISSOCIATED
100
AcDbMText
 10
161.6833648681643
 20
118.51155090332
 30
0.0
 40
2.134018756842158
 41
0.0
 46
0.0
 71
     5
 72
     1
  1
{\fArial|b0|i0|c0|p0;}
 11
6.123031769111886E-17
 21
1.0
 31
0.0
 73
     1
 44
1.0
  0
MTEXT
  5
19C
330
197
100
AcDbEntity
  8
DISSOCIATED
100
AcDbMText
 10
161.6833648681643
 20
118.51155090332
 30
0.0
 40
2.134018756842158
 41
0.0
 46
0.0
 71
     5
 72
     1
  1
{\fArial|b0|i0|c0|p0;}
 11
6.123031769111886E-17
 21
1.0
 31
0.0
 73
     1
 44
1.0
  0
LINE
  5
19D
330
197
100
AcDbEntity
  8
DISSOCIATED
100
AcDbLine
 10
167.3425163827251
 20
104.2159049128207
 30
0.0
 11
161.4472537570531
 21
104.2159049128207
 31
0.0
  0
LINE
  5
19E
330
197
100
AcDbEntity
  8
DISSOCIATED
100
AcDbLine
 10
168.6050163827252
 20
126.7159049128207
 30
0.0
 11
161.4472537570531
 21
126.7159049128207
 31
0.0
  0
LWPOLYLINE
  5
19F
330
197
100
AcDbEntity
  8
DISSOCIATED
100
AcDbPolyline
 90
        4
 70
     0
 43
0.0
 10
163.4472537570531
 20
104.2159049128207
 10
162.9472537570531
 20
107.2159049128207
 10
163.9472537570531
 20
107.2159049128207
 10
163.4472537570531
 20
104.2159049128207
  0
LINE
  5
1A0
330
197
100
AcDbEntity
  8
DISSOCIATED
100
AcDbLine
 10
163.4472537570531
 20
107.2159049128207
 30
0.0
 11
163.4472537570531
 21
118.51155090332
 31
0.0
  0
LWPOLYLINE
  5
1A1
330
197
100
AcDbEntity
  8
DISSOCIATED
100
AcDbPolyline
 90
        4
 70
     0
 43
0.0
 10
163.4472537570531
 20
126.7159049128207
 10
163.9472537570531
 20
123.7159049128207
 10
162.9472537570531
 20
123.7159049128207
 10
163.4472537570531
 20
126.7159049128207
  0
LINE
  5
1A2
330
197
100
AcDbEntity
  8
DISSOCIATED
100
AcDbLine
 10
163.4472537570531
 20
123.7159049128207
 30
0.0
 11
163.4472537570531
 21
118.51155090332
 31
0.0
  0
LINE
  5
1A3
330
197
100
AcDbEntity
  8
DISSOCIATED
100
AcDbLine
 10
163.4472537570531
 20
122.2754407714179
 30
0.0
 11
163.4472537570531
 21
114.7476611922553
 31
0.0
  0
HATCH
  5
1A4
330
197
100
AcDbEntity
  8
0
 62
     1
100
AcDbHatch
 10
0.0
 20
0.0
 30
0.0
210
0.0
220
0.0
230
1.0
  2
SOLID
 70
     1
 71
     0
 91
        2
 92
        0
 93
        3
 72
     1
 10
163.9472537570531
 20
107.2159049128207
 11
163.4472537570531
 21
104.2159049128207
 72
     1
 10
163.4472537570531
 20
104.2159049128207
 11
162.9472537570531
 21
107.2159049128207
 72
     1
 10
162.9472537570531
 20
107.2159049128207
 11
163.9472537570531
 21
107.2159049128207
 97
        0
 92
        0
 93
        3
 72
     1
 10
162.9472537570531
 20
123.7159049128207
 11
163.4472537570531
 21
126.7159049128207
 72
     1
 10
163.4472537570531
 20
126.7159049128207
 11
163.9472537570531
 21
123.7159049128207
 72
     1
 10
163.9472537570531
 20
123.7159049128207
 11
162.9472537570531
 21
123.7159049128207
 97
        0
 75
     0
 76
     1
 98
        0
  0
ENDBLK
  5
199
330
197
100
AcDbEntity
  8
0
100
AcDbBlockEnd
  0
BLOCK
  5
1AD
330
1AC
100
AcDbEntity
  8
0
100
AcDbBlockBegin
  2
BLOCK0
 70
     0
 10
0.0
 20
0.0
 30
0.0
  3
BLOCK0
  1

  0
LINE
  5
1AF
330
1AC
100
AcDbEntity
  8
CONTINUOUS
100
AcDbLine
 10
9.99999999999998
 20
9.99999999999995
 30
0.0
 11
287.0
 21
10.0
 31
0.0
  0
LINE
  5
1B0
330
1AC
100
AcDbEntity
  8
CONTINUOUS
100
AcDbLine
 10
141.942321777344
 20
5.0
 30
0.0
 11
241.942321777344
 21
5.0
 31
0.0
  0
LINE
  5
1B1
330
1AC
100
AcDbEntity
  8
CONTINUOUS
100
AcDbLine
 10
116.942321777344
 20
30.0
 30
0.0
 11
286.942321777344
 21
30.0
 31
0.0
  0
LINE
  5
1B2
330
1AC
100
AcDbEntity
  8
CONTINUOUS
100
AcDbLine
 10
116.942321777344
 20
40.0
 30
0.0
 11
286.942321777344
 21
40.0
 31
0.0
  0
LINE
  5
1B3
330
1AC
100
AcDbEntity
  8
CONTINUOUS
100
AcDbLine
 10
116.942321777344
 20
46.0
 30
0.0
 11
286.942321777344
 21
46.0
 31
0.0
  0
LINE
  5
1B4
330
1AC
100
AcDbEntity
  8
CONTINUOUS
100
AcDbLine
 10
0.0
 20
0.0
 30
0.0
 11
-0.0000000000000012
 21
10.0
 31
0.0
  0
LINE
  5
1B5
330
1AC
100
AcDbEntity
  8
CONTINUOUS
100
AcDbLine
 10
0.0
 20
0.0
 30
0.0
 11
10.0
 21
0.0000000000000018
 31
0.0
  0
LINE
  5
1B6
330
1AC
100
AcDbEntity
  8
CONTINUOUS
100
AcDbLine
 10
141.942321777344
 20
5.0
 30
0.0
 11
141.942321777344
 21
10.0
 31
0.0
  0
LINE
  5
1B7
330
1AC
100
AcDbEntity
  8
CONTINUOUS
100
AcDbLine
 10
151.942321777344
 20
5.0
 30
0.0
 11
151.942321777344
 21
10.0
 31
0.0
  0
LINE
  5
1B8
330
1AC
100
AcDbEntity
  8
CONTINUOUS
100
AcDbLine
 10
161.942321777344
 20
5.0
 30
0.0
 11
161.942321777344
 21
10.0
 31
0.0
  0
LINE
  5
1B9
330
1AC
100
AcDbEntity
  8
CONTINUOUS
100
AcDbLine
 10
116.942321777344
 20
10.0
 30
0.0
 11
116.942321777344
 21
40.0
 31
0.0
  0
LINE
  5
1BA
330
1AC
100
AcDbEntity
  8
CONTINUOUS
100
AcDbLine
 10
131.942321777344
 20
40.0
 30
0.0
 11
131.942321777344
 21
46.0
 31
0.0
  0
LINE
  5
1BB
330
1AC
100
AcDbEntity
  8
CONTINUOUS
100
AcDbLine
 10
116.942321777344
 20
40.0
 30
0.0
 11
116.942321777344
 21
46.0
 31
0.0
  0
LINE
  5
1BC
330
1AC
100
AcDbEntity
  8
CONTINUOUS
100
AcDbLine
 10
148.942321777344
 20
30.0
 30
0.0
 11
148.942321777344
 21
40.0
 31
0.0
  0
LINE
  5
1BD
330
1AC
100
AcDbEntity
  8
CONTINUOUS
100
AcDbLine
 10
148.942321777344
 20
40.0
 30
0.0
 11
148.942321777344
 21
46.0
 31
0.0
  0
LINE
  5
1BE
330
1AC
100
AcDbEntity
  8
CONTINUOUS
100
AcDbLine
 10
10.0
 20
57.5
 30
0.0
 11
5.0
 21
57.5
 31
0.0
  0
LINE
  5
1BF
330
1AC
100
AcDbEntity
  8
CONTINUOUS
100
AcDbLine
 10
10.0
 20
105.0
 30
0.0
 11
5.0
 21
105.0
 31
0.0
  0
LINE
  5
1C0
330
1AC
100
AcDbEntity
  8
CONTINUOUS
100
AcDbLine
 10
191.942321777344
 20
20.0
 30
0.0
 11
286.942321777344
 21
20.0
 31
0.0
  0
LINE
  5
1C1
330
1AC
100
AcDbEntity
  8
CONTINUOUS
100
AcDbLine
 10
191.942321777344
 20
10.0
 30
0.0
 11
191.942321777344
 21
5.0
 31
0.0
  0
LINE
  5
1C2
330
1AC
100
AcDbEntity
  8
CONTINUOUS
100
AcDbLine
 10
171.942321777344
 20
5.0
 30
0.0
 11
171.942321777344
 21
10.0
 31
0.0
  0
LINE
  5
1C3
330
1AC
100
AcDbEntity
  8
CONTINUOUS
100
AcDbLine
 10
181.942321777344
 20
5.0
 30
0.0
 11
181.942321777344
 21
10.0
 31
0.0
  0
LINE
  5
1C4
330
1AC
100
AcDbEntity
  8
CONTINUOUS
100
AcDbLine
 10
201.942321777344
 20
5.0
 30
0.0
 11
201.942321777344
 21
10.0
 31
0.0
  0
LINE
  5
1C5
330
1AC
100
AcDbEntity
  8
CONTINUOUS
100
AcDbLine
 10
211.942321777344
 20
5.0
 30
0.0
 11
211.942321777344
 21
10.0
 31
0.0
  0
LINE
  5
1C6
330
1AC
100
AcDbEntity
  8
CONTINUOUS
100
AcDbLine
 10
221.942321777344
 20
5.0
 30
0.0
 11
221.942321777344
 21
10.0
 31
0.0
  0
LINE
  5
1C7
330
1AC
100
AcDbEntity
  8
CONTINUOUS
100
AcDbLine
 10
173.942321777344
 20
30.0
 30
0.0
 11
173.942321777344
 21
40.0
 31
0.0
  0
LINE
  5
1C8
330
1AC
100
AcDbEntity
  8
CONTINUOUS
100
AcDbLine
 10
191.942321777344
 20
10.0
 30
0.0
 11
191.942321777344
 21
30.0
 31
0.0
  0
LINE
  5
1C9
330
1AC
100
AcDbEntity
  8
CONTINUOUS
100
AcDbLine
 10
191.942321777344
 20
10.0
 30
0.0
 11
191.942321777344
 21
15.0
 31
0.0
  0
LINE
  5
1CA
330
1AC
100
AcDbEntity
  8
CONTINUOUS
100
AcDbLine
 10
211.942321777344
 20
30.0
 30
0.0
 11
211.942321777344
 21
40.0
 31
0.0
  0
LINE
  5
1CB
330
1AC
100
AcDbEntity
  8
CONTINUOUS
100
AcDbLine
 10
297.0
 20
0.0
 30
0.0
 11
297.0
 21
10.0
 31
0.0
  0
LINE
  5
1CC
330
1AC
100
AcDbEntity
  8
CONTINUOUS
100
AcDbLine
 10
241.942321777344
 20
5.0
 30
0.0
 11
241.942321777344
 21
10.0
 31
0.0
  0
LINE
  5
1CD
330
1AC
100
AcDbEntity
  8
CONTINUOUS
100
AcDbLine
 10
231.942321777344
 20
5.0
 30
0.0
 11
231.942321777344
 21
10.0
 31
0.0
  0
LINE
  5
1CE
330
1AC
100
AcDbEntity
  8
CONTINUOUS
100
AcDbLine
 10
296.942321777344
 20
0.0
 30
0.0
 11
286.942321777344
 21
0.0
 31
0.0
  0
LINE
  5
1CF
330
1AC
100
AcDbEntity
  8
CONTINUOUS
100
AcDbLine
 10
236.942321777344
 20
30.0
 30
0.0
 11
236.942321777344
 21
40.0
 31
0.0
  0
LINE
  5
1D0
330
1AC
100
AcDbEntity
  8
CONTINUOUS
100
AcDbLine
 10
251.942321777344
 20
10.0
 30
0.0
 11
251.942321777344
 21
20.0
 31
0.0
  0
LINE
  5
1D1
330
1AC
100
AcDbEntity
  8
CONTINUOUS
100
AcDbLine
 10
236.942321777344
 20
40.0
 30
0.0
 11
236.942321777344
 21
46.0
 31
0.0
  0
LINE
  5
1D2
330
1AC
100
AcDbEntity
  8
CONTINUOUS
100
AcDbLine
 10
266.942321777344
 20
30.0
 30
0.0
 11
266.942321777344
 21
40.0
 31
0.0
  0
LINE
  5
1D3
330
1AC
100
AcDbEntity
  8
CONTINUOUS
100
AcDbLine
 10
266.942321777344
 20
10.0
 30
0.0
 11
266.942321777344
 21
20.0
 31
0.0
  0
LINE
  5
1D4
330
1AC
100
AcDbEntity
  8
CONTINUOUS
100
AcDbLine
 10
291.942321777344
 20
57.5
 30
0.0
 11
286.942321777344
 21
57.5
 31
0.0
  0
LINE
  5
1D5
330
1AC
100
AcDbEntity
  8
CONTINUOUS
100
AcDbLine
 10
291.942321777344
 20
105.0
 30
0.0
 11
286.942321777344
 21
105.0
 31
0.0
  0
LINE
  5
1D6
330
1AC
100
AcDbEntity
  8
CONTINUOUS
100
AcDbLine
 10
116.958892822266
 20
193.989334106445
 30
0.0
 11
286.958892822266
 21
193.989334106445
 31
0.0
  0
LINE
  5
1D7
330
1AC
100
AcDbEntity
  8
CONTINUOUS
100
AcDbLine
 10
-0.0000000000000249
 20
209.989334106445
 30
0.0
 11
-0.0000000000000249
 21
199.989334106445
 31
0.0
  0
LINE
  5
1D8
330
1AC
100
AcDbEntity
  8
CONTINUOUS
100
AcDbLine
 10
10.0165710449219
 20
209.989334106445
 30
0.0
 11
0.016571044921875
 21
209.989334106445
 31
0.0
  0
LINE
  5
1D9
330
1AC
100
AcDbEntity
  8
CONTINUOUS
100
AcDbLine
 10
194.666666666667
 20
199.989334106445
 30
0.0
 11
194.666666666667
 21
204.989334106445
 31
0.0
  0
LINE
  5
1DA
330
1AC
100
AcDbEntity
  8
CONTINUOUS
100
AcDbLine
 10
116.942321777344
 20
193.989334106445
 30
0.0
 11
116.942321777344
 21
199.989334106445
 31
0.0
  0
LINE
  5
1DB
330
1AC
100
AcDbEntity
  8
CONTINUOUS
100
AcDbLine
 10
128.958892822266
 20
193.989334106445
 30
0.0
 11
128.958892822266
 21
199.989334106445
 31
0.0
  0
LINE
  5
1DC
330
1AC
100
AcDbEntity
  8
CONTINUOUS
100
AcDbLine
 10
297.0
 20
199.989334106445
 30
0.0
 11
297.0
 21
209.989334106445
 31
0.0
  0
LINE
  5
1DD
330
1AC
100
AcDbEntity
  8
CONTINUOUS
100
AcDbLine
 10
240.833333333333
 20
199.989334106445
 30
0.0
 11
240.833333333333
 21
204.989334106445
 31
0.0
  0
LINE
  5
1DE
330
1AC
100
AcDbEntity
  8
CONTINUOUS
100
AcDbLine
 10
237.958892822266
 20
193.989334106445
 30
0.0
 11
237.958892822266
 21
199.989334106445
 31
0.0
  0
LINE
  5
1DF
330
1AC
100
AcDbEntity
  8
CONTINUOUS
100
AcDbLine
 10
257.958892822266
 20
193.989334106445
 30
0.0
 11
257.958892822266
 21
199.989334106445
 31
0.0
  0
LINE
  5
1E0
330
1AC
100
AcDbEntity
  8
CONTINUOUS
100
AcDbLine
 10
272.958892822266
 20
193.989334106445
 30
0.0
 11
272.958892822266
 21
199.989334106445
 31
0.0
  0
LINE
  5
1E1
330
1AC
100
AcDbEntity
  8
CONTINUOUS
100
AcDbLine
 10
296.958892822266
 20
209.989334106445
 30
0.0
 11
286.958892822266
 21
209.989334106445
 31
0.0
  0
LINE
  5
1E2
330
1AC
100
AcDbEntity
  8
CONTINUOUS
100
AcDbLine
 10
286.942321777344
 20
152.5
 30
0.0
 11
291.942321777344
 21
152.5
 31
0.0
  0
LINE
  5
1E3
330
1AC
100
AcDbEntity
  8
CONTINUOUS
100
AcDbLine
 10
5.0
 20
152.5
 30
0.0
 11
10.0
 21
152.5
 31
0.0
  0
LINE
  5
1E4
330
1AC
100
AcDbEntity
  8
CONTINUOUS
100
AcDbLine
 10
287.0
 20
200.0
 30
0.0
 11
9.99999999999998
 21
200.0
 31
0.0
  0
LINE
  5
1E5
330
1AC
100
AcDbEntity
  8
CONTINUOUS
100
AcDbLine
 10
287.0
 20
10.0
 30
0.0
 11
287.0
 21
200.0
 31
0.0
  0
LINE
  5
1E6
330
1AC
100
AcDbEntity
  8
CONTINUOUS
100
AcDbLine
 10
9.99999999999998
 20
200.0
 30
0.0
 11
9.99999999999998
 21
9.99999999999995
 31
0.0
  0
LINE
  5
1E7
330
1AC
100
AcDbEntity
  8
CONTINUOUS
100
AcDbLine
 10
56.1666666666666
 20
200.0
 30
0.0
 11
56.1666666666666
 21
205.0
 31
0.0
  0
LINE
  5
1E8
330
1AC
100
AcDbEntity
  8
CONTINUOUS
100
AcDbLine
 10
102.333333333333
 20
200.0
 30
0.0
 11
102.333333333333
 21
205.0
 31
0.0
  0
LINE
  5
1E9
330
1AC
100
AcDbEntity
  8
CONTINUOUS
100
AcDbLine
 10
148.5
 20
200.0
 30
0.0
 11
148.5
 21
205.0
 31
0.0
  0
LINE
  5
1EA
330
1AC
100
AcDbEntity
  8
CONTINUOUS
100
AcDbLine
 10
56.1666679382324
 20
10.0
 30
0.0
 11
56.1666679382324
 21
5.0
 31
0.0
  0
LINE
  5
1EB
330
1AC
100
AcDbEntity
  8
CONTINUOUS
100
AcDbLine
 10
102.333335876465
 20
10.0
 30
0.0
 11
102.333335876465
 21
5.0
 31
0.0
  0
MTEXT
  5
1EC
330
1AC
100
AcDbEntity
  8
CONTINUOUS
100
AcDbMText
 10
171.459843139648
 20
204.242353759765
 30
0.0
 40
3.720853217058121
 41
0.0
 46
0.0
 71
     4
 72
     1
  1
{\fArial|b0|i0|c0|p0;\C7;4}{\fArial|b0|i0|c0|p0;\C7;}
 73
     1
 44
1.0
  0
MTEXT
  5
1ED
330
1AC
100
AcDbEntity
  8
CONTINUOUS
100
AcDbMText
 10
32.2742214965821
 20
204.252439819336
 30
0.0
 40
3.720853217058121
 41
0.0
 46
0.0
 71
     4
 72
     1
  1
{\fArial|b0|i0|c0|p0;\C7;1}{\fArial|b0|i0|c0|p0;\C7;}
 73
     1
 44
1.0
  0
MTEXT
  5
1EE
330
1AC
100
AcDbEntity
  8
CONTINUOUS
100
AcDbMText
 10
175.929821777344
 20
37.41
 30
0.0
 40
2.188737186504777
 41
0.0
 46
0.0
 71
     4
 72
     1
  1
{\fArial|b0|i0|c0|p0;\C7;Approved by - date}{\fArial|b0|i0|c0|p0;\C7;}
 73
     1
 44
1.0
  0
MTEXT
  5
1EF
330
1AC
100
AcDbEntity
  8
CONTINUOUS
100
AcDbMText
 10
27.3887158203126
 20
6.7864282951355
 30
0.0
 40
3.720853217058121
 41
0.0
 46
0.0
 71
     4
 72
     1
  1
{\fArial|b0|i0|c0|p0;\C7;1}{\fArial|b0|i0|c0|p0;\C7;}
 73
     1
 44
1.0
  0
MTEXT
  5
1F0
330
1AC
100
AcDbEntity
  8
CONTINUOUS
100
AcDbMText
 10
216.858890991211
 20
204.29698022461
 30
0.0
 40
3.720853217058121
 41
0.0
 46
0.0
 71
     4
 72
     1
  1
{\fArial|b0|i0|c0|p0;\C7;5}{\fArial|b0|i0|c0|p0;\C7;}
 73
     1
 44
1.0
  0
MTEXT
  5
1F1
330
1AC
100
AcDbEntity
  8
CONTINUOUS
100
AcDbMText
 10
5.18862550735474
 20
80.0342772827149
 30
0.0
 40
3.720853217058121
 41
0.0
 46
0.0
 71
     4
 72
     1
  1
{\fArial|b0|i0|c0|p0;\C7;C}{\fArial|b0|i0|c0|p0;\C7;}
 73
     1
 44
1.0
  0
MTEXT
  5
1F2
330
1AC
100
AcDbEntity
  8
CONTINUOUS
100
AcDbMText
 10
253.929821777344
 20
17.41
 30
0.0
 40
2.188737186504777
 41
0.0
 46
0.0
 71
     4
 72
     1
  1
{\fArial|b0|i0|c0|p0;\C7;Edition}{\fArial|b0|i0|c0|p0;\C7;}
 73
     1
 44
1.0
  0
MTEXT
  5
1F3
330
1AC
100
AcDbEntity
  8
CONTINUOUS
100
AcDbMText
 10
265.171810609717
 20
204.240896547217
 30
0.0
 40
3.720853217058121
 41
0.0
 46
0.0
 71
     4
 72
     1
  1
{\fArial|b0|i0|c0|p0;\C7;6}{\fArial|b0|i0|c0|p0;\C7;}
 73
     1
 44
1.0
  0
MTEXT
  5
1F4
330
1AC
100
AcDbEntity
  8
CONTINUOUS
100
AcDbMText
 10
239.946392822266
 20
197.399334106445
 30
0.0
 40
2.188737186504777
 41
0.0
 46
0.0
 71
     4
 72
     1
  1
{\fArial|b0|i0|c0|p0;\C7;Date}{\fArial|b0|i0|c0|p0;\C7;}
 73
     1
 44
1.0
  0
MTEXT
  5
1F5
330
1AC
100
AcDbEntity
  8
CONTINUOUS
100
AcDbMText
 10
289.025805015464
 20
125.886
 30
0.0
 40
3.720853217058121
 41
0.0
 46
0.0
 71
     4
 72
     1
  1
{\fArial|b0|i0|c0|p0;\C7;B}{\fArial|b0|i0|c0|p0;\C7;}
 73
     1
 44
1.0
  0
MTEXT
  5
1F6
330
1AC
100
AcDbEntity
  8
CONTINUOUS
100
AcDbMText
 10
121.245655822681
 20
204.355103698803
 30
0.0
 40
3.720853217058121
 41
0.0
 46
0.0
 71
     4
 72
     1
  1
{\fArial|b0|i0|c0|p0;\C7;3}{\fArial|b0|i0|c0|p0;\C7;}
 73
     1
 44
1.0
  0
MTEXT
  5
1F7
330
1AC
100
AcDbEntity
  8
CONTINUOUS
100
AcDbMText
 10
268.929821777344
 20
37.41
 30
0.0
 40
2.188737186504777
 41
0.0
 46
0.0
 71
     4
 72
     1
  1
{\fArial|b0|i0|c0|p0;\C7;Scale}{\fArial|b0|i0|c0|p0;\C7;}
 73
     1
 44
1.0
  0
MTEXT
  5
1F8
330
1AC
100
AcDbEntity
  8
CONTINUOUS
100
AcDbMText
 10
126.092175294703
 20
6.61010619923708
 30
0.0
 40
3.720853217058121
 41
0.0
 46
0.0
 71
     4
 72
     1
  1
{\fArial|b0|i0|c0|p0;\C7;3}{\fArial|b0|i0|c0|p0;\C7;}
 73
     1
 44
1.0
  0
MTEXT
  5
1F9
330
1AC
100
AcDbEntity
  8
CONTINUOUS
100
AcDbMText
 10
4.984780712209
 20
172.034376464844
 30
0.0
 40
3.720853217058121
 41
0.0
 46
0.0
 71
     4
 72
     1
  1
{\fArial|b0|i0|c0|p0;\C7;A}{\fArial|b0|i0|c0|p0;\C7;}
 73
     1
 44
1.0
  0
MTEXT
  5
1FA
330
1AC
100
AcDbEntity
  8
CONTINUOUS
100
AcDbMText
 10
5.33690040588379
 20
33.886
 30
0.0
 40
3.720853217058121
 41
0.0
 46
0.0
 71
     4
 72
     1
  1
{\fArial|b0|i0|c0|p0;\C7;D}{\fArial|b0|i0|c0|p0;\C7;}
 73
     1
 44
1.0
  0
MTEXT
  5
1FB
330
1AC
100
AcDbEntity
  8
CONTINUOUS
100
AcDbMText
 10
213.929821777344
 20
37.41
 30
0.0
 40
2.188737186504777
 41
0.0
 46
0.0
 71
     4
 72
     1
  1
{\fArial|b0|i0|c0|p0;\C7;File name}{\fArial|b0|i0|c0|p0;\C7;}
 73
     1
 44
1.0
  0
MTEXT
  5
1FC
330
1AC
100
AcDbEntity
  8
CONTINUOUS
100
AcDbMText
 10
268.929821777344
 20
17.41
 30
0.0
 40
2.188737186504777
 41
0.0
 46
0.0
 71
     4
 72
     1
  1
{\fArial|b0|i0|c0|p0;\C7;Sheet}{\fArial|b0|i0|c0|p0;\C7;}
 73
     1
 44
1.0
  0
MTEXT
  5
1FD
330
1AC
100
AcDbEntity
  8
CONTINUOUS
100
AcDbMText
 10
5.6160912703474
 20
125.886
 30
0.0
 40
3.720853217058121
 41
0.0
 46
0.0
 71
     4
 72
     1
  1
{\fArial|b0|i0|c0|p0;\C7;B}{\fArial|b0|i0|c0|p0;\C7;}
 73
     1
 44
1.0
  0
MTEXT
  5
1FE
330
1AC
100
AcDbEntity
  8
CONTINUOUS
100
AcDbMText
 10
238.929821777344
 20
43.41
 30
0.0
 40
2.188737186504777
 41
0.0
 46
0.0
 71
     4
 72
     1
  1
{\fArial|b0|i0|c0|p0;\C7;Article No./Reference}{\fArial|b0|i0|c0|p0;\C7;}
 73
     1
 44
1.0
  0
MTEXT
  5
1FF
330
1AC
100
AcDbEntity
  8
CONTINUOUS
100
AcDbMText
 10
258.365252123226
 20
197.399334106445
 30
0.0
 40
2.188737186504777
 41
0.0
 46
0.0
 71
     4
 72
     1
  1
{\fArial|b0|i0|c0|p0;\C7;Signature}{\fArial|b0|i0|c0|p0;\C7;}
 73
     1
 44
1.0
  0
MTEXT
  5
200
330
1AC
100
AcDbEntity
  8
CONTINUOUS
100
AcDbMText
 10
273.533476096241
 20
197.174053344726
 30
0.0
 40
2.188737186504777
 41
0.0
 46
0.0
 71
     4
 72
     1
  1
{\fArial|b0|i0|c0|p0;\C7;Checked}{\fArial|b0|i0|c0|p0;\C7;}
 73
     1
 44
1.0
  0
MTEXT
  5
201
330
1AC
100
AcDbEntity
  8
CONTINUOUS
100
AcDbMText
 10
118.929821777344
 20
43.41
 30
0.0
 40
2.188737186504777
 41
0.0
 46
0.0
 71
     4
 72
     1
  1
{\fArial|b0|i0|c0|p0;\C7;Itemref}{\fArial|b0|i0|c0|p0;\C7;}
 73
     1
 44
1.0
  0
MTEXT
  5
202
330
1AC
100
AcDbEntity
  8
CONTINUOUS
100
AcDbMText
 10
195.877815246582
 20
15.4553644180298
 30
0.0
 40
1.969863467854299
 41
0.0
 46
0.0
 71
     4
 72
     1
  1
{\fArial|b0|i0|c0|p0;\C7;}
 73
     1
 44
1.0
  0
MTEXT
  5
203
330
1AC
100
AcDbEntity
  8
CONTINUOUS
100
AcDbMText
 10
288.594410820089
 20
171.67635949707
 30
0.0
 40
3.720853217058121
 41
0.0
 46
0.0
 71
     4
 72
     1
  1
{\fArial|b0|i0|c0|p0;\C7;A}{\fArial|b0|i0|c0|p0;\C7;}
 73
     1
 44
1.0
  0
MTEXT
  5
204
330
1AC
100
AcDbEntity
  8
CONTINUOUS
100
AcDbMText
 10
77.9621860149715
 20
204.250404272846
 30
0.0
 40
3.720853217058121
 41
0.0
 46
0.0
 71
     4
 72
     1
  1
{\fArial|b0|i0|c0|p0;\C7;2}{\fArial|b0|i0|c0|p0;\C7;}
 73
     1
 44
1.0
  0
MTEXT
  5
205
330
1AC
100
AcDbEntity
  8
CONTINUOUS
100
AcDbMText
 10
262.082233886719
 20
6.73998626327514
 30
0.0
 40
3.720853217058121
 41
0.0
 46
0.0
 71
     4
 72
     1
  1
{\fArial|b0|i0|c0|p0;\C7;6}{\fArial|b0|i0|c0|p0;\C7;}
 73
     1
 44
1.0
  0
MTEXT
  5
206
330
1AC
100
AcDbEntity
  8
CONTINUOUS
100
AcDbMText
 10
288.920463256836
 20
33.4667418823242
 30
0.0
 40
3.720853217058121
 41
0.0
 46
0.0
 71
     4
 72
     1
  1
{\fArial|b0|i0|c0|p0;\C7;D}{\fArial|b0|i0|c0|p0;\C7;}
 73
     1
 44
1.0
  0
MTEXT
  5
207
330
1AC
100
AcDbEntity
  8
CONTINUOUS
100
AcDbMText
 10
118.629865646362
 20
33.0095512390137
 30
0.0
 40
1.969863467854299
 41
0.0
 46
0.0
 71
     4
 72
     1
  1
{\fArial|b0|i0|c0|p0;\C7;}
 73
     1
 44
1.0
  0
MTEXT
  5
208
330
1AC
100
AcDbEntity
  8
CONTINUOUS
100
AcDbMText
 10
288.710822753907
 20
79.4667495117188
 30
0.0
 40
3.720853217058121
 41
0.0
 46
0.0
 71
     4
 72
     1
  1
{\fArial|b0|i0|c0|p0;\C7;C}{\fArial|b0|i0|c0|p0;\C7;}
 73
     1
 44
1.0
  0
MTEXT
  5
209
330
1AC
100
AcDbEntity
  8
CONTINUOUS
100
AcDbMText
 10
81.36409489129
 20
6.84505931157936
 30
0.0
 40
3.720853217058121
 41
0.0
 46
0.0
 71
     4
 72
     1
  1
{\fArial|b0|i0|c0|p0;\C7;2}{\fArial|b0|i0|c0|p0;\C7;}
 73
     1
 44
1.0
  0
MTEXT
  5
20A
330
1AC
100
AcDbEntity
  8
CONTINUOUS
100
AcDbMText
 10
133.929821777344
 20
43.41
 30
0.0
 40
2.188737186504777
 41
0.0
 46
0.0
 71
     4
 72
     1
  1
{\fArial|b0|i0|c0|p0;\C7;Quantity}{\fArial|b0|i0|c0|p0;\C7;}
 73
     1
 44
1.0
  0
MTEXT
  5
20B
330
1AC
100
AcDbEntity
  8
CONTINUOUS
100
AcDbMText
 10
150.929821777344
 20
43.41
 30
0.0
 40
2.188737186504777
 41
0.0
 46
0.0
 71
     4
 72
     1
  1
{\fArial|b0|i0|c0|p0;\C7;Title/Name, designation, material, dimension etc}{\fArial|b0|i0|c0|p0;\C7;}
 73
     1
 44
1.0
  0
MTEXT
  5
20C
330
1AC
100
AcDbEntity
  8
CONTINUOUS
100
AcDbMText
 10
238.929821777344
 20
37.41
 30
0.0
 40
2.188737186504777
 41
0.0
 46
0.0
 71
     4
 72
     1
  1
{\fArial|b0|i0|c0|p0;\C7;Date}{\fArial|b0|i0|c0|p0;\C7;}
 73
     1
 44
1.0
  0
MTEXT
  5
20D
330
1AC
100
AcDbEntity
  8
CONTINUOUS
100
AcDbMText
 10
130.946392822266
 20
197.399334106445
 30
0.0
 40
2.188737186504777
 41
0.0
 46
0.0
 71
     4
 72
     1
  1
{\fArial|b0|i0|c0|p0;\C7;Revision note}{\fArial|b0|i0|c0|p0;\C7;}
 73
     1
 44
1.0
  0
MTEXT
  5
20E
330
1AC
100
AcDbEntity
  8
CONTINUOUS
100
AcDbMText
 10
238.686748504639
 20
33.3418609619141
 30
0.0
 40
1.969863467854299
 41
0.0
 46
0.0
 71
     4
 72
     1
  1
{\fArial|b0|i0|c0|p0;\C7;}
 73
     1
 44
1.0
  0
MTEXT
  5
20F
330
1AC
100
AcDbEntity
  8
CONTINUOUS
100
AcDbMText
 10
118.929821777344
 20
37.41
 30
0.0
 40
2.188737186504777
 41
0.0
 46
0.0
 71
     4
 72
     1
  1
{\fArial|b0|i0|c0|p0;\C7;Drawn by}{\fArial|b0|i0|c0|p0;\C7;}
 73
     1
 44
1.0
  0
MTEXT
  5
210
330
1AC
100
AcDbEntity
  8
CONTINUOUS
100
AcDbMText
 10
117.995552825928
 20
197.399334106445
 30
0.0
 40
2.188737186504777
 41
0.0
 46
0.0
 71
     4
 72
     1
  1
{\fArial|b0|i0|c0|p0;\C7;RevNo}{\fArial|b0|i0|c0|p0;\C7;}
 73
     1
 44
1.0
  0
MTEXT
  5
211
330
1AC
100
AcDbEntity
  8
CONTINUOUS
100
AcDbMText
 10
150.929821777344
 20
37.41
 30
0.0
 40
2.188737186504777
 41
0.0
 46
0.0
 71
     4
 72
     1
  1
{\fArial|b0|i0|c0|p0;\C7;Checked by}{\fArial|b0|i0|c0|p0;\C7;}
 73
     1
 44
1.0
  0
ENDBLK
  5
1AE
330
1AC
100
AcDbEntity
  8
0
100
AcDbBlockEnd
  0
ENDSEC
  0
SECTION
  2
ENTITIES
  0
CIRCLE
  5
40
330
1F
100
AcDbEntity
  8
VISIBLE
100
AcDbCircle
 10
89.57649536429325
 20
110.7159049128207
 30
0.0
 40
0.7999999999999972
  0
CIRCLE
  5
41
330
1F
100
AcDbEntity
  8
VISIBLE
100
AcDbCircle
 10
67.32649536429325
 20
110.7159049128207
 30
0.0
 40
0.7999999999999972
  0
CIRCLE
  5
42
330
1F
100
AcDbEntity
  8
VISIBLE
100
AcDbCircle
 10
49.07649536429325
 20
131.2159049128207
 30
0.0
 40
0.7999999999999972
  0
CIRCLE
  5
43
330
1F
100
AcDbEntity
  8
VISIBLE
100
AcDbCircle
 10
73.57649536429325
 20
110.7159049128207
 30
0.0
 40
0.7999999999999972
  0
CIRCLE
  5
44
330
1F
100
AcDbEntity
  8
VISIBLE
100
AcDbCircle
 10
49.07649536429325
 20
106.2159049128207
 30
0.0
 40
0.7999999999999972
  0
CIRCLE
  5
45
330
1F
100
AcDbEntity
  8
VISIBLE
100
AcDbCircle
 10
91.82649536429325
 20
106.2159049128207
 30
0.0
 40
0.7999999999999972
  0
CIRCLE
  5
46
330
1F
100
AcDbEntity
  8
VISIBLE
100
AcDbCircle
 10
51.32649536429325
 20
110.7159049128207
 30
0.0
 40
0.7999999999999972
  0
LINE
  5
47
330
1F
100
AcDbEntity
  8
VISIBLE
100
AcDbLine
 10
47.07649536429325
 20
133.2159049128207
 30
0.0
 11
93.82649536429324
 21
133.2159049128207
 31
0.0
  0
LINE
  5
48
330
1F
100
AcDbEntity
  8
VISIBLE
100
AcDbLine
 10
47.07649536429325
 20
104.2159049128207
 30
0.0
 11
47.07649536429325
 21
133.2159049128207
 31
0.0
  0
CIRCLE
  5
49
330
1F
100
AcDbEntity
  8
VISIBLE
100
AcDbCircle
 10
51.32649536429325
 20
126.7159049128207
 30
0.0
 40
0.7999999999999972
  0
CIRCLE
  5
4A
330
1F
100
AcDbEntity
  8
VISIBLE
100
AcDbCircle
 10
91.82649536429325
 20
131.2159049128207
 30
0.0
 40
0.7999999999999972
  0
CIRCLE
  5
4B
330
1F
100
AcDbEntity
  8
VISIBLE
100
AcDbCircle
 10
73.57649536429325
 20
126.7159049128207
 30
0.0
 40
0.7999999999999972
  0
LINE
  5
4C
330
1F
100
AcDbEntity
  8
VISIBLE
100
AcDbLine
 10
93.82649536429324
 20
133.2159049128207
 30
0.0
 11
93.82649536429324
 21
104.2159049128207
 31
0.0
  0
LINE
  5
4D
330
1F
100
AcDbEntity
  8
VISIBLE
100
AcDbLine
 10
93.82649536429324
 20
104.2159049128207
 30
0.0
 11
47.07649536429325
 21
104.2159049128207
 31
0.0
  0
CIRCLE
  5
4E
330
1F
100
AcDbEntity
  8
VISIBLE
100
AcDbCircle
 10
67.32649536429325
 20
126.7159049128207
 30
0.0
 40
0.7999999999999972
  0
CIRCLE
  5
4F
330
1F
100
AcDbEntity
  8
VISIBLE
100
AcDbCircle
 10
89.57649536429325
 20
126.7159049128207
 30
0.0
 40
0.7999999999999972
  0
CIRCLE
  5
50
330
1F
100
AcDbEntity
  8
VISIBLE
100
AcDbCircle
 10
59.32649536429325
 20
118.7159049128207
 30
0.0
 40
9.75
  0
CIRCLE
  5
51
330
1F
100
AcDbEntity
  8
VISIBLE
100
AcDbCircle
 10
81.57649536429325
 20
118.7159049128207
 30
0.0
 40
9.749999999999986
  0
LINE
  5
53
330
1F
100
AcDbEntity
  8
CENTER
100
AcDbLine
 10
82.07649536429325
 20
118.7159049128207
 30
0.0
 11
81.07649536429325
 21
118.7159049128207
 31
0.0
  0
LINE
  5
54
330
1F
100
AcDbEntity
  8
CENTER
100
AcDbLine
 10
81.57649536429325
 20
119.2159049128207
 30
0.0
 11
81.57649536429325
 21
118.2159049128207
 31
0.0
  0
LINE
  5
55
330
1F
100
AcDbEntity
  8
CENTER
100
AcDbLine
 10
82.57649536429325
 20
118.7159049128207
 30
0.0
 11
92.91399536429324
 21
118.7159049128207
 31
0.0
  0
LINE
  5
56
330
1F
100
AcDbEntity
  8
CENTER
100
AcDbLine
 10
80.57649536429325
 20
118.7159049128207
 30
0.0
 11
70.23899536429326
 21
118.7159049128207
 31
0.0
  0
LINE
  5
57
330
1F
100
AcDbEntity
  8
CENTER
100
AcDbLine
 10
81.57649536429325
 20
119.7159049128207
 30
0.0
 11
81.57649536429325
 21
130.0534049128207
 31
0.0
  0
LINE
  5
58
330
1F
100
AcDbEntity
  8
CENTER
100
AcDbLine
 10
81.57649536429325
 20
117.7159049128207
 30
0.0
 11
81.57649536429325
 21
107.3784049128207
 31
0.0
  0
LINE
  5
59
330
1F
100
AcDbEntity
  8
CENTER
100
AcDbLine
 10
59.82649536429325
 20
118.7159049128207
 30
0.0
 11
58.82649536429325
 21
118.7159049128207
 31
0.0
  0
LINE
  5
5A
330
1F
100
AcDbEntity
  8
CENTER
100
AcDbLine
 10
59.32649536429325
 20
119.2159049128207
 30
0.0
 11
59.32649536429325
 21
118.2159049128207
 31
0.0
  0
LINE
  5
5B
330
1F
100
AcDbEntity
  8
CENTER
100
AcDbLine
 10
60.32649536429325
 20
118.7159049128207
 30
0.0
 11
70.66399536429324
 21
118.7159049128207
 31
0.0
  0
LINE
  5
5C
330
1F
100
AcDbEntity
  8
CENTER
100
AcDbLine
 10
58.32649536429325
 20
118.7159049128207
 30
0.0
 11
47.98899536429325
 21
118.7159049128207
 31
0.0
  0
LINE
  5
5D
330
1F
100
AcDbEntity
  8
CENTER
100
AcDbLine
 10
59.32649536429325
 20
119.7159049128207
 30
0.0
 11
59.32649536429325
 21
130.0534049128207
 31
0.0
  0
LINE
  5
5E
330
1F
100
AcDbEntity
  8
CENTER
100
AcDbLine
 10
59.32649536429325
 20
117.7159049128207
 30
0.0
 11
59.32649536429325
 21
107.3784049128207
 31
0.0
  0
LINE
  5
5F
330
1F
100
AcDbEntity
  8
CENTER
100
AcDbLine
 10
49.57649536429325
 20
106.2159049128207
 30
0.0
 11
48.57649536429325
 21
106.2159049128207
 31
0.0
  0
LINE
  5
60
330
1F
100
AcDbEntity
  8
CENTER
100
AcDbLine
 10
49.07649536429325
 20
106.7159049128207
 30
0.0
 11
49.07649536429325
 21
105.7159049128207
 31
0.0
  0
LINE
  5
61
330
1F
100
AcDbEntity
  8
CENTER
100
AcDbLine
 10
50.07649536429325
 20
106.2159049128207
 30
0.0
 11
52.06399536429325
 21
106.2159049128207
 31
0.0
  0
LINE
  5
62
330
1F
100
AcDbEntity
  8
CENTER
100
AcDbLine
 10
48.07649536429325
 20
106.2159049128207
 30
0.0
 11
46.08899536429325
 21
106.2159049128207
 31
0.0
  0
LINE
  5
63
330
1F
100
AcDbEntity
  8
CENTER
100
AcDbLine
 10
49.07649536429325
 20
107.2159049128207
 30
0.0
 11
49.07649536429325
 21
109.2034049128207
 31
0.0
  0
LINE
  5
64
330
1F
100
AcDbEntity
  8
CENTER
100
AcDbLine
 10
49.07649536429325
 20
105.2159049128207
 30
0.0
 11
49.07649536429325
 21
103.2284049128207
 31
0.0
  0
LINE
  5
65
330
1F
100
AcDbEntity
  8
CENTER
100
AcDbLine
 10
49.57649536429325
 20
131.2159049128207
 30
0.0
 11
48.57649536429325
 21
131.2159049128207
 31
0.0
  0
LINE
  5
66
330
1F
100
AcDbEntity
  8
CENTER
100
AcDbLine
 10
49.07649536429325
 20
131.7159049128207
 30
0.0
 11
49.07649536429325
 21
130.7159049128207
 31
0.0
  0
LINE
  5
67
330
1F
100
AcDbEntity
  8
CENTER
100
AcDbLine
 10
50.07649536429325
 20
131.2159049128207
 30
0.0
 11
52.06399536429325
 21
131.2159049128207
 31
0.0
  0
LINE
  5
68
330
1F
100
AcDbEntity
  8
CENTER
100
AcDbLine
 10
48.07649536429325
 20
131.2159049128207
 30
0.0
 11
46.08899536429325
 21
131.2159049128207
 31
0.0
  0
LINE
  5
69
330
1F
100
AcDbEntity
  8
CENTER
100
AcDbLine
 10
49.07649536429325
 20
132.2159049128207
 30
0.0
 11
49.07649536429325
 21
134.2034049128207
 31
0.0
  0
LINE
  5
6A
330
1F
100
AcDbEntity
  8
CENTER
100
AcDbLine
 10
49.07649536429325
 20
130.2159049128207
 30
0.0
 11
49.07649536429325
 21
128.2284049128207
 31
0.0
  0
DIMENSION
  5
6C
330
1F
100
AcDbEntity
  8
DISSOCIATED
100
AcDbDimension
  2
D1
 10
0.0
 20
0.0
 30
0.0
 11
96.98052110293605
 21
216.5202217291164
 31
0.0
 70
    32
  1
<>
 71
     5
 42
-1.0
 73
     0
 74
     0
 75
     0
 53
270.0
  3
ISO-25
100
AcDbAlignedDimension
 13
47.07649536429325
 23
104.2159049128207
 33
0.0
 14
49.07649542161917
 24
106.2159048358968
 34
0.0
 50
270.0
100
AcDbRotatedDimension
1001
ACAD
1000
DSTYLE
1002
{
1070
    76
1070
     0
1070
    75
1070
     0
1070
   282
1070
     0
1070
   281
1070
     0
1070
    77
1070
     1
1070
    79
1070
     0
1070
    78
1070
     0
1070
   272
1070
     2
1070
   271
1070
     2
1070
   179
1070
     2
1070
   140
1040
2.707850318471337
1070
    71
1070
     0
1070
    72
1070
     0
1070
    48
1040
0.002
1070
    47
1040
0.005
1002
}
  0
DIMENSION
  5
7C
330
1F
100
AcDbEntity
  8
DIMENSIONS
100
AcDbDimension
  2
D2
 10
0.0
 20
0.0
 30
0.0
 11
92.63939561465477
 21
223.8243370245266
 31
0.0
 70
    32
  1
<>
 71
     5
 42
-1.0
 73
     0
 74
     0
 75
     0
 53
270.0
  3
ISO-25
100
AcDbAlignedDimension
 13
47.07649536429325
 23
104.2159049128207
 33
0.0
 14
59.32649566748833
 24
118.7159049104026
 34
0.0
 50
270.0
100
AcDbRotatedDimension
1001
ACAD
1000
DSTYLE
1002
{
1070
    76
1070
     0
1070
    75
1070
     0
1070
   282
1070
     0
1070
   281
1070
     0
1070
    77
1070
     1
1070
    79
1070
     0
1070
    78
1070
     0
1070
   272
1070
     2
1070
   271
1070
     2
1070
   179
1070
     2
1070
   140
1040
2.707850318471337
1070
    71
1070
     0
1070
    72
1070
     0
1070
    48
1040
0.002
1070
    47
1040
0.005
1002
}
  0
DIMENSION
  5
8B
330
1F
100
AcDbEntity
  8
DISSOCIATED
100
AcDbDimension
  2
D3
 10
0.0
 20
0.0
 30
0.0
 11
88.29826631167629
 21
229.4746971319485
 31
0.0
 70
    32
  1
<>
 71
     5
 42
-1.0
 73
     0
 74
     0
 75
     0
 53
270.0
  3
ISO-25
100
AcDbAlignedDimension
 13
47.07649536429325
 23
104.2159049128207
 33
0.0
 14
46.08899536429325
 24
131.2159049128207
 34
0.0
 50
270.0
100
AcDbRotatedDimension
1001
ACAD
1000
DSTYLE
1002
{
1070
    76
1070
     0
1070
    75
1070
     0
1070
   282
1070
     0
1070
   281
1070
     0
1070
    77
1070
     1
1070
    79
1070
     0
1070
    78
1070
     0
1070
   272
1070
     2
1070
   271
1070
     2
1070
   179
1070
     2
1070
   140
1040
2.707850318471337
1070
    71
1070
     0
1070
    72
1070
     0
1070
    48
1040
0.002
1070
    47
1040
0.005
1002
}
  0
DIMENSION
  5
9A
330
1F
100
AcDbEntity
  8
DIMENSIONS
100
AcDbDimension
  2
D4
 10
0.0
 20
0.0
 30
0.0
 11
84.16386308291649
 21
231.197361011343
 31
0.0
 70
    32
  1
<>
 71
     5
 42
-1.0
 73
     0
 74
     0
 75
     0
 53
270.0
  3
ISO-25
100
AcDbAlignedDimension
 13
47.07649536429325
 23
104.2159049128207
 33
0.0
 14
47.07649536429325
 24
133.2159049128207
 34
0.0
 50
270.0
100
AcDbRotatedDimension
1001
ACAD
1000
DSTYLE
1002
{
1070
    76
1070
     0
1070
    75
1070
     0
1070
   282
1070
     0
1070
   281
1070
     0
1070
    77
1070
     1
1070
    79
1070
     0
1070
    78
1070
     0
1070
   272
1070
     2
1070
   271
1070
     2
1070
   179
1070
     2
1070
   140
1040
2.707850318471337
1070
    71
1070
     0
1070
    72
1070
     0
1070
    48
1040
0.002
1070
    47
1040
0.005
1002
}
  0
DIMENSION
  5
A9
330
1F
100
AcDbEntity
  8
DISSOCIATED
100
AcDbDimension
  2
D5
 10
0.0
 20
0.0
 30
0.0
 11
100.9547909698794
 21
212.5617180059719
 31
0.0
 70
    32
  1
<>
 71
     5
 42
-1.0
 73
     0
 74
     0
 75
     0
 53
180.0
  3
ISO-25
100
AcDbAlignedDimension
 13
47.07649536429325
 23
104.2159049128207
 33
0.0
 14
49.07649542161917
 24
106.2159048358968
 34
0.0
 50
180.0
100
AcDbRotatedDimension
1001
ACAD
1000
DSTYLE
1002
{
1070
    76
1070
     0
1070
    75
1070
     0
1070
   282
1070
     0
1070
   281
1070
     0
1070
    77
1070
     1
1070
    79
1070
     0
1070
    78
1070
     0
1070
   272
1070
     2
1070
   271
1070
     2
1070
   179
1070
     2
1070
   140
1040
2.707850318471337
1070
    71
1070
     0
1070
    72
1070
     0
1070
    48
1040
0.002
1070
    47
1040
0.005
1002
}
  0
DIMENSION
  5
B8
330
1F
100
AcDbEntity
  8
DIMENSIONS
100
AcDbDimension
  2
D6
 10
0.0
 20
0.0
 30
0.0
 11
105.8920544586489
 21
207.3340339849758
 31
0.0
 70
    32
  1
<>
 71
     5
 42
-1.0
 73
     0
 74
     0
 75
     0
 53
180.0
  3
ISO-25
100
AcDbAlignedDimension
 13
47.07649536429325
 23
104.2159049128207
 33
0.0
 14
59.32649566748833
 24
118.7159049104026
 34
0.0
 50
180.0
100
AcDbRotatedDimension
1001
ACAD
1000
DSTYLE
1002
{
1070
    76
1070
     0
1070
    75
1070
     0
1070
   282
1070
     0
1070
   281
1070
     0
1070
    77
1070
     1
1070
    79
1070
     0
1070
    78
1070
     0
1070
   272
1070
     2
1070
   271
1070
     2
1070
   179
1070
     2
1070
   140
1040
2.707850318471337
1070
    71
1070
     0
1070
    72
1070
     0
1070
    48
1040
0.002
1070
    47
1040
0.005
1002
}
  0
DIMENSION
  5
C7
330
1F
100
AcDbEntity
  8
DIMENSIONS
100
AcDbDimension
  2
D7
 10
0.0
 20
0.0
 30
0.0
 11
117.7027577362368
 21
203.8489036749172
 31
0.0
 70
    32
  1
<>
 71
     5
 42
-1.0
 73
     0
 74
     0
 75
     0
 53
180.0
  3
ISO-25
100
AcDbAlignedDimension
 13
47.07649536429325
 23
104.2159049128207
 33
0.0
 14
81.57649536429325
 24
107.3784049128207
 34
0.0
 50
180.0
100
AcDbRotatedDimension
1001
ACAD
1000
DSTYLE
1002
{
1070
    76
1070
     0
1070
    75
1070
     0
1070
   282
1070
     0
1070
   281
1070
     0
1070
    77
1070
     1
1070
    79
1070
     0
1070
    78
1070
     0
1070
   272
1070
     2
1070
   271
1070
     2
1070
   179
1070
     2
1070
   140
1040
2.707850318471337
1070
    71
1070
     0
1070
    72
1070
     0
1070
    48
1040
0.002
1070
    47
1040
0.005
1002
}
  0
DIMENSION
  5
D6
330
1F
100
AcDbEntity
  8
DIMENSIONS
100
AcDbDimension
  2
D8
 10
0.0
 20
0.0
 30
0.0
 11
124.9634388885806
 21
198.4276008795071
 31
0.0
 70
    32
  1
<>
 71
     5
 42
-1.0
 73
     0
 74
     0
 75
     0
 53
180.0
  3
ISO-25
100
AcDbAlignedDimension
 13
47.07649536429325
 23
104.2159049128207
 33
0.0
 14
93.82649536429324
 24
104.2159049128207
 34
0.0
 50
180.0
100
AcDbRotatedDimension
1001
ACAD
1000
DSTYLE
1002
{
1070
    76
1070
     0
1070
    75
1070
     0
1070
   282
1070
     0
1070
   281
1070
     0
1070
    77
1070
     1
1070
    79
1070
     0
1070
    78
1070
     0
1070
   272
1070
     2
1070
   271
1070
     2
1070
   179
1070
     2
1070
   140
1040
2.707850318471337
1070
    71
1070
     0
1070
    72
1070
     0
1070
    48
1040
0.002
1070
    47
1040
0.005
1002
}
  0
DIMENSION
  5
E5
330
1F
100
AcDbEntity
  8
DIMENSIONS
100
AcDbDimension
  2
D9
 10
0.0
 20
0.0
 30
0.0
 11
112.4919308624575
 21
247.3823890875152
 31
0.0
 70
    32
  1
2x<>
 71
     5
 42
-1.0
 73
     0
 74
     0
 75
     0
  3
ISO-25
100
AcDbAlignedDimension
 13
49.57649536429325
 23
118.7159049128207
 33
0.0
 14
69.07649536429325
 24
118.7159049128207
 34
0.0
100
AcDbRotatedDimension
1001
ACAD
1000
DSTYLE
1002
{
1070
    76
1070
     0
1070
    75
1070
     0
1070
   282
1070
     0
1070
   281
1070
     0
1070
    77
1070
     1
1070
    79
1070
     0
1070
    78
1070
     0
1070
   272
1070
     2
1070
   271
1070
     2
1070
   179
1070
     2
1070
   140
1040
2.707850318471337
1070
    71
1070
     0
1070
    72
1070
     0
1070
    48
1040
0.002
1070
    47
1040
0.005
1002
}
  0
MTEXT
  5
F6
330
1F
100
AcDbEntity
  8
CONTINUOUS
100
AcDbMText
 10
98.1172412141917
 20
138.511841802759
 30
0.0
 40
2.079300327179538
 41
0.0
 46
0.0
 71
     4
 72
     1
  1
{\fArial|b0|i0|c0|p0;\C7;4x }{\fAlibre Symbols|b0|i0|c0|p0;\C7;\H1.052632x;n}{\fArial|b0|i0|c0|p0;\C7;3.2 }{\fAlibre Symbols|b0|i0|c0|p0;\C7;\H1.052632x;x}{\fArial|b0|i0|c0|p0;\C7; THRU}{\fMicrosoft Sans Serif|b0|i0|c0|p0;\C7;\H0.8947368x;}
 73
     1
 44
1.0
  0
LINE
  5
F7
330
1F
100
AcDbEntity
  8
CONTINUOUS
100
AcDbLine
 10
91.7078662141917
 20
138.511841802759
 30
0.0
 11
96.8672412141917
 21
138.511841802759
 31
0.0
  0
LINE
  5
F8
330
1F
100
AcDbEntity
  8
CONTINUOUS
100
AcDbLine
 10
91.76471697996101
 20
135.0154026995327
 30
0.0
 11
91.76471697996101
 21
135.0154026995327
 31
0.0
  0
LINE
  5
F9
330
1F
100
AcDbEntity
  8
CONTINUOUS
100
AcDbLine
 10
91.76471697996101
 20
135.0154026995327
 30
0.0
 11
91.7078662141917
 21
138.511841802759
 31
0.0
  0
LWPOLYLINE
  5
FA
330
1F
100
AcDbEntity
  8
CONTINUOUS
100
AcDbPolyline
 90
        4
 70
     0
 43
0.0
 10
91.81348938864437
 20
132.0157991837074
 10
91.26478306065678
 20
135.0072739647521
 10
92.2646508992652
 20
135.0235314343133
 10
91.81348938864437
 20
132.0157991837074
  0
HATCH
  5
FB
330
1F
100
AcDbEntity
  8
0
 62
     7
100
AcDbHatch
 10
0.0
 20
0.0
 30
0.0
210
0.0
220
0.0
230
1.0
  2
SOLID
 70
     1
 71
     0
 91
        1
 92
        0
 93
        3
 72
     1
 10
92.2646508992652
 20
135.0235314343133
 11
91.81348938864437
 21
132.0157991837074
 72
     1
 10
91.81348938864437
 20
132.0157991837074
 11
91.26478306065678
 21
135.0072739647521
 72
     1
 10
91.26478306065678
 20
135.0072739647521
 11
92.2646508992652
 21
135.0235314343133
 97
        0
 75
     0
 76
     1
 98
        0
  0
LINE
  5
FC
330
1F
100
AcDbEntity
  8
VISIBLE
100
AcDbLine
 10
144.2930772304535
 20
104.2159049128207
 30
0.0
 11
145.0430772304535
 21
104.2159049128207
 31
0.0
  0
LINE
  5
FD
330
1F
100
AcDbEntity
  8
VISIBLE
100
AcDbLine
 10
145.0430772304535
 20
104.2159049128207
 30
0.0
 11
145.0430772304535
 21
133.2159049128207
 31
0.0
  0
LINE
  5
FE
330
1F
100
AcDbEntity
  8
VISIBLE
100
AcDbLine
 10
144.2930772304535
 20
133.2159049128207
 30
0.0
 11
144.2930772304535
 21
104.2159049128207
 31
0.0
  0
LINE
  5
FF
330
1F
100
AcDbEntity
  8
VISIBLE
100
AcDbLine
 10
144.2930772304535
 20
133.2159049128207
 30
0.0
 11
145.0430772304535
 21
133.2159049128207
 31
0.0
  0
DIMENSION
  5
100
330
1F
100
AcDbEntity
  8
DIMENSIONS
100
AcDbDimension
  2
D10
 10
0.0
 20
0.0
 30
0.0
 11
236.4727647304535
 21
212.5310707281399
 31
0.0
 70
    32
  1
<>
 71
     5
 42
-1.0
 73
     0
 74
     0
 75
     0
  3
ISO-25
100
AcDbAlignedDimension
 13
144.2930772304535
 23
104.2159049128207
 33
0.0
 14
145.0430772304535
 24
104.2159049128207
 34
0.0
100
AcDbRotatedDimension
1001
ACAD
1000
DSTYLE
1002
{
1070
    76
1070
     0
1070
    75
1070
     0
1070
   282
1070
     0
1070
   281
1070
     0
1070
    77
1070
     1
1070
    79
1070
     0
1070
    78
1070
     0
1070
   272
1070
     2
1070
   271
1070
     2
1070
   179
1070
     2
1070
   140
1040
2.707850318471337
1070
    71
1070
     0
1070
    72
1070
     0
1070
    48
1040
0.002
1070
    47
1040
0.005
1002
}
  0
LINE
  5
10F
330
1F
100
AcDbEntity
  8
VISIBLE
100
AcDbLine
 10
169.3425163827251
 20
104.2159049128207
 30
0.0
 11
169.3425163827251
 21
133.2159049128207
 31
0.0
  0
CIRCLE
  5
110
330
1F
100
AcDbEntity
  8
VISIBLE
100
AcDbCircle
 10
171.3425163827251
 20
106.2159049128207
 30
0.0
 40
0.8000000000000114
  0
LINE
  5
111
330
1F
100
AcDbEntity
  8
VISIBLE
100
AcDbLine
 10
216.0925163827251
 20
104.2159049128207
 30
0.0
 11
169.3425163827251
 21
104.2159049128207
 31
0.0
  0
CIRCLE
  5
112
330
1F
100
AcDbEntity
  8
VISIBLE
100
AcDbCircle
 10
189.5925163827251
 20
110.7159049128207
 30
0.0
 40
0.8000000000000114
  0
CIRCLE
  5
113
330
1F
100
AcDbEntity
  8
VISIBLE
100
AcDbCircle
 10
203.8425163827251
 20
118.7159049128207
 30
0.0
 40
9.75
  0
CIRCLE
  5
114
330
1F
100
AcDbEntity
  8
VISIBLE
100
AcDbCircle
 10
171.3425163827251
 20
131.2159049128207
 30
0.0
 40
0.8000000000000114
  0
CIRCLE
  5
115
330
1F
100
AcDbEntity
  8
VISIBLE
100
AcDbCircle
 10
195.8425163827251
 20
110.7159049128207
 30
0.0
 40
0.8000000000000114
  0
LINE
  5
116
330
1F
100
AcDbEntity
  8
VISIBLE
100
AcDbLine
 10
169.3425163827251
 20
133.2159049128207
 30
0.0
 11
216.0925163827251
 21
133.2159049128207
 31
0.0
  0
CIRCLE
  5
117
330
1F
100
AcDbEntity
  8
VISIBLE
100
AcDbCircle
 10
214.0925163827251
 20
131.2159049128207
 30
0.0
 40
0.8000000000000114
  0
CIRCLE
  5
118
330
1F
100
AcDbEntity
  8
VISIBLE
100
AcDbCircle
 10
189.5925163827251
 20
126.7159049128207
 30
0.0
 40
0.8000000000000114
  0
LINE
  5
119
330
1F
100
AcDbEntity
  8
VISIBLE
100
AcDbLine
 10
216.0925163827251
 20
133.2159049128207
 30
0.0
 11
216.0925163827251
 21
104.2159049128207
 31
0.0
  0
CIRCLE
  5
11A
330
1F
100
AcDbEntity
  8
VISIBLE
100
AcDbCircle
 10
211.8425163827251
 20
126.7159049128207
 30
0.0
 40
0.8000000000000114
  0
CIRCLE
  5
11B
330
1F
100
AcDbEntity
  8
VISIBLE
100
AcDbCircle
 10
173.5925163827251
 20
110.7159049128207
 30
0.0
 40
0.8000000000000114
  0
CIRCLE
  5
11C
330
1F
100
AcDbEntity
  8
VISIBLE
100
AcDbCircle
 10
173.5925163827251
 20
126.7159049128207
 30
0.0
 40
0.8000000000000114
  0
CIRCLE
  5
11D
330
1F
100
AcDbEntity
  8
VISIBLE
100
AcDbCircle
 10
214.0925163827251
 20
106.2159049128207
 30
0.0
 40
0.8000000000000114
  0
CIRCLE
  5
11E
330
1F
100
AcDbEntity
  8
VISIBLE
100
AcDbCircle
 10
195.8425163827251
 20
126.7159049128207
 30
0.0
 40
0.8000000000000114
  0
CIRCLE
  5
11F
330
1F
100
AcDbEntity
  8
VISIBLE
100
AcDbCircle
 10
211.8425163827251
 20
110.7159049128207
 30
0.0
 40
0.8000000000000114
  0
CIRCLE
  5
120
330
1F
100
AcDbEntity
  8
VISIBLE
100
AcDbCircle
 10
181.5925163827251
 20
118.7159049128207
 30
0.0
 40
9.75
  0
LINE
  5
121
330
1F
100
AcDbEntity
  8
CENTER
100
AcDbLine
 10
182.0925163827251
 20
118.7159049128207
 30
0.0
 11
181.0925163827252
 21
118.7159049128207
 31
0.0
  0
LINE
  5
122
330
1F
100
AcDbEntity
  8
CENTER
100
AcDbLine
 10
181.5925163827251
 20
119.2159049128207
 30
0.0
 11
181.5925163827251
 21
118.2159049128207
 31
0.0
  0
LINE
  5
123
330
1F
100
AcDbEntity
  8
CENTER
100
AcDbLine
 10
182.5925163827252
 20
118.7159049128207
 30
0.0
 11
192.9300163827251
 21
118.7159049128207
 31
0.0
  0
LINE
  5
124
330
1F
100
AcDbEntity
  8
CENTER
100
AcDbLine
 10
180.5925163827251
 20
118.7159049128207
 30
0.0
 11
170.2550163827252
 21
118.7159049128207
 31
0.0
  0
LINE
  5
125
330
1F
100
AcDbEntity
  8
CENTER
100
AcDbLine
 10
181.5925163827251
 20
119.7159049128207
 30
0.0
 11
181.5925163827251
 21
130.0534049128207
 31
0.0
  0
LINE
  5
126
330
1F
100
AcDbEntity
  8
CENTER
100
AcDbLine
 10
181.5925163827251
 20
117.7159049128207
 30
0.0
 11
181.5925163827251
 21
107.3784049128207
 31
0.0
  0
LINE
  5
127
330
1F
100
AcDbEntity
  8
CENTER
100
AcDbLine
 10
204.3425163827252
 20
118.7159049128207
 30
0.0
 11
203.3425163827252
 21
118.7159049128207
 31
0.0
  0
LINE
  5
128
330
1F
100
AcDbEntity
  8
CENTER
100
AcDbLine
 10
203.8425163827252
 20
119.2159049128207
 30
0.0
 11
203.8425163827252
 21
118.2159049128207
 31
0.0
  0
LINE
  5
129
330
1F
100
AcDbEntity
  8
CENTER
100
AcDbLine
 10
204.8425163827252
 20
118.7159049128207
 30
0.0
 11
215.1800163827251
 21
118.7159049128207
 31
0.0
  0
LINE
  5
12A
330
1F
100
AcDbEntity
  8
CENTER
100
AcDbLine
 10
202.8425163827252
 20
118.7159049128207
 30
0.0
 11
192.5050163827252
 21
118.7159049128207
 31
0.0
  0
LINE
  5
12B
330
1F
100
AcDbEntity
  8
CENTER
100
AcDbLine
 10
203.8425163827252
 20
119.7159049128207
 30
0.0
 11
203.8425163827252
 21
130.0534049128207
 31
0.0
  0
LINE
  5
12C
330
1F
100
AcDbEntity
  8
CENTER
100
AcDbLine
 10
203.8425163827252
 20
117.7159049128207
 30
0.0
 11
203.8425163827252
 21
107.3784049128207
 31
0.0
  0
LINE
  5
12D
330
1F
100
AcDbEntity
  8
CENTER
100
AcDbLine
 10
190.0925163827252
 20
110.7159049128207
 30
0.0
 11
189.0925163827252
 21
110.7159049128207
 31
0.0
  0
LINE
  5
12E
330
1F
100
AcDbEntity
  8
CENTER
100
AcDbLine
 10
189.5925163827252
 20
111.2159049128207
 30
0.0
 11
189.5925163827252
 21
110.2159049128207
 31
0.0
  0
LINE
  5
12F
330
1F
100
AcDbEntity
  8
CENTER
100
AcDbLine
 10
190.5925163827252
 20
110.7159049128207
 30
0.0
 11
192.5800163827251
 21
110.7159049128207
 31
0.0
  0
LINE
  5
130
330
1F
100
AcDbEntity
  8
CENTER
100
AcDbLine
 10
188.5925163827252
 20
110.7159049128207
 30
0.0
 11
186.6050163827252
 21
110.7159049128207
 31
0.0
  0
LINE
  5
131
330
1F
100
AcDbEntity
  8
CENTER
100
AcDbLine
 10
189.5925163827252
 20
111.7159049128207
 30
0.0
 11
189.5925163827252
 21
113.7034049128207
 31
0.0
  0
LINE
  5
132
330
1F
100
AcDbEntity
  8
CENTER
100
AcDbLine
 10
189.5925163827252
 20
109.7159049128207
 30
0.0
 11
189.5925163827252
 21
107.7284049128207
 31
0.0
  0
LINE
  5
133
330
1F
100
AcDbEntity
  8
CENTER
100
AcDbLine
 10
196.3425163827252
 20
110.7159049128207
 30
0.0
 11
195.3425163827252
 21
110.7159049128207
 31
0.0
  0
LINE
  5
134
330
1F
100
AcDbEntity
  8
CENTER
100
AcDbLine
 10
195.8425163827252
 20
111.2159049128207
 30
0.0
 11
195.8425163827252
 21
110.2159049128207
 31
0.0
  0
LINE
  5
135
330
1F
100
AcDbEntity
  8
CENTER
100
AcDbLine
 10
196.8425163827252
 20
110.7159049128207
 30
0.0
 11
198.8300163827251
 21
110.7159049128207
 31
0.0
  0
LINE
  5
136
330
1F
100
AcDbEntity
  8
CENTER
100
AcDbLine
 10
194.8425163827252
 20
110.7159049128207
 30
0.0
 11
192.8550163827252
 21
110.7159049128207
 31
0.0
  0
LINE
  5
137
330
1F
100
AcDbEntity
  8
CENTER
100
AcDbLine
 10
195.8425163827252
 20
111.7159049128207
 30
0.0
 11
195.8425163827252
 21
113.7034049128207
 31
0.0
  0
LINE
  5
138
330
1F
100
AcDbEntity
  8
CENTER
100
AcDbLine
 10
195.8425163827252
 20
109.7159049128207
 30
0.0
 11
195.8425163827252
 21
107.7284049128207
 31
0.0
  0
LINE
  5
139
330
1F
100
AcDbEntity
  8
CENTER
100
AcDbLine
 10
174.0925163827251
 20
126.7159049128207
 30
0.0
 11
173.0925163827252
 21
126.7159049128207
 31
0.0
  0
LINE
  5
13A
330
1F
100
AcDbEntity
  8
CENTER
100
AcDbLine
 10
173.5925163827251
 20
127.2159049128207
 30
0.0
 11
173.5925163827251
 21
126.2159049128207
 31
0.0
  0
LINE
  5
13B
330
1F
100
AcDbEntity
  8
CENTER
100
AcDbLine
 10
174.5925163827252
 20
126.7159049128207
 30
0.0
 11
176.5800163827251
 21
126.7159049128207
 31
0.0
  0
LINE
  5
13C
330
1F
100
AcDbEntity
  8
CENTER
100
AcDbLine
 10
172.5925163827251
 20
126.7159049128207
 30
0.0
 11
170.6050163827252
 21
126.7159049128207
 31
0.0
  0
LINE
  5
13D
330
1F
100
AcDbEntity
  8
CENTER
100
AcDbLine
 10
173.5925163827251
 20
127.7159049128207
 30
0.0
 11
173.5925163827251
 21
129.7034049128207
 31
0.0
  0
LINE
  5
13E
330
1F
100
AcDbEntity
  8
CENTER
100
AcDbLine
 10
173.5925163827251
 20
125.7159049128207
 30
0.0
 11
173.5925163827251
 21
123.7284049128207
 31
0.0
  0
LINE
  5
13F
330
1F
100
AcDbEntity
  8
CENTER
100
AcDbLine
 10
174.0925163827251
 20
110.7159049128207
 30
0.0
 11
173.0925163827252
 21
110.7159049128207
 31
0.0
  0
LINE
  5
140
330
1F
100
AcDbEntity
  8
CENTER
100
AcDbLine
 10
173.5925163827251
 20
111.2159049128207
 30
0.0
 11
173.5925163827251
 21
110.2159049128207
 31
0.0
  0
LINE
  5
141
330
1F
100
AcDbEntity
  8
CENTER
100
AcDbLine
 10
174.5925163827252
 20
110.7159049128207
 30
0.0
 11
176.5800163827251
 21
110.7159049128207
 31
0.0
  0
LINE
  5
142
330
1F
100
AcDbEntity
  8
CENTER
100
AcDbLine
 10
172.5925163827251
 20
110.7159049128207
 30
0.0
 11
170.6050163827252
 21
110.7159049128207
 31
0.0
  0
LINE
  5
143
330
1F
100
AcDbEntity
  8
CENTER
100
AcDbLine
 10
173.5925163827251
 20
111.7159049128207
 30
0.0
 11
173.5925163827251
 21
113.7034049128207
 31
0.0
  0
LINE
  5
144
330
1F
100
AcDbEntity
  8
CENTER
100
AcDbLine
 10
173.5925163827251
 20
109.7159049128207
 30
0.0
 11
173.5925163827251
 21
107.7284049128207
 31
0.0
  0
LINE
  5
145
330
1F
100
AcDbEntity
  8
CENTER
100
AcDbLine
 10
212.3425163827252
 20
110.7159049128207
 30
0.0
 11
211.3425163827252
 21
110.7159049128207
 31
0.0
  0
LINE
  5
146
330
1F
100
AcDbEntity
  8
CENTER
100
AcDbLine
 10
211.8425163827252
 20
111.2159049128207
 30
0.0
 11
211.8425163827252
 21
110.2159049128207
 31
0.0
  0
LINE
  5
147
330
1F
100
AcDbEntity
  8
CENTER
100
AcDbLine
 10
212.8425163827252
 20
110.7159049128207
 30
0.0
 11
214.8300163827251
 21
110.7159049128207
 31
0.0
  0
LINE
  5
148
330
1F
100
AcDbEntity
  8
CENTER
100
AcDbLine
 10
210.8425163827252
 20
110.7159049128207
 30
0.0
 11
208.8550163827252
 21
110.7159049128207
 31
0.0
  0
LINE
  5
149
330
1F
100
AcDbEntity
  8
CENTER
100
AcDbLine
 10
211.8425163827252
 20
111.7159049128207
 30
0.0
 11
211.8425163827252
 21
113.7034049128207
 31
0.0
  0
LINE
  5
14A
330
1F
100
AcDbEntity
  8
CENTER
100
AcDbLine
 10
211.8425163827252
 20
109.7159049128207
 30
0.0
 11
211.8425163827252
 21
107.7284049128207
 31
0.0
  0
DIMENSION
  5
14B
330
1F
100
AcDbEntity
  8
DISSOCIATED
100
AcDbDimension
  2
D11
 10
0.0
 20
0.0
 30
0.0
 11
382.0564716011138
 21
211.7823677252102
 31
0.0
 70
    32
  1
<>
 71
     5
 42
-1.0
 73
     0
 74
     0
 75
     0
 53
180.0
  3
ISO-25
100
AcDbAlignedDimension
 13
169.3425163827252
 23
104.2159049128207
 33
0.0
 14
173.5925163827251
 24
107.7284049128207
 34
0.0
 50
180.0
100
AcDbRotatedDimension
1001
ACAD
1000
DSTYLE
1002
{
1070
    76
1070
     0
1070
    75
1070
     0
1070
   282
1070
     0
1070
   281
1070
     0
1070
    77
1070
     1
1070
    79
1070
     0
1070
    78
1070
     0
1070
   272
1070
     2
1070
   271
1070
     2
1070
   179
1070
     2
1070
   140
1040
2.707850318471337
1070
    71
1070
     0
1070
    72
1070
     0
1070
    48
1040
0.002
1070
    47
1040
0.005
1002
}
  0
DIMENSION
  5
15A
330
1F
100
AcDbEntity
  8
DISSOCIATED
100
AcDbDimension
  2
D12
 10
0.0
 20
0.0
 30
0.0
 11
390.3696735054107
 21
207.7492256353665
 31
0.0
 70
    32
  1
<>
 71
     5
 42
-1.0
 73
     0
 74
     0
 75
     0
 53
180.0
  3
ISO-25
100
AcDbAlignedDimension
 13
169.3425163827252
 23
104.2159049128207
 33
0.0
 14
189.5925163827252
 24
107.7284049128207
 34
0.0
 50
180.0
100
AcDbRotatedDimension
1001
ACAD
1000
DSTYLE
1002
{
1070
    76
1070
     0
1070
    75
1070
     0
1070
   282
1070
     0
1070
   281
1070
     0
1070
    77
1070
     1
1070
    79
1070
     0
1070
    78
1070
     0
1070
   272
1070
     2
1070
   271
1070
     2
1070
   179
1070
     2
1070
   140
1040
2.707850318471337
1070
    71
1070
     0
1070
    72
1070
     0
1070
    48
1040
0.002
1070
    47
1040
0.005
1002
}
  0
DIMENSION
  5
169
330
1F
100
AcDbEntity
  8
DISSOCIATED
100
AcDbDimension
  2
D13
 10
0.0
 20
0.0
 30
0.0
 11
394.8966663032622
 21
203.0576133917141
 31
0.0
 70
    32
  1
<>
 71
     5
 42
-1.0
 73
     0
 74
     0
 75
     0
 53
180.0
  3
ISO-25
100
AcDbAlignedDimension
 13
169.3425163827252
 23
104.2159049128207
 33
0.0
 14
195.8425163827252
 24
107.7284049128207
 34
0.0
 50
180.0
100
AcDbRotatedDimension
1001
ACAD
1000
DSTYLE
1002
{
1070
    76
1070
     0
1070
    75
1070
     0
1070
   282
1070
     0
1070
   281
1070
     0
1070
    77
1070
     1
1070
    79
1070
     0
1070
    78
1070
     0
1070
   272
1070
     2
1070
   271
1070
     2
1070
   179
1070
     2
1070
   140
1040
2.707850318471337
1070
    71
1070
     0
1070
    72
1070
     0
1070
    48
1040
0.002
1070
    47
1040
0.005
1002
}
  0
DIMENSION
  5
178
330
1F
100
AcDbEntity
  8
DISSOCIATED
100
AcDbDimension
  2
D14
 10
0.0
 20
0.0
 30
0.0
 11
402.8806445747467
 21
198.1190681646633
 31
0.0
 70
    32
  1
<>
 71
     5
 42
-1.0
 73
     0
 74
     0
 75
     0
 53
180.0
  3
ISO-25
100
AcDbAlignedDimension
 13
169.3425163827252
 23
104.2159049128207
 33
0.0
 14
211.842516347751
 24
110.7159049402049
 34
0.0
 50
180.0
100
AcDbRotatedDimension
1001
ACAD
1000
DSTYLE
1002
{
1070
    76
1070
     0
1070
    75
1070
     0
1070
   282
1070
     0
1070
   281
1070
     0
1070
    77
1070
     1
1070
    79
1070
     0
1070
    78
1070
     0
1070
   272
1070
     2
1070
   271
1070
     2
1070
   179
1070
     2
1070
   140
1040
2.707850318471337
1070
    71
1070
     0
1070
    72
1070
     0
1070
    48
1040
0.002
1070
    47
1040
0.005
1002
}
  0
DIMENSION
  5
187
330
1F
100
AcDbEntity
  8
DISSOCIATED
100
AcDbDimension
  2
D15
 10
0.0
 20
0.0
 30
0.0
 11
376.5417621284575
 21
217.7909279058742
 31
0.0
 70
    32
  1
<>
 71
     5
 42
-1.0
 73
     0
 74
     0
 75
     0
 53
270.0
  3
ISO-25
100
AcDbAlignedDimension
 13
169.3425163827252
 23
104.2159049128207
 33
0.0
 14
173.5925169139951
 24
110.7159049402049
 34
0.0
 50
270.0
100
AcDbRotatedDimension
1001
ACAD
1000
DSTYLE
1002
{
1070
    76
1070
     0
1070
    75
1070
     0
1070
   282
1070
     0
1070
   281
1070
     0
1070
    77
1070
     1
1070
    79
1070
     0
1070
    78
1070
     0
1070
   272
1070
     2
1070
   271
1070
     2
1070
   179
1070
     2
1070
   140
1040
2.707850318471337
1070
    71
1070
     0
1070
    72
1070
     0
1070
    48
1040
0.002
1070
    47
1040
0.005
1002
}
  0
DIMENSION
  5
196
330
1F
100
AcDbEntity
  8
DISSOCIATED
100
AcDbDimension
  2
D16
 10
0.0
 20
0.0
 30
0.0
 11
372.1793811470122
 21
228.984958667593
 31
0.0
 70
    32
  1
<>
 71
     5
 42
-1.0
 73
     0
 74
     0
 75
     0
 53
270.0
  3
ISO-25
100
AcDbAlignedDimension
 13
169.3425163827252
 23
104.2159049128207
 33
0.0
 14
170.6050163827252
 24
126.7159049128207
 34
0.0
 50
270.0
100
AcDbRotatedDimension
1001
ACAD
1000
DSTYLE
1002
{
1070
    76
1070
     0
1070
    75
1070
     0
1070
   282
1070
     0
1070
   281
1070
     0
1070
    77
1070
     1
1070
    79
1070
     0
1070
    78
1070
     0
1070
   272
1070
     2
1070
   271
1070
     2
1070
   179
1070
     2
1070
   140
1040
2.707850318471337
1070
    71
1070
     0
1070
    72
1070
     0
1070
    48
1040
0.002
1070
    47
1040
0.005
1002
}
  0
MTEXT
  5
1A5
330
1F
100
AcDbEntity
  8
CONTINUOUS
100
AcDbMText
 10
218.133262232623
 20
137.372275762719
 30
0.0
 40
2.079300327179538
 41
0.0
 46
0.0
 71
     4
 72
     1
  3
{\fArial|b0|i0|c0|p0;\C7;8x }{\fAlibre Symbols|b0|i0|c0|p0;\C7;\H1.052632x;n}{\fArial|b0|i0|c0|p0;\C7;3.2 }{\fAlibre Symbols|b0|i0|c0|p0;\C7;\H1.052632x;x}{\fArial|b0|i0|c0|p0;\C7; THRU}{\fArial|b0|i0|c0|p0;\C7;\P}{\fAlibre Symbols|b0|i0|c0|p0;\C7;\H
  1
1.052632x;wn}{\fArial|b0|i0|c0|p0;\C7; 0 X  0}{\fMicrosoft Sans Serif|b0|i0|c0|p0;\C7;\H0.8947368x;}
 73
     1
 44
1.0
  0
LINE
  5
1A6
330
1F
100
AcDbEntity
  8
CONTINUOUS
100
AcDbLine
 10
211.723887232623
 20
137.372275762719
 30
0.0
 11
216.883262232623
 21
137.372275762719
 31
0.0
  0
LINE
  5
1A7
330
1F
100
AcDbEntity
  8
CONTINUOUS
100
AcDbLine
 10
211.8002165372269
 20
130.5156694743522
 30
0.0
 11
211.8002165372269
 21
130.5156694743522
 31
0.0
  0
LINE
  5
1A8
330
1F
100
AcDbEntity
  8
CONTINUOUS
100
AcDbLine
 10
211.8002165372269
 20
130.5156694743522
 30
0.0
 11
211.723887232623
 21
137.372275762719
 31
0.0
  0
LWPOLYLINE
  5
1A9
330
1F
100
AcDbEntity
  8
CONTINUOUS
100
AcDbPolyline
 90
        4
 70
     0
 43
0.0
 10
211.8336111520939
 20
127.5158553468273
 10
211.3002475159728
 20
130.5101037052076
 10
212.300185558481
 20
130.5212352434966
 10
211.8336111520939
 20
127.5158553468273
  0
HATCH
  5
1AA
330
1F
100
AcDbEntity
  8
0
 62
     7
100
AcDbHatch
 10
0.0
 20
0.0
 30
0.0
210
0.0
220
0.0
230
1.0
  2
SOLID
 70
     1
 71
     0
 91
        1
 92
        0
 93
        3
 72
     1
 10
212.300185558481
 20
130.5212352434966
 11
211.8336111520939
 21
127.5158553468273
 72
     1
 10
211.8336111520939
 20
127.5158553468273
 11
211.3002475159728
 21
130.5101037052076
 72
     1
 10
211.3002475159728
 20
130.5101037052076
 11
212.300185558481
 21
130.5212352434966
 97
        0
 75
     0
 76
     1
 98
        0
  0
INSERT
  5
1AB
330
1F
100
AcDbEntity
  8
CONTINUOUS
100
AcDbBlockReference
  2
BLOCK0
 10
0.0
 20
0.0
 30
0.0
  0
ENDSEC
  0
SECTION
  2
OBJECTS
  0
DICTIONARY
  5
C
330
0
100
AcDbDictionary
281
     1
  3
ACAD_GROUP
350
D
  3
ACAD_LAYOUT
350
1A
  3
ACAD_MATERIAL
350
3B
  3
ACAD_MLEADERSTYLE
350
233
  3
ACAD_MLINESTYLE
350
17
  3
ACAD_PLOTSETTINGS
350
19
  3
ACAD_PLOTSTYLENAME
350
E
  3
ACAD_TABLESTYLE
350
232
  3
ACAD_VISUALSTYLE
350
2A
  0
DICTIONARY
  5
D
102
{ACAD_REACTORS
330
C
102
}
330
C
100
AcDbDictionary
281
     1
  0
DICTIONARY
  5
1A
102
{ACAD_REACTORS
330
C
102
}
330
C
100
AcDbDictionary
281
     1
  3
Layout1
350
1E
  3
Layout2
350
26
  3
Model
350
22
  0
DICTIONARY
  5
3B
102
{ACAD_REACTORS
330
C
102
}
330
C
100
AcDbDictionary
281
     1
  3
ByBlock
350
3D
  3
ByLayer
350
3C
  3
Global
350
3E
  0
DICTIONARY
  5
233
102
{ACAD_REACTORS
330
C
102
}
330
C
100
AcDbDictionary
281
     1
  0
DICTIONARY
  5
17
102
{ACAD_REACTORS
330
C
102
}
330
C
100
AcDbDictionary
281
     1
  3
Standard
350
18
  0
DICTIONARY
  5
19
102
{ACAD_REACTORS
330
C
102
}
330
C
100
AcDbDictionary
281
     1
  0
ACDBDICTIONARYWDFLT
  5
E
102
{ACAD_REACTORS
330
C
102
}
330
C
100
AcDbDictionary
281
     1
  3
Normal
350
F
100
AcDbDictionaryWithDefault
340
F
  0
DICTIONARY
  5
232
102
{ACAD_REACTORS
330
C
102
}
330
C
100
AcDbDictionary
281
     1
  0
DICTIONARY
  5
2A
102
{ACAD_REACTORS
330
C
102
}
330
C
100
AcDbDictionary
281
     1
  3
2dWireframe
350
2F
  3
3D Hidden
350
31
  3
3dWireframe
350
30
  3
Basic
350
32
  3
Brighten
350
36
  3
ColorChange
350
3A
  3
Conceptual
350
34
  3
Dim
350
35
  3
Facepattern
350
39
  3
Flat
350
2B
  3
FlatWithEdges
350
2C
  3
Gouraud
350
2D
  3
GouraudWithEdges
350
2E
  3
Linepattern
350
38
  3
Realistic
350
33
  3
Thicken
350
37
  0
LAYOUT
  5
1E
102
{ACAD_REACTORS
330
1A
102
}
330
1A
100
AcDbPlotSettings
  1

  2
none_device
  4

  6

 40
0.0
 41
0.0
 42
0.0
 43
0.0
 44
0.0
 45
0.0
 46
0.0
 47
0.0
 48
0.0
 49
0.0
140
0.0
141
0.0
142
1.0
143
1.0
 70
   688
 72
     0
 73
     0
 74
     5
  7

 75
    16
 76
     0
 77
     2
 78
   300
147
1.0
148
0.0
149
0.0
100
AcDbLayout
  1
Layout1
 70
     1
 71
     1
 10
0.0
 20
0.0
 11
420.0
 21
297.0
 12
0.0
 22
0.0
 32
0.0
 14
1.000000000000000E+20
 24
1.000000000000000E+20
 34
1.000000000000000E+20
 15
-1.000000000000000E+20
 25
-1.000000000000000E+20
 35
-1.000000000000000E+20
146
0.0
 13
0.0
 23
0.0
 33
0.0
 16
1.0
 26
0.0
 36
0.0
 17
0.0
 27
1.0
 37
0.0
 76
     0
330
1B
  0
LAYOUT
  5
26
102
{ACAD_REACTORS
330
1A
102
}
330
1A
100
AcDbPlotSettings
  1

  2
none_device
  4

  6

 40
0.0
 41
0.0
 42
0.0
 43
0.0
 44
0.0
 45
0.0
 46
0.0
 47
0.0
 48
0.0
 49
0.0
140
0.0
141
0.0
142
1.0
143
1.0
 70
   688
 72
     0
 73
     0
 74
     5
  7

 75
    16
 76
     0
 77
     2
 78
   300
147
1.0
148
0.0
149
0.0
100
AcDbLayout
  1
Layout2
 70
     1
 71
     2
 10
0.0
 20
0.0
 11
0.0
 21
0.0
 12
0.0
 22
0.0
 32
0.0
 14
0.0
 24
0.0
 34
0.0
 15
0.0
 25
0.0
 35
0.0
146
0.0
 13
0.0
 23
0.0
 33
0.0
 16
1.0
 26
0.0
 36
0.0
 17
0.0
 27
1.0
 37
0.0
 76
     0
330
23
  0
LAYOUT
  5
22
102
{ACAD_REACTORS
330
1A
102
}
330
1A
100
AcDbPlotSettings
  1

  2
none_device
  4

  6

 40
0.0
 41
0.0
 42
0.0
 43
0.0
 44
0.0
 45
0.0
 46
0.0
 47
0.0
 48
0.0
 49
0.0
140
0.0
141
0.0
142
1.0
143
1.0
 70
  1712
 72
     0
 73
     0
 74
     0
  7

 75
     0
 76
     0
 77
     2
 78
   300
147
1.0
148
0.0
149
0.0
100
AcDbLayout
  1
Model
 70
     1
 71
     0
 10
0.0
 20
0.0
 11
420.0
 21
297.0
 12
0.0
 22
0.0
 32
0.0
 14
1.000000000000000E+20
 24
1.000000000000000E+20
 34
1.000000000000000E+20
 15
-1.000000000000000E+20
 25
-1.000000000000000E+20
 35
-1.000000000000000E+20
146
0.0
 13
0.0
 23
0.0
 33
0.0
 16
1.0
 26
0.0
 36
0.0
 17
0.0
 27
1.0
 37
0.0
 76
     0
330
1F
331
29
  0
MATERIAL
  5
3D
102
{ACAD_REACTORS
330
3B
102
}
330
3B
100
AcDbMaterial
  1
ByBlock
 72
     1
 94
      127
  0
MATERIAL
  5
3C
102
{ACAD_REACTORS
330
3B
102
}
330
3B
100
AcDbMaterial
  1
ByLayer
 72
     1
 94
      127
  0
MATERIAL
  5
3E
102
{ACAD_REACTORS
330
3B
102
}
330
3B
100
AcDbMaterial
  1
Global
 72
     1
 94
      127
  0
MLINESTYLE
  5
18
102
{ACAD_REACTORS
330
17
102
}
330
17
100
AcDbMlineStyle
  2
Standard
 70
     0
  3

 62
   256
 51
90.0
 52
90.0
 71
     2
 49
0.5
 62
   256
  6
BYLAYER
 49
-0.5
 62
   256
  6
BYLAYER
  0
ACDBPLACEHOLDER
  5
F
102
{ACAD_REACTORS
330
E
102
}
330
E
  0
VISUALSTYLE
  5
2F
102
{ACAD_REACTORS
330
2A
102
}
102
{ACAD_XDICTIONARY
360
21A
102
}
330
2A
100
AcDbVisualStyle
  2
2dWireframe
 70
     4
 71
     0
 72
     2
 73
     0
 90
        0
 40
-0.6
 41
-30.0
 62
     5
 63
     7
421
 16777215
 74
     1
 91
        4
 64
     7
 65
   257
 75
     1
175
     1
 42
1.0
 92
        0
 66
   257
 43
1.0
 76
     1
 77
     6
 78
     2
 67
     7
 79
     5
170
     0
171
     0
290
     0
174
     0
 93
        1
 44
0.0
173
     0
291
     0
 45
0.0
  0
VISUALSTYLE
  5
31
102
{ACAD_REACTORS
330
2A
102
}
102
{ACAD_XDICTIONARY
360
21E
102
}
330
2A
100
AcDbVisualStyle
  2
3D Hidden
 70
     6
 71
     1
 72
     2
 73
     2
 90
        0
 40
-0.6
 41
-30.0
 62
     5
 63
     7
421
 16777215
 74
     2
 91
        2
 64
     7
 65
   257
 75
     2
175
     1
 42
40.0
 92
        0
 66
   257
 43
1.0
 76
     1
 77
     6
 78
     2
 67
     7
 79
     3
170
     0
171
     0
290
     0
174
     0
 93
        1
 44
0.0
173
     0
291
     0
 45
0.0
  0
VISUALSTYLE
  5
30
102
{ACAD_REACTORS
330
2A
102
}
102
{ACAD_XDICTIONARY
360
21C
102
}
330
2A
100
AcDbVisualStyle
  2
3dWireframe
 70
     5
 71
     0
 72
     2
 73
     0
 90
        0
 40
-0.6
 41
-30.0
 62
     5
 63
     7
421
 16777215
 74
     1
 91
        4
 64
     7
 65
   257
 75
     1
175
     1
 42
1.0
 92
        0
 66
   257
 43
1.0
 76
     1
 77
     6
 78
     2
 67
     7
 79
     5
170
     0
171
     0
290
     0
174
     0
 93
        1
 44
0.0
173
     0
291
     0
 45
0.0
  0
VISUALSTYLE
  5
32
102
{ACAD_REACTORS
330
2A
102
}
102
{ACAD_XDICTIONARY
360
220
102
}
330
2A
100
AcDbVisualStyle
  2
Basic
 70
     7
 71
     1
 72
     0
 73
     1
 90
        0
 40
-0.6
 41
-30.0
 62
     5
 63
     7
421
 16777215
 74
     0
 91
        4
 64
     7
 65
   257
 75
     1
175
     1
 42
1.0
 92
        8
 66
     7
 43
1.0
 76
     1
 77
     6
 78
     2
 67
     7
 79
     5
170
     0
171
     0
290
     0
174
     0
 93
        1
 44
0.0
173
     0
291
     1
 45
0.0
  0
VISUALSTYLE
  5
36
102
{ACAD_REACTORS
330
2A
102
}
102
{ACAD_XDICTIONARY
360
228
102
}
330
2A
100
AcDbVisualStyle
  2
Brighten
 70
    12
 71
     2
 72
     2
 73
     0
 90
        0
 40
-0.6
 41
-30.0
 62
     5
 63
     7
421
 16777215
 74
     1
 91
        4
 64
     7
 65
   257
 75
     1
175
     1
 42
1.0
 92
        8
 66
     7
 43
1.0
 76
     1
 77
     6
 78
     2
 67
     7
 79
     5
170
     0
171
     0
290
     0
174
     0
 93
        1
 44
50.0
173
     0
291
     1
 45
0.0
  0
VISUALSTYLE
  5
3A
102
{ACAD_REACTORS
330
2A
102
}
102
{ACAD_XDICTIONARY
360
230
102
}
330
2A
100
AcDbVisualStyle
  2
ColorChange
 70
    16
 71
     2
 72
     2
 73
     3
 90
        0
 40
-0.6
 41
-30.0
 62
     5
 63
     8
421
  8421504
 74
     1
 91
        4
 64
     7
 65
   257
 75
     1
175
     1
 42
1.0
 92
        8
 66
     8
424
  8421504
 43
1.0
 76
     1
 77
     6
 78
     2
 67
     7
 79
     5
170
     0
171
     0
290
     0
174
     0
 93
        1
 44
0.0
173
     0
291
     1
 45
0.0
  0
VISUALSTYLE
  5
34
102
{ACAD_REACTORS
330
2A
102
}
102
{ACAD_XDICTIONARY
360
224
102
}
330
2A
100
AcDbVisualStyle
  2
Conceptual
 70
     9
 71
     3
 72
     2
 73
     0
 90
        0
 40
-0.6
 41
-30.0
 62
     5
 63
     7
421
 16777215
 74
     2
 91
        2
 64
     7
 65
   257
 75
     1
175
     1
 42
40.0
 92
        8
 66
     7
 43
1.0
 76
     1
 77
     6
 78
     2
 67
     7
 79
     3
170
     0
171
     0
290
     0
174
     0
 93
        1
 44
0.0
173
     0
291
     0
 45
0.0
  0
VISUALSTYLE
  5
35
102
{ACAD_REACTORS
330
2A
102
}
102
{ACAD_XDICTIONARY
360
226
102
}
330
2A
100
AcDbVisualStyle
  2
Dim
 70
    11
 71
     2
 72
     2
 73
     0
 90
        0
 40
-0.6
 41
-30.0
 62
     5
 63
     7
421
 16777215
 74
     1
 91
        4
 64
     7
 65
   257
 75
     1
175
     1
 42
1.0
 92
        8
 66
     7
 43
1.0
 76
     1
 77
     6
 78
     2
 67
     7
 79
     5
170
     0
171
     0
290
     0
174
     0
 93
        1
 44
-50.0
173
     0
291
     1
 45
0.0
  0
VISUALSTYLE
  5
39
102
{ACAD_REACTORS
330
2A
102
}
102
{ACAD_XDICTIONARY
360
22E
102
}
330
2A
100
AcDbVisualStyle
  2
Facepattern
 70
    15
 71
     2
 72
     2
 73
     0
 90
        0
 40
-0.6
 41
-30.0
 62
     5
 63
     7
421
 16777215
 74
     1
 91
        4
 64
     7
 65
   257
 75
     1
175
     1
 42
1.0
 92
        8
 66
     7
 43
1.0
 76
     1
 77
     6
 78
     2
 67
     7
 79
     5
170
     0
171
     0
290
     0
174
     0
 93
        1
 44
0.0
173
     0
291
     1
 45
0.0
  0
VISUALSTYLE
  5
2B
102
{ACAD_REACTORS
330
2A
102
}
102
{ACAD_XDICTIONARY
360
212
102
}
330
2A
100
AcDbVisualStyle
  2
Flat
 70
     0
 71
     2
 72
     1
 73
     1
 90
        2
 40
-0.6
 41
30.0
 62
     5
 63
     7
421
 16777215
 74
     0
 91
        4
 64
     7
 65
   257
 75
     1
175
     1
 42
1.0
 92
        8
 66
     7
 43
1.0
 76
     1
 77
     6
 78
     2
 67
     7
 79
     5
170
     0
171
     0
290
     0
174
     0
 93
       13
 44
0.0
173
     0
291
     1
 45
0.0
  0
VISUALSTYLE
  5
2C
102
{ACAD_REACTORS
330
2A
102
}
102
{ACAD_XDICTIONARY
360
214
102
}
330
2A
100
AcDbVisualStyle
  2
FlatWithEdges
 70
     1
 71
     2
 72
     1
 73
     1
 90
        2
 40
-0.6
 41
30.0
 62
     5
 63
     7
421
 16777215
 74
     1
 91
        4
 64
     7
 65
   257
 75
     1
175
     1
 42
1.0
 92
        0
 66
   257
 43
1.0
 76
     1
 77
     6
 78
     2
 67
     7
 79
     5
170
     0
171
     0
290
     0
174
     0
 93
       13
 44
0.0
173
     0
291
     1
 45
0.0
  0
VISUALSTYLE
  5
2D
102
{ACAD_REACTORS
330
2A
102
}
102
{ACAD_XDICTIONARY
360
216
102
}
330
2A
100
AcDbVisualStyle
  2
Gouraud
 70
     2
 71
     2
 72
     2
 73
     1
 90
        2
 40
-0.6
 41
30.0
 62
     5
 63
     7
421
 16777215
 74
     0
 91
        4
 64
     7
 65
   257
 75
     1
175
     1
 42
1.0
 92
        0
 66
     7
 43
1.0
 76
     1
 77
     6
 78
     2
 67
     7
 79
     5
170
     0
171
     0
290
     0
174
     0
 93
       13
 44
0.0
173
     0
291
     1
 45
0.0
  0
VISUALSTYLE
  5
2E
102
{ACAD_REACTORS
330
2A
102
}
102
{ACAD_XDICTIONARY
360
218
102
}
330
2A
100
AcDbVisualStyle
  2
GouraudWithEdges
 70
     3
 71
     2
 72
     2
 73
     1
 90
        2
 40
-0.6
 41
30.0
 62
     5
 63
     7
421
 16777215
 74
     1
 91
        4
 64
     7
 65
   257
 75
     1
175
     1
 42
1.0
 92
        0
 66
   257
 43
1.0
 76
     1
 77
     6
 78
     2
 67
     7
 79
     5
170
     0
171
     0
290
     0
174
     0
 93
       13
 44
0.0
173
     0
291
     1
 45
0.0
  0
VISUALSTYLE
  5
38
102
{ACAD_REACTORS
330
2A
102
}
102
{ACAD_XDICTIONARY
360
22C
102
}
330
2A
100
AcDbVisualStyle
  2
Linepattern
 70
    14
 71
     2
 72
     2
 73
     0
 90
        0
 40
-0.6
 41
-30.0
 62
     5
 63
     7
421
 16777215
 74
     1
 91
        4
 64
     7
 65
   257
 75
     7
175
     7
 42
1.0
 92
        8
 66
     7
 43
1.0
 76
     1
 77
     6
 78
     2
 67
     7
 79
     5
170
     0
171
     0
290
     0
174
     0
 93
        1
 44
0.0
173
     0
291
     1
 45
0.0
  0
VISUALSTYLE
  5
33
102
{ACAD_REACTORS
330
2A
102
}
102
{ACAD_XDICTIONARY
360
222
102
}
330
2A
100
AcDbVisualStyle
  2
Realistic
 70
     8
 71
     2
 72
     2
 73
     0
 90
        0
 40
-0.6
 41
-30.0
 62
     5
 63
     7
421
 16777215
 74
     1
 91
        0
 64
     7
 65
   257
 75
     1
175
     1
 42
1.0
 92
        8
 66
     8
424
  7895160
 43
1.0
 76
     1
 77
     6
 78
     2
 67
     7
 79
     5
170
     0
171
     0
290
     0
174
     0
 93
       13
 44
0.0
173
     0
291
     0
 45
0.0
  0
VISUALSTYLE
  5
37
102
{ACAD_REACTORS
330
2A
102
}
102
{ACAD_XDICTIONARY
360
22A
102
}
330
2A
100
AcDbVisualStyle
  2
Thicken
 70
    13
 71
     2
 72
     2
 73
     0
 90
        0
 40
-0.6
 41
-30.0
 62
     5
 63
     7
421
 16777215
 74
     1
 91
        4
 64
     7
 65
   257
 75
     1
175
     1
 42
1.0
 92
       12
 66
     7
 43
1.0
 76
     1
 77
     6
 78
     2
 67
     7
 79
     5
170
     0
171
     0
290
     0
174
     0
 93
        1
 44
0.0
173
     0
291
     1
 45
0.0
  0
DICTIONARY
  5
21A
330
2F
100
AcDbDictionary
280
     1
281
     1
  3
ACAD_XREC_ROUNDTRIP
360
21B
  0
DICTIONARY
  5
21E
330
31
100
AcDbDictionary
280
     1
281
     1
  3
ACAD_XREC_ROUNDTRIP
360
21F
  0
DICTIONARY
  5
21C
330
30
100
AcDbDictionary
280
     1
281
     1
  3
ACAD_XREC_ROUNDTRIP
360
21D
  0
DICTIONARY
  5
220
330
32
100
AcDbDictionary
280
     1
281
     1
  3
ACAD_XREC_ROUNDTRIP
360
221
  0
DICTIONARY
  5
228
330
36
100
AcDbDictionary
280
     1
281
     1
  3
ACAD_XREC_ROUNDTRIP
360
229
  0
DICTIONARY
  5
230
330
3A
100
AcDbDictionary
280
     1
281
     1
  3
ACAD_XREC_ROUNDTRIP
360
231
  0
DICTIONARY
  5
224
330
34
100
AcDbDictionary
280
     1
281
     1
  3
ACAD_XREC_ROUNDTRIP
360
225
  0
DICTIONARY
  5
226
330
35
100
AcDbDictionary
280
     1
281
     1
  3
ACAD_XREC_ROUNDTRIP
360
227
  0
DICTIONARY
  5
22E
330
39
100
AcDbDictionary
280
     1
281
     1
  3
ACAD_XREC_ROUNDTRIP
360
22F
  0
DICTIONARY
  5
212
330
2B
100
AcDbDictionary
280
     1
281
     1
  3
ACAD_XREC_ROUNDTRIP
360
213
  0
DICTIONARY
  5
214
330
2C
100
AcDbDictionary
280
     1
281
     1
  3
ACAD_XREC_ROUNDTRIP
360
215
  0
DICTIONARY
  5
216
330
2D
100
AcDbDictionary
280
     1
281
     1
  3
ACAD_XREC_ROUNDTRIP
360
217
  0
DICTIONARY
  5
218
330
2E
100
AcDbDictionary
280
     1
281
     1
  3
ACAD_XREC_ROUNDTRIP
360
219
  0
DICTIONARY
  5
22C
330
38
100
AcDbDictionary
280
     1
281
     1
  3
ACAD_XREC_ROUNDTRIP
360
22D
  0
DICTIONARY
  5
222
330
33
100
AcDbDictionary
280
     1
281
     1
  3
ACAD_XREC_ROUNDTRIP
360
223
  0
DICTIONARY
  5
22A
330
37
100
AcDbDictionary
280
     1
281
     1
  3
ACAD_XREC_ROUNDTRIP
360
22B
  0
XRECORD
  5
21B
102
{ACAD_REACTORS
330
21A
102
}
330
21A
100
AcDbXrecord
280
     1
102
RTVSPropertyOp0
 70
     1
102
RTVSPropertyOp1
 70
     1
102
RTVSPropertyOp2
 70
     1
102
RTVSPropertyOp3
 70
     1
102
RTVSPropertyOp4
 70
     1
102
RTVSPropertyOp5
 70
     1
102
RTVSPropertyOp6
 70
     1
102
RTVSPropertyOp7
 70
     1
102
RTVSPropertyOp8
 70
     1
102
RTVSPropertyOp9
 70
     1
102
RTVSPropertyOp10
 70
     1
102
RTVSPropertyOp11
 70
     1
102
RTVSPropertyOp12
 70
     1
102
RTVSPropertyOp13
 70
     1
102
RTVSPropertyOp14
 70
     1
102
RTVSPropertyOp15
 70
     1
102
RTVSPropertyOp16
 70
     1
102
RTVSPropertyOp17
 70
     1
102
RTVSPropertyOp18
 70
     1
102
RTVSPropertyOp19
 70
     1
102
RTVSPropertyOp20
 70
     1
102
RTVSPropertyOp21
 70
     1
102
RTVSPropertyOp22
 70
     1
102
RTVSPropertyOp23
 70
     1
102
RTVSPropertyOp24
 70
     1
102
RTVSPropertyOp25
 70
     1
102
RTVSPropertyOp26
 70
     1
102
RTVSPropertyOp27
 70
     1
  0
XRECORD
  5
21F
102
{ACAD_REACTORS
330
21E
102
}
330
21E
100
AcDbXrecord
280
     1
102
RTVSPropertyOp0
 70
     1
102
RTVSPropertyOp1
 70
     1
102
RTVSPropertyOp2
 70
     1
102
RTVSPropertyOp3
 70
     1
102
RTVSPropertyOp4
 70
     1
102
RTVSPropertyOp5
 70
     1
102
RTVSPropertyOp6
 70
     1
102
RTVSPropertyOp7
 70
     1
102
RTVSPropertyOp8
 70
     1
102
RTVSPropertyOp9
 70
     1
102
RTVSPropertyOp10
 70
     1
102
RTVSPropertyOp11
 70
     1
102
RTVSPropertyOp12
 70
     1
102
RTVSPropertyOp13
 70
     1
102
RTVSPropertyOp14
 70
     1
102
RTVSPropertyOp15
 70
     1
102
RTVSPropertyOp16
 70
     1
102
RTVSPropertyOp17
 70
     1
102
RTVSPropertyOp18
 70
     1
102
RTVSPropertyOp19
 70
     1
102
RTVSPropertyOp20
 70
     1
102
RTVSPropertyOp21
 70
     1
102
RTVSPropertyOp22
 70
     1
102
RTVSPropertyOp23
 70
     1
102
RTVSPropertyOp24
 70
     1
102
RTVSPropertyOp25
 70
     1
102
RTVSPropertyOp26
 70
     1
102
RTVSPropertyOp27
 70
     1
  0
XRECORD
  5
21D
102
{ACAD_REACTORS
330
21C
102
}
330
21C
100
AcDbXrecord
280
     1
102
RTVSPropertyOp0
 70
     1
102
RTVSPropertyOp1
 70
     1
102
RTVSPropertyOp2
 70
     1
102
RTVSPropertyOp3
 70
     1
102
RTVSPropertyOp4
 70
     1
102
RTVSPropertyOp5
 70
     1
102
RTVSPropertyOp6
 70
     1
102
RTVSPropertyOp7
 70
     1
102
RTVSPropertyOp8
 70
     1
102
RTVSPropertyOp9
 70
     1
102
RTVSPropertyOp10
 70
     1
102
RTVSPropertyOp11
 70
     1
102
RTVSPropertyOp12
 70
     1
102
RTVSPropertyOp13
 70
     1
102
RTVSPropertyOp14
 70
     1
102
RTVSPropertyOp15
 70
     1
102
RTVSPropertyOp16
 70
     1
102
RTVSPropertyOp17
 70
     1
102
RTVSPropertyOp18
 70
     1
102
RTVSPropertyOp19
 70
     1
102
RTVSPropertyOp20
 70
     1
102
RTVSPropertyOp21
 70
     1
102
RTVSPropertyOp22
 70
     1
102
RTVSPropertyOp23
 70
     1
102
RTVSPropertyOp24
 70
     1
102
RTVSPropertyOp25
 70
     1
102
RTVSPropertyOp26
 70
     1
102
RTVSPropertyOp27
 70
     1
  0
XRECORD
  5
221
102
{ACAD_REACTORS
330
220
102
}
330
220
100
AcDbXrecord
280
     1
102
RTVSPropertyOp0
 70
     1
102
RTVSPropertyOp1
 70
     1
102
RTVSPropertyOp2
 70
     1
102
RTVSPropertyOp3
 70
     1
102
RTVSPropertyOp4
 70
     1
102
RTVSPropertyOp5
 70
     1
102
RTVSPropertyOp6
 70
     1
102
RTVSPropertyOp7
 70
     1
102
RTVSPropertyOp8
 70
     1
102
RTVSPropertyOp9
 70
     1
102
RTVSPropertyOp10
 70
     1
102
RTVSPropertyOp11
 70
     1
102
RTVSPropertyOp12
 70
     1
102
RTVSPropertyOp13
 70
     1
102
RTVSPropertyOp14
 70
     1
102
RTVSPropertyOp15
 70
     1
102
RTVSPropertyOp16
 70
     1
102
RTVSPropertyOp17
 70
     1
102
RTVSPropertyOp18
 70
     1
102
RTVSPropertyOp19
 70
     1
102
RTVSPropertyOp20
 70
     1
102
RTVSPropertyOp21
 70
     1
102
RTVSPropertyOp22
 70
     1
102
RTVSPropertyOp23
 70
     1
102
RTVSPropertyOp24
 70
     1
102
RTVSPropertyOp25
 70
     1
102
RTVSPropertyOp26
 70
     1
102
RTVSPropertyOp27
 70
     1
  0
XRECORD
  5
229
102
{ACAD_REACTORS
330
228
102
}
330
228
100
AcDbXrecord
280
     1
102
RTVSPropertyOp0
 70
     1
102
RTVSPropertyOp1
 70
     1
102
RTVSPropertyOp2
 70
     1
102
RTVSPropertyOp3
 70
     1
102
RTVSPropertyOp4
 70
     1
102
RTVSPropertyOp5
 70
     1
102
RTVSPropertyOp6
 70
     1
102
RTVSPropertyOp7
 70
     1
102
RTVSPropertyOp8
 70
     1
102
RTVSPropertyOp9
 70
     1
102
RTVSPropertyOp10
 70
     1
102
RTVSPropertyOp11
 70
     1
102
RTVSPropertyOp12
 70
     1
102
RTVSPropertyOp13
 70
     1
102
RTVSPropertyOp14
 70
     1
102
RTVSPropertyOp15
 70
     1
102
RTVSPropertyOp16
 70
     1
102
RTVSPropertyOp17
 70
     1
102
RTVSPropertyOp18
 70
     1
102
RTVSPropertyOp19
 70
     1
102
RTVSPropertyOp20
 70
     1
102
RTVSPropertyOp21
 70
     1
102
RTVSPropertyOp22
 70
     1
102
RTVSPropertyOp23
 70
     1
102
RTVSPropertyOp24
 70
     1
102
RTVSPropertyOp25
 70
     1
102
RTVSPropertyOp26
 70
     1
102
RTVSPropertyOp27
 70
     1
  0
XRECORD
  5
231
102
{ACAD_REACTORS
330
230
102
}
330
230
100
AcDbXrecord
280
     1
102
RTVSPropertyOp0
 70
     1
102
RTVSPropertyOp1
 70
     1
102
RTVSPropertyOp2
 70
     1
102
RTVSPropertyOp3
 70
     1
102
RTVSPropertyOp4
 70
     1
102
RTVSPropertyOp5
 70
     1
102
RTVSPropertyOp6
 70
     1
102
RTVSPropertyOp7
 70
     1
102
RTVSPropertyOp8
 70
     1
102
RTVSPropertyOp9
 70
     1
102
RTVSPropertyOp10
 70
     1
102
RTVSPropertyOp11
 70
     1
102
RTVSPropertyOp12
 70
     1
102
RTVSPropertyOp13
 70
     1
102
RTVSPropertyOp14
 70
     1
102
RTVSPropertyOp15
 70
     1
102
RTVSPropertyOp16
 70
     1
102
RTVSPropertyOp17
 70
     1
102
RTVSPropertyOp18
 70
     1
102
RTVSPropertyOp19
 70
     1
102
RTVSPropertyOp20
 70
     1
102
RTVSPropertyOp21
 70
     1
102
RTVSPropertyOp22
 70
     1
102
RTVSPropertyOp23
 70
     1
102
RTVSPropertyOp24
 70
     1
102
RTVSPropertyOp25
 70
     1
102
RTVSPropertyOp26
 70
     1
102
RTVSPropertyOp27
 70
     1
  0
XRECORD
  5
225
102
{ACAD_REACTORS
330
224
102
}
330
224
100
AcDbXrecord
280
     1
102
RTVSPropertyOp0
 70
     1
102
RTVSPropertyOp1
 70
     1
102
RTVSPropertyOp2
 70
     1
102
RTVSPropertyOp3
 70
     1
102
RTVSPropertyOp4
 70
     1
102
RTVSPropertyOp5
 70
     1
102
RTVSPropertyOp6
 70
     1
102
RTVSPropertyOp7
 70
     1
102
RTVSPropertyOp8
 70
     1
102
RTVSPropertyOp9
 70
     1
102
RTVSPropertyOp10
 70
     1
102
RTVSPropertyOp11
 70
     1
102
RTVSPropertyOp12
 70
     1
102
RTVSPropertyOp13
 70
     1
102
RTVSPropertyOp14
 70
     1
102
RTVSPropertyOp15
 70
     1
102
RTVSPropertyOp16
 70
     1
102
RTVSPropertyOp17
 70
     1
102
RTVSPropertyOp18
 70
     1
102
RTVSPropertyOp19
 70
     1
102
RTVSPropertyOp20
 70
     1
102
RTVSPropertyOp21
 70
     1
102
RTVSPropertyOp22
 70
     1
102
RTVSPropertyOp23
 70
     1
102
RTVSPropertyOp24
 70
     1
102
RTVSPropertyOp25
 70
     1
102
RTVSPropertyOp26
 70
     1
102
RTVSPropertyOp27
 70
     1
  0
XRECORD
  5
227
102
{ACAD_REACTORS
330
226
102
}
330
226
100
AcDbXrecord
280
     1
102
RTVSPropertyOp0
 70
     1
102
RTVSPropertyOp1
 70
     1
102
RTVSPropertyOp2
 70
     1
102
RTVSPropertyOp3
 70
     1
102
RTVSPropertyOp4
 70
     1
102
RTVSPropertyOp5
 70
     1
102
RTVSPropertyOp6
 70
     1
102
RTVSPropertyOp7
 70
     1
102
RTVSPropertyOp8
 70
     1
102
RTVSPropertyOp9
 70
     1
102
RTVSPropertyOp10
 70
     1
102
RTVSPropertyOp11
 70
     1
102
RTVSPropertyOp12
 70
     1
102
RTVSPropertyOp13
 70
     1
102
RTVSPropertyOp14
 70
     1
102
RTVSPropertyOp15
 70
     1
102
RTVSPropertyOp16
 70
     1
102
RTVSPropertyOp17
 70
     1
102
RTVSPropertyOp18
 70
     1
102
RTVSPropertyOp19
 70
     1
102
RTVSPropertyOp20
 70
     1
102
RTVSPropertyOp21
 70
     1
102
RTVSPropertyOp22
 70
     1
102
RTVSPropertyOp23
 70
     1
102
RTVSPropertyOp24
 70
     1
102
RTVSPropertyOp25
 70
     1
102
RTVSPropertyOp26
 70
     1
102
RTVSPropertyOp27
 70
     1
  0
XRECORD
  5
22F
102
{ACAD_REACTORS
330
22E
102
}
330
22E
100
AcDbXrecord
280
     1
102
RTVSPropertyOp0
 70
     1
102
RTVSPropertyOp1
 70
     1
102
RTVSPropertyOp2
 70
     1
102
RTVSPropertyOp3
 70
     1
102
RTVSPropertyOp4
 70
     1
102
RTVSPropertyOp5
 70
     1
102
RTVSPropertyOp6
 70
     1
102
RTVSPropertyOp7
 70
     1
102
RTVSPropertyOp8
 70
     1
102
RTVSPropertyOp9
 70
     1
102
RTVSPropertyOp10
 70
     1
102
RTVSPropertyOp11
 70
     1
102
RTVSPropertyOp12
 70
     1
102
RTVSPropertyOp13
 70
     1
102
RTVSPropertyOp14
 70
     1
102
RTVSPropertyOp15
 70
     1
102
RTVSPropertyOp16
 70
     1
102
RTVSPropertyOp17
 70
     1
102
RTVSPropertyOp18
 70
     1
102
RTVSPropertyOp19
 70
     1
102
RTVSPropertyOp20
 70
     1
102
RTVSPropertyOp21
 70
     1
102
RTVSPropertyOp22
 70
     1
102
RTVSPropertyOp23
 70
     1
102
RTVSPropertyOp24
 70
     1
102
RTVSPropertyOp25
 70
     1
102
RTVSPropertyOp26
 70
     1
102
RTVSPropertyOp27
 70
     1
  0
XRECORD
  5
213
102
{ACAD_REACTORS
330
212
102
}
330
212
100
AcDbXrecord
280
     1
102
RTVSPropertyOp0
 70
     1
102
RTVSPropertyOp1
 70
     1
102
RTVSPropertyOp2
 70
     1
102
RTVSPropertyOp3
 70
     1
102
RTVSPropertyOp4
 70
     1
102
RTVSPropertyOp5
 70
     1
102
RTVSPropertyOp6
 70
     1
102
RTVSPropertyOp7
 70
     1
102
RTVSPropertyOp8
 70
     1
102
RTVSPropertyOp9
 70
     1
102
RTVSPropertyOp10
 70
     1
102
RTVSPropertyOp11
 70
     1
102
RTVSPropertyOp12
 70
     1
102
RTVSPropertyOp13
 70
     1
102
RTVSPropertyOp14
 70
     1
102
RTVSPropertyOp15
 70
     1
102
RTVSPropertyOp16
 70
     1
102
RTVSPropertyOp17
 70
     1
102
RTVSPropertyOp18
 70
     1
102
RTVSPropertyOp19
 70
     1
102
RTVSPropertyOp20
 70
     1
102
RTVSPropertyOp21
 70
     1
102
RTVSPropertyOp22
 70
     1
102
RTVSPropertyOp23
 70
     1
102
RTVSPropertyOp24
 70
     1
102
RTVSPropertyOp25
 70
     1
102
RTVSPropertyOp26
 70
     1
102
RTVSPropertyOp27
 70
     1
  0
XRECORD
  5
215
102
{ACAD_REACTORS
330
214
102
}
330
214
100
AcDbXrecord
280
     1
102
RTVSPropertyOp0
 70
     1
102
RTVSPropertyOp1
 70
     1
102
RTVSPropertyOp2
 70
     1
102
RTVSPropertyOp3
 70
     1
102
RTVSPropertyOp4
 70
     1
102
RTVSPropertyOp5
 70
     1
102
RTVSPropertyOp6
 70
     1
102
RTVSPropertyOp7
 70
     1
102
RTVSPropertyOp8
 70
     1
102
RTVSPropertyOp9
 70
     1
102
RTVSPropertyOp10
 70
     1
102
RTVSPropertyOp11
 70
     1
102
RTVSPropertyOp12
 70
     1
102
RTVSPropertyOp13
 70
     1
102
RTVSPropertyOp14
 70
     1
102
RTVSPropertyOp15
 70
     1
102
RTVSPropertyOp16
 70
     1
102
RTVSPropertyOp17
 70
     1
102
RTVSPropertyOp18
 70
     1
102
RTVSPropertyOp19
 70
     1
102
RTVSPropertyOp20
 70
     1
102
RTVSPropertyOp21
 70
     1
102
RTVSPropertyOp22
 70
     1
102
RTVSPropertyOp23
 70
     1
102
RTVSPropertyOp24
 70
     1
102
RTVSPropertyOp25
 70
     1
102
RTVSPropertyOp26
 70
     1
102
RTVSPropertyOp27
 70
     1
  0
XRECORD
  5
217
102
{ACAD_REACTORS
330
216
102
}
330
216
100
AcDbXrecord
280
     1
102
RTVSPropertyOp0
 70
     1
102
RTVSPropertyOp1
 70
     1
102
RTVSPropertyOp2
 70
     1
102
RTVSPropertyOp3
 70
     1
102
RTVSPropertyOp4
 70
     1
102
RTVSPropertyOp5
 70
     1
102
RTVSPropertyOp6
 70
     1
102
RTVSPropertyOp7
 70
     1
102
RTVSPropertyOp8
 70
     1
102
RTVSPropertyOp9
 70
     1
102
RTVSPropertyOp10
 70
     1
102
RTVSPropertyOp11
 70
     1
102
RTVSPropertyOp12
 70
     1
102
RTVSPropertyOp13
 70
     1
102
RTVSPropertyOp14
 70
     1
102
RTVSPropertyOp15
 70
     1
102
RTVSPropertyOp16
 70
     1
102
RTVSPropertyOp17
 70
     1
102
RTVSPropertyOp18
 70
     1
102
RTVSPropertyOp19
 70
     1
102
RTVSPropertyOp20
 70
     1
102
RTVSPropertyOp21
 70
     1
102
RTVSPropertyOp22
 70
     1
102
RTVSPropertyOp23
 70
     1
102
RTVSPropertyOp24
 70
     1
102
RTVSPropertyOp25
 70
     1
102
RTVSPropertyOp26
 70
     1
102
RTVSPropertyOp27
 70
     1
  0
XRECORD
  5
219
102
{ACAD_REACTORS
330
218
102
}
330
218
100
AcDbXrecord
280
     1
102
RTVSPropertyOp0
 70
     1
102
RTVSPropertyOp1
 70
     1
102
RTVSPropertyOp2
 70
     1
102
RTVSPropertyOp3
 70
     1
102
RTVSPropertyOp4
 70
     1
102
RTVSPropertyOp5
 70
     1
102
RTVSPropertyOp6
 70
     1
102
RTVSPropertyOp7
 70
     1
102
RTVSPropertyOp8
 70
     1
102
RTVSPropertyOp9
 70
     1
102
RTVSPropertyOp10
 70
     1
102
RTVSPropertyOp11
 70
     1
102
RTVSPropertyOp12
 70
     1
102
RTVSPropertyOp13
 70
     1
102
RTVSPropertyOp14
 70
     1
102
RTVSPropertyOp15
 70
     1
102
RTVSPropertyOp16
 70
     1
102
RTVSPropertyOp17
 70
     1
102
RTVSPropertyOp18
 70
     1
102
RTVSPropertyOp19
 70
     1
102
RTVSPropertyOp20
 70
     1
102
RTVSPropertyOp21
 70
     1
102
RTVSPropertyOp22
 70
     1
102
RTVSPropertyOp23
 70
     1
102
RTVSPropertyOp24
 70
     1
102
RTVSPropertyOp25
 70
     1
102
RTVSPropertyOp26
 70
     1
102
RTVSPropertyOp27
 70
     1
  0
XRECORD
  5
22D
102
{ACAD_REACTORS
330
22C
102
}
330
22C
100
AcDbXrecord
280
     1
102
RTVSPropertyOp0
 70
     1
102
RTVSPropertyOp1
 70
     1
102
RTVSPropertyOp2
 70
     1
102
RTVSPropertyOp3
 70
     1
102
RTVSPropertyOp4
 70
     1
102
RTVSPropertyOp5
 70
     1
102
RTVSPropertyOp6
 70
     1
102
RTVSPropertyOp7
 70
     1
102
RTVSPropertyOp8
 70
     1
102
RTVSPropertyOp9
 70
     1
102
RTVSPropertyOp10
 70
     1
102
RTVSPropertyOp11
 70
     1
102
RTVSPropertyOp12
 70
     1
102
RTVSPropertyOp13
 70
     1
102
RTVSPropertyOp14
 70
     1
102
RTVSPropertyOp15
 70
     1
102
RTVSPropertyOp16
 70
     1
102
RTVSPropertyOp17
 70
     1
102
RTVSPropertyOp18
 70
     1
102
RTVSPropertyOp19
 70
     1
102
RTVSPropertyOp20
 70
     1
102
RTVSPropertyOp21
 70
     1
102
RTVSPropertyOp22
 70
     1
102
RTVSPropertyOp23
 70
     1
102
RTVSPropertyOp24
 70
     1
102
RTVSPropertyOp25
 70
     1
102
RTVSPropertyOp26
 70
     1
102
RTVSPropertyOp27
 70
     1
  0
XRECORD
  5
223
102
{ACAD_REACTORS
330
222
102
}
330
222
100
AcDbXrecord
280
     1
102
RTVSPropertyOp0
 70
     1
102
RTVSPropertyOp1
 70
     1
102
RTVSPropertyOp2
 70
     1
102
RTVSPropertyOp3
 70
     1
102
RTVSPropertyOp4
 70
     1
102
RTVSPropertyOp5
 70
     1
102
RTVSPropertyOp6
 70
     1
102
RTVSPropertyOp7
 70
     1
102
RTVSPropertyOp8
 70
     1
102
RTVSPropertyOp9
 70
     1
102
RTVSPropertyOp10
 70
     1
102
RTVSPropertyOp11
 70
     1
102
RTVSPropertyOp12
 70
     1
102
RTVSPropertyOp13
 70
     1
102
RTVSPropertyOp14
 70
     1
102
RTVSPropertyOp15
 70
     1
102
RTVSPropertyOp16
 70
     1
102
RTVSPropertyOp17
 70
     1
102
RTVSPropertyOp18
 70
     1
102
RTVSPropertyOp19
 70
     1
102
RTVSPropertyOp20
 70
     1
102
RTVSPropertyOp21
 70
     1
102
RTVSPropertyOp22
 70
     1
102
RTVSPropertyOp23
 70
     1
102
RTVSPropertyOp24
 70
     1
102
RTVSPropertyOp25
 70
     1
102
RTVSPropertyOp26
 70
     1
102
RTVSPropertyOp27
 70
     1
  0
XRECORD
  5
22B
102
{ACAD_REACTORS
330
22A
102
}
330
22A
100
AcDbXrecord
280
     1
102
RTVSPropertyOp0
 70
     1
102
RTVSPropertyOp1
 70
     1
102
RTVSPropertyOp2
 70
     1
102
RTVSPropertyOp3
 70
     1
102
RTVSPropertyOp4
 70
     1
102
RTVSPropertyOp5
 70
     1
102
RTVSPropertyOp6
 70
     1
102
RTVSPropertyOp7
 70
     1
102
RTVSPropertyOp8
 70
     1
102
RTVSPropertyOp9
 70
     1
102
RTVSPropertyOp10
 70
     1
102
RTVSPropertyOp11
 70
     1
102
RTVSPropertyOp12
 70
     1
102
RTVSPropertyOp13
 70
     1
102
RTVSPropertyOp14
 70
     1
102
RTVSPropertyOp15
 70
     1
102
RTVSPropertyOp16
 70
     1
102
RTVSPropertyOp17
 70
     1
102
RTVSPropertyOp18
 70
     1
102
RTVSPropertyOp19
 70
     1
102
RTVSPropertyOp20
 70
     1
102
RTVSPropertyOp21
 70
     1
102
RTVSPropertyOp22
 70
     1
102
RTVSPropertyOp23
 70
     1
102
RTVSPropertyOp24
 70
     1
102
RTVSPropertyOp25
 70
     1
102
RTVSPropertyOp26
 70
     1
102
RTVSPropertyOp27
 70
     1
  0
ENDSEC
  0
EOF
